<svg width="35" height="35" viewBox="0 0 35 35" fill="none" xmlns="http://www.w3.org/2000/svg">
<path d="M33.1193 10.4335C32.4712 8.95129 31.6135 7.57001 30.5725 6.33201C29.0336 4.4473 27.113 2.90996 24.9374 1.82118C22.7617 0.732402 20.3801 0.116865 17.9495 0.0150821C15.5188 -0.0867003 13.0942 0.327578 10.8351 1.23066C8.57606 2.13373 6.53381 3.50513 4.84279 5.25459C3.15177 7.00405 1.85031 9.0919 1.02408 11.3807C0.197841 13.6696 -0.134439 16.1075 0.0491075 18.534C0.232655 20.9605 0.927867 23.3207 2.08899 25.4591C3.2501 27.5975 4.8508 29.4657 6.78573 30.9408C8.02728 31.9061 9.39916 32.6909 10.8606 33.2717C12.9095 34.1116 15.1023 34.5442 17.3166 34.5455C21.8873 34.5353 26.2675 32.7129 29.4971 29.4776C32.7266 26.2424 34.5421 21.8582 34.5454 17.2862C34.5488 14.9279 34.0632 12.5945 33.1193 10.4335ZM17.3039 3.51703C19.2923 3.51682 21.2568 3.95156 23.0595 4.79078C22.6199 4.98078 22.1577 5.11349 21.6843 5.18564C20.1264 5.41122 18.6833 6.13468 17.5702 7.24805C16.4572 8.36143 15.7339 9.805 15.5084 11.3633C15.4094 12.2372 15.012 13.0503 14.3834 13.6652C13.7547 14.2801 12.9332 14.6593 12.0575 14.7387C10.4997 14.9643 9.05651 15.6878 7.94345 16.8011C6.8304 17.9145 6.10714 19.3581 5.88163 20.9164C5.80528 21.7474 5.45084 22.5283 4.87566 23.1327C3.88325 21.0352 3.43744 18.7206 3.5797 16.4044C3.72197 14.0882 4.44768 11.8457 5.68931 9.88544C6.93094 7.92521 8.64814 6.31102 10.6811 5.19309C12.714 4.07516 14.9967 3.48983 17.3166 3.49156L17.3039 3.51703ZM6.773 26.2024C6.9258 26.0623 7.07861 25.9349 7.23142 25.7821C8.36428 24.6834 9.09146 23.2331 9.29429 21.6679C9.37653 20.788 9.76926 19.9662 10.4021 19.3497C11.0111 18.7156 11.8308 18.326 12.707 18.2543C14.2648 18.0287 15.708 17.3052 16.821 16.1919C17.9341 15.0785 18.6573 13.6349 18.8829 12.0766C18.9379 11.1563 19.3327 10.2893 19.9907 9.64375C20.6147 9.02197 21.4422 8.64654 22.321 8.58654C23.7522 8.38957 25.0869 7.75315 26.1411 6.76509C27.3415 7.76125 28.3585 8.95961 29.1463 10.3061C29.0979 10.3715 29.0424 10.4313 28.9808 10.4844C28.3729 11.1241 27.5543 11.5222 26.6759 11.6053C25.1165 11.827 23.6712 12.5491 22.5574 13.6632C21.4436 14.7773 20.7216 16.2231 20.5 17.783C20.4103 18.6599 20.0203 19.4787 19.396 20.1009C18.7717 20.723 17.9516 21.1101 17.0747 21.1966C15.5122 21.4205 14.0637 22.1425 12.9442 23.2554C11.8247 24.3683 11.094 25.8128 10.8606 27.3743C10.792 27.9968 10.5783 28.5945 10.2366 29.1193C8.9301 28.3434 7.75998 27.358 6.773 26.2024ZM17.3039 31.1191C16.0117 31.1205 14.7258 30.9404 13.4837 30.5841C13.9086 29.7918 14.1848 28.9284 14.2987 28.0366C14.3879 27.1617 14.7761 26.3443 15.3978 25.7225C16.0195 25.1006 16.8367 24.7123 17.7113 24.623C19.2715 24.3999 20.7175 23.6776 21.8331 22.564C22.9487 21.4504 23.6738 20.0055 23.9 18.4453C23.9892 17.5704 24.3774 16.753 24.9991 16.1312C25.6208 15.5093 26.438 15.121 27.3126 15.0317C28.4867 14.8789 29.6058 14.4417 30.5725 13.7579C31.1093 15.7933 31.1729 17.9245 30.7584 19.9883C30.3439 22.052 29.4623 23.9933 28.1812 25.6633C26.9002 27.3333 25.2538 28.6876 23.3683 29.6223C21.4827 30.557 19.4082 31.0472 17.3039 31.0554V31.1191Z" fill="white"/>
</svg>
