<svg width="651" height="584" viewBox="0 0 651 584" fill="none" xmlns="http://www.w3.org/2000/svg">
<rect width="651" height="584" rx="20" fill="#295D4E"/>
<path d="M87 227C87 215.954 95.9543 207 107 207H205C216.046 207 225 215.954 225 227V584H87V227Z" fill="#F2F9FB"/>
<path d="M128.666 274.456C126.817 274.456 125.259 274.101 123.992 273.392C122.725 272.657 121.737 271.707 121.028 270.542C120.319 269.377 119.901 268.123 119.774 266.78H124.296C124.499 267.945 124.98 268.845 125.74 269.478C126.525 270.111 127.513 270.428 128.704 270.428C130.401 270.428 131.769 269.655 132.808 268.11C133.847 266.539 134.404 264.158 134.48 260.966C133.872 262.005 132.947 262.866 131.706 263.55C130.49 264.234 129.147 264.576 127.678 264.576C126.209 264.576 124.828 264.221 123.536 263.512C122.244 262.803 121.193 261.802 120.382 260.51C119.571 259.218 119.166 257.698 119.166 255.95C119.166 254.354 119.559 252.872 120.344 251.504C121.129 250.136 122.219 249.034 123.612 248.198C125.005 247.362 126.639 246.944 128.514 246.944C130.515 246.944 132.2 247.311 133.568 248.046C134.936 248.781 136.025 249.769 136.836 251.01C137.672 252.251 138.267 253.632 138.622 255.152C139.002 256.672 139.192 258.23 139.192 259.826C139.192 262.79 138.774 265.374 137.938 267.578C137.127 269.757 135.924 271.454 134.328 272.67C132.757 273.861 130.87 274.456 128.666 274.456ZM128.818 260.472C129.755 260.472 130.604 260.269 131.364 259.864C132.124 259.433 132.719 258.876 133.15 258.192C133.581 257.483 133.796 256.697 133.796 255.836C133.796 254.468 133.315 253.341 132.352 252.454C131.415 251.567 130.224 251.124 128.78 251.124C127.361 251.124 126.183 251.567 125.246 252.454C124.309 253.315 123.84 254.417 123.84 255.76C123.84 257.179 124.309 258.319 125.246 259.18C126.183 260.041 127.374 260.472 128.818 260.472ZM152.72 274.456C150.896 274.456 149.249 274.139 147.78 273.506C146.311 272.847 145.133 271.923 144.246 270.732C143.385 269.541 142.954 268.161 142.954 266.59C142.954 264.969 143.372 263.55 144.208 262.334C145.069 261.118 146.197 260.244 147.59 259.712C146.374 259.18 145.411 258.42 144.702 257.432C143.993 256.419 143.638 255.291 143.638 254.05C143.638 252.783 143.98 251.618 144.664 250.554C145.348 249.465 146.361 248.591 147.704 247.932C149.072 247.273 150.744 246.944 152.72 246.944C154.696 246.944 156.355 247.273 157.698 247.932C159.041 248.591 160.054 249.465 160.738 250.554C161.422 251.618 161.764 252.783 161.764 254.05C161.764 255.266 161.397 256.393 160.662 257.432C159.953 258.445 159.003 259.205 157.812 259.712C159.231 260.244 160.358 261.118 161.194 262.334C162.03 263.55 162.448 264.969 162.448 266.59C162.448 268.161 162.017 269.541 161.156 270.732C160.295 271.923 159.117 272.847 157.622 273.506C156.153 274.139 154.519 274.456 152.72 274.456ZM152.72 258.268C154.037 258.268 155.076 257.926 155.836 257.242C156.596 256.558 156.976 255.684 156.976 254.62C156.976 253.455 156.596 252.543 155.836 251.884C155.101 251.225 154.063 250.896 152.72 250.896C151.352 250.896 150.301 251.225 149.566 251.884C148.831 252.543 148.464 253.455 148.464 254.62C148.464 255.709 148.831 256.596 149.566 257.28C150.326 257.939 151.377 258.268 152.72 258.268ZM152.72 270.39C154.341 270.39 155.57 269.997 156.406 269.212C157.242 268.401 157.66 267.388 157.66 266.172C157.66 264.829 157.217 263.778 156.33 263.018C155.469 262.258 154.265 261.878 152.72 261.878C151.175 261.878 149.946 262.258 149.034 263.018C148.147 263.778 147.704 264.829 147.704 266.172C147.704 267.388 148.122 268.401 148.958 269.212C149.819 269.997 151.073 270.39 152.72 270.39ZM172.704 260.472C171.488 260.472 170.386 260.206 169.398 259.674C168.41 259.117 167.625 258.331 167.042 257.318C166.46 256.305 166.168 255.101 166.168 253.708C166.168 252.315 166.46 251.111 167.042 250.098C167.625 249.085 168.41 248.312 169.398 247.78C170.386 247.223 171.501 246.944 172.742 246.944C173.958 246.944 175.048 247.223 176.01 247.78C176.998 248.312 177.784 249.085 178.366 250.098C178.949 251.111 179.24 252.315 179.24 253.708C179.24 255.101 178.949 256.305 178.366 257.318C177.784 258.331 176.998 259.117 176.01 259.674C175.022 260.206 173.92 260.472 172.704 260.472ZM171.26 274L186.27 247.4H191.02L176.01 274H171.26ZM172.704 257.09C173.439 257.09 174.072 256.811 174.604 256.254C175.136 255.671 175.402 254.823 175.402 253.708C175.402 252.593 175.136 251.745 174.604 251.162C174.098 250.579 173.464 250.288 172.704 250.288C171.944 250.288 171.298 250.579 170.766 251.162C170.26 251.745 170.006 252.593 170.006 253.708C170.006 254.823 170.26 255.671 170.766 256.254C171.298 256.811 171.944 257.09 172.704 257.09ZM189.728 274.456C188.512 274.456 187.41 274.19 186.422 273.658C185.434 273.101 184.649 272.315 184.066 271.302C183.484 270.289 183.192 269.085 183.192 267.692C183.192 266.299 183.484 265.108 184.066 264.12C184.649 263.107 185.434 262.334 186.422 261.802C187.41 261.245 188.525 260.966 189.766 260.966C190.982 260.966 192.072 261.245 193.034 261.802C194.022 262.334 194.808 263.107 195.39 264.12C195.973 265.108 196.264 266.299 196.264 267.692C196.264 269.085 195.973 270.289 195.39 271.302C194.808 272.315 194.022 273.101 193.034 273.658C192.072 274.19 190.97 274.456 189.728 274.456ZM189.728 271.074C190.488 271.074 191.122 270.795 191.628 270.238C192.16 269.655 192.426 268.807 192.426 267.692C192.426 266.577 192.16 265.729 191.628 265.146C191.122 264.563 190.488 264.272 189.728 264.272C188.968 264.272 188.322 264.563 187.79 265.146C187.284 265.729 187.03 266.577 187.03 267.692C187.03 268.807 187.284 269.655 187.79 270.238C188.322 270.795 188.968 271.074 189.728 271.074Z" fill="#295D4E"/>
<path d="M275 388C275 376.954 283.954 368 295 368H393C404.046 368 413 376.954 413 388V584H275V388Z" fill="#537C71"/>
<path d="M305.938 432V428.466C307.559 427.123 309.13 425.793 310.65 424.476C312.195 423.159 313.563 421.854 314.754 420.562C315.97 419.27 316.933 418.016 317.642 416.8C318.377 415.559 318.744 414.355 318.744 413.19C318.744 412.101 318.44 411.138 317.832 410.302C317.249 409.466 316.274 409.048 314.906 409.048C313.513 409.048 312.461 409.504 311.752 410.416C311.043 411.328 310.688 412.43 310.688 413.722H305.976C306.027 411.771 306.457 410.15 307.268 408.858C308.079 407.541 309.155 406.565 310.498 405.932C311.841 405.273 313.348 404.944 315.02 404.944C317.731 404.944 319.833 405.691 321.328 407.186C322.848 408.655 323.608 410.568 323.608 412.924C323.608 414.393 323.266 415.825 322.582 417.218C321.923 418.611 321.049 419.954 319.96 421.246C318.871 422.538 317.693 423.754 316.426 424.894C315.159 426.009 313.931 427.047 312.74 428.01H324.254V432H305.938ZM339.013 432.456C336.556 432.456 334.453 431.886 332.705 430.746C330.957 429.581 329.602 427.972 328.639 425.92C327.702 423.843 327.233 421.436 327.233 418.7C327.233 415.989 327.702 413.595 328.639 411.518C329.602 409.441 330.957 407.832 332.705 406.692C334.453 405.527 336.556 404.944 339.013 404.944C341.471 404.944 343.573 405.527 345.321 406.692C347.069 407.832 348.412 409.441 349.349 411.518C350.312 413.595 350.793 415.989 350.793 418.7C350.793 421.436 350.312 423.843 349.349 425.92C348.412 427.972 347.069 429.581 345.321 430.746C343.573 431.886 341.471 432.456 339.013 432.456ZM339.013 428.086C341.015 428.086 342.649 427.25 343.915 425.578C345.182 423.906 345.815 421.613 345.815 418.7C345.815 415.787 345.182 413.494 343.915 411.822C342.649 410.15 341.015 409.314 339.013 409.314C336.987 409.314 335.34 410.15 334.073 411.822C332.832 413.494 332.211 415.787 332.211 418.7C332.211 421.613 332.832 423.906 334.073 425.578C335.34 427.25 336.987 428.086 339.013 428.086ZM360.558 418.472C359.342 418.472 358.24 418.206 357.252 417.674C356.264 417.117 355.479 416.331 354.896 415.318C354.313 414.305 354.022 413.101 354.022 411.708C354.022 410.315 354.313 409.111 354.896 408.098C355.479 407.085 356.264 406.312 357.252 405.78C358.24 405.223 359.355 404.944 360.596 404.944C361.812 404.944 362.901 405.223 363.864 405.78C364.852 406.312 365.637 407.085 366.22 408.098C366.803 409.111 367.094 410.315 367.094 411.708C367.094 413.101 366.803 414.305 366.22 415.318C365.637 416.331 364.852 417.117 363.864 417.674C362.876 418.206 361.774 418.472 360.558 418.472ZM359.114 432L374.124 405.4H378.874L363.864 432H359.114ZM360.558 415.09C361.293 415.09 361.926 414.811 362.458 414.254C362.99 413.671 363.256 412.823 363.256 411.708C363.256 410.593 362.99 409.745 362.458 409.162C361.951 408.579 361.318 408.288 360.558 408.288C359.798 408.288 359.152 408.579 358.62 409.162C358.113 409.745 357.86 410.593 357.86 411.708C357.86 412.823 358.113 413.671 358.62 414.254C359.152 414.811 359.798 415.09 360.558 415.09ZM377.582 432.456C376.366 432.456 375.264 432.19 374.276 431.658C373.288 431.101 372.503 430.315 371.92 429.302C371.337 428.289 371.046 427.085 371.046 425.692C371.046 424.299 371.337 423.108 371.92 422.12C372.503 421.107 373.288 420.334 374.276 419.802C375.264 419.245 376.379 418.966 377.62 418.966C378.836 418.966 379.925 419.245 380.888 419.802C381.876 420.334 382.661 421.107 383.244 422.12C383.827 423.108 384.118 424.299 384.118 425.692C384.118 427.085 383.827 428.289 383.244 429.302C382.661 430.315 381.876 431.101 380.888 431.658C379.925 432.19 378.823 432.456 377.582 432.456ZM377.582 429.074C378.342 429.074 378.975 428.795 379.482 428.238C380.014 427.655 380.28 426.807 380.28 425.692C380.28 424.577 380.014 423.729 379.482 423.146C378.975 422.563 378.342 422.272 377.582 422.272C376.822 422.272 376.176 422.563 375.644 423.146C375.137 423.729 374.884 424.577 374.884 425.692C374.884 426.807 375.137 427.655 375.644 428.238C376.176 428.795 376.822 429.074 377.582 429.074Z" fill="#F2F9FB"/>
<path d="M457 498C457 486.954 465.954 478 477 478H575C586.046 478 595 486.954 595 498V584H457V498Z" fill="#537C71"/>
<path d="M496.472 544V522.948L492.102 523.974V520.25L498.524 517.4H501.526V544H496.472ZM506.038 544V540.466C507.659 539.123 509.23 537.793 510.75 536.476C512.295 535.159 513.663 533.854 514.854 532.562C516.07 531.27 517.032 530.016 517.742 528.8C518.476 527.559 518.844 526.355 518.844 525.19C518.844 524.101 518.54 523.138 517.932 522.302C517.349 521.466 516.374 521.048 515.006 521.048C513.612 521.048 512.561 521.504 511.852 522.416C511.142 523.328 510.788 524.43 510.788 525.722H506.076C506.126 523.771 506.557 522.15 507.368 520.858C508.178 519.541 509.255 518.565 510.598 517.932C511.94 517.273 513.448 516.944 515.12 516.944C517.83 516.944 519.933 517.691 521.428 519.186C522.948 520.655 523.708 522.568 523.708 524.924C523.708 526.393 523.366 527.825 522.682 529.218C522.023 530.611 521.149 531.954 520.06 533.246C518.97 534.538 517.792 535.754 516.526 536.894C515.259 538.009 514.03 539.047 512.84 540.01H524.354V544H506.038ZM533.865 530.472C532.649 530.472 531.547 530.206 530.559 529.674C529.571 529.117 528.785 528.331 528.203 527.318C527.62 526.305 527.329 525.101 527.329 523.708C527.329 522.315 527.62 521.111 528.203 520.098C528.785 519.085 529.571 518.312 530.559 517.78C531.547 517.223 532.661 516.944 533.903 516.944C535.119 516.944 536.208 517.223 537.171 517.78C538.159 518.312 538.944 519.085 539.527 520.098C540.109 521.111 540.401 522.315 540.401 523.708C540.401 525.101 540.109 526.305 539.527 527.318C538.944 528.331 538.159 529.117 537.171 529.674C536.183 530.206 535.081 530.472 533.865 530.472ZM532.421 544L547.431 517.4H552.181L537.171 544H532.421ZM533.865 527.09C534.599 527.09 535.233 526.811 535.765 526.254C536.297 525.671 536.563 524.823 536.563 523.708C536.563 522.593 536.297 521.745 535.765 521.162C535.258 520.579 534.625 520.288 533.865 520.288C533.105 520.288 532.459 520.579 531.927 521.162C531.42 521.745 531.167 522.593 531.167 523.708C531.167 524.823 531.42 525.671 531.927 526.254C532.459 526.811 533.105 527.09 533.865 527.09ZM550.889 544.456C549.673 544.456 548.571 544.19 547.583 543.658C546.595 543.101 545.809 542.315 545.227 541.302C544.644 540.289 544.353 539.085 544.353 537.692C544.353 536.299 544.644 535.108 545.227 534.12C545.809 533.107 546.595 532.334 547.583 531.802C548.571 531.245 549.685 530.966 550.927 530.966C552.143 530.966 553.232 531.245 554.195 531.802C555.183 532.334 555.968 533.107 556.551 534.12C557.133 535.108 557.425 536.299 557.425 537.692C557.425 539.085 557.133 540.289 556.551 541.302C555.968 542.315 555.183 543.101 554.195 543.658C553.232 544.19 552.13 544.456 550.889 544.456ZM550.889 541.074C551.649 541.074 552.282 540.795 552.789 540.238C553.321 539.655 553.587 538.807 553.587 537.692C553.587 536.577 553.321 535.729 552.789 535.146C552.282 534.563 551.649 534.272 550.889 534.272C550.129 534.272 549.483 534.563 548.951 535.146C548.444 535.729 548.191 536.577 548.191 537.692C548.191 538.807 548.444 539.655 548.951 540.238C549.483 540.795 550.129 541.074 550.889 541.074Z" fill="#F2F9FB"/>
<path d="M145.668 84.3C144.228 84.3 143.001 83.9867 141.988 83.36C140.974 82.7267 140.198 81.8467 139.658 80.72C139.124 79.5933 138.858 78.2867 138.858 76.8C138.858 75.3133 139.124 74.0067 139.658 72.88C140.198 71.7533 140.974 70.8767 141.988 70.25C143.001 69.6167 144.228 69.3 145.668 69.3C147.328 69.3 148.701 69.72 149.788 70.56C150.881 71.4 151.641 72.53 152.068 73.95L149.948 74.52C149.668 73.5133 149.168 72.7233 148.448 72.15C147.734 71.5767 146.808 71.29 145.668 71.29C144.648 71.29 143.798 71.52 143.118 71.98C142.438 72.44 141.924 73.0833 141.578 73.91C141.238 74.7367 141.068 75.7 141.068 76.8C141.061 77.9 141.228 78.8633 141.568 79.69C141.914 80.5167 142.428 81.16 143.108 81.62C143.794 82.08 144.648 82.31 145.668 82.31C146.808 82.31 147.734 82.0233 148.448 81.45C149.168 80.87 149.668 80.08 149.948 79.08L152.068 79.65C151.641 81.07 150.881 82.2 149.788 83.04C148.701 83.88 147.328 84.3 145.668 84.3ZM158.337 84.29C157.591 84.29 156.964 84.17 156.457 83.93C155.951 83.69 155.537 83.3767 155.217 82.99C154.904 82.5967 154.664 82.17 154.497 81.71C154.331 81.25 154.217 80.8 154.157 80.36C154.097 79.92 154.067 79.5333 154.067 79.2V73.2H156.187V78.51C156.187 78.93 156.221 79.3633 156.287 79.81C156.361 80.25 156.494 80.66 156.687 81.04C156.887 81.42 157.164 81.7267 157.517 81.96C157.877 82.1933 158.344 82.31 158.917 82.31C159.291 82.31 159.644 82.25 159.977 82.13C160.311 82.0033 160.601 81.8033 160.847 81.53C161.101 81.2567 161.297 80.8967 161.437 80.45C161.584 80.0033 161.657 79.46 161.657 78.82L162.957 79.31C162.957 80.29 162.774 81.1567 162.407 81.91C162.041 82.6567 161.514 83.24 160.827 83.66C160.141 84.08 159.311 84.29 158.337 84.29ZM161.907 84V80.88H161.657V73.2H163.767V84H161.907ZM172.752 84C172.072 84.1333 171.405 84.19 170.752 84.17C170.099 84.15 169.515 84.0233 169.002 83.79C168.489 83.5567 168.102 83.19 167.842 82.69C167.609 82.2433 167.482 81.79 167.462 81.33C167.449 80.8633 167.442 80.3367 167.442 79.75V70.2H169.542V79.65C169.542 80.0833 169.545 80.46 169.552 80.78C169.565 81.1 169.635 81.37 169.762 81.59C170.002 82.0033 170.382 82.24 170.902 82.3C171.429 82.3533 172.045 82.33 172.752 82.23V84ZM165.372 74.88V73.2H172.752V74.88H165.372ZM185.213 84C184.533 84.1333 183.866 84.19 183.213 84.17C182.559 84.15 181.976 84.0233 181.463 83.79C180.949 83.5567 180.563 83.19 180.303 82.69C180.069 82.2433 179.943 81.79 179.923 81.33C179.909 80.8633 179.903 80.3367 179.903 79.75V70.2H182.003V79.65C182.003 80.0833 182.006 80.46 182.013 80.78C182.026 81.1 182.096 81.37 182.223 81.59C182.463 82.0033 182.843 82.24 183.363 82.3C183.889 82.3533 184.506 82.33 185.213 82.23V84ZM177.833 74.88V73.2H185.213V74.88H177.833ZM195.07 84V78.69C195.07 78.27 195.033 77.84 194.96 77.4C194.893 76.9533 194.76 76.54 194.56 76.16C194.367 75.78 194.09 75.4733 193.73 75.24C193.377 75.0067 192.913 74.89 192.34 74.89C191.967 74.89 191.613 74.9533 191.28 75.08C190.947 75.2 190.653 75.3967 190.4 75.67C190.153 75.9433 189.957 76.3033 189.81 76.75C189.67 77.1967 189.6 77.74 189.6 78.38L188.3 77.89C188.3 76.91 188.483 76.0467 188.85 75.3C189.217 74.5467 189.743 73.96 190.43 73.54C191.117 73.12 191.947 72.91 192.92 72.91C193.667 72.91 194.293 73.03 194.8 73.27C195.307 73.51 195.717 73.8267 196.03 74.22C196.35 74.6067 196.593 75.03 196.76 75.49C196.927 75.95 197.04 76.4 197.1 76.84C197.16 77.28 197.19 77.6667 197.19 78V84H195.07ZM187.48 84V69.6H189.35V77.37H189.6V84H187.48ZM199.795 84V73.2H201.655V75.82L201.395 75.48C201.528 75.1333 201.701 74.8167 201.915 74.53C202.128 74.2367 202.375 73.9967 202.655 73.81C202.928 73.61 203.231 73.4567 203.565 73.35C203.905 73.2367 204.251 73.17 204.605 73.15C204.958 73.1233 205.298 73.14 205.625 73.2V75.16C205.271 75.0667 204.878 75.04 204.445 75.08C204.018 75.12 203.625 75.2567 203.265 75.49C202.925 75.71 202.655 75.9767 202.455 76.29C202.261 76.6033 202.121 76.9533 202.035 77.34C201.948 77.72 201.905 78.1233 201.905 78.55V84H199.795ZM212.024 84.3C210.944 84.3 210.007 84.0567 209.214 83.57C208.42 83.0833 207.807 82.4133 207.374 81.56C206.947 80.7 206.734 79.71 206.734 78.59C206.734 77.4633 206.954 76.4733 207.394 75.62C207.834 74.76 208.45 74.0933 209.244 73.62C210.037 73.14 210.964 72.9 212.024 72.9C213.104 72.9 214.04 73.1433 214.834 73.63C215.627 74.1167 216.24 74.7867 216.674 75.64C217.107 76.4933 217.324 77.4767 217.324 78.59C217.324 79.7167 217.104 80.71 216.664 81.57C216.23 82.4233 215.617 83.0933 214.824 83.58C214.03 84.06 213.097 84.3 212.024 84.3ZM212.024 82.33C213.057 82.33 213.827 81.9833 214.334 81.29C214.847 80.59 215.104 79.69 215.104 78.59C215.104 77.4633 214.844 76.5633 214.324 75.89C213.81 75.21 213.044 74.87 212.024 74.87C211.324 74.87 210.747 75.03 210.294 75.35C209.84 75.6633 209.504 76.1 209.284 76.66C209.064 77.2133 208.954 77.8567 208.954 78.59C208.954 79.7233 209.214 80.63 209.734 81.31C210.254 81.99 211.017 82.33 212.024 82.33ZM223.591 84.29C222.844 84.29 222.218 84.17 221.711 83.93C221.204 83.69 220.791 83.3767 220.471 82.99C220.158 82.5967 219.918 82.17 219.751 81.71C219.584 81.25 219.471 80.8 219.411 80.36C219.351 79.92 219.321 79.5333 219.321 79.2V73.2H221.441V78.51C221.441 78.93 221.474 79.3633 221.541 79.81C221.614 80.25 221.748 80.66 221.941 81.04C222.141 81.42 222.418 81.7267 222.771 81.96C223.131 82.1933 223.598 82.31 224.171 82.31C224.544 82.31 224.898 82.25 225.231 82.13C225.564 82.0033 225.854 81.8033 226.101 81.53C226.354 81.2567 226.551 80.8967 226.691 80.45C226.838 80.0033 226.911 79.46 226.911 78.82L228.211 79.31C228.211 80.29 228.028 81.1567 227.661 81.91C227.294 82.6567 226.768 83.24 226.081 83.66C225.394 84.08 224.564 84.29 223.591 84.29ZM227.161 84V80.88H226.911V73.2H229.021V84H227.161ZM236.276 89.1C235.696 89.1 235.132 89.01 234.586 88.83C234.046 88.65 233.552 88.3833 233.106 88.03C232.659 87.6833 232.289 87.2533 231.996 86.74L233.926 85.76C234.159 86.22 234.492 86.5567 234.926 86.77C235.359 86.9833 235.816 87.09 236.296 87.09C236.889 87.09 237.396 86.9833 237.816 86.77C238.236 86.5633 238.552 86.25 238.766 85.83C238.986 85.41 239.092 84.89 239.086 84.27V81.25H239.336V73.2H241.186V84.29C241.186 84.5767 241.176 84.85 241.156 85.11C241.136 85.37 241.099 85.63 241.046 85.89C240.892 86.6167 240.599 87.2167 240.166 87.69C239.739 88.1633 239.192 88.5167 238.526 88.75C237.866 88.9833 237.116 89.1 236.276 89.1ZM236.116 84.3C235.109 84.3 234.239 84.05 233.506 83.55C232.779 83.05 232.216 82.37 231.816 81.51C231.422 80.6433 231.226 79.67 231.226 78.59C231.226 77.5033 231.426 76.5333 231.826 75.68C232.226 74.82 232.792 74.1433 233.526 73.65C234.266 73.15 235.142 72.9 236.156 72.9C237.176 72.9 238.032 73.15 238.726 73.65C239.426 74.1433 239.952 74.82 240.306 75.68C240.666 76.54 240.846 77.51 240.846 78.59C240.846 79.67 240.666 80.64 240.306 81.5C239.946 82.36 239.416 83.0433 238.716 83.55C238.016 84.05 237.149 84.3 236.116 84.3ZM236.406 82.41C237.092 82.41 237.652 82.2467 238.086 81.92C238.519 81.5933 238.836 81.1433 239.036 80.57C239.236 79.9967 239.336 79.3367 239.336 78.59C239.336 77.8433 239.232 77.1833 239.026 76.61C238.826 76.0367 238.512 75.59 238.086 75.27C237.666 74.95 237.129 74.79 236.476 74.79C235.782 74.79 235.212 74.96 234.766 75.3C234.319 75.64 233.986 76.0967 233.766 76.67C233.552 77.2433 233.446 77.8833 233.446 78.59C233.446 79.3033 233.552 79.95 233.766 80.53C233.986 81.1033 234.312 81.56 234.746 81.9C235.186 82.24 235.739 82.41 236.406 82.41ZM251.574 84V78.69C251.574 78.27 251.537 77.84 251.464 77.4C251.397 76.9533 251.264 76.54 251.064 76.16C250.87 75.78 250.594 75.4733 250.234 75.24C249.88 75.0067 249.417 74.89 248.844 74.89C248.47 74.89 248.117 74.9533 247.784 75.08C247.45 75.2 247.157 75.3967 246.904 75.67C246.657 75.9433 246.46 76.3033 246.314 76.75C246.174 77.1967 246.104 77.74 246.104 78.38L244.804 77.89C244.804 76.91 244.987 76.0467 245.354 75.3C245.72 74.5467 246.247 73.96 246.934 73.54C247.62 73.12 248.45 72.91 249.424 72.91C250.17 72.91 250.797 73.03 251.304 73.27C251.81 73.51 252.22 73.8267 252.534 74.22C252.854 74.6067 253.097 75.03 253.264 75.49C253.43 75.95 253.544 76.4 253.604 76.84C253.664 77.28 253.694 77.6667 253.694 78V84H251.574ZM243.984 84V69.6H245.854V77.37H246.104V84H243.984ZM266.482 84C265.802 84.1333 265.136 84.19 264.482 84.17C263.829 84.15 263.246 84.0233 262.732 83.79C262.219 83.5567 261.832 83.19 261.572 82.69C261.339 82.2433 261.212 81.79 261.192 81.33C261.179 80.8633 261.172 80.3367 261.172 79.75V70.2H263.272V79.65C263.272 80.0833 263.276 80.46 263.282 80.78C263.296 81.1 263.366 81.37 263.492 81.59C263.732 82.0033 264.112 82.24 264.632 82.3C265.159 82.3533 265.776 82.33 266.482 82.23V84ZM259.102 74.88V73.2H266.482V74.88H259.102ZM276.339 84V78.69C276.339 78.27 276.303 77.84 276.229 77.4C276.163 76.9533 276.029 76.54 275.829 76.16C275.636 75.78 275.359 75.4733 274.999 75.24C274.646 75.0067 274.183 74.89 273.609 74.89C273.236 74.89 272.883 74.9533 272.549 75.08C272.216 75.2 271.923 75.3967 271.669 75.67C271.423 75.9433 271.226 76.3033 271.079 76.75C270.939 77.1967 270.869 77.74 270.869 78.38L269.569 77.89C269.569 76.91 269.753 76.0467 270.119 75.3C270.486 74.5467 271.013 73.96 271.699 73.54C272.386 73.12 273.216 72.91 274.189 72.91C274.936 72.91 275.563 73.03 276.069 73.27C276.576 73.51 276.986 73.8267 277.299 74.22C277.619 74.6067 277.863 75.03 278.029 75.49C278.196 75.95 278.309 76.4 278.369 76.84C278.429 77.28 278.459 77.6667 278.459 78V84H276.339ZM268.749 84V69.6H270.619V77.37H270.869V84H268.749ZM285.854 84.3C284.781 84.3 283.837 84.0667 283.024 83.6C282.217 83.1267 281.587 82.47 281.134 81.63C280.687 80.7833 280.464 79.8033 280.464 78.69C280.464 77.51 280.684 76.4867 281.124 75.62C281.571 74.7533 282.191 74.0833 282.984 73.61C283.777 73.1367 284.701 72.9 285.754 72.9C286.854 72.9 287.791 73.1567 288.564 73.67C289.337 74.1767 289.914 74.9 290.294 75.84C290.681 76.78 290.834 77.8967 290.754 79.19H288.664V78.43C288.651 77.1767 288.411 76.25 287.944 75.65C287.484 75.05 286.781 74.75 285.834 74.75C284.787 74.75 284.001 75.08 283.474 75.74C282.947 76.4 282.684 77.3533 282.684 78.6C282.684 79.7867 282.947 80.7067 283.474 81.36C284.001 82.0067 284.761 82.33 285.754 82.33C286.407 82.33 286.971 82.1833 287.444 81.89C287.924 81.59 288.297 81.1633 288.564 80.61L290.614 81.26C290.194 82.2267 289.557 82.9767 288.704 83.51C287.851 84.0367 286.901 84.3 285.854 84.3ZM282.004 79.19V77.56H289.714V79.19H282.004ZM301.292 84.3C300.285 84.3 299.415 84.05 298.682 83.55C297.955 83.05 297.392 82.37 296.992 81.51C296.598 80.6433 296.402 79.67 296.402 78.59C296.402 77.5033 296.602 76.5333 297.002 75.68C297.402 74.82 297.968 74.1433 298.702 73.65C299.442 73.15 300.318 72.9 301.332 72.9C302.352 72.9 303.208 73.15 303.902 73.65C304.602 74.1433 305.128 74.82 305.482 75.68C305.842 76.54 306.022 77.51 306.022 78.59C306.022 79.67 305.842 80.64 305.482 81.5C305.122 82.36 304.592 83.0433 303.892 83.55C303.192 84.05 302.325 84.3 301.292 84.3ZM301.582 82.41C302.268 82.41 302.828 82.2467 303.262 81.92C303.695 81.5933 304.012 81.1433 304.212 80.57C304.412 79.9967 304.512 79.3367 304.512 78.59C304.512 77.8433 304.408 77.1833 304.202 76.61C304.002 76.0367 303.688 75.59 303.262 75.27C302.842 74.95 302.305 74.79 301.652 74.79C300.958 74.79 300.388 74.96 299.942 75.3C299.495 75.64 299.162 76.0967 298.942 76.67C298.728 77.2433 298.622 77.8833 298.622 78.59C298.622 79.3033 298.728 79.95 298.942 80.53C299.162 81.1033 299.488 81.56 299.922 81.9C300.362 82.24 300.915 82.41 301.582 82.41ZM304.512 84V76.23H304.272V69.6H306.372V84H304.512ZM309.37 71.43V69.4H311.46V71.43H309.37ZM309.37 84V73.2H311.46V84H309.37ZM318.913 89.1C318.333 89.1 317.769 89.01 317.223 88.83C316.683 88.65 316.189 88.3833 315.743 88.03C315.296 87.6833 314.926 87.2533 314.633 86.74L316.563 85.76C316.796 86.22 317.129 86.5567 317.563 86.77C317.996 86.9833 318.453 87.09 318.933 87.09C319.526 87.09 320.033 86.9833 320.453 86.77C320.873 86.5633 321.189 86.25 321.403 85.83C321.623 85.41 321.729 84.89 321.723 84.27V81.25H321.973V73.2H323.823V84.29C323.823 84.5767 323.813 84.85 323.793 85.11C323.773 85.37 323.736 85.63 323.683 85.89C323.529 86.6167 323.236 87.2167 322.803 87.69C322.376 88.1633 321.829 88.5167 321.163 88.75C320.503 88.9833 319.753 89.1 318.913 89.1ZM318.753 84.3C317.746 84.3 316.876 84.05 316.143 83.55C315.416 83.05 314.853 82.37 314.453 81.51C314.059 80.6433 313.863 79.67 313.863 78.59C313.863 77.5033 314.063 76.5333 314.463 75.68C314.863 74.82 315.429 74.1433 316.163 73.65C316.903 73.15 317.779 72.9 318.793 72.9C319.813 72.9 320.669 73.15 321.363 73.65C322.063 74.1433 322.589 74.82 322.943 75.68C323.303 76.54 323.483 77.51 323.483 78.59C323.483 79.67 323.303 80.64 322.943 81.5C322.583 82.36 322.053 83.0433 321.353 83.55C320.653 84.05 319.786 84.3 318.753 84.3ZM319.043 82.41C319.729 82.41 320.289 82.2467 320.723 81.92C321.156 81.5933 321.473 81.1433 321.673 80.57C321.873 79.9967 321.973 79.3367 321.973 78.59C321.973 77.8433 321.869 77.1833 321.663 76.61C321.463 76.0367 321.149 75.59 320.723 75.27C320.303 74.95 319.766 74.79 319.113 74.79C318.419 74.79 317.849 74.96 317.403 75.3C316.956 75.64 316.623 76.0967 316.403 76.67C316.189 77.2433 316.083 77.8833 316.083 78.59C316.083 79.3033 316.189 79.95 316.403 80.53C316.623 81.1033 316.949 81.56 317.383 81.9C317.823 82.24 318.376 82.41 319.043 82.41ZM326.83 71.43V69.4H328.92V71.43H326.83ZM326.83 84V73.2H328.92V84H326.83ZM338.103 84C337.423 84.1333 336.757 84.19 336.103 84.17C335.45 84.15 334.867 84.0233 334.353 83.79C333.84 83.5567 333.453 83.19 333.193 82.69C332.96 82.2433 332.833 81.79 332.813 81.33C332.8 80.8633 332.793 80.3367 332.793 79.75V70.2H334.893V79.65C334.893 80.0833 334.897 80.46 334.903 80.78C334.917 81.1 334.987 81.37 335.113 81.59C335.353 82.0033 335.733 82.24 336.253 82.3C336.78 82.3533 337.397 82.33 338.103 82.23V84ZM330.723 74.88V73.2H338.103V74.88H330.723ZM343.43 84.3C342.63 84.3 341.96 84.1533 341.42 83.86C340.88 83.56 340.47 83.1667 340.19 82.68C339.917 82.1867 339.78 81.6467 339.78 81.06C339.78 80.5133 339.877 80.0333 340.07 79.62C340.264 79.2067 340.55 78.8567 340.93 78.57C341.31 78.2767 341.777 78.04 342.33 77.86C342.81 77.72 343.354 77.5967 343.96 77.49C344.567 77.3833 345.204 77.2833 345.87 77.19C346.544 77.0967 347.21 77.0033 347.87 76.91L347.11 77.33C347.124 76.4833 346.944 75.8567 346.57 75.45C346.204 75.0367 345.57 74.83 344.67 74.83C344.104 74.83 343.584 74.9633 343.11 75.23C342.637 75.49 342.307 75.9233 342.12 76.53L340.17 75.93C340.437 75.0033 340.944 74.2667 341.69 73.72C342.444 73.1733 343.444 72.9 344.69 72.9C345.657 72.9 346.497 73.0667 347.21 73.4C347.93 73.7267 348.457 74.2467 348.79 74.96C348.964 75.3133 349.07 75.6867 349.11 76.08C349.15 76.4733 349.17 76.8967 349.17 77.35V84H347.32V81.53L347.68 81.85C347.234 82.6767 346.664 83.2933 345.97 83.7C345.284 84.1 344.437 84.3 343.43 84.3ZM343.8 82.59C344.394 82.59 344.904 82.4867 345.33 82.28C345.757 82.0667 346.1 81.7967 346.36 81.47C346.62 81.1433 346.79 80.8033 346.87 80.45C346.984 80.13 347.047 79.77 347.06 79.37C347.08 78.97 347.09 78.65 347.09 78.41L347.77 78.66C347.11 78.76 346.51 78.85 345.97 78.93C345.43 79.01 344.94 79.09 344.5 79.17C344.067 79.2433 343.68 79.3333 343.34 79.44C343.054 79.54 342.797 79.66 342.57 79.8C342.35 79.94 342.174 80.11 342.04 80.31C341.914 80.51 341.85 80.7533 341.85 81.04C341.85 81.32 341.92 81.58 342.06 81.82C342.2 82.0533 342.414 82.24 342.7 82.38C342.987 82.52 343.354 82.59 343.8 82.59ZM351.967 84V69.3H354.057V84H351.967ZM365.684 84.3C364.577 84.3 363.637 84.0533 362.864 83.56C362.091 83.0667 361.497 82.39 361.084 81.53C360.677 80.67 360.471 79.6933 360.464 78.6C360.471 77.4867 360.684 76.5033 361.104 75.65C361.524 74.79 362.124 74.1167 362.904 73.63C363.684 73.1433 364.621 72.9 365.714 72.9C366.894 72.9 367.901 73.1933 368.734 73.78C369.574 74.3667 370.127 75.17 370.394 76.19L368.314 76.79C368.107 76.1833 367.767 75.7133 367.294 75.38C366.827 75.04 366.291 74.87 365.684 74.87C364.997 74.87 364.434 75.0333 363.994 75.36C363.554 75.68 363.227 76.12 363.014 76.68C362.801 77.24 362.691 77.88 362.684 78.6C362.691 79.7133 362.944 80.6133 363.444 81.3C363.951 81.9867 364.697 82.33 365.684 82.33C366.357 82.33 366.901 82.1767 367.314 81.87C367.734 81.5567 368.054 81.11 368.274 80.53L370.394 81.03C370.041 82.0833 369.457 82.8933 368.644 83.46C367.831 84.02 366.844 84.3 365.684 84.3ZM372.631 84V69.3H374.721V84H372.631ZM381.794 84.29C381.048 84.29 380.421 84.17 379.914 83.93C379.408 83.69 378.994 83.3767 378.674 82.99C378.361 82.5967 378.121 82.17 377.954 81.71C377.788 81.25 377.674 80.8 377.614 80.36C377.554 79.92 377.524 79.5333 377.524 79.2V73.2H379.644V78.51C379.644 78.93 379.678 79.3633 379.744 79.81C379.818 80.25 379.951 80.66 380.144 81.04C380.344 81.42 380.621 81.7267 380.974 81.96C381.334 82.1933 381.801 82.31 382.374 82.31C382.748 82.31 383.101 82.25 383.434 82.13C383.768 82.0033 384.058 81.8033 384.304 81.53C384.558 81.2567 384.754 80.8967 384.894 80.45C385.041 80.0033 385.114 79.46 385.114 78.82L386.414 79.31C386.414 80.29 386.231 81.1567 385.864 81.91C385.498 82.6567 384.971 83.24 384.284 83.66C383.598 84.08 382.768 84.29 381.794 84.29ZM385.364 84V80.88H385.114V73.2H387.224V84H385.364ZM396.209 84C395.529 84.1333 394.862 84.19 394.209 84.17C393.556 84.15 392.972 84.0233 392.459 83.79C391.946 83.5567 391.559 83.19 391.299 82.69C391.066 82.2433 390.939 81.79 390.919 81.33C390.906 80.8633 390.899 80.3367 390.899 79.75V70.2H392.999V79.65C392.999 80.0833 393.002 80.46 393.009 80.78C393.022 81.1 393.092 81.37 393.219 81.59C393.459 82.0033 393.839 82.24 394.359 82.3C394.886 82.3533 395.502 82.33 396.209 82.23V84ZM388.829 74.88V73.2H396.209V74.88H388.829ZM403.459 84C402.779 84.1333 402.112 84.19 401.459 84.17C400.806 84.15 400.222 84.0233 399.709 83.79C399.196 83.5567 398.809 83.19 398.549 82.69C398.316 82.2433 398.189 81.79 398.169 81.33C398.156 80.8633 398.149 80.3367 398.149 79.75V70.2H400.249V79.65C400.249 80.0833 400.252 80.46 400.259 80.78C400.272 81.1 400.342 81.37 400.469 81.59C400.709 82.0033 401.089 82.24 401.609 82.3C402.136 82.3533 402.752 82.33 403.459 82.23V84ZM396.079 74.88V73.2H403.459V74.88H396.079ZM410.503 84.3C409.429 84.3 408.486 84.0667 407.673 83.6C406.866 83.1267 406.236 82.47 405.782 81.63C405.336 80.7833 405.113 79.8033 405.113 78.69C405.113 77.51 405.333 76.4867 405.773 75.62C406.219 74.7533 406.839 74.0833 407.633 73.61C408.426 73.1367 409.349 72.9 410.403 72.9C411.503 72.9 412.439 73.1567 413.213 73.67C413.986 74.1767 414.563 74.9 414.943 75.84C415.329 76.78 415.483 77.8967 415.403 79.19H413.313V78.43C413.299 77.1767 413.059 76.25 412.593 75.65C412.133 75.05 411.429 74.75 410.483 74.75C409.436 74.75 408.649 75.08 408.123 75.74C407.596 76.4 407.333 77.3533 407.333 78.6C407.333 79.7867 407.596 80.7067 408.123 81.36C408.649 82.0067 409.409 82.33 410.403 82.33C411.056 82.33 411.619 82.1833 412.093 81.89C412.573 81.59 412.946 81.1633 413.213 80.61L415.263 81.26C414.843 82.2267 414.206 82.9767 413.353 83.51C412.499 84.0367 411.549 84.3 410.503 84.3ZM406.653 79.19V77.56H414.362V79.19H406.653ZM417.646 84V73.2H419.506V75.82L419.246 75.48C419.379 75.1333 419.553 74.8167 419.766 74.53C419.979 74.2367 420.226 73.9967 420.506 73.81C420.779 73.61 421.083 73.4567 421.416 73.35C421.756 73.2367 422.103 73.17 422.456 73.15C422.809 73.1233 423.149 73.14 423.476 73.2V75.16C423.123 75.0667 422.729 75.04 422.296 75.08C421.869 75.12 421.476 75.2567 421.116 75.49C420.776 75.71 420.506 75.9767 420.306 76.29C420.113 76.6033 419.973 76.9533 419.886 77.34C419.799 77.72 419.756 78.1233 419.756 78.55V84H417.646ZM423.579 86.39L423.709 85.46C423.996 85.48 424.219 85.4267 424.379 85.3C424.539 85.1733 424.646 84.9967 424.699 84.77C424.752 84.5433 424.762 84.2867 424.729 84H423.579V81.59H425.789V84.2C425.789 84.9867 425.599 85.58 425.219 85.98C424.846 86.38 424.299 86.5167 423.579 86.39ZM433.584 84V69.6H439.404C439.544 69.6 439.717 69.6067 439.924 69.62C440.13 69.6267 440.327 69.6467 440.514 69.68C441.314 69.8067 441.98 70.08 442.514 70.5C443.054 70.92 443.457 71.45 443.724 72.09C443.99 72.73 444.124 73.4367 444.124 74.21C444.124 74.99 443.99 75.7 443.724 76.34C443.457 76.98 443.054 77.51 442.514 77.93C441.98 78.35 441.314 78.6233 440.514 78.75C440.327 78.7767 440.127 78.7967 439.914 78.81C439.707 78.8233 439.537 78.83 439.404 78.83H435.674V84H433.584ZM435.674 76.85H439.324C439.457 76.85 439.604 76.8433 439.764 76.83C439.93 76.8167 440.087 76.7933 440.234 76.76C440.66 76.66 441.004 76.4767 441.264 76.21C441.524 75.9367 441.71 75.6233 441.824 75.27C441.937 74.9167 441.994 74.5633 441.994 74.21C441.994 73.8567 441.937 73.5067 441.824 73.16C441.71 72.8067 441.524 72.4967 441.264 72.23C441.004 71.9567 440.66 71.77 440.234 71.67C440.087 71.63 439.93 71.6033 439.764 71.59C439.604 71.5767 439.457 71.57 439.324 71.57H435.674V76.85ZM450.676 84.3C449.596 84.3 448.659 84.0567 447.866 83.57C447.073 83.0833 446.459 82.4133 446.026 81.56C445.599 80.7 445.386 79.71 445.386 78.59C445.386 77.4633 445.606 76.4733 446.046 75.62C446.486 74.76 447.103 74.0933 447.896 73.62C448.689 73.14 449.616 72.9 450.676 72.9C451.756 72.9 452.693 73.1433 453.486 73.63C454.279 74.1167 454.893 74.7867 455.326 75.64C455.759 76.4933 455.976 77.4767 455.976 78.59C455.976 79.7167 455.756 80.71 455.316 81.57C454.883 82.4233 454.269 83.0933 453.476 83.58C452.683 84.06 451.749 84.3 450.676 84.3ZM450.676 82.33C451.709 82.33 452.479 81.9833 452.986 81.29C453.499 80.59 453.756 79.69 453.756 78.59C453.756 77.4633 453.496 76.5633 452.976 75.89C452.463 75.21 451.696 74.87 450.676 74.87C449.976 74.87 449.399 75.03 448.946 75.35C448.493 75.6633 448.156 76.1 447.936 76.66C447.716 77.2133 447.606 77.8567 447.606 78.59C447.606 79.7233 447.866 80.63 448.386 81.31C448.906 81.99 449.669 82.33 450.676 82.33ZM462.108 84.29C460.795 84.29 459.725 84 458.898 83.42C458.071 82.84 457.565 82.0233 457.378 80.97L459.518 80.64C459.651 81.2 459.958 81.6433 460.438 81.97C460.925 82.29 461.528 82.45 462.248 82.45C462.901 82.45 463.411 82.3167 463.778 82.05C464.151 81.7833 464.338 81.4167 464.338 80.95C464.338 80.6767 464.271 80.4567 464.138 80.29C464.011 80.1167 463.741 79.9533 463.328 79.8C462.915 79.6467 462.285 79.4567 461.438 79.23C460.511 78.99 459.775 78.7333 459.228 78.46C458.688 78.18 458.301 77.8567 458.068 77.49C457.841 77.1167 457.728 76.6667 457.728 76.14C457.728 75.4867 457.901 74.9167 458.248 74.43C458.595 73.9433 459.081 73.5667 459.708 73.3C460.341 73.0333 461.081 72.9 461.928 72.9C462.755 72.9 463.491 73.03 464.138 73.29C464.785 73.55 465.308 73.92 465.708 74.4C466.108 74.8733 466.348 75.43 466.428 76.07L464.288 76.46C464.215 75.94 463.971 75.53 463.558 75.23C463.145 74.93 462.608 74.7667 461.948 74.74C461.315 74.7133 460.801 74.82 460.408 75.06C460.015 75.2933 459.818 75.6167 459.818 76.03C459.818 76.27 459.891 76.4733 460.038 76.64C460.191 76.8067 460.485 76.9667 460.918 77.12C461.351 77.2733 461.991 77.4567 462.838 77.67C463.745 77.9033 464.465 78.1633 464.998 78.45C465.531 78.73 465.911 79.0667 466.138 79.46C466.371 79.8467 466.488 80.3167 466.488 80.87C466.488 81.9367 466.098 82.7733 465.318 83.38C464.545 83.9867 463.475 84.29 462.108 84.29ZM474.881 84C474.201 84.1333 473.534 84.19 472.881 84.17C472.227 84.15 471.644 84.0233 471.131 83.79C470.617 83.5567 470.231 83.19 469.971 82.69C469.737 82.2433 469.611 81.79 469.591 81.33C469.577 80.8633 469.571 80.3367 469.571 79.75V70.2H471.671V79.65C471.671 80.0833 471.674 80.46 471.681 80.78C471.694 81.1 471.764 81.37 471.891 81.59C472.131 82.0033 472.511 82.24 473.031 82.3C473.557 82.3533 474.174 82.33 474.881 82.23V84ZM467.501 74.88V73.2H474.881V74.88H467.501ZM478.325 88.8L480.415 83.11L480.445 84.79L475.735 73.2H477.915L481.435 82.15H480.795L484.155 73.2H486.275L480.315 88.8H478.325ZM496.465 84.3C495.359 84.3 494.419 84.0533 493.645 83.56C492.872 83.0667 492.279 82.39 491.865 81.53C491.459 80.67 491.252 79.6933 491.245 78.6C491.252 77.4867 491.465 76.5033 491.885 75.65C492.305 74.79 492.905 74.1167 493.685 73.63C494.465 73.1433 495.402 72.9 496.495 72.9C497.675 72.9 498.682 73.1933 499.515 73.78C500.355 74.3667 500.909 75.17 501.175 76.19L499.095 76.79C498.889 76.1833 498.549 75.7133 498.075 75.38C497.609 75.04 497.072 74.87 496.465 74.87C495.779 74.87 495.215 75.0333 494.775 75.36C494.335 75.68 494.009 76.12 493.795 76.68C493.582 77.24 493.472 77.88 493.465 78.6C493.472 79.7133 493.725 80.6133 494.225 81.3C494.732 81.9867 495.479 82.33 496.465 82.33C497.139 82.33 497.682 82.1767 498.095 81.87C498.515 81.5567 498.835 81.11 499.055 80.53L501.175 81.03C500.822 82.0833 500.239 82.8933 499.425 83.46C498.612 84.02 497.625 84.3 496.465 84.3ZM506.126 84.3C505.326 84.3 504.656 84.1533 504.116 83.86C503.576 83.56 503.166 83.1667 502.886 82.68C502.612 82.1867 502.476 81.6467 502.476 81.06C502.476 80.5133 502.572 80.0333 502.766 79.62C502.959 79.2067 503.246 78.8567 503.626 78.57C504.006 78.2767 504.472 78.04 505.026 77.86C505.506 77.72 506.049 77.5967 506.656 77.49C507.262 77.3833 507.899 77.2833 508.566 77.19C509.239 77.0967 509.906 77.0033 510.566 76.91L509.806 77.33C509.819 76.4833 509.639 75.8567 509.266 75.45C508.899 75.0367 508.266 74.83 507.366 74.83C506.799 74.83 506.279 74.9633 505.806 75.23C505.332 75.49 505.002 75.9233 504.816 76.53L502.866 75.93C503.132 75.0033 503.639 74.2667 504.386 73.72C505.139 73.1733 506.139 72.9 507.386 72.9C508.352 72.9 509.192 73.0667 509.906 73.4C510.626 73.7267 511.152 74.2467 511.486 74.96C511.659 75.3133 511.766 75.6867 511.806 76.08C511.846 76.4733 511.866 76.8967 511.866 77.35V84H510.016V81.53L510.376 81.85C509.929 82.6767 509.359 83.2933 508.666 83.7C507.979 84.1 507.132 84.3 506.126 84.3ZM506.496 82.59C507.089 82.59 507.599 82.4867 508.026 82.28C508.452 82.0667 508.796 81.7967 509.056 81.47C509.316 81.1433 509.486 80.8033 509.566 80.45C509.679 80.13 509.742 79.77 509.756 79.37C509.776 78.97 509.786 78.65 509.786 78.41L510.466 78.66C509.806 78.76 509.206 78.85 508.666 78.93C508.126 79.01 507.636 79.09 507.196 79.17C506.762 79.2433 506.376 79.3333 506.036 79.44C505.749 79.54 505.492 79.66 505.266 79.8C505.046 79.94 504.869 80.11 504.736 80.31C504.609 80.51 504.546 80.7533 504.546 81.04C504.546 81.32 504.616 81.58 504.756 81.82C504.896 82.0533 505.109 82.24 505.396 82.38C505.682 82.52 506.049 82.59 506.496 82.59ZM527.403 84L527.413 77.27C527.413 76.49 527.213 75.8833 526.813 75.45C526.413 75.01 525.886 74.79 525.233 74.79C524.833 74.79 524.466 74.8833 524.132 75.07C523.806 75.25 523.539 75.5233 523.333 75.89C523.133 76.25 523.033 76.7033 523.033 77.25L522.023 76.74C522.009 75.98 522.169 75.3133 522.503 74.74C522.843 74.1667 523.303 73.7233 523.883 73.41C524.463 73.09 525.113 72.93 525.833 72.93C526.999 72.93 527.903 73.28 528.543 73.98C529.183 74.68 529.503 75.61 529.503 76.77L529.493 84H527.403ZM514.453 84V73.2H516.313V76.32H516.553V84H514.453ZM520.933 84L520.943 77.31C520.943 76.5233 520.743 75.9067 520.343 75.46C519.949 75.0133 519.419 74.79 518.753 74.79C518.093 74.79 517.559 75.0167 517.153 75.47C516.753 75.9233 516.553 76.5167 516.553 77.25L515.553 76.61C515.553 75.9033 515.723 75.2733 516.063 74.72C516.403 74.1667 516.863 73.73 517.443 73.41C518.023 73.09 518.679 72.93 519.413 72.93C520.179 72.93 520.833 73.0933 521.373 73.42C521.913 73.74 522.323 74.19 522.603 74.77C522.889 75.35 523.033 76.0233 523.033 76.79L523.023 84H520.933ZM537.169 84.3C536.136 84.3 535.269 84.05 534.569 83.55C533.869 83.0433 533.339 82.36 532.979 81.5C532.619 80.64 532.439 79.67 532.439 78.59C532.439 77.51 532.616 76.54 532.969 75.68C533.329 74.82 533.856 74.1433 534.549 73.65C535.249 73.15 536.109 72.9 537.129 72.9C538.143 72.9 539.016 73.15 539.749 73.65C540.489 74.1433 541.059 74.82 541.459 75.68C541.859 76.5333 542.059 77.5033 542.059 78.59C542.059 79.67 541.859 80.6433 541.459 81.51C541.066 82.37 540.503 83.05 539.769 83.55C539.043 84.05 538.176 84.3 537.169 84.3ZM532.089 88.8V73.2H533.949V80.97H534.189V88.8H532.089ZM536.879 82.41C537.546 82.41 538.096 82.24 538.529 81.9C538.969 81.56 539.296 81.1033 539.509 80.53C539.729 79.95 539.839 79.3033 539.839 78.59C539.839 77.8833 539.729 77.2433 539.509 76.67C539.296 76.0967 538.966 75.64 538.519 75.3C538.073 74.96 537.503 74.79 536.809 74.79C536.156 74.79 535.616 74.95 535.189 75.27C534.769 75.59 534.456 76.0367 534.249 76.61C534.049 77.1833 533.949 77.8433 533.949 78.59C533.949 79.3367 534.049 79.9967 534.249 80.57C534.449 81.1433 534.766 81.5933 535.199 81.92C535.633 82.2467 536.193 82.41 536.879 82.41ZM547.317 84.3C546.517 84.3 545.847 84.1533 545.307 83.86C544.767 83.56 544.357 83.1667 544.077 82.68C543.804 82.1867 543.667 81.6467 543.667 81.06C543.667 80.5133 543.764 80.0333 543.957 79.62C544.151 79.2067 544.437 78.8567 544.817 78.57C545.197 78.2767 545.664 78.04 546.217 77.86C546.697 77.72 547.241 77.5967 547.847 77.49C548.454 77.3833 549.091 77.2833 549.757 77.19C550.431 77.0967 551.097 77.0033 551.757 76.91L550.997 77.33C551.011 76.4833 550.831 75.8567 550.457 75.45C550.091 75.0367 549.457 74.83 548.557 74.83C547.991 74.83 547.471 74.9633 546.997 75.23C546.524 75.49 546.194 75.9233 546.007 76.53L544.057 75.93C544.324 75.0033 544.831 74.2667 545.577 73.72C546.331 73.1733 547.331 72.9 548.577 72.9C549.544 72.9 550.384 73.0667 551.097 73.4C551.817 73.7267 552.344 74.2467 552.677 74.96C552.851 75.3133 552.957 75.6867 552.997 76.08C553.037 76.4733 553.057 76.8967 553.057 77.35V84H551.207V81.53L551.567 81.85C551.121 82.6767 550.551 83.2933 549.857 83.7C549.171 84.1 548.324 84.3 547.317 84.3ZM547.687 82.59C548.281 82.59 548.791 82.4867 549.217 82.28C549.644 82.0667 549.987 81.7967 550.247 81.47C550.507 81.1433 550.677 80.8033 550.757 80.45C550.871 80.13 550.934 79.77 550.947 79.37C550.967 78.97 550.977 78.65 550.977 78.41L551.657 78.66C550.997 78.76 550.397 78.85 549.857 78.93C549.317 79.01 548.827 79.09 548.387 79.17C547.954 79.2433 547.567 79.3333 547.227 79.44C546.941 79.54 546.684 79.66 546.457 79.8C546.237 79.94 546.061 80.11 545.927 80.31C545.801 80.51 545.737 80.7533 545.737 81.04C545.737 81.32 545.807 81.58 545.947 81.82C546.087 82.0533 546.301 82.24 546.587 82.38C546.874 82.52 547.241 82.59 547.687 82.59ZM555.854 71.43V69.4H557.944V71.43H555.854ZM555.854 84V73.2H557.944V84H555.854ZM565.397 89.1C564.817 89.1 564.254 89.01 563.707 88.83C563.167 88.65 562.674 88.3833 562.227 88.03C561.78 87.6833 561.41 87.2533 561.117 86.74L563.047 85.76C563.28 86.22 563.614 86.5567 564.047 86.77C564.48 86.9833 564.937 87.09 565.417 87.09C566.01 87.09 566.517 86.9833 566.937 86.77C567.357 86.5633 567.674 86.25 567.887 85.83C568.107 85.41 568.214 84.89 568.207 84.27V81.25H568.457V73.2H570.307V84.29C570.307 84.5767 570.297 84.85 570.277 85.11C570.257 85.37 570.22 85.63 570.167 85.89C570.014 86.6167 569.72 87.2167 569.287 87.69C568.86 88.1633 568.314 88.5167 567.647 88.75C566.987 88.9833 566.237 89.1 565.397 89.1ZM565.237 84.3C564.23 84.3 563.36 84.05 562.627 83.55C561.9 83.05 561.337 82.37 560.937 81.51C560.544 80.6433 560.347 79.67 560.347 78.59C560.347 77.5033 560.547 76.5333 560.947 75.68C561.347 74.82 561.914 74.1433 562.647 73.65C563.387 73.15 564.264 72.9 565.277 72.9C566.297 72.9 567.154 73.15 567.847 73.65C568.547 74.1433 569.074 74.82 569.427 75.68C569.787 76.54 569.967 77.51 569.967 78.59C569.967 79.67 569.787 80.64 569.427 81.5C569.067 82.36 568.537 83.0433 567.837 83.55C567.137 84.05 566.27 84.3 565.237 84.3ZM565.527 82.41C566.214 82.41 566.774 82.2467 567.207 81.92C567.64 81.5933 567.957 81.1433 568.157 80.57C568.357 79.9967 568.457 79.3367 568.457 78.59C568.457 77.8433 568.354 77.1833 568.147 76.61C567.947 76.0367 567.634 75.59 567.207 75.27C566.787 74.95 566.25 74.79 565.597 74.79C564.904 74.79 564.334 74.96 563.887 75.3C563.44 75.64 563.107 76.0967 562.887 76.67C562.674 77.2433 562.567 77.8833 562.567 78.59C562.567 79.3033 562.674 79.95 562.887 80.53C563.107 81.1033 563.434 81.56 563.867 81.9C564.307 82.24 564.86 82.41 565.527 82.41ZM580.695 84V78.69C580.695 78.27 580.658 77.84 580.585 77.4C580.518 76.9533 580.385 76.54 580.185 76.16C579.992 75.78 579.715 75.4733 579.355 75.24C579.002 75.0067 578.538 74.89 577.965 74.89C577.592 74.89 577.238 74.9533 576.905 75.08C576.572 75.2 576.278 75.3967 576.025 75.67C575.778 75.9433 575.582 76.3033 575.435 76.75C575.295 77.1967 575.225 77.74 575.225 78.38L573.925 77.89C573.925 76.91 574.108 76.0467 574.475 75.3C574.842 74.5467 575.368 73.96 576.055 73.54C576.742 73.12 577.572 72.91 578.545 72.91C579.292 72.91 579.918 73.03 580.425 73.27C580.932 73.51 581.342 73.8267 581.655 74.22C581.975 74.6067 582.218 75.03 582.385 75.49C582.552 75.95 582.665 76.4 582.725 76.84C582.785 77.28 582.815 77.6667 582.815 78V84H580.695ZM573.105 84V73.2H574.975V76.32H575.225V84H573.105ZM589.55 84.29C588.236 84.29 587.166 84 586.34 83.42C585.513 82.84 585.006 82.0233 584.82 80.97L586.96 80.64C587.093 81.2 587.4 81.6433 587.88 81.97C588.366 82.29 588.97 82.45 589.69 82.45C590.343 82.45 590.853 82.3167 591.22 82.05C591.593 81.7833 591.78 81.4167 591.78 80.95C591.78 80.6767 591.713 80.4567 591.58 80.29C591.453 80.1167 591.183 79.9533 590.77 79.8C590.356 79.6467 589.726 79.4567 588.88 79.23C587.953 78.99 587.216 78.7333 586.67 78.46C586.13 78.18 585.743 77.8567 585.51 77.49C585.283 77.1167 585.17 76.6667 585.17 76.14C585.17 75.4867 585.343 74.9167 585.69 74.43C586.036 73.9433 586.523 73.5667 587.15 73.3C587.783 73.0333 588.523 72.9 589.37 72.9C590.196 72.9 590.933 73.03 591.58 73.29C592.226 73.55 592.75 73.92 593.15 74.4C593.55 74.8733 593.79 75.43 593.87 76.07L591.73 76.46C591.656 75.94 591.413 75.53 591 75.23C590.586 74.93 590.05 74.7667 589.39 74.74C588.756 74.7133 588.243 74.82 587.85 75.06C587.456 75.2933 587.26 75.6167 587.26 76.03C587.26 76.27 587.333 76.4733 587.48 76.64C587.633 76.8067 587.926 76.9667 588.36 77.12C588.793 77.2733 589.433 77.4567 590.28 77.67C591.186 77.9033 591.906 78.1633 592.44 78.45C592.973 78.73 593.353 79.0667 593.58 79.46C593.813 79.8467 593.93 80.3167 593.93 80.87C593.93 81.9367 593.54 82.7733 592.76 83.38C591.986 83.9867 590.916 84.29 589.55 84.29ZM205.036 120.1C204.456 120.1 203.892 120.01 203.346 119.83C202.806 119.65 202.312 119.383 201.866 119.03C201.419 118.683 201.049 118.253 200.756 117.74L202.686 116.76C202.919 117.22 203.252 117.557 203.686 117.77C204.119 117.983 204.576 118.09 205.056 118.09C205.649 118.09 206.156 117.983 206.576 117.77C206.996 117.563 207.312 117.25 207.526 116.83C207.746 116.41 207.852 115.89 207.846 115.27V112.25H208.096V104.2H209.946V115.29C209.946 115.577 209.936 115.85 209.916 116.11C209.896 116.37 209.859 116.63 209.806 116.89C209.652 117.617 209.359 118.217 208.926 118.69C208.499 119.163 207.952 119.517 207.286 119.75C206.626 119.983 205.876 120.1 205.036 120.1ZM204.876 115.3C203.869 115.3 202.999 115.05 202.266 114.55C201.539 114.05 200.976 113.37 200.576 112.51C200.182 111.643 199.986 110.67 199.986 109.59C199.986 108.503 200.186 107.533 200.586 106.68C200.986 105.82 201.552 105.143 202.286 104.65C203.026 104.15 203.902 103.9 204.916 103.9C205.936 103.9 206.792 104.15 207.486 104.65C208.186 105.143 208.712 105.82 209.066 106.68C209.426 107.54 209.606 108.51 209.606 109.59C209.606 110.67 209.426 111.64 209.066 112.5C208.706 113.36 208.176 114.043 207.476 114.55C206.776 115.05 205.909 115.3 204.876 115.3ZM205.166 113.41C205.852 113.41 206.412 113.247 206.846 112.92C207.279 112.593 207.596 112.143 207.796 111.57C207.996 110.997 208.096 110.337 208.096 109.59C208.096 108.843 207.992 108.183 207.786 107.61C207.586 107.037 207.272 106.59 206.846 106.27C206.426 105.95 205.889 105.79 205.236 105.79C204.542 105.79 203.972 105.96 203.526 106.3C203.079 106.64 202.746 107.097 202.526 107.67C202.312 108.243 202.206 108.883 202.206 109.59C202.206 110.303 202.312 110.95 202.526 111.53C202.746 112.103 203.072 112.56 203.506 112.9C203.946 113.24 204.499 113.41 205.166 113.41ZM217.544 115.3C216.47 115.3 215.527 115.067 214.714 114.6C213.907 114.127 213.277 113.47 212.824 112.63C212.377 111.783 212.154 110.803 212.154 109.69C212.154 108.51 212.374 107.487 212.814 106.62C213.26 105.753 213.88 105.083 214.674 104.61C215.467 104.137 216.39 103.9 217.444 103.9C218.544 103.9 219.48 104.157 220.254 104.67C221.027 105.177 221.604 105.9 221.984 106.84C222.37 107.78 222.524 108.897 222.444 110.19H220.354V109.43C220.34 108.177 220.1 107.25 219.634 106.65C219.174 106.05 218.47 105.75 217.524 105.75C216.477 105.75 215.69 106.08 215.164 106.74C214.637 107.4 214.374 108.353 214.374 109.6C214.374 110.787 214.637 111.707 215.164 112.36C215.69 113.007 216.45 113.33 217.444 113.33C218.097 113.33 218.66 113.183 219.134 112.89C219.614 112.59 219.987 112.163 220.254 111.61L222.304 112.26C221.884 113.227 221.247 113.977 220.394 114.51C219.54 115.037 218.59 115.3 217.544 115.3ZM213.694 110.19V108.56H221.404V110.19H213.694ZM230.867 115C230.187 115.133 229.52 115.19 228.867 115.17C228.214 115.15 227.63 115.023 227.117 114.79C226.604 114.557 226.217 114.19 225.957 113.69C225.724 113.243 225.597 112.79 225.577 112.33C225.564 111.863 225.557 111.337 225.557 110.75V101.2H227.657V110.65C227.657 111.083 227.66 111.46 227.667 111.78C227.68 112.1 227.75 112.37 227.877 112.59C228.117 113.003 228.497 113.24 229.017 113.3C229.544 113.353 230.16 113.33 230.867 113.23V115ZM223.487 105.88V104.2H230.867V105.88H223.487ZM241.828 100.31C242.761 100.31 243.601 100.533 244.348 100.98C245.095 101.42 245.685 102.027 246.118 102.8C246.558 103.573 246.778 104.453 246.778 105.44V110.03C246.778 111.077 246.558 111.997 246.118 112.79C245.685 113.583 245.078 114.2 244.298 114.64C243.525 115.08 242.631 115.3 241.618 115.3C240.858 115.3 240.145 115.157 239.478 114.87C238.811 114.583 238.235 114.157 237.748 113.59L239.278 112.16C239.551 112.513 239.891 112.797 240.298 113.01C240.711 113.217 241.151 113.32 241.618 113.32C242.218 113.32 242.745 113.18 243.198 112.9C243.651 112.613 244.005 112.24 244.258 111.78C244.518 111.32 244.648 110.827 244.648 110.3V107.66L245.058 108.12C244.645 108.66 244.131 109.087 243.518 109.4C242.905 109.713 242.248 109.87 241.548 109.87C240.655 109.87 239.855 109.663 239.148 109.25C238.448 108.83 237.895 108.263 237.488 107.55C237.088 106.837 236.888 106.033 236.888 105.14C236.888 104.24 237.111 103.427 237.558 102.7C238.011 101.967 238.611 101.387 239.358 100.96C240.111 100.527 240.935 100.31 241.828 100.31ZM241.828 102.32C241.308 102.32 240.835 102.447 240.408 102.7C239.981 102.953 239.641 103.293 239.388 103.72C239.135 104.147 239.008 104.62 239.008 105.14C239.008 105.66 239.131 106.133 239.378 106.56C239.631 106.987 239.971 107.327 240.398 107.58C240.825 107.833 241.298 107.96 241.818 107.96C242.338 107.96 242.811 107.833 243.238 107.58C243.671 107.327 244.015 106.987 244.268 106.56C244.521 106.133 244.648 105.66 244.648 105.14C244.648 104.627 244.521 104.157 244.268 103.73C244.015 103.303 243.675 102.963 243.248 102.71C242.821 102.45 242.348 102.32 241.828 102.32ZM254.18 115.3C253.24 115.3 252.407 115.113 251.68 114.74C250.96 114.36 250.393 113.833 249.98 113.16C249.573 112.487 249.37 111.707 249.37 110.82C249.37 109.993 249.563 109.237 249.95 108.55C250.337 107.863 250.913 107.323 251.68 106.93L251.64 107.65C251.027 107.27 250.553 106.797 250.22 106.23C249.893 105.657 249.73 105.017 249.73 104.31C249.73 103.49 249.92 102.78 250.3 102.18C250.68 101.58 251.203 101.117 251.87 100.79C252.543 100.463 253.313 100.3 254.18 100.3C255.047 100.3 255.813 100.463 256.48 100.79C257.147 101.117 257.67 101.58 258.05 102.18C258.43 102.78 258.62 103.49 258.62 104.31C258.62 105.017 258.463 105.653 258.15 106.22C257.837 106.787 257.357 107.263 256.71 107.65L256.68 106.95C257.44 107.323 258.017 107.857 258.41 108.55C258.803 109.237 259 109.993 259 110.82C259 111.707 258.793 112.487 258.38 113.16C257.967 113.833 257.397 114.36 256.67 114.74C255.943 115.113 255.113 115.3 254.18 115.3ZM254.18 113.31C254.953 113.31 255.58 113.1 256.06 112.68C256.54 112.253 256.78 111.633 256.78 110.82C256.78 110.007 256.54 109.387 256.06 108.96C255.587 108.527 254.96 108.31 254.18 108.31C253.4 108.31 252.77 108.527 252.29 108.96C251.817 109.387 251.58 110.007 251.58 110.82C251.58 111.633 251.82 112.253 252.3 112.68C252.78 113.1 253.407 113.31 254.18 113.31ZM254.18 106.31C254.84 106.31 255.373 106.147 255.78 105.82C256.193 105.487 256.4 104.983 256.4 104.31C256.4 103.637 256.193 103.133 255.78 102.8C255.373 102.46 254.84 102.29 254.18 102.29C253.52 102.29 252.983 102.46 252.57 102.8C252.157 103.133 251.95 103.637 251.95 104.31C251.95 104.983 252.157 105.487 252.57 105.82C252.983 106.147 253.52 106.31 254.18 106.31ZM263.401 115L262.001 113.6L275.011 100.6L276.411 102.01L263.401 115ZM273.411 115.3C272.751 115.3 272.148 115.14 271.601 114.82C271.061 114.493 270.628 114.06 270.301 113.52C269.975 112.973 269.811 112.367 269.811 111.7C269.811 111.047 269.978 110.447 270.311 109.9C270.645 109.353 271.085 108.917 271.631 108.59C272.178 108.263 272.771 108.1 273.411 108.1C274.071 108.1 274.675 108.263 275.221 108.59C275.768 108.91 276.201 109.343 276.521 109.89C276.848 110.43 277.011 111.033 277.011 111.7C277.011 112.367 276.848 112.973 276.521 113.52C276.201 114.06 275.768 114.493 275.221 114.82C274.675 115.14 274.071 115.3 273.411 115.3ZM273.411 113.49C273.738 113.49 274.035 113.41 274.301 113.25C274.575 113.083 274.791 112.863 274.951 112.59C275.118 112.317 275.201 112.02 275.201 111.7C275.201 111.38 275.118 111.083 274.951 110.81C274.791 110.537 274.575 110.32 274.301 110.16C274.035 109.993 273.738 109.91 273.411 109.91C273.091 109.91 272.795 109.993 272.521 110.16C272.255 110.32 272.038 110.537 271.871 110.81C271.711 111.083 271.631 111.38 271.631 111.7C271.631 112.02 271.711 112.317 271.871 112.59C272.038 112.863 272.255 113.083 272.521 113.25C272.795 113.41 273.091 113.49 273.411 113.49ZM265.001 107.5C264.341 107.5 263.738 107.34 263.191 107.02C262.645 106.693 262.208 106.26 261.881 105.72C261.561 105.173 261.401 104.567 261.401 103.9C261.401 103.247 261.568 102.647 261.901 102.1C262.235 101.553 262.675 101.117 263.221 100.79C263.768 100.463 264.361 100.3 265.001 100.3C265.661 100.3 266.261 100.463 266.801 100.79C267.348 101.11 267.785 101.543 268.111 102.09C268.438 102.63 268.601 103.233 268.601 103.9C268.601 104.567 268.438 105.173 268.111 105.72C267.785 106.26 267.348 106.693 266.801 107.02C266.261 107.34 265.661 107.5 265.001 107.5ZM265.001 105.69C265.321 105.69 265.618 105.61 265.891 105.45C266.165 105.283 266.381 105.063 266.541 104.79C266.708 104.517 266.791 104.22 266.791 103.9C266.791 103.58 266.708 103.283 266.541 103.01C266.381 102.737 266.165 102.52 265.891 102.36C265.618 102.193 265.321 102.11 265.001 102.11C264.681 102.11 264.385 102.193 264.111 102.36C263.845 102.52 263.628 102.737 263.461 103.01C263.295 103.283 263.211 103.58 263.211 103.9C263.211 104.22 263.295 104.517 263.461 104.79C263.628 105.063 263.845 105.283 264.111 105.45C264.378 105.61 264.675 105.69 265.001 105.69ZM288.303 115.3C287.223 115.3 286.286 115.057 285.493 114.57C284.7 114.083 284.086 113.413 283.653 112.56C283.226 111.7 283.013 110.71 283.013 109.59C283.013 108.463 283.233 107.473 283.673 106.62C284.113 105.76 284.73 105.093 285.523 104.62C286.316 104.14 287.243 103.9 288.303 103.9C289.383 103.9 290.32 104.143 291.113 104.63C291.906 105.117 292.52 105.787 292.953 106.64C293.386 107.493 293.603 108.477 293.603 109.59C293.603 110.717 293.383 111.71 292.943 112.57C292.51 113.423 291.896 114.093 291.103 114.58C290.31 115.06 289.376 115.3 288.303 115.3ZM288.303 113.33C289.336 113.33 290.106 112.983 290.613 112.29C291.126 111.59 291.383 110.69 291.383 109.59C291.383 108.463 291.123 107.563 290.603 106.89C290.09 106.21 289.323 105.87 288.303 105.87C287.603 105.87 287.026 106.03 286.573 106.35C286.12 106.663 285.783 107.1 285.563 107.66C285.343 108.213 285.233 108.857 285.233 109.59C285.233 110.723 285.493 111.63 286.013 112.31C286.533 112.99 287.296 113.33 288.303 113.33ZM296.79 115V103.82C296.79 103.547 296.8 103.257 296.82 102.95C296.84 102.637 296.897 102.33 296.99 102.03C297.09 101.723 297.254 101.443 297.48 101.19C297.754 100.89 298.054 100.677 298.38 100.55C298.707 100.423 299.03 100.35 299.35 100.33C299.677 100.31 299.977 100.3 300.25 100.3H301.61V102.02H300.35C299.857 102.02 299.487 102.143 299.24 102.39C299 102.63 298.88 102.973 298.88 103.42V115H296.79ZM295 105.88V104.2H301.61V105.88H295ZM307.207 115V104.2H309.067V106.82L308.807 106.48C308.94 106.133 309.113 105.817 309.327 105.53C309.54 105.237 309.787 104.997 310.067 104.81C310.34 104.61 310.643 104.457 310.977 104.35C311.317 104.237 311.663 104.17 312.017 104.15C312.37 104.123 312.71 104.14 313.037 104.2V106.16C312.683 106.067 312.29 106.04 311.857 106.08C311.43 106.12 311.037 106.257 310.677 106.49C310.337 106.71 310.067 106.977 309.867 107.29C309.673 107.603 309.533 107.953 309.447 108.34C309.36 108.72 309.317 109.123 309.317 109.55V115H307.207ZM319.536 115.3C318.462 115.3 317.519 115.067 316.706 114.6C315.899 114.127 315.269 113.47 314.816 112.63C314.369 111.783 314.146 110.803 314.146 109.69C314.146 108.51 314.366 107.487 314.806 106.62C315.252 105.753 315.872 105.083 316.666 104.61C317.459 104.137 318.382 103.9 319.436 103.9C320.536 103.9 321.472 104.157 322.246 104.67C323.019 105.177 323.596 105.9 323.976 106.84C324.362 107.78 324.516 108.897 324.436 110.19H322.346V109.43C322.332 108.177 322.092 107.25 321.626 106.65C321.166 106.05 320.462 105.75 319.516 105.75C318.469 105.75 317.682 106.08 317.156 106.74C316.629 107.4 316.366 108.353 316.366 109.6C316.366 110.787 316.629 111.707 317.156 112.36C317.682 113.007 318.442 113.33 319.436 113.33C320.089 113.33 320.652 113.183 321.126 112.89C321.606 112.59 321.979 112.163 322.246 111.61L324.296 112.26C323.876 113.227 323.239 113.977 322.386 114.51C321.532 115.037 320.582 115.3 319.536 115.3ZM315.686 110.19V108.56H323.396V110.19H315.686ZM329.534 115.3C328.734 115.3 328.064 115.153 327.524 114.86C326.984 114.56 326.574 114.167 326.294 113.68C326.021 113.187 325.884 112.647 325.884 112.06C325.884 111.513 325.981 111.033 326.174 110.62C326.367 110.207 326.654 109.857 327.034 109.57C327.414 109.277 327.881 109.04 328.434 108.86C328.914 108.72 329.457 108.597 330.064 108.49C330.671 108.383 331.307 108.283 331.974 108.19C332.647 108.097 333.314 108.003 333.974 107.91L333.214 108.33C333.227 107.483 333.047 106.857 332.674 106.45C332.307 106.037 331.674 105.83 330.774 105.83C330.207 105.83 329.687 105.963 329.214 106.23C328.741 106.49 328.411 106.923 328.224 107.53L326.274 106.93C326.541 106.003 327.047 105.267 327.794 104.72C328.547 104.173 329.547 103.9 330.794 103.9C331.761 103.9 332.601 104.067 333.314 104.4C334.034 104.727 334.561 105.247 334.894 105.96C335.067 106.313 335.174 106.687 335.214 107.08C335.254 107.473 335.274 107.897 335.274 108.35V115H333.424V112.53L333.784 112.85C333.337 113.677 332.767 114.293 332.074 114.7C331.387 115.1 330.541 115.3 329.534 115.3ZM329.904 113.59C330.497 113.59 331.007 113.487 331.434 113.28C331.861 113.067 332.204 112.797 332.464 112.47C332.724 112.143 332.894 111.803 332.974 111.45C333.087 111.13 333.151 110.77 333.164 110.37C333.184 109.97 333.194 109.65 333.194 109.41L333.874 109.66C333.214 109.76 332.614 109.85 332.074 109.93C331.534 110.01 331.044 110.09 330.604 110.17C330.171 110.243 329.784 110.333 329.444 110.44C329.157 110.54 328.901 110.66 328.674 110.8C328.454 110.94 328.277 111.11 328.144 111.31C328.017 111.51 327.954 111.753 327.954 112.04C327.954 112.32 328.024 112.58 328.164 112.82C328.304 113.053 328.517 113.24 328.804 113.38C329.091 113.52 329.457 113.59 329.904 113.59ZM342.161 115.3C341.154 115.3 340.284 115.05 339.551 114.55C338.824 114.05 338.261 113.37 337.861 112.51C337.467 111.643 337.271 110.67 337.271 109.59C337.271 108.503 337.471 107.533 337.871 106.68C338.271 105.82 338.837 105.143 339.571 104.65C340.311 104.15 341.187 103.9 342.201 103.9C343.221 103.9 344.077 104.15 344.771 104.65C345.471 105.143 345.997 105.82 346.351 106.68C346.711 107.54 346.891 108.51 346.891 109.59C346.891 110.67 346.711 111.64 346.351 112.5C345.991 113.36 345.461 114.043 344.761 114.55C344.061 115.05 343.194 115.3 342.161 115.3ZM342.451 113.41C343.137 113.41 343.697 113.247 344.131 112.92C344.564 112.593 344.881 112.143 345.081 111.57C345.281 110.997 345.381 110.337 345.381 109.59C345.381 108.843 345.277 108.183 345.071 107.61C344.871 107.037 344.557 106.59 344.131 106.27C343.711 105.95 343.174 105.79 342.521 105.79C341.827 105.79 341.257 105.96 340.811 106.3C340.364 106.64 340.031 107.097 339.811 107.67C339.597 108.243 339.491 108.883 339.491 109.59C339.491 110.303 339.597 110.95 339.811 111.53C340.031 112.103 340.357 112.56 340.791 112.9C341.231 113.24 341.784 113.41 342.451 113.41ZM345.381 115V107.23H345.141V100.6H347.241V115H345.381ZM354.043 115V104.2H355.903V106.82L355.643 106.48C355.776 106.133 355.949 105.817 356.163 105.53C356.376 105.237 356.623 104.997 356.903 104.81C357.176 104.61 357.479 104.457 357.813 104.35C358.153 104.237 358.499 104.17 358.853 104.15C359.206 104.123 359.546 104.14 359.873 104.2V106.16C359.519 106.067 359.126 106.04 358.693 106.08C358.266 106.12 357.873 106.257 357.513 106.49C357.173 106.71 356.903 106.977 356.703 107.29C356.509 107.603 356.369 107.953 356.283 108.34C356.196 108.72 356.153 109.123 356.153 109.55V115H354.043ZM364.534 115.3C363.734 115.3 363.064 115.153 362.524 114.86C361.984 114.56 361.574 114.167 361.294 113.68C361.021 113.187 360.884 112.647 360.884 112.06C360.884 111.513 360.981 111.033 361.174 110.62C361.367 110.207 361.654 109.857 362.034 109.57C362.414 109.277 362.881 109.04 363.434 108.86C363.914 108.72 364.457 108.597 365.064 108.49C365.671 108.383 366.307 108.283 366.974 108.19C367.647 108.097 368.314 108.003 368.974 107.91L368.214 108.33C368.227 107.483 368.047 106.857 367.674 106.45C367.307 106.037 366.674 105.83 365.774 105.83C365.207 105.83 364.687 105.963 364.214 106.23C363.741 106.49 363.411 106.923 363.224 107.53L361.274 106.93C361.541 106.003 362.047 105.267 362.794 104.72C363.547 104.173 364.547 103.9 365.794 103.9C366.761 103.9 367.601 104.067 368.314 104.4C369.034 104.727 369.561 105.247 369.894 105.96C370.067 106.313 370.174 106.687 370.214 107.08C370.254 107.473 370.274 107.897 370.274 108.35V115H368.424V112.53L368.784 112.85C368.337 113.677 367.767 114.293 367.074 114.7C366.387 115.1 365.541 115.3 364.534 115.3ZM364.904 113.59C365.497 113.59 366.007 113.487 366.434 113.28C366.861 113.067 367.204 112.797 367.464 112.47C367.724 112.143 367.894 111.803 367.974 111.45C368.087 111.13 368.151 110.77 368.164 110.37C368.184 109.97 368.194 109.65 368.194 109.41L368.874 109.66C368.214 109.76 367.614 109.85 367.074 109.93C366.534 110.01 366.044 110.09 365.604 110.17C365.171 110.243 364.784 110.333 364.444 110.44C364.157 110.54 363.901 110.66 363.674 110.8C363.454 110.94 363.277 111.11 363.144 111.31C363.017 111.51 362.954 111.753 362.954 112.04C362.954 112.32 363.024 112.58 363.164 112.82C363.304 113.053 363.517 113.24 363.804 113.38C364.091 113.52 364.457 113.59 364.904 113.59ZM379.051 115C378.371 115.133 377.704 115.19 377.051 115.17C376.397 115.15 375.814 115.023 375.301 114.79C374.787 114.557 374.401 114.19 374.141 113.69C373.907 113.243 373.781 112.79 373.761 112.33C373.747 111.863 373.741 111.337 373.741 110.75V101.2H375.841V110.65C375.841 111.083 375.844 111.46 375.851 111.78C375.864 112.1 375.934 112.37 376.061 112.59C376.301 113.003 376.681 113.24 377.201 113.3C377.727 113.353 378.344 113.33 379.051 113.23V115ZM371.671 105.88V104.2H379.051V105.88H371.671ZM385.61 115.3C384.537 115.3 383.593 115.067 382.78 114.6C381.973 114.127 381.343 113.47 380.89 112.63C380.443 111.783 380.22 110.803 380.22 109.69C380.22 108.51 380.44 107.487 380.88 106.62C381.327 105.753 381.947 105.083 382.74 104.61C383.533 104.137 384.457 103.9 385.51 103.9C386.61 103.9 387.547 104.157 388.32 104.67C389.093 105.177 389.67 105.9 390.05 106.84C390.437 107.78 390.59 108.897 390.51 110.19H388.42V109.43C388.407 108.177 388.167 107.25 387.7 106.65C387.24 106.05 386.537 105.75 385.59 105.75C384.543 105.75 383.757 106.08 383.23 106.74C382.703 107.4 382.44 108.353 382.44 109.6C382.44 110.787 382.703 111.707 383.23 112.36C383.757 113.007 384.517 113.33 385.51 113.33C386.163 113.33 386.727 113.183 387.2 112.89C387.68 112.59 388.053 112.163 388.32 111.61L390.37 112.26C389.95 113.227 389.313 113.977 388.46 114.51C387.607 115.037 386.657 115.3 385.61 115.3ZM381.76 110.19V108.56H389.47V110.19H381.76ZM401.487 115.3C400.681 115.3 399.927 115.183 399.227 114.95C398.527 114.71 397.941 114.337 397.467 113.83C397.101 113.423 396.827 112.977 396.647 112.49C396.474 111.997 396.377 111.473 396.357 110.92C396.357 110.38 396.434 109.857 396.587 109.35C396.747 108.837 396.997 108.38 397.337 107.98C397.491 107.793 397.661 107.633 397.847 107.5C398.034 107.36 398.221 107.237 398.407 107.13C397.981 106.663 397.657 106.22 397.437 105.8C397.217 105.373 397.107 104.87 397.107 104.29C397.107 103.477 397.321 102.747 397.747 102.1C398.174 101.447 398.757 100.977 399.497 100.69C399.837 100.55 400.184 100.457 400.537 100.41C400.891 100.357 401.234 100.33 401.567 100.33C402.167 100.33 402.747 100.417 403.307 100.59C403.867 100.763 404.347 101.047 404.747 101.44C405.001 101.673 405.214 101.937 405.387 102.23C405.567 102.523 405.704 102.823 405.797 103.13L403.737 103.61C403.624 103.29 403.437 103.02 403.177 102.8C402.957 102.607 402.701 102.477 402.407 102.41C402.121 102.337 401.834 102.3 401.547 102.3C401.074 102.3 400.647 102.39 400.267 102.57C399.921 102.737 399.661 102.967 399.487 103.26C399.314 103.547 399.227 103.893 399.227 104.3C399.227 104.66 399.291 104.95 399.417 105.17C399.544 105.39 399.714 105.62 399.927 105.86C400.054 106 400.204 106.15 400.377 106.31C400.557 106.47 400.741 106.637 400.927 106.81L404.847 110.46C404.861 110.313 404.871 110.157 404.877 109.99C404.884 109.823 404.887 109.663 404.887 109.51L404.877 107.64H406.747V110.11C406.747 110.53 406.734 110.91 406.707 111.25C406.687 111.583 406.647 111.857 406.587 112.07L408.387 113.74L407.037 115.19L405.587 113.81C405.281 114.117 404.937 114.377 404.557 114.59C404.177 114.797 403.794 114.95 403.407 115.05C403.081 115.15 402.757 115.217 402.437 115.25C402.124 115.283 401.807 115.3 401.487 115.3ZM401.547 113.3C401.814 113.3 402.061 113.287 402.287 113.26C402.514 113.227 402.731 113.167 402.937 113.08C403.217 112.967 403.444 112.85 403.617 112.73C403.797 112.61 403.947 112.493 404.067 112.38L399.967 108.62C399.761 108.693 399.567 108.79 399.387 108.91C399.214 109.023 399.064 109.157 398.937 109.31C398.784 109.503 398.667 109.73 398.587 109.99C398.514 110.243 398.481 110.517 398.487 110.81C398.487 111.13 398.537 111.423 398.637 111.69C398.744 111.95 398.881 112.183 399.047 112.39C399.314 112.71 399.684 112.943 400.157 113.09C400.637 113.23 401.101 113.3 401.547 113.3ZM418.794 115.3C417.72 115.3 416.777 115.067 415.964 114.6C415.157 114.127 414.527 113.47 414.074 112.63C413.627 111.783 413.404 110.803 413.404 109.69C413.404 108.51 413.624 107.487 414.064 106.62C414.51 105.753 415.13 105.083 415.924 104.61C416.717 104.137 417.64 103.9 418.694 103.9C419.794 103.9 420.73 104.157 421.504 104.67C422.277 105.177 422.854 105.9 423.234 106.84C423.62 107.78 423.774 108.897 423.694 110.19H421.604V109.43C421.59 108.177 421.35 107.25 420.884 106.65C420.424 106.05 419.72 105.75 418.774 105.75C417.727 105.75 416.94 106.08 416.414 106.74C415.887 107.4 415.624 108.353 415.624 109.6C415.624 110.787 415.887 111.707 416.414 112.36C416.94 113.007 417.7 113.33 418.694 113.33C419.347 113.33 419.91 113.183 420.384 112.89C420.864 112.59 421.237 112.163 421.504 111.61L423.554 112.26C423.134 113.227 422.497 113.977 421.644 114.51C420.79 115.037 419.84 115.3 418.794 115.3ZM414.944 110.19V108.56H422.654V110.19H414.944ZM433.224 115V109.69C433.224 109.27 433.187 108.84 433.114 108.4C433.047 107.953 432.914 107.54 432.714 107.16C432.521 106.78 432.244 106.473 431.884 106.24C431.531 106.007 431.067 105.89 430.494 105.89C430.121 105.89 429.767 105.953 429.434 106.08C429.101 106.2 428.807 106.397 428.554 106.67C428.307 106.943 428.111 107.303 427.964 107.75C427.824 108.197 427.754 108.74 427.754 109.38L426.454 108.89C426.454 107.91 426.637 107.047 427.004 106.3C427.371 105.547 427.897 104.96 428.584 104.54C429.271 104.12 430.101 103.91 431.074 103.91C431.821 103.91 432.447 104.03 432.954 104.27C433.461 104.51 433.871 104.827 434.184 105.22C434.504 105.607 434.747 106.03 434.914 106.49C435.081 106.95 435.194 107.4 435.254 107.84C435.314 108.28 435.344 108.667 435.344 109V115H433.224ZM425.634 115V104.2H427.504V107.32H427.754V115H425.634ZM442.399 120.1C441.819 120.1 441.255 120.01 440.709 119.83C440.169 119.65 439.675 119.383 439.229 119.03C438.782 118.683 438.412 118.253 438.119 117.74L440.049 116.76C440.282 117.22 440.615 117.557 441.049 117.77C441.482 117.983 441.939 118.09 442.419 118.09C443.012 118.09 443.519 117.983 443.939 117.77C444.359 117.563 444.675 117.25 444.889 116.83C445.109 116.41 445.215 115.89 445.209 115.27V112.25H445.459V104.2H447.309V115.29C447.309 115.577 447.299 115.85 447.279 116.11C447.259 116.37 447.222 116.63 447.169 116.89C447.015 117.617 446.722 118.217 446.289 118.69C445.862 119.163 445.315 119.517 444.649 119.75C443.989 119.983 443.239 120.1 442.399 120.1ZM442.239 115.3C441.232 115.3 440.362 115.05 439.629 114.55C438.902 114.05 438.339 113.37 437.939 112.51C437.545 111.643 437.349 110.67 437.349 109.59C437.349 108.503 437.549 107.533 437.949 106.68C438.349 105.82 438.915 105.143 439.649 104.65C440.389 104.15 441.265 103.9 442.279 103.9C443.299 103.9 444.155 104.15 444.849 104.65C445.549 105.143 446.075 105.82 446.429 106.68C446.789 107.54 446.969 108.51 446.969 109.59C446.969 110.67 446.789 111.64 446.429 112.5C446.069 113.36 445.539 114.043 444.839 114.55C444.139 115.05 443.272 115.3 442.239 115.3ZM442.529 113.41C443.215 113.41 443.775 113.247 444.209 112.92C444.642 112.593 444.959 112.143 445.159 111.57C445.359 110.997 445.459 110.337 445.459 109.59C445.459 108.843 445.355 108.183 445.149 107.61C444.949 107.037 444.635 106.59 444.209 106.27C443.789 105.95 443.252 105.79 442.599 105.79C441.905 105.79 441.335 105.96 440.889 106.3C440.442 106.64 440.109 107.097 439.889 107.67C439.675 108.243 439.569 108.883 439.569 109.59C439.569 110.303 439.675 110.95 439.889 111.53C440.109 112.103 440.435 112.56 440.869 112.9C441.309 113.24 441.862 113.41 442.529 113.41ZM453.167 115.3C452.367 115.3 451.697 115.153 451.157 114.86C450.617 114.56 450.207 114.167 449.927 113.68C449.653 113.187 449.517 112.647 449.517 112.06C449.517 111.513 449.613 111.033 449.807 110.62C450 110.207 450.287 109.857 450.667 109.57C451.047 109.277 451.513 109.04 452.067 108.86C452.547 108.72 453.09 108.597 453.697 108.49C454.303 108.383 454.94 108.283 455.607 108.19C456.28 108.097 456.947 108.003 457.607 107.91L456.847 108.33C456.86 107.483 456.68 106.857 456.307 106.45C455.94 106.037 455.307 105.83 454.407 105.83C453.84 105.83 453.32 105.963 452.847 106.23C452.373 106.49 452.043 106.923 451.857 107.53L449.907 106.93C450.173 106.003 450.68 105.267 451.427 104.72C452.18 104.173 453.18 103.9 454.427 103.9C455.393 103.9 456.233 104.067 456.947 104.4C457.667 104.727 458.193 105.247 458.527 105.96C458.7 106.313 458.807 106.687 458.847 107.08C458.887 107.473 458.907 107.897 458.907 108.35V115H457.057V112.53L457.417 112.85C456.97 113.677 456.4 114.293 455.707 114.7C455.02 115.1 454.173 115.3 453.167 115.3ZM453.537 113.59C454.13 113.59 454.64 113.487 455.067 113.28C455.493 113.067 455.837 112.797 456.097 112.47C456.357 112.143 456.527 111.803 456.607 111.45C456.72 111.13 456.783 110.77 456.797 110.37C456.817 109.97 456.827 109.65 456.827 109.41L457.507 109.66C456.847 109.76 456.247 109.85 455.707 109.93C455.167 110.01 454.677 110.09 454.237 110.17C453.803 110.243 453.417 110.333 453.077 110.44C452.79 110.54 452.533 110.66 452.307 110.8C452.087 110.94 451.91 111.11 451.777 111.31C451.65 111.51 451.587 111.753 451.587 112.04C451.587 112.32 451.657 112.58 451.797 112.82C451.937 113.053 452.15 113.24 452.437 113.38C452.723 113.52 453.09 113.59 453.537 113.59ZM465.954 120.1C465.374 120.1 464.81 120.01 464.264 119.83C463.724 119.65 463.23 119.383 462.784 119.03C462.337 118.683 461.967 118.253 461.674 117.74L463.604 116.76C463.837 117.22 464.17 117.557 464.604 117.77C465.037 117.983 465.494 118.09 465.974 118.09C466.567 118.09 467.074 117.983 467.494 117.77C467.914 117.563 468.23 117.25 468.444 116.83C468.664 116.41 468.77 115.89 468.764 115.27V112.25H469.014V104.2H470.864V115.29C470.864 115.577 470.854 115.85 470.834 116.11C470.814 116.37 470.777 116.63 470.724 116.89C470.57 117.617 470.277 118.217 469.844 118.69C469.417 119.163 468.87 119.517 468.204 119.75C467.544 119.983 466.794 120.1 465.954 120.1ZM465.794 115.3C464.787 115.3 463.917 115.05 463.184 114.55C462.457 114.05 461.894 113.37 461.494 112.51C461.1 111.643 460.904 110.67 460.904 109.59C460.904 108.503 461.104 107.533 461.504 106.68C461.904 105.82 462.47 105.143 463.204 104.65C463.944 104.15 464.82 103.9 465.834 103.9C466.854 103.9 467.71 104.15 468.404 104.65C469.104 105.143 469.63 105.82 469.984 106.68C470.344 107.54 470.524 108.51 470.524 109.59C470.524 110.67 470.344 111.64 469.984 112.5C469.624 113.36 469.094 114.043 468.394 114.55C467.694 115.05 466.827 115.3 465.794 115.3ZM466.084 113.41C466.77 113.41 467.33 113.247 467.764 112.92C468.197 112.593 468.514 112.143 468.714 111.57C468.914 110.997 469.014 110.337 469.014 109.59C469.014 108.843 468.91 108.183 468.704 107.61C468.504 107.037 468.19 106.59 467.764 106.27C467.344 105.95 466.807 105.79 466.154 105.79C465.46 105.79 464.89 105.96 464.444 106.3C463.997 106.64 463.664 107.097 463.444 107.67C463.23 108.243 463.124 108.883 463.124 109.59C463.124 110.303 463.23 110.95 463.444 111.53C463.664 112.103 463.99 112.56 464.424 112.9C464.864 113.24 465.417 113.41 466.084 113.41ZM478.461 115.3C477.388 115.3 476.445 115.067 475.631 114.6C474.825 114.127 474.195 113.47 473.741 112.63C473.295 111.783 473.071 110.803 473.071 109.69C473.071 108.51 473.291 107.487 473.731 106.62C474.178 105.753 474.798 105.083 475.591 104.61C476.385 104.137 477.308 103.9 478.361 103.9C479.461 103.9 480.398 104.157 481.171 104.67C481.945 105.177 482.521 105.9 482.901 106.84C483.288 107.78 483.441 108.897 483.361 110.19H481.271V109.43C481.258 108.177 481.018 107.25 480.551 106.65C480.091 106.05 479.388 105.75 478.441 105.75C477.395 105.75 476.608 106.08 476.081 106.74C475.555 107.4 475.291 108.353 475.291 109.6C475.291 110.787 475.555 111.707 476.081 112.36C476.608 113.007 477.368 113.33 478.361 113.33C479.015 113.33 479.578 113.183 480.051 112.89C480.531 112.59 480.905 112.163 481.171 111.61L483.221 112.26C482.801 113.227 482.165 113.977 481.311 114.51C480.458 115.037 479.508 115.3 478.461 115.3ZM474.611 110.19V108.56H482.321V110.19H474.611ZM498.252 115L498.262 108.27C498.262 107.49 498.062 106.883 497.662 106.45C497.262 106.01 496.735 105.79 496.082 105.79C495.682 105.79 495.315 105.883 494.982 106.07C494.655 106.25 494.389 106.523 494.182 106.89C493.982 107.25 493.882 107.703 493.882 108.25L492.872 107.74C492.859 106.98 493.019 106.313 493.352 105.74C493.692 105.167 494.152 104.723 494.732 104.41C495.312 104.09 495.962 103.93 496.682 103.93C497.849 103.93 498.752 104.28 499.392 104.98C500.032 105.68 500.352 106.61 500.352 107.77L500.342 115H498.252ZM485.302 115V104.2H487.162V107.32H487.402V115H485.302ZM491.782 115L491.792 108.31C491.792 107.523 491.592 106.907 491.192 106.46C490.799 106.013 490.269 105.79 489.602 105.79C488.942 105.79 488.409 106.017 488.002 106.47C487.602 106.923 487.402 107.517 487.402 108.25L486.402 107.61C486.402 106.903 486.572 106.273 486.912 105.72C487.252 105.167 487.712 104.73 488.292 104.41C488.872 104.09 489.529 103.93 490.262 103.93C491.029 103.93 491.682 104.093 492.222 104.42C492.762 104.74 493.172 105.19 493.452 105.77C493.739 106.35 493.882 107.023 493.882 107.79L493.872 115H491.782ZM507.602 115.3C506.529 115.3 505.585 115.067 504.772 114.6C503.965 114.127 503.335 113.47 502.882 112.63C502.435 111.783 502.212 110.803 502.212 109.69C502.212 108.51 502.432 107.487 502.872 106.62C503.319 105.753 503.939 105.083 504.732 104.61C505.525 104.137 506.449 103.9 507.502 103.9C508.602 103.9 509.539 104.157 510.312 104.67C511.085 105.177 511.662 105.9 512.042 106.84C512.429 107.78 512.582 108.897 512.502 110.19H510.412V109.43C510.399 108.177 510.159 107.25 509.692 106.65C509.232 106.05 508.529 105.75 507.582 105.75C506.535 105.75 505.749 106.08 505.222 106.74C504.695 107.4 504.432 108.353 504.432 109.6C504.432 110.787 504.695 111.707 505.222 112.36C505.749 113.007 506.509 113.33 507.502 113.33C508.155 113.33 508.719 113.183 509.192 112.89C509.672 112.59 510.045 112.163 510.312 111.61L512.362 112.26C511.942 113.227 511.305 113.977 510.452 114.51C509.599 115.037 508.649 115.3 507.602 115.3ZM503.752 110.19V108.56H511.462V110.19H503.752ZM522.033 115V109.69C522.033 109.27 521.996 108.84 521.923 108.4C521.856 107.953 521.723 107.54 521.523 107.16C521.329 106.78 521.053 106.473 520.693 106.24C520.339 106.007 519.876 105.89 519.303 105.89C518.929 105.89 518.576 105.953 518.243 106.08C517.909 106.2 517.616 106.397 517.363 106.67C517.116 106.943 516.919 107.303 516.773 107.75C516.633 108.197 516.563 108.74 516.563 109.38L515.263 108.89C515.263 107.91 515.446 107.047 515.813 106.3C516.179 105.547 516.706 104.96 517.393 104.54C518.079 104.12 518.909 103.91 519.883 103.91C520.629 103.91 521.256 104.03 521.763 104.27C522.269 104.51 522.679 104.827 522.993 105.22C523.313 105.607 523.556 106.03 523.723 106.49C523.889 106.95 524.003 107.4 524.063 107.84C524.123 108.28 524.153 108.667 524.153 109V115H522.033ZM514.443 115V104.2H516.313V107.32H516.563V115H514.443ZM532.937 115C532.257 115.133 531.591 115.19 530.937 115.17C530.284 115.15 529.701 115.023 529.187 114.79C528.674 114.557 528.287 114.19 528.027 113.69C527.794 113.243 527.667 112.79 527.647 112.33C527.634 111.863 527.627 111.337 527.627 110.75V101.2H529.727V110.65C529.727 111.083 529.731 111.46 529.737 111.78C529.751 112.1 529.821 112.37 529.947 112.59C530.187 113.003 530.567 113.24 531.087 113.3C531.614 113.353 532.231 113.33 532.937 113.23V115ZM525.557 105.88V104.2H532.937V105.88H525.557Z" fill="#F2F9FB"/>
</svg>
