<svg width="471" height="513" viewBox="0 0 471 513" fill="none" xmlns="http://www.w3.org/2000/svg">
<g clip-path="url(#clip0_1_12448)">
<circle cx="636" cy="255" r="249.5" stroke="#295D4E"/>
</g>
<rect width="471" height="513" rx="20" fill="#295D4E" fill-opacity="0.1"/>
<path d="M77.232 137V93.788L68.262 95.894V88.25L81.444 82.4H87.606V137H77.232ZM96.8667 137V129.746C100.195 126.99 103.419 124.26 106.539 121.556C109.711 118.852 112.519 116.174 114.963 113.522C117.459 110.87 119.435 108.296 120.891 105.8C122.399 103.252 123.153 100.782 123.153 98.39C123.153 96.154 122.529 94.178 121.281 92.462C120.085 90.746 118.083 89.888 115.275 89.888C112.415 89.888 110.257 90.824 108.801 92.696C107.345 94.568 106.617 96.83 106.617 99.482H96.9447C97.0487 95.478 97.9327 92.15 99.5967 89.498C101.261 86.794 103.471 84.792 106.227 83.492C108.983 82.14 112.077 81.464 115.509 81.464C121.073 81.464 125.389 82.998 128.457 86.066C131.577 89.082 133.137 93.008 133.137 97.844C133.137 100.86 132.435 103.798 131.031 106.658C129.679 109.518 127.885 112.274 125.649 114.926C123.413 117.578 120.995 120.074 118.395 122.414C115.795 124.702 113.273 126.834 110.829 128.81H134.463V137H96.8667ZM164.758 137.936C159.714 137.936 155.398 136.766 151.81 134.426C148.222 132.034 145.44 128.732 143.464 124.52C141.54 120.256 140.578 115.316 140.578 109.7C140.578 104.136 141.54 99.222 143.464 94.958C145.44 90.694 148.222 87.392 151.81 85.052C155.398 82.66 159.714 81.464 164.758 81.464C169.802 81.464 174.118 82.66 177.706 85.052C181.294 87.392 184.05 90.694 185.974 94.958C187.95 99.222 188.938 104.136 188.938 109.7C188.938 115.316 187.95 120.256 185.974 124.52C184.05 128.732 181.294 132.034 177.706 134.426C174.118 136.766 169.802 137.936 164.758 137.936ZM164.758 128.966C168.866 128.966 172.22 127.25 174.82 123.818C177.42 120.386 178.72 115.68 178.72 109.7C178.72 103.72 177.42 99.014 174.82 95.582C172.22 92.15 168.866 90.434 164.758 90.434C160.598 90.434 157.218 92.15 154.618 95.582C152.07 99.014 150.796 103.72 150.796 109.7C150.796 115.68 152.07 120.386 154.618 123.818C157.218 127.25 160.598 128.966 164.758 128.966ZM191.517 137L208.599 109.388L191.283 82.4H202.749L214.995 101.432L226.227 82.4H237.459L220.377 109.856L237.849 137H226.383L213.981 117.734L202.749 137H191.517Z" fill="#295D4E"/>
<path d="M67.491 180V165.3H69.717V171.6H76.836V165.3H79.062V180H76.836V173.427H69.717V180H67.491ZM83.2275 167.61C82.8075 167.61 82.4575 167.484 82.1775 167.232C81.9115 166.966 81.7785 166.637 81.7785 166.245C81.7785 165.853 81.9115 165.531 82.1775 165.279C82.4575 165.013 82.8075 164.88 83.2275 164.88C83.6475 164.88 83.9905 165.013 84.2565 165.279C84.5365 165.531 84.6765 165.853 84.6765 166.245C84.6765 166.637 84.5365 166.966 84.2565 167.232C83.9905 167.484 83.6475 167.61 83.2275 167.61ZM82.1145 180V169.584H84.3405V180H82.1145ZM91.5421 176.808C90.9961 176.808 90.4921 176.745 90.0301 176.619L89.1271 177.501C89.2811 177.599 89.4701 177.683 89.6941 177.753C89.9181 177.823 90.2331 177.886 90.6391 177.942C91.0451 177.998 91.5981 178.054 92.2981 178.11C93.6841 178.236 94.6851 178.572 95.3011 179.118C95.9171 179.65 96.2251 180.364 96.2251 181.26C96.2251 181.876 96.0571 182.457 95.7211 183.003C95.3991 183.563 94.8881 184.011 94.1881 184.347C93.5021 184.697 92.6201 184.872 91.5421 184.872C90.0861 184.872 88.9031 184.592 87.9931 184.032C87.0971 183.486 86.6491 182.653 86.6491 181.533C86.6491 181.099 86.7611 180.665 86.9851 180.231C87.2231 179.811 87.5941 179.412 88.0981 179.034C87.8041 178.908 87.5451 178.775 87.3211 178.635C87.1111 178.481 86.9221 178.327 86.7541 178.173V177.669L88.5601 175.821C87.7481 175.121 87.3421 174.204 87.3421 173.07C87.3421 172.384 87.5031 171.761 87.8251 171.201C88.1611 170.627 88.6441 170.172 89.2741 169.836C89.9041 169.5 90.6601 169.332 91.5421 169.332C92.1301 169.332 92.6761 169.416 93.1801 169.584H97.0651V171.054L95.2171 171.159C95.5531 171.733 95.7211 172.37 95.7211 173.07C95.7211 173.77 95.5531 174.4 95.2171 174.96C94.8951 175.52 94.4191 175.968 93.7891 176.304C93.1731 176.64 92.4241 176.808 91.5421 176.808ZM91.5421 175.065C92.1861 175.065 92.7041 174.897 93.0961 174.561C93.5021 174.211 93.7051 173.721 93.7051 173.091C93.7051 172.447 93.5021 171.957 93.0961 171.621C92.7041 171.285 92.1861 171.117 91.5421 171.117C90.8841 171.117 90.3521 171.285 89.9461 171.621C89.5541 171.957 89.3581 172.447 89.3581 173.091C89.3581 173.721 89.5541 174.211 89.9461 174.561C90.3521 174.897 90.8841 175.065 91.5421 175.065ZM88.7491 181.323C88.7491 181.925 89.0151 182.373 89.5471 182.667C90.0791 182.975 90.7441 183.129 91.5421 183.129C92.3121 183.129 92.9351 182.961 93.4111 182.625C93.8871 182.303 94.1251 181.869 94.1251 181.323C94.1251 180.917 93.9641 180.567 93.6421 180.273C93.3201 179.993 92.7111 179.818 91.8151 179.748C91.1431 179.706 90.5481 179.643 90.0301 179.559C89.5401 179.825 89.2041 180.112 89.0221 180.42C88.8401 180.728 88.7491 181.029 88.7491 181.323ZM99.0506 180V164.88H101.277V171.264C101.627 170.662 102.11 170.193 102.726 169.857C103.356 169.507 104.049 169.332 104.805 169.332C106.051 169.332 107.031 169.724 107.745 170.508C108.459 171.292 108.816 172.461 108.816 174.015V180H106.611V174.246C106.611 172.23 105.806 171.222 104.196 171.222C103.356 171.222 102.656 171.516 102.096 172.104C101.55 172.692 101.277 173.532 101.277 174.624V180H99.0506ZM116.309 180.252C115.287 180.252 114.377 180.028 113.579 179.58C112.795 179.118 112.179 178.481 111.731 177.669C111.283 176.857 111.059 175.912 111.059 174.834C111.059 173.742 111.276 172.783 111.71 171.957C112.158 171.131 112.774 170.487 113.558 170.025C114.356 169.563 115.28 169.332 116.33 169.332C117.352 169.332 118.241 169.563 118.997 170.025C119.753 170.473 120.341 171.075 120.761 171.831C121.181 172.587 121.391 173.42 121.391 174.33C121.391 174.47 121.384 174.624 121.37 174.792C121.37 174.946 121.363 175.121 121.349 175.317H113.243C113.313 176.325 113.642 177.095 114.23 177.627C114.832 178.145 115.525 178.404 116.309 178.404C116.939 178.404 117.464 178.264 117.884 177.984C118.318 177.69 118.64 177.298 118.85 176.808H121.076C120.796 177.788 120.236 178.607 119.396 179.265C118.57 179.923 117.541 180.252 116.309 180.252ZM116.309 171.159C115.567 171.159 114.909 171.383 114.335 171.831C113.761 172.265 113.411 172.923 113.285 173.805H119.165C119.123 172.993 118.836 172.349 118.304 171.873C117.772 171.397 117.107 171.159 116.309 171.159ZM123.701 180V169.584H125.696L125.885 171.558C126.249 170.872 126.753 170.333 127.397 169.941C128.055 169.535 128.846 169.332 129.77 169.332V171.663H129.161C128.545 171.663 127.992 171.768 127.502 171.978C127.026 172.174 126.641 172.517 126.347 173.007C126.067 173.483 125.927 174.148 125.927 175.002V180H123.701ZM136.97 180V169.584H138.965L139.154 171.558C139.518 170.872 140.022 170.333 140.666 169.941C141.324 169.535 142.115 169.332 143.039 169.332V171.663H142.43C141.814 171.663 141.261 171.768 140.771 171.978C140.295 172.174 139.91 172.517 139.616 173.007C139.336 173.483 139.196 174.148 139.196 175.002V180H136.97ZM149.532 180.252C148.51 180.252 147.6 180.028 146.802 179.58C146.018 179.118 145.402 178.481 144.954 177.669C144.506 176.857 144.282 175.912 144.282 174.834C144.282 173.742 144.499 172.783 144.933 171.957C145.381 171.131 145.997 170.487 146.781 170.025C147.579 169.563 148.503 169.332 149.553 169.332C150.575 169.332 151.464 169.563 152.22 170.025C152.976 170.473 153.564 171.075 153.984 171.831C154.404 172.587 154.614 173.42 154.614 174.33C154.614 174.47 154.607 174.624 154.593 174.792C154.593 174.946 154.586 175.121 154.572 175.317H146.466C146.536 176.325 146.865 177.095 147.453 177.627C148.055 178.145 148.748 178.404 149.532 178.404C150.162 178.404 150.687 178.264 151.107 177.984C151.541 177.69 151.863 177.298 152.073 176.808H154.299C154.019 177.788 153.459 178.607 152.619 179.265C151.793 179.923 150.764 180.252 149.532 180.252ZM149.532 171.159C148.79 171.159 148.132 171.383 147.558 171.831C146.984 172.265 146.634 172.923 146.508 173.805H152.388C152.346 172.993 152.059 172.349 151.527 171.873C150.995 171.397 150.33 171.159 149.532 171.159ZM160.452 180.252C159.57 180.252 158.842 180.105 158.268 179.811C157.694 179.517 157.267 179.132 156.987 178.656C156.707 178.166 156.567 177.634 156.567 177.06C156.567 176.052 156.959 175.254 157.743 174.666C158.527 174.078 159.647 173.784 161.103 173.784H163.833V173.595C163.833 172.783 163.609 172.174 163.161 171.768C162.727 171.362 162.16 171.159 161.46 171.159C160.844 171.159 160.305 171.313 159.843 171.621C159.395 171.915 159.122 172.356 159.024 172.944H156.798C156.868 172.188 157.12 171.544 157.554 171.012C158.002 170.466 158.562 170.053 159.234 169.773C159.92 169.479 160.669 169.332 161.481 169.332C162.937 169.332 164.064 169.717 164.862 170.487C165.66 171.243 166.059 172.279 166.059 173.595V180H164.127L163.938 178.215C163.644 178.789 163.217 179.272 162.657 179.664C162.097 180.056 161.362 180.252 160.452 180.252ZM160.893 178.446C161.495 178.446 161.999 178.306 162.405 178.026C162.825 177.732 163.147 177.347 163.371 176.871C163.609 176.395 163.756 175.87 163.812 175.296H161.334C160.452 175.296 159.822 175.45 159.444 175.758C159.08 176.066 158.898 176.451 158.898 176.913C158.898 177.389 159.073 177.767 159.423 178.047C159.787 178.313 160.277 178.446 160.893 178.446ZM173.4 180.252C172.392 180.252 171.503 180.014 170.733 179.538C169.963 179.062 169.361 178.411 168.927 177.585C168.493 176.759 168.276 175.821 168.276 174.771C168.276 173.721 168.493 172.79 168.927 171.978C169.361 171.152 169.963 170.508 170.733 170.046C171.517 169.57 172.413 169.332 173.421 169.332C174.247 169.332 174.968 169.493 175.584 169.815C176.214 170.137 176.704 170.592 177.054 171.18V164.88H179.28V180H177.285L177.054 178.383C176.718 178.873 176.256 179.307 175.668 179.685C175.08 180.063 174.324 180.252 173.4 180.252ZM173.799 178.32C174.751 178.32 175.528 177.991 176.13 177.333C176.746 176.675 177.054 175.828 177.054 174.792C177.054 173.742 176.746 172.895 176.13 172.251C175.528 171.593 174.751 171.264 173.799 171.264C172.847 171.264 172.063 171.593 171.447 172.251C170.831 172.895 170.523 173.742 170.523 174.792C170.523 175.478 170.663 176.087 170.943 176.619C171.223 177.151 171.608 177.571 172.098 177.879C172.602 178.173 173.169 178.32 173.799 178.32ZM187.378 180V169.584H189.373L189.562 171.558C189.926 170.872 190.43 170.333 191.074 169.941C191.732 169.535 192.523 169.332 193.447 169.332V171.663H192.838C192.222 171.663 191.669 171.768 191.179 171.978C190.703 172.174 190.318 172.517 190.024 173.007C189.744 173.483 189.604 174.148 189.604 175.002V180H187.378ZM199.94 180.252C198.918 180.252 198.008 180.028 197.21 179.58C196.426 179.118 195.81 178.481 195.362 177.669C194.914 176.857 194.69 175.912 194.69 174.834C194.69 173.742 194.907 172.783 195.341 171.957C195.789 171.131 196.405 170.487 197.189 170.025C197.987 169.563 198.911 169.332 199.961 169.332C200.983 169.332 201.872 169.563 202.628 170.025C203.384 170.473 203.972 171.075 204.392 171.831C204.812 172.587 205.022 173.42 205.022 174.33C205.022 174.47 205.015 174.624 205.001 174.792C205.001 174.946 204.994 175.121 204.98 175.317H196.874C196.944 176.325 197.273 177.095 197.861 177.627C198.463 178.145 199.156 178.404 199.94 178.404C200.57 178.404 201.095 178.264 201.515 177.984C201.949 177.69 202.271 177.298 202.481 176.808H204.707C204.427 177.788 203.867 178.607 203.027 179.265C202.201 179.923 201.172 180.252 199.94 180.252ZM199.94 171.159C199.198 171.159 198.54 171.383 197.966 171.831C197.392 172.265 197.042 172.923 196.916 173.805H202.796C202.754 172.993 202.467 172.349 201.935 171.873C201.403 171.397 200.738 171.159 199.94 171.159ZM211.49 180.252C210.174 180.252 209.089 179.93 208.235 179.286C207.381 178.642 206.891 177.788 206.765 176.724H209.012C209.124 177.2 209.39 177.613 209.81 177.963C210.23 178.299 210.783 178.467 211.469 178.467C212.141 178.467 212.631 178.327 212.939 178.047C213.247 177.767 213.401 177.445 213.401 177.081C213.401 176.549 213.184 176.192 212.75 176.01C212.33 175.814 211.742 175.639 210.986 175.485C210.398 175.359 209.81 175.191 209.222 174.981C208.648 174.771 208.165 174.477 207.773 174.099C207.395 173.707 207.206 173.182 207.206 172.524C207.206 171.614 207.556 170.858 208.256 170.256C208.956 169.64 209.936 169.332 211.196 169.332C212.358 169.332 213.296 169.612 214.01 170.172C214.738 170.732 215.165 171.523 215.291 172.545H213.149C213.079 172.097 212.869 171.747 212.519 171.495C212.183 171.243 211.728 171.117 211.154 171.117C210.594 171.117 210.16 171.236 209.852 171.474C209.544 171.698 209.39 171.992 209.39 172.356C209.39 172.72 209.6 173.007 210.02 173.217C210.454 173.427 211.021 173.616 211.721 173.784C212.421 173.938 213.065 174.12 213.653 174.33C214.255 174.526 214.738 174.82 215.102 175.212C215.466 175.604 215.648 176.178 215.648 176.934C215.662 177.886 215.291 178.677 214.535 179.307C213.793 179.937 212.778 180.252 211.49 180.252ZM218.078 184.62V169.584H220.073L220.304 171.201C220.64 170.711 221.102 170.277 221.69 169.899C222.278 169.521 223.034 169.332 223.958 169.332C224.966 169.332 225.855 169.57 226.625 170.046C227.395 170.522 227.997 171.173 228.431 171.999C228.879 172.825 229.103 173.763 229.103 174.813C229.103 175.863 228.879 176.801 228.431 177.627C227.997 178.439 227.395 179.083 226.625 179.559C225.855 180.021 224.959 180.252 223.937 180.252C223.125 180.252 222.404 180.091 221.774 179.769C221.158 179.447 220.668 178.992 220.304 178.404V184.62H218.078ZM223.559 178.32C224.511 178.32 225.295 177.998 225.911 177.354C226.527 176.696 226.835 175.842 226.835 174.792C226.835 174.106 226.695 173.497 226.415 172.965C226.135 172.433 225.75 172.02 225.26 171.726C224.77 171.418 224.203 171.264 223.559 171.264C222.607 171.264 221.823 171.593 221.207 172.251C220.605 172.909 220.304 173.756 220.304 174.792C220.304 175.842 220.605 176.696 221.207 177.354C221.823 177.998 222.607 178.32 223.559 178.32ZM236.383 180.252C235.389 180.252 234.493 180.028 233.695 179.58C232.911 179.118 232.288 178.481 231.826 177.669C231.364 176.843 231.133 175.884 231.133 174.792C231.133 173.7 231.364 172.748 231.826 171.936C232.302 171.11 232.939 170.473 233.737 170.025C234.535 169.563 235.424 169.332 236.404 169.332C237.398 169.332 238.287 169.563 239.071 170.025C239.869 170.473 240.499 171.11 240.961 171.936C241.437 172.748 241.675 173.7 241.675 174.792C241.675 175.884 241.437 176.843 240.961 177.669C240.499 178.481 239.869 179.118 239.071 179.58C238.273 180.028 237.377 180.252 236.383 180.252ZM236.383 178.341C236.915 178.341 237.405 178.208 237.853 177.942C238.315 177.676 238.686 177.284 238.966 176.766C239.246 176.234 239.386 175.576 239.386 174.792C239.386 174.008 239.246 173.357 238.966 172.839C238.7 172.307 238.336 171.908 237.874 171.642C237.426 171.376 236.936 171.243 236.404 171.243C235.872 171.243 235.375 171.376 234.913 171.642C234.465 171.908 234.101 172.307 233.821 172.839C233.541 173.357 233.401 174.008 233.401 174.792C233.401 175.576 233.541 176.234 233.821 176.766C234.101 177.284 234.465 177.676 234.913 177.942C235.361 178.208 235.851 178.341 236.383 178.341ZM244.082 180V169.584H246.056L246.224 171.411C246.546 170.767 247.015 170.263 247.631 169.899C248.261 169.521 248.982 169.332 249.794 169.332C251.054 169.332 252.041 169.724 252.755 170.508C253.483 171.292 253.847 172.461 253.847 174.015V180H251.642V174.246C251.642 172.23 250.816 171.222 249.164 171.222C248.338 171.222 247.652 171.516 247.106 172.104C246.574 172.692 246.308 173.532 246.308 174.624V180H244.082ZM260.627 180.252C259.311 180.252 258.226 179.93 257.372 179.286C256.518 178.642 256.028 177.788 255.902 176.724H258.149C258.261 177.2 258.527 177.613 258.947 177.963C259.367 178.299 259.92 178.467 260.606 178.467C261.278 178.467 261.768 178.327 262.076 178.047C262.384 177.767 262.538 177.445 262.538 177.081C262.538 176.549 262.321 176.192 261.887 176.01C261.467 175.814 260.879 175.639 260.123 175.485C259.535 175.359 258.947 175.191 258.359 174.981C257.785 174.771 257.302 174.477 256.91 174.099C256.532 173.707 256.343 173.182 256.343 172.524C256.343 171.614 256.693 170.858 257.393 170.256C258.093 169.64 259.073 169.332 260.333 169.332C261.495 169.332 262.433 169.612 263.147 170.172C263.875 170.732 264.302 171.523 264.428 172.545H262.286C262.216 172.097 262.006 171.747 261.656 171.495C261.32 171.243 260.865 171.117 260.291 171.117C259.731 171.117 259.297 171.236 258.989 171.474C258.681 171.698 258.527 171.992 258.527 172.356C258.527 172.72 258.737 173.007 259.157 173.217C259.591 173.427 260.158 173.616 260.858 173.784C261.558 173.938 262.202 174.12 262.79 174.33C263.392 174.526 263.875 174.82 264.239 175.212C264.603 175.604 264.785 176.178 264.785 176.934C264.799 177.886 264.428 178.677 263.672 179.307C262.93 179.937 261.915 180.252 260.627 180.252ZM272.087 180.252C271.065 180.252 270.155 180.028 269.357 179.58C268.573 179.118 267.957 178.481 267.509 177.669C267.061 176.857 266.837 175.912 266.837 174.834C266.837 173.742 267.054 172.783 267.488 171.957C267.936 171.131 268.552 170.487 269.336 170.025C270.134 169.563 271.058 169.332 272.108 169.332C273.13 169.332 274.019 169.563 274.775 170.025C275.531 170.473 276.119 171.075 276.539 171.831C276.959 172.587 277.169 173.42 277.169 174.33C277.169 174.47 277.162 174.624 277.148 174.792C277.148 174.946 277.141 175.121 277.127 175.317H269.021C269.091 176.325 269.42 177.095 270.008 177.627C270.61 178.145 271.303 178.404 272.087 178.404C272.717 178.404 273.242 178.264 273.662 177.984C274.096 177.69 274.418 177.298 274.628 176.808H276.854C276.574 177.788 276.014 178.607 275.174 179.265C274.348 179.923 273.319 180.252 272.087 180.252ZM272.087 171.159C271.345 171.159 270.687 171.383 270.113 171.831C269.539 172.265 269.189 172.923 269.063 173.805H274.943C274.901 172.993 274.614 172.349 274.082 171.873C273.55 171.397 272.885 171.159 272.087 171.159ZM67.407 203V192.584H69.402L69.591 194.558C69.955 193.872 70.459 193.333 71.103 192.941C71.761 192.535 72.552 192.332 73.476 192.332V194.663H72.867C72.251 194.663 71.698 194.768 71.208 194.978C70.732 195.174 70.347 195.517 70.053 196.007C69.773 196.483 69.633 197.148 69.633 198.002V203H67.407ZM78.9125 203.252C78.0305 203.252 77.3025 203.105 76.7285 202.811C76.1545 202.517 75.7275 202.132 75.4475 201.656C75.1675 201.166 75.0275 200.634 75.0275 200.06C75.0275 199.052 75.4195 198.254 76.2035 197.666C76.9875 197.078 78.1075 196.784 79.5635 196.784H82.2935V196.595C82.2935 195.783 82.0695 195.174 81.6215 194.768C81.1875 194.362 80.6205 194.159 79.9205 194.159C79.3045 194.159 78.7655 194.313 78.3035 194.621C77.8555 194.915 77.5825 195.356 77.4845 195.944H75.2585C75.3285 195.188 75.5805 194.544 76.0145 194.012C76.4625 193.466 77.0225 193.053 77.6945 192.773C78.3805 192.479 79.1295 192.332 79.9415 192.332C81.3975 192.332 82.5245 192.717 83.3225 193.487C84.1205 194.243 84.5195 195.279 84.5195 196.595V203H82.5875L82.3985 201.215C82.1045 201.789 81.6775 202.272 81.1175 202.664C80.5575 203.056 79.8225 203.252 78.9125 203.252ZM79.3535 201.446C79.9555 201.446 80.4595 201.306 80.8655 201.026C81.2855 200.732 81.6075 200.347 81.8315 199.871C82.0695 199.395 82.2165 198.87 82.2725 198.296H79.7945C78.9125 198.296 78.2825 198.45 77.9045 198.758C77.5405 199.066 77.3585 199.451 77.3585 199.913C77.3585 200.389 77.5335 200.767 77.8835 201.047C78.2475 201.313 78.7375 201.446 79.3535 201.446ZM91.2779 203C90.2559 203 89.4439 202.755 88.8419 202.265C88.2399 201.761 87.9389 200.872 87.9389 199.598V194.453H86.1539V192.584H87.9389L88.2119 189.938H90.1649V192.584H93.1049V194.453H90.1649V199.598C90.1649 200.172 90.2839 200.571 90.5219 200.795C90.7739 201.005 91.2009 201.11 91.8029 201.11H92.9999V203H91.2779ZM100.006 203.252C98.9836 203.252 98.0736 203.028 97.2756 202.58C96.4916 202.118 95.8756 201.481 95.4276 200.669C94.9796 199.857 94.7556 198.912 94.7556 197.834C94.7556 196.742 94.9726 195.783 95.4066 194.957C95.8546 194.131 96.4706 193.487 97.2546 193.025C98.0526 192.563 98.9766 192.332 100.027 192.332C101.049 192.332 101.938 192.563 102.694 193.025C103.45 193.473 104.038 194.075 104.458 194.831C104.878 195.587 105.088 196.42 105.088 197.33C105.088 197.47 105.081 197.624 105.067 197.792C105.067 197.946 105.06 198.121 105.046 198.317H96.9396C97.0096 199.325 97.3386 200.095 97.9266 200.627C98.5286 201.145 99.2216 201.404 100.006 201.404C100.636 201.404 101.161 201.264 101.581 200.984C102.015 200.69 102.337 200.298 102.547 199.808H104.773C104.493 200.788 103.933 201.607 103.093 202.265C102.267 202.923 101.238 203.252 100.006 203.252ZM100.006 194.159C99.2636 194.159 98.6056 194.383 98.0316 194.831C97.4576 195.265 97.1076 195.923 96.9816 196.805H102.862C102.82 195.993 102.533 195.349 102.001 194.873C101.469 194.397 100.804 194.159 100.006 194.159ZM113.213 203V194.453H111.722V192.584H113.213V191.072C113.213 189.938 113.493 189.126 114.053 188.636C114.627 188.132 115.432 187.88 116.468 187.88H117.56V189.77H116.804C116.314 189.77 115.964 189.875 115.754 190.085C115.544 190.281 115.439 190.617 115.439 191.093V192.584H117.833V194.453H115.439V203H113.213ZM119.948 203V192.584H121.943L122.132 194.558C122.496 193.872 123 193.333 123.644 192.941C124.302 192.535 125.093 192.332 126.017 192.332V194.663H125.408C124.792 194.663 124.239 194.768 123.749 194.978C123.273 195.174 122.888 195.517 122.594 196.007C122.314 196.483 122.174 197.148 122.174 198.002V203H119.948ZM132.51 203.252C131.516 203.252 130.62 203.028 129.822 202.58C129.038 202.118 128.415 201.481 127.953 200.669C127.491 199.843 127.26 198.884 127.26 197.792C127.26 196.7 127.491 195.748 127.953 194.936C128.429 194.11 129.066 193.473 129.864 193.025C130.662 192.563 131.551 192.332 132.531 192.332C133.525 192.332 134.414 192.563 135.198 193.025C135.996 193.473 136.626 194.11 137.088 194.936C137.564 195.748 137.802 196.7 137.802 197.792C137.802 198.884 137.564 199.843 137.088 200.669C136.626 201.481 135.996 202.118 135.198 202.58C134.4 203.028 133.504 203.252 132.51 203.252ZM132.51 201.341C133.042 201.341 133.532 201.208 133.98 200.942C134.442 200.676 134.813 200.284 135.093 199.766C135.373 199.234 135.513 198.576 135.513 197.792C135.513 197.008 135.373 196.357 135.093 195.839C134.827 195.307 134.463 194.908 134.001 194.642C133.553 194.376 133.063 194.243 132.531 194.243C131.999 194.243 131.502 194.376 131.04 194.642C130.592 194.908 130.228 195.307 129.948 195.839C129.668 196.357 129.528 197.008 129.528 197.792C129.528 198.576 129.668 199.234 129.948 199.766C130.228 200.284 130.592 200.676 131.04 200.942C131.488 201.208 131.978 201.341 132.51 201.341ZM140.21 203V192.584H142.184L142.373 194.054C142.709 193.522 143.15 193.102 143.696 192.794C144.256 192.486 144.9 192.332 145.628 192.332C147.28 192.332 148.428 192.983 149.072 194.285C149.45 193.683 149.954 193.207 150.584 192.857C151.228 192.507 151.921 192.332 152.663 192.332C153.965 192.332 154.987 192.724 155.729 193.508C156.471 194.292 156.842 195.461 156.842 197.015V203H154.616V197.246C154.616 195.23 153.846 194.222 152.306 194.222C151.522 194.222 150.878 194.516 150.374 195.104C149.884 195.692 149.639 196.532 149.639 197.624V203H147.413V197.246C147.413 195.23 146.636 194.222 145.082 194.222C144.312 194.222 143.675 194.516 143.171 195.104C142.681 195.692 142.436 196.532 142.436 197.624V203H140.21ZM164.737 207.62V192.584H166.732L166.963 194.201C167.299 193.711 167.761 193.277 168.349 192.899C168.937 192.521 169.693 192.332 170.617 192.332C171.625 192.332 172.514 192.57 173.284 193.046C174.054 193.522 174.656 194.173 175.09 194.999C175.538 195.825 175.762 196.763 175.762 197.813C175.762 198.863 175.538 199.801 175.09 200.627C174.656 201.439 174.054 202.083 173.284 202.559C172.514 203.021 171.618 203.252 170.596 203.252C169.784 203.252 169.063 203.091 168.433 202.769C167.817 202.447 167.327 201.992 166.963 201.404V207.62H164.737ZM170.218 201.32C171.17 201.32 171.954 200.998 172.57 200.354C173.186 199.696 173.494 198.842 173.494 197.792C173.494 197.106 173.354 196.497 173.074 195.965C172.794 195.433 172.409 195.02 171.919 194.726C171.429 194.418 170.862 194.264 170.218 194.264C169.266 194.264 168.482 194.593 167.866 195.251C167.264 195.909 166.963 196.756 166.963 197.792C166.963 198.842 167.264 199.696 167.866 200.354C168.482 200.998 169.266 201.32 170.218 201.32ZM183.042 203.252C182.048 203.252 181.152 203.028 180.354 202.58C179.57 202.118 178.947 201.481 178.485 200.669C178.023 199.843 177.792 198.884 177.792 197.792C177.792 196.7 178.023 195.748 178.485 194.936C178.961 194.11 179.598 193.473 180.396 193.025C181.194 192.563 182.083 192.332 183.063 192.332C184.057 192.332 184.946 192.563 185.73 193.025C186.528 193.473 187.158 194.11 187.62 194.936C188.096 195.748 188.334 196.7 188.334 197.792C188.334 198.884 188.096 199.843 187.62 200.669C187.158 201.481 186.528 202.118 185.73 202.58C184.932 203.028 184.036 203.252 183.042 203.252ZM183.042 201.341C183.574 201.341 184.064 201.208 184.512 200.942C184.974 200.676 185.345 200.284 185.625 199.766C185.905 199.234 186.045 198.576 186.045 197.792C186.045 197.008 185.905 196.357 185.625 195.839C185.359 195.307 184.995 194.908 184.533 194.642C184.085 194.376 183.595 194.243 183.063 194.243C182.531 194.243 182.034 194.376 181.572 194.642C181.124 194.908 180.76 195.307 180.48 195.839C180.2 196.357 180.06 197.008 180.06 197.792C180.06 198.576 180.2 199.234 180.48 199.766C180.76 200.284 181.124 200.676 181.572 200.942C182.02 201.208 182.51 201.341 183.042 201.341ZM194.899 203.252C193.583 203.252 192.498 202.93 191.644 202.286C190.79 201.642 190.3 200.788 190.174 199.724H192.421C192.533 200.2 192.799 200.613 193.219 200.963C193.639 201.299 194.192 201.467 194.878 201.467C195.55 201.467 196.04 201.327 196.348 201.047C196.656 200.767 196.81 200.445 196.81 200.081C196.81 199.549 196.593 199.192 196.159 199.01C195.739 198.814 195.151 198.639 194.395 198.485C193.807 198.359 193.219 198.191 192.631 197.981C192.057 197.771 191.574 197.477 191.182 197.099C190.804 196.707 190.615 196.182 190.615 195.524C190.615 194.614 190.965 193.858 191.665 193.256C192.365 192.64 193.345 192.332 194.605 192.332C195.767 192.332 196.705 192.612 197.419 193.172C198.147 193.732 198.574 194.523 198.7 195.545H196.558C196.488 195.097 196.278 194.747 195.928 194.495C195.592 194.243 195.137 194.117 194.563 194.117C194.003 194.117 193.569 194.236 193.261 194.474C192.953 194.698 192.799 194.992 192.799 195.356C192.799 195.72 193.009 196.007 193.429 196.217C193.863 196.427 194.43 196.616 195.13 196.784C195.83 196.938 196.474 197.12 197.062 197.33C197.664 197.526 198.147 197.82 198.511 198.212C198.875 198.604 199.057 199.178 199.057 199.934C199.071 200.886 198.7 201.677 197.944 202.307C197.202 202.937 196.187 203.252 194.899 203.252ZM205.465 203C204.443 203 203.631 202.755 203.029 202.265C202.427 201.761 202.126 200.872 202.126 199.598V194.453H200.341V192.584H202.126L202.399 189.938H204.352V192.584H207.292V194.453H204.352V199.598C204.352 200.172 204.471 200.571 204.709 200.795C204.961 201.005 205.388 201.11 205.99 201.11H207.187V203H205.465ZM210.806 207.62L213.305 202.139H212.696L208.58 192.584H210.995L214.187 200.291L217.526 192.584H219.878L213.158 207.62H210.806Z" fill="#343E3A"/>
<path d="M69.978 356V348.746C73.306 345.99 76.53 343.26 79.65 340.556C82.822 337.852 85.63 335.174 88.074 332.522C90.57 329.87 92.546 327.296 94.002 324.8C95.51 322.252 96.264 319.782 96.264 317.39C96.264 315.154 95.64 313.178 94.392 311.462C93.196 309.746 91.194 308.888 88.386 308.888C85.526 308.888 83.368 309.824 81.912 311.696C80.456 313.568 79.728 315.83 79.728 318.482H70.056C70.16 314.478 71.044 311.15 72.708 308.498C74.372 305.794 76.582 303.792 79.338 302.492C82.094 301.14 85.188 300.464 88.62 300.464C94.184 300.464 98.5 301.998 101.568 305.066C104.688 308.082 106.248 312.008 106.248 316.844C106.248 319.86 105.546 322.798 104.142 325.658C102.79 328.518 100.996 331.274 98.76 333.926C96.524 336.578 94.106 339.074 91.506 341.414C88.906 343.702 86.384 345.834 83.94 347.81H107.574V356H69.978ZM137.87 356.936C132.826 356.936 128.51 355.766 124.922 353.426C121.334 351.034 118.552 347.732 116.576 343.52C114.652 339.256 113.69 334.316 113.69 328.7C113.69 323.136 114.652 318.222 116.576 313.958C118.552 309.694 121.334 306.392 124.922 304.052C128.51 301.66 132.826 300.464 137.87 300.464C142.914 300.464 147.23 301.66 150.818 304.052C154.406 306.392 157.162 309.694 159.086 313.958C161.062 318.222 162.05 323.136 162.05 328.7C162.05 334.316 161.062 339.256 159.086 343.52C157.162 347.732 154.406 351.034 150.818 353.426C147.23 355.766 142.914 356.936 137.87 356.936ZM137.87 347.966C141.978 347.966 145.332 346.25 147.932 342.818C150.532 339.386 151.832 334.68 151.832 328.7C151.832 322.72 150.532 318.014 147.932 314.582C145.332 311.15 141.978 309.434 137.87 309.434C133.71 309.434 130.33 311.15 127.73 314.582C125.182 318.014 123.908 322.72 123.908 328.7C123.908 334.68 125.182 339.386 127.73 342.818C130.33 346.25 133.71 347.966 137.87 347.966ZM193.247 356.936C188.203 356.936 183.887 355.766 180.299 353.426C176.711 351.034 173.929 347.732 171.953 343.52C170.029 339.256 169.067 334.316 169.067 328.7C169.067 323.136 170.029 318.222 171.953 313.958C173.929 309.694 176.711 306.392 180.299 304.052C183.887 301.66 188.203 300.464 193.247 300.464C198.291 300.464 202.607 301.66 206.195 304.052C209.783 306.392 212.539 309.694 214.463 313.958C216.439 318.222 217.427 323.136 217.427 328.7C217.427 334.316 216.439 339.256 214.463 343.52C212.539 347.732 209.783 351.034 206.195 353.426C202.607 355.766 198.291 356.936 193.247 356.936ZM193.247 347.966C197.355 347.966 200.709 346.25 203.309 342.818C205.909 339.386 207.209 334.68 207.209 328.7C207.209 322.72 205.909 318.014 203.309 314.582C200.709 311.15 197.355 309.434 193.247 309.434C189.087 309.434 185.707 311.15 183.107 314.582C180.559 318.014 179.285 322.72 179.285 328.7C179.285 334.68 180.559 339.386 183.107 342.818C185.707 346.25 189.087 347.966 193.247 347.966ZM237.47 328.232C234.974 328.232 232.712 327.686 230.684 326.594C228.656 325.45 227.044 323.838 225.848 321.758C224.652 319.678 224.054 317.208 224.054 314.348C224.054 311.488 224.652 309.018 225.848 306.938C227.044 304.858 228.656 303.272 230.684 302.18C232.712 301.036 235 300.464 237.548 300.464C240.044 300.464 242.28 301.036 244.256 302.18C246.284 303.272 247.896 304.858 249.092 306.938C250.288 309.018 250.886 311.488 250.886 314.348C250.886 317.208 250.288 319.678 249.092 321.758C247.896 323.838 246.284 325.45 244.256 326.594C242.228 327.686 239.966 328.232 237.47 328.232ZM234.506 356L265.316 301.4H275.066L244.256 356H234.506ZM237.47 321.29C238.978 321.29 240.278 320.718 241.37 319.574C242.462 318.378 243.008 316.636 243.008 314.348C243.008 312.06 242.462 310.318 241.37 309.122C240.33 307.926 239.03 307.328 237.47 307.328C235.91 307.328 234.584 307.926 233.492 309.122C232.452 310.318 231.932 312.06 231.932 314.348C231.932 316.636 232.452 318.378 233.492 319.574C234.584 320.718 235.91 321.29 237.47 321.29ZM272.414 356.936C269.918 356.936 267.656 356.39 265.628 355.298C263.6 354.154 261.988 352.542 260.792 350.462C259.596 348.382 258.998 345.912 258.998 343.052C258.998 340.192 259.596 337.748 260.792 335.72C261.988 333.64 263.6 332.054 265.628 330.962C267.656 329.818 269.944 329.246 272.492 329.246C274.988 329.246 277.224 329.818 279.2 330.962C281.228 332.054 282.84 333.64 284.036 335.72C285.232 337.748 285.83 340.192 285.83 343.052C285.83 345.912 285.232 348.382 284.036 350.462C282.84 352.542 281.228 354.154 279.2 355.298C277.224 356.39 274.962 356.936 272.414 356.936ZM272.414 349.994C273.974 349.994 275.274 349.422 276.314 348.278C277.406 347.082 277.952 345.34 277.952 343.052C277.952 340.764 277.406 339.022 276.314 337.826C275.274 336.63 273.974 336.032 272.414 336.032C270.854 336.032 269.528 336.63 268.436 337.826C267.396 339.022 266.876 340.764 266.876 343.052C266.876 345.34 267.396 347.082 268.436 348.278C269.528 349.422 270.854 349.994 272.414 349.994Z" fill="#295D4E"/>
<path d="M67.491 399V384.3H69.717V390.6H76.836V384.3H79.062V399H76.836V392.427H69.717V399H67.491ZM85.8105 399.252C84.5505 399.252 83.5565 398.86 82.8285 398.076C82.1145 397.292 81.7575 396.123 81.7575 394.569V388.584H83.9835V394.338C83.9835 396.354 84.8095 397.362 86.4615 397.362C87.2875 397.362 87.9665 397.068 88.4985 396.48C89.0305 395.892 89.2965 395.052 89.2965 393.96V388.584H91.5225V399H89.5485L89.3805 397.173C89.0585 397.817 88.5825 398.328 87.9525 398.706C87.3365 399.07 86.6225 399.252 85.8105 399.252ZM98.6173 395.808C98.0713 395.808 97.5673 395.745 97.1053 395.619L96.2023 396.501C96.3563 396.599 96.5453 396.683 96.7693 396.753C96.9933 396.823 97.3083 396.886 97.7143 396.942C98.1203 396.998 98.6733 397.054 99.3733 397.11C100.759 397.236 101.76 397.572 102.376 398.118C102.992 398.65 103.3 399.364 103.3 400.26C103.3 400.876 103.132 401.457 102.796 402.003C102.474 402.563 101.963 403.011 101.263 403.347C100.577 403.697 99.6953 403.872 98.6173 403.872C97.1613 403.872 95.9783 403.592 95.0683 403.032C94.1723 402.486 93.7243 401.653 93.7243 400.533C93.7243 400.099 93.8363 399.665 94.0603 399.231C94.2983 398.811 94.6693 398.412 95.1733 398.034C94.8793 397.908 94.6203 397.775 94.3963 397.635C94.1863 397.481 93.9973 397.327 93.8293 397.173V396.669L95.6353 394.821C94.8233 394.121 94.4173 393.204 94.4173 392.07C94.4173 391.384 94.5783 390.761 94.9003 390.201C95.2363 389.627 95.7193 389.172 96.3493 388.836C96.9793 388.5 97.7353 388.332 98.6173 388.332C99.2053 388.332 99.7513 388.416 100.255 388.584H104.14V390.054L102.292 390.159C102.628 390.733 102.796 391.37 102.796 392.07C102.796 392.77 102.628 393.4 102.292 393.96C101.97 394.52 101.494 394.968 100.864 395.304C100.248 395.64 99.4993 395.808 98.6173 395.808ZM98.6173 394.065C99.2613 394.065 99.7793 393.897 100.171 393.561C100.577 393.211 100.78 392.721 100.78 392.091C100.78 391.447 100.577 390.957 100.171 390.621C99.7793 390.285 99.2613 390.117 98.6173 390.117C97.9593 390.117 97.4273 390.285 97.0213 390.621C96.6293 390.957 96.4333 391.447 96.4333 392.091C96.4333 392.721 96.6293 393.211 97.0213 393.561C97.4273 393.897 97.9593 394.065 98.6173 394.065ZM95.8243 400.323C95.8243 400.925 96.0903 401.373 96.6223 401.667C97.1543 401.975 97.8193 402.129 98.6173 402.129C99.3873 402.129 100.01 401.961 100.486 401.625C100.962 401.303 101.2 400.869 101.2 400.323C101.2 399.917 101.039 399.567 100.717 399.273C100.395 398.993 99.7863 398.818 98.8903 398.748C98.2183 398.706 97.6233 398.643 97.1053 398.559C96.6153 398.825 96.2793 399.112 96.0973 399.42C95.9153 399.728 95.8243 400.029 95.8243 400.323ZM110.588 399.252C109.566 399.252 108.656 399.028 107.858 398.58C107.074 398.118 106.458 397.481 106.01 396.669C105.562 395.857 105.338 394.912 105.338 393.834C105.338 392.742 105.555 391.783 105.989 390.957C106.437 390.131 107.053 389.487 107.837 389.025C108.635 388.563 109.559 388.332 110.609 388.332C111.631 388.332 112.52 388.563 113.276 389.025C114.032 389.473 114.62 390.075 115.04 390.831C115.46 391.587 115.67 392.42 115.67 393.33C115.67 393.47 115.663 393.624 115.649 393.792C115.649 393.946 115.642 394.121 115.628 394.317H107.522C107.592 395.325 107.921 396.095 108.509 396.627C109.111 397.145 109.804 397.404 110.588 397.404C111.218 397.404 111.743 397.264 112.163 396.984C112.597 396.69 112.919 396.298 113.129 395.808H115.355C115.075 396.788 114.515 397.607 113.675 398.265C112.849 398.923 111.82 399.252 110.588 399.252ZM110.588 390.159C109.846 390.159 109.188 390.383 108.614 390.831C108.04 391.265 107.69 391.923 107.564 392.805H113.444C113.402 391.993 113.115 391.349 112.583 390.873C112.051 390.397 111.386 390.159 110.588 390.159ZM128.142 399.252C127.148 399.252 126.252 399.028 125.454 398.58C124.67 398.118 124.047 397.481 123.585 396.669C123.123 395.843 122.892 394.884 122.892 393.792C122.892 392.7 123.123 391.748 123.585 390.936C124.061 390.11 124.698 389.473 125.496 389.025C126.294 388.563 127.183 388.332 128.163 388.332C129.157 388.332 130.046 388.563 130.83 389.025C131.628 389.473 132.258 390.11 132.72 390.936C133.196 391.748 133.434 392.7 133.434 393.792C133.434 394.884 133.196 395.843 132.72 396.669C132.258 397.481 131.628 398.118 130.83 398.58C130.032 399.028 129.136 399.252 128.142 399.252ZM128.142 397.341C128.674 397.341 129.164 397.208 129.612 396.942C130.074 396.676 130.445 396.284 130.725 395.766C131.005 395.234 131.145 394.576 131.145 393.792C131.145 393.008 131.005 392.357 130.725 391.839C130.459 391.307 130.095 390.908 129.633 390.642C129.185 390.376 128.695 390.243 128.163 390.243C127.631 390.243 127.134 390.376 126.672 390.642C126.224 390.908 125.86 391.307 125.58 391.839C125.3 392.357 125.16 393.008 125.16 393.792C125.16 394.576 125.3 395.234 125.58 395.766C125.86 396.284 126.224 396.676 126.672 396.942C127.12 397.208 127.61 397.341 128.142 397.341ZM136.367 399V390.453H134.876V388.584H136.367V387.072C136.367 385.938 136.647 385.126 137.207 384.636C137.781 384.132 138.586 383.88 139.622 383.88H140.714V385.77H139.958C139.468 385.77 139.118 385.875 138.908 386.085C138.698 386.281 138.593 386.617 138.593 387.093V388.584H140.987V390.453H138.593V399H136.367ZM143.626 399V390.453H142.135V388.584H143.626V387.072C143.626 385.938 143.906 385.126 144.466 384.636C145.04 384.132 145.845 383.88 146.881 383.88H147.973V385.77H147.217C146.727 385.77 146.377 385.875 146.167 386.085C145.957 386.281 145.852 386.617 145.852 387.093V388.584H148.246V390.453H145.852V399H143.626ZM154.823 399.252C153.801 399.252 152.891 399.028 152.093 398.58C151.309 398.118 150.693 397.481 150.245 396.669C149.797 395.857 149.573 394.912 149.573 393.834C149.573 392.742 149.79 391.783 150.224 390.957C150.672 390.131 151.288 389.487 152.072 389.025C152.87 388.563 153.794 388.332 154.844 388.332C155.866 388.332 156.755 388.563 157.511 389.025C158.267 389.473 158.855 390.075 159.275 390.831C159.695 391.587 159.905 392.42 159.905 393.33C159.905 393.47 159.898 393.624 159.884 393.792C159.884 393.946 159.877 394.121 159.863 394.317H151.757C151.827 395.325 152.156 396.095 152.744 396.627C153.346 397.145 154.039 397.404 154.823 397.404C155.453 397.404 155.978 397.264 156.398 396.984C156.832 396.69 157.154 396.298 157.364 395.808H159.59C159.31 396.788 158.75 397.607 157.91 398.265C157.084 398.923 156.055 399.252 154.823 399.252ZM154.823 390.159C154.081 390.159 153.423 390.383 152.849 390.831C152.275 391.265 151.925 391.923 151.799 392.805H157.679C157.637 391.993 157.35 391.349 156.818 390.873C156.286 390.397 155.621 390.159 154.823 390.159ZM162.215 399V388.584H164.21L164.399 390.558C164.763 389.872 165.267 389.333 165.911 388.941C166.569 388.535 167.36 388.332 168.284 388.332V390.663H167.675C167.059 390.663 166.506 390.768 166.016 390.978C165.54 391.174 165.155 391.517 164.861 392.007C164.581 392.483 164.441 393.148 164.441 394.002V399H162.215ZM174.35 399.252C173.034 399.252 171.949 398.93 171.095 398.286C170.241 397.642 169.751 396.788 169.625 395.724H171.872C171.984 396.2 172.25 396.613 172.67 396.963C173.09 397.299 173.643 397.467 174.329 397.467C175.001 397.467 175.491 397.327 175.799 397.047C176.107 396.767 176.261 396.445 176.261 396.081C176.261 395.549 176.044 395.192 175.61 395.01C175.19 394.814 174.602 394.639 173.846 394.485C173.258 394.359 172.67 394.191 172.082 393.981C171.508 393.771 171.025 393.477 170.633 393.099C170.255 392.707 170.066 392.182 170.066 391.524C170.066 390.614 170.416 389.858 171.116 389.256C171.816 388.64 172.796 388.332 174.056 388.332C175.218 388.332 176.156 388.612 176.87 389.172C177.598 389.732 178.025 390.523 178.151 391.545H176.009C175.939 391.097 175.729 390.747 175.379 390.495C175.043 390.243 174.588 390.117 174.014 390.117C173.454 390.117 173.02 390.236 172.712 390.474C172.404 390.698 172.25 390.992 172.25 391.356C172.25 391.72 172.46 392.007 172.88 392.217C173.314 392.427 173.881 392.616 174.581 392.784C175.281 392.938 175.925 393.12 176.513 393.33C177.115 393.526 177.598 393.82 177.962 394.212C178.326 394.604 178.508 395.178 178.508 395.934C178.522 396.886 178.151 397.677 177.395 398.307C176.653 398.937 175.638 399.252 174.35 399.252ZM186.754 399V390.453H185.263V388.584H186.754V387.072C186.754 385.938 187.034 385.126 187.594 384.636C188.168 384.132 188.973 383.88 190.009 383.88H191.101V385.77H190.345C189.855 385.77 189.505 385.875 189.295 386.085C189.085 386.281 188.98 386.617 188.98 387.093V388.584H191.374V390.453H188.98V399H186.754ZM193.489 399V388.584H195.484L195.673 390.558C196.037 389.872 196.541 389.333 197.185 388.941C197.843 388.535 198.634 388.332 199.558 388.332V390.663H198.949C198.333 390.663 197.78 390.768 197.29 390.978C196.814 391.174 196.429 391.517 196.135 392.007C195.855 392.483 195.715 393.148 195.715 394.002V399H193.489ZM206.051 399.252C205.057 399.252 204.161 399.028 203.363 398.58C202.579 398.118 201.956 397.481 201.494 396.669C201.032 395.843 200.801 394.884 200.801 393.792C200.801 392.7 201.032 391.748 201.494 390.936C201.97 390.11 202.607 389.473 203.405 389.025C204.203 388.563 205.092 388.332 206.072 388.332C207.066 388.332 207.955 388.563 208.739 389.025C209.537 389.473 210.167 390.11 210.629 390.936C211.105 391.748 211.343 392.7 211.343 393.792C211.343 394.884 211.105 395.843 210.629 396.669C210.167 397.481 209.537 398.118 208.739 398.58C207.941 399.028 207.045 399.252 206.051 399.252ZM206.051 397.341C206.583 397.341 207.073 397.208 207.521 396.942C207.983 396.676 208.354 396.284 208.634 395.766C208.914 395.234 209.054 394.576 209.054 393.792C209.054 393.008 208.914 392.357 208.634 391.839C208.368 391.307 208.004 390.908 207.542 390.642C207.094 390.376 206.604 390.243 206.072 390.243C205.54 390.243 205.043 390.376 204.581 390.642C204.133 390.908 203.769 391.307 203.489 391.839C203.209 392.357 203.069 393.008 203.069 393.792C203.069 394.576 203.209 395.234 203.489 395.766C203.769 396.284 204.133 396.676 204.581 396.942C205.029 397.208 205.519 397.341 206.051 397.341ZM213.751 399V388.584H215.725L215.914 390.054C216.25 389.522 216.691 389.102 217.237 388.794C217.797 388.486 218.441 388.332 219.169 388.332C220.821 388.332 221.969 388.983 222.613 390.285C222.991 389.683 223.495 389.207 224.125 388.857C224.769 388.507 225.462 388.332 226.204 388.332C227.506 388.332 228.528 388.724 229.27 389.508C230.012 390.292 230.383 391.461 230.383 393.015V399H228.157V393.246C228.157 391.23 227.387 390.222 225.847 390.222C225.063 390.222 224.419 390.516 223.915 391.104C223.425 391.692 223.18 392.532 223.18 393.624V399H220.954V393.246C220.954 391.23 220.177 390.222 218.623 390.222C217.853 390.222 217.216 390.516 216.712 391.104C216.222 391.692 215.977 392.532 215.977 393.624V399H213.751ZM72.279 422.252C71.257 422.252 70.347 422.028 69.549 421.58C68.765 421.118 68.149 420.481 67.701 419.669C67.253 418.857 67.029 417.912 67.029 416.834C67.029 415.742 67.246 414.783 67.68 413.957C68.128 413.131 68.744 412.487 69.528 412.025C70.326 411.563 71.25 411.332 72.3 411.332C73.322 411.332 74.211 411.563 74.967 412.025C75.723 412.473 76.311 413.075 76.731 413.831C77.151 414.587 77.361 415.42 77.361 416.33C77.361 416.47 77.354 416.624 77.34 416.792C77.34 416.946 77.333 417.121 77.319 417.317H69.213C69.283 418.325 69.612 419.095 70.2 419.627C70.802 420.145 71.495 420.404 72.279 420.404C72.909 420.404 73.434 420.264 73.854 419.984C74.288 419.69 74.61 419.298 74.82 418.808H77.046C76.766 419.788 76.206 420.607 75.366 421.265C74.54 421.923 73.511 422.252 72.279 422.252ZM72.279 413.159C71.537 413.159 70.879 413.383 70.305 413.831C69.731 414.265 69.381 414.923 69.255 415.805H75.135C75.093 414.993 74.806 414.349 74.274 413.873C73.742 413.397 73.077 413.159 72.279 413.159ZM82.1795 422L78.2735 411.584H80.6045L83.5025 419.879L86.4005 411.584H88.7105L84.8255 422H82.1795ZM94.8786 422.252C93.8566 422.252 92.9466 422.028 92.1486 421.58C91.3646 421.118 90.7486 420.481 90.3006 419.669C89.8526 418.857 89.6286 417.912 89.6286 416.834C89.6286 415.742 89.8456 414.783 90.2796 413.957C90.7276 413.131 91.3436 412.487 92.1276 412.025C92.9256 411.563 93.8496 411.332 94.8996 411.332C95.9216 411.332 96.8106 411.563 97.5666 412.025C98.3226 412.473 98.9106 413.075 99.3306 413.831C99.7506 414.587 99.9606 415.42 99.9606 416.33C99.9606 416.47 99.9536 416.624 99.9396 416.792C99.9396 416.946 99.9326 417.121 99.9186 417.317H91.8126C91.8826 418.325 92.2116 419.095 92.7996 419.627C93.4016 420.145 94.0946 420.404 94.8786 420.404C95.5086 420.404 96.0336 420.264 96.4536 419.984C96.8876 419.69 97.2096 419.298 97.4196 418.808H99.6456C99.3656 419.788 98.8056 420.607 97.9656 421.265C97.1396 421.923 96.1106 422.252 94.8786 422.252ZM94.8786 413.159C94.1366 413.159 93.4786 413.383 92.9046 413.831C92.3306 414.265 91.9806 414.923 91.8546 415.805H97.7346C97.6926 414.993 97.4056 414.349 96.8736 413.873C96.3416 413.397 95.6766 413.159 94.8786 413.159ZM102.27 422V411.584H104.265L104.454 413.558C104.818 412.872 105.322 412.333 105.966 411.941C106.624 411.535 107.415 411.332 108.339 411.332V413.663H107.73C107.114 413.663 106.561 413.768 106.071 413.978C105.595 414.174 105.21 414.517 104.916 415.007C104.636 415.483 104.496 416.148 104.496 417.002V422H102.27ZM111.466 426.62L113.965 421.139H113.356L109.24 411.584H111.655L114.847 419.291L118.186 411.584H120.538L113.818 426.62H111.466ZM127.659 422V411.584H129.633L129.822 413.054C130.158 412.522 130.599 412.102 131.145 411.794C131.705 411.486 132.349 411.332 133.077 411.332C134.729 411.332 135.877 411.983 136.521 413.285C136.899 412.683 137.403 412.207 138.033 411.857C138.677 411.507 139.37 411.332 140.112 411.332C141.414 411.332 142.436 411.724 143.178 412.508C143.92 413.292 144.291 414.461 144.291 416.015V422H142.065V416.246C142.065 414.23 141.295 413.222 139.755 413.222C138.971 413.222 138.327 413.516 137.823 414.104C137.333 414.692 137.088 415.532 137.088 416.624V422H134.862V416.246C134.862 414.23 134.085 413.222 132.531 413.222C131.761 413.222 131.124 413.516 130.62 414.104C130.13 414.692 129.885 415.532 129.885 416.624V422H127.659ZM150.423 422.252C149.541 422.252 148.813 422.105 148.239 421.811C147.665 421.517 147.238 421.132 146.958 420.656C146.678 420.166 146.538 419.634 146.538 419.06C146.538 418.052 146.93 417.254 147.714 416.666C148.498 416.078 149.618 415.784 151.074 415.784H153.804V415.595C153.804 414.783 153.58 414.174 153.132 413.768C152.698 413.362 152.131 413.159 151.431 413.159C150.815 413.159 150.276 413.313 149.814 413.621C149.366 413.915 149.093 414.356 148.995 414.944H146.769C146.839 414.188 147.091 413.544 147.525 413.012C147.973 412.466 148.533 412.053 149.205 411.773C149.891 411.479 150.64 411.332 151.452 411.332C152.908 411.332 154.035 411.717 154.833 412.487C155.631 413.243 156.03 414.279 156.03 415.595V422H154.098L153.909 420.215C153.615 420.789 153.188 421.272 152.628 421.664C152.068 422.056 151.333 422.252 150.423 422.252ZM150.864 420.446C151.466 420.446 151.97 420.306 152.376 420.026C152.796 419.732 153.118 419.347 153.342 418.871C153.58 418.395 153.727 417.87 153.783 417.296H151.305C150.423 417.296 149.793 417.45 149.415 417.758C149.051 418.066 148.869 418.451 148.869 418.913C148.869 419.389 149.044 419.767 149.394 420.047C149.758 420.313 150.248 420.446 150.864 420.446ZM159.886 409.61C159.466 409.61 159.116 409.484 158.836 409.232C158.57 408.966 158.437 408.637 158.437 408.245C158.437 407.853 158.57 407.531 158.836 407.279C159.116 407.013 159.466 406.88 159.886 406.88C160.306 406.88 160.649 407.013 160.915 407.279C161.195 407.531 161.335 407.853 161.335 408.245C161.335 408.637 161.195 408.966 160.915 409.232C160.649 409.484 160.306 409.61 159.886 409.61ZM158.773 422V411.584H160.999V422H158.773ZM163.937 422V406.88H166.163V422H163.937Z" fill="#343E3A"/>
<defs>
<clipPath id="clip0_1_12448">
<rect width="85" height="500" fill="white" transform="translate(386 5)"/>
</clipPath>
</defs>
</svg>
