<svg width="394" height="630" viewBox="0 0 394 630" fill="none" xmlns="http://www.w3.org/2000/svg">
<g opacity="0.2">
<g clip-path="url(#clip0_1_22048)">
<path d="M0 0H629.5V629.5H0V0Z" fill="#E0DAFE"/>
<path d="M-179.859 799.768L1032.07 799.768L1032.07 -386.677L-179.859 799.768Z" fill="#3A6EF5"/>
<path d="M318.349 442.224C292.93 442.224 271.107 436.828 252.881 426.037C234.656 415.006 220.627 399.778 210.795 380.353C200.963 360.689 196.047 338.027 196.047 312.367C196.047 286.708 200.963 264.046 210.795 244.381C220.627 224.717 234.656 209.369 252.881 198.338C271.107 187.307 292.93 181.791 318.349 181.791C348.565 181.791 373.266 189.345 392.451 204.453C411.875 219.321 423.985 240.304 428.782 267.403H378.062C374.944 253.734 368.23 243.062 357.918 235.388C347.846 227.475 334.417 223.518 317.63 223.518C294.368 223.518 276.143 231.431 262.953 247.259C249.764 263.086 243.169 284.789 243.169 312.367C243.169 339.945 249.764 361.648 262.953 377.475C276.143 393.063 294.368 400.857 317.63 400.857C334.417 400.857 347.846 397.26 357.918 390.065C368.23 382.631 374.944 372.439 378.062 359.49H428.782C423.985 385.389 411.875 405.653 392.451 420.281C373.266 434.91 348.565 442.224 318.349 442.224Z" fill="white"/>
</g>
</g>
<defs>
<clipPath id="clip0_1_22048">
<rect width="629.5" height="629.5" rx="314.75" fill="white"/>
</clipPath>
</defs>
</svg>
