<svg width="37" height="45" viewBox="0 0 37 45" fill="none" xmlns="http://www.w3.org/2000/svg">
<path d="M11.5953 10.315C11.5953 10.7527 11.5602 11.4824 11.1395 11.9566C10.6837 12.3944 9.98249 12.4309 9.56175 12.4309C7.19487 12.4309 3.91162 11.8275 1.67296 12.7592C5.08956 6.53982 11.7082 2.40709 11.6654 2.76347C11.3501 5.22449 11.5953 7.83965 11.5953 10.315ZM18.6777 38.551C18.6777 35.5231 21.0619 33.0424 24.007 33.0424C24.8835 33.0424 25.5848 33.772 25.5848 34.6841C25.5848 35.3042 25.2692 35.815 24.7784 36.1068C24.2438 36.4405 23.5033 36.2849 23.0253 36.727C22.6747 37.0188 22.3942 37.4931 22.3942 38.0038C22.3942 38.551 22.6046 39.0617 22.9552 39.4265C23.5863 40.0832 24.4277 40.448 25.3393 40.448C27.7235 40.448 29.6519 38.4416 29.6519 35.9609C29.6519 33.7356 28.2144 31.7656 26.3211 30.8901C23.4477 29.3952 19.0514 30.2459 18.7127 25.5639C18.1857 28.0403 17.0232 32.4587 13.8743 32.4587C4.36192 33.0467 0.933295 25.2299 0.270508 16.9545C0.270508 15.1669 1.32235 13.963 2.65468 13.7806C5.03884 13.7806 7.42301 13.7806 9.80718 13.7806C11.0343 13.7806 11.7356 13.4523 12.1913 13.0145C12.7874 12.4309 12.9276 11.5918 12.9276 10.6068C12.9276 8.04101 12.9276 4.09538 12.9276 2.9094C12.9276 1.36054 14.26 0.428711 15.978 0.428711C16.99 0.428711 17.9399 0.464789 18.9231 0.720556C21.0619 1.26777 21.5177 3.52957 21.5177 3.52957C21.5177 3.52957 25.5497 4.25918 27.5833 4.62399C29.5116 4.9888 34.28 5.31712 35.1916 10.315C37.3303 22.2077 36.033 33.7356 35.9278 33.7356C34.4202 44.9716 25.4445 44.4244 25.4445 44.4244C22.1818 44.4244 18.6777 42.1655 18.6777 38.551ZM29.1961 19.1798C28.0391 19.0703 27.0573 19.5446 26.7067 20.4566C26.2099 21.749 31.3348 22.8237 31.3348 21.0403C31.1946 20.0188 30.3531 19.3257 29.1961 19.1798Z" fill="#00A82D"/>
</svg>
