<svg width="64" height="63" viewBox="0 0 64 63" fill="none" xmlns="http://www.w3.org/2000/svg">
<rect x="0.571289" width="62.8571" height="62.8571" rx="18.8571" fill="#DEDFE3"/>
<path d="M25.0934 27.9275V27.6338C25.0934 26.8892 25.6928 26.2717 26.4654 26.2204L32.0929 25.8467L39.8752 37.247V27.2413L37.872 26.9756V26.8361C37.872 26.0828 38.4852 25.4612 39.2676 25.4214L44.388 25.1604V25.8935C44.388 26.2376 44.1308 26.5319 43.7782 26.5912L42.546 26.7985V43.0025L40.9996 43.5315C39.7077 43.9735 38.2694 43.5004 37.5298 42.3902L29.9746 31.0488V41.8735L32.3001 42.3162L32.2677 42.5308C32.1662 43.203 31.5829 43.7113 30.8772 43.7425L25.0934 43.9986C25.0169 43.2758 25.5615 42.6292 26.3127 42.5507L27.0735 42.4712V28.0382L25.0934 27.9275Z" fill="black"/>
<path fill-rule="evenodd" clip-rule="evenodd" d="M38.7964 12.5822L15.6091 14.1571C14.2202 14.2514 13.1436 15.3622 13.1436 16.7009V39.136C13.1436 40.3938 13.5788 41.6159 14.3807 42.6097L19.3802 48.8055C20.1886 49.8072 21.4606 50.3588 22.7767 50.2782L48.512 48.7023C49.831 48.6215 50.8578 47.5694 50.8578 46.2987V20.7921C50.8578 20.0059 50.4588 19.2692 49.7887 18.8186L41.6419 13.3392C40.8117 12.7808 39.8071 12.5136 38.7964 12.5822ZM16.7589 17.0508C16.4364 16.8133 16.5899 16.3185 16.995 16.2896L38.9523 14.7228C39.6519 14.6729 40.3471 14.8646 40.9129 15.2633L45.3185 18.3683C45.4857 18.4862 45.4073 18.7407 45.2002 18.7519L21.9474 20.0099C21.2437 20.048 20.5491 19.8424 19.9896 19.4303L16.7589 17.0508ZM20.8568 23.9538C20.8568 23.2023 21.4671 22.5816 22.2475 22.5393L46.8322 21.2074C47.5928 21.1662 48.233 21.748 48.233 22.4804V44.5665C48.233 45.3166 47.6249 45.9367 46.8461 45.9808L22.417 47.3635C21.5706 47.4114 20.8568 46.7644 20.8568 45.9492V23.9538Z" fill="black"/>
</svg>
