<svg width="40" height="40" viewBox="0 0 40 40" fill="none" xmlns="http://www.w3.org/2000/svg">
<path d="M30.3125 28.625C32.6562 26.125 34.0625 22.75 34.0625 19.0625C34.0625 11.2812 27.7812 5 20 5C12.2188 5 5.9375 11.2812 5.9375 19.0625C5.9375 22.75 7.375 26.125 9.6875 28.625L9.71875 28.6562C10 28.9688 10.2813 29.25 10.5938 29.5312L20 38.75L29.4062 29.5312C29.7188 29.25 30 28.9688 30.25 28.6875L30.3125 28.625Z" fill="white"/>
<path d="M20 11.875C19.0561 11.875 18.1215 12.0609 17.2495 12.4221C16.3774 12.7833 15.5851 13.3127 14.9177 13.9802C14.2502 14.6476 13.7208 15.4399 13.3596 16.312C12.9984 17.184 12.8125 18.1186 12.8125 19.0625C12.8125 20.0064 12.9984 20.941 13.3596 21.813C13.7208 22.6851 14.2502 23.4774 14.9177 24.1448C15.5851 24.8123 16.3774 25.3417 17.2495 25.7029C18.1215 26.0641 19.0561 26.25 20 26.25C20.9439 26.25 21.8785 26.0641 22.7505 25.7029C23.6226 25.3417 24.4149 24.8123 25.0823 24.1448C25.7498 23.4774 26.2792 22.6851 26.6404 21.813C27.0016 20.941 27.1875 20.0064 27.1875 19.0625C27.1875 18.1186 27.0016 17.184 26.6404 16.312C26.2792 15.4399 25.7498 14.6476 25.0823 13.9802C24.4149 13.3127 23.6226 12.7833 22.7505 12.4221C21.8785 12.0609 20.9439 11.875 20 11.875Z" fill="#EAEAEA"/>
<path d="M18.4375 15.9375H21.5625V19.0625H18.4375V15.9375ZM15.3125 19.0625H18.4375V22.1875H15.3125V19.0625ZM12.1875 15.9375H15.3125V19.0625H12.1875V15.9375ZM24.6875 15.9375H27.8125V19.0625H24.6875V15.9375ZM21.5625 19.0625H24.6875V22.1875H21.5625V19.0625Z" fill="black"/>
<path d="M20 39.6875C19.75 39.6875 19.5 39.5938 19.3438 39.4062C18.9688 39.0312 19 38.4375 19.3438 38.0938L28.75 28.8438L28.7812 28.8125C29.0625 28.5625 29.3125 28.3125 29.5938 28.0312L29.625 28C29.625 28 29.625 28 29.6562 27.9688C31.875 25.5625 33.125 22.375 33.125 19.0625C33.125 11.8125 27.25 5.9375 20 5.9375C12.75 5.9375 6.875 11.8125 6.875 19.0625C6.875 22.375 8.125 25.5625 10.375 28L10.4062 28.0312C10.6875 28.3125 10.9688 28.5938 11.2188 28.8438L11.25 28.875L17.125 34.6562C17.5 35.0312 17.5 35.625 17.125 35.9688C16.75 36.3438 16.1562 36.3438 15.8125 35.9688L9.96875 30.2188C9.65625 29.9375 9.34375 29.625 9.0625 29.3125L9.03125 29.2812C9 29.25 8.96875 29.2188 8.96875 29.2188C6.40625 26.4375 5 22.8438 5 19.0625C5 10.7812 11.7188 4.0625 20 4.0625C28.2812 4.0625 35 10.7812 35 19.0625C35 22.8438 33.5938 26.4375 31.0312 29.2188C31 29.25 30.9688 29.2812 30.9688 29.3125L30.9375 29.3438C30.6562 29.6562 30.3437 29.9375 30.0625 30.2188L20.6875 39.4375C20.4687 39.5938 20.25 39.6875 20 39.6875Z" fill="black"/>
<path d="M26.25 39.6875H20C19.4688 39.6875 19.0625 39.2812 19.0625 38.75C19.0625 38.2188 19.4688 37.8125 20 37.8125H26.25C26.7812 37.8125 27.1875 38.2188 27.1875 38.75C27.1875 39.2812 26.7812 39.6875 26.25 39.6875ZM30.9375 37.8125C30.6889 37.8125 30.4504 37.9113 30.2746 38.0871C30.0988 38.2629 30 38.5014 30 38.75C30 38.9986 30.0988 39.2371 30.2746 39.4129C30.4504 39.5887 30.6889 39.6875 30.9375 39.6875C31.1861 39.6875 31.4246 39.5887 31.6004 39.4129C31.7762 39.2371 31.875 38.9986 31.875 38.75C31.875 38.5014 31.7762 38.2629 31.6004 38.0871C31.4246 37.9113 31.1861 37.8125 30.9375 37.8125Z" fill="black"/>
</svg>
