<svg width="40" height="40" viewBox="0 0 40 40" fill="none" xmlns="http://www.w3.org/2000/svg">
<path d="M27.619 33H12.381C11.0714 33 10 31.8955 10 30.5455V8.45455C10 7.10455 11.0714 6 12.381 6H25.2381C27.8571 6 30 8.20909 30 10.9091V30.5455C30 31.8955 28.9286 33 27.619 33Z" fill="#EAEAEA"/>
<path d="M10.625 38.125H3.75C3.21875 38.125 2.8125 37.7188 2.8125 37.1875C2.8125 36.6562 3.21875 36.25 3.75 36.25H10.625C11.1562 36.25 11.5625 36.6562 11.5625 37.1875C11.5625 37.7188 11.1562 38.125 10.625 38.125ZM34.6875 38.125H20C19.4688 38.125 19.0625 37.7188 19.0625 37.1875C19.0625 36.6562 19.4688 36.25 20 36.25H32.4375C32.0938 35.875 32.125 35.3125 32.4688 34.9688C32.8438 34.5937 33.4375 34.5937 33.7812 34.9688L35.3438 36.5313C35.625 36.8125 35.6875 37.1875 35.5625 37.5625C35.4375 37.9375 35.0625 38.125 34.6875 38.125Z" fill="black"/>
<path d="M20 38.125C16.5625 38.125 13.75 35.3125 13.75 31.875C13.75 28.4375 16.5625 25.625 20 25.625C23.4375 25.625 26.25 28.4375 26.25 31.875C26.25 32.5312 26.1562 33.1875 25.9375 33.8125C25.7812 34.3125 25.25 34.5625 24.75 34.4062C24.25 34.25 24 33.7188 24.1563 33.2188C24.3125 32.7813 24.375 32.3125 24.375 31.8438C24.375 29.4375 22.4062 27.4688 20 27.4688C17.5938 27.4688 15.625 29.4375 15.625 31.8438C15.625 34.25 17.5938 36.2188 20 36.2188C20.5312 36.2188 20.9375 36.625 20.9375 37.1562C20.9375 37.6875 20.5312 38.125 20 38.125ZM33.125 39.6875C32.875 39.6875 32.6562 39.5938 32.4688 39.4062C32.0938 39.0312 32.0938 38.4375 32.4688 38.0938L34.0312 36.5312C34.4062 36.1562 35 36.1562 35.3438 36.5312C35.7188 36.9063 35.7188 37.5 35.3438 37.8438L33.7812 39.4062C33.5938 39.5938 33.375 39.6875 33.125 39.6875Z" fill="black"/>
<path d="M6.875 31.875C7.40625 31.875 7.8125 31.4688 7.8125 30.9375V5.9375C7.8125 4.71875 8.78125 3.75 10 3.75H25.9375V5.9375C25.9375 8.1875 27.75 10 30 10H32.1875V30.9375C32.1875 31.4688 32.5938 31.875 33.125 31.875C33.6562 31.875 34.0625 31.4688 34.0625 30.9375V9.0625C34.0625 5.09375 30.8438 1.875 26.875 1.875H10C7.75 1.875 5.9375 3.6875 5.9375 5.9375V30.9375C5.9375 31.4688 6.34375 31.875 6.875 31.875ZM32.0938 8.125H30C28.7812 8.125 27.8125 7.15625 27.8125 5.9375V3.84375C30 4.21875 31.7187 5.9375 32.0938 8.125Z" fill="black"/>
</svg>
