<svg width="40" height="40" viewBox="0 0 40 40" fill="none" xmlns="http://www.w3.org/2000/svg">
<path d="M34.3125 34.3125H5.6875C4.09375 34.3125 2.8125 33.0312 2.8125 31.4375V8.53125C2.8125 6.9375 4.09375 5.65625 5.6875 5.65625H34.3438C35.9375 5.65625 37.2188 6.9375 37.2188 8.53125V31.4375C37.1875 33.0312 35.9062 34.3125 34.3125 34.3125Z" fill="white"/>
<path d="M37.1875 11.4062H2.8125V8.53125C2.8125 6.9375 4.09375 5.65625 5.6875 5.65625H34.3438C35.9375 5.65625 37.2188 6.9375 37.2188 8.53125L37.1875 11.4062Z" fill="#EAEAEA"/>
<path d="M34.3438 4.71875H5.6875C3.59375 4.71875 1.875 6.4375 1.875 8.53125V31.4375C1.875 33.5312 3.59375 35.25 5.6875 35.25H34.3125C36.4062 35.25 38.125 33.5625 38.1562 31.4375V8.53125C38.1562 6.4375 36.4375 4.71875 34.3438 4.71875ZM3.75 8.5625C3.75 7.5 4.625 6.625 5.6875 6.625V6.59375H34.3125C35.375 6.59375 36.25 7.46875 36.25 8.53125V10.4687H3.75V8.5625ZM34.3438 33.4062H5.6875C4.625 33.4062 3.75 32.5312 3.75 31.4687V12.3437H36.2812V31.4687C36.2812 32.5312 35.4062 33.4062 34.3438 33.4062Z" fill="black"/>
<path d="M6.40625 9.62524C5.8125 9.62524 5.3125 9.12524 5.3125 8.53149C5.3125 7.93774 5.8125 7.43774 6.40625 7.43774C7 7.43774 7.5 7.93774 7.5 8.53149C7.46875 9.12524 7 9.62524 6.40625 9.62524ZM9.25 9.62524C8.65625 9.62524 8.15625 9.12524 8.15625 8.53149C8.15625 7.93774 8.65625 7.43774 9.25 7.43774C9.84375 7.43774 10.3438 7.93774 10.3438 8.53149C10.3438 9.12524 9.84375 9.62524 9.25 9.62524Z" fill="white"/>
<path d="M12.125 9.62524C11.5312 9.62524 11.0312 9.12524 11.0312 8.53149C11.0312 7.93774 11.5312 7.43774 12.125 7.43774C12.7188 7.43774 13.2188 7.93774 13.2188 8.53149C13.1875 9.12524 12.7188 9.62524 12.125 9.62524Z" fill="white"/>
<path d="M8.75 32.5625C8.21875 32.5625 7.8125 32.1563 7.8125 31.625V14.8438C7.8125 14.3125 8.21875 13.9062 8.75 13.9062C9.28125 13.9062 9.6875 14.3125 9.6875 14.8438V31.6563C9.6875 32.1563 9.28125 32.5625 8.75 32.5625Z" fill="#EAEAEA"/>
<path d="M14.4063 13.75H28.2813C28.8125 13.75 29.2188 14.1562 29.2188 14.6875V18.5312C29.2188 19.0625 28.8125 19.4688 28.2813 19.4688H14.4063C13.875 19.4688 13.4688 19.0625 13.4688 18.5312V14.6875C13.4688 14.1562 13.875 13.75 14.4063 13.75Z" fill="#EAEAEA"/>
<path d="M14.4062 22.3438H18.25C18.7812 22.3438 19.1875 22.75 19.1875 23.2812V27.125C19.1875 27.6562 18.7812 28.0625 18.25 28.0625H14.4062C13.875 28.0625 13.4688 27.6562 13.4688 27.125V23.2812C13.4688 22.75 13.875 22.3438 14.4062 22.3438Z" fill="#EAEAEA"/>
<path d="M27.9687 24.125H22.25C21.7187 24.125 21.3125 23.7187 21.3125 23.1875C21.3125 22.6562 21.7187 22.25 22.25 22.25H27.9687C28.5 22.25 28.9062 22.6562 28.9062 23.1875C28.9062 23.7187 28.5 24.125 27.9687 24.125ZM27.9687 28.125H22.25C21.7187 28.125 21.3125 27.7188 21.3125 27.1875C21.3125 26.6562 21.7187 26.25 22.25 26.25H27.9687C28.5 26.25 28.9062 26.6562 28.9062 27.1875C28.9062 27.7188 28.5 28.125 27.9687 28.125Z" fill="#EAEAEA"/>
<path d="M27.3151 17.1252C27.1549 17.1252 27.0012 17.1889 26.8879 17.3022C26.7746 17.4155 26.7109 17.5692 26.7109 17.7294V28.0002C26.7109 28.1605 26.7746 28.3142 26.8879 28.4275C27.0012 28.5408 27.1549 28.6044 27.3151 28.6044C27.4085 28.6042 27.5006 28.5824 27.5841 28.5406C27.6677 28.4989 27.7404 28.4383 27.7965 28.3637L29.6834 26.2597L31.7756 31.0919C31.9683 31.5378 32.4909 31.7391 32.9331 31.5379C33.3694 31.3398 33.5626 30.8266 33.365 30.3898L31.2056 25.6072L34.5651 25.5836C34.7253 25.5836 34.879 25.5199 34.9923 25.4066C35.1056 25.2933 35.1693 25.1396 35.1693 24.9794C35.1693 24.8894 35.1491 24.8005 35.1103 24.7192C35.0715 24.638 35.0151 24.5664 34.9451 24.5098L27.7883 17.3542C27.7318 17.2828 27.6598 17.2252 27.5779 17.1855C27.496 17.1459 27.4061 17.1253 27.3151 17.1252Z" fill="black"/>
</svg>
