<svg width="40" height="40" viewBox="0 0 40 40" fill="none" xmlns="http://www.w3.org/2000/svg">
<path d="M29.375 24.6875H10.625C9.75 24.6875 9.0625 25.375 9.0625 26.25V34.0625H30.9375V26.25C30.9375 25.375 30.25 24.6875 29.375 24.6875Z" fill="#EAEAEA"/>
<path d="M9.0625 30.9375H30.9375V34.0625H9.0625V30.9375Z" fill="#EAEAEA"/>
<path d="M7.5 34.0625H9.0625V16.875C9.0625 16 8.375 15.3125 7.5 15.3125H5.9375C5.0625 15.3125 4.375 16 4.375 16.875V30.9375C4.375 32.6562 5.78125 34.0625 7.5 34.0625ZM32.5 34.0625H30.9375V16.875C30.9375 16 31.625 15.3125 32.5 15.3125H34.0625C34.9375 15.3125 35.625 16 35.625 16.875V30.9375C35.625 32.6562 34.2188 34.0625 32.5 34.0625Z" fill="#EAEAEA"/>
<path d="M27.8125 2.8125H12.1875C10.4688 2.8125 9.0625 4.21875 9.0625 5.9375V24.6875H30.9375V5.9375C30.9375 4.21875 29.5312 2.8125 27.8125 2.8125Z" fill="#EAEAEA"/>
<path d="M27.8125 2.8125H12.1875C10.4688 2.8125 9.0625 4.21875 9.0625 5.9375V24.6875H30.9375V5.9375C30.9375 4.21875 29.5312 2.8125 27.8125 2.8125Z" fill="#EAEAEA"/>
<path d="M27.8125 2.8125H12.1875C10.4688 2.8125 9.0625 4.21875 9.0625 5.9375V24.6875H30.9375V5.9375C30.9375 4.21875 29.5312 2.8125 27.8125 2.8125Z" fill="#EAEAEA"/>
<path d="M18.2188 11.75C18.0938 11.6875 17.875 11.5937 17.6562 11.5C17.3438 11.4062 16.9375 11.3125 16.5313 11.2812C16.5 10.875 16.4063 10.4688 16.3125 10.1562C16.25 9.90625 16.1563 9.71875 16.0625 9.59375C16 9.4375 15.9375 9.375 15.9375 9.375C15.9375 9.375 15.875 9.4375 15.8125 9.59375C15.75 9.71875 15.6562 9.9375 15.5625 10.1562C15.4687 10.4688 15.375 10.875 15.3437 11.2812C14.9375 11.3125 14.5312 11.4062 14.2188 11.5C13.9688 11.5625 13.7813 11.6562 13.6562 11.75C13.5 11.8125 13.4375 11.875 13.4375 11.875C13.4375 11.875 13.5 11.9375 13.6562 12C13.7813 12.0625 14 12.1563 14.2188 12.25C14.5312 12.3438 14.9375 12.4375 15.3437 12.4688C15.375 12.875 15.4687 13.2812 15.5625 13.5938C15.625 13.8438 15.7187 14.0312 15.8125 14.1562C15.875 14.3125 15.9375 14.375 15.9375 14.375C15.9375 14.375 16 14.3125 16.0625 14.1562C16.125 14.0312 16.2188 13.8125 16.3125 13.5938C16.4063 13.2812 16.5 12.875 16.5313 12.4688C16.9375 12.4375 17.3438 12.3438 17.6562 12.25C17.9062 12.1875 18.0938 12.0938 18.2188 12C18.375 11.9375 18.4375 11.875 18.4375 11.875C18.4375 11.875 18.375 11.8125 18.2188 11.75ZM26.3438 11.75C26.2188 11.6875 26 11.5937 25.7812 11.5C25.4688 11.4062 25.0625 11.3125 24.6562 11.2812C24.625 10.875 24.5312 10.4688 24.4375 10.1562C24.375 9.90625 24.2813 9.71875 24.1875 9.59375C24.125 9.4375 24.0625 9.375 24.0625 9.375C24.0625 9.375 24 9.4375 23.9375 9.59375C23.875 9.71875 23.7813 9.9375 23.6875 10.1562C23.5938 10.4688 23.5 10.875 23.4688 11.2812C23.0625 11.3125 22.6562 11.4062 22.3438 11.5C22.0938 11.5625 21.9062 11.6562 21.7812 11.75C21.625 11.8125 21.5625 11.875 21.5625 11.875C21.5625 11.875 21.625 11.9375 21.7812 12C21.9062 12.0625 22.125 12.1563 22.3438 12.25C22.6562 12.3438 23.0625 12.4375 23.4688 12.4688C23.5 12.875 23.5938 13.2812 23.6875 13.5938C23.75 13.8438 23.8437 14.0312 23.9375 14.1562C24 14.3125 24.0625 14.375 24.0625 14.375C24.0625 14.375 24.125 14.3125 24.1875 14.1562C24.25 14.0312 24.3437 13.8125 24.4375 13.5938C24.5312 13.2812 24.625 12.875 24.6562 12.4688C25.0625 12.4375 25.4688 12.3438 25.7812 12.25C26.0312 12.1875 26.2188 12.0938 26.3438 12C26.5 11.9375 26.5625 11.875 26.5625 11.875C26.5625 11.875 26.5 11.8125 26.3438 11.75ZM12.1875 21.5625H27.8125C29.5312 21.5625 30.9375 20.1562 30.9375 18.4375V24.6875H9.0625V18.4375C9.0625 20.1562 10.4688 21.5625 12.1875 21.5625Z" fill="#EAEAEA"/>
<path d="M25.375 5.9375H30.9375C30.9375 4.21875 29.5312 2.8125 27.8125 2.8125H12.1875C10.4688 2.8125 9.0625 4.21875 9.0625 5.9375V18.4375C10.9062 10.9062 17.625 5.9375 25.375 5.9375Z" fill="white"/>
<path d="M7.5 35C5.25 35 3.4375 33.1875 3.4375 30.9375V16.875C3.4375 15.5 4.5625 14.375 5.9375 14.375H7.5C8.875 14.375 10 15.5 10 16.875V21.5625C10 22.0938 9.59375 22.5 9.0625 22.5C8.53125 22.5 8.125 22.0938 8.125 21.5625V16.875C8.125 16.5312 7.84375 16.25 7.5 16.25H5.9375C5.59375 16.25 5.3125 16.5312 5.3125 16.875V30.9375C5.3125 32.1562 6.28125 33.125 7.5 33.125C8.03125 33.125 8.4375 33.5312 8.4375 34.0625C8.4375 34.5938 8.03125 35 7.5 35ZM32.5 35C31.9688 35 31.5625 34.5938 31.5625 34.0625C31.5625 33.5312 31.9688 33.125 32.5 33.125C33.7188 33.125 34.6875 32.1562 34.6875 30.9375V16.875C34.6875 16.5312 34.4062 16.25 34.0625 16.25H32.5C32.1562 16.25 31.875 16.5312 31.875 16.875V26.25C31.875 26.7812 31.4688 27.1875 30.9375 27.1875C30.4062 27.1875 30 26.7812 30 26.25V16.875C30 15.5 31.125 14.375 32.5 14.375H34.0625C35.4375 14.375 36.5625 15.5 36.5625 16.875V30.9375C36.5625 33.1875 34.75 35 32.5 35Z" fill="black"/>
<path d="M30.9375 30.3125C30.4062 30.3125 30 29.9062 30 29.375V26.25C30 25.9062 29.7188 25.625 29.375 25.625H10.625C10.2812 25.625 10 25.9062 10 26.25V29.375C10 29.9062 9.59375 30.3125 9.0625 30.3125C8.53125 30.3125 8.125 29.9062 8.125 29.375V26.25C8.125 24.875 9.25 23.75 10.625 23.75H29.375C30.75 23.75 31.875 24.875 31.875 26.25V29.375C31.875 29.9062 31.4688 30.3125 30.9375 30.3125ZM30.9375 19.375C30.4062 19.375 30 18.9688 30 18.4375V5.9375C30 4.71875 29.0312 3.75 27.8125 3.75H12.1875C10.9688 3.75 10 4.71875 10 5.9375V11.875C10 12.4062 9.59375 12.8125 9.0625 12.8125C8.53125 12.8125 8.125 12.4062 8.125 11.875V5.9375C8.125 3.6875 9.9375 1.875 12.1875 1.875H27.8125C30.0625 1.875 31.875 3.6875 31.875 5.9375V18.4375C31.875 18.9688 31.4688 19.375 30.9375 19.375Z" fill="black"/>
<path d="M15.9375 12.8123C15.6875 12.8123 15.4375 12.7185 15.2813 12.531C15.0938 12.3748 15 12.1248 15 11.8748C15 11.6248 15.0938 11.3748 15.2813 11.2185C15.625 10.8748 16.25 10.8748 16.5937 11.2185C16.7812 11.406 16.875 11.6248 16.875 11.8748C16.875 12.1248 16.7812 12.3748 16.5937 12.531C16.4375 12.7185 16.1875 12.8123 15.9375 12.8123ZM24.0625 12.8123C23.8125 12.8123 23.5625 12.7185 23.4062 12.531C23.2188 12.3748 23.125 12.1248 23.125 11.8748C23.125 11.6248 23.2188 11.3748 23.4062 11.2185C23.75 10.8748 24.375 10.8748 24.7188 11.2185C24.9062 11.406 25 11.6248 25 11.8748C25 12.1248 24.9062 12.3748 24.7188 12.531C24.5625 12.7185 24.3125 12.8123 24.0625 12.8123Z" fill="#EAEAEA"/>
<path d="M30 38.125C29.4688 38.125 29.0625 37.7188 29.0625 37.1875V35H10.9375V37.1875C10.9375 37.7188 10.5312 38.125 10 38.125C9.46875 38.125 9.0625 37.7188 9.0625 37.1875V34.0625C9.0625 33.5312 9.46875 33.125 10 33.125H30C30.5312 33.125 30.9375 33.5312 30.9375 34.0625V37.1875C30.9375 37.7188 30.5312 38.125 30 38.125Z" fill="black"/>
<path fill-rule="evenodd" clip-rule="evenodd" d="M26.6957 12.1936C26.8986 11.9907 27 11.754 27 11.4834C27 11.2467 26.8986 10.9762 26.6957 10.7733C24.9034 8.981 22.5362 8.00033 20 8.00033C17.4638 8.00033 15.0966 8.981 13.3043 10.7733C12.8986 11.1453 12.8986 11.7878 13.3043 12.1936C13.6763 12.5994 14.3188 12.5994 14.7246 12.1936C16.1449 10.8071 18.0048 10.0293 20 10.0293C21.9952 10.0293 23.8551 10.8071 25.2754 12.1936C25.6473 12.5994 26.2899 12.5994 26.6957 12.1936ZM23.8213 15.0677C24.0242 14.8648 24.1256 14.6281 24.1256 14.3576C24.1256 14.0871 24.0242 13.8503 23.8551 13.6474C21.7585 11.5508 18.3092 11.5508 16.2126 13.6474C15.8068 14.0194 15.8068 14.6619 16.2126 15.0677C16.5846 15.4735 17.2271 15.4735 17.6329 15.0677C18.9517 13.7489 21.0821 13.7489 22.401 15.0677C22.773 15.4735 23.4155 15.4735 23.8213 15.0677ZM20.8454 18.3141C21.0821 18.0774 21.1836 17.7731 21.1836 17.4687C21.1836 17.1644 21.0821 16.86 20.8454 16.6571C20.4058 16.1837 19.6619 16.1837 19.1884 16.6571C18.715 17.0967 18.715 17.8407 19.1884 18.3141C19.628 18.7875 20.372 18.7875 20.8454 18.3141Z" fill="black"/>
</svg>
