<svg width="97" height="103" viewBox="0 0 97 103" fill="none" xmlns="http://www.w3.org/2000/svg">
<path d="M1 40.9999C12.5 29.8332 38.1 11.3999 48.5 26.9999C61.5 46.4999 20 78.4999 13 65.9999C6 53.4999 42.5 28 68 34.4999C93.5 40.9999 67.5 78.9999 59 72.4999C50.5 65.9999 69 35.9999 87 40.9999C105 45.9999 95.5 94.4999 66 102.5" stroke="black"/>
<path d="M78.0886 7.09433C79.1179 8.78607 79.0141 11.0299 77.8792 13.3504C76.7471 15.6649 74.615 17.9868 71.7353 19.7389C68.8556 21.491 65.8135 22.3172 63.2376 22.2587C60.6551 22.2 58.6147 21.2608 57.5854 19.569C56.5561 17.8773 56.6599 15.6334 57.7948 13.3129C58.9268 10.9984 61.0589 8.67651 63.9386 6.92442C66.8184 5.17233 69.8605 4.34611 72.4363 4.40465C75.0188 4.46334 77.0593 5.40258 78.0886 7.09433Z" stroke="black"/>
</svg>
