<svg width="38" height="37" viewBox="0 0 38 37" fill="none" xmlns="http://www.w3.org/2000/svg">
<path fill-rule="evenodd" clip-rule="evenodd" d="M15.3431 6.00158C15.403 5.88094 16.8417 4.46348 18.58 2.89523C20.3184 1.29681 21.817 -1.14441e-05 21.9069 -1.14441e-05C21.9968 -1.14441e-05 22.8061 0.211102 23.7052 0.482529C28.5008 1.93015 33.0565 5.69999 35.2445 10.0428C37.882 15.2301 37.7621 22.8301 35.0047 28.1381C33.6859 30.7016 30.359 33.9587 27.8713 35.1952C25.2338 36.492 24.0349 36.7333 26.073 35.5873C30.0593 33.3254 32.3671 29.3444 32.3671 24.7C32.3671 21.2317 30.3291 16.9492 27.7515 14.9587C26.4926 14.0238 23.1358 12.3651 22.4164 12.3651C21.8769 12.3651 15.2232 6.39364 15.3431 6.00158ZM4.8229 26.3889C-1.41128 20.4175 -0.00259209 9.62066 7.52038 5.70002C9.16884 4.82542 9.88816 4.58415 8.86912 5.21748C7.46043 6.09209 5.66211 7.99209 5.0327 9.28891C4.19349 11.0683 4.13354 14.5968 4.91281 16.3762C5.93186 18.6683 8.53942 20.8397 11.087 21.5334C11.5067 21.6238 12.8254 22.6492 13.9943 23.7953L16.1523 25.8762L13.9644 27.8667C12.5557 29.1334 11.4767 29.8572 11.0571 29.8572C9.76828 29.8572 6.59124 28.0778 4.8229 26.3889Z" fill="#241F20"/>
<path d="M16.3952 31.2214C6.93965 33.4747 1.43817 25.0321 0 21.2896C0 28.1987 6.04032 32.5169 9.06048 33.8124C21.1411 37.9578 27.0376 32.373 28.4758 29.0624C30.5468 23.5351 28.1882 19.2745 26.75 17.8351C27.3253 21.8654 25.4556 29.0624 16.3952 31.2214Z" fill="#B8CD5B"/>
</svg>
