<svg width="22" height="19" viewBox="0 0 22 19" fill="none" xmlns="http://www.w3.org/2000/svg">
<path d="M21.63 14.6C21.63 11.94 19.74 10.33 17.43 10.33C16.73 10.33 16.24 10.54 16.03 10.68C16.1 7.80997 18.2 4.58997 21.28 3.88997V0.599976C17.36 1.01997 11.97 4.58997 11.97 12.85C11.97 16.84 14.35 18.8 17.08 18.8C19.67 18.8 21.63 16.91 21.63 14.6ZM9.66 14.6C9.66 11.94 7.77 10.33 5.46 10.33C4.76 10.33 4.27 10.54 4.06 10.68C4.13 7.80997 6.23 4.58997 9.31 3.88997V0.599976C5.39 1.01997 0 4.58997 0 12.85C0 16.84 2.38 18.8 5.11 18.8C7.7 18.8 9.66 16.91 9.66 14.6Z" fill="white"/>
</svg>
