<svg width="36" height="40" viewBox="0 0 36 40" fill="none" xmlns="http://www.w3.org/2000/svg">
<path d="M18.2059 13.0156C14.4964 13.0156 11.4892 16.0227 11.4892 19.7322C11.4892 23.4418 14.4964 26.4489 18.2059 26.4489C21.9154 26.4489 24.9226 23.4418 24.9226 19.7322C24.9226 16.0227 21.9154 13.0156 18.2059 13.0156Z" fill="#A37CF9"/>
<path fill-rule="evenodd" clip-rule="evenodd" d="M19.6111 0.730804C18.7372 0.245331 17.6747 0.24533 16.8008 0.730804L1.92082 8.99747C1.00229 9.50777 0.432617 10.4759 0.432617 11.5267V27.9378C0.432617 28.9886 1.00229 29.9568 1.92082 30.4671L16.8008 38.7337C17.6747 39.2192 18.7372 39.2192 19.6111 38.7337L34.4911 30.4671C35.4096 29.9568 35.9793 28.9886 35.9793 27.9378V11.5267C35.9793 10.4759 35.4096 9.50777 34.4911 8.99747L19.6111 0.730804ZM19.6111 19.2154C19.6111 13.7939 14.1691 18.6988 19.5907 18.6988C19.5907 13.2772 25.0122 18.6988 19.5907 18.6988C19.5907 24.1204 25.0327 19.2154 19.6111 19.2154C19.6111 24.637 14.1895 19.2154 19.6111 19.2154Z" fill="#A37CF9"/>
<path d="M18.6807 24.2878H16.6141C16.5984 24.0951 16.5906 23.8139 16.5906 23.4444C16.5906 21.838 17.2403 20.5849 18.5398 19.6853L19.5732 18.9624C20.403 18.3841 20.8179 17.5969 20.8179 16.6009C20.8179 15.8298 20.5752 15.1792 20.0898 14.6491C19.6045 14.1189 18.9156 13.8539 18.0232 13.8539C17.0681 13.8539 16.3401 14.1591 15.8391 14.7696C15.3381 15.38 15.0876 16.1029 15.0876 16.9383C15.0876 17.4202 15.1424 17.8138 15.2519 18.119L12.9739 17.8299C12.88 17.4925 12.833 17.107 12.833 16.6732C12.833 15.886 13.0052 15.131 13.3497 14.4081C13.6941 13.6852 14.2734 13.0587 15.0876 12.5285C15.9017 11.9984 16.8802 11.7333 18.0232 11.7333C19.5888 11.7333 20.8335 12.2153 21.7572 13.1792C22.6966 14.143 23.1663 15.2756 23.1663 16.5768C23.1663 18.2636 22.3679 19.6612 20.7709 20.7697L19.6906 21.5167C19.0017 21.9986 18.6573 22.7697 18.6573 23.83C18.6573 23.9746 18.6651 24.1272 18.6807 24.2878ZM16.5436 28.8422C16.2461 28.5369 16.0974 28.1674 16.0974 27.7337C16.0974 27.3 16.2461 26.9305 16.5436 26.6252C16.8411 26.304 17.2012 26.1433 17.6239 26.1433C18.0466 26.1433 18.4067 26.304 18.7042 26.6252C19.0174 26.9305 19.1739 27.3 19.1739 27.7337C19.1739 28.1674 19.0174 28.5369 18.7042 28.8422C18.4067 29.1474 18.0466 29.3 17.6239 29.3C17.2012 29.3 16.8411 29.1474 16.5436 28.8422Z" fill="white"/>
</svg>
