<svg width="43" height="44" viewBox="0 0 43 44" fill="none" xmlns="http://www.w3.org/2000/svg">
<rect y="0.646973" width="42.7059" height="42.7059" rx="5.69412" fill="#295D4E"/>
<path d="M23.3786 9.1881C23.3786 8.90276 23.2082 8.64499 22.9457 8.53322C22.6831 8.42144 22.3792 8.47726 22.1735 8.67504L19.6426 11.1087C15.8742 14.7321 12.69 18.9176 10.2033 23.5161C10.1447 23.6195 10.1113 23.739 10.1113 23.8663C10.1113 24.2594 10.43 24.5781 10.8231 24.5781H16.9585V34.8116C16.9585 35.0935 17.1248 35.3488 17.3826 35.4627C17.6405 35.5766 17.9412 35.5276 18.1496 35.3378L19.282 34.3062C23.2461 30.6952 26.6103 26.4763 29.2482 21.8077L29.9487 20.568C30.0732 20.3477 30.0713 20.0777 29.9437 19.8591C29.8162 19.6405 29.5821 19.5061 29.329 19.5061H23.3786V9.1881Z" fill="#F2F9FB"/>
</svg>
