<svg width="83" height="83" viewBox="0 0 83 83" fill="none" xmlns="http://www.w3.org/2000/svg">
<path d="M75.0362 40.9872L62.8203 33.8712V53.6466H75.7065V42.1539C75.7065 41.6746 75.4507 41.2294 75.0362 40.9872Z" fill="#1A237E"/>
<path d="M58.5104 15.5524H73.9398V13.6626C73.9398 12.0303 72.6179 10.7084 70.9873 10.7084H30.7901C29.1595 10.7084 27.8359 12.0303 27.8359 13.6626V15.5524H43.1953H58.5104Z" fill="#0C4999"/>
<path d="M58.5078 57.6512H70.983C72.6136 57.6512 73.9372 56.3294 73.9372 54.697V43.0526H58.5078V57.6512Z" fill="#0F73D9"/>
<path d="M27.8359 43.0544V54.6989C27.8359 56.3295 29.1578 57.6531 30.7901 57.6531H43.1954V43.0561H27.8359V43.0544Z" fill="#0F439D"/>
<path d="M58.5078 15.5525H73.9372V29.2438H58.5078V15.5525Z" fill="#2ECDFD"/>
<path d="M27.8359 15.5525H43.1954V29.2438H27.8359V15.5525Z" fill="#1C5FB0"/>
<path d="M43.1953 43.0544H58.5104V57.6514H43.1953V43.0544Z" fill="#1467C7"/>
<path d="M43.1953 15.5525H58.5104V29.2438H43.1953V15.5525Z" fill="#1690D5"/>
<path d="M58.5078 29.2437H73.9372V43.0526H58.5078V29.2437Z" fill="#1BB4FF"/>
<path d="M27.8359 29.2437H43.1954V43.0526H27.8359V29.2437Z" fill="#074DAF"/>
<path d="M43.1953 29.2437H58.5104V43.0526H43.1953V29.2437Z" fill="#2076D4"/>
<path d="M26.9935 72.1119C27.7832 72.1119 72.8245 72.1119 72.8245 72.1119C74.4158 72.1119 75.7053 70.8224 75.7053 69.231V42.1572C75.7053 42.1572 75.6541 43.2795 72.7187 44.9152C70.5014 46.1501 25.8047 71.3716 25.8047 71.3716C25.8047 71.3716 26.2038 72.1119 26.9935 72.1119Z" fill="#2ED0FF"/>
<path d="M72.7732 72.1066C72.4986 72.1066 27.4199 72.1118 27.4199 72.1118C25.8285 72.1118 24.5391 70.8223 24.5391 69.2309V43.2299L74.6222 71.479C74.2043 71.8133 73.6738 72.1066 72.7732 72.1066Z" fill="#139FE2"/>
<path d="M38.7224 58.4666H10.3438C8.76092 58.4666 7.47656 57.1823 7.47656 55.5994V27.2208C7.47656 25.6379 8.76092 24.3536 10.3438 24.3536H38.7224C40.3053 24.3536 41.5896 25.6379 41.5896 27.2208V55.5994C41.5896 57.1823 40.3053 58.4666 38.7224 58.4666Z" fill="#00488D"/>
<path d="M24.3854 32.428C19.045 32.428 15.8281 36.508 15.8281 41.5414C15.8281 46.5748 19.033 50.653 24.3854 50.653C29.7394 50.653 32.9427 46.573 32.9427 41.5414C32.9427 36.508 29.7258 32.428 24.3854 32.428ZM24.3854 47.5777C21.3562 47.5777 19.5447 44.8759 19.5447 41.5414C19.5447 38.2068 21.3647 35.505 24.3854 35.505C27.4061 35.505 29.2277 38.2085 29.2277 41.5414C29.2277 44.8742 27.4129 47.5777 24.3854 47.5777Z" fill="white"/>
</svg>
