<svg width="69" height="60" viewBox="0 0 69 60" fill="none" xmlns="http://www.w3.org/2000/svg">
<g clip-path="url(#clip0_1_34294)">
<path d="M64.3872 2.70202e-08H49.1285C48.5555 -6.3751e-05 47.9882 0.112779 47.4589 0.332078C46.9296 0.551377 46.4487 0.872834 46.0437 1.27807L10.0281 37.2937C9.62284 37.6987 9.30139 38.1796 9.08209 38.7089C8.86279 39.2382 8.74994 39.8055 8.75 40.3784V55.6372C8.74997 56.2101 8.86279 56.7774 9.08203 57.3068C9.30126 57.8361 9.62262 58.3171 10.0278 58.7222C10.4329 59.1273 10.9138 59.4487 11.4432 59.668C11.9725 59.8872 12.5398 60 13.1128 60H28.3715C28.9445 60.0001 29.5118 59.8872 30.0411 59.6679C30.5704 59.4486 31.0513 59.1272 31.4562 58.7219L67.4725 22.7063C68.2905 21.8881 68.75 20.7785 68.75 19.6216V4.36284C68.75 3.7899 68.6372 3.22256 68.418 2.69323C68.1987 2.16389 67.8774 1.68292 67.4722 1.27779C67.0671 0.872657 66.5862 0.551294 66.0568 0.332049C65.5275 0.112805 64.9601 -2.624e-05 64.3872 2.70202e-08Z" fill="#28A8EA"/>
<path d="M64.3875 60H49.1284C47.9714 60 46.8618 59.5404 46.0437 58.7222L38.75 51.4286V37.8C38.75 35.7313 39.5718 33.7473 41.0346 32.2846C42.4973 30.8218 44.4813 30 46.55 30H60.1786L67.4722 37.2937C68.2904 38.1119 68.75 39.2215 68.75 40.3784V55.6375C68.75 56.7945 68.2904 57.9041 67.4722 58.7223C66.6541 59.5404 65.5445 60 64.3875 60Z" fill="#0078D4"/>
<path d="M13.1125 0H28.3716C29.5286 1.76789e-06 30.6382 0.459622 31.4563 1.27775L38.75 8.57142V22.2C38.75 24.2687 37.9282 26.2526 36.4654 27.7154C35.0027 29.1782 33.0187 30 30.95 30H17.3214L10.0277 22.7063C9.20962 21.8882 8.75 20.7786 8.75 19.6216V4.3625C8.75 3.20549 9.20962 2.09587 10.0277 1.27775C10.8459 0.45962 11.9555 0 13.1125 0Z" fill="#50D9FF"/>
<path opacity="0.2" d="M36.25 15.4126V48.3374C36.2528 48.5054 36.236 48.6732 36.2 48.8373C36.0863 49.5135 35.7361 50.1274 35.2117 50.5693C34.6874 51.0112 34.0231 51.2525 33.3374 51.25H8.75V12.5H33.3374C33.7201 12.4993 34.0991 12.5742 34.4528 12.7203C34.8065 12.8665 35.1278 13.081 35.3984 13.3516C35.669 13.6222 35.8835 13.9435 36.0297 14.2972C36.1758 14.6509 36.2507 15.0299 36.25 15.4126Z" fill="black"/>
<path opacity="0.1" d="M37.5 15.4126V45.8374C37.4897 46.9382 37.0478 47.991 36.2694 48.7694C35.491 49.5478 34.4382 49.9897 33.3374 50H8.75V11.25H33.3374C34.4402 11.2539 35.4967 11.6936 36.2766 12.4735C37.0564 13.2533 37.4961 14.3098 37.5 15.4126Z" fill="black"/>
<path opacity="0.2" d="M36.25 15.4126V45.8374C36.2507 46.2201 36.1758 46.5991 36.0297 46.9528C35.8835 47.3065 35.669 47.6278 35.3984 47.8984C35.1278 48.169 34.8065 48.3835 34.4528 48.5297C34.0991 48.6758 33.7201 48.7507 33.3374 48.75H8.75V12.5H33.3374C33.7201 12.4993 34.0991 12.5742 34.4528 12.7203C34.8065 12.8665 35.1278 13.081 35.3984 13.3516C35.669 13.6222 35.8835 13.9435 36.0297 14.2972C36.1758 14.6509 36.2507 15.0299 36.25 15.4126Z" fill="black"/>
<path opacity="0.1" d="M35 15.4126V45.8374C35.0007 46.2201 34.9258 46.5991 34.7797 46.9528C34.6335 47.3065 34.419 47.6278 34.1484 47.8984C33.8778 48.169 33.5565 48.3835 33.2028 48.5297C32.8491 48.6758 32.4701 48.7507 32.0874 48.75H8.75V12.5H32.0874C32.4701 12.4993 32.8491 12.5742 33.2028 12.7203C33.5565 12.8665 33.8778 13.081 34.1484 13.3516C34.419 13.6222 34.6335 13.9435 34.7797 14.2972C34.9258 14.6509 35.0007 15.0299 35 15.4126Z" fill="black"/>
<path d="M32.0833 12.5H2.91666C1.30583 12.5 0 13.8058 0 15.4167V44.5833C0 46.1942 1.30583 47.5 2.91666 47.5H32.0833C33.6942 47.5 35 46.1942 35 44.5833V15.4167C35 13.8058 33.6942 12.5 32.0833 12.5Z" fill="#0078D4"/>
<path d="M23.2348 23.6015H15.0508V28.3873H22.7325V31.4544H15.0508V36.4251H23.6709V39.4794H11.3359V20.5206H23.2348L23.2348 23.6015Z" fill="white"/>
</g>
<defs>
<clipPath id="clip0_1_34294">
<rect width="68.75" height="60" fill="white"/>
</clipPath>
</defs>
</svg>
