<svg width="83" height="83" viewBox="0 0 83 83" fill="none" xmlns="http://www.w3.org/2000/svg">
<path fill-rule="evenodd" clip-rule="evenodd" d="M65.2946 9.00269C54.5456 9.00269 28.2853 9.00269 17.5363 9.00269C15.6516 9.00269 14.125 10.5292 14.125 12.414C14.125 17.6111 14.125 17.5309 14.125 17.5309H68.7059C68.7059 17.5309 68.7059 17.6111 68.7059 12.414C68.7059 10.5292 67.1793 9.00269 65.2946 9.00269ZM24.3589 14.1196C23.4174 14.1196 22.6533 13.3555 22.6533 12.414C22.6533 11.4725 23.4174 10.7083 24.3589 10.7083C25.3004 10.7083 26.0646 11.4725 26.0646 12.414C26.0646 13.3555 25.3004 14.1196 24.3589 14.1196ZM58.472 14.1196C57.5305 14.1196 56.7663 13.3555 56.7663 12.414C56.7663 11.4725 57.5305 10.7083 58.472 10.7083C59.4135 10.7083 60.1776 11.4725 60.1776 12.414C60.1776 13.3555 59.4135 14.1196 58.472 14.1196Z" fill="#C7C7C7"/>
<path fill-rule="evenodd" clip-rule="evenodd" d="M75.5266 19.2366C75.7023 18.2439 73.1234 15.8253 72.1153 15.8253C59.9864 15.8253 22.8407 15.8253 10.7118 15.8253C9.00615 15.8253 7.12481 18.2439 7.3005 19.2366C8.70425 27.1918 12.4175 44.8214 12.4175 44.8214H70.4097C70.4097 44.8214 74.1229 27.1918 75.5266 19.2366Z" fill="#1976D2"/>
<path fill-rule="evenodd" clip-rule="evenodd" d="M70.4061 44.8214H12.4138C12.4138 44.8214 8.70063 62.451 7.29688 70.4062C7.29688 72.3609 8.64775 73.8175 10.7082 73.8175C22.8371 73.8175 59.9828 73.8175 72.1117 73.8175C73.1198 73.8175 75.5231 72.9647 75.5231 70.4062C74.1193 62.451 70.4061 44.8214 70.4061 44.8214Z" fill="#1E88E5"/>
<path fill-rule="evenodd" clip-rule="evenodd" d="M35.4985 44.8214C37.1769 45.3757 38.3759 46.2712 39.0889 47.4771C39.8275 48.7257 40.1976 50.1209 40.1976 51.6679C40.1976 54.3663 39.3123 56.4881 37.5436 58.0351C35.7748 59.5804 33.5131 60.3548 30.7602 60.3548C28.0619 60.3548 25.8275 59.6265 24.057 58.1682C22.2865 56.7098 21.4371 54.733 21.5036 52.2393L21.565 52.1165H25.3891C25.3891 53.6755 25.8667 54.9172 26.8236 55.8382C27.7787 56.761 29.0921 57.2215 30.7602 57.2215C32.4556 57.2215 33.7843 56.761 34.7463 55.8382C35.7083 54.9155 36.191 53.5527 36.191 51.7498C36.191 49.9196 35.7646 48.5704 34.9101 47.7023C34.0555 46.8341 32.7064 46.4008 30.8625 46.4008H27.3642V44.8214H35.4985ZM54.4364 44.8214H58.443V59.9267H54.4364V44.8214Z" fill="#FAFAFA"/>
<path fill-rule="evenodd" clip-rule="evenodd" d="M25.5926 38.0601H21.748L21.7071 37.9373C21.6389 35.6995 22.4491 33.7977 24.1377 32.2319C25.8263 30.6661 28.0334 29.8832 30.759 29.8832C33.4983 29.8832 35.6815 30.6116 37.3087 32.0699C38.9359 33.5282 39.7495 35.6057 39.7495 38.3041C39.7495 39.5253 39.3794 40.7414 38.6408 41.9559C37.9023 43.1703 36.7936 44.0947 35.3148 44.7327L35.4973 44.8214H27.3613V43.2675H30.8596C32.6369 43.2675 33.894 42.824 34.6325 41.9354C35.3711 41.0467 35.7412 39.8101 35.7412 38.2239C35.7412 36.5285 35.3216 35.2407 34.4807 34.3589C33.6398 33.477 32.3998 33.037 30.759 33.037C29.2 33.037 27.9481 33.4941 27.0066 34.41C26.0957 35.2936 25.625 36.4602 25.5926 38.0601ZM58.4417 44.8214H54.4352V34.2156L48.3733 34.2975V31.4081L58.4417 30.3097V44.8214Z" fill="#E0E0E0"/>
<path fill-rule="evenodd" clip-rule="evenodd" d="M10.7102 15.8253C8.2575 15.8253 7.12324 18.2439 7.29892 19.2366C8.70267 27.1918 12.4159 44.8214 12.4159 44.8214L10.7102 15.8253ZM70.4081 44.8214C70.4081 44.8214 74.1213 27.1918 75.5251 19.2366C75.5251 16.4649 73.1218 15.8253 72.1137 15.8253" fill="#1976D2"/>
</svg>
