<svg width="70" height="70" viewBox="0 0 70 70" fill="none" xmlns="http://www.w3.org/2000/svg">
<g clip-path="url(#clip0_1_34319)">
<path d="M70 21.8977C70 21.0616 70 20.2255 69.9968 19.3894C69.9935 18.6861 69.9838 17.9796 69.9643 17.2764C69.9222 15.7435 69.8315 14.1944 69.5593 12.6778C69.2838 11.1384 68.8301 9.70602 68.1171 8.30602C67.4171 6.93194 66.5032 5.67454 65.4144 4.58241C64.3222 3.49352 63.0681 2.57963 61.6907 1.87963C60.294 1.16667 58.8616 0.716204 57.3222 0.440741C55.8056 0.168519 54.2565 0.0777778 52.7236 0.0356481C52.0204 0.0162037 51.3139 0.00972222 50.6106 0.00324074C49.7745 0 48.9384 0 48.1023 0H21.8977C21.0616 0 20.2255 0 19.3894 0.00324074C18.6861 0.00648148 17.9796 0.0162037 17.2764 0.0356481C15.7435 0.0777778 14.1944 0.168519 12.6778 0.440741C11.1384 0.716204 9.70602 1.16991 8.30926 1.87963C6.93518 2.57963 5.67454 3.49352 4.58565 4.58241C3.49352 5.67454 2.58287 6.9287 1.88287 8.30602C1.16991 9.70602 0.719444 11.1384 0.440741 12.6778C0.168519 14.1944 0.0777778 15.7435 0.0388889 17.2764C0.0194444 17.9796 0.00972222 18.6861 0.00648148 19.3894C0 20.2255 0 21.0616 0 21.8977V48.1023C0 48.9384 0 49.7745 0.00648148 50.6106C0.00972222 51.3139 0.0194444 52.0204 0.0388889 52.7236C0.0810185 54.2565 0.171759 55.8056 0.443981 57.3222C0.719444 58.8616 1.17315 60.2972 1.88611 61.694C2.58611 63.0681 3.5 64.3255 4.58889 65.4144C5.67778 66.5065 6.93518 67.4204 8.3125 68.1204C9.70926 68.8333 11.1417 69.2838 12.681 69.5593C14.1977 69.8315 15.7468 69.9222 17.2796 69.9643C17.9829 69.9838 18.6894 69.9903 19.3926 69.9968C20.2287 70 21.0648 70 21.9009 70H48.1056C48.9417 70 49.7778 70 50.6139 69.9968C51.3171 69.9935 52.0236 69.9838 52.7269 69.9643C54.2597 69.9222 55.8088 69.8315 57.3255 69.5593C58.8648 69.2838 60.2972 68.8301 61.694 68.1204C63.0681 67.4204 64.3255 66.5065 65.4176 65.4144C66.5097 64.3255 67.4204 63.0681 68.1204 61.694C68.8333 60.294 69.2838 58.8616 69.5625 57.3222C69.8347 55.8056 69.9255 54.2597 69.9676 52.7236C69.987 52.0204 69.9935 51.3139 70 50.6106C70.0032 49.7745 70.0032 48.9384 70.0032 48.1023V21.8977H70Z" fill="white"/>
<path d="M26.1248 57.2672V24.7009H24.7572L16.4609 30.194V31.5843L24.6633 26.2144H24.7605V57.2704H26.1248V57.2672Z" fill="black"/>
<path d="M34.2266 24.7009V25.9486H52.1155V26.0458L37.7492 57.2704H39.2854L53.5317 26.0199V24.7009H34.2266Z" fill="black"/>
<path d="M12.7172 18.3135V11.2713H12.7432L15.527 17.594H16.4506L19.2246 11.2713H19.257V18.3135H20.1806V8.98657H19.2019L16.0066 16.4598H15.9807L12.7756 8.98981H11.7969V18.3135H12.7172Z" fill="#FF0000"/>
<path d="M25.202 11.0378C23.2543 11.0378 22.1719 12.454 22.1719 14.3726V15.0758C22.1719 17.004 23.2446 18.4267 25.202 18.4267C27.1561 18.4267 28.2223 17.004 28.2223 15.0758V14.3726C28.2256 12.454 27.1432 11.0378 25.202 11.0378ZM25.202 11.9193C26.4723 11.9193 27.2177 12.8689 27.2177 14.4212V15.0239C27.2177 16.5827 26.4723 17.5323 25.202 17.5323C23.9219 17.5323 23.1797 16.5762 23.1797 15.0239V14.4212C23.1797 12.8721 23.9251 11.9193 25.202 11.9193Z" fill="#FF0000"/>
<path d="M30.1094 18.3136H31.114V13.9288C31.114 12.9048 31.6747 11.9585 32.9872 11.9585C34.1084 11.9585 34.8279 12.6358 34.8279 13.8576V18.3071H35.8325V13.7052C35.8325 11.9682 34.7307 11.0316 33.2561 11.0316C32.0797 11.0316 31.4089 11.6474 31.1432 12.127H31.114V11.1483H30.1094V18.3136Z" fill="#FF0000"/>
<path d="M40.4508 11.0315C38.6716 11.0315 37.5859 12.4186 37.5859 14.3598V15.0922C37.5859 17.069 38.5906 18.4204 40.4508 18.4204C41.4781 18.4204 42.2137 17.9019 42.5961 17.1954H42.6221V18.3102H43.5716V8.48755H42.567V12.1787H42.541C42.1943 11.5598 41.4554 11.0315 40.4508 11.0315ZM40.5415 11.9292C41.8119 11.9292 42.5929 12.9274 42.5929 14.4051V15.0695C42.5929 16.6088 41.8345 17.5292 40.5545 17.5292C39.4202 17.5292 38.5938 16.7028 38.5938 15.063V14.4148C38.5906 12.7426 39.4332 11.9292 40.5415 11.9292Z" fill="#FF0000"/>
<path d="M49.7946 17.3832H49.8205V18.3133H50.7992V13.3355C50.7992 11.8642 49.7201 11.0378 48.2293 11.0378C46.5701 11.0378 45.7145 11.9064 45.6303 13.1508H46.5798C46.6608 12.3925 47.202 11.9064 48.1872 11.9064C49.2048 11.9064 49.7946 12.4476 49.7946 13.4522V14.2235H47.8469C46.2136 14.23 45.3516 15.0239 45.3516 16.2619C45.3516 17.5744 46.3011 18.4299 47.6914 18.4299C48.7835 18.4267 49.4511 17.9568 49.7946 17.3832ZM47.928 17.5614C47.121 17.5614 46.3886 17.1304 46.3886 16.2425C46.3886 15.5457 46.8326 15.0466 47.8793 15.0466H49.7946V15.9281C49.7946 16.8906 48.9942 17.5614 47.928 17.5614Z" fill="#FF0000"/>
<path d="M58.199 11.1547H57.1263L55.0814 17.1436H55.0458L53.0009 11.1547H51.8828L54.5564 18.4269L54.4203 18.8644C54.2097 19.6033 53.8467 20.0343 53.0041 20.0343C52.8486 20.0343 52.5925 20.0148 52.4791 19.9922V20.8477C52.6573 20.8736 52.9231 20.9028 53.1629 20.9028C54.5564 20.9028 55.0361 19.9468 55.412 18.913L55.6161 18.3783L58.199 11.1547Z" fill="#FF0000"/>
</g>
<defs>
<clipPath id="clip0_1_34319">
<rect width="70" height="70" fill="white"/>
</clipPath>
</defs>
</svg>
