<svg width="146" height="146" viewBox="0 0 146 146" fill="none" xmlns="http://www.w3.org/2000/svg">
<g filter="url(#filter0_d_1_34288)">
<circle cx="73" cy="70" r="70" fill="#13B5EA"/>
</g>
<path d="M46.9796 70.2697L55.3574 62.0469C55.6083 61.765 55.7399 61.4004 55.7254 61.027C55.7109 60.6537 55.5514 60.2998 55.2793 60.0373C55.0072 59.7748 54.643 59.6234 54.2608 59.6138C53.8785 59.6043 53.5068 59.7373 53.2214 59.9859L44.848 68.1723L36.4418 59.971C36.158 59.6974 35.7745 59.5451 35.3758 59.5477C34.9771 59.5503 34.5957 59.7076 34.3157 59.9848C34.0356 60.2621 33.8798 60.6367 33.8824 61.0262C33.8851 61.4158 34.0461 61.7883 34.3299 62.0619L42.7076 70.2569L34.3343 78.4582C34.1865 78.5918 34.0676 78.753 33.9848 78.9323C33.9019 79.1116 33.8568 79.3053 33.852 79.5019C33.8472 79.6985 33.8829 79.8941 33.9569 80.077C34.0309 80.2599 34.1417 80.4265 34.2829 80.5668C34.424 80.7071 34.5925 80.8183 34.7784 80.8938C34.9643 80.9692 35.1639 81.0075 35.3652 81.0063C35.5666 81.005 35.7656 80.9643 35.9505 80.8865C36.1355 80.8087 36.3025 80.6955 36.4418 80.5534L44.8371 72.3478L53.1995 80.5214C53.4056 80.7355 53.6729 80.884 53.9666 80.9475C54.2603 81.0111 54.5667 80.9868 54.8461 80.8777C55.1254 80.7687 55.3647 80.5801 55.5327 80.3363C55.7007 80.0926 55.7897 79.805 55.7881 79.5112C55.789 79.3188 55.7509 79.1282 55.6758 78.9504C55.6007 78.7726 55.4903 78.6111 55.3508 78.4753L46.9774 70.2611L46.9796 70.2697ZM96.7849 70.2675C96.7849 71.7412 98.0092 72.9373 99.5177 72.9373C100.242 72.937 100.937 72.6554 101.45 72.1546C101.962 71.6537 102.25 70.9745 102.249 70.2665C102.249 69.5584 101.961 68.8795 101.448 68.379C100.936 67.8785 100.24 67.5975 99.5155 67.5978C98.0135 67.5978 96.7914 68.7939 96.7914 70.2675H96.7849ZM91.6144 70.2675C91.6144 66.0067 95.1561 62.536 99.5155 62.536C103.866 62.536 107.414 66.0067 107.414 70.2675C107.414 74.5284 103.868 77.999 99.5155 77.999C97.4188 77.9957 95.4091 77.1796 93.9278 75.73C92.4464 74.2804 91.6144 72.3158 91.6144 70.2675ZM88.5055 70.2675C88.5055 76.205 93.4464 81.0404 99.5155 81.0404C105.585 81.0404 110.526 76.2093 110.526 70.2697C110.526 64.3322 105.585 59.4968 99.5155 59.4968C96.5942 59.5025 93.7945 60.6398 91.7305 62.6594C89.6664 64.679 88.5066 67.4158 88.5055 70.2697V70.2675ZM87.725 59.6805H87.2659C85.8776 59.6805 84.5396 60.1077 83.4224 60.9513C83.3456 60.625 83.1583 60.3337 82.8909 60.1244C82.6235 59.915 82.2916 59.8 81.9489 59.798C81.7529 59.798 81.5589 59.8358 81.3779 59.9093C81.197 59.9829 81.0327 60.0906 80.8946 60.2264C80.7564 60.3621 80.6471 60.5232 80.5729 60.7004C80.4987 60.8776 80.4611 61.0674 80.4622 61.2588L80.4666 79.4023C80.4879 79.7771 80.6555 80.1298 80.9348 80.3876C81.2142 80.6454 81.5841 80.7888 81.9684 80.7883C82.3528 80.7877 82.7223 80.6433 83.0009 80.3847C83.2795 80.126 83.446 79.7729 83.4662 79.398V68.2407C83.4662 64.5244 83.816 63.0209 87.0691 62.6236C87.3752 62.5873 87.6988 62.5937 87.7031 62.5937C88.5908 62.5617 89.2248 61.9615 89.2248 61.1521C89.2236 60.7619 89.0642 60.3882 88.7814 60.1128C88.4986 59.8373 88.1156 59.6826 87.7162 59.6826L87.725 59.6805ZM58.8969 68.497C58.8969 68.4543 58.9013 68.4116 58.9035 68.3731C59.3403 66.6875 60.3434 65.1939 61.7521 64.1312C63.1609 63.0686 64.8938 62.4984 66.6736 62.5119C68.4534 62.5255 70.1771 63.122 71.5687 64.2059C72.9604 65.2898 73.9395 66.7986 74.3494 68.4906H58.8947L58.8969 68.497ZM77.4211 68.2193C76.774 65.2228 75.0971 62.7603 72.5458 61.1798C70.6968 60.046 68.546 59.4714 66.3637 59.5284C64.1814 59.5854 62.0651 60.2714 60.2808 61.5002C58.4753 62.7691 57.0997 64.5368 56.331 66.5757C55.5623 68.6147 55.4356 70.8317 55.9673 72.9415C56.5233 75.0414 57.7106 76.9302 59.3762 78.3643C61.0418 79.7984 63.1092 80.712 65.3114 80.987C66.6407 81.145 67.9349 81.0724 69.2686 80.7307C70.4364 80.4535 71.5491 79.9886 72.5611 79.3553C73.6258 78.6868 74.5156 77.8026 75.3814 76.7453C75.3945 76.724 75.412 76.709 75.4295 76.6877C76.0285 75.9615 75.917 74.9235 75.2611 74.4323C74.7058 74.0158 73.7744 73.8471 73.0442 74.7655C72.8868 74.9876 72.7097 75.214 72.5195 75.4383C71.9358 76.0683 71.2121 76.677 70.3464 77.1511C69.2401 77.7278 67.9852 78.0546 66.6516 78.0631C62.2834 78.014 59.9485 75.0303 59.1156 72.9031C58.9701 72.4996 58.8582 72.0854 58.7811 71.6643L58.7592 71.4401H74.4347C76.5816 71.3931 77.736 69.9087 77.4168 68.2151L77.4211 68.2193Z" fill="white"/>
<defs>
<filter id="filter0_d_1_34288" x="0" y="0" width="146" height="146" filterUnits="userSpaceOnUse" color-interpolation-filters="sRGB">
<feFlood flood-opacity="0" result="BackgroundImageFix"/>
<feColorMatrix in="SourceAlpha" type="matrix" values="0 0 0 0 0 0 0 0 0 0 0 0 0 0 0 0 0 0 127 0" result="hardAlpha"/>
<feOffset dy="3"/>
<feGaussianBlur stdDeviation="1.5"/>
<feColorMatrix type="matrix" values="0 0 0 0 0 0 0 0 0 0 0 0 0 0 0 0 0 0 0.16 0"/>
<feBlend mode="normal" in2="BackgroundImageFix" result="effect1_dropShadow_1_34288"/>
<feBlend mode="normal" in="SourceGraphic" in2="effect1_dropShadow_1_34288" result="shape"/>
</filter>
</defs>
</svg>
