<svg width="86" height="37" viewBox="0 0 86 37" fill="none" xmlns="http://www.w3.org/2000/svg">
<path d="M6.77604 14.4703C6.77604 13.5354 7.52735 13.1757 8.77193 13.1757C10.5562 13.1757 12.8101 13.7272 14.5945 14.7101V9.07616C12.6458 8.28508 10.7206 7.9734 8.77193 7.9734C4.00558 7.9734 0.835938 10.5147 0.835938 14.7582C0.835938 21.3747 9.75782 20.32 9.75782 23.173C9.75782 24.2756 8.81881 24.6353 7.5039 24.6353C5.55524 24.6353 3.06641 23.8201 1.09413 22.7174V28.4232C3.27772 29.3821 5.48474 29.7896 7.5039 29.7896C12.3875 29.7896 15.745 27.3204 15.745 23.0291C15.7215 15.8849 6.77604 17.1554 6.77604 14.4703ZM22.6477 3.17871L16.9189 4.42525L16.8955 23.6283C16.8955 27.1766 19.5017 29.7896 22.9765 29.7896C24.9018 29.7896 26.3104 29.43 27.0852 28.9985V24.1318C26.334 24.4435 22.6242 25.5463 22.6242 21.9981V13.4874H27.0852V8.381H22.6242L22.6477 3.17871ZM34.3872 10.155L34.0115 8.381H28.9401V29.358H34.8099V15.1417C36.1949 13.2957 38.5429 13.6313 39.2708 13.895V8.381C38.5195 8.09325 35.7725 7.56581 34.3872 10.155ZM40.7029 8.381H46.5961V29.358H40.7029V8.381ZM40.7029 6.55896L46.5961 5.26438V0.397705L40.7029 1.66836V6.5588V6.55896ZM58.8521 7.9734C56.5511 7.9734 55.072 9.07616 54.2503 9.84348L53.9449 8.35706H48.7797V36.3104L54.6493 35.0399L54.673 28.2553C55.5182 28.8786 56.7624 29.7656 58.8287 29.7656C63.0314 29.7656 66.8584 26.3134 66.8584 18.7138C66.835 11.7613 62.9609 7.9734 58.8521 7.9734ZM57.4434 24.4914C56.0582 24.4914 55.2362 23.988 54.673 23.3647L54.6493 14.4703C55.2598 13.7751 56.1051 13.2957 57.4434 13.2957C59.58 13.2957 61.0591 15.7409 61.0591 18.8815C61.0591 22.094 59.6034 24.4914 57.4434 24.4914ZM85.3597 18.9535C85.3597 12.8161 82.4483 7.9734 76.8839 7.9734C71.2957 7.9734 67.9148 12.8163 67.9148 18.9056C67.9148 26.1216 71.9064 29.7656 77.635 29.7656C80.4291 29.7656 82.5422 29.1183 84.1387 28.2074V23.4125C82.5424 24.2277 80.7109 24.7312 78.3865 24.7312C76.109 24.7312 74.0898 23.916 73.8316 21.0872H85.3128C85.3128 20.7753 85.3597 19.5288 85.3597 18.9535ZM73.7611 16.676C73.7611 13.9669 75.3813 12.8401 76.8604 12.8401C78.2926 12.8401 79.8188 13.9669 79.8188 16.676H73.7611Z" fill="#6772E5"/>
</svg>
