<svg width="111" height="33" viewBox="0 0 111 33" fill="none" xmlns="http://www.w3.org/2000/svg">
<path d="M78.0283 6.45313H72.2203C72.0883 6.45313 71.9563 6.58414 71.9563 6.71514V10.0555C71.9563 10.1865 72.0883 10.3175 72.2203 10.3175H78.0283C78.1603 10.3175 78.2923 10.1865 78.2923 10.0555V6.71514C78.3583 6.58414 78.2263 6.45313 78.0283 6.45313ZM77.9623 11.4309H66.7423C66.6103 11.4309 66.4123 11.5619 66.3463 11.6929L64.8943 17.1292L64.8283 17.3912L63.1123 11.5619C63.0463 11.4309 62.9143 11.2999 62.7163 11.2999H58.3603C58.2283 11.2999 58.0303 11.4309 57.9643 11.5619L56.3143 16.9982L56.2483 17.2602L56.1823 17.1292L55.5223 14.4438L54.7963 11.7584C54.7303 11.6274 54.5983 11.4964 54.4003 11.4964H45.6223V6.78062C45.6223 6.64962 45.4243 6.45314 45.2262 6.51863L39.6822 8.22156C39.4842 8.28706 39.4182 8.35255 39.4182 8.48355V11.4309H37.9662C37.8342 11.4309 37.7022 11.5619 37.7022 11.6929V15.8847C37.7022 16.0157 37.8342 16.1467 37.9662 16.1467H39.4182V21.2555C39.4182 24.8578 41.3983 26.5607 45.0283 26.5607C46.5463 26.5607 47.9983 26.2333 48.9883 25.7093V21.3865C48.9883 21.19 48.7903 21.1245 48.6583 21.1245C48.0643 21.3865 47.6023 21.452 47.0743 21.452C46.0843 21.452 45.5563 21.059 45.5563 19.9455V16.2122H48.7243C48.8563 16.2122 48.9883 16.0812 48.9883 15.9502V12.4134L53.1463 26.1023C53.2123 26.2333 53.3443 26.3643 53.5423 26.3643H58.1623C58.2943 26.3643 58.4923 26.2333 58.5583 26.1023L60.5383 20.011L61.5283 23.1549L62.4523 26.0368C62.5183 26.1678 62.6503 26.2988 62.8483 26.2988H67.4683C67.6003 26.2988 67.7983 26.1678 67.8643 26.0368L72.0883 12.2824V26.0368C72.0883 26.1678 72.2203 26.2988 72.3523 26.2988H77.9623C78.0943 26.2988 78.2263 26.1678 78.2263 26.0368V11.7584C78.2263 11.5619 78.0943 11.4309 77.9623 11.4309ZM85.3543 6.45313H79.7443C79.6123 6.45313 79.4803 6.58414 79.4803 6.71514V26.0368C79.4803 26.1678 79.6123 26.2988 79.7443 26.2988H85.3543C85.4863 26.2988 85.6183 26.1678 85.6183 26.0368V6.71514C85.6183 6.58414 85.4863 6.45313 85.3543 6.45313ZM92.8123 6.45313H87.0043C86.8723 6.45313 86.7403 6.58414 86.7403 6.71514V10.0555C86.7403 10.1865 86.8723 10.3175 87.0043 10.3175H92.8123C92.9443 10.3175 93.0763 10.1865 93.0763 10.0555V6.71514C93.1423 6.58414 93.0103 6.45313 92.8123 6.45313ZM92.7463 11.4309H87.1363C87.0043 11.4309 86.8723 11.5619 86.8723 11.6929V26.0368C86.8723 26.1678 87.0043 26.2988 87.1363 26.2988H92.7463C92.8783 26.2988 93.0103 26.1678 93.0103 26.0368V11.7584C93.0103 11.5619 92.8783 11.4309 92.7463 11.4309ZM102.052 11.1034C97.1023 11.1034 93.6043 14.7058 93.6043 18.8976V18.9631C93.6043 23.1549 97.1023 26.6918 101.986 26.6918C106.936 26.6918 110.434 23.0894 110.434 18.8976V18.8321C110.434 14.6403 106.936 11.1034 102.052 11.1034ZM104.428 18.8976C104.428 20.3385 103.438 21.452 102.052 21.452C100.666 21.452 99.6103 20.273 99.6103 18.8321V18.7666C99.6103 17.3257 100.6 16.2122 101.986 16.2122C103.372 16.2122 104.428 17.3911 104.428 18.8976ZM17.2422 0.0344238C8.1342 0.0344238 0.742188 7.3701 0.742188 16.4087C0.742188 25.4473 8.1342 32.783 17.2422 32.783C26.3502 32.783 33.7422 25.4473 33.7422 16.4087C33.7422 7.3701 26.3502 0.0344238 17.2422 0.0344238ZM17.2422 28.4602C10.5102 28.4602 5.0982 23.0894 5.0982 16.4087C5.0982 9.72799 10.5102 4.35724 17.2422 4.35724C23.9742 4.35724 29.3862 9.72799 29.3862 16.4087C29.3862 23.0894 23.9742 28.4602 17.2422 28.4602Z" fill="#F12E45"/>
<path d="M21.3305 15.7537C23.2259 15.7537 24.7625 14.2289 24.7625 12.3479C24.7625 10.4669 23.2259 8.94202 21.3305 8.94202C19.435 8.94202 17.8984 10.4669 17.8984 12.3479C17.8984 14.2289 19.435 15.7537 21.3305 15.7537Z" fill="#F12E45"/>
<path d="M21.3305 23.8754C23.2259 23.8754 24.7625 22.3506 24.7625 20.4696C24.7625 18.5886 23.2259 17.0637 21.3305 17.0637C19.435 17.0637 17.8984 18.5886 17.8984 20.4696C17.8984 22.3506 19.435 23.8754 21.3305 23.8754Z" fill="#F12E45"/>
<path d="M13.1507 23.8754C15.0462 23.8754 16.5828 22.3506 16.5828 20.4696C16.5828 18.5886 15.0462 17.0637 13.1507 17.0637C11.2553 17.0637 9.71875 18.5886 9.71875 20.4696C9.71875 22.3506 11.2553 23.8754 13.1507 23.8754Z" fill="#F12E45"/>
<path d="M13.1507 15.7537C15.0462 15.7537 16.5828 14.2289 16.5828 12.3479C16.5828 10.4669 15.0462 8.94202 13.1507 8.94202C11.2553 8.94202 9.71875 10.4669 9.71875 12.3479C9.71875 14.2289 11.2553 15.7537 13.1507 15.7537Z" fill="#F12E45"/>
</svg>
