<svg width="59" height="24" viewBox="0 0 59 24" fill="none" xmlns="http://www.w3.org/2000/svg">
<path fill-rule="evenodd" clip-rule="evenodd" d="M17.7296 1.47852H21.4319L25.5526 14.7688L29.7699 0.725629H34.8565L27.7739 23.6398H23.8142L19.5646 9.76038L15.3151 23.6398H11.3553L6.20975 7.01824C6.02087 6.44561 5.82965 6.00532 5.6101 5.67113C4.96764 4.77658 4.41411 4.48464 3.57347 4.48464C3.21934 4.48464 2.38231 4.64831 1.80283 5.07386L0 1.63673C1.4809 0.294609 3.02618 0 4.31392 0C6.18113 0 7.88738 0.621957 9.20731 2.5533C10.4257 4.33609 10.7227 5.29416 11.5306 7.98724L13.5926 14.7688L17.7296 1.47852ZM46.6912 13.4243C46.3692 11.2633 44.2118 10.4447 42.6017 10.4447C41.0561 10.4447 38.9952 11.1651 38.4156 13.4243H46.6912ZM43.3745 20.0055C45.0812 20.0055 46.7878 19.1214 47.9471 18.0082L50.7163 20.693C48.3657 23.3124 45.2422 24 43.0203 24C36.9022 24 33.5533 20.1037 33.5533 15.3233C33.5533 10.3793 37.353 6.48294 42.6661 6.48294C47.2386 6.48294 51.618 9.69168 51.618 16.3711H38.319C38.4156 18.4666 40.3155 20.0055 43.3745 20.0055ZM55.9409 24C54.2021 24 52.914 22.7885 52.914 21.1842C52.914 19.5471 54.2021 18.3029 55.9409 18.3029C57.6476 18.3029 59 19.5471 59 21.1842C59 22.7885 57.6476 24 55.9409 24Z" fill="#F46F22"/>
</svg>
