<svg width="39" height="39" viewBox="0 0 39 39" fill="none" xmlns="http://www.w3.org/2000/svg">
<path d="M23.4811 23.4185C20.9224 24.3813 18.0551 24.3831 15.4964 23.4191C14.5323 20.863 14.5321 17.9963 15.4949 15.4398C18.053 14.4753 20.9231 14.4752 23.4812 15.4397C24.4449 17.9953 24.4445 20.8628 23.4811 23.4185ZM38.0957 16.2859H27.0813L34.8692 8.50221C33.6469 6.78635 32.138 5.27906 30.4212 4.05751L22.6327 11.8412V0.833555C20.554 0.484089 18.4222 0.484622 16.3436 0.833555V11.8412L8.55508 4.05751C6.83865 5.27823 5.32925 6.78759 4.10692 8.50221L11.896 16.2859H0.881734C0.609856 18.4256 0.521523 20.4365 0.881734 22.5718H11.8961L4.10707 30.3555C5.33235 32.0739 6.83561 33.5763 8.55508 34.8008L16.3436 27.0165V38.0247C18.4225 38.3729 20.5536 38.3731 22.6325 38.0247V27.0165L30.4217 34.8008C32.1393 33.578 33.6456 32.072 34.8692 30.3555L27.0801 22.5718H38.0957C38.4452 20.4962 38.4452 18.3615 38.0957 16.2859Z" fill="#FF4A00"/>
</svg>
