<svg width="335" height="324" viewBox="0 0 335 324" fill="none" xmlns="http://www.w3.org/2000/svg">
<path d="M139.571 10.6888C138.932 7.21613 141.254 3.87497 144.756 3.4062C167.292 0.389116 190.252 1.89754 212.193 7.86331C234.062 13.8097 254.402 24.0441 271.957 37.9041C274.769 40.1238 275.007 44.2572 272.583 46.9008L245.209 76.7453C242.897 79.2657 239.017 79.4864 236.304 77.4121C224.818 68.6306 211.629 62.1195 197.49 58.2749C183.368 54.4351 168.618 53.3424 154.091 55.0372C150.644 55.4393 147.39 53.1888 146.762 49.7772L139.571 10.6888Z" fill="#EEF8B9"/>
<path d="M281.213 54.2453C283.701 51.8994 287.607 51.9356 289.941 54.4281C303.082 68.4658 313.547 84.6639 320.83 102.273C328.073 119.785 332.042 138.385 332.572 157.207C332.67 160.706 329.782 163.512 326.282 163.472L284.776 162.993C281.276 162.953 278.495 160.08 278.326 156.584C277.751 144.641 275.115 132.862 270.513 121.735C265.926 110.643 259.461 100.385 251.397 91.3737C249.007 88.7037 249.046 84.583 251.656 82.1212L281.213 54.2453Z" fill="#98A841"/>
<path d="M50.4865 58.0221C47.806 55.6453 47.6235 51.5081 50.1967 49.0083C69.1269 30.6181 92.4071 16.9531 118.022 9.1997C121.332 8.19795 124.765 10.1701 125.7 13.4962L136.474 51.8234C137.433 55.2353 135.399 58.7574 132.025 59.8524C116.213 64.9845 101.795 73.4917 89.8442 84.742C87.3543 87.086 83.473 87.2712 80.918 85.0056L50.4865 58.0221Z" fill="#98A841"/>
<path d="M8.40498 159.805C4.90442 159.765 2.08979 156.893 2.27869 153.397C3.98232 121.866 15.3193 91.5163 34.8566 66.1951C36.9467 63.4863 40.8362 63.0754 43.5315 65.1753L75.7056 90.2426C78.5302 92.4433 78.951 96.5387 76.8254 99.4261C65.0058 115.482 57.9808 134.374 56.524 154.025C56.2652 157.516 53.4108 160.325 49.9102 160.284L8.40498 159.805Z" fill="#D3E763"/>
</svg>
