<svg width="17" height="17" viewBox="0 0 17 17" fill="none" xmlns="http://www.w3.org/2000/svg">
<path fill-rule="evenodd" clip-rule="evenodd" d="M14.5403 0.5C15.6873 0.5 16.6172 1.39545 16.6172 2.49997L16.617 8.50003C16.617 12.9185 12.8978 16.5 8.30939 16.5C3.721 16.5 0.00173105 12.9185 0.00173066 8.50004L0.00173014 2.49998C0.00173004 1.39545 0.931618 0.500001 2.07862 0.500001L14.5403 0.5ZM13.2943 4.49995C13.2943 4.94179 12.9224 5.30005 12.4635 5.30005L4.15552 5.30005C3.69668 5.30005 3.32479 4.94179 3.32479 4.49995C3.32479 4.05811 3.69668 3.69999 4.15552 3.69999L12.4635 3.69999C12.9224 3.69999 13.2943 4.0581 13.2943 4.49995ZM11.7374 10.2121C12.1502 10.5791 12.1874 11.2111 11.8205 11.6239C11.4536 12.0367 10.8215 12.0739 10.4087 11.707L8.30384 9.83598L6.19897 11.707C5.78619 12.0739 5.15412 12.0367 4.7872 11.6239C4.42028 11.2111 4.45746 10.5791 4.87024 10.2121L7.63948 7.75061C8.01836 7.41382 8.58932 7.41382 8.9682 7.75061L11.7374 10.2121Z" fill="white"/>
</svg>
