<svg width="103" height="23" viewBox="0 0 103 23" fill="none" xmlns="http://www.w3.org/2000/svg">
<path d="M26.8517 21.328V21.5187H18.7179V21.328C19.632 21.1692 19.992 20.9466 20.0896 20.2476V9.69663C20.0896 7.75683 19.3714 6.80333 17.9014 6.80333C17.4154 6.81293 16.945 6.97183 16.5575 7.25733C16.1699 7.54273 15.885 7.94023 15.7434 8.39283C15.8101 8.76023 15.8431 9.13273 15.8418 9.50593V19.4251C15.8418 20.6013 16.2009 21.0785 17.3093 21.3322V21.5229H9.53539V21.328C10.6455 21.076 11.0028 20.5971 11.0028 19.4209V9.69243C11.0028 7.75263 10.251 6.79913 8.81379 6.79913C8.35679 6.80323 7.91269 6.94643 7.54359 7.20883C7.17449 7.47113 6.89909 7.83933 6.75599 8.26173V19.4209C6.75599 20.5971 7.11508 21.0743 8.22338 21.328V21.5187H-0.0078125V21.328C1.26529 21.0424 1.91879 20.5013 1.91879 19.2277V9.09263C1.91879 7.40733 1.46209 6.89823 -0.0078125 6.77133V6.58063L6.75339 4.76853V7.75683C7.03829 6.84503 7.62558 6.05093 8.42348 5.49863C9.22149 4.94643 10.1851 4.66713 11.1634 4.70463C13.6131 4.70463 15.1487 5.91273 15.6381 7.88453C15.9565 6.93903 16.58 6.11883 17.4157 5.54593C18.2515 4.97303 19.255 4.67793 20.2769 4.70463C23.3153 4.70463 24.9156 6.61253 24.9156 9.50593V19.2344C24.9242 20.5055 25.5776 21.0466 26.8517 21.328Z" fill="white"/>
<path d="M44.132 18.0582C43.577 20.6625 41.8454 22.0008 39.5571 22.0008C39.1447 22.0375 38.7288 21.994 38.3338 21.8727C37.9388 21.7515 37.5726 21.5549 37.2564 21.2946C36.9402 21.0342 36.6804 20.7152 36.4921 20.3562C36.3038 19.9971 36.1908 19.6052 36.1596 19.2033L36.0949 18.9512C35.7963 19.8732 35.1918 20.6728 34.3763 21.2246C33.5608 21.7765 32.5803 22.0495 31.5883 22.0008C31.0272 22.0433 30.4631 21.9719 29.9319 21.7911C29.4007 21.6102 28.9138 21.3239 28.5023 20.9503C28.0908 20.5767 27.7635 20.1239 27.5412 19.6207C27.319 19.1175 27.2065 18.5748 27.2111 18.0271C27.2111 15.1976 29.5632 13.3535 33.3198 12.5899L36.031 12.0497V11.3776C36.031 8.92947 35.1161 7.24497 32.372 7.24497C30.2495 7.24497 28.7467 8.23047 28.0277 10.7105L27.7687 10.6467C28.2866 6.99047 30.7734 4.70117 34.6284 4.70117C38.9727 4.70117 40.8674 7.40377 40.8674 11.4733V17.8633C40.8674 18.9764 41.4224 19.5485 42.1415 19.5485C42.7621 19.5485 43.4803 19.1991 43.8394 18.0229L44.132 18.0582ZM36.031 18.4085V12.8436L34.757 13.0662C32.2089 13.5753 31.7195 15.1329 31.7195 16.6905C31.7195 18.3119 32.536 19.5838 34.1036 19.5838C34.5117 19.6139 34.919 19.5161 35.2658 19.3046C35.6127 19.0931 35.8808 18.7791 36.031 18.4085Z" fill="white"/>
<path d="M61.8725 21.3277V21.5184H53.6413V21.3277C54.7194 21.0757 55.1087 20.5968 55.1087 19.4206V9.72821C55.1087 7.78841 54.3577 6.80291 52.8221 6.80291C52.3015 6.79861 51.7912 6.94411 51.3553 7.22122C50.9194 7.49841 50.5775 7.89482 50.3724 8.36052V19.4248C50.3724 20.601 50.7315 21.0782 51.8399 21.3319V21.5226H43.6094V21.3277C44.8835 21.0421 45.5369 20.501 45.5369 19.2274V9.09222C45.5369 7.40702 45.0794 6.89782 43.6094 6.77102V6.58032L50.3716 4.76822V7.88582C50.7028 6.91592 51.3526 6.07902 52.2208 5.50402C53.089 4.92912 54.1275 4.64812 55.176 4.70432C58.2835 4.70432 59.9451 6.55262 59.9451 9.53672V19.2341C59.946 20.5052 60.5994 21.0463 61.8725 21.3277Z" fill="white"/>
<path d="M72.9799 17.7718C72.2619 20.0922 70.4979 22.0001 67.6559 22.0001C64.9119 22.0001 63.6049 20.3149 63.6049 17.8357V5.8808H61.7109V5.722C64.3139 4.2942 66.5739 2.3437 68.3419 0H68.4729V5.2457H71.7719V5.8808H68.4689V17.1039C68.4689 18.5666 69.0899 19.552 70.2979 19.552C70.8599 19.5511 71.4039 19.3652 71.8429 19.0245C72.2819 18.6839 72.5889 18.2085 72.7149 17.676L72.9799 17.7718Z" fill="white"/>
<path d="M86.5383 15.7694C85.7213 20.3472 82.7492 22.0006 79.9072 22.0006C76.1172 22.0006 72.6562 19.1391 72.6562 13.6708C72.6562 8.45698 75.6292 4.70508 80.1042 4.70508C83.2722 4.70508 86.5392 6.64488 86.5062 11.8906H76.4453C76.7723 15.9601 78.9283 18.2175 82.0973 18.2175C82.9833 18.2969 83.8732 18.0952 84.6322 17.6425C85.3912 17.1898 85.9802 16.5104 86.3102 15.7056L86.5383 15.7694ZM76.4112 10.743V11.0925H82.0622C82.0952 7.02298 81.0173 5.59228 79.3863 5.59228C77.5553 5.59558 76.4112 7.56648 76.4112 10.743Z" fill="white"/>
<path d="M99.0504 4.70508V9.28368H98.8874C98.3534 9.05538 97.7704 8.95698 97.1884 8.99718C95.0654 8.99718 93.6604 10.1104 93.6604 14.3387V19.2349C93.6604 20.6631 94.4774 21.11 96.2404 21.3352V21.5259H86.8984V21.3285C88.1724 21.0428 88.8264 20.5018 88.8264 19.2282V9.37868C88.8264 7.56648 88.3354 6.93058 86.8984 6.80368V6.61298L93.4644 4.76898V11.8906H93.6284C93.8874 6.77178 95.8494 4.70508 98.6914 4.70508H99.0504Z" fill="white"/>
<path d="M97.6094 19.3289C97.6204 18.6357 97.9114 17.9744 98.4184 17.4874C98.9254 17.0004 99.6084 16.7265 100.32 16.7246C101.027 16.7337 101.702 17.011 102.202 17.4975C102.702 17.9839 102.987 18.6411 102.996 19.3289C103 20.0239 102.72 20.692 102.218 21.1866C101.717 21.6813 101.034 21.9622 100.32 21.9677C99.9644 21.9686 99.6114 21.901 99.2814 21.7687C98.9524 21.6364 98.6534 21.442 98.4014 21.1968C98.1494 20.9516 97.9494 20.6604 97.8134 20.3398C97.6774 20.0193 97.6084 19.6757 97.6094 19.3289Z" fill="white"/>
</svg>
