<svg width="149" height="22" viewBox="0 0 149 22" fill="none" xmlns="http://www.w3.org/2000/svg">
<path d="M5.81212 20.7771C5.94332 20.7771 6.02772 20.6553 6.06512 20.4117C6.12142 20.1681 6.03702 19.7276 5.81212 19.0905C5.73722 18.8469 5.56852 18.4158 5.30612 17.7973C5.06252 17.1789 4.77202 16.4667 4.43472 15.6609C4.09742 14.8551 3.75072 14.0399 3.39462 13.2152C3.05732 12.3906 2.74802 11.6316 2.46692 10.9382C2.18582 10.2448 1.97032 9.72011 1.82042 9.36401C1.57672 8.72681 1.31442 8.27711 1.03332 8.01471C0.770919 7.75231 0.555419 7.62111 0.386719 7.62111H6.12142C6.00892 7.62111 5.93402 7.75231 5.89652 8.01471C5.85902 8.27711 5.93402 8.72681 6.12142 9.36401C6.21512 9.70131 6.36502 10.198 6.57112 10.8539C6.79602 11.5098 7.03972 12.25 7.30202 13.0747C7.58312 13.8993 7.86432 14.7426 8.14542 15.6047C8.44522 16.4667 8.71702 17.2632 8.96062 17.9941H8.98872C9.19492 17.2445 9.41972 16.4386 9.66342 15.5766C9.90702 14.6957 10.1413 13.8431 10.3661 13.0185C10.591 12.1751 10.7878 11.4255 10.9565 10.7696C11.1439 10.1136 11.2751 9.62641 11.35 9.30781C11.5187 8.67061 11.5843 8.23021 11.5468 7.98661C11.5093 7.74291 11.4437 7.62111 11.35 7.62111H17.5907C17.4783 7.62111 17.4033 7.75231 17.3658 8.01471C17.3283 8.27711 17.4033 8.72681 17.5907 9.36401C17.6844 9.70131 17.825 10.198 18.0124 10.8539C18.1997 11.5098 18.4059 12.25 18.6308 13.0747C18.8557 13.8993 19.09 14.7426 19.3336 15.6047C19.5772 16.4667 19.7928 17.2632 19.9801 17.9941H20.0083C20.2894 17.2445 20.5799 16.4386 20.8797 15.5766C21.1983 14.6957 21.5076 13.8431 21.8074 13.0185C22.1072 12.1751 22.3696 11.4255 22.5945 10.7696C22.8194 10.1136 22.9693 9.62641 23.0443 9.30781C23.2129 8.70811 23.2786 8.27711 23.241 8.01471C23.2035 7.75231 23.138 7.62111 23.0443 7.62111H28.6384C28.5072 7.62111 28.3197 7.74291 28.0761 7.98661C27.8326 8.23021 27.5796 8.66121 27.3171 9.27971C27.186 9.61701 26.9704 10.1136 26.6706 10.7696C26.3708 11.4255 26.0427 12.1564 25.6867 12.9622C25.3307 13.768 24.9745 14.574 24.6185 15.3798C24.2624 16.1856 23.9438 16.9165 23.6627 17.5725C23.4003 18.2284 23.2129 18.7344 23.1005 19.0905C22.9131 19.6902 22.8381 20.1212 22.8756 20.3836C22.9131 20.646 22.988 20.7771 23.1005 20.7771H16.8317C16.9441 20.7771 17.0191 20.646 17.0566 20.3836C17.0941 20.1212 17.0191 19.6902 16.8317 19.0905C16.7755 18.9218 16.663 18.5376 16.4944 17.9379C16.3444 17.3382 16.157 16.6167 15.9321 15.7733C15.7073 14.9113 15.473 14.021 15.2294 13.1028C14.9858 12.1845 14.7515 11.3131 14.5266 10.4885H14.4423C14.2174 11.2756 13.9831 12.1189 13.7395 13.0185C13.4959 13.8993 13.2616 14.7613 13.0367 15.6047C12.8118 16.4293 12.6056 17.1602 12.4183 17.7973C12.2496 18.4158 12.1371 18.8469 12.0809 19.0905C11.9123 19.7089 11.8466 20.1493 11.8841 20.4117C11.9217 20.6553 11.9872 20.7771 12.0809 20.7771H5.81212ZM34.8812 21.0582C32.9135 21.0582 31.3673 20.7865 30.2429 20.243C29.1372 19.6995 28.3595 18.9218 27.9097 17.9098C27.4599 16.8791 27.235 15.6515 27.235 14.2272C27.235 12.1095 27.8253 10.4322 29.006 9.19531C30.1867 7.95851 31.9952 7.34001 34.4315 7.34001C35.8557 7.34001 37.0083 7.53681 37.8891 7.93031C38.7887 8.32391 39.4728 8.84861 39.9412 9.50461C40.4097 10.1605 40.7283 10.8914 40.897 11.6972C41.0844 12.4843 41.1781 13.2809 41.1781 14.0867V15.4079C41.1781 15.3517 40.9157 15.2955 40.391 15.2392C39.885 15.1643 39.023 15.1268 37.8048 15.1268H31.283C31.283 16.1575 31.5922 16.9353 32.2107 17.46C32.8478 17.966 33.8786 18.219 35.3029 18.219C36.5023 18.219 37.5705 18.0785 38.5076 17.7973C39.4633 17.4975 40.1567 17.2164 40.5878 16.954V17.7973L40.8689 19.9338C40.5129 20.1774 39.8288 20.4304 38.8168 20.6928C37.8048 20.9364 36.493 21.0582 34.8812 21.0582ZM32.3231 12.7092H37.1863C37.1863 12.297 37.0926 11.894 36.9052 11.5005C36.7366 11.1069 36.4555 10.7883 36.0619 10.5447C35.6683 10.2823 35.1248 10.1511 34.4315 10.1511C33.4008 10.1511 32.6605 10.3666 32.2107 10.7977C31.7609 11.2287 31.536 11.6785 31.536 12.147C31.536 12.3344 31.5922 12.4749 31.7047 12.5687C31.8171 12.6624 32.0233 12.7092 32.3231 12.7092ZM47.9643 21.0582C46.6712 21.0582 45.7342 20.7865 45.1532 20.243C44.5722 19.6808 44.2817 18.7718 44.2817 17.5162V10.4322H41.7517V7.62111C42.6139 7.62111 43.2885 7.51811 43.7757 7.31191C44.263 7.08701 44.6098 6.70281 44.8158 6.15931C45.022 5.61591 45.125 4.85691 45.125 3.88231H48.2735V7.62111H53.0805C52.9493 7.99591 52.8182 8.46451 52.6869 9.02671C52.5745 9.57021 52.5183 10.0387 52.5183 10.4322H48.2735V15.9701C48.2735 16.8322 48.3391 17.4225 48.4703 17.7411C48.6015 18.0598 48.9108 18.219 49.3979 18.219C49.7166 18.219 50.0633 18.1066 50.438 17.8817C50.8316 17.6568 51.2065 17.3851 51.5625 17.0665C51.9373 16.7291 52.2466 16.4105 52.4902 16.1107V16.9821L52.7713 19.7089C52.4339 20.0087 51.8436 20.3086 51.0003 20.6085C50.1569 20.9083 49.1449 21.0582 47.9643 21.0582ZM53.4633 20.7771C53.5946 20.7771 53.7163 20.646 53.8287 20.3836C53.96 20.1212 54.0255 19.6902 54.0255 19.0905V9.58891C54.0255 8.98921 53.96 8.56751 53.8287 8.32391C53.7163 8.06151 53.5946 7.92101 53.4633 7.90221C54.2879 7.90221 55.1313 7.84601 55.9933 7.73361C56.8554 7.60241 57.5301 7.47121 58.0173 7.34001V8.46451L57.9611 8.94231L58.0173 8.99861C58.1486 8.79241 58.3546 8.56751 58.6357 8.32391C58.9357 8.06151 59.3104 7.83661 59.7602 7.64921C60.2288 7.44311 60.7722 7.34001 61.3906 7.34001C62.309 7.34001 63.1242 7.47121 63.8363 7.73361C64.5485 7.97721 65.0545 8.23021 65.3543 8.49261L64.511 12.2595V13.1028C64.2298 12.7092 63.8457 12.3063 63.3584 11.894C62.8899 11.4817 62.3652 11.135 61.7842 10.8539C61.222 10.5728 60.641 10.4322 60.0413 10.4322C59.3666 10.4322 58.8606 10.6759 58.5233 11.1631C58.186 11.6504 58.0173 12.4187 58.0173 13.4682V19.0905C58.0173 19.6902 58.0735 20.1212 58.186 20.3836C58.3172 20.646 58.4484 20.7771 58.5795 20.7771H53.4633ZM70.612 21.0582C68.9254 21.0582 67.576 20.7303 66.564 20.0743C65.5707 19.3997 65.0742 18.322 65.0742 16.8416C65.0742 15.8109 65.3364 14.9768 65.8613 14.3397C66.386 13.7025 67.0982 13.2339 67.9977 12.9341C68.916 12.6155 69.9561 12.4562 71.118 12.4562C72.4112 12.4562 73.4232 12.6062 74.154 12.906C74.8849 13.2058 75.344 13.412 75.5315 13.5245C75.5315 12.3625 75.3253 11.5098 74.913 10.9663C74.5007 10.4229 73.7043 10.1511 72.5236 10.1511C71.3803 10.1511 70.3683 10.2636 69.4876 10.4885C68.6067 10.7133 67.8853 10.9757 67.323 11.2756C66.7795 11.5754 66.4047 11.8284 66.1986 12.0346V11.1912L65.9175 8.43631C66.0486 8.36141 66.3954 8.23961 66.9576 8.07091C67.5198 7.90221 68.2881 7.74291 69.2627 7.59301C70.2372 7.42431 71.3992 7.34001 72.7485 7.34001C74.6038 7.34001 76.0187 7.61171 76.9933 8.15521C77.9677 8.68001 78.633 9.43901 78.9892 10.4322C79.3639 11.4255 79.5514 12.6249 79.5514 14.0305V19.0905C79.5514 19.6152 79.6076 19.9994 79.72 20.243C79.8512 20.4679 79.9823 20.646 80.1136 20.7771H75.5596V20.1868L75.6158 19.6527L75.5596 19.5965C75.2597 19.9151 74.6882 20.243 73.8448 20.5803C73.0202 20.899 71.9426 21.0582 70.612 21.0582ZM71.9333 18.219C73.0951 18.219 73.9854 18.0879 74.6038 17.8255C75.241 17.5443 75.5596 17.1883 75.5596 16.7572C75.5596 16.3262 75.2316 15.9701 74.5757 15.689C73.9384 15.4079 73.067 15.2673 71.9614 15.2673C70.8932 15.2673 70.1342 15.4173 69.6844 15.7171C69.2533 16.0169 69.0378 16.3918 69.0378 16.8416C69.0378 17.4038 69.2908 17.7786 69.7968 17.966C70.3028 18.1347 71.0149 18.219 71.9333 18.219ZM81.3021 20.7771C81.4334 20.7771 81.5551 20.646 81.6675 20.3836C81.7988 20.1212 81.8643 19.6902 81.8643 19.0905V9.58891C81.8643 8.98921 81.7988 8.56751 81.6675 8.32391C81.5551 8.06151 81.4334 7.92101 81.3021 7.90221C82.1267 7.90221 82.9701 7.84601 83.8321 7.73361C84.6942 7.60241 85.3692 7.47121 85.8562 7.34001V9.05481L85.8002 9.42021L85.8562 9.47651C85.9122 9.34531 86.0902 9.11101 86.3902 8.77371C86.6902 8.43631 87.1212 8.11771 87.6832 7.81791C88.2452 7.49931 88.9392 7.34001 89.7632 7.34001C91.5062 7.34001 92.8372 7.83661 93.7552 8.82991C94.6922 9.82321 95.1612 11.3786 95.1612 13.4963V19.0905C95.1612 19.6902 95.2172 20.1212 95.3292 20.3836C95.4612 20.646 95.5922 20.7771 95.7232 20.7771H90.6072C90.7382 20.7771 90.8602 20.646 90.9722 20.3836C91.1032 20.1212 91.1692 19.6902 91.1692 19.0905V13.5807C91.1692 12.25 90.9632 11.3505 90.5502 10.882C90.1382 10.3947 89.6132 10.1511 88.9762 10.1511C88.1702 10.1511 87.4492 10.4416 86.8122 11.0226C86.1752 11.5848 85.8562 12.5219 85.8562 13.8337V19.0905C85.8562 19.6902 85.9122 20.1212 86.0252 20.3836C86.1562 20.646 86.2872 20.7771 86.4182 20.7771H81.3021ZM103.952 21.0582C102.284 21.0582 100.878 20.9645 99.7352 20.7771C98.5922 20.5898 97.8052 20.4023 97.3742 20.2149V19.3716L96.7832 16.6167C97.2712 16.9727 98.1802 17.3289 99.5102 17.6849C100.841 18.0409 102.471 18.219 104.402 18.219C105.282 18.219 105.891 18.1347 106.229 17.966C106.585 17.7973 106.763 17.5068 106.763 17.0946C106.763 16.7759 106.641 16.5323 106.397 16.3637C106.173 16.195 105.76 16.0639 105.161 15.9701C104.561 15.8577 103.689 15.7265 102.546 15.5766C101.103 15.3892 99.9602 15.1268 99.1172 14.7895C98.2732 14.4334 97.6742 13.9836 97.3182 13.4401C96.9802 12.8779 96.8122 12.1939 96.8122 11.388C96.8122 10.6384 96.9902 9.96371 97.3462 9.36401C97.7202 8.74561 98.3582 8.25831 99.2572 7.90221C100.176 7.52741 101.45 7.34001 103.08 7.34001C104.617 7.34001 105.966 7.43371 107.128 7.62111C108.29 7.80851 109.124 7.99591 109.63 8.18331V9.02671L110.192 11.5005C109.761 11.2193 108.918 10.9289 107.662 10.629C106.407 10.3292 104.814 10.1792 102.884 10.1792C102.134 10.1792 101.6 10.2542 101.281 10.4041C100.963 10.5541 100.803 10.8164 100.803 11.1912C100.803 11.4349 100.906 11.641 101.113 11.8097C101.319 11.9596 101.722 12.1002 102.321 12.2313C102.94 12.3625 103.858 12.5125 105.076 12.6811C106.669 12.8873 107.869 13.1777 108.674 13.5526C109.48 13.9086 110.024 14.3584 110.305 14.9019C110.586 15.4266 110.727 16.0639 110.727 16.8135C110.727 18.2565 110.183 19.3248 109.096 20.0181C108.009 20.7115 106.294 21.0582 103.952 21.0582ZM112.37 20.7771C112.501 20.7771 112.623 20.646 112.735 20.3836C112.866 20.1212 112.932 19.6902 112.932 19.0905V10.4322H110.402V7.62111H113.213L113.241 7.56491C113.185 7.47121 113.073 7.16201 112.904 6.63721C112.735 6.09371 112.651 5.45661 112.651 4.72571C112.651 3.24521 113.073 2.17691 113.916 1.52101C114.778 0.865108 115.949 0.537109 117.43 0.537109C118.629 0.537109 119.688 0.60271 120.606 0.73391C121.525 0.84631 122.19 0.968208 122.603 1.09931V1.97081L123.165 5.03491C122.827 4.79131 122.386 4.54761 121.844 4.30401C121.318 4.04161 120.756 3.82611 120.157 3.65751C119.557 3.47011 118.957 3.37631 118.357 3.37631C117.758 3.37631 117.327 3.51691 117.064 3.79801C116.821 4.07911 116.699 4.49141 116.699 5.03491V6.77781C116.699 7.19011 116.736 7.43371 116.811 7.50871C116.886 7.58361 117.139 7.62111 117.57 7.62111H121.787C121.656 7.78981 121.525 8.11771 121.393 8.60501C121.281 9.07351 121.225 9.68261 121.225 10.4322H116.98V19.0905C116.98 19.6902 117.036 20.1212 117.149 20.3836C117.28 20.646 117.411 20.7771 117.542 20.7771H112.37ZM128.693 21.0582C126.725 21.0582 125.179 20.7865 124.055 20.243C122.949 19.6995 122.171 18.9218 121.721 17.9098C121.272 16.8791 121.047 15.6515 121.047 14.2272C121.047 12.1095 121.637 10.4322 122.818 9.19531C123.998 7.95851 125.807 7.34001 128.243 7.34001C129.667 7.34001 130.82 7.53681 131.701 7.93031C132.6 8.32391 133.285 8.84861 133.753 9.50461C134.221 10.1605 134.54 10.8914 134.709 11.6972C134.896 12.4843 134.99 13.2809 134.99 14.0867V15.4079C134.99 15.3517 134.727 15.2955 134.203 15.2392C133.697 15.1643 132.835 15.1268 131.616 15.1268H125.095C125.095 16.1575 125.404 16.9353 126.022 17.46C126.659 17.966 127.691 18.219 129.115 18.219C130.314 18.219 131.382 18.0785 132.319 17.7973C133.275 17.4975 133.968 17.2164 134.4 16.954V17.7973L134.681 19.9338C134.325 20.1774 133.641 20.4304 132.629 20.6928C131.617 20.9364 130.305 21.0582 128.693 21.0582ZM126.135 12.7092H130.998C130.998 12.297 130.904 11.894 130.717 11.5005C130.548 11.1069 130.267 10.7883 129.874 10.5447C129.48 10.2823 128.936 10.1511 128.243 10.1511C127.213 10.1511 126.472 10.3666 126.022 10.7977C125.573 11.2287 125.348 11.6785 125.348 12.147C125.348 12.3344 125.404 12.4749 125.516 12.5687C125.629 12.6624 125.835 12.7092 126.135 12.7092ZM136.238 20.7771C136.37 20.7771 136.491 20.646 136.603 20.3836C136.735 20.1212 136.8 19.6902 136.8 19.0905V9.58891C136.8 8.98921 136.735 8.56751 136.603 8.32391C136.491 8.06151 136.37 7.92101 136.238 7.90221C137.063 7.90221 137.906 7.84601 138.768 7.73361C139.631 7.60241 140.305 7.47121 140.792 7.34001V8.46451L140.735 8.94231L140.792 8.99861C140.924 8.79241 141.129 8.56751 141.41 8.32391C141.711 8.06151 142.085 7.83661 142.535 7.64921C143.004 7.44311 143.547 7.34001 144.165 7.34001C145.084 7.34001 145.899 7.47121 146.611 7.73361C147.323 7.97721 147.829 8.23021 148.129 8.49261L147.285 12.2595V13.1028C147.004 12.7092 146.62 12.3063 146.133 11.894C145.665 11.4817 145.14 11.135 144.559 10.8539C143.996 10.5728 143.416 10.4322 142.816 10.4322C142.141 10.4322 141.635 10.6759 141.298 11.1631C140.96 11.6504 140.792 12.4187 140.792 13.4682V19.0905C140.792 19.6902 140.848 20.1212 140.96 20.3836C141.092 20.646 141.223 20.7771 141.354 20.7771H136.238Z" fill="white"/>
</svg>
