<svg width="124" height="28" viewBox="0 0 124 28" fill="none" xmlns="http://www.w3.org/2000/svg">
<path d="M29.8203 16.6872L33.0713 15.7994C33.125 16.5152 33.4596 17.1807 34.0024 17.6512C34.638 18.1785 35.4497 18.4463 36.2748 18.4008C36.8897 18.4358 37.4993 18.2695 38.0111 17.9274C38.2034 17.7993 38.3613 17.626 38.4709 17.4228C38.5805 17.2195 38.6384 16.9925 38.6396 16.7616C38.6405 16.5702 38.5992 16.381 38.5185 16.2074C38.4378 16.0338 38.3197 15.8801 38.1727 15.7573C37.7722 15.4406 37.2937 15.2374 36.7874 15.169L34.4531 14.6453C33.2527 14.4243 32.1547 13.8253 31.3197 12.9362C30.5976 12.1286 30.2062 11.0792 30.2235 9.99674C30.2229 9.32094 30.3736 8.65354 30.6643 8.04334C30.9551 7.43315 31.3787 6.89555 31.9042 6.46985C33.0416 5.48225 34.5088 4.95715 36.0153 4.99835C36.7808 4.98965 37.5434 5.09515 38.2778 5.31125C38.8678 5.47765 39.4269 5.73835 39.9333 6.08335C40.3503 6.38295 40.7195 6.74355 41.0287 7.15315C41.3017 7.50265 41.5291 7.88535 41.7056 8.29205C41.8452 8.62795 41.9444 8.97925 42.001 9.33845L38.9116 10.2262C38.8772 9.97134 38.8027 9.72355 38.6908 9.49185C38.5624 9.22585 38.3984 8.97844 38.2033 8.75654C37.9615 8.48994 37.6591 8.28545 37.3216 8.16015C36.9051 8.00005 36.4615 7.92205 36.0153 7.93065C35.4275 7.90915 34.8513 8.09695 34.3893 8.46065C34.1911 8.60655 34.0295 8.79645 33.9173 9.01535C33.8051 9.23434 33.7454 9.47635 33.7429 9.72235C33.7406 9.91685 33.7781 10.1097 33.8531 10.2892C33.9281 10.4687 34.0391 10.631 34.1792 10.766C34.5007 11.0719 34.9078 11.2727 35.3464 11.3418L37.7247 11.8305C38.9658 12.0339 40.1138 12.6151 41.0116 13.4948C41.7617 14.2717 42.1727 15.3139 42.1545 16.393C42.1544 17.0431 42.0278 17.6869 41.7819 18.2888C41.5269 18.9105 41.164 19.4824 40.7099 19.9782C40.1948 20.5248 39.5634 20.949 38.8623 21.2193C38.0472 21.5433 37.1762 21.7039 36.299 21.6918C35.313 21.7073 34.3331 21.535 33.4116 21.1843C32.6506 20.906 31.9624 20.4593 31.3987 19.8778C30.9477 19.4011 30.5701 18.8601 30.2782 18.2726C30.0348 17.7746 29.8798 17.2382 29.8203 16.6872Z" fill="white"/>
<path d="M42.1641 8.78622V5.49162H42.9721C43.306 5.51562 43.6412 5.46712 43.9546 5.34952C44.268 5.23182 44.5521 5.04782 44.7875 4.81002C45.2132 4.31202 45.4331 3.67072 45.4025 3.01662V0.636719H48.7963V5.49162H52.0625V8.78622H48.7963V16.1179C48.7709 16.3899 48.8004 16.6643 48.8831 16.9247C48.9657 17.1852 49.0999 17.4264 49.2775 17.6342C49.7056 17.9831 50.2534 18.1511 50.8038 18.1023C51.2382 18.1032 51.6716 18.0606 52.0975 17.975V21.0526C51.3573 21.3152 50.5731 21.4321 49.7884 21.3969C49.1567 21.4317 48.5245 21.3391 47.9294 21.1246C47.3343 20.9101 46.7885 20.5783 46.3246 20.1487C45.8894 19.6911 45.5526 19.1493 45.335 18.5568C45.1175 17.9643 45.0237 17.3335 45.0596 16.7034V8.78622H42.1641Z" fill="white"/>
<path d="M52.9925 16.9917C52.9654 16.3886 53.0683 15.7867 53.2943 15.2268C53.5203 14.6669 53.8641 14.162 54.3024 13.7464C55.2656 12.896 56.4667 12.3611 57.7437 12.2139L61.7839 11.5987C62.562 11.5007 62.9511 11.147 62.9511 10.5378C62.9589 10.2299 62.896 9.92436 62.7671 9.64446C62.6382 9.36466 62.4468 9.11806 62.2077 8.92366C61.5608 8.45946 60.771 8.23716 59.9766 8.29596C59.1462 8.25336 58.3317 8.53536 57.706 9.08246C57.1418 9.60516 56.7945 10.3204 56.7328 11.0866L53.3211 10.3307C53.3921 9.59966 53.6069 8.88976 53.953 8.24186C54.2992 7.59386 54.7701 7.02046 55.3385 6.55456C56.6237 5.48876 58.2581 4.93556 59.9272 5.00136C60.9844 4.98206 62.0368 5.14686 63.0373 5.48836C63.8423 5.75686 64.57 6.21656 65.1579 6.82806C65.6699 7.38086 66.0634 8.03236 66.3143 8.74256C66.5704 9.48645 66.6973 10.2687 66.6896 11.0553V18.6856C66.6765 19.5304 66.745 20.3746 66.8943 21.2063H63.3497C63.1973 20.5503 63.1369 19.8764 63.1701 19.2039C62.6977 19.9358 62.054 20.5418 61.2946 20.9696C60.3848 21.4765 59.3543 21.7272 58.313 21.695C56.8974 21.7574 55.5143 21.2603 54.4631 20.3114C53.9954 19.8946 53.6222 19.3828 53.3685 18.8103C53.1149 18.2377 52.9867 17.6177 52.9925 16.9917ZM56.7328 16.7226C56.7281 16.9917 56.7798 17.2587 56.8846 17.5066C56.9895 17.7545 57.1451 17.9777 57.3415 18.1619C57.5697 18.3665 57.8361 18.524 58.1255 18.6252C58.4149 18.7265 58.7215 18.7696 59.0276 18.7519C59.5363 18.7577 60.0428 18.6858 60.5297 18.5385C60.9817 18.3977 61.4033 18.1732 61.7722 17.8767C62.1708 17.5426 62.4715 17.1069 62.6422 16.6159C62.861 15.9959 62.9656 15.3416 62.9511 14.6844V13.975L58.8489 14.6028C58.2813 14.6763 57.7476 14.9141 57.3137 15.287C57.1189 15.4697 56.9661 15.6924 56.8658 15.9398C56.7656 16.1872 56.7202 16.4533 56.7328 16.7199V16.7226Z" fill="white"/>
<path d="M69.2188 21.2069V5.49066H72.8338V7.44916C73.2808 6.66886 73.9598 6.04686 74.7768 5.66916C75.6158 5.25216 76.5398 5.03486 77.4768 5.03426C78.4788 5.01606 79.4678 5.25566 80.3498 5.73006C81.1828 6.18296 81.8448 6.89476 82.2348 7.75756C82.7518 6.87976 83.5018 6.16116 84.4008 5.68076C85.2998 5.20036 86.3138 4.97666 87.3318 5.03426C88.0248 5.02906 88.7138 5.14906 89.3638 5.38846C90.0028 5.62786 90.5898 5.98636 91.0948 6.44476C91.6508 6.96546 92.0748 7.61106 92.3308 8.32796C92.6478 9.18556 92.8018 10.0944 92.7868 11.0083V21.2069H89.2678V11.576C89.3108 10.7238 89.0428 9.88486 88.5128 9.21566C88.2258 8.90756 87.8729 8.66776 87.4809 8.51406C87.0879 8.36046 86.6658 8.29686 86.2458 8.32796C85.8039 8.31286 85.3638 8.39516 84.9568 8.56896C84.5498 8.74286 84.1868 9.00416 83.8928 9.33406C83.2828 10.0194 82.9578 10.9122 82.9868 11.8288V21.2069H79.2468V11.576C79.2868 10.7278 79.0218 9.89326 78.4988 9.22376C78.2128 8.91176 77.8588 8.66896 77.4648 8.51356C77.0708 8.35816 76.6468 8.29446 76.2248 8.32706C75.7808 8.30886 75.3398 8.38776 74.9298 8.55816C74.5208 8.72856 74.1538 8.98636 73.8548 9.31346C73.2468 10.0083 72.9288 10.9094 72.9648 11.8315V21.2095L69.2188 21.2069Z" fill="white"/>
<path d="M95.4805 27.3416V5.49093H99.1265V7.59653C99.5865 6.83063 100.259 6.21473 101.063 5.82363C102.009 5.34563 103.057 5.10703 104.116 5.12873C105.12 5.08043 106.122 5.26163 107.046 5.65853C107.969 6.05533 108.79 6.65743 109.445 7.41893C110.787 9.08773 111.476 11.1865 111.385 13.3248C111.47 15.4895 110.748 17.6088 109.358 19.272C108.696 20.0377 107.869 20.6448 106.94 21.0483C106.01 21.4519 105.002 21.6416 103.989 21.6034C102.998 21.6225 102.015 21.4145 101.116 20.9955C100.36 20.6533 99.7065 20.1202 99.2185 19.4486V27.3398L95.4805 27.3416ZM99.1895 13.3275C99.1275 14.6346 99.5475 15.919 100.37 16.9369C100.741 17.3799 101.206 17.7335 101.733 17.9712C102.259 18.2088 102.833 18.3242 103.41 18.3089C103.989 18.3253 104.564 18.2112 105.093 17.975C105.621 17.7389 106.089 17.3868 106.463 16.9449C107.289 15.9252 107.709 14.6374 107.644 13.3275C107.706 12.0391 107.288 10.7736 106.471 9.77463C106.094 9.33553 105.622 8.98673 105.092 8.75393C104.562 8.52113 103.986 8.41023 103.407 8.42953C102.831 8.41363 102.258 8.52723 101.732 8.76203C101.206 8.99693 100.739 9.34703 100.367 9.78633C99.5505 10.7798 99.1305 12.0404 99.1895 13.3248V13.3275Z" fill="white"/>
<path d="M111.656 16.6872L114.907 15.7994C114.961 16.5152 115.296 17.1807 115.838 17.6512C116.474 18.1786 117.286 18.4464 118.112 18.4008C118.726 18.4356 119.336 18.2694 119.847 17.9274C120.04 17.7993 120.197 17.626 120.307 17.4228C120.417 17.2195 120.475 16.9925 120.476 16.7616C120.477 16.5702 120.435 16.381 120.355 16.2074C120.274 16.0338 120.156 15.8801 120.009 15.7573C119.609 15.4406 119.13 15.2373 118.624 15.169L116.29 14.6453C115.09 14.4245 113.992 13.8255 113.158 12.9362C112.435 12.1291 112.043 11.0794 112.06 9.99674C112.06 9.32094 112.211 8.65354 112.501 8.04334C112.792 7.43315 113.216 6.89555 113.741 6.46985C114.879 5.48225 116.346 4.95715 117.852 4.99835C118.618 4.98965 119.38 5.09515 120.115 5.31125C120.705 5.47745 121.264 5.73825 121.77 6.08335C122.187 6.38315 122.557 6.74375 122.867 7.15315C123.139 7.50285 123.366 7.88555 123.543 8.29205C123.682 8.62795 123.781 8.97925 123.838 9.33845L120.749 10.2262C120.715 9.97144 120.64 9.72355 120.529 9.49185C120.4 9.22595 120.235 8.97864 120.04 8.75654C119.798 8.48994 119.496 8.28545 119.159 8.16015C118.742 7.99995 118.298 7.92195 117.852 7.93065C117.265 7.90915 116.689 8.09705 116.227 8.46065C116.029 8.60635 115.867 8.79625 115.755 9.01525C115.642 9.23415 115.582 9.47625 115.58 9.72235C115.578 9.91685 115.615 10.1097 115.69 10.2892C115.765 10.4687 115.876 10.631 116.016 10.766C116.338 11.0717 116.745 11.2725 117.183 11.3418L119.561 11.8305C120.802 12.0337 121.951 12.615 122.849 13.4948C123.598 14.272 124.009 15.3141 123.991 16.393C123.991 17.0431 123.864 17.6871 123.618 18.2888C123.363 18.9107 123 19.4827 122.546 19.9782C122.031 20.5249 121.4 20.949 120.698 21.2193C119.884 21.5433 119.013 21.7038 118.136 21.6918C117.15 21.7074 116.169 21.5351 115.248 21.1843C114.487 20.9058 113.799 20.4591 113.236 19.8778C112.785 19.4011 112.407 18.8601 112.115 18.2726C111.872 17.7745 111.717 17.2381 111.656 16.6872Z" fill="white"/>
<path d="M2.65602 5.20384C2.67232 5.16094 2.68402 5.11654 2.69102 5.07114C2.80452 4.26464 3.22002 3.53114 3.85372 3.01854C4.30252 2.66124 4.83933 2.43104 5.40783 2.35224C5.44543 2.34664 5.48242 2.33734 5.51822 2.32444C5.62982 2.31294 5.74192 2.30724 5.85402 2.30744C6.62822 2.30294 7.37722 2.58144 7.95992 3.09054C8.54262 3.59974 8.91862 4.30424 9.01702 5.07114C9.02752 5.19274 9.08372 5.30594 9.17432 5.38774C9.26492 5.46964 9.38322 5.51414 9.50542 5.51234H9.62132C9.74362 5.51454 9.86212 5.47024 9.95282 5.38824C10.0436 5.30634 10.0996 5.19294 10.1097 5.07114C10.2038 4.30604 10.5757 3.60214 11.1549 3.09274C11.7341 2.58324 12.4803 2.30384 13.252 2.30744C14.0262 2.30294 14.7752 2.58144 15.3579 3.09054C15.9406 3.59974 16.3166 4.30424 16.415 5.07114C16.4254 5.19274 16.4816 5.30594 16.5723 5.38774C16.6629 5.46964 16.7812 5.51414 16.9034 5.51234H16.9932C17.1155 5.51454 17.2341 5.47024 17.3248 5.38824C17.4155 5.30634 17.4716 5.19294 17.4816 5.07114C17.5794 4.30764 17.9524 3.60594 18.5308 3.09724C19.1092 2.58854 19.8533 2.30774 20.624 2.30744C21.4567 2.30734 22.2564 2.63304 22.8514 3.21494C23.4351 3.81044 23.7616 4.61084 23.7609 5.44424C23.761 6.21414 23.4799 6.95774 22.9703 7.53554C22.4607 8.11334 21.7577 8.48564 20.993 8.58274C20.8711 8.59274 20.7575 8.64874 20.6755 8.73934C20.5934 8.83004 20.549 8.94844 20.5512 9.07064V9.16024C20.5494 9.28234 20.594 9.40044 20.676 9.49104C20.758 9.58154 20.8712 9.63764 20.993 9.64804C21.7609 9.74594 22.4665 10.1212 22.9764 10.7031C23.4864 11.2849 23.7654 12.0331 23.7609 12.8063C23.7645 13.5773 23.4846 14.3227 22.9744 14.9012C22.4642 15.4798 21.7591 15.8511 20.993 15.9449C20.8711 15.9549 20.7575 16.0109 20.6755 16.1015C20.5934 16.1921 20.549 16.3106 20.5512 16.4327V16.5493C20.5496 16.6713 20.5943 16.7894 20.6762 16.8798C20.7582 16.9703 20.8713 17.0265 20.993 17.0371C21.7609 17.135 22.4665 17.5103 22.9764 18.0922C23.4864 18.674 23.7654 19.4221 23.7609 20.1954C23.7609 20.2994 23.7556 20.4017 23.7457 20.503C23.7291 20.5459 23.717 20.5903 23.7098 20.6357C23.597 21.4423 23.1818 22.176 22.548 22.6883C22.0988 23.0457 21.5617 23.2758 20.993 23.3546C20.9558 23.3605 20.9192 23.3695 20.8835 23.3815C20.7716 23.3934 20.6592 23.3994 20.5468 23.3994C19.7727 23.4039 19.0238 23.1253 18.4412 22.6162C17.8587 22.1071 17.4829 21.4026 17.3847 20.6357C17.3742 20.5141 17.318 20.401 17.2274 20.3191C17.1368 20.2372 17.0184 20.1927 16.8962 20.1945H16.7795C16.6572 20.1923 16.5387 20.2367 16.4479 20.3186C16.3572 20.4006 16.3011 20.5139 16.2911 20.6357C16.1972 21.4008 15.8253 22.105 15.2461 22.6144C14.6669 23.1239 13.9205 23.4032 13.1488 23.3994C12.3746 23.404 11.6256 23.1254 11.0429 22.6163C10.4602 22.1071 10.0842 21.4027 9.98582 20.6357C9.97532 20.5141 9.91913 20.401 9.82853 20.3191C9.73793 20.2372 9.61952 20.1927 9.49743 20.1945H9.40762C9.28532 20.1923 9.16672 20.2367 9.07602 20.3186C8.98532 20.4006 8.92922 20.5139 8.91912 20.6357C8.82172 21.3994 8.44882 22.1013 7.87042 22.6101C7.29192 23.1189 6.54763 23.3995 5.77682 23.3994C4.94232 23.4006 4.14062 23.0747 3.54392 22.4919C2.96062 21.8962 2.63442 21.0959 2.63532 20.2627C2.63532 19.4928 2.91622 18.7494 3.42562 18.1716C3.93502 17.5939 4.63782 17.2214 5.40242 17.1241C5.52452 17.1143 5.63822 17.0584 5.72052 16.9678C5.80272 16.8771 5.84732 16.7586 5.84502 16.6363V16.5466C5.84662 16.4245 5.80182 16.3063 5.71972 16.2158C5.63762 16.1253 5.52422 16.0692 5.40242 16.0588C4.63462 15.9607 3.92933 15.5853 3.41953 15.0035C2.90983 14.4217 2.63082 13.6736 2.63532 12.9005C2.63162 12.1296 2.91132 11.3842 3.42132 10.8057C3.93142 10.2271 4.63632 9.85574 5.40242 9.76194C5.52452 9.75214 5.63822 9.69624 5.72052 9.60564C5.80272 9.51504 5.84732 9.39644 5.84502 9.27414V9.15754C5.84662 9.03544 5.80182 8.91724 5.71972 8.82674C5.63762 8.73624 5.52422 8.68014 5.40242 8.66974C4.63462 8.57164 3.92933 8.19624 3.41953 7.61444C2.90983 7.03264 2.63082 6.28454 2.63532 5.51144C2.63532 5.40744 2.64072 5.30524 2.65062 5.20384H2.65602ZM5.41052 1.32734C5.37162 1.31724 5.33202 1.31034 5.29202 1.30664C4.23352 1.45404 3.26972 1.99494 2.59322 2.82124C2.08222 3.42924 1.75362 4.16904 1.64512 4.95544C1.64772 4.98964 1.65312 5.02354 1.66122 5.05684C1.64752 5.19234 1.64062 5.32854 1.64062 5.46484C1.64713 6.22094 1.85522 6.96164 2.24352 7.61074C2.63192 8.25974 3.18652 8.79374 3.85012 9.15754C3.18632 9.52154 2.63172 10.0556 2.24332 10.7048C1.85502 11.354 1.64693 12.0949 1.64062 12.8512C1.64713 13.6073 1.85522 14.348 2.24352 14.997C2.63192 15.6461 3.18652 16.1801 3.85012 16.5439C3.18242 16.9032 2.62453 17.4362 2.23553 18.0865C1.84653 18.7367 1.64093 19.48 1.64062 20.2375C1.64062 20.355 1.64592 20.4707 1.65492 20.5864C1.64212 20.6398 1.63792 20.6949 1.64242 20.7496C1.76572 21.6728 2.19122 22.5294 2.85262 23.186C3.51002 23.8466 4.36762 24.2716 5.29202 24.3948C5.34712 24.3993 5.40253 24.3951 5.45633 24.3823C5.57123 24.3921 5.68792 24.3966 5.80552 24.3966C6.56382 24.3963 7.30792 24.191 7.95892 23.8025C8.60982 23.4139 9.14332 22.8566 9.50272 22.1897C9.86692 22.8527 10.4014 23.4067 11.0513 23.7946C11.7012 24.1825 12.4429 24.3903 13.1999 24.3966C13.9571 24.3905 14.699 24.1827 15.3491 23.7948C15.9991 23.4069 16.5338 22.8528 16.898 22.1897C17.2622 22.8527 17.7967 23.4067 18.4466 23.7946C19.0965 24.1825 19.8382 24.3903 20.5952 24.3966C20.729 24.3966 20.8646 24.3903 20.9921 24.3778C21.0312 24.388 21.0712 24.3946 21.1115 24.3975C22.1682 24.25 23.1302 23.7094 23.8049 22.8838C24.3162 22.2759 24.6452 21.5361 24.7539 20.7496C24.7512 20.7154 24.7458 20.6816 24.7378 20.6483C24.7512 20.5138 24.7575 20.3793 24.7575 20.2403C24.7512 19.4842 24.5433 18.7435 24.155 18.0945C23.7668 17.4454 23.2124 16.9114 22.5489 16.5475C23.2125 16.1835 23.767 15.6494 24.1553 15.0002C24.5435 14.3509 24.7514 13.6101 24.7575 12.8539C24.7512 12.0978 24.5433 11.3571 24.155 10.7081C23.7668 10.059 23.2124 9.52504 22.5489 9.16114C23.2164 8.80174 23.7742 8.26874 24.163 7.61844C24.5518 6.96814 24.7572 6.22494 24.7575 5.46754C24.7575 5.35004 24.753 5.23344 24.744 5.11864C24.756 5.06514 24.7602 5.01024 24.7566 4.95544C24.6336 4.03194 24.2077 3.17514 23.5455 2.51904C22.8887 1.85814 22.0312 1.43304 21.107 1.31024C21.0519 1.30574 20.9964 1.30994 20.9427 1.32284C20.8278 1.31294 20.711 1.30844 20.5934 1.30844C19.8351 1.30874 19.0911 1.51404 18.4401 1.90264C17.7892 2.29114 17.2557 2.84844 16.8962 3.51534C16.532 2.85224 15.9973 2.29814 15.3473 1.91024C14.6972 1.52234 13.9553 1.31464 13.1981 1.30844C12.4411 1.31474 11.6994 1.52254 11.0495 1.91044C10.3996 2.29834 9.86512 2.85234 9.50092 3.51534C9.13672 2.85224 8.60202 2.29814 7.95202 1.91024C7.30192 1.52234 6.56003 1.31464 5.80283 1.30844C5.66913 1.30844 5.53352 1.31474 5.40602 1.32734H5.41052Z" fill="white"/>
<path d="M21.1381 25.1854L21.0555 25.1791C21.0214 25.1791 20.9864 25.1719 20.9523 25.1675C20.8356 25.1755 20.7171 25.18 20.5994 25.18C19.6886 25.1787 18.7959 24.9257 18.02 24.4492C17.6069 24.1967 17.2318 23.8869 16.9058 23.5291C16.4366 24.045 15.8654 24.4581 15.2283 24.7422C14.5911 25.0264 13.9019 25.1754 13.2041 25.18C12.2933 25.1787 11.4006 24.9257 10.6247 24.4492C10.2129 24.1971 9.83866 23.8883 9.51316 23.5318C9.19036 23.889 8.81786 24.1979 8.40706 24.4492C7.62526 24.9271 6.72636 25.18 5.80966 25.18C5.70556 25.18 5.60056 25.18 5.49636 25.1702C5.40996 25.1809 5.32276 25.1827 5.23596 25.1755H5.21356H5.19116C4.64016 25.1017 4.10526 24.9372 3.60826 24.6886C3.12516 24.4463 2.68466 24.1275 2.30376 23.7444C1.92016 23.3642 1.60116 22.9241 1.35926 22.4414C1.10956 21.9452 0.944462 21.4109 0.870862 20.8605V20.838V20.8156C0.864562 20.7289 0.866364 20.6419 0.876264 20.5556C0.869964 20.4516 0.867263 20.3466 0.867263 20.2435C0.866863 19.328 1.11976 18.4302 1.59806 17.6492C1.84936 17.2382 2.15906 16.8658 2.51736 16.5436C2.15976 16.2189 1.85026 15.8451 1.59806 15.4334C1.12126 14.6584 0.868263 13.7668 0.867263 12.8571C0.871763 12.1603 1.02086 11.4719 1.30526 10.8355C1.58956 10.1992 2.00296 9.62864 2.51916 9.15994C2.16096 8.83434 1.85086 8.45974 1.59806 8.04704C1.12126 7.27204 0.868263 6.38044 0.867263 5.47074C0.867263 5.34614 0.871762 5.22054 0.881562 5.09594C0.877962 5.07084 0.875264 5.04574 0.873464 5.02064L0.867263 4.93814L0.877963 4.85554C1.00606 3.92454 1.39476 3.04864 1.99936 2.32864C2.79916 1.34874 3.94086 0.707937 5.19466 0.535137L5.27726 0.523438L5.36076 0.529739C5.39496 0.529739 5.42906 0.536939 5.46316 0.541439C5.58076 0.533339 5.69926 0.528839 5.81596 0.528839C6.72706 0.530439 7.62006 0.783339 8.39626 1.25974C8.80906 1.51224 9.18396 1.82204 9.50956 2.17974C9.97876 1.66394 10.55 1.25084 11.1872 0.966637C11.8243 0.682537 12.5136 0.533439 13.2113 0.528839C14.1224 0.530439 15.0154 0.783339 15.7916 1.25974C16.2035 1.51184 16.5776 1.82064 16.9031 2.17704C17.2259 1.81994 17.5984 1.51104 18.0092 1.25974C18.7911 0.781739 19.6899 0.528739 20.6066 0.528839C20.7108 0.528839 20.8158 0.528838 20.9191 0.538738C21.0057 0.527938 21.0933 0.526137 21.1803 0.533337H21.2019H21.2243C21.7753 0.607037 22.3102 0.771537 22.8072 1.02024C23.2907 1.26224 23.7316 1.58114 24.1126 1.96454C24.4966 2.34434 24.8157 2.78454 25.0571 3.26744C25.3061 3.76384 25.4709 4.29814 25.5446 4.84844V4.87084V4.89324C25.551 4.97994 25.549 5.06704 25.5383 5.15334C25.5446 5.25734 25.5482 5.36134 25.5482 5.46534C25.5483 6.38094 25.2951 7.27874 24.8165 8.05964C24.5655 8.47064 24.2561 8.84304 23.898 9.16524C24.2556 9.48974 24.5648 9.86364 24.8165 10.2754C25.2936 11.0503 25.5469 11.942 25.5482 12.8517C25.5437 13.5487 25.3945 14.2371 25.11 14.8735C24.8255 15.5099 24.4119 16.0804 23.8953 16.549C24.2536 16.8741 24.5637 17.2485 24.8165 17.6609C25.2934 18.4362 25.5466 19.3281 25.5482 20.2381C25.5482 20.3628 25.5437 20.4883 25.5338 20.6121C25.5338 20.6372 25.5401 20.6632 25.5419 20.6883L25.5482 20.7708L25.5365 20.8533C25.4089 21.7842 25.0205 22.6602 24.4161 23.3803C23.6161 24.3603 22.474 25.0012 21.2198 25.1737L21.1381 25.1854ZM18.1682 20.5439C18.243 21.121 18.527 21.6506 18.9664 22.0326C19.4058 22.4147 19.9702 22.6226 20.5528 22.6171C20.6165 22.6171 20.6794 22.6172 20.7422 22.61C20.7844 22.5992 20.8266 22.5902 20.8697 22.5831H20.893C21.32 22.5233 21.7231 22.3502 22.0602 22.0818C22.5388 21.6955 22.8524 21.1418 22.9374 20.5331V20.5107C22.9462 20.4575 22.9579 20.4048 22.9724 20.3529C22.9724 20.3018 22.9778 20.2498 22.9778 20.1987C22.983 19.6166 22.7747 19.0528 22.3921 18.6138C22.0094 18.1748 21.479 17.891 20.9011 17.816C20.5889 17.7835 20.3 17.6362 20.0905 17.4026C19.8811 17.1691 19.7662 16.8661 19.7681 16.5525V16.436C19.7656 16.129 19.8757 15.8318 20.0777 15.6005C20.2797 15.3692 20.5595 15.2198 20.8643 15.1805H20.8868H20.9101C21.4827 15.1059 22.0084 14.8251 22.3886 14.3909C22.7688 13.9568 22.9773 13.3989 22.9751 12.8221C22.9804 12.2401 22.772 11.6763 22.3894 11.2373C22.0067 10.7983 21.4763 10.5145 20.8984 10.4395C20.5862 10.407 20.2973 10.2596 20.0879 10.0261C19.8784 9.79264 19.7635 9.48964 19.7654 9.17604V9.08644C19.7629 8.77944 19.873 8.48224 20.075 8.25094C20.277 8.01954 20.5568 7.87024 20.8616 7.83094H20.884H20.9074C21.4775 7.75054 21.9998 7.46814 22.3789 7.03514C22.7579 6.60224 22.9686 6.04764 22.9724 5.47254C22.9738 4.84634 22.7299 4.24454 22.2927 3.79564C21.8434 3.35884 21.2408 3.11524 20.6138 3.11684C20.0363 3.11464 19.4778 3.32284 19.0431 3.70254C18.6084 4.08224 18.3273 4.60734 18.2525 5.17934V5.20264V5.22504C18.2133 5.52944 18.0637 5.80894 17.8321 6.01074C17.6005 6.21244 17.3029 6.32254 16.9956 6.31994H16.9058C16.5918 6.32194 16.2883 6.20714 16.0544 5.99794C15.8204 5.78884 15.6727 5.50024 15.6399 5.18824C15.5649 4.61104 15.2807 4.08134 14.8412 3.69914C14.4016 3.31694 13.8372 3.10884 13.2544 3.11414C12.6769 3.11194 12.1185 3.32014 11.6837 3.69994C11.249 4.07964 10.9679 4.60464 10.8932 5.17664V5.19994V5.22234C10.8539 5.52674 10.7043 5.80624 10.4727 6.00804C10.2411 6.20974 9.94346 6.31974 9.63616 6.31724H9.52036C9.20636 6.31924 8.90286 6.20444 8.66896 5.99524C8.43496 5.78614 8.28716 5.49754 8.25446 5.18564C8.17936 4.60834 7.89526 4.07864 7.45576 3.69644C7.01616 3.31434 6.45166 3.10614 5.86896 3.11144C5.80606 3.11144 5.74236 3.11144 5.67946 3.11954C5.63816 3.13034 5.59516 3.13924 5.55206 3.14644H5.52866C5.10166 3.20594 4.69846 3.37904 4.36156 3.64774C3.88236 4.03354 3.56866 4.58744 3.48436 5.19634V5.21874C3.47556 5.27194 3.46386 5.32464 3.44936 5.37664C3.44936 5.42774 3.44486 5.47974 3.44486 5.53084C3.43956 6.11274 3.64776 6.67644 4.03026 7.11544C4.41266 7.55444 4.94286 7.83834 5.52056 7.91344C5.83276 7.94594 6.12176 8.09334 6.33116 8.32684C6.54066 8.56044 6.65556 8.86344 6.65366 9.17694V9.29354C6.65616 9.60034 6.54616 9.89744 6.34436 10.1287C6.14256 10.36 5.86296 10.5095 5.55836 10.5489H5.53496H5.51166C4.93886 10.6234 4.41306 10.9041 4.03286 11.3383C3.65266 11.7726 3.44426 12.3305 3.44666 12.9073C3.44116 13.4892 3.64936 14.0528 4.03186 14.4917C4.41436 14.9306 4.94466 15.2143 5.52236 15.289C5.83466 15.322 6.12346 15.4696 6.33286 15.7032C6.54216 15.9369 6.65716 16.2399 6.65546 16.5534V16.6431C6.65796 16.9499 6.54796 17.247 6.34616 17.4783C6.14436 17.7096 5.86476 17.8591 5.56006 17.8985H5.53676H5.51346C4.94326 17.979 4.42106 18.2614 4.04196 18.6943C3.66286 19.1273 3.45226 19.6818 3.44846 20.257C3.44686 20.8829 3.69086 21.4845 4.12806 21.9329C4.57716 22.3701 5.17996 22.6138 5.80696 22.6118C6.38276 22.6078 6.93786 22.3973 7.37136 22.0187C7.80476 21.6402 8.08756 21.1187 8.16826 20.5493V20.526L8.17276 20.5026C8.21226 20.1984 8.36186 19.9191 8.59346 19.7175C8.82506 19.516 9.12256 19.4061 9.42966 19.4086H9.51946C9.83346 19.4067 10.137 19.5215 10.371 19.7307C10.6049 19.9398 10.7527 20.2284 10.7854 20.5403C10.8605 21.1174 11.1447 21.6471 11.5842 22.0291C12.0238 22.4112 12.5883 22.6191 13.1709 22.6136C13.7485 22.616 14.3071 22.4078 14.7418 22.028C15.1766 21.6483 15.4576 21.1231 15.5322 20.5511V20.5278L15.5367 20.5054C15.5759 20.2009 15.7255 19.9214 15.9571 19.7197C16.1887 19.5179 16.4863 19.4079 16.7936 19.4104H16.9103C17.2232 19.4106 17.5249 19.5265 17.7573 19.7358C17.9896 19.9452 18.136 20.2331 18.1682 20.5439Z" fill="white"/>
<path d="M13.2152 15.9118C12.6481 15.9134 12.0863 15.8027 11.5623 15.5859C11.0383 15.3692 10.5626 15.0508 10.1627 14.6492C9.76055 14.2497 9.44175 13.7746 9.22485 13.2512C9.00785 12.7279 8.89695 12.1667 8.89845 11.6003C8.89845 11.3464 8.99935 11.103 9.17905 10.9234C9.35865 10.7438 9.60235 10.6428 9.85645 10.6426C10.1107 10.6428 10.3543 10.7438 10.534 10.9234C10.7136 11.103 10.8145 11.3464 10.8145 11.6003C10.8154 12.2359 11.0687 12.8451 11.5187 13.2945C11.9688 13.7438 12.5789 13.9966 13.2152 13.9973C13.8516 13.9966 14.4617 13.7438 14.9117 13.2945C15.3618 12.8451 15.615 12.2359 15.616 11.6003C15.6159 11.4746 15.6406 11.3501 15.6886 11.2339C15.7367 11.1177 15.8073 11.0121 15.8962 10.9231C15.9852 10.8342 16.0909 10.7636 16.2071 10.7155C16.3234 10.6674 16.4481 10.6426 16.574 10.6426C16.8281 10.6428 17.0718 10.7438 17.2514 10.9234C17.431 11.103 17.5319 11.3464 17.5319 11.6003C17.5335 12.1667 17.4225 12.7278 17.2055 13.2512C16.9886 13.7745 16.6698 14.2497 16.2678 14.6492C15.8678 15.0508 15.3921 15.3691 14.8681 15.5859C14.3441 15.8026 13.7824 15.9134 13.2152 15.9118Z" fill="white"/>
</svg>
