<svg width="618" height="596" viewBox="0 0 618 596" fill="none" xmlns="http://www.w3.org/2000/svg">
<g clip-path="url(#clip0_1_2728)">
<path d="M116.457 438.674C40.4943 481.449 83.2695 586.913 108.345 591.338C127.658 594.746 191.148 592.792 221.92 591.338L460.134 415.074L320.745 395.899C277.97 395.899 177.228 404.454 116.457 438.674Z" fill="white"/>
<path d="M221.92 591.338C220.822 591.392 223.111 591.281 221.92 591.338ZM221.92 591.338C191.148 592.792 127.658 594.746 108.345 591.338C83.2695 586.913 40.4943 481.449 116.457 438.674C177.228 404.454 277.97 395.899 320.745 395.899L460.134 415.074L221.92 591.338Z" stroke="black" stroke-width="2.91102"/>
<path d="M137.105 453.152C189.616 443.122 232.244 473.965 246.994 490.64C249.457 487.195 252.121 483.789 254.998 480.44C250.464 460.527 162.181 439.14 137.105 453.152Z" fill="#000001"/>
<path d="M216.596 593.52C218.46 593.439 220.239 593.358 221.92 593.278L416.486 449.312C407.915 446.413 385.823 437.494 366.028 425.009C231.733 440.923 210.45 543.98 216.596 593.52Z" fill="#0E1729"/>
<path d="M438.745 593.277C535.357 562.302 460.132 422.176 460.132 417.014L423.993 412.042C239.912 423.405 212.576 537.6 221.918 593.277L252.984 849.191H333.037L339.919 593.277H438.745Z" fill="white" stroke="black" stroke-width="2.91102"/>
<path d="M320.745 540.178C332.545 551.978 338.445 580.495 339.921 593.278H350.982C348.032 578.774 337.855 547.848 320.745 540.178Z" fill="#000001"/>
<rect x="27" y="593" width="592" height="3" fill="black"/>
<path d="M335.715 146.088C331.83 141.144 321.73 125.958 312.407 104.77C314.526 102.298 318.552 94.8105 317.704 84.6399C306.686 82.9448 300.01 59.2135 298.049 47.5597C312.679 39.4436 300.212 17.793 304.991 16.8367C310.288 15.7767 324.061 21.0739 324.061 34.8465C324.061 48.6192 347.658 42.1181 353.725 39.0842C368.556 31.6682 363.26 49.6797 356.903 66.6301C353.513 72.5629 365.378 83.9342 371.735 88.8782C373.429 105.829 358.315 131.962 350.547 142.909C351.606 174.692 351.818 238.258 344.19 238.258C339.105 228.088 336.421 172.573 335.715 146.088Z" fill="white" stroke="black" stroke-width="1.94068"/>
<path d="M326.177 49.6724C324.412 51.4381 321.94 56.4527 326.177 62.3856" stroke="#241715" stroke-width="0.970341"/>
<path d="M334.652 65.5718C333.946 69.4564 330.838 75.3186 324.058 67.6906" stroke="#241715" stroke-width="0.970341"/>
<path d="M357.96 52.8537C359.372 48.9691 361.138 41.4118 356.9 42.2593" stroke="#241715" stroke-width="0.970341"/>
<path d="M316.573 96.2916C317.507 93.0569 318.075 89.1066 317.702 84.6383C323.573 87.817 333.592 88.8765 354.781 74.0435C355.627 85.0616 329.661 93.4664 316.573 96.2916Z" fill="black"/>
<path d="M370.674 16.8356C378.09 34.846 361.139 59.213 356.902 66.629C363.258 49.6786 367.496 31.6671 353.723 39.0832C347.751 42.2994 324.059 48.6181 324.059 34.8454C324.059 21.0728 310.287 15.7756 304.989 16.8356C300.21 17.7919 312.678 39.4426 298.047 47.5587C296.461 48.4386 294.556 49.1594 292.276 49.6775C297.573 42.2615 295.455 43.3209 291.217 25.3105C286.979 7.30016 306.049 3.06296 324.059 0.944096C342.07 -1.17477 363.258 -1.17477 370.674 16.8356Z" fill="black"/>
<path d="M470.26 131.256C456.699 113.457 398.925 95.5882 371.732 88.8784C373.427 105.829 358.313 131.962 350.544 142.91C351.604 174.693 351.816 238.259 344.188 238.259C339.102 228.088 336.418 172.574 335.712 146.088C331.828 141.144 321.728 125.959 312.405 104.77C310.286 111.127 253.076 154.563 243.541 168.336C234.007 182.109 230.828 314.538 230.828 326.192C230.828 337.845 226.59 417.303 261.552 417.303C289.521 417.303 403.869 421.188 461.784 422.6C470.26 332.901 483.82 149.054 470.26 131.256Z" fill="black"/>
<path d="M230.831 326.185C288.747 314.178 404.578 300.971 404.578 344.196C404.578 387.421 350.9 411.849 324.061 418.66M404.578 98.3069C397.515 101.519 382.542 116.629 379.152 151.379C374.914 194.815 361.311 209.648 350.291 209.648M339.477 211.766C330.454 216.71 310.713 220.454 303.932 195.875C295.457 165.151 277.774 148.2 258.011 153.497M436.361 110.061C434.243 109.165 400.341 132.309 397.162 185.281C393.984 238.252 360.082 337.839 290.159 284.867C263.672 258.381 238.151 241.784 233.865 243.549M312.408 418.339C321.943 409.163 338.47 387.844 328.299 375.979C318.129 364.113 262.497 380.216 235.953 389.751M475.348 158.795C452.464 172.92 410.299 217.911 424.708 284.867C437.421 323.007 460.653 319.122 470.68 312.413M466.847 364.325C453.153 364.505 427.038 376.254 432.124 421.805" stroke="white" stroke-width="0.970341"/>
<path d="M344.188 417.294V239.309" stroke="#027269" stroke-width="0.970341"/>
<path d="M344.824 415.56L339.617 376.847C327.777 378.995 303.119 381.076 284.072 382.881C264.131 384.771 259.106 395.241 272.491 398.585C265.489 397.711 257.65 407.364 268.822 411.686C260.628 414.597 276.837 417.845 284.782 417.861C280.235 418.548 272.35 419.815 273.421 424.634C274.493 429.452 321.47 420.592 344.824 415.56Z" fill="white"/>
<path d="M344.824 415.561L339.618 376.848C336.863 377.348 333.415 377.844 329.505 378.333L317.66 420.952C327.612 419.142 337.409 417.159 344.824 415.561Z" fill="black"/>
<path d="M285.107 418.146L301.58 413.509" stroke="black" stroke-width="0.970341"/>
<path d="M272.596 407.801L301.477 404.295" stroke="black" stroke-width="0.970341"/>
<path d="M272.491 398.584L301.989 393.482" stroke="black" stroke-width="0.970341"/>
<path d="M501.692 381.565C504.256 340.991 507.054 136.522 461.286 125.5C408.383 112.759 409.076 307.755 432.043 352.241L324.016 363.222L334.152 430.623C386.673 426.955 497.449 448.703 501.692 381.565Z" fill="black"/>
<path d="M461.286 125.499C408.382 112.759 409.076 307.754 432.043 352.24L324.016 363.222" stroke="white" stroke-width="0.970341"/>
<path d="M483.322 154.883C466.975 156.661 430.645 166.099 421.733 188.221M493.493 190.482C478.761 196.925 444.271 218.617 439.921 240.885C435.57 263.153 481.647 255.634 500.274 251.505M501.404 290.493C485.921 297.722 431.645 302.52 419.473 285.973M501.968 359.994C486.111 350.37 440.46 331.162 428.514 338.522M385.571 356.603C378.79 371.294 389.41 425.315 419.473 431.189" stroke="white" stroke-width="0.970341"/>
<path d="M38.3239 279.458H220.26C223.448 279.458 226.312 281.407 227.481 284.372L281.515 421.341C282.685 424.307 285.549 426.256 288.736 426.256H430.251C432.854 426.256 434.965 428.366 434.965 430.969C434.965 433.572 432.854 435.683 430.251 435.683H94.1185C90.9359 435.683 88.0757 433.74 86.9024 430.782L31.1078 290.082C29.0871 284.986 32.8419 279.458 38.3239 279.458Z" fill="white" stroke="black" stroke-width="2.91102"/>
<path d="M226.652 282.129L286.503 426.255H282.461C279.326 426.255 276.499 424.371 275.294 421.477L218.651 285.456C217.462 282.602 219.559 279.458 222.65 279.458C224.401 279.458 225.98 280.512 226.652 282.129Z" fill="black"/>
<path d="M86.9024 430.782L31.1078 290.082C29.087 284.986 32.8419 279.458 38.3239 279.458H52.3522C53.5069 279.458 54.6438 279.716 55.6926 280.199C60.6582 282.486 68.9544 286.082 82.7312 293.043C128.822 316.331 134.644 365.818 124.941 390.077C117.074 409.743 221.054 430.071 261.905 435.683H94.1185C90.9359 435.683 88.0756 433.74 86.9024 430.782Z" fill="black"/>
<ellipse cx="11.5736" cy="13.3097" rx="11.5736" ry="13.3097" transform="matrix(-0.936312 0.351169 0.351169 0.936312 155.862 327.975)" fill="black"/>
</g>
<defs>
<clipPath id="clip0_1_2728">
<rect width="618" height="596" fill="white"/>
</clipPath>
</defs>
</svg>
