<svg width="34" height="35" viewBox="0 0 34 35" fill="none" xmlns="http://www.w3.org/2000/svg">
<path d="M25.912 15.1613C25.4294 15.6552 25.0599 16.2514 24.8296 16.9072C24.5994 17.5631 24.5142 18.2625 24.58 18.9557L24.5571 18.9324C24.6248 19.7484 24.5167 20.5695 24.2402 21.3386C23.9638 22.1076 23.5257 22.806 22.9566 23.385C22.3874 23.9641 21.701 24.4097 20.945 24.691C20.1891 24.9722 19.382 25.0822 18.5799 25.0134L18.6028 25.0367C17.6435 24.9458 16.6799 25.1582 15.8435 25.6449C15.0071 26.1316 14.3386 26.8689 13.9292 27.7563C13.5198 28.6436 13.3893 29.6379 13.5557 30.6034C13.722 31.569 14.177 32.4588 14.8586 33.1517C15.5402 33.8445 16.4153 34.3066 17.3645 34.4749C18.3137 34.6433 19.2909 34.5097 20.1627 34.0923C21.0346 33.675 21.7587 32.9942 22.2363 32.1429C22.714 31.2915 22.9219 30.311 22.8317 29.3351L22.8559 29.3584C22.7882 28.5424 22.8963 27.7213 23.1728 26.9522C23.4492 26.1832 23.8873 25.4848 24.4564 24.9058C25.0256 24.3267 25.7121 23.8811 26.468 23.5998C27.2239 23.3186 28.0311 23.2086 28.8331 23.2774L28.8089 23.2541C29.5926 23.3258 30.3814 23.1951 31.1022 22.8741C31.823 22.553 32.4525 22.0521 32.9324 21.4176C33.4122 20.7832 33.7269 20.0358 33.8472 19.2447C33.9675 18.4536 33.8896 17.6444 33.6206 16.8921C33.3517 16.1398 32.9004 15.4687 32.3087 14.9411C31.7169 14.4134 31.0038 14.0463 30.2355 13.8737C29.4671 13.7011 28.6684 13.7286 27.9133 13.9537C27.1582 14.1788 26.4711 14.5941 25.9158 15.1613H25.912Z" fill="white"/>
<path d="M16.5177 21.9817L16.4935 21.9584C17.1752 22.0283 17.8636 21.9432 18.509 21.7092C19.1543 21.4753 19.7405 21.0983 20.2252 20.6056C20.7098 20.113 21.0808 19.5169 21.3112 18.8605C21.5417 18.2041 21.6259 17.5038 21.5577 16.8102L21.5819 16.8335C21.5142 16.0176 21.6223 15.1964 21.8988 14.4274C22.1752 13.6583 22.6133 12.9599 23.1824 12.3809C23.7516 11.8019 24.4381 11.3562 25.194 11.0749C25.9499 10.7937 26.757 10.6837 27.5591 10.7526L27.5349 10.7292C28.4943 10.8209 29.4582 10.6092 30.2951 10.1231C31.132 9.63694 31.8011 8.89999 32.2111 8.01276C32.6212 7.12553 32.7522 6.13121 32.5864 5.16542C32.4205 4.19964 31.9659 3.30941 31.2845 2.61615C30.6031 1.9229 29.728 1.46037 28.7787 1.29166C27.8294 1.12295 26.8521 1.25627 25.98 1.67344C25.1079 2.09061 24.3835 2.77131 23.9057 3.6227C23.4278 4.4741 23.2197 5.45473 23.3098 6.43084L23.2869 6.40623C23.3549 7.22224 23.2469 8.0435 22.9705 8.81265C22.6941 9.5818 22.2561 10.2803 21.6869 10.8594C21.1177 11.4384 20.4311 11.8841 19.6751 12.1653C18.9191 12.4464 18.1118 12.5563 17.3097 12.4872L17.3327 12.5118C16.651 12.4419 15.9626 12.527 15.3172 12.761C14.6718 12.995 14.0856 13.3719 13.601 13.8646C13.1163 14.3573 12.7454 14.9534 12.5149 15.6098C12.2845 16.2662 12.2003 16.9665 12.2685 17.66L12.2455 17.6367C12.313 18.4526 12.2047 19.2737 11.9282 20.0426C11.6517 20.8116 11.2136 21.5099 10.6445 22.0889C10.0754 22.6678 9.38903 23.1135 8.63321 23.3948C7.87739 23.6762 7.07034 23.7863 6.26835 23.7177L6.29127 23.741C5.33181 23.6493 4.36792 23.861 3.53105 24.3472C2.69419 24.8333 2.0251 25.5702 1.61505 26.4575C1.20501 27.3447 1.07396 28.339 1.23979 29.3048C1.40562 30.2706 1.86025 31.1608 2.54168 31.8541C3.2231 32.5473 4.09814 33.0099 5.04745 33.1786C5.99676 33.3473 6.97411 33.214 7.8462 32.7968C8.71829 32.3796 9.44266 31.6989 9.9205 30.8475C10.3984 29.9961 10.6064 29.0155 10.5163 28.0394L10.5405 28.0627C10.4728 27.2468 10.5809 26.4256 10.8574 25.6565C11.1338 24.8875 11.5719 24.1891 12.141 23.6101C12.7102 23.031 13.3967 22.5854 14.1526 22.3041C14.9085 22.0229 15.7157 21.9129 16.5177 21.9817Z" fill="white"/>
<path d="M7.98389 19.3816C8.46652 18.8877 8.83604 18.2916 9.06606 17.6357C9.29608 16.9797 9.38093 16.2803 9.31456 15.5871L9.33875 15.6105C9.271 14.7943 9.3792 13.9729 9.65578 13.2036C9.93237 12.4344 10.3707 11.7358 10.9401 11.1567C11.5095 10.5777 12.1964 10.1321 12.9526 9.85099C13.7088 9.56993 14.5163 9.46021 15.3185 9.52948L15.2943 9.50617C16.2534 9.59758 17.2169 9.38579 18.0534 8.89968C18.8899 8.41357 19.5586 7.6768 19.9684 6.78985C20.3782 5.90289 20.5091 4.90893 20.3433 3.94351C20.1775 2.97809 19.723 2.08819 19.0418 1.39519C18.3607 0.702189 17.4859 0.239808 16.537 0.0711065C15.588 -0.0975954 14.611 0.0355935 13.7392 0.452509C12.8674 0.869424 12.1432 1.54977 11.6654 2.40077C11.1876 3.25177 10.9794 4.232 11.0693 5.20778L11.0463 5.18446C11.114 6.00041 11.0059 6.82158 10.7295 7.59062C10.453 8.35967 10.0149 9.05808 9.4458 9.6371C8.87667 10.2161 8.19018 10.6618 7.43425 10.943C6.67833 11.2243 5.87118 11.3343 5.06915 11.2654L5.09207 11.2887C4.3084 11.2172 3.51967 11.3482 2.79897 11.6693C2.07827 11.9905 1.44891 12.4916 0.969219 13.1261C0.489528 13.7606 0.175022 14.508 0.0548473 15.2991C-0.0653274 16.0901 0.0127162 16.8993 0.281747 17.6515C0.550777 18.4037 1.00209 19.0747 1.59386 19.6022C2.18564 20.1298 2.89872 20.4968 3.66704 20.6694C4.43537 20.8419 5.23406 20.8143 5.98912 20.5892C6.74418 20.3641 7.43117 19.9487 7.98644 19.3816H7.98389Z" fill="white"/>
</svg>
