<svg width="70" height="70" viewBox="0 0 70 70" fill="none" xmlns="http://www.w3.org/2000/svg">
<rect width="70" height="70" rx="35" fill="#F9F9F9"/>
<path d="M37.8346 20.8344H26.5013C25.7499 20.8344 25.0292 21.1329 24.4978 21.6642C23.9665 22.1956 23.668 22.9162 23.668 23.6677V46.3344C23.668 47.0858 23.9665 47.8065 24.4978 48.3378C25.0292 48.8692 25.7499 49.1677 26.5013 49.1677H43.5013C44.2527 49.1677 44.9734 48.8692 45.5048 48.3378C46.0361 47.8065 46.3346 47.0858 46.3346 46.3344V29.3344M37.8346 20.8344L46.3346 29.3344M37.8346 20.8344V29.3344H46.3346M40.668 36.4177H29.3346M40.668 42.0844H29.3346M32.168 30.751H29.3346" stroke="black" stroke-width="3" stroke-linecap="round" stroke-linejoin="round"/>
</svg>
