<svg width="241" height="166" viewBox="0 0 241 166" fill="none" xmlns="http://www.w3.org/2000/svg">
<path d="M232.647 18.3751L211.923 46.1333L198.245 14.3067L232.647 18.3751Z" fill="#FDB813"/>
<circle cx="124" cy="96" r="70" fill="#52C3BD"/>
<mask id="mask0_2002_1435" style="mask-type:alpha" maskUnits="userSpaceOnUse" x="54" y="26" width="140" height="140">
<circle cx="124" cy="96" r="70" fill="#52C3BD"/>
</mask>
<g mask="url(#mask0_2002_1435)">
<path d="M54.9173 26.317C54.5191 26.3357 54.2463 27.1957 54.3774 27.3737C55.2719 28.7745 56.3779 26.175 54.9173 26.317Z" fill="white"/>
<path d="M56.3241 34.8645C56.3418 35.3732 56.7576 35.8633 57.2027 35.5355C57.9149 35.011 56.2896 33.7365 56.3241 34.8645Z" fill="white"/>
<path d="M61.4875 33.6712C61.3358 33.3161 60.472 33.4855 60.6452 33.9071C60.9477 34.7279 61.6167 34.0704 61.4875 33.6712Z" fill="white"/>
<path d="M57.5931 44.6711C57.327 44.7572 57.3877 45.399 57.4093 45.4655C58.0658 46.2451 58.6349 44.3706 57.5931 44.6711Z" fill="white"/>
<path d="M56.0562 48.5494C56.2284 49.0815 56.8985 48.3134 56.8123 48.0473C56.6606 47.6922 55.8183 47.9282 56.0562 48.5494Z" fill="white"/>
<path d="M59.4926 41.8131C58.0056 42.4414 60.5875 43.0388 59.4926 41.8131V41.8131Z" fill="white"/>
<path d="M58.5644 49.8315C58.6515 49.987 59.2865 50.7001 59.533 50.3263C59.3148 49.9928 59.0114 49.2826 58.5644 49.8315Z" fill="white"/>
<path d="M61.9734 44.0235C61.6633 44.0872 61.7681 44.7514 61.7896 44.818C62.3739 46.2824 63.2148 43.6584 61.9734 44.0235Z" fill="white"/>
<path d="M73.5122 26.6555C73.6658 26.7895 74.3076 26.7288 74.1784 26.3296C74.0707 25.997 72.9848 26.275 73.5122 26.6555Z" fill="white"/>
<path d="M62.1808 53.5114C62.4507 52.983 63.473 52.3949 62.8145 51.8364C62.0847 51.8521 61.1026 52.905 62.1808 53.5114Z" fill="white"/>
<path d="M52.7851 71.031C53.0914 71.4096 54.3759 71.1775 54.0734 70.3568C53.771 69.536 52.1941 70.3404 52.7851 71.031Z" fill="white"/>
<path d="M59.0369 58.7908C59.6709 59.6144 60.5678 58.1849 60.2391 57.8504C59.8232 57.3603 58.4683 58.0561 59.0369 58.7908Z" fill="white"/>
<path d="M56.2199 64.7368C56.8325 65.494 57.6384 64.3512 57.3321 63.9726C57.0259 63.594 55.6074 63.9797 56.2199 64.7368Z" fill="white"/>
<path d="M64.4049 49.7054C64.0986 49.3268 63.4989 49.6312 63.6487 50.2074C63.8406 51.0272 64.6456 49.9949 64.4049 49.7054Z" fill="white"/>
<path d="M55.5931 66.4118C56.0893 67.8313 55.6936 65.0196 55.417 66.3218C55.3945 66.3658 55.5931 66.4118 55.5931 66.4118Z" fill="white"/>
<path d="M70.0776 38.0575C69.6431 37.1693 70.9424 37.7776 70.0776 38.0575V38.0575Z" fill="white"/>
<path d="M77.3728 30.8462C77.1938 31.0879 76.9072 30.997 76.7066 31.1721C76.9483 31.3511 76.8574 31.6378 77.099 31.8168C77.4757 31.7316 77.8346 31.1377 77.3728 30.8462Z" fill="white"/>
<path d="M56.5481 75.3976C56.6362 75.4426 57.0803 75.2254 56.9942 74.9593C56.7779 74.4046 56.1959 75.2177 56.5481 75.3976Z" fill="white"/>
<path d="M60.0815 68.4848C59.9484 68.5279 60.0336 68.9045 60.0776 68.927C60.4954 69.196 60.3476 68.3987 60.0815 68.4848Z" fill="white"/>
<path d="M67.5452 57.1403C67.6744 57.5395 68.1137 57.875 68.4238 57.8113C70.308 57.2749 66.8552 55.1222 67.5452 57.1403Z" fill="white"/>
<path d="M60.4776 70.965C59.8124 71.1803 60.1579 72.1342 60.1138 72.1117C61.1863 73.3814 61.9186 70.5353 60.4776 70.965Z" fill="white"/>
<path d="M52.5523 87.4579C52.5725 85.1363 54.6313 87.4096 52.5523 87.4579V87.4579Z" fill="white"/>
<path d="M54.268 83.6695C54.0684 83.7341 54.2641 84.1117 54.2641 84.1117C54.6742 85.2651 55.3989 83.3035 54.268 83.6695Z" fill="white"/>
<path d="M58.2739 77.6681C58.0566 77.2239 57.0382 77.3699 57.3416 78.0801C57.645 78.7903 58.4041 77.9566 58.2739 77.6681Z" fill="white"/>
<path d="M69.7617 53.7763C68.2747 54.4046 70.8351 54.9354 69.7617 53.7763V53.7763Z" fill="white"/>
<path d="M71.3772 51.0484C71.2442 51.0915 71.3294 51.4681 71.3734 51.4906C71.8137 51.7156 71.6873 50.9848 71.3772 51.0484Z" fill="white"/>
<path d="M74.9592 51.1018C75.746 52.17 76.7367 50.1222 75.4991 50.0452C75.1899 49.9982 74.6754 50.6792 74.9592 51.1018Z" fill="white"/>
<path d="M61.2271 79.3962C60.9424 79.0842 59.8996 79.4952 60.381 80.0743C60.8849 80.6094 61.4903 79.6417 61.2271 79.3962Z" fill="white"/>
<path d="M63.6458 73.2481C62.6384 74.6766 65.0547 73.9679 63.6458 73.2481V73.2481Z" fill="white"/>
<path d="M73.141 56.614C73.0118 56.2148 72.0609 56.2287 72.2987 56.8499C72.5571 57.6482 73.2702 57.0131 73.141 56.614Z" fill="white"/>
<path d="M79.192 45.2124C79.3093 44.4395 77.7802 44.8242 78.3497 45.4483C78.7 45.8494 79.193 45.1019 79.192 45.2124Z" fill="white"/>
<path d="M77.9444 53.7367C77.2104 51.696 80.1182 52.9596 77.9444 53.7367V53.7367Z" fill="white"/>
<path d="M57.2941 94.1548C56.8596 93.2666 58.3585 93.8103 57.2941 94.1548V94.1548Z" fill="white"/>
<path d="M75.2452 59.0201C75.2892 59.0425 75.5749 59.244 75.6414 59.2225C76.8829 58.8574 74.0153 58.0586 75.2452 59.0201Z" fill="white"/>
<path d="M61.2029 89.8769C60.9377 89.8524 60.9329 90.4052 60.9329 90.4052C61.2784 91.359 62.1313 89.907 61.2029 89.8769Z" fill="white"/>
<path d="M87.5665 38.2758C88.2173 39.7187 89.2539 37.4723 88.0164 37.3952C87.6407 37.3698 87.3277 37.7651 87.5665 38.2758Z" fill="white"/>
<path d="M92.2625 29.516C92.5913 29.8505 93.8533 29.6625 93.5509 28.8417C93.3786 28.3095 91.6275 28.8029 92.2625 29.516Z" fill="white"/>
<path d="M54.8632 106.959C53.9759 107.283 55.2978 107.847 54.8632 106.959V106.959Z" fill="white"/>
<path d="M61.7425 93.4859C61.8952 93.7304 62.492 93.7577 62.581 93.6922C63.8478 92.9514 60.8472 92.1956 61.7425 93.4859Z" fill="white"/>
<path d="M65.3697 86.3972C64.9275 86.3933 64.5676 87.0978 64.8298 87.4539C65.6812 88.7216 67.0504 86.3676 65.3697 86.3972Z" fill="white"/>
<path d="M69.1709 78.9565C68.8483 80.4573 70.4731 79.2331 70.2793 78.6344C70.2147 78.4349 70.1492 78.3458 70.0611 78.3009C70.2616 78.1257 70.5043 78.1941 70.6608 77.9965C70.4191 77.8175 70.4435 77.5524 70.0023 77.438C69.7783 77.7677 69.7314 78.0769 69.9505 78.2999C69.5964 78.341 69.1709 78.9565 69.1709 78.9565Z" fill="white"/>
<path d="M60.9099 95.5574C60.7994 95.5564 61.1095 95.4928 60.9099 95.5574V95.5574Z" fill="white"/>
<path d="M88.4282 43.6563C87.9908 43.0997 86.4383 43.639 87.0499 44.5067C87.7045 45.5074 88.756 44.1014 88.4282 43.6563Z" fill="white"/>
<path d="M84.3213 50.2762C84.7099 51.3631 85.1009 49.6196 84.3251 49.834C84.0815 49.8761 84.2773 50.2537 84.3213 50.2762Z" fill="white"/>
<path d="M95.2083 31.2443C94.6182 30.4432 93.3691 31.6927 93.5198 32.1584C93.9739 33.3342 95.6016 31.7784 95.2083 31.2443Z" fill="white"/>
<path d="M77.1651 64.7197C77.7786 65.3663 77.7471 63.9066 77.2589 64.1014C76.9928 64.1875 77.0995 64.6307 77.1651 64.7197Z" fill="white"/>
<path d="M80.2455 58.6877C80.6418 58.8901 80.5155 58.1593 80.2494 58.2455C80.0723 58.266 80.1575 58.6427 80.2455 58.6877Z" fill="white"/>
<path d="M86.6781 46.538C86.2211 45.6938 87.7199 46.2375 86.6781 46.538V46.538Z" fill="white"/>
<path d="M91.2619 40.3866C91.2863 40.1214 90.121 39.3595 90.4234 40.1803C90.5311 40.5129 91.214 40.8063 91.2619 40.3866Z" fill="white"/>
<path d="M65.665 95.2668C65.4057 94.579 64.1623 95.1653 64.7328 95.6788C64.8423 95.7903 65.7942 95.6659 65.665 95.2668Z" fill="white"/>
<path d="M72.5994 80.7111C72.074 80.1095 73.5728 80.6533 72.5994 80.7111V80.7111Z" fill="white"/>
<path d="M93.1165 43.3877C93.7486 44.4325 95.4859 42.9882 95.071 42.3875C94.613 41.6539 92.3757 42.1209 93.1165 43.3877Z" fill="white"/>
<path d="M54.0804 120.219C54.5306 121.837 55.7961 118.708 54.3541 119.248C53.7554 119.442 53.9736 119.776 54.0804 120.219Z" fill="white"/>
<path d="M89.2234 51.0044C88.9133 51.068 89.0181 51.7323 89.0396 51.7988C89.5799 53.2408 90.4208 50.6168 89.2234 51.0044Z" fill="white"/>
<path d="M96.6404 36.9173C96.9213 37.6716 97.6158 36.6384 97.3966 36.4153C97.1343 36.0593 96.4026 36.2961 96.6404 36.9173Z" fill="white"/>
<path d="M87.6837 54.883C87.9029 55.1061 88.4782 55.0668 88.526 54.6471C88.5974 54.0728 87.1583 54.2814 87.6837 54.883Z" fill="white"/>
<path d="M95.1983 40.1774C95.2423 40.1999 95.528 40.4014 95.5946 40.3798C96.836 40.0147 93.9684 39.2159 95.1983 40.1774Z" fill="white"/>
<path d="M100.025 31.7064C100.405 31.179 99.834 30.776 99.5425 31.2378C99.8067 31.3728 99.6942 31.5929 100.025 31.7064Z" fill="white"/>
<path d="M102.252 27.9001C102.079 27.4785 100.974 27.3583 101.319 28.3121C101.535 28.9774 102.381 28.2993 102.252 27.9001Z" fill="white"/>
<path d="M92.2466 46.4977C92.2906 46.5202 92.5763 46.7217 92.6428 46.7002C93.8843 46.335 91.0392 45.4922 92.2466 46.4977Z" fill="white"/>
<path d="M80.32 75.9357C80.054 76.0219 80.2487 76.51 80.2262 76.554C80.7665 77.996 81.495 75.5921 80.32 75.9357Z" fill="white"/>
<path d="M57.1619 122.236C56.6365 121.634 58.1353 122.178 57.1619 122.236V122.236Z" fill="white"/>
<path d="M59.846 116.444C59.7129 116.487 59.7981 116.863 59.8421 116.886C60.2824 117.111 60.1561 116.38 59.846 116.444Z" fill="white"/>
<path d="M92.2268 59.2562C91.9243 58.4354 91.2103 59.1811 91.2084 59.4022C91.1332 60.4186 92.3785 59.6113 92.2268 59.2562Z" fill="white"/>
<path d="M98.8319 44.9185C99.4004 45.6531 100.183 44.6649 99.8541 44.3304C99.5038 43.9293 98.2849 44.2504 98.8319 44.9185Z" fill="white"/>
<path d="M87.3049 67.9034C87.8518 68.5716 88.3242 67.647 88.061 67.4014C87.7763 67.0894 86.8234 67.3244 87.3049 67.9034Z" fill="white"/>
<path d="M105.062 32.7231C105.513 31.7319 106.182 33.573 105.062 32.7231V32.7231Z" fill="white"/>
<path d="M100.533 42.0149C101.083 42.3514 101.911 41.2751 101.649 40.8085C101.162 40.8927 100.783 41.3095 100.533 42.0149Z" fill="white"/>
<path d="M53.2679 142.567C53.678 143.72 54.4026 141.758 53.2717 142.125C53.0721 142.189 53.2238 142.544 53.2679 142.567Z" fill="white"/>
<path d="M55.9101 138.809C55.5598 138.408 54.5854 138.576 54.8878 139.397C55.1902 140.218 56.1508 139.099 55.9101 138.809Z" fill="white"/>
<path d="M66.7292 115.685C66.4631 115.771 66.6579 116.259 66.6354 116.304C67.1111 117.546 67.8151 115.407 66.7292 115.685Z" fill="white"/>
<path d="M77.9069 95.7491C77.5351 95.2815 76.8229 95.806 76.9746 96.1611C77.2986 97.0484 78.2572 96.1502 77.9069 95.7491Z" fill="white"/>
<path d="M111.485 28.6218L111.661 28.7118C112.157 30.1312 111.806 27.3421 111.485 28.6218Z" fill="white"/>
<path d="M78.6115 93.8315C78.5224 93.8971 78.7885 93.8109 78.6115 93.8315V93.8315Z" fill="white"/>
<path d="M87.221 80.3516C87.0879 80.3947 87.1731 80.7713 87.2171 80.7938C87.6134 80.9963 87.4871 80.2655 87.221 80.3516Z" fill="white"/>
<path d="M62.661 132.654C62.9204 133.342 63.745 132.597 63.5933 132.242C63.4425 131.776 62.3801 131.9 62.661 132.654Z" fill="white"/>
<path d="M69.8156 118.653C69.9232 118.986 70.8086 118.883 70.6579 118.417C70.5062 118.062 69.5777 118.032 69.8156 118.653Z" fill="white"/>
<path d="M74.5429 109.407C73.6556 109.731 74.9774 110.295 74.5429 109.407V109.407Z" fill="white"/>
<path d="M78.5241 101.614C78.6748 102.08 79.162 101.996 79.1864 101.73C79.2108 101.465 78.2422 100.97 78.5241 101.614Z" fill="white"/>
<path d="M69.6256 127.938C69.2538 127.471 68.5417 127.995 68.6934 128.35C69.0173 129.238 70.02 128.362 69.6256 127.938Z" fill="white"/>
<path d="M96.2257 74.4598C96.809 76.0348 98.007 73.038 96.4994 73.4893C96.1893 73.5529 96.0965 74.0607 96.2257 74.4598Z" fill="white"/>
<path d="M62.6144 140.68C62.1799 139.792 63.6788 140.336 62.6144 140.68V140.68Z" fill="white"/>
<path d="M77.3993 111.754C77.5529 111.888 78.1947 111.827 78.0655 111.428C77.9353 111.139 76.8935 111.44 77.3993 111.754Z" fill="white"/>
<path d="M76.4787 117.782C76.0441 116.894 77.3875 117.525 76.4787 117.782V117.782Z" fill="white"/>
<path d="M116.678 39.1037C117.509 40.1944 118.327 37.6145 116.952 38.1332C116.264 38.3926 116.591 38.9482 116.678 39.1037Z" fill="white"/>
<path d="M62.6757 151.869C62.9604 152.181 63.9788 152.035 63.6979 151.281C63.417 150.527 62.1717 151.334 62.6757 151.869Z" fill="white"/>
<path d="M72.1365 133.886C71.9446 133.066 72.5279 134.641 72.1365 133.886V133.886Z" fill="white"/>
<path d="M80.82 116.891C81.455 117.604 82.0183 116.393 81.446 116.101C81.3579 116.056 80.2945 116.29 80.82 116.891Z" fill="white"/>
<path d="M85.1606 108.394C85.3142 108.528 85.956 108.467 85.8268 108.068C85.7191 107.735 84.6332 108.013 85.1606 108.394Z" fill="white"/>
<path d="M117.96 44.2005C118.456 45.62 118.061 42.8083 117.784 44.1105C117.762 44.1545 117.916 44.178 117.96 44.2005Z" fill="white"/>
<path d="M76.4811 125.831C76.5692 125.876 77.0133 125.659 76.9272 125.393C76.7549 124.86 76.1289 125.651 76.4811 125.831Z" fill="white"/>
<path d="M78.0982 122.661C78.1862 122.706 78.6304 122.489 78.5442 122.222C78.3945 121.646 77.746 122.481 78.0982 122.661Z" fill="white"/>
<path d="M113.504 52.918C113.877 53.1645 114.187 53.1008 114.346 52.6821C114.17 52.5921 113.95 52.4796 113.773 52.3896C113.706 52.5217 113.593 52.7419 113.504 52.918Z" fill="white"/>
<path d="M107.854 67.2417C107.729 66.4004 108.312 67.9754 107.854 67.2417V67.2417Z" fill="white"/>
<path d="M111.417 61.6785C111.461 61.701 111.746 61.9024 111.813 61.8809C113.077 61.4718 110.209 60.6729 111.417 61.6785Z" fill="white"/>
<path d="M121.682 42.9947C121.311 42.5271 120.444 43.0282 120.66 43.5829C121.006 44.5367 121.989 43.3733 121.682 42.9947Z" fill="white"/>
<path d="M124.946 37.0527C124.487 36.4296 123.312 36.7732 123.657 37.727C124.024 38.7473 125.339 37.5868 124.946 37.0527Z" fill="white"/>
<path d="M118.027 49.1764C116.517 49.9593 119.033 50.4676 118.027 49.1764V49.1764Z" fill="white"/>
<path d="M126.288 32.5756C127.59 32.8523 128.417 31.8866 129.567 31.8081C129.054 29.7694 126.769 30.6561 126.288 32.5756Z" fill="white"/>
<path d="M128.441 28.7912C127.577 29.0711 128.876 29.6794 128.441 28.7912V28.7912Z" fill="white"/>
<path d="M129.796 26.1495C128.35 27.132 131.022 27.5532 129.796 26.1495V26.1495Z" fill="white"/>
<path d="M125.45 34.647C124.778 35.6362 126.285 35.185 125.45 34.647V34.647Z" fill="white"/>
<path d="M60.3315 164.939C60.1984 164.982 60.2836 165.359 60.3276 165.381C60.7454 165.65 60.6416 164.875 60.3315 164.939Z" fill="white"/>
<path d="M71.5447 146.794C71.2796 146.77 71.2523 147.367 71.2748 147.323C71.3054 148.893 73.0484 146.785 71.5447 146.794Z" fill="white"/>
<path d="M90.8737 110.367C90.766 110.034 89.6801 110.312 90.2075 110.693C90.4051 110.849 91.0029 110.766 90.8737 110.367Z" fill="white"/>
<path d="M94.1957 104.293C94.0225 103.872 92.9825 103.951 93.2634 104.705C93.5228 105.393 94.3474 104.648 94.1957 104.293Z" fill="white"/>
<path d="M95.4323 102.535C95.6984 102.449 95.8812 101.765 95.796 101.388C95.15 99.3927 93.5697 103.138 95.4323 102.535Z" fill="white"/>
<path d="M114.45 61.5058C114.062 60.4189 113.671 62.1623 114.447 61.948C114.624 61.9274 114.428 61.5498 114.45 61.5058Z" fill="white"/>
<path d="M100.224 87.607C100.401 87.5864 100.668 87.3897 100.56 87.1677C100.343 86.613 99.7174 87.4036 100.114 87.606C99.5824 87.6678 99.0229 88.4368 99.3067 88.8594C99.7216 89.46 101.053 88.9188 100.685 88.009C100.555 87.7204 100.379 87.6305 100.224 87.607Z" fill="white"/>
<path d="M109.889 69.4487C109.493 69.2462 109.619 69.977 109.885 69.8909C110.062 69.8703 109.977 69.4936 109.889 69.4487Z" fill="white"/>
<path d="M82.3552 123.339C82.0958 122.651 81.5186 122.912 81.4267 123.309C81.1989 124.081 82.7878 124.448 82.3552 123.339Z" fill="white"/>
<path d="M79.3689 129.195C78.8726 127.775 79.2683 130.587 79.545 129.285C79.589 129.307 79.4129 129.217 79.3689 129.195Z" fill="white"/>
<path d="M75.2646 135.373C75.2598 135.925 76.651 136.137 76.283 135.227C76.1538 134.828 75.2694 134.82 75.2646 135.373Z" fill="white"/>
<path d="M103.095 82.745C103.317 82.6364 103.233 82.1492 103.189 82.1267C102.597 81.5467 102.607 82.9398 103.095 82.745Z" fill="white"/>
<path d="M68.3269 150.371C68.1762 149.905 67.689 149.989 67.6646 150.254C67.6402 150.519 68.5423 151.036 68.3269 150.371Z" fill="white"/>
<path d="M91.2923 100.199C91.7502 100.933 93.3008 100.615 92.9769 99.7276C92.5256 98.2201 90.9654 99.6438 91.2923 100.199Z" fill="white"/>
<path d="M121.776 42.9292C122.023 42.5554 122.07 42.2463 121.74 42.0223C121.561 42.264 121.274 42.173 121.074 42.3482C121.36 42.5497 121.358 42.7708 121.776 42.9292Z" fill="white"/>
<path d="M88.5549 107.517C88.2506 106.917 87.5198 107.043 87.5365 107.663C87.5111 108.038 88.9454 108.382 88.5549 107.517Z" fill="white"/>
<path d="M102.88 77.5248C103.009 77.9239 104.025 78.1096 103.722 77.2889C103.528 76.6902 102.751 77.1256 102.88 77.5248Z" fill="white"/>
<path d="M91.1468 101.901C90.9314 101.236 90.3944 101.961 90.4806 102.227C90.6107 102.515 91.3631 102.455 91.1468 101.901Z" fill="white"/>
<path d="M104.737 75.3076C104.87 75.2645 104.785 74.8879 104.741 74.8654C104.344 74.663 104.448 75.4378 104.737 75.3076Z" fill="white"/>
<path d="M68.2226 144.488C68.2403 144.997 69.6736 145.451 69.241 144.342C69.0678 143.92 68.2049 143.979 68.2226 144.488Z" fill="white"/>
<path d="M127.924 27.0841C127.551 26.7271 126.599 26.8515 126.816 27.4062C127.01 27.8944 128.516 27.6642 127.924 27.0841Z" fill="white"/>
<path d="M109.159 61.9682C109.469 62.0151 110.015 62.6832 110.218 62.287C110.067 61.8213 109.607 61.3088 109.159 61.9682Z" fill="white"/>
<path d="M118.346 45.84C118.612 45.7539 118.417 45.2658 118.439 45.2217C118.008 44.0018 117.281 46.1846 118.346 45.84Z" fill="white"/>
<path d="M107.812 64.168C108.006 64.6561 109.27 64.247 108.744 63.7559C108.59 63.6219 107.574 63.5468 107.812 64.168Z" fill="white"/>
<path d="M99.4932 80.4582C99.865 80.9258 100.774 80.6683 100.515 79.8701C100.3 79.2048 99.1429 80.0572 99.4932 80.4582Z" fill="white"/>
<path d="M98.8652 83.5265C99.0647 83.4619 99.1791 83.0207 99.1389 82.556C98.9791 80.5866 97.3351 84.0218 98.8652 83.5265Z" fill="white"/>
<path d="M95.1242 89.442C95.4549 89.5554 96.0565 89.03 95.8402 88.4753C95.6033 87.7435 94.3748 89.1701 95.1242 89.442Z" fill="white"/>
<path d="M87.7022 103.529C85.6342 104.86 89.1699 105.112 87.7022 103.529V103.529Z" fill="white"/>
<path d="M80.725 118.062C79.6516 116.903 82.256 117.456 80.725 118.062V118.062Z" fill="white"/>
<path d="M72.5852 133.116C72.7172 133.184 72.8493 133.251 72.9814 133.319C73.7778 133.281 72.8149 132.123 72.5852 133.116Z" fill="white"/>
<path d="M93.5082 92.612C93.1119 92.4095 92.7922 93.5787 93.3244 93.4064C93.568 93.3643 93.6403 92.6795 93.5082 92.612Z" fill="white"/>
<path d="M121.745 33.5313C120.032 34.7104 123.103 35.0025 121.745 33.5313V33.5313Z" fill="white"/>
<path d="M100.283 75.5343C100.526 75.6027 100.485 75.2486 100.463 75.182C100.269 74.5833 99.8195 75.4639 100.283 75.5343Z" fill="white"/>
<path d="M58.2665 157.779C58.5326 157.693 58.4718 157.051 58.4503 156.985C57.8162 156.161 57.2246 158.08 58.2665 157.779Z" fill="white"/>
<path d="M96.1471 80.8052C95.9318 80.14 95.1579 80.1333 95.0024 80.2203C93.491 81.1138 96.796 82.4692 96.1471 80.8052Z" fill="white"/>
<path d="M103.364 64.7263C102.788 64.8761 102.959 65.5188 103.09 65.6969C103.637 66.365 104.066 65.4179 103.871 64.9297C104.247 64.9551 104.602 64.8034 104.342 64.2262C104.19 63.8711 103.195 63.8625 103.233 64.5483C103.277 64.5708 103.343 64.6598 103.364 64.7263Z" fill="white"/>
<path d="M91.6358 88.7705C90.9361 87.8579 90.0177 89.2208 91.0098 89.5611C91.3845 89.697 91.9636 89.2156 91.6358 88.7705Z" fill="white"/>
<path d="M116.282 36.7341C116.194 36.6891 115.75 36.9064 115.836 37.1725C116.03 37.7712 116.634 36.9141 116.282 36.7341Z" fill="white"/>
<path d="M79.505 108.278C79.2241 107.524 78.3535 108.467 78.4827 108.866C78.5904 109.199 79.7644 108.966 79.505 108.278Z" fill="white"/>
<path d="M70.2004 125.953C70.1994 126.064 70.2425 126.197 70.264 126.263C70.6143 126.664 70.7727 126.246 70.7091 125.935C70.9536 125.783 71.1111 125.475 70.8929 125.141C70.3478 124.252 69.495 125.704 70.2004 125.953Z" fill="white"/>
<path d="M67.738 131.305C67.4786 130.617 66.9014 130.878 66.8095 131.275C66.5602 131.98 68.1266 132.392 67.738 131.305Z" fill="white"/>
<path d="M54.0254 157.609C53.766 156.922 52.9199 157.6 53.0931 158.022C53.2664 158.443 54.3709 158.563 54.0254 157.609Z" fill="white"/>
<path d="M77.8518 110.541C77.7393 110.762 77.4527 110.671 77.6718 110.894C77.8479 110.984 78.0935 110.72 77.8518 110.541Z" fill="white"/>
<path d="M59.3456 145.782C59.6528 146.05 60.5176 145.77 60.1018 145.28C59.6419 144.767 59.0824 145.536 59.3456 145.782Z" fill="white"/>
<path d="M58.3031 148.802C58.3696 148.78 58.44 148.317 58.3069 148.36C58.2179 148.425 58.1701 148.845 58.3031 148.802Z" fill="white"/>
<path d="M111.932 40.566C112.105 40.9876 113.297 41.2633 112.95 40.4201C112.648 39.5993 111.78 40.2109 111.932 40.566Z" fill="white"/>
<path d="M109.966 45.8338C109.506 45.3212 108.487 45.5777 108.768 46.332C108.962 46.9307 110.557 46.5244 109.966 45.8338Z" fill="white"/>
<path d="M105.8 53.9788C105.187 53.2216 104.493 54.2549 104.777 54.5669C105.106 54.9014 106.215 54.4688 105.8 53.9788Z" fill="white"/>
<path d="M120.07 25.512C120.027 25.379 120.183 25.2919 119.984 25.2459C120.339 25.0942 120.521 24.5209 120.125 24.3184C119.836 24.4486 119.613 24.6678 119.499 25.109C119.543 25.1315 119.587 25.154 119.631 25.1765C118.988 25.3478 120.676 27.043 120.07 25.512Z" fill="white"/>
<path d="M100.969 62.8924C99.8955 61.7332 102.477 62.3306 100.969 62.8924V62.8924Z" fill="white"/>
<path d="M92.7432 78.5645C92.6551 78.5195 92.211 78.7367 92.2971 79.0028C92.4909 79.6015 93.0954 78.7444 92.7432 78.5645Z" fill="white"/>
<path d="M86.6347 89.5453C86.9419 89.8133 87.8067 89.5334 87.3908 89.0433C86.9309 88.5308 86.3715 89.2998 86.6347 89.5453Z" fill="white"/>
<path d="M74.7946 113.699C74.6429 113.344 74.2261 112.964 73.916 113.028C71.7891 113.496 75.7704 115.919 74.7946 113.699Z" fill="white"/>
<path d="M78.4376 106.124C78.6596 106.015 78.5529 105.572 78.5314 105.506C77.8954 104.903 77.9054 106.296 78.4376 106.124Z" fill="white"/>
<path d="M70.6248 120.009C70.7569 120.076 70.889 120.144 71.0211 120.211C71.7949 120.218 70.8321 119.06 70.6248 120.009Z" fill="white"/>
<path d="M67.5413 126.04C67.7174 126.13 67.9376 126.243 68.1137 126.333C68.2037 126.157 68.2936 125.981 68.3836 125.805C67.9433 125.58 67.6772 125.666 67.5413 126.04Z" fill="white"/>
<path d="M58.6565 143.432C58.8728 143.986 59.4988 143.196 59.1025 142.993C59.0145 142.948 58.5704 143.166 58.6565 143.432Z" fill="white"/>
<path d="M81.7493 94.4335C82.0119 97.2882 84.7078 94.9457 81.7493 94.4335V94.4335Z" fill="white"/>
<path d="M95.9983 67.957C95.6021 67.7545 95.7284 68.4853 95.9945 68.3992C96.1716 68.3786 96.0864 68.0019 95.9983 67.957Z" fill="white"/>
<path d="M79.4136 100.848C79.0672 100.005 78.5039 101.216 79.4136 100.848V100.848Z" fill="white"/>
<path d="M67.6531 123.433L67.477 123.343C66.9808 121.923 67.3324 124.712 67.6531 123.433Z" fill="white"/>
<path d="M109.702 38.3132C109.421 37.559 108.528 38.5463 108.68 38.9014C108.852 39.4335 110.07 39.223 109.702 38.3132Z" fill="white"/>
<path d="M56.1481 141.708C56.3701 141.599 56.2634 141.156 56.2419 141.089C55.6284 140.443 55.6599 141.902 56.1481 141.708Z" fill="white"/>
<path d="M110.071 33.3415C109.611 32.829 109.051 33.598 109.314 33.8435C109.599 34.1556 110.53 33.8541 110.071 33.3415Z" fill="white"/>
<path d="M80.0913 91.5889C80.7536 91.7052 81.2935 90.6485 81.0772 90.0938C80.6475 88.6528 78.4799 91.2653 80.0913 91.5889Z" fill="white"/>
<path d="M100.792 50.0881C101.311 48.8543 101.959 50.6289 100.792 50.0881V50.0881Z" fill="white"/>
<path d="M91.8995 66.5281C92.1383 67.0387 93.4658 66.9397 93.0979 66.0299C92.8169 65.2757 91.7047 66.0399 91.8995 66.5281Z" fill="white"/>
<path d="M87.118 77.2993C87.5368 77.4577 88.2274 76.8667 87.834 76.3326C87.2009 75.3984 86.1924 76.9375 87.118 77.2993Z" fill="white"/>
<path d="M76.3818 98.8535C75.2644 97.6719 77.8687 98.2252 76.3818 98.8535V98.8535Z" fill="white"/>
<path d="M65.1531 121.266L64.977 121.176C64.4808 119.756 64.8324 122.546 65.1531 121.266Z" fill="white"/>
<path d="M78.7058 93.3238C78.8819 93.4138 79.7046 92.8903 79.3318 92.5332C78.6527 91.7976 78.1774 93.0539 78.7058 93.3238Z" fill="white"/>
<path d="M73.9701 101.177C74.0572 101.332 74.1227 101.421 74.1883 101.51C74.0543 101.664 74.1835 102.063 74.161 102.107C74.528 103.127 75.1148 101.761 74.6305 101.514C74.8085 101.383 74.965 101.185 74.966 101.075C75.0637 100.014 73.8409 100.777 73.9701 101.177Z" fill="white"/>
<path d="M91.3889 68.9338C91.5014 68.7137 91.6363 68.4495 91.7488 68.2294C91.1118 67.7374 90.5945 68.75 91.3889 68.9338Z" fill="white"/>
<path d="M108.861 27.4491C109.504 27.2778 110.131 26.3767 109.427 26.0167C109.163 25.8818 107.502 26.0885 108.135 27.1332C108.266 27.3113 108.375 27.4228 108.53 27.4462C108.218 27.731 108.165 28.7034 109.144 27.9823C109.125 27.6946 108.994 27.5166 108.861 27.4491Z" fill="white"/>
<path d="M106.019 33.7708C105.963 32.5762 104.693 33.6487 105.087 34.1828C105.545 34.8059 106.021 33.5496 106.019 33.7708Z" fill="white"/>
<path d="M92.0613 60.5592C91.9106 60.0936 91.4234 60.1778 91.399 60.4429C91.3745 60.7081 92.3207 61.247 92.0613 60.5592Z" fill="white"/>
<path d="M79.4099 85.8561C79.721 85.6819 79.6368 85.1947 79.5937 85.0616C78.6835 82.931 77.8095 86.8151 79.4099 85.8561Z" fill="white"/>
<path d="M88.978 66.1491C88.9339 66.1266 88.6482 65.9251 88.5817 65.9467C87.3403 66.3118 90.1854 67.1546 88.978 66.1491Z" fill="white"/>
<path d="M87.7883 68.4827C87.572 67.928 86.5713 68.5827 86.7661 69.0708C86.9393 69.4924 88.1779 69.459 87.7883 68.4827Z" fill="white"/>
<path d="M54.1205 133.951C53.6233 132.642 51.8157 134.55 53.4045 134.918C54.0004 135.055 54.2928 134.483 54.1205 133.951Z" fill="white"/>
<path d="M58.873 124.108C58.2897 122.533 57.0477 125.507 58.5992 125.079C58.9093 125.015 59.0687 124.486 58.873 124.108Z" fill="white"/>
<path d="M55.7779 128.747C56.4383 129.084 56.8188 128.557 57.1562 127.896C56.3656 127.27 56.1153 128.086 55.7779 128.747Z" fill="white"/>
<path d="M62.9644 115.653C61.9001 115.997 63.443 116.563 62.9644 115.653V115.653Z" fill="white"/>
<path d="M98.1649 44.913C97.6188 44.1343 96.766 45.5863 97.5389 45.7036C97.9126 45.95 97.8978 45.1097 98.1649 44.913Z" fill="white"/>
<path d="M95.6411 47.4562C95.9435 48.277 96.6576 47.5314 96.6595 47.3103C96.7347 46.2938 95.5119 47.0571 95.6411 47.4562Z" fill="white"/>
<path d="M70.0492 99.3955C70.1822 99.3524 70.0971 98.9758 70.053 98.9533C69.6568 98.7508 69.7831 99.4816 70.0492 99.3955Z" fill="white"/>
<path d="M65.1398 107.601C65.7983 108.159 66.4282 106.927 65.8558 106.634C65.5672 106.764 65.3648 107.161 65.1398 107.601Z" fill="white"/>
<path d="M62.4545 113.835C62.8967 113.839 63.1451 113.244 62.9944 112.778C62.4972 111.469 61.216 113.868 62.4545 113.835Z" fill="white"/>
<path d="M57.9866 121.159C57.9201 121.181 57.8497 121.645 57.9828 121.601C58.0933 121.602 58.1197 121.116 57.9866 121.159Z" fill="white"/>
<path d="M70.791 93.2772C70.5317 92.5895 69.6855 93.2676 69.8587 93.6892C70.0095 94.1549 71.1365 94.231 70.791 93.2772Z" fill="white"/>
<path d="M75.9419 82.7525C76.341 82.6233 76.7909 81.7428 76.6617 81.3436C75.8271 80.6951 75.1259 82.5022 75.9419 82.7525Z" fill="white"/>
<path d="M74.6823 85.2179C74.0257 84.4383 73.4566 86.3128 74.4985 86.0123C74.7645 85.9262 74.7038 85.2844 74.6823 85.2179Z" fill="white"/>
<path d="M67.5299 99.2191C67.3361 98.6204 66.399 99.5852 66.6838 99.8973C67.1437 100.41 67.7022 99.7513 67.5299 99.2191Z" fill="white"/>
<path d="M54.6846 122.413C54.7463 122.944 56.071 123.177 55.703 122.267C55.6178 121.891 54.6894 121.86 54.6846 122.413Z" fill="white"/>
<path d="M60.0706 112.841C60.2869 113.396 60.9129 112.605 60.5166 112.403C60.4286 112.358 59.9844 112.575 60.0706 112.841Z" fill="white"/>
<path d="M61.8841 105.494C62.7207 105.921 63.104 105.062 62.9102 104.463C62.5226 103.266 60.7609 104.975 61.8841 105.494Z" fill="white"/>
<path d="M58.1182 113.399C57.8804 112.778 57.1683 113.303 57.2759 113.635C57.3836 113.968 58.3336 114.064 58.1182 113.399Z" fill="white"/>
<path d="M101.244 26.1669C100.985 25.4792 100.139 26.1573 100.312 26.5789C100.463 27.0445 101.59 27.1207 101.244 26.1669Z" fill="white"/>
<path d="M65.1424 94.4439C65.3587 94.9986 66.7567 94.4358 66.1647 93.8557C65.9455 93.6327 64.8185 93.5566 65.1424 94.4439Z" fill="white"/>
<path d="M55.6623 113.975C55.492 113.222 54.731 114.276 54.9062 114.477C55.2565 114.878 55.7906 114.485 55.6623 113.975Z" fill="white"/>
<path d="M91.717 39.1743C90.8747 39.4102 92.0136 40.6584 92.1094 39.8189C92.1103 39.7084 92.1826 39.0236 91.717 39.1743Z" fill="white"/>
<path d="M83.963 55.7572C83.2419 54.778 82.1406 56.8248 83.4232 56.8139C83.7989 56.8392 84.2468 56.1798 83.963 55.7572Z" fill="white"/>
<path d="M79.5967 64.2986C79.2512 63.3447 78.405 64.0229 78.5783 64.4445C78.7075 64.8436 79.8345 64.9198 79.5967 64.2986Z" fill="white"/>
<path d="M75.5452 70.2778C75.7185 70.6995 76.9795 70.622 76.3875 70.0419C76.0372 69.6409 75.3945 69.8122 75.5452 70.2778Z" fill="white"/>
<path d="M59.925 102.271C59.6302 100.565 57.6182 103.091 59.119 103.413C59.5163 103.505 60.0728 103.068 59.925 102.271Z" fill="white"/>
<path d="M77.9398 67.0039C78.0728 66.9608 77.9877 66.5842 77.9437 66.5617C77.5474 66.3592 77.6737 67.09 77.9398 67.0039Z" fill="white"/>
<path d="M55.13 111.206C55.1612 110.167 53.8484 111.107 54.0216 111.528C54.3025 112.283 55.1066 111.361 55.13 111.206Z" fill="white"/>
<path d="M97.0006 26.4392C95.8803 25.5892 96.5498 27.4303 97.0006 26.4392V26.4392Z" fill="white"/>
<path d="M92.4809 34.8469C91.5075 34.9047 92.9623 35.4259 92.4809 34.8469V34.8469Z" fill="white"/>
<path d="M75.2339 68.064C75.6526 68.2224 75.9646 67.9377 75.7699 67.4495C75.3813 66.3626 74.2202 67.6572 75.2339 68.064Z" fill="white"/>
<path d="M86.8246 44.9471C86.1526 45.9363 87.6377 45.5291 86.8246 44.9471V44.9471Z" fill="white"/>
<path d="M62.7291 92.5436C61.4738 91.9578 63.491 91.3783 62.7291 92.5436V92.5436Z" fill="white"/>
<path d="M91.7046 27.3442C92.098 27.8783 92.9216 27.2442 92.7269 26.7561C92.3393 25.5586 91.4208 26.9216 91.7046 27.3442Z" fill="white"/>
<path d="M87.2754 35.5758C87.7343 36.199 88.69 35.6324 88.4737 35.0777C88.0636 33.9243 86.882 35.0417 87.2754 35.5758Z" fill="white"/>
<path d="M82.9177 43.5643C82.6516 43.6504 82.7124 44.2922 82.7779 44.3812C83.2153 44.9378 83.5068 44.476 83.5106 44.0338C84.1514 44.0836 84.9966 43.516 84.5377 42.8929C84.1003 42.3363 82.7473 42.811 82.9177 43.5643Z" fill="white"/>
<path d="M80.0664 51.5441C80.0468 51.2565 80.0732 50.7702 79.4979 50.8095C77.7281 50.9046 80.1185 53.1808 80.0664 51.5441Z" fill="white"/>
<path d="M61.7794 86.8968C61.7804 86.7863 62.1863 85.8832 61.2109 86.1622C60.036 86.5058 61.7923 87.9583 61.7794 86.8968Z" fill="white"/>
<path d="M66.1411 73.6896C65.2223 72.5539 67.4735 73.0378 66.1411 73.6896V73.6896Z" fill="white"/>
<path d="M88.2544 27.5796C87.8874 26.5593 86.9728 27.48 87.146 27.9017C87.2968 28.3673 88.5568 28.4004 88.2544 27.5796Z" fill="white"/>
<path d="M84.8601 33.6751C85.1262 33.589 85.0879 32.9032 85.0439 32.8807C84.1672 31.9886 83.8848 33.9541 84.8601 33.6751Z" fill="white"/>
<path d="M80.8844 41.0258C80.032 39.8686 79.0796 42.6022 80.5206 42.1724C81.0303 42.0442 81.0595 41.2263 80.8844 41.0258Z" fill="white"/>
<path d="M69.9042 60.6764C70.8772 58.1199 72.0429 61.3804 69.9042 60.6764V60.6764Z" fill="white"/>
<path d="M57.5039 84.9361C57.7848 85.6903 59.03 84.883 58.5261 84.3479C58.2414 84.0359 57.223 84.1818 57.5039 84.9361Z" fill="white"/>
<path d="M56.669 87.4495C55.5975 86.0693 58.0482 86.4886 56.669 87.4495V87.4495Z" fill="white"/>
<path d="M54.0557 92.5568C53.9676 92.5118 53.5235 92.729 53.6096 92.9951C53.8034 93.5938 54.4519 92.7592 54.0557 92.5568Z" fill="white"/>
<path d="M54.1032 84.9728C53.607 83.5533 54.0027 86.3649 54.2793 85.0628C54.2793 85.0628 54.0807 85.0168 54.1032 84.9728Z" fill="white"/>
<path d="M80.1 31.6881C80.3661 31.602 80.3053 30.9602 80.2838 30.8937C79.6272 30.114 79.0582 31.9886 80.1 31.6881Z" fill="white"/>
<path d="M54.7544 80.8655C55.7298 80.5865 55.2474 80.118 55.1182 79.7189C54.4057 77.7447 52.7372 81.445 54.7544 80.8655Z" fill="white"/>
<path d="M67.2694 55.5017C67.2039 55.4127 67.3819 55.2816 67.1833 55.2356C65.7921 55.0245 67.7216 56.8987 67.2694 55.5017Z" fill="white"/>
<path d="M59.0192 71.6598C59.0427 71.5052 58.9585 71.018 58.6268 71.0151C56.9911 70.9567 59.0479 73.4511 59.0192 71.6598Z" fill="white"/>
<path d="M79.9949 26.2478C80.2112 26.8024 80.8372 26.0119 80.4409 25.8094C80.3969 25.7869 79.9088 25.9817 79.9949 26.2478Z" fill="white"/>
<path d="M55.3132 75.0992L55.1371 75.0092C54.5744 73.6113 54.9926 76.3789 55.3132 75.0992Z" fill="white"/>
<path d="M63.6596 54.0992C62.6967 52.941 64.9919 53.4474 63.6596 54.0992V54.0992Z" fill="white"/>
<path d="M72.5831 32.3965C72.3826 32.5717 72.2467 32.9464 72.3553 33.1684C72.5912 34.0107 73.3747 32.912 73.223 32.5568C73.268 32.4688 73.2689 32.3582 73.2043 32.1587C73.1828 32.0922 73.0545 31.5825 72.7219 31.6901C72.2122 31.8184 72.3199 32.151 72.5831 32.3965Z" fill="white"/>
<path d="M71.4276 35.0841C71.6066 34.8424 71.8933 34.9333 72.0938 34.7582C71.8521 34.5792 71.8765 34.3141 71.4353 34.1997C71.1448 34.5509 71.0979 34.8601 71.4276 35.0841Z" fill="white"/>
<path d="M75.9702 26.1904C75.9261 26.1679 75.6404 25.9664 75.5739 25.9879C74.31 26.3971 77.1776 27.1959 75.9702 26.1904Z" fill="white"/>
<path d="M53.9425 67.9009C54.1176 68.1014 54.3162 68.1474 54.5158 68.0828C54.5148 68.1933 54.5354 68.3704 54.5794 68.3929C54.8876 68.5504 54.8915 68.1082 54.7379 67.9742C55.0714 67.7559 55.2739 67.3597 55.1447 66.9606C54.7982 66.1173 53.5706 67.4333 53.9425 67.9009Z" fill="white"/>
<path d="M60.387 56.702C58.6464 55.9793 59.5968 58.5747 60.387 56.702V56.702Z" fill="white"/>
<path d="M68.6593 33.4461C68.9254 33.3599 68.8871 32.6741 68.8431 32.6516C67.9888 31.7155 67.6839 33.7251 68.6593 33.4461Z" fill="white"/>
<path d="M69.4396 27.3498C69.5071 27.2177 69.5081 27.1071 69.4865 27.0406C69.1577 26.7061 68.5141 26.9879 68.7304 27.5426C68.8174 27.6982 68.9055 27.7432 68.972 27.7216C68.9486 27.8762 69.0582 27.9877 69.1678 28.0992C69.3468 27.8575 69.6334 27.9485 69.8339 27.7733C69.6803 27.6393 69.6598 27.4622 69.4396 27.3498Z" fill="white"/>
<path d="M64.2123 38.3382C63.9098 37.5174 63.2183 38.219 63.37 38.5741C63.5217 38.9292 64.4726 38.9154 64.2123 38.3382Z" fill="white"/>
<path d="M55.532 55.333C55.7981 55.2468 55.7373 54.6051 55.7158 54.5385C54.839 53.6465 54.5566 55.612 55.532 55.333Z" fill="white"/>
<path d="M63.0237 30.3455C62.9729 31.0969 64.7202 31.0457 64.0421 30.1996C63.6927 29.688 63.0266 30.0139 63.0237 30.3455Z" fill="white"/>
<path d="M58.8851 36.0587C59.0182 36.0156 58.933 35.639 58.889 35.6165C58.4927 35.4141 58.619 36.1448 58.8851 36.0587Z" fill="white"/>
<path d="M59.6197 30.3822C59.4661 30.2482 58.8243 30.309 58.9536 30.7081C59.0837 30.9967 60.1471 30.7627 59.6197 30.3822Z" fill="white"/>
<path d="M58.1742 33.2003C58.3072 33.1572 58.2221 32.7806 58.178 32.7581C57.7818 32.5557 57.8856 33.3305 58.1742 33.2003Z" fill="white"/>
<path d="M55.229 31.4718C55.4511 31.3631 55.3669 30.8759 55.3229 30.8534C54.7093 30.2069 54.6969 31.644 55.229 31.4718Z" fill="white"/>
</g>
<path d="M1 100.188C9.16316 107.639 27.8168 120.132 37.1263 110.492C48.7632 98.4414 30.5263 52.6859 20.9737 50.5902C11.4211 48.4945 10.9 95.1233 45.2895 100.188C79.6789 105.252 85.1702 40.8253 78.4632 27.1885C71.3828 12.7927 60.9414 22.0995 62.875 36.8346C64.5344 49.4801 72.7316 65.2599 100 57.925" stroke="#303988" stroke-width="3"/>
</svg>
