<svg width="459" height="459" viewBox="0 0 459 459" fill="none" xmlns="http://www.w3.org/2000/svg">
<path d="M63.2354 406.33H395.764C435.919 406.33 456.09 386.355 456.09 346.783V112.209C456.09 72.6368 435.919 52.6621 395.764 52.6621H63.2354C23.2778 52.6703 2.90967 72.4565 2.90967 112.209V346.791C2.90967 386.552 23.2778 406.33 63.2354 406.33ZM33.843 113.766C33.843 93.7836 44.5967 83.6036 63.8091 83.6036H395.191C414.206 83.6036 425.157 93.7836 425.157 113.766V173.699H33.843V113.766ZM96.6604 128.561C96.6604 119.34 88.9722 111.267 79.5627 111.267C69.9565 111.267 62.2682 119.34 62.2682 128.561C62.2682 137.585 69.9565 145.659 79.5627 145.659C88.9722 145.659 96.6604 137.585 96.6604 128.561ZM153.331 128.561C153.331 119.34 145.65 111.267 136.233 111.267C126.823 111.267 119.135 119.34 119.135 128.561C119.135 137.585 126.823 145.659 136.233 145.659C145.65 145.659 153.331 137.585 153.331 128.561ZM210.001 128.561C210.001 119.34 202.321 111.267 192.903 111.267C183.493 111.267 175.805 119.34 175.805 128.561C175.805 137.585 183.493 145.659 192.903 145.659C202.312 145.659 210.001 137.585 210.001 128.561ZM63.8091 375.397C44.5967 375.397 33.843 365.217 33.843 345.234V201.739H425.149V345.242C425.149 365.225 414.198 375.405 395.183 375.405L63.8091 375.397Z" fill="black"/>
<path d="M213 208C210.239 208 208 210.239 208 213V340C208 342.761 210.239 345 213 345H394C396.761 345 399 342.761 399 340V213C399 210.239 396.761 208 394 208H213Z" fill="#1E1E1E" stroke="#BBBBBB"/>
</svg>
