<svg width="24" height="25" viewBox="0 0 24 25" fill="none" xmlns="http://www.w3.org/2000/svg">
<g id="vuesax/bold/shield-tick">
<path id="Vector" d="M18.54 4.20102L13.04 2.14102C12.47 1.93102 11.54 1.93102 10.97 2.14102L5.47 4.20102C4.41 4.60102 3.55 5.84102 3.55 6.97102V15.071C3.55 15.881 4.08 16.951 4.73 17.431L10.23 21.541C11.2 22.271 12.79 22.271 13.76 21.541L19.26 17.431C19.91 16.941 20.44 15.881 20.44 15.071V6.97102C20.45 5.84102 19.59 4.60102 18.54 4.20102ZM15.48 9.80102L11.18 14.101C11.03 14.251 10.84 14.321 10.65 14.321C10.46 14.321 10.27 14.251 10.12 14.101L8.52 12.481C8.23 12.191 8.23 11.711 8.52 11.421C8.81 11.131 9.29 11.131 9.58 11.421L10.66 12.501L14.43 8.73102C14.72 8.44102 15.2 8.44102 15.49 8.73102C15.78 9.02102 15.78 9.51102 15.48 9.80102Z" fill="#292D32"/>
</g>
</svg>
