<svg width="24" height="25" viewBox="0 0 24 25" fill="none" xmlns="http://www.w3.org/2000/svg">
<g id="vuesax/bold/award">
<path id="Vector" d="M17.81 5.57105V6.31105L14.27 4.26105C12.93 3.49105 11.06 3.49105 9.73 4.26105L6.19 6.32105V5.57105C6.19 3.32105 7.42 2.08105 9.67 2.08105H14.33C16.58 2.08105 17.81 3.32105 17.81 5.57105Z" fill="#292D32"/>
<path id="Vector_2" d="M17.84 8.05104L17.7 7.98105L16.34 7.20105L13.52 5.57104C12.66 5.07104 11.34 5.07104 10.48 5.57104L7.66 7.19105L6.3 7.99104L6.12 8.08105C4.37 9.26104 4.25 9.48105 4.25 11.371V15.891C4.25 17.781 4.37 18.001 6.16 19.211L10.48 21.701C10.91 21.961 11.45 22.071 12 22.071C12.54 22.071 13.09 21.951 13.52 21.701L17.88 19.181C19.64 18.001 19.75 17.791 19.75 15.891V11.371C19.75 9.48105 19.63 9.26104 17.84 8.05104ZM14.79 13.581L14.18 14.331C14.08 14.441 14.01 14.651 14.02 14.801L14.08 15.761C14.12 16.351 13.7 16.651 13.15 16.441L12.26 16.081C12.12 16.031 11.89 16.031 11.75 16.081L10.86 16.431C10.31 16.651 9.89 16.341 9.93 15.751L9.99 14.791C10 14.641 9.93 14.431 9.83 14.321L9.21 13.581C8.83 13.131 9 12.631 9.57 12.481L10.5 12.241C10.65 12.201 10.82 12.061 10.9 11.941L11.42 11.141C11.74 10.641 12.25 10.641 12.58 11.141L13.1 11.941C13.18 12.071 13.36 12.201 13.5 12.241L14.43 12.481C15 12.631 15.17 13.131 14.79 13.581Z" fill="#292D32"/>
</g>
</svg>
