<svg width="306" height="371" viewBox="0 0 306 371" fill="none" xmlns="http://www.w3.org/2000/svg">
<rect x="0.5" y="0.5" width="305" height="370" rx="19.5" fill="url(#paint0_linear_1_6661)" stroke="url(#paint1_linear_1_6661)"/>
<g clip-path="url(#clip0_1_6661)">
<path d="M165.571 58.6888C164.932 55.2161 167.254 51.875 170.756 51.4062C193.292 48.3891 216.252 49.8975 238.193 55.8633C260.062 61.8097 280.402 72.0441 297.957 85.9041C300.769 88.1238 301.007 92.2572 298.583 94.9008L271.209 124.745C268.897 127.266 265.017 127.486 262.304 125.412C250.818 116.631 237.629 110.119 223.49 106.275C209.368 102.435 194.618 101.342 180.091 103.037C176.644 103.439 173.39 101.189 172.762 97.7772L165.571 58.6888Z" fill="#EEF8B9"/>
<path d="M307.213 102.245C309.701 99.8994 313.607 99.9356 315.941 102.428C329.082 116.466 339.547 132.664 346.83 150.273C354.073 167.785 358.042 186.385 358.572 205.207C358.67 208.706 355.782 211.512 352.282 211.472L310.776 210.993C307.276 210.953 304.495 208.08 304.326 204.584C303.751 192.641 301.115 180.862 296.513 169.735C291.926 158.643 285.461 148.385 277.397 139.374C275.007 136.704 275.046 132.583 277.656 130.121L307.213 102.245Z" fill="#98A841"/>
<path d="M76.4865 106.022C73.806 103.645 73.6235 99.5081 76.1967 97.0083C95.1269 78.6181 118.407 64.9531 144.022 57.1997C147.332 56.1979 150.765 58.1701 151.7 61.4962L162.474 99.8234C163.433 103.235 161.399 106.757 158.025 107.852C142.213 112.984 127.795 121.492 115.844 132.742C113.354 135.086 109.473 135.271 106.918 133.006L76.4865 106.022Z" fill="#98A841"/>
<path d="M34.405 207.805C30.9044 207.765 28.0898 204.893 28.2787 201.397C29.9823 169.866 41.3193 139.516 60.8566 114.195C62.9467 111.486 66.8362 111.075 69.5315 113.175L101.706 138.243C104.53 140.443 104.951 144.539 102.825 147.426C91.0058 163.482 83.9808 182.374 82.524 202.025C82.2652 205.516 79.4108 208.325 75.9102 208.284L34.405 207.805Z" fill="#D3E763"/>
<path d="M146.784 188.123V153.835H148.98V188.123H146.784ZM153.119 164.804C152.994 163.635 152.467 162.724 151.538 162.072C150.619 161.42 149.422 161.094 147.949 161.094C146.913 161.094 146.025 161.251 145.284 161.563C144.542 161.876 143.975 162.3 143.583 162.835C143.19 163.371 142.989 163.983 142.98 164.67C142.98 165.242 143.109 165.737 143.368 166.157C143.636 166.577 143.998 166.934 144.453 167.229C144.908 167.514 145.413 167.755 145.967 167.952C146.52 168.148 147.078 168.314 147.641 168.447L150.212 169.09C151.248 169.331 152.244 169.657 153.199 170.068C154.164 170.479 155.025 170.997 155.784 171.622C156.552 172.247 157.159 173.001 157.606 173.885C158.052 174.769 158.275 175.805 158.275 176.993C158.275 178.6 157.865 180.015 157.043 181.239C156.222 182.453 155.034 183.404 153.48 184.091C151.936 184.77 150.065 185.109 147.869 185.109C145.734 185.109 143.882 184.779 142.31 184.118C140.748 183.457 139.524 182.493 138.64 181.225C137.765 179.957 137.292 178.412 137.22 176.591H142.109C142.181 177.546 142.475 178.341 142.993 178.975C143.511 179.609 144.185 180.082 145.016 180.395C145.855 180.707 146.793 180.863 147.828 180.863C148.909 180.863 149.855 180.703 150.668 180.381C151.489 180.051 152.132 179.596 152.597 179.015C153.061 178.426 153.297 177.738 153.306 176.953C153.297 176.238 153.088 175.649 152.677 175.185C152.266 174.711 151.69 174.318 150.949 174.006C150.217 173.684 149.36 173.399 148.377 173.149L145.257 172.345C142.998 171.765 141.212 170.885 139.899 169.706C138.596 168.519 137.944 166.943 137.944 164.978C137.944 163.362 138.381 161.947 139.256 160.733C140.14 159.518 141.341 158.576 142.859 157.907C144.377 157.228 146.096 156.889 148.016 156.889C149.962 156.889 151.668 157.228 153.132 157.907C154.606 158.576 155.762 159.509 156.601 160.706C157.441 161.893 157.874 163.26 157.9 164.804H153.119ZM171.22 185.069C169.434 185.069 167.835 184.734 166.425 184.065C165.014 183.386 163.893 182.457 163.063 181.279C162.241 180.1 161.804 178.752 161.75 177.234H166.572C166.661 178.359 167.148 179.279 168.032 179.993C168.916 180.698 169.978 181.051 171.22 181.051C172.193 181.051 173.059 180.828 173.818 180.381C174.577 179.935 175.175 179.314 175.613 178.52C176.05 177.725 176.265 176.819 176.256 175.801C176.265 174.765 176.046 173.845 175.599 173.042C175.153 172.238 174.541 171.608 173.764 171.153C172.988 170.689 172.095 170.457 171.086 170.457C170.264 170.448 169.456 170.599 168.661 170.912C167.867 171.224 167.237 171.635 166.773 172.144L162.286 171.407L163.719 157.264H179.631V161.416H167.831L167.041 168.689H167.201C167.71 168.09 168.429 167.595 169.358 167.202C170.286 166.8 171.304 166.599 172.412 166.599C174.072 166.599 175.555 166.992 176.858 167.778C178.162 168.555 179.189 169.626 179.939 170.992C180.689 172.358 181.064 173.921 181.064 175.68C181.064 177.493 180.644 179.109 179.805 180.529C178.975 181.939 177.818 183.051 176.336 183.864C174.863 184.667 173.157 185.069 171.22 185.069ZM184.301 179.604V175.653L195.94 157.264H199.235V162.889H197.226L189.391 175.305V175.519H205.637V179.604H184.301ZM197.387 184.694V178.399L197.44 176.631V157.264H202.128V184.694H197.387ZM210.167 184.694L221.833 161.603V161.416H208.292V157.264H226.976V161.51L215.323 184.694H210.167ZM240 185.069C238.688 185.06 237.406 184.832 236.156 184.386C234.906 183.931 233.781 183.194 232.781 182.176C231.781 181.149 230.986 179.788 230.397 178.091C229.808 176.386 229.518 174.274 229.526 171.756C229.526 169.407 229.776 167.313 230.277 165.474C230.777 163.635 231.495 162.081 232.433 160.813C233.37 159.536 234.5 158.563 235.822 157.893C237.152 157.224 238.639 156.889 240.282 156.889C242.005 156.889 243.532 157.228 244.862 157.907C246.202 158.585 247.282 159.514 248.104 160.692C248.925 161.862 249.434 163.184 249.63 164.657H244.742C244.492 163.603 243.978 162.764 243.201 162.139C242.434 161.505 241.46 161.188 240.282 161.188C238.38 161.188 236.915 162.014 235.888 163.666C234.871 165.318 234.357 167.586 234.348 170.47H234.536C234.973 169.684 235.54 169.01 236.237 168.447C236.933 167.885 237.719 167.452 238.594 167.148C239.478 166.836 240.411 166.679 241.393 166.679C243.001 166.679 244.443 167.063 245.72 167.831C247.005 168.599 248.023 169.657 248.773 171.006C249.523 172.345 249.894 173.881 249.885 175.613C249.894 177.417 249.483 179.037 248.653 180.475C247.822 181.904 246.666 183.029 245.184 183.85C243.702 184.672 241.974 185.078 240 185.069ZM239.974 181.051C240.947 181.051 241.817 180.814 242.585 180.341C243.353 179.868 243.96 179.229 244.407 178.426C244.853 177.622 245.072 176.72 245.063 175.72C245.072 174.738 244.858 173.85 244.42 173.055C243.992 172.26 243.398 171.631 242.639 171.166C241.88 170.702 241.014 170.47 240.041 170.47C239.317 170.47 238.643 170.608 238.018 170.885C237.393 171.162 236.848 171.546 236.384 172.037C235.92 172.519 235.554 173.082 235.286 173.725C235.027 174.359 234.893 175.037 234.884 175.76C234.893 176.716 235.116 177.595 235.554 178.399C235.991 179.203 236.594 179.846 237.362 180.328C238.13 180.81 239 181.051 239.974 181.051Z" fill="white"/>
<path d="M135.398 213.742C135.338 213.23 135.092 212.832 134.66 212.549C134.228 212.265 133.699 212.124 133.072 212.124C132.613 212.124 132.212 212.198 131.868 212.346C131.528 212.495 131.261 212.699 131.069 212.958C130.88 213.218 130.786 213.513 130.786 213.843C130.786 214.12 130.852 214.358 130.983 214.557C131.118 214.752 131.29 214.916 131.499 215.047C131.708 215.175 131.927 215.281 132.157 215.366C132.386 215.447 132.597 215.512 132.789 215.563L133.841 215.846C134.11 215.917 134.41 216.015 134.741 216.14C135.075 216.264 135.393 216.435 135.697 216.65C136.004 216.863 136.256 217.136 136.455 217.47C136.654 217.803 136.754 218.213 136.754 218.699C136.754 219.258 136.607 219.764 136.314 220.216C136.024 220.668 135.599 221.027 135.039 221.293C134.483 221.56 133.807 221.693 133.011 221.693C132.269 221.693 131.627 221.573 131.084 221.334C130.545 221.094 130.12 220.76 129.81 220.332C129.503 219.904 129.329 219.407 129.289 218.84H130.584C130.617 219.231 130.749 219.555 130.978 219.811C131.211 220.064 131.504 220.253 131.858 220.378C132.216 220.499 132.6 220.56 133.011 220.56C133.49 220.56 133.92 220.482 134.301 220.327C134.682 220.169 134.984 219.95 135.206 219.67C135.429 219.386 135.54 219.056 135.54 218.678C135.54 218.334 135.444 218.055 135.252 217.839C135.06 217.623 134.807 217.448 134.493 217.313C134.18 217.178 133.841 217.06 133.477 216.959L132.202 216.595C131.393 216.362 130.752 216.03 130.28 215.598C129.808 215.167 129.572 214.602 129.572 213.904C129.572 213.324 129.729 212.818 130.042 212.387C130.359 211.952 130.784 211.615 131.317 211.375C131.853 211.133 132.452 211.011 133.112 211.011C133.78 211.011 134.373 211.131 134.893 211.37C135.412 211.606 135.823 211.93 136.127 212.341C136.434 212.753 136.595 213.22 136.612 213.742H135.398ZM138.369 224.424V213.742H139.522V214.976H139.664C139.752 214.841 139.873 214.669 140.028 214.46C140.187 214.248 140.413 214.059 140.706 213.894C141.003 213.725 141.404 213.641 141.91 213.641C142.564 213.641 143.14 213.805 143.639 214.132C144.138 214.459 144.528 214.922 144.808 215.522C145.087 216.123 145.227 216.831 145.227 217.647C145.227 218.469 145.087 219.182 144.808 219.786C144.528 220.386 144.14 220.851 143.644 221.182C143.149 221.509 142.577 221.672 141.93 221.672C141.431 221.672 141.031 221.59 140.731 221.425C140.431 221.256 140.2 221.066 140.038 220.853C139.876 220.637 139.752 220.459 139.664 220.317H139.563V224.424H138.369ZM139.543 217.626C139.543 218.213 139.629 218.731 139.801 219.179C139.973 219.624 140.224 219.973 140.554 220.226C140.885 220.476 141.289 220.6 141.768 220.6C142.267 220.6 142.683 220.469 143.017 220.206C143.354 219.939 143.607 219.582 143.776 219.134C143.948 218.682 144.034 218.179 144.034 217.626C144.034 217.08 143.949 216.588 143.781 216.15C143.616 215.708 143.365 215.359 143.027 215.103C142.694 214.843 142.274 214.713 141.768 214.713C141.282 214.713 140.875 214.836 140.544 215.082C140.214 215.325 139.964 215.666 139.796 216.104C139.627 216.539 139.543 217.047 139.543 217.626ZM150.02 221.672C149.272 221.672 148.626 221.507 148.083 221.177C147.544 220.843 147.127 220.378 146.834 219.781C146.544 219.181 146.399 218.483 146.399 217.687C146.399 216.891 146.544 216.19 146.834 215.583C147.127 214.973 147.535 214.498 148.058 214.157C148.584 213.813 149.198 213.641 149.899 213.641C150.304 213.641 150.703 213.709 151.098 213.843C151.492 213.978 151.851 214.197 152.175 214.501C152.498 214.801 152.756 215.199 152.949 215.694C153.141 216.19 153.237 216.8 153.237 217.525V218.031H147.249V216.999H152.023C152.023 216.561 151.935 216.17 151.76 215.826C151.588 215.482 151.342 215.211 151.022 215.012C150.705 214.813 150.33 214.713 149.899 214.713C149.424 214.713 149.012 214.831 148.665 215.067C148.321 215.3 148.056 215.603 147.871 215.978C147.685 216.352 147.593 216.753 147.593 217.181V217.869C147.593 218.456 147.694 218.953 147.896 219.361C148.102 219.766 148.387 220.074 148.751 220.287C149.115 220.496 149.538 220.6 150.02 220.6C150.334 220.6 150.617 220.556 150.87 220.469C151.126 220.378 151.347 220.243 151.532 220.064C151.718 219.882 151.861 219.656 151.962 219.386L153.116 219.71C152.994 220.101 152.79 220.445 152.504 220.742C152.217 221.035 151.863 221.264 151.441 221.43C151.02 221.592 150.546 221.672 150.02 221.672ZM155.961 216.837V221.511H154.768V213.742H155.921V214.956H156.022C156.204 214.562 156.481 214.245 156.851 214.005C157.222 213.762 157.701 213.641 158.288 213.641C158.814 213.641 159.274 213.749 159.668 213.965C160.063 214.177 160.37 214.501 160.589 214.936C160.808 215.367 160.918 215.914 160.918 216.574V221.511H159.724V216.655C159.724 216.045 159.566 215.57 159.249 215.229C158.932 214.885 158.497 214.713 157.944 214.713C157.563 214.713 157.222 214.796 156.922 214.961C156.626 215.126 156.391 215.367 156.219 215.684C156.047 216.001 155.961 216.386 155.961 216.837ZM165.747 221.672C165.1 221.672 164.528 221.509 164.033 221.182C163.537 220.851 163.149 220.386 162.87 219.786C162.59 219.182 162.45 218.469 162.45 217.647C162.45 216.831 162.59 216.123 162.87 215.522C163.149 214.922 163.539 214.459 164.038 214.132C164.537 213.805 165.113 213.641 165.767 213.641C166.273 213.641 166.673 213.725 166.966 213.894C167.263 214.059 167.489 214.248 167.644 214.46C167.802 214.669 167.925 214.841 168.013 214.976H168.114V211.153H169.308V221.511H168.155V220.317H168.013C167.925 220.459 167.801 220.637 167.639 220.853C167.477 221.066 167.246 221.256 166.946 221.425C166.646 221.59 166.246 221.672 165.747 221.672ZM165.909 220.6C166.388 220.6 166.792 220.476 167.123 220.226C167.453 219.973 167.705 219.624 167.876 219.179C168.048 218.731 168.134 218.213 168.134 217.626C168.134 217.047 168.05 216.539 167.882 216.104C167.713 215.666 167.463 215.325 167.133 215.082C166.803 214.836 166.395 214.713 165.909 214.713C165.403 214.713 164.982 214.843 164.645 215.103C164.311 215.359 164.06 215.708 163.891 216.15C163.726 216.588 163.643 217.08 163.643 217.626C163.643 218.179 163.728 218.682 163.896 219.134C164.068 219.582 164.321 219.939 164.655 220.206C164.992 220.469 165.41 220.6 165.909 220.6ZM171.375 221.511V213.742H172.568V221.511H171.375ZM171.982 212.448C171.749 212.448 171.548 212.368 171.38 212.21C171.215 212.051 171.132 211.861 171.132 211.638C171.132 211.416 171.215 211.225 171.38 211.067C171.548 210.908 171.749 210.829 171.982 210.829C172.214 210.829 172.413 210.908 172.578 211.067C172.747 211.225 172.831 211.416 172.831 211.638C172.831 211.861 172.747 212.051 172.578 212.21C172.413 212.368 172.214 212.448 171.982 212.448ZM175.663 216.837V221.511H174.47V213.742H175.623V214.956H175.724C175.906 214.562 176.182 214.245 176.553 214.005C176.924 213.762 177.403 213.641 177.99 213.641C178.516 213.641 178.976 213.749 179.37 213.965C179.765 214.177 180.072 214.501 180.291 214.936C180.51 215.367 180.619 215.914 180.619 216.574V221.511H179.426V216.655C179.426 216.045 179.267 215.57 178.951 215.229C178.634 214.885 178.199 214.713 177.646 214.713C177.265 214.713 176.924 214.796 176.624 214.961C176.327 215.126 176.093 215.367 175.921 215.684C175.749 216.001 175.663 216.386 175.663 216.837ZM185.651 224.586C185.075 224.586 184.579 224.511 184.164 224.363C183.75 224.218 183.404 224.026 183.128 223.787C182.855 223.55 182.637 223.298 182.475 223.028L183.426 222.36C183.534 222.502 183.671 222.664 183.836 222.846C184.001 223.031 184.227 223.191 184.513 223.326C184.803 223.465 185.183 223.534 185.651 223.534C186.279 223.534 186.796 223.382 187.204 223.078C187.612 222.775 187.816 222.3 187.816 221.652V220.074H187.715C187.627 220.216 187.502 220.391 187.341 220.6C187.182 220.806 186.953 220.99 186.653 221.152C186.356 221.31 185.955 221.389 185.449 221.389C184.822 221.389 184.259 221.241 183.76 220.944C183.264 220.647 182.871 220.216 182.581 219.649C182.295 219.083 182.152 218.395 182.152 217.586C182.152 216.79 182.292 216.097 182.571 215.507C182.851 214.914 183.241 214.455 183.74 214.132C184.239 213.805 184.815 213.641 185.469 213.641C185.975 213.641 186.376 213.725 186.673 213.894C186.973 214.059 187.202 214.248 187.361 214.46C187.523 214.669 187.647 214.841 187.735 214.976H187.856V213.742H189.01V221.733C189.01 222.401 188.858 222.944 188.554 223.362C188.254 223.783 187.85 224.092 187.341 224.287C186.835 224.486 186.272 224.586 185.651 224.586ZM185.611 220.317C186.09 220.317 186.494 220.207 186.825 219.988C187.155 219.769 187.406 219.454 187.578 219.043C187.75 218.631 187.836 218.139 187.836 217.566C187.836 217.006 187.752 216.512 187.583 216.084C187.415 215.656 187.165 215.32 186.835 215.077C186.504 214.835 186.096 214.713 185.611 214.713C185.105 214.713 184.684 214.841 184.347 215.098C184.013 215.354 183.762 215.698 183.593 216.129C183.428 216.561 183.345 217.04 183.345 217.566C183.345 218.105 183.429 218.582 183.598 218.997C183.77 219.408 184.023 219.732 184.357 219.968C184.694 220.201 185.112 220.317 185.611 220.317ZM194.226 212.265V211.153H201.994V212.265H198.737V221.511H197.483V212.265H194.226ZM204.677 216.837V221.511H203.483V211.153H204.677V214.956H204.778C204.96 214.555 205.233 214.236 205.597 214C205.965 213.761 206.454 213.641 207.064 213.641C207.593 213.641 208.057 213.747 208.455 213.96C208.853 214.169 209.161 214.491 209.38 214.926C209.603 215.357 209.714 215.907 209.714 216.574V221.511H208.521V216.655C208.521 216.038 208.36 215.561 208.04 215.224C207.723 214.884 207.283 214.713 206.72 214.713C206.329 214.713 205.978 214.796 205.668 214.961C205.361 215.126 205.118 215.367 204.94 215.684C204.764 216.001 204.677 216.386 204.677 216.837ZM211.613 221.511V213.742H212.806V221.511H211.613ZM212.22 212.448C211.987 212.448 211.786 212.368 211.618 212.21C211.453 212.051 211.37 211.861 211.37 211.638C211.37 211.416 211.453 211.225 211.618 211.067C211.786 210.908 211.987 210.829 212.22 210.829C212.452 210.829 212.651 210.908 212.817 211.067C212.985 211.225 213.069 211.416 213.069 211.638C213.069 211.861 212.985 212.051 212.817 212.21C212.651 212.368 212.452 212.448 212.22 212.448ZM220.21 215.482L219.138 215.785C219.071 215.607 218.971 215.433 218.84 215.265C218.712 215.093 218.536 214.951 218.314 214.84C218.091 214.728 217.806 214.673 217.459 214.673C216.984 214.673 216.587 214.782 216.27 215.002C215.957 215.217 215.8 215.492 215.8 215.826C215.8 216.123 215.908 216.357 216.124 216.529C216.34 216.701 216.677 216.844 217.135 216.959L218.288 217.242C218.983 217.411 219.501 217.669 219.841 218.016C220.182 218.36 220.352 218.803 220.352 219.346C220.352 219.791 220.224 220.189 219.968 220.54C219.715 220.89 219.361 221.167 218.905 221.369C218.45 221.571 217.921 221.672 217.317 221.672C216.525 221.672 215.869 221.501 215.35 221.157C214.831 220.813 214.502 220.31 214.364 219.649L215.497 219.366C215.605 219.784 215.809 220.098 216.109 220.307C216.412 220.516 216.808 220.62 217.297 220.62C217.853 220.62 218.295 220.502 218.622 220.266C218.953 220.027 219.118 219.74 219.118 219.407C219.118 219.137 219.023 218.911 218.835 218.729C218.646 218.544 218.356 218.405 217.965 218.314L216.67 218.011C215.959 217.842 215.436 217.581 215.102 217.227C214.772 216.869 214.607 216.423 214.607 215.887C214.607 215.448 214.73 215.061 214.976 214.723C215.225 214.386 215.564 214.122 215.992 213.929C216.424 213.737 216.913 213.641 217.459 213.641C218.228 213.641 218.831 213.81 219.27 214.147C219.711 214.484 220.025 214.929 220.21 215.482ZM227.628 221.511L224.796 211.153H226.07L228.235 219.589H228.336L230.541 211.153H231.957L234.162 219.589H234.263L236.428 211.153H237.702L234.87 221.511H233.575L231.289 213.257H231.208L228.922 221.511H227.628ZM241.352 221.672C240.604 221.672 239.958 221.507 239.415 221.177C238.876 220.843 238.459 220.378 238.166 219.781C237.876 219.181 237.731 218.483 237.731 217.687C237.731 216.891 237.876 216.19 238.166 215.583C238.459 214.973 238.867 214.498 239.39 214.157C239.916 213.813 240.53 213.641 241.231 213.641C241.635 213.641 242.035 213.709 242.43 213.843C242.824 213.978 243.183 214.197 243.507 214.501C243.83 214.801 244.088 215.199 244.281 215.694C244.473 216.19 244.569 216.8 244.569 217.525V218.031H238.581V216.999H243.355C243.355 216.561 243.267 216.17 243.092 215.826C242.92 215.482 242.674 215.211 242.354 215.012C242.037 214.813 241.662 214.713 241.231 214.713C240.755 214.713 240.344 214.831 239.997 215.067C239.653 215.3 239.388 215.603 239.203 215.978C239.017 216.352 238.925 216.753 238.925 217.181V217.869C238.925 218.456 239.026 218.953 239.228 219.361C239.434 219.766 239.719 220.074 240.083 220.287C240.447 220.496 240.87 220.6 241.352 220.6C241.666 220.6 241.949 220.556 242.202 220.469C242.458 220.378 242.679 220.243 242.864 220.064C243.05 219.882 243.193 219.656 243.294 219.386L244.447 219.71C244.326 220.101 244.122 220.445 243.836 220.742C243.549 221.035 243.195 221.264 242.773 221.43C242.352 221.592 241.878 221.672 241.352 221.672ZM249.357 221.672C248.608 221.672 247.963 221.507 247.42 221.177C246.88 220.843 246.464 220.378 246.17 219.781C245.881 219.181 245.736 218.483 245.736 217.687C245.736 216.891 245.881 216.19 246.17 215.583C246.464 214.973 246.872 214.498 247.394 214.157C247.92 213.813 248.534 213.641 249.235 213.641C249.64 213.641 250.039 213.709 250.434 213.843C250.828 213.978 251.188 214.197 251.511 214.501C251.835 214.801 252.093 215.199 252.285 215.694C252.477 216.19 252.573 216.8 252.573 217.525V218.031H246.585V216.999H251.36C251.36 216.561 251.272 216.17 251.097 215.826C250.925 215.482 250.678 215.211 250.358 215.012C250.041 214.813 249.667 214.713 249.235 214.713C248.76 214.713 248.349 214.831 248.001 215.067C247.657 215.3 247.393 215.603 247.207 215.978C247.022 216.352 246.929 216.753 246.929 217.181V217.869C246.929 218.456 247.03 218.953 247.233 219.361C247.438 219.766 247.723 220.074 248.087 220.287C248.451 220.496 248.875 220.6 249.357 220.6C249.67 220.6 249.954 220.556 250.206 220.469C250.463 220.378 250.683 220.243 250.869 220.064C251.054 219.882 251.198 219.656 251.299 219.386L252.452 219.71C252.331 220.101 252.127 220.445 251.84 220.742C251.553 221.035 251.199 221.264 250.778 221.43C250.356 221.592 249.883 221.672 249.357 221.672ZM255.217 218.678L255.197 217.202H255.439L258.838 213.742H260.315L256.694 217.404H256.592L255.217 218.678ZM254.104 221.511V211.153H255.298V221.511H254.104ZM259.04 221.511L256.006 217.667L256.855 216.837L260.558 221.511H259.04Z" fill="#A1A1A1"/>
</g>
<path d="M27.5852 320V306.909H32.0085C33.0355 306.909 33.875 307.094 34.527 307.465C35.1832 307.832 35.669 308.328 35.9844 308.955C36.2997 309.581 36.4574 310.28 36.4574 311.051C36.4574 311.822 36.2997 312.523 35.9844 313.154C35.6733 313.785 35.1918 314.288 34.5398 314.663C33.8878 315.033 33.0526 315.219 32.0341 315.219H28.8636V313.812H31.983C32.6861 313.812 33.2507 313.691 33.6768 313.448C34.103 313.205 34.4119 312.877 34.6037 312.464C34.7997 312.046 34.8977 311.575 34.8977 311.051C34.8977 310.527 34.7997 310.058 34.6037 309.645C34.4119 309.232 34.1009 308.908 33.6705 308.673C33.2401 308.435 32.669 308.315 31.9574 308.315H29.1705V320H27.5852ZM38.8065 320V310.182H40.2638V311.665H40.3661C40.5451 311.179 40.869 310.785 41.3377 310.482C41.8065 310.18 42.3349 310.028 42.9229 310.028C43.0337 310.028 43.1722 310.031 43.3384 310.035C43.5046 310.039 43.6303 310.045 43.7156 310.054V311.588C43.6644 311.575 43.5472 311.556 43.364 311.531C43.185 311.501 42.9954 311.486 42.7951 311.486C42.3178 311.486 41.8917 311.586 41.5167 311.786C41.146 311.982 40.8519 312.255 40.6346 312.604C40.4215 312.95 40.315 313.344 40.315 313.787V320H38.8065ZM49.1935 320.205C48.3072 320.205 47.5295 319.994 46.8604 319.572C46.1957 319.15 45.6758 318.56 45.3008 317.801C44.93 317.043 44.7447 316.156 44.7447 315.142C44.7447 314.119 44.93 313.227 45.3008 312.464C45.6758 311.701 46.1957 311.109 46.8604 310.687C47.5295 310.265 48.3072 310.054 49.1935 310.054C50.0799 310.054 50.8555 310.265 51.5202 310.687C52.1893 311.109 52.7092 311.701 53.0799 312.464C53.4549 313.227 53.6424 314.119 53.6424 315.142C53.6424 316.156 53.4549 317.043 53.0799 317.801C52.7092 318.56 52.1893 319.15 51.5202 319.572C50.8555 319.994 50.0799 320.205 49.1935 320.205ZM49.1935 318.849C49.8668 318.849 50.4208 318.677 50.8555 318.332C51.2901 317.987 51.6119 317.533 51.8207 316.97C52.0295 316.408 52.1339 315.798 52.1339 315.142C52.1339 314.486 52.0295 313.874 51.8207 313.308C51.6119 312.741 51.2901 312.283 50.8555 311.933C50.4208 311.584 49.8668 311.409 49.1935 311.409C48.5202 311.409 47.9663 311.584 47.5316 311.933C47.0969 312.283 46.7752 312.741 46.5664 313.308C46.3576 313.874 46.2532 314.486 46.2532 315.142C46.2532 315.798 46.3576 316.408 46.5664 316.97C46.7752 317.533 47.0969 317.987 47.5316 318.332C47.9663 318.677 48.5202 318.849 49.1935 318.849ZM59.6525 320.205C58.8343 320.205 58.112 319.998 57.4856 319.585C56.8592 319.167 56.3691 318.579 56.0154 317.82C55.6618 317.058 55.4849 316.156 55.4849 315.116C55.4849 314.085 55.6618 313.19 56.0154 312.432C56.3691 311.673 56.8613 311.087 57.492 310.674C58.1227 310.261 58.8514 310.054 59.6781 310.054C60.3173 310.054 60.8223 310.161 61.193 310.374C61.568 310.582 61.8535 310.821 62.0495 311.089C62.2498 311.354 62.4054 311.571 62.5162 311.741H62.644V306.909H64.1525V320H62.6951V318.491H62.5162C62.4054 318.67 62.2477 318.896 62.0431 319.169C61.8386 319.437 61.5467 319.678 61.1674 319.891C60.7882 320.1 60.2832 320.205 59.6525 320.205ZM59.8571 318.849C60.4622 318.849 60.9735 318.692 61.3912 318.376C61.8088 318.057 62.1262 317.616 62.3436 317.053C62.5609 316.487 62.6696 315.832 62.6696 315.091C62.6696 314.358 62.563 313.717 62.35 313.167C62.1369 312.613 61.8216 312.183 61.4039 311.876C60.9863 311.565 60.4707 311.409 59.8571 311.409C59.2179 311.409 58.6852 311.573 58.2591 311.901C57.8372 312.225 57.5197 312.666 57.3066 313.224C57.0978 313.778 56.9934 314.401 56.9934 315.091C56.9934 315.79 57.1 316.425 57.313 316.996C57.5304 317.562 57.85 318.014 58.2718 318.351C58.698 318.683 59.2264 318.849 59.8571 318.849ZM73.3123 315.986V310.182H74.8208V320H73.3123V318.338H73.2101C72.9799 318.837 72.622 319.261 72.1362 319.61C71.6504 319.955 71.0368 320.128 70.2953 320.128C69.6816 320.128 69.1362 319.994 68.6589 319.725C68.1816 319.452 67.8066 319.043 67.5339 318.498C67.2612 317.948 67.1248 317.256 67.1248 316.42V310.182H68.6333V316.318C68.6333 317.034 68.8336 317.605 69.2342 318.031C69.639 318.457 70.1547 318.67 70.7811 318.67C71.1561 318.67 71.5375 318.575 71.9252 318.383C72.3173 318.191 72.6454 317.897 72.9096 317.501C73.1781 317.104 73.3123 316.599 73.3123 315.986ZM81.5724 320.205C80.652 320.205 79.8594 319.987 79.1946 319.553C78.5298 319.118 78.0185 318.519 77.6605 317.756C77.3026 316.994 77.1236 316.122 77.1236 315.142C77.1236 314.145 77.3068 313.265 77.6733 312.502C78.044 311.735 78.5597 311.136 79.2202 310.706C79.8849 310.271 80.6605 310.054 81.5469 310.054C82.2372 310.054 82.8594 310.182 83.4134 310.438C83.9673 310.693 84.4212 311.051 84.7749 311.511C85.1286 311.972 85.348 312.509 85.4332 313.122H83.9247C83.8097 312.675 83.554 312.278 83.1577 311.933C82.7656 311.584 82.2372 311.409 81.5724 311.409C80.9844 311.409 80.4688 311.562 80.0256 311.869C79.5866 312.172 79.2436 312.6 78.9964 313.154C78.7536 313.704 78.6321 314.349 78.6321 315.091C78.6321 315.849 78.7514 316.51 78.9901 317.072C79.233 317.635 79.5739 318.072 80.0128 318.383C80.456 318.694 80.9759 318.849 81.5724 318.849C81.9645 318.849 82.3203 318.781 82.6399 318.645C82.9595 318.509 83.2301 318.312 83.4517 318.057C83.6733 317.801 83.831 317.494 83.9247 317.136H85.4332C85.348 317.716 85.1371 318.238 84.8004 318.702C84.468 319.163 84.027 319.529 83.4773 319.802C82.9318 320.07 82.2969 320.205 81.5724 320.205ZM91.9084 310.182V311.46H86.8203V310.182H91.9084ZM88.3033 307.83H89.8118V317.188C89.8118 317.614 89.8736 317.933 89.9972 318.146C90.125 318.355 90.2869 318.496 90.483 318.568C90.6832 318.636 90.8942 318.67 91.1158 318.67C91.282 318.67 91.4183 318.662 91.5249 318.645C91.6314 318.624 91.7166 318.607 91.7805 318.594L92.0874 319.949C91.9851 319.987 91.8423 320.026 91.6591 320.064C91.4759 320.107 91.2436 320.128 90.9624 320.128C90.5362 320.128 90.1186 320.036 89.7095 319.853C89.3047 319.67 88.968 319.391 88.6996 319.016C88.4354 318.641 88.3033 318.168 88.3033 317.597V307.83ZM103.51 310.182V311.46H98.4219V310.182H103.51ZM99.9048 307.83H101.413V317.188C101.413 317.614 101.475 317.933 101.599 318.146C101.727 318.355 101.888 318.496 102.085 318.568C102.285 318.636 102.496 318.67 102.717 318.67C102.884 318.67 103.02 318.662 103.126 318.645C103.233 318.624 103.318 318.607 103.382 318.594L103.689 319.949C103.587 319.987 103.444 320.026 103.261 320.064C103.077 320.107 102.845 320.128 102.564 320.128C102.138 320.128 101.72 320.036 101.311 319.853C100.906 319.67 100.57 319.391 100.301 319.016C100.037 318.641 99.9048 318.168 99.9048 317.597V307.83ZM105.779 320V310.182H107.288V320H105.779ZM106.546 308.545C106.252 308.545 105.999 308.445 105.786 308.245C105.577 308.045 105.472 307.804 105.472 307.523C105.472 307.241 105.577 307.001 105.786 306.8C105.999 306.6 106.252 306.5 106.546 306.5C106.84 306.5 107.092 306.6 107.3 306.8C107.513 307.001 107.62 307.241 107.62 307.523C107.62 307.804 107.513 308.045 107.3 308.245C107.092 308.445 106.84 308.545 106.546 308.545ZM114.32 310.182V311.46H109.232V310.182H114.32ZM110.715 307.83H112.224V317.188C112.224 317.614 112.286 317.933 112.409 318.146C112.537 318.355 112.699 318.496 112.895 318.568C113.095 318.636 113.306 318.67 113.528 318.67C113.694 318.67 113.83 318.662 113.937 318.645C114.044 318.624 114.129 318.607 114.193 318.594L114.499 319.949C114.397 319.987 114.254 320.026 114.071 320.064C113.888 320.107 113.656 320.128 113.374 320.128C112.948 320.128 112.531 320.036 112.122 319.853C111.717 319.67 111.38 319.391 111.112 319.016C110.847 318.641 110.715 318.168 110.715 317.597V307.83ZM118.309 306.909V320H116.801V306.909H118.309ZM125.189 320.205C124.243 320.205 123.426 319.996 122.74 319.578C122.059 319.156 121.532 318.568 121.162 317.814C120.795 317.055 120.612 316.173 120.612 315.168C120.612 314.162 120.795 313.276 121.162 312.509C121.532 311.737 122.048 311.136 122.708 310.706C123.373 310.271 124.149 310.054 125.035 310.054C125.547 310.054 126.051 310.139 126.55 310.31C127.049 310.48 127.502 310.757 127.912 311.141C128.321 311.52 128.647 312.023 128.89 312.649C129.132 313.276 129.254 314.047 129.254 314.963V315.602H121.686V314.298H127.72C127.72 313.744 127.609 313.25 127.387 312.815C127.17 312.381 126.859 312.038 126.454 311.786C126.054 311.535 125.581 311.409 125.035 311.409C124.434 311.409 123.914 311.558 123.475 311.857C123.041 312.151 122.706 312.534 122.472 313.007C122.238 313.48 122.12 313.987 122.12 314.528V315.398C122.12 316.139 122.248 316.768 122.504 317.283C122.764 317.795 123.124 318.185 123.584 318.453C124.044 318.717 124.579 318.849 125.189 318.849C125.585 318.849 125.943 318.794 126.262 318.683C126.586 318.568 126.865 318.398 127.1 318.172C127.334 317.942 127.515 317.656 127.643 317.315L129.1 317.724C128.947 318.219 128.689 318.653 128.327 319.028C127.965 319.399 127.517 319.689 126.985 319.898C126.452 320.102 125.853 320.205 125.189 320.205Z" fill="#C8C9D0"/>
<path d="M32.6719 334.493C32.6188 334.022 32.4001 333.658 32.0156 333.399C31.6312 333.137 31.1473 333.006 30.5639 333.006C30.1463 333.006 29.785 333.073 29.4801 333.205C29.1752 333.335 28.9382 333.513 28.7692 333.742C28.6035 333.968 28.5206 334.224 28.5206 334.513C28.5206 334.755 28.5769 334.964 28.6896 335.139C28.8056 335.315 28.9564 335.462 29.142 335.582C29.331 335.698 29.5331 335.795 29.7486 335.875C29.964 335.951 30.1712 336.014 30.37 336.064L31.3643 336.322C31.6892 336.402 32.0223 336.51 32.3636 336.646C32.705 336.781 33.0215 336.96 33.3132 337.183C33.6049 337.405 33.8402 337.68 34.0192 338.008C34.2015 338.336 34.2926 338.729 34.2926 339.186C34.2926 339.763 34.1435 340.275 33.8452 340.722C33.5502 341.17 33.121 341.523 32.5575 341.781C31.9974 342.04 31.3196 342.169 30.5241 342.169C29.7618 342.169 29.1023 342.048 28.5455 341.806C27.9886 341.564 27.5528 341.221 27.2379 340.777C26.9231 340.33 26.7491 339.799 26.7159 339.186H28.2571C28.2869 339.554 28.4063 339.861 28.6151 340.106C28.8272 340.348 29.0973 340.528 29.4254 340.648C29.7569 340.764 30.1198 340.822 30.5142 340.822C30.9484 340.822 31.3345 340.754 31.6726 340.618C32.014 340.479 32.2824 340.286 32.478 340.041C32.6735 339.793 32.7713 339.503 32.7713 339.171C32.7713 338.87 32.6851 338.623 32.5128 338.43C32.3438 338.238 32.1134 338.079 31.8217 337.953C31.5334 337.827 31.2069 337.716 30.8423 337.62L29.6392 337.292C28.8239 337.07 28.1776 336.743 27.7003 336.312C27.2263 335.882 26.9893 335.312 26.9893 334.602C26.9893 334.016 27.1484 333.504 27.4666 333.066C27.7848 332.629 28.2157 332.289 28.7592 332.047C29.3028 331.802 29.916 331.679 30.5987 331.679C31.2881 331.679 31.8963 331.8 32.4233 332.042C32.9536 332.284 33.3712 332.617 33.6761 333.041C33.9811 333.462 34.1402 333.946 34.1534 334.493H32.6719ZM37.4956 337.466V342H36.0091V331.818H37.4757V335.607H37.5701C37.7491 335.196 38.0225 334.869 38.3904 334.627C38.7583 334.385 39.2389 334.264 39.8322 334.264C40.3559 334.264 40.8133 334.372 41.2044 334.587C41.5988 334.803 41.9037 335.124 42.1191 335.552C42.3379 335.976 42.4473 336.506 42.4473 337.143V342H40.9608V337.322C40.9608 336.762 40.8166 336.327 40.5282 336.019C40.2399 335.708 39.8388 335.552 39.3251 335.552C38.9738 335.552 38.6589 335.626 38.3805 335.776C38.1054 335.925 37.8883 336.143 37.7292 336.432C37.5734 336.717 37.4956 337.062 37.4956 337.466ZM47.6475 342.154C46.9316 342.154 46.3069 341.99 45.7733 341.662C45.2396 341.334 44.8253 340.875 44.5304 340.285C44.2354 339.695 44.0879 339.005 44.0879 338.217C44.0879 337.424 44.2354 336.732 44.5304 336.138C44.8253 335.545 45.2396 335.085 45.7733 334.756C46.3069 334.428 46.9316 334.264 47.6475 334.264C48.3635 334.264 48.9882 334.428 49.5218 334.756C50.0555 335.085 50.4698 335.545 50.7647 336.138C51.0597 336.732 51.2072 337.424 51.2072 338.217C51.2072 339.005 51.0597 339.695 50.7647 340.285C50.4698 340.875 50.0555 341.334 49.5218 341.662C48.9882 341.99 48.3635 342.154 47.6475 342.154ZM47.6525 340.906C48.1165 340.906 48.501 340.784 48.8059 340.538C49.1109 340.293 49.3362 339.967 49.4821 339.559C49.6312 339.151 49.7058 338.702 49.7058 338.212C49.7058 337.724 49.6312 337.277 49.4821 336.869C49.3362 336.458 49.1109 336.129 48.8059 335.88C48.501 335.631 48.1165 335.507 47.6525 335.507C47.1852 335.507 46.7974 335.631 46.4892 335.88C46.1842 336.129 45.9572 336.458 45.8081 336.869C45.6622 337.277 45.5893 337.724 45.5893 338.212C45.5893 338.702 45.6622 339.151 45.8081 339.559C45.9572 339.967 46.1842 340.293 46.4892 340.538C46.7974 340.784 47.1852 340.906 47.6525 340.906ZM52.8665 342V334.364H54.3033V335.577H54.3828C54.522 335.166 54.7673 334.843 55.1186 334.607C55.4732 334.369 55.8743 334.249 56.3217 334.249C56.4145 334.249 56.5239 334.253 56.6499 334.259C56.7791 334.266 56.8802 334.274 56.9531 334.284V335.706C56.8935 335.689 56.7874 335.671 56.6349 335.651C56.4825 335.628 56.33 335.616 56.1776 335.616C55.8262 335.616 55.513 335.691 55.2379 335.84C54.9661 335.986 54.7507 336.19 54.5916 336.452C54.4325 336.71 54.353 337.005 54.353 337.337V342H52.8665ZM62.2553 334.364V335.557H58.0842V334.364H62.2553ZM59.2028 332.534H60.6893V339.758C60.6893 340.046 60.7324 340.263 60.8185 340.409C60.9047 340.552 61.0157 340.649 61.1516 340.702C61.2908 340.752 61.4416 340.777 61.604 340.777C61.7234 340.777 61.8278 340.769 61.9173 340.752C62.0067 340.736 62.0763 340.722 62.1261 340.712L62.3945 341.94C62.3084 341.973 62.1857 342.007 62.0266 342.04C61.8675 342.076 61.6687 342.096 61.43 342.099C61.0389 342.106 60.6744 342.036 60.3363 341.891C59.9982 341.745 59.7248 341.519 59.516 341.214C59.3072 340.91 59.2028 340.527 59.2028 340.066V332.534ZM70.4634 342.149C69.8469 342.149 69.2968 341.992 68.8129 341.677C68.3323 341.359 67.9544 340.906 67.6793 340.32C67.4076 339.73 67.2717 339.022 67.2717 338.197C67.2717 337.371 67.4092 336.665 67.6843 336.079C67.9627 335.492 68.3439 335.043 68.8278 334.732C69.3117 334.42 69.8602 334.264 70.4734 334.264C70.9473 334.264 71.3285 334.344 71.6168 334.503C71.9085 334.659 72.1339 334.841 72.293 335.05C72.4554 335.259 72.5813 335.442 72.6708 335.602H72.7603V331.818H74.2468V342H72.7951V340.812H72.6708C72.5813 340.974 72.4521 341.16 72.283 341.369C72.1173 341.577 71.8886 341.76 71.5969 341.915C71.3053 342.071 70.9274 342.149 70.4634 342.149ZM70.7915 340.881C71.2191 340.881 71.5804 340.769 71.8754 340.543C72.1737 340.315 72.399 339.998 72.5515 339.594C72.7073 339.189 72.7852 338.719 72.7852 338.182C72.7852 337.652 72.7089 337.187 72.5565 336.79C72.404 336.392 72.1803 336.082 71.8853 335.86C71.5903 335.638 71.2257 335.527 70.7915 335.527C70.3441 335.527 69.9712 335.643 69.6729 335.875C69.3746 336.107 69.1493 336.424 68.9968 336.825C68.8477 337.226 68.7731 337.678 68.7731 338.182C68.7731 338.692 68.8493 339.151 69.0018 339.559C69.1542 339.967 69.3796 340.29 69.6779 340.528C69.9795 340.764 70.3507 340.881 70.7915 340.881ZM79.6596 342.154C78.9073 342.154 78.2593 341.993 77.7157 341.672C77.1755 341.347 76.7579 340.891 76.4629 340.305C76.1712 339.715 76.0254 339.024 76.0254 338.232C76.0254 337.449 76.1712 336.76 76.4629 336.163C76.7579 335.567 77.1689 335.101 77.6958 334.766C78.2261 334.432 78.8459 334.264 79.5552 334.264C79.9861 334.264 80.4037 334.335 80.8081 334.478C81.2124 334.621 81.5753 334.844 81.8968 335.149C82.2183 335.454 82.4719 335.85 82.6575 336.337C82.8431 336.821 82.9359 337.41 82.9359 338.102V338.629H76.8656V337.516H81.4792C81.4792 337.125 81.3997 336.778 81.2406 336.477C81.0815 336.172 80.8578 335.931 80.5694 335.756C80.2844 335.58 79.9496 335.492 79.5652 335.492C79.1475 335.492 78.783 335.595 78.4714 335.8C78.1632 336.003 77.9245 336.268 77.7555 336.596C77.5898 336.921 77.5069 337.274 77.5069 337.655V338.525C77.5069 339.035 77.5964 339.469 77.7754 339.827C77.9577 340.185 78.2112 340.459 78.536 340.648C78.8609 340.833 79.2404 340.926 79.6745 340.926C79.9563 340.926 80.2131 340.886 80.4451 340.807C80.6771 340.724 80.8777 340.601 81.0467 340.439C81.2157 340.277 81.345 340.076 81.4345 339.837L82.8414 340.091C82.7288 340.505 82.5266 340.868 82.2349 341.18C81.9466 341.488 81.5836 341.728 81.1461 341.901C80.7119 342.07 80.2164 342.154 79.6596 342.154ZM90.3075 336.228L88.9602 336.467C88.9039 336.294 88.8144 336.13 88.6918 335.974C88.5724 335.819 88.41 335.691 88.2045 335.592C87.9991 335.492 87.7422 335.442 87.4339 335.442C87.013 335.442 86.6617 335.537 86.38 335.726C86.0982 335.911 85.9574 336.152 85.9574 336.447C85.9574 336.702 86.0518 336.907 86.2408 337.063C86.4297 337.219 86.7346 337.347 87.1555 337.446L88.3686 337.724C89.0713 337.887 89.5949 338.137 89.9396 338.475C90.2843 338.813 90.4567 339.252 90.4567 339.793C90.4567 340.25 90.3241 340.658 90.0589 341.016C89.7971 341.37 89.4309 341.649 88.9602 341.851C88.4929 342.053 87.951 342.154 87.3345 342.154C86.4794 342.154 85.7817 341.972 85.2415 341.607C84.7012 341.239 84.3698 340.717 84.2472 340.041L85.6839 339.822C85.7734 340.197 85.9574 340.48 86.2358 340.673C86.5142 340.862 86.8771 340.956 87.3246 340.956C87.8118 340.956 88.2012 340.855 88.4929 340.653C88.7846 340.447 88.9304 340.197 88.9304 339.902C88.9304 339.663 88.8409 339.463 88.6619 339.3C88.4863 339.138 88.2161 339.015 87.8516 338.933L86.5589 338.649C85.8464 338.487 85.3194 338.228 84.978 337.874C84.6399 337.519 84.4709 337.07 84.4709 336.526C84.4709 336.076 84.5968 335.681 84.8487 335.343C85.1006 335.005 85.4486 334.741 85.8928 334.553C86.3369 334.36 86.8456 334.264 87.419 334.264C88.2443 334.264 88.8939 334.443 89.3679 334.801C89.8419 335.156 90.1551 335.631 90.3075 336.228ZM95.3077 342.154C94.5686 342.154 93.9322 341.987 93.3986 341.652C92.8683 341.314 92.4606 340.848 92.1756 340.255C91.8906 339.662 91.748 338.982 91.748 338.217C91.748 337.441 91.8939 336.757 92.1855 336.163C92.4772 335.567 92.8882 335.101 93.4185 334.766C93.9488 334.432 94.5736 334.264 95.2928 334.264C95.8728 334.264 96.3899 334.372 96.8439 334.587C97.298 334.799 97.6642 335.098 97.9426 335.482C98.2244 335.867 98.3917 336.316 98.4448 336.83H96.998C96.9185 336.472 96.7362 336.163 96.4512 335.905C96.1694 335.646 95.7916 335.517 95.3176 335.517C94.9034 335.517 94.5404 335.626 94.2289 335.845C93.9206 336.061 93.6803 336.369 93.508 336.77C93.3356 337.168 93.2495 337.638 93.2495 338.182C93.2495 338.739 93.334 339.219 93.503 339.624C93.6721 340.028 93.9107 340.341 94.2189 340.563C94.5305 340.785 94.8967 340.896 95.3176 340.896C95.5994 340.896 95.8546 340.845 96.0833 340.742C96.3153 340.636 96.5092 340.485 96.665 340.29C96.824 340.094 96.9351 339.859 96.998 339.584H98.4448C98.3917 340.078 98.231 340.518 97.9625 340.906C97.6941 341.294 97.3345 341.599 96.8837 341.821C96.4363 342.043 95.9109 342.154 95.3077 342.154ZM100.034 342V334.364H101.471V335.577H101.551C101.69 335.166 101.935 334.843 102.287 334.607C102.641 334.369 103.042 334.249 103.49 334.249C103.583 334.249 103.692 334.253 103.818 334.259C103.947 334.266 104.048 334.274 104.121 334.284V335.706C104.061 335.689 103.955 335.671 103.803 335.651C103.65 335.628 103.498 335.616 103.346 335.616C102.994 335.616 102.681 335.691 102.406 335.84C102.134 335.986 101.919 336.19 101.76 336.452C101.6 336.71 101.521 337.005 101.521 337.337V342H100.034ZM105.407 342V334.364H106.894V342H105.407ZM106.158 333.185C105.9 333.185 105.678 333.099 105.492 332.927C105.31 332.751 105.219 332.542 105.219 332.3C105.219 332.055 105.31 331.846 105.492 331.674C105.678 331.498 105.9 331.411 106.158 331.411C106.417 331.411 106.637 331.498 106.819 331.674C107.005 331.846 107.098 332.055 107.098 332.3C107.098 332.542 107.005 332.751 106.819 332.927C106.637 333.099 106.417 333.185 106.158 333.185ZM108.894 344.864V334.364H110.346V335.602H110.47C110.556 335.442 110.68 335.259 110.843 335.05C111.005 334.841 111.23 334.659 111.519 334.503C111.807 334.344 112.188 334.264 112.662 334.264C113.279 334.264 113.829 334.42 114.313 334.732C114.797 335.043 115.176 335.492 115.451 336.079C115.73 336.665 115.869 337.371 115.869 338.197C115.869 339.022 115.731 339.73 115.456 340.32C115.181 340.906 114.803 341.359 114.323 341.677C113.842 341.992 113.294 342.149 112.677 342.149C112.213 342.149 111.834 342.071 111.539 341.915C111.247 341.76 111.018 341.577 110.853 341.369C110.687 341.16 110.559 340.974 110.47 340.812H110.38V344.864H108.894ZM110.35 338.182C110.35 338.719 110.428 339.189 110.584 339.594C110.74 339.998 110.965 340.315 111.26 340.543C111.555 340.769 111.917 340.881 112.344 340.881C112.788 340.881 113.159 340.764 113.458 340.528C113.756 340.29 113.981 339.967 114.134 339.559C114.29 339.151 114.368 338.692 114.368 338.182C114.368 337.678 114.291 337.226 114.139 336.825C113.99 336.424 113.764 336.107 113.463 335.875C113.164 335.643 112.792 335.527 112.344 335.527C111.913 335.527 111.549 335.638 111.25 335.86C110.955 336.082 110.732 336.392 110.579 336.79C110.427 337.187 110.35 337.652 110.35 338.182ZM121.099 334.364V335.557H116.928V334.364H121.099ZM118.047 332.534H119.533V339.758C119.533 340.046 119.576 340.263 119.662 340.409C119.748 340.552 119.859 340.649 119.995 340.702C120.135 340.752 120.285 340.777 120.448 340.777C120.567 340.777 120.672 340.769 120.761 340.752C120.85 340.736 120.92 340.722 120.97 340.712L121.238 341.94C121.152 341.973 121.029 342.007 120.87 342.04C120.711 342.076 120.512 342.096 120.274 342.099C119.883 342.106 119.518 342.036 119.18 341.891C118.842 341.745 118.569 341.519 118.36 341.214C118.151 340.91 118.047 340.527 118.047 340.066V332.534ZM122.743 342V334.364H124.23V342H122.743ZM123.494 333.185C123.236 333.185 123.014 333.099 122.828 332.927C122.646 332.751 122.555 332.542 122.555 332.3C122.555 332.055 122.646 331.846 122.828 331.674C123.014 331.498 123.236 331.411 123.494 331.411C123.753 331.411 123.973 331.498 124.155 331.674C124.341 331.846 124.434 332.055 124.434 332.3C124.434 332.542 124.341 332.751 124.155 332.927C123.973 333.099 123.753 333.185 123.494 333.185ZM129.446 342.154C128.73 342.154 128.106 341.99 127.572 341.662C127.038 341.334 126.624 340.875 126.329 340.285C126.034 339.695 125.887 339.005 125.887 338.217C125.887 337.424 126.034 336.732 126.329 336.138C126.624 335.545 127.038 335.085 127.572 334.756C128.106 334.428 128.73 334.264 129.446 334.264C130.162 334.264 130.787 334.428 131.321 334.756C131.854 335.085 132.269 335.545 132.564 336.138C132.859 336.732 133.006 337.424 133.006 338.217C133.006 339.005 132.859 339.695 132.564 340.285C132.269 340.875 131.854 341.334 131.321 341.662C130.787 341.99 130.162 342.154 129.446 342.154ZM129.451 340.906C129.915 340.906 130.3 340.784 130.605 340.538C130.91 340.293 131.135 339.967 131.281 339.559C131.43 339.151 131.505 338.702 131.505 338.212C131.505 337.724 131.43 337.277 131.281 336.869C131.135 336.458 130.91 336.129 130.605 335.88C130.3 335.631 129.915 335.507 129.451 335.507C128.984 335.507 128.596 335.631 128.288 335.88C127.983 336.129 127.756 336.458 127.607 336.869C127.461 337.277 127.388 337.724 127.388 338.212C127.388 338.702 127.461 339.151 127.607 339.559C127.756 339.967 127.983 340.293 128.288 340.538C128.596 340.784 128.984 340.906 129.451 340.906ZM136.152 337.466V342H134.665V334.364H136.092V335.607H136.187C136.362 335.202 136.637 334.877 137.012 334.632C137.39 334.387 137.865 334.264 138.439 334.264C138.959 334.264 139.415 334.374 139.806 334.592C140.197 334.808 140.5 335.129 140.716 335.557C140.931 335.984 141.039 336.513 141.039 337.143V342H139.552V337.322C139.552 336.768 139.408 336.336 139.12 336.024C138.831 335.709 138.435 335.552 137.932 335.552C137.587 335.552 137.28 335.626 137.012 335.776C136.747 335.925 136.536 336.143 136.381 336.432C136.228 336.717 136.152 337.062 136.152 337.466ZM149.939 345.023C149.333 345.023 148.811 344.943 148.373 344.784C147.939 344.625 147.584 344.415 147.309 344.153C147.034 343.891 146.829 343.604 146.693 343.293L147.971 342.766C148.06 342.911 148.179 343.066 148.328 343.228C148.481 343.394 148.686 343.535 148.945 343.651C149.207 343.767 149.543 343.825 149.954 343.825C150.518 343.825 150.983 343.687 151.351 343.412C151.719 343.14 151.903 342.706 151.903 342.109V340.608H151.809C151.719 340.77 151.59 340.951 151.421 341.15C151.255 341.349 151.026 341.521 150.735 341.667C150.443 341.813 150.064 341.886 149.596 341.886C148.993 341.886 148.449 341.745 147.966 341.463C147.485 341.178 147.104 340.759 146.822 340.205C146.544 339.648 146.404 338.964 146.404 338.152C146.404 337.34 146.542 336.644 146.817 336.064C147.096 335.484 147.477 335.04 147.961 334.732C148.444 334.42 148.993 334.264 149.606 334.264C150.08 334.264 150.463 334.344 150.755 334.503C151.046 334.659 151.273 334.841 151.436 335.05C151.601 335.259 151.729 335.442 151.819 335.602H151.928V334.364H153.385V342.169C153.385 342.825 153.232 343.364 152.927 343.785C152.622 344.206 152.21 344.517 151.689 344.719C151.172 344.922 150.589 345.023 149.939 345.023ZM149.924 340.653C150.352 340.653 150.713 340.553 151.008 340.354C151.306 340.152 151.532 339.864 151.684 339.489C151.84 339.112 151.918 338.659 151.918 338.132C151.918 337.618 151.842 337.166 151.689 336.775C151.537 336.384 151.313 336.079 151.018 335.86C150.723 335.638 150.359 335.527 149.924 335.527C149.477 335.527 149.104 335.643 148.806 335.875C148.507 336.104 148.282 336.415 148.13 336.81C147.98 337.204 147.906 337.645 147.906 338.132C147.906 338.633 147.982 339.072 148.135 339.45C148.287 339.827 148.512 340.122 148.811 340.335C149.112 340.547 149.484 340.653 149.924 340.653ZM158.595 342.154C157.879 342.154 157.254 341.99 156.721 341.662C156.187 341.334 155.773 340.875 155.478 340.285C155.183 339.695 155.035 339.005 155.035 338.217C155.035 337.424 155.183 336.732 155.478 336.138C155.773 335.545 156.187 335.085 156.721 334.756C157.254 334.428 157.879 334.264 158.595 334.264C159.311 334.264 159.935 334.428 160.469 334.756C161.003 335.085 161.417 335.545 161.712 336.138C162.007 336.732 162.154 337.424 162.154 338.217C162.154 339.005 162.007 339.695 161.712 340.285C161.417 340.875 161.003 341.334 160.469 341.662C159.935 341.99 159.311 342.154 158.595 342.154ZM158.6 340.906C159.064 340.906 159.448 340.784 159.753 340.538C160.058 340.293 160.283 339.967 160.429 339.559C160.578 339.151 160.653 338.702 160.653 338.212C160.653 337.724 160.578 337.277 160.429 336.869C160.283 336.458 160.058 336.129 159.753 335.88C159.448 335.631 159.064 335.507 158.6 335.507C158.132 335.507 157.745 335.631 157.436 335.88C157.132 336.129 156.904 336.458 156.755 336.869C156.609 337.277 156.537 337.724 156.537 338.212C156.537 338.702 156.609 339.151 156.755 339.559C156.904 339.967 157.132 340.293 157.436 340.538C157.745 340.784 158.132 340.906 158.6 340.906ZM167.105 342.154C166.353 342.154 165.705 341.993 165.161 341.672C164.621 341.347 164.203 340.891 163.908 340.305C163.617 339.715 163.471 339.024 163.471 338.232C163.471 337.449 163.617 336.76 163.908 336.163C164.203 335.567 164.614 335.101 165.141 334.766C165.671 334.432 166.291 334.264 167.001 334.264C167.431 334.264 167.849 334.335 168.253 334.478C168.658 334.621 169.021 334.844 169.342 335.149C169.664 335.454 169.917 335.85 170.103 336.337C170.288 336.821 170.381 337.41 170.381 338.102V338.629H164.311V337.516H168.925C168.925 337.125 168.845 336.778 168.686 336.477C168.527 336.172 168.303 335.931 168.015 335.756C167.73 335.58 167.395 335.492 167.01 335.492C166.593 335.492 166.228 335.595 165.917 335.8C165.608 336.003 165.37 336.268 165.201 336.596C165.035 336.921 164.952 337.274 164.952 337.655V338.525C164.952 339.035 165.042 339.469 165.221 339.827C165.403 340.185 165.657 340.459 165.981 340.648C166.306 340.833 166.686 340.926 167.12 340.926C167.402 340.926 167.658 340.886 167.89 340.807C168.122 340.724 168.323 340.601 168.492 340.439C168.661 340.277 168.79 340.076 168.88 339.837L170.287 340.091C170.174 340.505 169.972 340.868 169.68 341.18C169.392 341.488 169.029 341.728 168.591 341.901C168.157 342.07 167.662 342.154 167.105 342.154ZM177.753 336.228L176.406 336.467C176.349 336.294 176.26 336.13 176.137 335.974C176.018 335.819 175.855 335.691 175.65 335.592C175.444 335.492 175.188 335.442 174.879 335.442C174.458 335.442 174.107 335.537 173.825 335.726C173.544 335.911 173.403 336.152 173.403 336.447C173.403 336.702 173.497 336.907 173.686 337.063C173.875 337.219 174.18 337.347 174.601 337.446L175.814 337.724C176.517 337.887 177.04 338.137 177.385 338.475C177.73 338.813 177.902 339.252 177.902 339.793C177.902 340.25 177.769 340.658 177.504 341.016C177.242 341.37 176.876 341.649 176.406 341.851C175.938 342.053 175.396 342.154 174.78 342.154C173.925 342.154 173.227 341.972 172.687 341.607C172.147 341.239 171.815 340.717 171.692 340.041L173.129 339.822C173.219 340.197 173.403 340.48 173.681 340.673C173.96 340.862 174.322 340.956 174.77 340.956C175.257 340.956 175.647 340.855 175.938 340.653C176.23 340.447 176.376 340.197 176.376 339.902C176.376 339.663 176.286 339.463 176.107 339.3C175.932 339.138 175.661 339.015 175.297 338.933L174.004 338.649C173.292 338.487 172.765 338.228 172.423 337.874C172.085 337.519 171.916 337.07 171.916 336.526C171.916 336.076 172.042 335.681 172.294 335.343C172.546 335.005 172.894 334.741 173.338 334.553C173.782 334.36 174.291 334.264 174.864 334.264C175.69 334.264 176.339 334.443 176.813 334.801C177.287 335.156 177.6 335.631 177.753 336.228ZM184.728 337.466V342H183.241V331.818H184.708V335.607H184.803C184.982 335.196 185.255 334.869 185.623 334.627C185.991 334.385 186.471 334.264 187.065 334.264C187.588 334.264 188.046 334.372 188.437 334.587C188.831 334.803 189.136 335.124 189.352 335.552C189.57 335.976 189.68 336.506 189.68 337.143V342H188.193V337.322C188.193 336.762 188.049 336.327 187.761 336.019C187.472 335.708 187.071 335.552 186.558 335.552C186.206 335.552 185.891 335.626 185.613 335.776C185.338 335.925 185.121 336.143 184.962 336.432C184.806 336.717 184.728 337.062 184.728 337.466ZM194.955 342.154C194.202 342.154 193.554 341.993 193.011 341.672C192.47 341.347 192.053 340.891 191.758 340.305C191.466 339.715 191.32 339.024 191.32 338.232C191.32 337.449 191.466 336.76 191.758 336.163C192.053 335.567 192.464 335.101 192.991 334.766C193.521 334.432 194.141 334.264 194.85 334.264C195.281 334.264 195.699 334.335 196.103 334.478C196.507 334.621 196.87 334.844 197.192 335.149C197.513 335.454 197.767 335.85 197.952 336.337C198.138 336.821 198.231 337.41 198.231 338.102V338.629H192.161V337.516H196.774C196.774 337.125 196.695 336.778 196.536 336.477C196.376 336.172 196.153 335.931 195.864 335.756C195.579 335.58 195.245 335.492 194.86 335.492C194.442 335.492 194.078 335.595 193.766 335.8C193.458 336.003 193.219 336.268 193.05 336.596C192.885 336.921 192.802 337.274 192.802 337.655V338.525C192.802 339.035 192.891 339.469 193.07 339.827C193.253 340.185 193.506 340.459 193.831 340.648C194.156 340.833 194.535 340.926 194.969 340.926C195.251 340.926 195.508 340.886 195.74 340.807C195.972 340.724 196.173 340.601 196.342 340.439C196.511 340.277 196.64 340.076 196.729 339.837L198.136 340.091C198.024 340.505 197.821 340.868 197.53 341.18C197.241 341.488 196.879 341.728 196.441 341.901C196.007 342.07 195.511 342.154 194.955 342.154ZM199.88 342V334.364H201.317V335.577H201.396C201.536 335.166 201.781 334.843 202.132 334.607C202.487 334.369 202.888 334.249 203.335 334.249C203.428 334.249 203.538 334.253 203.664 334.259C203.793 334.266 203.894 334.274 203.967 334.284V335.706C203.907 335.689 203.801 335.671 203.649 335.651C203.496 335.628 203.344 335.616 203.191 335.616C202.84 335.616 202.527 335.691 202.252 335.84C201.98 335.986 201.764 336.19 201.605 336.452C201.446 336.71 201.367 337.005 201.367 337.337V342H199.88ZM208.271 342.154C207.519 342.154 206.871 341.993 206.327 341.672C205.787 341.347 205.369 340.891 205.074 340.305C204.783 339.715 204.637 339.024 204.637 338.232C204.637 337.449 204.783 336.76 205.074 336.163C205.369 335.567 205.78 335.101 206.307 334.766C206.837 334.432 207.457 334.264 208.167 334.264C208.597 334.264 209.015 334.335 209.419 334.478C209.824 334.621 210.187 334.844 210.508 335.149C210.83 335.454 211.083 335.85 211.269 336.337C211.454 336.821 211.547 337.41 211.547 338.102V338.629H205.477V337.516H210.091C210.091 337.125 210.011 336.778 209.852 336.477C209.693 336.172 209.469 335.931 209.181 335.756C208.896 335.58 208.561 335.492 208.176 335.492C207.759 335.492 207.394 335.595 207.083 335.8C206.775 336.003 206.536 336.268 206.367 336.596C206.201 336.921 206.118 337.274 206.118 337.655V338.525C206.118 339.035 206.208 339.469 206.387 339.827C206.569 340.185 206.823 340.459 207.147 340.648C207.472 340.833 207.852 340.926 208.286 340.926C208.568 340.926 208.824 340.886 209.056 340.807C209.288 340.724 209.489 340.601 209.658 340.439C209.827 340.277 209.956 340.076 210.046 339.837L211.453 340.091C211.34 340.505 211.138 340.868 210.846 341.18C210.558 341.488 210.195 341.728 209.757 341.901C209.323 342.07 208.828 342.154 208.271 342.154Z" fill="#868898"/>
<defs>
<linearGradient id="paint0_linear_1_6661" x1="21.1035" y1="8.32668" x2="200.693" y2="361.483" gradientUnits="userSpaceOnUse">
<stop stop-color="#252525"/>
<stop offset="1" stop-color="#101010"/>
</linearGradient>
<linearGradient id="paint1_linear_1_6661" x1="11.6069" y1="-2.1195e-06" x2="122.894" y2="379.821" gradientUnits="userSpaceOnUse">
<stop stop-color="#3E3E3E"/>
<stop offset="1" stop-color="#3E3E3E" stop-opacity="0"/>
</linearGradient>
<clipPath id="clip0_1_6661">
<rect width="280" height="323" fill="white" transform="translate(26 48)"/>
</clipPath>
</defs>
</svg>
