<svg width="35" height="36" viewBox="0 0 35 36" fill="none" xmlns="http://www.w3.org/2000/svg">
<g clip-path="url(#clip0_1_21659)">
<path d="M0 0.5H35V35.5H0V0.5Z" fill="#E0DAFE"/>
<path d="M-10 44.9668L57.3829 44.9668L57.3829 -20.9991L-10 44.9668Z" fill="#1053F3"/>
<path d="M17.7 25.24C16.2867 25.24 15.0733 24.94 14.06 24.34C13.0467 23.7267 12.2667 22.88 11.72 21.8C11.1733 20.7067 10.9 19.4467 10.9 18.02C10.9 16.5933 11.1733 15.3333 11.72 14.24C12.2667 13.1467 13.0467 12.2933 14.06 11.68C15.0733 11.0667 16.2867 10.76 17.7 10.76C19.38 10.76 20.7533 11.18 21.82 12.02C22.9 12.8467 23.5733 14.0133 23.84 15.52H21.02C20.8467 14.76 20.4733 14.1667 19.9 13.74C19.34 13.3 18.5933 13.08 17.66 13.08C16.3667 13.08 15.3533 13.52 14.62 14.4C13.8867 15.28 13.52 16.4867 13.52 18.02C13.52 19.5533 13.8867 20.76 14.62 21.64C15.3533 22.5067 16.3667 22.94 17.66 22.94C18.5933 22.94 19.34 22.74 19.9 22.34C20.4733 21.9267 20.8467 21.36 21.02 20.64H23.84C23.5733 22.08 22.9 23.2067 21.82 24.02C20.7533 24.8333 19.38 25.24 17.7 25.24Z" fill="white"/>
</g>
<defs>
<clipPath id="clip0_1_21659">
<rect y="0.5" width="35" height="35" rx="17.5" fill="white"/>
</clipPath>
</defs>
</svg>
