<svg width="40" height="34" viewBox="0 0 40 34" fill="none" xmlns="http://www.w3.org/2000/svg">
<path d="M0.00208497 33.1952V0.965698H13.6211C9.10715 11.7346 4.6057 22.4763 0.102164 33.2202L0 33.1952H0.00208497Z" fill="#242136"/>
<path d="M23.25 0.949963H36.8586V33.1794L36.7669 33.219C32.2758 22.496 27.7827 11.771 23.25 0.947876V0.949963Z" fill="#242136"/>
<path d="M27.1412 33.5203C25.2481 33.5203 23.4633 33.5328 21.6807 33.4994C21.5306 33.4973 21.3241 33.2179 21.2449 33.024C20.5173 31.2414 19.7834 29.4608 19.1182 27.6573C18.9098 27.0902 18.6179 26.9484 18.0549 26.9609C16.4516 26.9964 14.8441 26.9735 13.2407 26.9735C13.0218 26.9735 12.8029 26.9735 12.4609 26.9735C14.4563 22.2823 16.412 17.687 18.4365 12.9249C21.3658 19.8554 24.2348 26.6461 27.1412 33.5203Z" fill="#242136"/>
<path d="M39.7341 1.9698C39.7383 2.54525 39.2796 3.03313 38.7187 3.04772C38.1433 3.0644 37.6304 2.54733 37.6408 1.96354C37.6491 1.40477 38.1433 0.914795 38.6958 0.914795C39.2566 0.914795 39.732 1.39643 39.7362 1.9698H39.7341ZM38.7125 2.84548C39.167 2.83922 39.5256 2.44517 39.5152 1.96354C39.5047 1.48191 39.1295 1.10244 38.677 1.11287C38.2267 1.12329 37.8576 1.52778 37.868 1.9969C37.8785 2.47018 38.2558 2.84965 38.7125 2.84339V2.84548Z" fill="#242136"/>
<path d="M39.0434 2.59743C38.9079 2.40561 38.8015 2.25341 38.6514 2.04075L38.4075 2.52654L38.3074 2.51403C38.3074 2.24507 38.2657 1.96569 38.3241 1.70924C38.3533 1.57997 38.5784 1.39023 38.6889 1.40691C38.8349 1.42776 39.0455 1.60498 39.0726 1.74468C39.1247 1.99904 39.0601 2.27426 39.0413 2.59743H39.0434Z" fill="#242136"/>
</svg>
