<svg width="36" height="36" viewBox="0 0 36 36" fill="none" xmlns="http://www.w3.org/2000/svg">
<path d="M33.7599 11.3795C33.1119 9.89733 32.2542 8.51605 31.2131 7.27806C29.6742 5.39335 27.7537 3.85601 25.578 2.76723C23.4023 1.67845 21.0207 1.06291 18.5901 0.961127C16.1594 0.859345 13.7348 1.27362 11.4757 2.1767C9.21668 3.07978 7.17444 4.45118 5.48342 6.20064C3.79239 7.95009 2.49094 10.0379 1.6647 12.3268C0.838466 14.6156 0.506186 17.0535 0.689733 19.4801C0.87328 21.9066 1.56849 24.2667 2.72961 26.4052C3.89073 28.5436 5.49143 30.4118 7.42636 31.8868C8.66791 32.8522 10.0398 33.6369 11.5012 34.2178C13.5501 35.0576 15.7429 35.4903 17.9572 35.4915C22.5279 35.4814 26.9081 33.659 30.1377 30.4237C33.3673 27.1884 35.1827 22.8043 35.1861 18.2323C35.1894 15.8739 34.7038 13.5406 33.7599 11.3795ZM17.9445 4.46308C19.9329 4.46287 21.8974 4.8976 23.7002 5.73682C23.2606 5.92683 22.7983 6.05953 22.3249 6.13169C20.7671 6.35726 19.3239 7.08073 18.2108 8.1941C17.0978 9.30747 16.3745 10.751 16.149 12.3093C16.05 13.1833 15.6527 13.9963 15.024 14.6112C14.3953 15.2262 13.5738 15.6053 12.6982 15.6848C11.1403 15.9103 9.69713 16.6338 8.58408 17.7472C7.47102 18.8606 6.74776 20.3041 6.52226 21.8624C6.44591 22.6934 6.09146 23.4743 5.51628 24.0788C4.52388 21.9812 4.07807 19.6667 4.22033 17.3505C4.36259 15.0343 5.0883 12.7917 6.32994 10.8315C7.57157 8.87125 9.28876 7.25706 11.3217 6.13914C13.3547 5.02121 15.6373 4.43587 17.9572 4.4376L17.9445 4.46308ZM7.41362 27.1485C7.56643 27.0084 7.71924 26.881 7.87204 26.7281C9.00491 25.6295 9.73209 24.1792 9.93492 22.6139C10.0172 21.7341 10.4099 20.9123 11.0428 20.2957C11.6518 19.6616 12.4715 19.272 13.3476 19.2003C14.9054 18.9747 16.3486 18.2513 17.4617 17.1379C18.5747 16.0245 19.298 14.5809 19.5235 13.0226C19.5786 12.1024 19.9734 11.2354 20.6313 10.5898C21.2553 9.96801 22.0829 9.59258 22.9616 9.53258C24.3928 9.33562 25.7276 8.69919 26.7818 7.71113C27.9821 8.70729 28.9991 9.90566 29.7869 11.2521C29.7385 11.3175 29.683 11.3774 29.6214 11.4305C29.0136 12.0701 28.1949 12.4683 27.3166 12.5514C25.7571 12.773 24.3118 13.4952 23.198 14.6093C22.0842 15.7234 21.3622 17.1691 21.1407 18.729C21.0509 19.6059 20.6609 20.4248 20.0366 21.0469C19.4123 21.669 18.5922 22.0562 17.7153 22.1427C16.1529 22.3665 14.7043 23.0885 13.5848 24.2015C12.4653 25.3144 11.7346 26.7589 11.5012 28.3203C11.4326 28.9428 11.2189 29.5406 10.8772 30.0654C9.57073 29.2894 8.4006 28.304 7.41362 27.1485ZM17.9445 32.0651C16.6523 32.0665 15.3664 31.8865 14.1243 31.5302C14.5492 30.7379 14.8254 29.8745 14.9393 28.9827C15.0285 28.1077 15.4168 27.2904 16.0385 26.6685C16.6602 26.0466 17.4773 25.6583 18.352 25.569C19.9121 25.346 21.3582 24.6236 22.4737 23.5101C23.5893 22.3965 24.3144 20.9515 24.5406 19.3914C24.6298 18.5164 25.0181 17.6991 25.6398 17.0772C26.2615 16.4553 27.0786 16.067 27.9533 15.9777C29.1273 15.825 30.2464 15.3877 31.2131 14.704C31.7499 16.7393 31.8135 18.8706 31.399 20.9343C30.9845 22.998 30.1029 24.9394 28.8219 26.6094C27.5408 28.2794 25.8944 29.6337 24.0089 30.5683C22.1234 31.503 20.0488 31.9933 17.9445 32.0014V32.0651Z" fill="black"/>
</svg>
