<svg width="32" height="32" viewBox="0 0 32 32" fill="none" xmlns="http://www.w3.org/2000/svg">
<path fill-rule="evenodd" clip-rule="evenodd" d="M0.417969 16C0.417969 7.39358 7.39486 0.416687 16.0013 0.416687C24.6077 0.416687 31.5846 7.39358 31.5846 16C31.5846 24.6065 24.6077 31.5834 16.0013 31.5834C7.39486 31.5834 0.417969 24.6065 0.417969 16ZM17.3763 6.83335C17.3763 6.07396 16.7607 5.45835 16.0013 5.45835C15.2419 5.45835 14.6263 6.07396 14.6263 6.83335V16C14.6263 16.4741 14.8705 16.9148 15.2726 17.166L20.7726 20.6035C21.4165 21.006 22.2648 20.8102 22.6673 20.1663C23.0698 19.5223 22.874 18.674 22.23 18.2715L17.3763 15.2379V6.83335Z" fill="#6A65FF"/>
</svg>
