<svg width="466" height="285" viewBox="0 0 466 285" fill="none" xmlns="http://www.w3.org/2000/svg">
<rect width="130.129" height="128.547" rx="64.2736" fill="white"/>
<rect x="0.692177" y="0.692177" width="128.745" height="127.163" rx="63.5814" stroke="#3E3E3E" stroke-opacity="0.15" stroke-width="1.38435"/>
<path d="M55.5037 59.4255V59.0189C55.5037 57.9882 56.3336 57.1334 57.4031 57.0623L65.1935 56.5449L75.967 72.327V58.4756L73.1939 58.1078V57.9147C73.1939 56.8719 74.0427 56.0114 75.1259 55.9562L82.2143 55.595V56.6097C82.2143 57.0861 81.8582 57.4936 81.3702 57.5757L79.6644 57.8627V80.2946L77.5236 81.027C75.7351 81.6389 73.744 80.9839 72.7202 79.447L62.2611 63.7465V78.7318L65.4804 79.3446L65.4355 79.6417C65.295 80.5722 64.4875 81.2759 63.5106 81.3191L55.5037 81.6736C55.3979 80.6731 56.1517 79.7779 57.1917 79.6692L58.2449 79.5592V59.5788L55.5037 59.4255Z" fill="#242424"/>
<path fill-rule="evenodd" clip-rule="evenodd" d="M74.4735 38.1823L42.3741 40.3624C40.4514 40.493 38.9609 42.0307 38.9609 43.8839V74.9421C38.9609 76.6833 39.5635 78.3751 40.6736 79.7509L47.5947 88.328C48.7137 89.7148 50.4747 90.4784 52.2966 90.3668L87.9234 88.1852C89.7494 88.0734 91.1709 86.6169 91.1709 84.8578V49.5476C91.1709 48.4593 90.6184 47.4395 89.6908 46.8156L78.4128 39.2302C77.2634 38.4572 75.8727 38.0872 74.4735 38.1823ZM43.9658 44.3683C43.5194 44.0395 43.7319 43.3545 44.2927 43.3145L74.6894 41.1456C75.6579 41.0765 76.6203 41.3418 77.4035 41.8938L83.5024 46.1923C83.7339 46.3555 83.6253 46.7078 83.3387 46.7233L51.1486 48.4648C50.1745 48.5175 49.2129 48.2328 48.4383 47.6624L43.9658 44.3683ZM49.6388 53.9245C49.6388 52.8842 50.4836 52.0249 51.564 51.9664L85.598 50.1225C86.6508 50.0655 87.5372 50.871 87.5372 51.8849V82.4598C87.5372 83.4982 86.6953 84.3566 85.6171 84.4176L51.7986 86.3318C50.6269 86.3982 49.6388 85.5025 49.6388 84.374V53.9245Z" fill="#242424"/>
<rect x="169.129" width="128.745" height="128.547" rx="64.2736" fill="white"/>
<rect x="169.821" y="0.692177" width="127.361" height="127.163" rx="63.5814" stroke="#3E3E3E" stroke-opacity="0.15" stroke-width="1.38435"/>
<path d="M256.339 62.0978C259.342 62.0978 261.777 59.6631 261.777 56.6597C261.777 53.6564 259.342 51.2217 256.339 51.2217C253.335 51.2217 250.9 53.6566 250.9 56.6602V62.0978H256.339ZM241.11 62.0978C244.114 62.0978 246.549 59.6629 246.549 56.6593V41.4323C246.549 38.4287 244.114 35.9938 241.11 35.9938C238.107 35.9938 235.672 38.4287 235.672 41.4323V56.6593C235.672 59.6629 238.107 62.0978 241.11 62.0978Z" fill="#2EB67D"/>
<path d="M210.657 66.4484C207.654 66.4484 205.219 68.8831 205.219 71.8864C205.219 74.8898 207.654 77.3245 210.658 77.3245C213.661 77.3245 216.096 74.8896 216.096 71.886V66.4484H210.657ZM225.886 66.4484C222.882 66.4484 220.447 68.8833 220.447 71.8869V87.1139C220.447 90.1175 222.882 92.5524 225.886 92.5524C228.889 92.5524 231.324 90.1175 231.324 87.1139V71.8869C231.324 68.8833 228.889 66.4484 225.886 66.4484Z" fill="#E01E5A"/>
<path d="M235.677 87.1148C235.677 90.1181 238.112 92.5528 241.115 92.5528C244.119 92.5528 246.553 90.1179 246.553 87.1145C246.553 84.1109 244.118 81.6758 241.115 81.6758L235.677 81.6758L235.677 87.1148ZM235.677 71.8864C235.677 74.89 238.112 77.3249 241.116 77.3249L256.343 77.3249C259.346 77.3249 261.781 74.89 261.781 71.8864C261.781 68.8828 259.346 66.4479 256.343 66.4479L241.116 66.4479C238.112 66.4479 235.677 68.8828 235.677 71.8864Z" fill="#ECB22E"/>
<path d="M231.323 41.4304C231.323 38.4271 228.888 35.9924 225.885 35.9924C222.881 35.9924 220.447 38.4273 220.447 41.4307C220.447 44.4343 222.882 46.8694 225.885 46.8694L231.323 46.8694L231.323 41.4304ZM231.323 56.6588C231.323 53.6552 228.888 51.2203 225.884 51.2203L210.657 51.2203C207.654 51.2203 205.219 53.6552 205.219 56.6588C205.219 59.6624 207.654 62.0973 210.657 62.0973L225.884 62.0973C228.888 62.0973 231.323 59.6624 231.323 56.6588Z" fill="#36C5F0"/>
<rect x="336.875" width="128.745" height="128.547" rx="64.2736" fill="white"/>
<rect x="337.567" y="0.692177" width="127.361" height="127.163" rx="63.5814" stroke="#3E3E3E" stroke-opacity="0.15" stroke-width="1.38435"/>
<path d="M406.756 69.7957C403.214 71.1287 399.244 71.1311 395.702 69.7965C394.368 66.2581 394.367 62.2895 395.7 58.7505C399.241 57.4152 403.215 57.415 406.756 58.7503C408.09 62.2882 408.09 66.2578 406.756 69.7957ZM426.988 59.9218H411.74L422.521 49.1463C420.829 46.771 418.74 44.6844 416.363 42.9933L405.581 53.7687V38.5302C402.704 38.0464 399.753 38.0472 396.875 38.5302V53.7687L386.093 42.9933C383.717 44.6832 381.627 46.7727 379.935 49.1463L390.718 59.9218H375.47C375.094 62.8839 374.972 65.6676 375.47 68.6236H390.718L379.935 79.399C381.632 81.7779 383.713 83.8577 386.093 85.5529L396.875 74.7766V90.016C399.753 90.4979 402.703 90.4982 405.581 90.016V74.7766L416.364 85.5529C418.742 83.8602 420.827 81.7753 422.521 79.399L411.738 68.6236H426.988C427.472 65.7502 427.472 62.7951 426.988 59.9218Z" fill="#FF4A00"/>
<rect x="83.8711" y="155.547" width="128.745" height="128.547" rx="64.2736" fill="white"/>
<rect x="84.5633" y="156.239" width="127.361" height="127.163" rx="63.5814" stroke="#3E3E3E" stroke-opacity="0.15" stroke-width="1.38435"/>
<path d="M138.685 203.051C138.685 203.657 138.637 204.667 138.054 205.324C137.423 205.93 136.453 205.98 135.87 205.98C132.594 205.98 128.048 205.145 124.949 206.435C129.679 197.825 138.842 192.104 138.782 192.597C138.346 196.004 138.685 199.625 138.685 203.051ZM148.49 242.14C148.49 237.948 151.79 234.514 155.868 234.514C157.081 234.514 158.052 235.524 158.052 236.787C158.052 237.645 157.615 238.352 156.935 238.756C156.195 239.218 155.17 239.003 154.508 239.615C154.023 240.019 153.635 240.675 153.635 241.382C153.635 242.14 153.926 242.847 154.411 243.352C155.285 244.261 156.45 244.766 157.712 244.766C161.012 244.766 163.682 241.988 163.682 238.554C163.682 235.474 161.692 232.747 159.071 231.535C155.093 229.465 149.007 230.643 148.538 224.161C147.809 227.589 146.199 233.706 141.84 233.706C128.672 234.52 123.925 223.699 123.008 212.243C123.008 209.768 124.464 208.102 126.308 207.849C129.609 207.849 132.909 207.849 136.21 207.849C137.909 207.849 138.879 207.394 139.51 206.788C140.336 205.98 140.53 204.819 140.53 203.455C140.53 199.903 140.53 194.441 140.53 192.799C140.53 190.655 142.374 189.365 144.752 189.365C146.154 189.365 147.468 189.415 148.83 189.769C151.79 190.527 152.421 193.658 152.421 193.658C152.421 193.658 158.003 194.668 160.818 195.173C163.488 195.678 170.089 196.133 171.351 203.051C174.312 219.515 172.516 235.474 172.37 235.474C170.283 251.028 157.858 250.271 157.858 250.271C153.341 250.271 148.49 247.144 148.49 242.14ZM163.051 215.323C161.449 215.172 160.09 215.828 159.605 217.091C158.917 218.88 166.012 220.368 166.012 217.899C165.818 216.485 164.653 215.525 163.051 215.323Z" fill="#00A82D"/>
<rect x="251.617" y="155.547" width="130.129" height="128.547" rx="64.2736" fill="white"/>
<rect x="252.309" y="156.239" width="128.745" height="127.163" rx="63.5814" stroke="#3E3E3E" stroke-opacity="0.15" stroke-width="1.38435"/>
<path fill-rule="evenodd" clip-rule="evenodd" d="M316.68 219.821C316.68 214.615 321.063 210.395 326.469 210.395C331.876 210.395 336.258 214.615 336.258 219.821C336.258 225.028 331.876 229.248 326.469 229.248C321.063 229.248 316.68 225.028 316.68 219.821Z" fill="#1ABCFE"/>
<path fill-rule="evenodd" clip-rule="evenodd" d="M297.102 238.675C297.102 233.468 301.484 229.248 306.891 229.248H316.68V238.675C316.68 243.881 312.297 248.102 306.891 248.102C301.484 248.102 297.102 243.881 297.102 238.675Z" fill="#0ACF83"/>
<path fill-rule="evenodd" clip-rule="evenodd" d="M316.68 191.541V210.395H326.469C331.876 210.395 336.258 206.174 336.258 200.968C336.258 195.761 331.876 191.541 326.469 191.541H316.68Z" fill="#FF7262"/>
<path fill-rule="evenodd" clip-rule="evenodd" d="M297.102 200.968C297.102 206.174 301.484 210.395 306.891 210.395H316.68V191.541H306.891C301.484 191.541 297.102 195.761 297.102 200.968Z" fill="#F24E1E"/>
<path fill-rule="evenodd" clip-rule="evenodd" d="M297.102 219.821C297.102 225.028 301.484 229.248 306.891 229.248H316.68V210.395H306.891C301.484 210.395 297.102 214.615 297.102 219.821Z" fill="#A259FF"/>
</svg>
