<svg width="26" height="36" viewBox="0 0 26 36" fill="none" xmlns="http://www.w3.org/2000/svg">
<path d="M17.3367 1.5C17.3367 1.13251 17.1172 0.800546 16.7791 0.656592C16.441 0.512639 16.0495 0.584529 15.7847 0.839239L12.5251 3.97345C7.67182 8.64003 3.57097 14.0304 0.368444 19.9527C0.293043 20.0859 0.25 20.2398 0.25 20.4038C0.25 20.91 0.660406 21.3204 1.16667 21.3204H9.06833V34.5C9.06833 34.863 9.28254 35.1918 9.61458 35.3385C9.94662 35.4852 10.3339 35.4221 10.6023 35.1777L12.0607 33.8491C17.166 29.1985 21.4986 23.765 24.896 17.7525L25.7981 16.156C25.9584 15.8722 25.956 15.5245 25.7917 15.243C25.6274 14.9615 25.326 14.7883 25 14.7883H17.3367V1.5Z" fill="#6A65FF"/>
</svg>
