<svg width="35" height="36" viewBox="0 0 35 36" fill="none" xmlns="http://www.w3.org/2000/svg">
<g clip-path="url(#clip0_1_22724)">
<path opacity="0.21" d="M0 0.5H35V35.5H0V0.5Z" fill="#6A65FF"/>
<path opacity="0.21" d="M11 17C11 13.134 14.134 10 18 10C21.866 10 25 13.134 25 17C25 20.866 21.866 24 18 24C14.134 24 11 20.866 11 17Z" fill="#6A65FF"/>
<path d="M7.96204 18C7.40766 18 6.9535 18.4487 7.00382 18.9987C7.23719 21.5498 8.35919 23.952 10.1923 25.7782C12.263 27.8411 15.0715 29 18 29C20.9285 29 23.737 27.8411 25.8077 25.7782C27.6408 23.952 28.7628 21.5499 28.9962 18.9987C29.0465 18.4487 28.5923 18 28.038 18L22.5372 18C21.9828 18 21.5471 18.4565 21.3917 18.9866C21.2268 19.5492 20.9219 20.0671 20.4985 20.489C19.8358 21.1491 18.9371 21.52 18 21.52C17.0629 21.52 16.1642 21.1491 15.5015 20.489C15.0781 20.0671 14.7732 19.5492 14.6083 18.9866C14.4529 18.4565 14.0172 18 13.4628 18L7.96204 18Z" fill="#6A65FF"/>
</g>
<defs>
<clipPath id="clip0_1_22724">
<rect y="0.5" width="35" height="35" rx="17.5" fill="white"/>
</clipPath>
</defs>
</svg>
