<svg width="62" height="61" viewBox="0 0 62 61" fill="none" xmlns="http://www.w3.org/2000/svg">
<g clip-path="url(#clip0_1_22971)">
<path opacity="0.21" d="M0.5 0H61.5V61H0.5V0Z" fill="#6A65FF"/>
<path d="M49.3654 37.4714C50.3316 37.4714 51.1231 36.6894 51.0354 35.7308C50.6287 31.2845 48.6732 27.0979 45.4784 23.9152C41.8694 20.3198 36.9745 18.3 31.8706 18.3C26.7668 18.3 21.8719 20.3198 18.2629 23.9152C15.0681 27.0979 13.1126 31.2845 12.7059 35.7308C12.6182 36.6894 13.4097 37.4714 14.3759 37.4714H23.963C24.9292 37.4714 25.6885 36.6758 25.9593 35.7519C26.2468 34.7714 26.7781 33.8687 27.5162 33.1334C28.6711 31.9829 30.2374 31.3366 31.8706 31.3366C33.5039 31.3366 35.0702 31.9829 36.2251 33.1334C36.9632 33.8687 37.4945 34.7714 37.782 35.7519C38.0528 36.6758 38.8121 37.4714 39.7783 37.4714L49.3654 37.4714Z" fill="#6A65FF"/>
</g>
<defs>
<clipPath id="clip0_1_22971">
<rect x="0.5" width="61" height="61" rx="30.5" fill="white"/>
</clipPath>
</defs>
</svg>
