<svg width="50" height="50" viewBox="0 0 50 50" fill="none" xmlns="http://www.w3.org/2000/svg">
<path d="M10.0769 15.2643C12.2742 15.2643 14.4674 15.2602 16.6648 15.2643C17.5412 15.2643 18.3044 15.8263 18.5434 16.5979C18.8034 17.4282 18.5518 18.3381 17.8264 18.7743C17.4322 19.0133 16.9206 19.1726 16.4635 19.1768C12.2072 19.2062 7.94661 19.2062 3.69026 19.1894C2.05482 19.1852 1.06936 17.7175 1.7487 16.3505C2.12192 15.5998 2.76771 15.2643 3.58962 15.2643C5.75344 15.256 7.91306 15.2643 10.0769 15.2643Z" fill="#242136"/>
<path d="M39.3011 31.3302C41.4984 31.3302 43.6916 31.3302 45.889 31.3302C47.0044 31.3302 47.8515 32.1563 47.8599 33.234C47.8683 34.3117 47.0254 35.1756 45.9183 35.1756C41.511 35.1798 37.0995 35.1798 32.6922 35.1756C31.5977 35.1756 30.7339 34.3034 30.7422 33.2382C30.7464 32.1605 31.6019 31.3302 32.7132 31.3302C34.9105 31.3302 37.1037 31.3302 39.3011 31.3302Z" fill="#242136"/>
<path d="M34.6083 10.702C34.6083 12.8617 34.6083 15.0213 34.6083 17.1809C34.6083 18.4138 33.8409 19.2105 32.6835 19.2063C31.5638 19.2063 30.7461 18.3467 30.7461 17.1516C30.7461 12.8323 30.7461 8.51306 30.7461 4.19381C30.7461 3.26706 31.2577 2.51643 32.0503 2.24386C32.847 1.97129 33.7192 2.17677 34.1973 2.87707C34.4363 3.22513 34.5873 3.70318 34.5915 4.12252C34.6292 6.3157 34.6083 8.50887 34.6083 10.702Z" fill="#242136"/>
<path d="M14.7254 39.8545C14.7254 37.6446 14.717 35.4346 14.7296 33.2289C14.738 32.2266 15.4341 31.4299 16.3273 31.3376C17.426 31.2244 18.2647 31.7738 18.5372 32.7928C18.575 32.9353 18.5876 33.0905 18.5876 33.2373C18.5876 37.6404 18.5876 42.0393 18.5876 46.4424C18.5876 47.3734 17.9376 48.1869 17.0989 48.3337C16.0547 48.5182 15.1741 48.0653 14.8386 47.1176C14.7422 46.845 14.7296 46.5263 14.7296 46.2327C14.7212 44.1067 14.7254 41.9806 14.7254 39.8587V39.8545Z" fill="#242136"/>
<path d="M34.685 23.3029C36.6643 23.3029 38.6394 23.2945 40.6187 23.3071C41.4322 23.3113 42.0822 23.6635 42.4429 24.4184C42.7741 25.1103 42.7029 25.7854 42.2625 26.4103C41.8516 26.9889 41.2435 27.228 40.5642 27.228C36.6433 27.2406 32.7225 27.2447 28.8016 27.228C27.6316 27.2238 26.7258 26.318 26.7384 25.2612C26.751 24.1458 27.6526 23.3071 28.8561 23.3071C30.8019 23.3071 32.7434 23.3071 34.6892 23.3071L34.685 23.3029Z" fill="#242136"/>
<path d="M14.7153 23.3035C16.6904 23.3035 18.6697 23.2993 20.6448 23.3035C21.6135 23.3076 22.4522 23.9912 22.6032 24.8634C22.7667 25.8405 22.3054 26.7253 21.4122 27.0482C21.1061 27.1614 20.7623 27.2201 20.4352 27.2243C16.6149 27.2369 12.7989 27.2327 8.97868 27.2285C7.65774 27.2285 6.78551 26.4485 6.78131 25.2744C6.77293 24.1338 7.60323 23.3035 8.78997 23.2993C10.7651 23.2909 12.7444 23.2993 14.7195 23.2993L14.7153 23.3035Z" fill="#242136"/>
<path d="M22.7676 13.2765C22.7676 11.9892 22.8011 10.7018 22.7592 9.41439C22.7172 8.1899 23.644 7.36379 24.6756 7.33444C25.7952 7.30508 26.6339 8.20667 26.6339 9.41858C26.6339 12.0269 26.6339 14.6352 26.6339 17.2435C26.6339 18.1661 26.0888 18.8832 25.2123 19.1432C24.4198 19.378 23.5014 19.0635 23.0779 18.3213C22.8892 17.99 22.7927 17.5706 22.7843 17.1848C22.7508 15.8807 22.7718 14.5765 22.7718 13.2724L22.7676 13.2765Z" fill="#242136"/>
<path d="M22.7741 37.2781C22.7741 35.9236 22.7615 34.5691 22.7783 33.2146C22.7908 32.2418 23.466 31.4534 24.3382 31.3402C25.4033 31.2018 26.2546 31.7218 26.5565 32.7072C26.6027 32.8624 26.6362 33.0343 26.6362 33.1979C26.6404 35.89 26.6446 38.5822 26.6362 41.2744C26.6362 42.2809 25.9443 43.0021 24.8582 43.1783C24.0698 43.3041 23.1515 42.717 22.8789 41.8783C22.7992 41.6309 22.7824 41.3541 22.7783 41.0899C22.7699 39.8193 22.7741 38.5487 22.7741 37.2781Z" fill="#242136"/>
<path d="M43.286 19.2051C42.4138 19.2051 41.5415 19.2135 40.6735 19.2051C39.5622 19.1925 38.7571 18.3538 38.7697 17.2426C38.7823 16.1439 39.5706 15.3597 40.6819 15.3597C42.4431 15.3555 44.2002 15.3555 45.9614 15.3597C47.0224 15.3597 47.8611 16.2194 47.8611 17.2803C47.8611 18.3161 47.035 19.1841 46.0034 19.2009C45.0976 19.2177 44.1918 19.2009 43.2902 19.2009L43.286 19.2051Z" fill="#242136"/>
<path d="M6.11689 31.3263C7.02267 31.3263 7.92846 31.3053 8.83005 31.3305C9.87422 31.3599 10.65 32.2237 10.6374 33.2846C10.6248 34.2995 9.81131 35.1591 8.80069 35.1717C6.98912 35.1885 5.18175 35.1927 3.37018 35.1717C2.34279 35.1591 1.56281 34.3162 1.55861 33.2805C1.55442 32.186 2.28827 31.364 3.35341 31.3347C4.27596 31.3095 5.19433 31.3305 6.11689 31.3305V31.3263Z" fill="#242136"/>
<path d="M34.605 43.804C34.605 44.6762 34.6134 45.5443 34.605 46.4165C34.5924 47.5026 33.8124 48.3119 32.7641 48.3371C31.6738 48.3623 30.768 47.5529 30.747 46.4626C30.7177 44.6888 30.7219 42.915 30.747 41.1412C30.7596 40.0551 31.6989 39.1912 32.7976 39.2583C33.8502 39.3254 34.5924 40.0718 34.605 41.1957C34.605 41.2292 34.605 41.2628 34.605 41.2963C34.605 42.135 34.605 42.9695 34.605 43.8082V43.804Z" fill="#242136"/>
<path d="M18.6066 6.70085C18.6066 7.57309 18.615 8.44113 18.6066 9.31336C18.5941 10.3911 17.7847 11.2675 16.7154 11.2423C15.5999 11.2172 14.7864 10.454 14.7571 9.35111C14.7109 7.57728 14.7235 5.80345 14.7529 4.02962C14.7696 2.97288 15.688 2.10483 16.7028 2.11322C17.7638 2.12161 18.5982 2.98546 18.6066 4.09253C18.615 4.96476 18.6066 5.83281 18.6066 6.70504V6.70085Z" fill="#242136"/>
<path d="M42.6315 9.25401C42.6608 10.2646 41.9437 11.1998 40.6815 11.2459C39.6332 11.2836 38.7819 10.3737 38.7735 9.3211C38.7651 8.22661 39.5954 7.35018 40.6647 7.32922C41.7299 7.31244 42.6273 8.18887 42.6357 9.25401H42.6315Z" fill="#242136"/>
<path d="M49.2718 25.2821C49.2676 26.3472 48.3534 27.2572 47.3176 27.2278C46.2399 27.1985 45.4138 26.3388 45.418 25.2401C45.418 24.175 46.2567 23.3153 47.3092 23.3027C48.3995 23.2902 49.276 24.175 49.2718 25.2821Z" fill="#242136"/>
<path d="M0.136783 25.2317C0.14517 24.1749 0.992246 23.3111 2.03222 23.3027C3.11832 23.2943 4.00733 24.1917 3.99895 25.2862C3.99056 26.3345 3.04703 27.2613 2.02803 27.2235C0.941925 27.1858 0.128396 26.3303 0.136783 25.2317Z" fill="#242136"/>
<path d="M22.7735 47.8215C22.7693 46.706 23.5702 45.8883 24.6857 45.8883C25.7885 45.8883 26.6314 46.7144 26.6356 47.7963C26.6356 48.8782 25.7885 49.7379 24.7108 49.7421C23.6163 49.7421 22.7776 48.916 22.7735 47.8215Z" fill="#242136"/>
<path d="M8.73984 7.31464C9.82594 7.32303 10.6479 8.17011 10.6395 9.27298C10.6311 10.3423 9.76304 11.181 8.66855 11.1684C7.59084 11.1558 6.76473 10.3004 6.7815 9.1975C6.79408 8.09043 7.6118 7.30625 8.74403 7.31464H8.73984Z" fill="#242136"/>
<path d="M8.71083 39.2666C9.80951 39.2666 10.6398 40.0969 10.6356 41.1914C10.6356 42.2733 9.78015 43.1162 8.68986 43.1162C7.59956 43.1162 6.76926 42.2733 6.77345 41.1746C6.77345 40.055 7.5786 39.2708 8.70663 39.2708L8.71083 39.2666Z" fill="#242136"/>
<path d="M40.7364 39.2666C41.8267 39.2708 42.6444 40.1179 42.6318 41.2249C42.6193 42.2985 41.7512 43.1288 40.6525 43.1162C39.5706 43.1036 38.7571 42.2523 38.7697 41.1411C38.7823 40.0298 39.5874 39.2624 40.7322 39.2708L40.7364 39.2666Z" fill="#242136"/>
<path d="M24.6899 4.55328C23.5618 4.55328 22.7693 3.76072 22.7735 2.63268C22.7735 1.54658 23.6205 0.695312 24.7024 0.695312C25.7676 0.695312 26.6314 1.56755 26.6356 2.64526C26.6356 3.72717 25.7969 4.55748 24.6899 4.55328Z" fill="#242136"/>
</svg>
