<svg width="503" height="388" viewBox="0 0 503 388" fill="none" xmlns="http://www.w3.org/2000/svg">
<g clip-path="url(#clip0_1_22928)">
<path d="M0 12.3987C0 5.55107 5.55106 0 12.3986 0H490.601C497.449 0 503 5.55106 503 12.3986V388H0V12.3987Z" fill="white"/>
<path d="M36.3284 41.4715C34.9398 41.4715 33.7231 41.1673 32.6783 40.5589C31.6467 39.9506 30.8334 39.1107 30.2382 38.0395C29.6563 36.955 29.3654 35.7053 29.3654 34.2902C29.3654 32.8751 29.6563 31.6319 30.2382 30.5606C30.8334 29.4762 31.6467 28.6298 32.6783 28.0214C33.7231 27.413 34.9398 27.1089 36.3284 27.1089C37.7039 27.1089 38.914 27.413 39.9588 28.0214C41.0036 28.6298 41.8169 29.4762 42.3988 30.5606C42.9807 31.6319 43.2717 32.8751 43.2717 34.2902C43.2717 35.7053 42.9807 36.955 42.3988 38.0395C41.8169 39.1107 41.0036 39.9506 39.9588 40.5589C38.914 41.1673 37.7039 41.4715 36.3284 41.4715ZM36.3284 39.1901C37.651 39.1901 38.7024 38.7537 39.4827 37.8808C40.2762 37.0079 40.6729 35.8111 40.6729 34.2902C40.6729 32.7693 40.2762 31.5724 39.4827 30.6995C38.7024 29.8266 37.651 29.3902 36.3284 29.3902C35.0059 29.3902 33.9479 29.8266 33.1544 30.6995C32.3609 31.5724 31.9641 32.7693 31.9641 34.2902C31.9641 35.8111 32.3609 37.0079 33.1544 37.8808C33.9479 38.7537 35.0059 39.1901 36.3284 39.1901ZM47.3189 41.2334L43.7084 31.3938H46.3667L48.8663 38.833L51.3658 31.3938H54.0241L50.3938 41.2334H47.3189ZM59.1288 41.4715C58.1369 41.4715 57.2574 41.2598 56.4903 40.8366C55.7233 40.4134 55.1215 39.8183 54.6851 39.0512C54.2487 38.2842 54.0305 37.3981 54.0305 36.393C54.0305 35.3746 54.2421 34.4687 54.6653 33.6752C55.1017 32.8817 55.6968 32.2667 56.4507 31.8303C57.2177 31.3806 58.117 31.1558 59.1486 31.1558C60.1141 31.1558 60.9671 31.3674 61.7077 31.7906C62.4483 32.2138 63.0236 32.7957 63.4336 33.5363C63.8568 34.2637 64.0684 35.0771 64.0684 35.9764C64.0684 36.1218 64.0618 36.2739 64.0486 36.4326C64.0486 36.5913 64.042 36.7567 64.0287 36.9286H56.5499C56.6028 37.6957 56.8673 38.2974 57.3434 38.7338C57.8327 39.1703 58.4212 39.3885 59.1089 39.3885C59.6247 39.3885 60.0545 39.2761 60.3984 39.0512C60.7555 38.8132 61.02 38.509 61.1919 38.1387H63.7708C63.5857 38.7603 63.2749 39.329 62.8385 39.8447C62.4152 40.3473 61.8862 40.7441 61.2514 41.035C60.6298 41.326 59.9223 41.4715 59.1288 41.4715ZM59.1486 33.2189C58.527 33.2189 57.9782 33.3975 57.5021 33.7545C57.026 34.0984 56.7218 34.6274 56.5895 35.3416H61.4895C61.4498 34.6935 61.2118 34.1777 60.7753 33.7942C60.3389 33.4107 59.7967 33.2189 59.1486 33.2189ZM65.4106 41.2334V31.3938H67.6721L67.9101 33.2387C68.2672 32.6039 68.7499 32.1014 69.3583 31.7311C69.9799 31.3475 70.7073 31.1558 71.5404 31.1558V33.8339H70.8263C70.2708 33.8339 69.7749 33.9198 69.3384 34.0918C68.902 34.2637 68.5582 34.5613 68.3069 34.9845C68.0688 35.4077 67.9498 35.9962 67.9498 36.75V41.2334H65.4106ZM75.1407 41.2334L71.5302 31.3938H74.1885L76.6881 38.833L79.1876 31.3938H81.8459L78.2156 41.2334H75.1407ZM84.0228 29.8663C83.5599 29.8663 83.1764 29.7275 82.8722 29.4497C82.5812 29.172 82.4358 28.8215 82.4358 28.3983C82.4358 27.9751 82.5812 27.6313 82.8722 27.3667C83.1764 27.089 83.5599 26.9502 84.0228 26.9502C84.4857 26.9502 84.8626 27.089 85.1535 27.3667C85.4577 27.6313 85.6098 27.9751 85.6098 28.3983C85.6098 28.8215 85.4577 29.172 85.1535 29.4497C84.8626 29.7275 84.4857 29.8663 84.0228 29.8663ZM82.7532 41.2334V31.3938H85.2924V41.2334H82.7532ZM91.9302 41.4715C90.9383 41.4715 90.0588 41.2598 89.2917 40.8366C88.5247 40.4134 87.9229 39.8183 87.4865 39.0512C87.0501 38.2842 86.8319 37.3981 86.8319 36.393C86.8319 35.3746 87.0435 34.4687 87.4667 33.6752C87.9031 32.8817 88.4982 32.2667 89.2521 31.8303C90.0191 31.3806 90.9184 31.1558 91.95 31.1558C92.9155 31.1558 93.7685 31.3674 94.5091 31.7906C95.2497 32.2138 95.825 32.7957 96.235 33.5363C96.6582 34.2637 96.8698 35.0771 96.8698 35.9764C96.8698 36.1218 96.8632 36.2739 96.85 36.4326C96.85 36.5913 96.8433 36.7567 96.8301 36.9286H89.3513C89.4042 37.6957 89.6687 38.2974 90.1448 38.7338C90.6341 39.1703 91.2226 39.3885 91.9103 39.3885C92.4261 39.3885 92.8559 39.2761 93.1998 39.0512C93.5569 38.8132 93.8214 38.509 93.9933 38.1387H96.5722C96.3871 38.7603 96.0763 39.329 95.6399 39.8447C95.2166 40.3473 94.6876 40.7441 94.0528 41.035C93.4312 41.326 92.7237 41.4715 91.9302 41.4715ZM91.95 33.2189C91.3284 33.2189 90.7796 33.3975 90.3035 33.7545C89.8274 34.0984 89.5232 34.6274 89.3909 35.3416H94.2909C94.2512 34.6935 94.0131 34.1777 93.5767 33.7942C93.1403 33.4107 92.5981 33.2189 91.95 33.2189ZM99.7488 41.2334L96.8723 31.3938H99.3917L101.098 38.4759L103.082 31.3938H105.898L107.882 38.4759L109.608 31.3938H112.128L109.231 41.2334H106.593L104.49 33.8736L102.387 41.2334H99.7488Z" fill="#0A071B"/>
<rect opacity="0.2" x="162" y="112" width="43" height="218" rx="8" fill="url(#paint0_linear_1_22928)"/>
<g opacity="0.7">
<path opacity="0.7" d="M48.6291 124.149C48.0328 124.149 47.4945 124.046 47.0141 123.839C46.5338 123.623 46.1487 123.321 45.8588 122.932C45.5772 122.542 45.4364 122.091 45.4364 121.578C45.4364 121.047 45.5731 120.584 45.8464 120.186C46.128 119.789 46.4965 119.503 46.952 119.329C46.5545 119.155 46.2398 118.907 46.0079 118.584C45.776 118.252 45.66 117.884 45.66 117.478C45.66 117.064 45.7718 116.683 45.9954 116.335C46.2191 115.979 46.5503 115.693 46.9893 115.478C47.4365 115.262 47.9831 115.155 48.6291 115.155C49.2751 115.155 49.8176 115.262 50.2566 115.478C50.6955 115.693 51.0268 115.979 51.2504 116.335C51.474 116.683 51.5858 117.064 51.5858 117.478C51.5858 117.875 51.4657 118.244 51.2255 118.584C50.9937 118.915 50.6831 119.163 50.2938 119.329C50.7576 119.503 51.1262 119.789 51.3995 120.186C51.6728 120.584 51.8094 121.047 51.8094 121.578C51.8094 122.091 51.6686 122.542 51.387 122.932C51.1055 123.321 50.7203 123.623 50.2317 123.839C49.7513 124.046 49.2172 124.149 48.6291 124.149ZM48.6291 118.857C49.0598 118.857 49.3994 118.745 49.6478 118.521C49.8963 118.298 50.0205 118.012 50.0205 117.664C50.0205 117.283 49.8963 116.985 49.6478 116.77C49.4076 116.554 49.0681 116.447 48.6291 116.447C48.1819 116.447 47.8382 116.554 47.598 116.77C47.3578 116.985 47.2378 117.283 47.2378 117.664C47.2378 118.02 47.3578 118.31 47.598 118.534C47.8465 118.749 48.1902 118.857 48.6291 118.857ZM48.6291 122.82C49.1592 122.82 49.5609 122.691 49.8342 122.435C50.1075 122.17 50.2441 121.838 50.2441 121.441C50.2441 121.002 50.0992 120.658 49.8093 120.41C49.5277 120.161 49.1343 120.037 48.6291 120.037C48.1239 120.037 47.7222 120.161 47.4241 120.41C47.1342 120.658 46.9893 121.002 46.9893 121.441C46.9893 121.838 47.1259 122.17 47.3993 122.435C47.6808 122.691 48.0908 122.82 48.6291 122.82ZM48.1191 140.149C47.3158 140.149 46.6283 139.963 46.0569 139.59C45.4854 139.209 45.0423 138.683 44.7276 138.012C44.4212 137.333 44.268 136.546 44.268 135.652C44.268 134.766 44.4212 133.983 44.7276 133.304C45.0423 132.625 45.4854 132.099 46.0569 131.726C46.6283 131.345 47.3158 131.155 48.1191 131.155C48.9225 131.155 49.6099 131.345 50.1813 131.726C50.7528 132.099 51.1917 132.625 51.4982 133.304C51.8129 133.983 51.9703 134.766 51.9703 135.652C51.9703 136.546 51.8129 137.333 51.4982 138.012C51.1917 138.683 50.7528 139.209 50.1813 139.59C49.6099 139.963 48.9225 140.149 48.1191 140.149ZM48.1191 138.72C48.7734 138.72 49.3076 138.447 49.7217 137.901C50.1358 137.354 50.3428 136.604 50.3428 135.652C50.3428 134.7 50.1358 133.95 49.7217 133.403C49.3076 132.857 48.7734 132.583 48.1191 132.583C47.4565 132.583 46.9182 132.857 46.5041 133.403C46.0983 133.95 45.8954 134.7 45.8954 135.652C45.8954 136.604 46.0983 137.354 46.5041 137.901C46.9182 138.447 47.4565 138.72 48.1191 138.72Z" fill="#0A071B"/>
<path opacity="0.7" d="M48.7672 179.125C48.113 179.125 47.5622 179.005 47.115 178.765C46.6677 178.525 46.3075 178.202 46.0342 177.796C45.7609 177.39 45.5621 176.939 45.4379 176.442C45.3219 175.945 45.2639 175.435 45.2639 174.914C45.2639 173.945 45.4006 173.104 45.6739 172.392C45.9472 171.671 46.3406 171.116 46.8541 170.727C47.3676 170.33 47.9887 170.131 48.7175 170.131C49.3139 170.131 49.8191 170.251 50.2332 170.491C50.6555 170.723 50.9827 171.029 51.2146 171.41C51.4465 171.791 51.5831 172.201 51.6245 172.64H50.1462C50.0717 172.259 49.9102 171.965 49.6617 171.758C49.4132 171.551 49.0944 171.448 48.7051 171.448C48.1502 171.448 47.703 171.704 47.3634 172.218C47.0239 172.723 46.8417 173.497 46.8168 174.541C47.0156 174.201 47.3137 173.92 47.7113 173.696C48.1088 173.473 48.5519 173.361 49.0405 173.361C49.5209 173.361 49.9723 173.477 50.3947 173.709C50.817 173.94 51.1566 174.268 51.4133 174.69C51.6784 175.112 51.8109 175.609 51.8109 176.181C51.8109 176.703 51.6825 177.187 51.4258 177.634C51.1773 178.081 50.8212 178.442 50.3574 178.715C49.9019 178.988 49.3718 179.125 48.7672 179.125ZM48.6803 177.758C49.1441 177.758 49.525 177.618 49.8232 177.336C50.1296 177.046 50.2829 176.682 50.2829 176.243C50.2829 175.779 50.1296 175.406 49.8232 175.125C49.5168 174.843 49.1275 174.702 48.6554 174.702C48.349 174.702 48.0716 174.773 47.8231 174.914C47.5829 175.046 47.3924 175.228 47.2516 175.46C47.1108 175.684 47.0404 175.936 47.0404 176.218C47.0404 176.665 47.1937 177.034 47.5001 177.324C47.8148 177.614 48.2082 177.758 48.6803 177.758ZM48.1191 195.125C47.3158 195.125 46.6283 194.939 46.0569 194.566C45.4854 194.185 45.0423 193.659 44.7276 192.988C44.4212 192.309 44.268 191.522 44.268 190.628C44.268 189.742 44.4212 188.959 44.7276 188.28C45.0423 187.601 45.4854 187.075 46.0569 186.702C46.6283 186.321 47.3158 186.131 48.1191 186.131C48.9225 186.131 49.6099 186.321 50.1813 186.702C50.7528 187.075 51.1917 187.601 51.4982 188.28C51.8129 188.959 51.9703 189.742 51.9703 190.628C51.9703 191.522 51.8129 192.309 51.4982 192.988C51.1917 193.659 50.7528 194.185 50.1813 194.566C49.6099 194.939 48.9225 195.125 48.1191 195.125ZM48.1191 193.696C48.7734 193.696 49.3076 193.423 49.7217 192.876C50.1358 192.33 50.3428 191.58 50.3428 190.628C50.3428 189.675 50.1358 188.926 49.7217 188.379C49.3076 187.833 48.7734 187.559 48.1191 187.559C47.4565 187.559 46.9182 187.833 46.5041 188.379C46.0983 188.926 45.8954 189.675 45.8954 190.628C45.8954 191.58 46.0983 192.33 46.5041 192.876C46.9182 193.423 47.4565 193.696 48.1191 193.696Z" fill="#0A071B"/>
<path opacity="0.7" d="M49.3904 233.952V232.337H45.1045V231.07L49.1792 225.256H50.9806V230.958H52.1235V232.337H50.9806V233.952H49.3904ZM46.8064 230.958H49.4898V227.007L46.8064 230.958ZM48.1191 250.101C47.3158 250.101 46.6283 249.915 46.0569 249.542C45.4854 249.161 45.0423 248.635 44.7276 247.964C44.4212 247.285 44.268 246.498 44.268 245.604C44.268 244.718 44.4212 243.935 44.7276 243.256C45.0423 242.577 45.4854 242.051 46.0569 241.678C46.6283 241.297 47.3158 241.107 48.1191 241.107C48.9225 241.107 49.6099 241.297 50.1813 241.678C50.7528 242.051 51.1917 242.577 51.4982 243.256C51.8129 243.935 51.9703 244.718 51.9703 245.604C51.9703 246.498 51.8129 247.285 51.4982 247.964C51.1917 248.635 50.7528 249.161 50.1813 249.542C49.6099 249.915 48.9225 250.101 48.1191 250.101ZM48.1191 248.672C48.7734 248.672 49.3076 248.399 49.7217 247.852C50.1358 247.306 50.3428 246.556 50.3428 245.604C50.3428 244.651 50.1358 243.902 49.7217 243.355C49.3076 242.809 48.7734 242.535 48.1191 242.535C47.4565 242.535 46.9182 242.809 46.5041 243.355C46.0983 243.902 45.8954 244.651 45.8954 245.604C45.8954 246.556 46.0983 247.306 46.5041 247.852C46.9182 248.399 47.4565 248.672 48.1191 248.672Z" fill="#0A071B"/>
<path opacity="0.7" d="M46.1259 288.928V287.772C46.6559 287.333 47.1694 286.899 47.6663 286.468C48.1715 286.037 48.6188 285.611 49.008 285.188C49.4056 284.766 49.7203 284.356 49.9522 283.959C50.1924 283.553 50.3125 283.159 50.3125 282.778C50.3125 282.422 50.2131 282.107 50.0143 281.834C49.8238 281.561 49.505 281.424 49.0577 281.424C48.6022 281.424 48.2585 281.573 48.0266 281.871C47.7947 282.17 47.6788 282.53 47.6788 282.952H46.1383C46.1549 282.315 46.2957 281.784 46.5607 281.362C46.8257 280.931 47.1777 280.613 47.6167 280.406C48.0556 280.19 48.5484 280.083 49.095 280.083C49.9812 280.083 50.6686 280.327 51.1572 280.815C51.6541 281.296 51.9026 281.921 51.9026 282.691C51.9026 283.172 51.7908 283.64 51.5672 284.095C51.3518 284.551 51.0661 284.99 50.71 285.412C50.3539 285.834 49.9688 286.232 49.5546 286.605C49.1405 286.969 48.7389 287.309 48.3496 287.623H52.1138V288.928H46.1259ZM48.1191 305.077C47.3158 305.077 46.6283 304.89 46.0569 304.518C45.4854 304.137 45.0423 303.611 44.7276 302.94C44.4212 302.261 44.268 301.474 44.268 300.58C44.268 299.693 44.4212 298.911 44.7276 298.232C45.0423 297.553 45.4854 297.027 46.0569 296.654C46.6283 296.273 47.3158 296.083 48.1191 296.083C48.9225 296.083 49.6099 296.273 50.1813 296.654C50.7528 297.027 51.1917 297.553 51.4982 298.232C51.8129 298.911 51.9703 299.693 51.9703 300.58C51.9703 301.474 51.8129 302.261 51.4982 302.94C51.1917 303.611 50.7528 304.137 50.1813 304.518C49.6099 304.89 48.9225 305.077 48.1191 305.077ZM48.1191 303.648C48.7734 303.648 49.3076 303.375 49.7217 302.828C50.1358 302.282 50.3428 301.532 50.3428 300.58C50.3428 299.627 50.1358 298.878 49.7217 298.331C49.3076 297.784 48.7734 297.511 48.1191 297.511C47.4565 297.511 46.9182 297.784 46.5041 298.331C46.0983 298.878 45.8954 299.627 45.8954 300.58C45.8954 301.532 46.0983 302.282 46.5041 302.828C46.9182 303.375 47.4565 303.648 48.1191 303.648Z" fill="#0A071B"/>
<path opacity="0.7" d="M44.2375 344.053C43.4342 344.053 42.7468 343.866 42.1753 343.494C41.6038 343.113 41.1607 342.587 40.846 341.916C40.5396 341.237 40.3864 340.45 40.3864 339.556C40.3864 338.669 40.5396 337.887 40.846 337.208C41.1607 336.529 41.6038 336.003 42.1753 335.63C42.7468 335.249 43.4342 335.058 44.2375 335.058C45.0409 335.058 45.7283 335.249 46.2997 335.63C46.8712 336.003 47.3102 336.529 47.6166 337.208C47.9313 337.887 48.0887 338.669 48.0887 339.556C48.0887 340.45 47.9313 341.237 47.6166 341.916C47.3102 342.587 46.8712 343.113 46.2997 343.494C45.7283 343.866 45.0409 344.053 44.2375 344.053ZM44.2375 342.624C44.8918 342.624 45.426 342.351 45.8401 341.804C46.2542 341.258 46.4612 340.508 46.4612 339.556C46.4612 338.603 46.2542 337.854 45.8401 337.307C45.426 336.76 44.8918 336.487 44.2375 336.487C43.575 336.487 43.0366 336.76 42.6225 337.307C42.2167 337.854 42.0138 338.603 42.0138 339.556C42.0138 340.508 42.2167 341.258 42.6225 341.804C43.0366 342.351 43.575 342.624 44.2375 342.624Z" fill="#0A071B"/>
</g>
<g opacity="0.7">
<path opacity="0.7" d="M79.5454 346L82.7257 337.304H84.5146L87.6949 346H86.0054L85.3097 343.987H81.9182L81.2101 346H79.5454ZM82.353 342.745H84.8749L83.6077 339.13L82.353 342.745ZM88.7779 348.733V339.838H90.1941L90.368 340.72C90.5668 340.447 90.8277 340.207 91.1507 340C91.4819 339.793 91.9085 339.689 92.4302 339.689C93.01 339.689 93.5276 339.83 93.9831 340.111C94.4386 340.393 94.7989 340.778 95.0639 341.267C95.3289 341.755 95.4615 342.31 95.4615 342.932C95.4615 343.553 95.3289 344.108 95.0639 344.596C94.7989 345.077 94.4386 345.458 93.9831 345.739C93.5276 346.012 93.01 346.149 92.4302 346.149C91.9664 346.149 91.5606 346.062 91.2128 345.888C90.8649 345.714 90.5833 345.47 90.368 345.155V348.733H88.7779ZM92.0948 344.758C92.6 344.758 93.0183 344.588 93.3495 344.248C93.6808 343.909 93.8465 343.47 93.8465 342.932C93.8465 342.393 93.6808 341.95 93.3495 341.602C93.0183 341.254 92.6 341.08 92.0948 341.08C91.5813 341.08 91.1589 341.254 90.8277 341.602C90.5047 341.942 90.3432 342.381 90.3432 342.919C90.3432 343.457 90.5047 343.901 90.8277 344.248C91.1589 344.588 91.5813 344.758 92.0948 344.758ZM96.882 346V339.838H98.2982L98.4473 340.994C98.6709 340.596 98.9732 340.281 99.3541 340.049C99.7434 339.809 100.199 339.689 100.721 339.689V341.366H100.273C99.9256 341.366 99.615 341.42 99.3417 341.528C99.0684 341.635 98.8531 341.822 98.6957 342.087C98.5466 342.352 98.4721 342.72 98.4721 343.192V346H96.882Z" fill="#0A071B"/>
<path opacity="0.7" d="M173.501 346V337.304H175.39L178.16 342.82L180.893 337.304H182.781V346H181.191V340L178.769 344.758H177.514L175.091 340V346H173.501ZM186.556 346.149C186.026 346.149 185.591 346.066 185.251 345.901C184.912 345.727 184.659 345.499 184.493 345.217C184.328 344.936 184.245 344.625 184.245 344.286C184.245 343.714 184.468 343.25 184.916 342.894C185.363 342.538 186.034 342.36 186.928 342.36H188.494V342.211C188.494 341.789 188.373 341.478 188.133 341.279C187.893 341.08 187.595 340.981 187.239 340.981C186.916 340.981 186.634 341.06 186.394 341.217C186.154 341.366 186.005 341.59 185.947 341.888H184.394C184.435 341.441 184.584 341.051 184.841 340.72C185.106 340.389 185.446 340.136 185.86 339.962C186.274 339.78 186.738 339.689 187.251 339.689C188.129 339.689 188.821 339.909 189.326 340.348C189.831 340.786 190.084 341.408 190.084 342.211V346H188.73L188.581 345.006C188.398 345.337 188.142 345.611 187.81 345.826C187.487 346.041 187.069 346.149 186.556 346.149ZM186.916 344.907C187.371 344.907 187.723 344.758 187.972 344.46C188.229 344.161 188.39 343.793 188.456 343.354H187.102C186.68 343.354 186.377 343.433 186.195 343.59C186.013 343.739 185.922 343.925 185.922 344.149C185.922 344.389 186.013 344.575 186.195 344.708C186.377 344.841 186.618 344.907 186.916 344.907ZM192.165 348.733L193.594 345.59H193.221L190.823 339.838H192.55L194.277 344.174L196.078 339.838H197.768L193.855 348.733H192.165Z" fill="#0A071B"/>
<path opacity="0.7" d="M272.39 346.149C271.545 346.149 270.866 345.913 270.353 345.441C269.847 344.961 269.595 344.281 269.595 343.404H271.185C271.193 343.809 271.288 344.132 271.471 344.373C271.653 344.613 271.947 344.733 272.353 344.733C272.734 344.733 273.011 344.621 273.185 344.397C273.359 344.166 273.446 343.863 273.446 343.491V337.304H275.036V343.491C275.036 344.344 274.796 345.002 274.316 345.466C273.843 345.921 273.202 346.149 272.39 346.149ZM279.002 346.149C278.232 346.149 277.635 345.909 277.213 345.429C276.799 344.948 276.592 344.244 276.592 343.317V339.838H278.17V343.168C278.17 343.698 278.277 344.103 278.493 344.385C278.708 344.667 279.047 344.807 279.511 344.807C279.95 344.807 280.31 344.65 280.592 344.335C280.882 344.021 281.027 343.582 281.027 343.018V339.838H282.617V346H281.213L281.089 344.956C280.898 345.321 280.621 345.611 280.257 345.826C279.9 346.041 279.482 346.149 279.002 346.149ZM284.249 346V339.838H285.653L285.777 340.882C285.968 340.517 286.241 340.227 286.597 340.012C286.962 339.797 287.388 339.689 287.877 339.689C288.639 339.689 289.231 339.929 289.653 340.41C290.076 340.89 290.287 341.594 290.287 342.522V346H288.697V342.671C288.697 342.141 288.589 341.735 288.374 341.453C288.158 341.172 287.823 341.031 287.368 341.031C286.92 341.031 286.552 341.188 286.262 341.503C285.98 341.818 285.839 342.257 285.839 342.82V346H284.249Z" fill="#0A071B"/>
<path opacity="0.7" d="M365.733 346.149C364.888 346.149 364.209 345.913 363.696 345.441C363.191 344.961 362.938 344.281 362.938 343.404H364.528C364.536 343.809 364.632 344.132 364.814 344.373C364.996 344.613 365.29 344.733 365.696 344.733C366.077 344.733 366.354 344.621 366.528 344.397C366.702 344.166 366.789 343.863 366.789 343.491V337.304H368.379V343.491C368.379 344.344 368.139 345.002 367.659 345.466C367.187 345.921 366.545 346.149 365.733 346.149ZM372.345 346.149C371.575 346.149 370.979 345.909 370.556 345.429C370.142 344.948 369.935 344.244 369.935 343.317V339.838H371.513V343.168C371.513 343.698 371.62 344.103 371.836 344.385C372.051 344.667 372.391 344.807 372.854 344.807C373.293 344.807 373.654 344.65 373.935 344.335C374.225 344.021 374.37 343.582 374.37 343.018V339.838H375.96V346H374.556L374.432 344.956C374.242 345.321 373.964 345.611 373.6 345.826C373.244 346.041 372.825 346.149 372.345 346.149ZM377.593 346V337.055H379.183V346H377.593Z" fill="#0A071B"/>
<path opacity="0.7" d="M452.065 346L455.246 337.304H457.035L460.215 346H458.525L457.83 343.987H454.438L453.73 346H452.065ZM454.873 342.745H457.395L456.128 339.13L454.873 342.745ZM463.487 346.149C462.717 346.149 462.121 345.909 461.698 345.429C461.284 344.948 461.077 344.244 461.077 343.317V339.838H462.655V343.168C462.655 343.698 462.762 344.103 462.978 344.385C463.193 344.667 463.533 344.807 463.996 344.807C464.435 344.807 464.796 344.65 465.077 344.335C465.367 344.021 465.512 343.582 465.512 343.018V339.838H467.102V346H465.698L465.574 344.956C465.384 345.321 465.106 345.611 464.742 345.826C464.386 346.041 463.967 346.149 463.487 346.149ZM471.343 344.161C471.045 344.161 470.768 344.128 470.511 344.062L470.051 344.522C470.192 344.596 470.383 344.658 470.623 344.708C470.863 344.758 471.252 344.807 471.791 344.857C472.611 344.932 473.207 345.126 473.58 345.441C473.952 345.756 474.139 346.19 474.139 346.745C474.139 347.11 474.039 347.453 473.84 347.776C473.642 348.108 473.335 348.373 472.921 348.572C472.507 348.779 471.977 348.882 471.331 348.882C470.453 348.882 469.745 348.717 469.207 348.385C468.668 348.062 468.399 347.574 468.399 346.919C468.399 346.364 468.668 345.884 469.207 345.478C469.041 345.404 468.896 345.325 468.772 345.242C468.656 345.159 468.552 345.072 468.461 344.981V344.696L469.542 343.553C469.062 343.13 468.822 342.588 468.822 341.925C468.822 341.511 468.921 341.134 469.12 340.795C469.327 340.455 469.617 340.186 469.989 339.987C470.362 339.788 470.813 339.689 471.343 339.689C471.691 339.689 472.014 339.739 472.312 339.838H474.648V340.807L473.592 340.882C473.758 341.196 473.84 341.544 473.84 341.925C473.84 342.339 473.741 342.716 473.542 343.056C473.344 343.395 473.054 343.664 472.673 343.863C472.3 344.062 471.857 344.161 471.343 344.161ZM471.343 342.944C471.666 342.944 471.931 342.857 472.139 342.683C472.354 342.509 472.462 342.261 472.462 341.938C472.462 341.615 472.354 341.366 472.139 341.192C471.931 341.018 471.666 340.931 471.343 340.931C471.004 340.931 470.731 341.018 470.524 341.192C470.316 341.366 470.213 341.615 470.213 341.938C470.213 342.261 470.316 342.509 470.524 342.683C470.731 342.857 471.004 342.944 471.343 342.944ZM469.853 346.758C469.853 347.064 469.993 347.292 470.275 347.441C470.565 347.598 470.917 347.677 471.331 347.677C471.729 347.677 472.052 347.594 472.3 347.429C472.548 347.271 472.673 347.056 472.673 346.783C472.673 346.559 472.59 346.373 472.424 346.224C472.267 346.075 471.948 345.983 471.468 345.95C471.128 345.925 470.813 345.888 470.524 345.839C470.283 345.971 470.109 346.116 470.002 346.273C469.902 346.431 469.853 346.592 469.853 346.758Z" fill="#0A071B"/>
</g>
<g filter="url(#filter0_d_1_22928)">
<path d="M64.5703 178.049L69.7566 185.291C74.9732 192.263 85.4975 207.154 95.8094 217.781C106.152 228.814 116.433 235.583 127.048 221.369C137.36 207.154 147.672 170.603 158.288 170.806C168.569 170.603 178.911 207.154 189.223 217.781C199.748 228.814 210.15 213.923 220.462 221.369C230.956 228.814 241.39 257.243 251.701 246.616C262.135 235.583 272.629 185.494 282.941 188.879C293.343 192.263 303.868 218.68 314.18 247.312C324.522 276.214 334.803 276.214 345.419 258.142C357.172 240.843 362.911 234.076 375.55 224.548C388.883 215.805 397.282 228.814 407.594 214.126C418.118 199.709 428.521 156.389 438.833 149.146C449.327 142.174 459.76 170.603 470.072 174.461C480.505 178.049 490.999 156.389 496.155 145.559L501.311 134.729" stroke="#6A65FF" stroke-width="3.52159" stroke-linecap="round"/>
</g>
<g filter="url(#filter1_d_1_22928)">
<ellipse cx="157.3" cy="170.142" rx="6.2766" ry="6.22204" fill="white"/>
<path d="M162.256 170.142C162.256 172.838 160.048 175.043 157.3 175.043C154.552 175.043 152.344 172.838 152.344 170.142C152.344 167.446 154.552 165.241 157.3 165.241C160.048 165.241 162.256 167.446 162.256 170.142Z" stroke="#6A65FF" stroke-width="2.64119"/>
</g>
<g filter="url(#filter2_d_1_22928)">
<ellipse cx="283.046" cy="188.106" rx="6.2766" ry="6.22204" fill="white"/>
<path d="M288.002 188.106C288.002 190.802 285.794 193.007 283.046 193.007C280.298 193.007 278.09 190.802 278.09 188.106C278.09 185.41 280.298 183.204 283.046 183.204C285.794 183.204 288.002 185.41 288.002 188.106Z" stroke="#6A65FF" stroke-width="2.64119"/>
</g>
<g filter="url(#filter3_d_1_22928)">
<ellipse cx="441.351" cy="147.688" rx="6.2766" ry="6.22204" fill="white"/>
<path d="M446.307 147.688C446.307 150.384 444.099 152.589 441.351 152.589C438.603 152.589 436.395 150.384 436.395 147.688C436.395 144.992 438.603 142.786 441.351 142.786C444.099 142.786 446.307 144.992 446.307 147.688Z" stroke="#6A65FF" stroke-width="2.64119"/>
</g>
<g filter="url(#filter4_d_1_22928)">
<ellipse cx="216.804" cy="219.542" rx="6.2766" ry="6.22204" fill="white"/>
<path d="M221.76 219.542C221.76 222.238 219.552 224.444 216.804 224.444C214.056 224.444 211.848 222.238 211.848 219.542C211.848 216.846 214.056 214.641 216.804 214.641C219.552 214.641 221.76 216.846 221.76 219.542Z" stroke="#6A65FF" stroke-width="2.64119"/>
</g>
<g filter="url(#filter5_d_1_22928)">
<ellipse cx="377.355" cy="222.91" rx="6.2766" ry="6.22204" fill="white"/>
<path d="M382.311 222.91C382.311 225.607 380.103 227.812 377.355 227.812C374.607 227.812 372.399 225.607 372.399 222.91C372.399 220.214 374.607 218.009 377.355 218.009C380.103 218.009 382.311 220.214 382.311 222.91Z" stroke="#6A65FF" stroke-width="2.64119"/>
</g>
<rect x="351" y="19" width="129.942" height="32" rx="16" fill="#E9E9E9"/>
<path d="M368.306 40V31.36H371.06C371.132 31.36 371.274 31.362 371.486 31.366C371.702 31.37 371.91 31.384 372.11 31.408C372.794 31.496 373.372 31.74 373.844 32.14C374.32 32.536 374.68 33.042 374.924 33.658C375.168 34.274 375.29 34.948 375.29 35.68C375.29 36.412 375.168 37.086 374.924 37.702C374.68 38.318 374.32 38.826 373.844 39.226C373.372 39.622 372.794 39.864 372.11 39.952C371.914 39.976 371.708 39.99 371.492 39.994C371.276 39.998 371.132 40 371.06 40H368.306ZM369.776 38.638H371.06C371.18 38.638 371.332 38.634 371.516 38.626C371.704 38.618 371.87 38.6 372.014 38.572C372.422 38.496 372.754 38.314 373.01 38.026C373.266 37.738 373.454 37.388 373.574 36.976C373.698 36.564 373.76 36.132 373.76 35.68C373.76 35.212 373.698 34.772 373.574 34.36C373.45 33.948 373.258 33.602 372.998 33.322C372.742 33.042 372.414 32.864 372.014 32.788C371.87 32.756 371.704 32.738 371.516 32.734C371.332 32.726 371.18 32.722 371.06 32.722H369.776V38.638ZM376.834 40L379.558 31.36H381.676L384.4 40H382.912L380.44 32.248H380.764L378.322 40H376.834ZM378.352 38.128V36.778H382.888V38.128H378.352ZM386.565 40V31.36H388.011V40H386.565ZM390.888 40V31.36H392.334V38.644H396.15V40H390.888ZM399.031 40V36.46L396.091 31.36H397.777L399.763 34.804L401.743 31.36H403.429L400.495 36.46V40H399.031ZM410.053 40L407.329 31.36H408.817L411.097 38.596L413.407 31.36H414.895L412.171 40H410.053ZM416.877 40V31.36H418.323V40H416.877ZM424.278 40.18C423.646 40.18 423.076 40.07 422.568 39.85C422.064 39.63 421.648 39.316 421.32 38.908C420.996 38.496 420.79 38.008 420.702 37.444L422.202 37.216C422.33 37.728 422.592 38.124 422.988 38.404C423.388 38.684 423.848 38.824 424.368 38.824C424.676 38.824 424.966 38.776 425.238 38.68C425.51 38.584 425.73 38.444 425.898 38.26C426.07 38.076 426.156 37.85 426.156 37.582C426.156 37.462 426.136 37.352 426.096 37.252C426.056 37.148 425.996 37.056 425.916 36.976C425.84 36.896 425.74 36.824 425.616 36.76C425.496 36.692 425.356 36.634 425.196 36.586L422.964 35.926C422.772 35.87 422.564 35.796 422.34 35.704C422.12 35.608 421.91 35.478 421.71 35.314C421.514 35.146 421.352 34.934 421.224 34.678C421.1 34.418 421.038 34.098 421.038 33.718C421.038 33.162 421.178 32.696 421.458 32.32C421.742 31.94 422.122 31.656 422.598 31.468C423.078 31.28 423.61 31.188 424.194 31.192C424.786 31.196 425.314 31.298 425.778 31.498C426.242 31.694 426.63 31.98 426.942 32.356C427.254 32.732 427.474 33.186 427.602 33.718L426.048 33.988C425.984 33.684 425.86 33.426 425.676 33.214C425.496 32.998 425.274 32.834 425.01 32.722C424.75 32.61 424.472 32.55 424.176 32.542C423.888 32.538 423.62 32.582 423.372 32.674C423.128 32.762 422.93 32.89 422.778 33.058C422.63 33.226 422.556 33.422 422.556 33.646C422.556 33.858 422.62 34.032 422.748 34.168C422.876 34.3 423.034 34.406 423.222 34.486C423.414 34.562 423.608 34.626 423.804 34.678L425.352 35.11C425.564 35.166 425.802 35.242 426.066 35.338C426.33 35.434 426.584 35.568 426.828 35.74C427.072 35.912 427.272 36.138 427.428 36.418C427.588 36.698 427.668 37.054 427.668 37.486C427.668 37.934 427.574 38.328 427.386 38.668C427.202 39.004 426.952 39.284 426.636 39.508C426.32 39.732 425.958 39.9 425.55 40.012C425.146 40.124 424.722 40.18 424.278 40.18ZM430.047 40V31.36H431.493V40H430.047ZM436.326 40V32.716H433.53V31.36H440.568V32.716H437.772V40H436.326ZM445.685 40.18C445.053 40.18 444.483 40.07 443.975 39.85C443.471 39.63 443.055 39.316 442.727 38.908C442.403 38.496 442.197 38.008 442.109 37.444L443.609 37.216C443.737 37.728 443.999 38.124 444.395 38.404C444.795 38.684 445.255 38.824 445.775 38.824C446.083 38.824 446.373 38.776 446.645 38.68C446.917 38.584 447.137 38.444 447.305 38.26C447.477 38.076 447.563 37.85 447.563 37.582C447.563 37.462 447.543 37.352 447.503 37.252C447.463 37.148 447.403 37.056 447.323 36.976C447.247 36.896 447.147 36.824 447.023 36.76C446.903 36.692 446.763 36.634 446.603 36.586L444.371 35.926C444.179 35.87 443.971 35.796 443.747 35.704C443.527 35.608 443.317 35.478 443.117 35.314C442.921 35.146 442.759 34.934 442.631 34.678C442.507 34.418 442.445 34.098 442.445 33.718C442.445 33.162 442.585 32.696 442.865 32.32C443.149 31.94 443.529 31.656 444.005 31.468C444.485 31.28 445.017 31.188 445.601 31.192C446.193 31.196 446.721 31.298 447.185 31.498C447.649 31.694 448.037 31.98 448.349 32.356C448.661 32.732 448.881 33.186 449.009 33.718L447.455 33.988C447.391 33.684 447.267 33.426 447.083 33.214C446.903 32.998 446.681 32.834 446.417 32.722C446.157 32.61 445.879 32.55 445.583 32.542C445.295 32.538 445.027 32.582 444.779 32.674C444.535 32.762 444.337 32.89 444.185 33.058C444.037 33.226 443.963 33.422 443.963 33.646C443.963 33.858 444.027 34.032 444.155 34.168C444.283 34.3 444.441 34.406 444.629 34.486C444.821 34.562 445.015 34.626 445.211 34.678L446.759 35.11C446.971 35.166 447.209 35.242 447.473 35.338C447.737 35.434 447.991 35.568 448.235 35.74C448.479 35.912 448.679 36.138 448.835 36.418C448.995 36.698 449.075 37.054 449.075 37.486C449.075 37.934 448.981 38.328 448.793 38.668C448.609 39.004 448.359 39.284 448.043 39.508C447.727 39.732 447.365 39.9 446.957 40.012C446.553 40.124 446.129 40.18 445.685 40.18Z" fill="#0A071B"/>
<path d="M458 33.257L461.471 36.743L464.942 33.257" stroke="#0A071B" stroke-width="1.5" stroke-linecap="round" stroke-linejoin="round"/>
</g>
<defs>
<filter id="filter0_d_1_22928" x="-2.70586" y="70.9744" width="571.291" height="270.402" filterUnits="userSpaceOnUse" color-interpolation-filters="sRGB">
<feFlood flood-opacity="0" result="BackgroundImageFix"/>
<feColorMatrix in="SourceAlpha" type="matrix" values="0 0 0 0 0 0 0 0 0 0 0 0 0 0 0 0 0 0 127 0" result="hardAlpha"/>
<feOffset dy="3.52159"/>
<feGaussianBlur stdDeviation="32.7572"/>
<feColorMatrix type="matrix" values="0 0 0 0 0.827451 0 0 0 0 0.905882 0 0 0 0 0.388235 0 0 0 1 0"/>
<feBlend mode="normal" in2="BackgroundImageFix" result="effect1_dropShadow_1_22928"/>
<feBlend mode="normal" in="SourceGraphic" in2="effect1_dropShadow_1_22928" result="shape"/>
</filter>
<filter id="filter1_d_1_22928" x="147.502" y="163.92" width="19.5979" height="19.4873" filterUnits="userSpaceOnUse" color-interpolation-filters="sRGB">
<feFlood flood-opacity="0" result="BackgroundImageFix"/>
<feColorMatrix in="SourceAlpha" type="matrix" values="0 0 0 0 0 0 0 0 0 0 0 0 0 0 0 0 0 0 127 0" result="hardAlpha"/>
<feOffset dy="3.52159"/>
<feGaussianBlur stdDeviation="1.76079"/>
<feColorMatrix type="matrix" values="0 0 0 0 0.156863 0 0 0 0 0.635294 0 0 0 0 0.388235 0 0 0 0.03 0"/>
<feBlend mode="normal" in2="BackgroundImageFix" result="effect1_dropShadow_1_22928"/>
<feBlend mode="normal" in="SourceGraphic" in2="effect1_dropShadow_1_22928" result="shape"/>
</filter>
<filter id="filter2_d_1_22928" x="273.248" y="181.884" width="19.5979" height="19.4873" filterUnits="userSpaceOnUse" color-interpolation-filters="sRGB">
<feFlood flood-opacity="0" result="BackgroundImageFix"/>
<feColorMatrix in="SourceAlpha" type="matrix" values="0 0 0 0 0 0 0 0 0 0 0 0 0 0 0 0 0 0 127 0" result="hardAlpha"/>
<feOffset dy="3.52159"/>
<feGaussianBlur stdDeviation="1.76079"/>
<feColorMatrix type="matrix" values="0 0 0 0 0.156863 0 0 0 0 0.635294 0 0 0 0 0.388235 0 0 0 0.03 0"/>
<feBlend mode="normal" in2="BackgroundImageFix" result="effect1_dropShadow_1_22928"/>
<feBlend mode="normal" in="SourceGraphic" in2="effect1_dropShadow_1_22928" result="shape"/>
</filter>
<filter id="filter3_d_1_22928" x="431.553" y="141.466" width="19.5979" height="19.4873" filterUnits="userSpaceOnUse" color-interpolation-filters="sRGB">
<feFlood flood-opacity="0" result="BackgroundImageFix"/>
<feColorMatrix in="SourceAlpha" type="matrix" values="0 0 0 0 0 0 0 0 0 0 0 0 0 0 0 0 0 0 127 0" result="hardAlpha"/>
<feOffset dy="3.52159"/>
<feGaussianBlur stdDeviation="1.76079"/>
<feColorMatrix type="matrix" values="0 0 0 0 0.156863 0 0 0 0 0.635294 0 0 0 0 0.388235 0 0 0 0.03 0"/>
<feBlend mode="normal" in2="BackgroundImageFix" result="effect1_dropShadow_1_22928"/>
<feBlend mode="normal" in="SourceGraphic" in2="effect1_dropShadow_1_22928" result="shape"/>
</filter>
<filter id="filter4_d_1_22928" x="207.006" y="213.32" width="19.5979" height="19.4873" filterUnits="userSpaceOnUse" color-interpolation-filters="sRGB">
<feFlood flood-opacity="0" result="BackgroundImageFix"/>
<feColorMatrix in="SourceAlpha" type="matrix" values="0 0 0 0 0 0 0 0 0 0 0 0 0 0 0 0 0 0 127 0" result="hardAlpha"/>
<feOffset dy="3.52159"/>
<feGaussianBlur stdDeviation="1.76079"/>
<feColorMatrix type="matrix" values="0 0 0 0 0.156863 0 0 0 0 0.635294 0 0 0 0 0.388235 0 0 0 0.12 0"/>
<feBlend mode="normal" in2="BackgroundImageFix" result="effect1_dropShadow_1_22928"/>
<feBlend mode="normal" in="SourceGraphic" in2="effect1_dropShadow_1_22928" result="shape"/>
</filter>
<filter id="filter5_d_1_22928" x="367.557" y="216.688" width="19.5979" height="19.4873" filterUnits="userSpaceOnUse" color-interpolation-filters="sRGB">
<feFlood flood-opacity="0" result="BackgroundImageFix"/>
<feColorMatrix in="SourceAlpha" type="matrix" values="0 0 0 0 0 0 0 0 0 0 0 0 0 0 0 0 0 0 127 0" result="hardAlpha"/>
<feOffset dy="3.52159"/>
<feGaussianBlur stdDeviation="1.76079"/>
<feColorMatrix type="matrix" values="0 0 0 0 0.156863 0 0 0 0 0.635294 0 0 0 0 0.388235 0 0 0 0.03 0"/>
<feBlend mode="normal" in2="BackgroundImageFix" result="effect1_dropShadow_1_22928"/>
<feBlend mode="normal" in="SourceGraphic" in2="effect1_dropShadow_1_22928" result="shape"/>
</filter>
<linearGradient id="paint0_linear_1_22928" x1="183.5" y1="112" x2="183.5" y2="330" gradientUnits="userSpaceOnUse">
<stop stop-color="#B3C9FF"/>
<stop offset="1" stop-color="#F8C8FF" stop-opacity="0.39"/>
</linearGradient>
<clipPath id="clip0_1_22928">
<path d="M0 12.3987C0 5.55107 5.55106 0 12.3986 0H490.601C497.449 0 503 5.55106 503 12.3986V388H0V12.3987Z" fill="white"/>
</clipPath>
</defs>
</svg>
