<svg width="743" height="613" viewBox="0 0 743 613" fill="none" xmlns="http://www.w3.org/2000/svg">
<rect opacity="0.2" x="77" width="575" height="436" rx="12.3986" fill="url(#paint0_linear_2070_1433)"/>
<g clip-path="url(#clip0_2070_1433)">
<rect x="113" y="36" width="503" height="408" rx="12.3986" fill="white"/>
<path d="M149.328 77.4715C147.94 77.4715 146.723 77.1673 145.678 76.5589C144.647 75.9506 143.833 75.1107 143.238 74.0395C142.656 72.955 142.365 71.7053 142.365 70.2902C142.365 68.8751 142.656 67.6319 143.238 66.5606C143.833 65.4762 144.647 64.6298 145.678 64.0214C146.723 63.413 147.94 63.1089 149.328 63.1089C150.704 63.1089 151.914 63.413 152.959 64.0214C154.004 64.6298 154.817 65.4762 155.399 66.5606C155.981 67.6319 156.272 68.8751 156.272 70.2902C156.272 71.7053 155.981 72.955 155.399 74.0395C154.817 75.1107 154.004 75.9506 152.959 76.5589C151.914 77.1673 150.704 77.4715 149.328 77.4715ZM149.328 75.1901C150.651 75.1901 151.702 74.7537 152.483 73.8808C153.276 73.0079 153.673 71.8111 153.673 70.2902C153.673 68.7693 153.276 67.5724 152.483 66.6995C151.702 65.8266 150.651 65.3902 149.328 65.3902C148.006 65.3902 146.948 65.8266 146.154 66.6995C145.361 67.5724 144.964 68.7693 144.964 70.2902C144.964 71.8111 145.361 73.0079 146.154 73.8808C146.948 74.7537 148.006 75.1901 149.328 75.1901ZM160.319 77.2334L156.708 67.3938H159.367L161.866 74.833L164.366 67.3938H167.024L163.394 77.2334H160.319ZM172.129 77.4715C171.137 77.4715 170.257 77.2598 169.49 76.8366C168.723 76.4134 168.122 75.8183 167.685 75.0512C167.249 74.2842 167.03 73.3981 167.03 72.393C167.03 71.3746 167.242 70.4687 167.665 69.6752C168.102 68.8817 168.697 68.2667 169.451 67.8303C170.218 67.3806 171.117 67.1558 172.149 67.1558C173.114 67.1558 173.967 67.3674 174.708 67.7906C175.448 68.2138 176.024 68.7957 176.434 69.5363C176.857 70.2637 177.068 71.0771 177.068 71.9764C177.068 72.1218 177.062 72.2739 177.049 72.4326C177.049 72.5913 177.042 72.7567 177.029 72.9286H169.55C169.603 73.6957 169.867 74.2974 170.343 74.7338C170.833 75.1703 171.421 75.3885 172.109 75.3885C172.625 75.3885 173.055 75.2761 173.398 75.0512C173.755 74.8132 174.02 74.509 174.192 74.1387H176.771C176.586 74.7603 176.275 75.329 175.838 75.8447C175.415 76.3473 174.886 76.7441 174.251 77.035C173.63 77.326 172.922 77.4715 172.129 77.4715ZM172.149 69.2189C171.527 69.2189 170.978 69.3975 170.502 69.7545C170.026 70.0984 169.722 70.6274 169.59 71.3416H174.489C174.45 70.6935 174.212 70.1777 173.775 69.7942C173.339 69.4107 172.797 69.2189 172.149 69.2189ZM178.411 77.2334V67.3938H180.672L180.91 69.2387C181.267 68.6039 181.75 68.1014 182.358 67.7311C182.98 67.3475 183.707 67.1558 184.54 67.1558V69.8339H183.826C183.271 69.8339 182.775 69.9198 182.338 70.0918C181.902 70.2637 181.558 70.5613 181.307 70.9845C181.069 71.4077 180.95 71.9962 180.95 72.75V77.2334H178.411ZM188.141 77.2334L184.53 67.3938H187.188L189.688 74.833L192.188 67.3938H194.846L191.216 77.2334H188.141ZM197.023 65.8663C196.56 65.8663 196.176 65.7275 195.872 65.4497C195.581 65.172 195.436 64.8215 195.436 64.3983C195.436 63.9751 195.581 63.6313 195.872 63.3667C196.176 63.089 196.56 62.9502 197.023 62.9502C197.486 62.9502 197.863 63.089 198.154 63.3667C198.458 63.6313 198.61 63.9751 198.61 64.3983C198.61 64.8215 198.458 65.172 198.154 65.4497C197.863 65.7275 197.486 65.8663 197.023 65.8663ZM195.753 77.2334V67.3938H198.292V77.2334H195.753ZM204.93 77.4715C203.938 77.4715 203.059 77.2598 202.292 76.8366C201.525 76.4134 200.923 75.8183 200.487 75.0512C200.05 74.2842 199.832 73.3981 199.832 72.393C199.832 71.3746 200.043 70.4687 200.467 69.6752C200.903 68.8817 201.498 68.2667 202.252 67.8303C203.019 67.3806 203.918 67.1558 204.95 67.1558C205.915 67.1558 206.768 67.3674 207.509 67.7906C208.25 68.2138 208.825 68.7957 209.235 69.5363C209.658 70.2637 209.87 71.0771 209.87 71.9764C209.87 72.1218 209.863 72.2739 209.85 72.4326C209.85 72.5913 209.843 72.7567 209.83 72.9286H202.351C202.404 73.6957 202.669 74.2974 203.145 74.7338C203.634 75.1703 204.223 75.3885 204.91 75.3885C205.426 75.3885 205.856 75.2761 206.2 75.0512C206.557 74.8132 206.821 74.509 206.993 74.1387H209.572C209.387 74.7603 209.076 75.329 208.64 75.8447C208.217 76.3473 207.688 76.7441 207.053 77.035C206.431 77.326 205.724 77.4715 204.93 77.4715ZM204.95 69.2189C204.328 69.2189 203.78 69.3975 203.303 69.7545C202.827 70.0984 202.523 70.6274 202.391 71.3416H207.291C207.251 70.6935 207.013 70.1777 206.577 69.7942C206.14 69.4107 205.598 69.2189 204.95 69.2189ZM212.749 77.2334L209.872 67.3938H212.392L214.098 74.4759L216.082 67.3938H218.898L220.882 74.4759L222.608 67.3938H225.128L222.231 77.2334H219.593L217.49 69.8736L215.387 77.2334H212.749Z" fill="#0A071B"/>
<rect opacity="0.2" x="275" y="148" width="43" height="218" rx="8" fill="url(#paint1_linear_2070_1433)"/>
<g opacity="0.7">
<path opacity="0.7" d="M161.629 160.149C161.033 160.149 160.494 160.046 160.014 159.839C159.534 159.623 159.149 159.321 158.859 158.932C158.577 158.542 158.436 158.091 158.436 157.578C158.436 157.047 158.573 156.584 158.846 156.186C159.128 155.789 159.497 155.503 159.952 155.329C159.554 155.155 159.24 154.907 159.008 154.584C158.776 154.252 158.66 153.884 158.66 153.478C158.66 153.064 158.772 152.683 158.995 152.335C159.219 151.979 159.55 151.693 159.989 151.478C160.437 151.262 160.983 151.155 161.629 151.155C162.275 151.155 162.818 151.262 163.257 151.478C163.695 151.693 164.027 151.979 164.25 152.335C164.474 152.683 164.586 153.064 164.586 153.478C164.586 153.875 164.466 154.244 164.226 154.584C163.994 154.915 163.683 155.163 163.294 155.329C163.758 155.503 164.126 155.789 164.399 156.186C164.673 156.584 164.809 157.047 164.809 157.578C164.809 158.091 164.669 158.542 164.387 158.932C164.105 159.321 163.72 159.623 163.232 159.839C162.751 160.046 162.217 160.149 161.629 160.149ZM161.629 154.857C162.06 154.857 162.399 154.745 162.648 154.521C162.896 154.298 163.021 154.012 163.021 153.664C163.021 153.283 162.896 152.985 162.648 152.77C162.408 152.554 162.068 152.447 161.629 152.447C161.182 152.447 160.838 152.554 160.598 152.77C160.358 152.985 160.238 153.283 160.238 153.664C160.238 154.02 160.358 154.31 160.598 154.534C160.846 154.749 161.19 154.857 161.629 154.857ZM161.629 158.82C162.159 158.82 162.561 158.691 162.834 158.435C163.107 158.17 163.244 157.838 163.244 157.441C163.244 157.002 163.099 156.658 162.809 156.41C162.528 156.161 162.134 156.037 161.629 156.037C161.124 156.037 160.722 156.161 160.424 156.41C160.134 156.658 159.989 157.002 159.989 157.441C159.989 157.838 160.126 158.17 160.399 158.435C160.681 158.691 161.091 158.82 161.629 158.82ZM161.119 176.149C160.316 176.149 159.628 175.963 159.057 175.59C158.485 175.209 158.042 174.683 157.728 174.012C157.421 173.333 157.268 172.546 157.268 171.652C157.268 170.766 157.421 169.983 157.728 169.304C158.042 168.625 158.485 168.099 159.057 167.726C159.628 167.345 160.316 167.155 161.119 167.155C161.922 167.155 162.61 167.345 163.181 167.726C163.753 168.099 164.192 168.625 164.498 169.304C164.813 169.983 164.97 170.766 164.97 171.652C164.97 172.546 164.813 173.333 164.498 174.012C164.192 174.683 163.753 175.209 163.181 175.59C162.61 175.963 161.922 176.149 161.119 176.149ZM161.119 174.72C161.773 174.72 162.308 174.447 162.722 173.901C163.136 173.354 163.343 172.604 163.343 171.652C163.343 170.7 163.136 169.95 162.722 169.403C162.308 168.857 161.773 168.583 161.119 168.583C160.457 168.583 159.918 168.857 159.504 169.403C159.098 169.95 158.895 170.7 158.895 171.652C158.895 172.604 159.098 173.354 159.504 173.901C159.918 174.447 160.457 174.72 161.119 174.72Z" fill="#0A071B"/>
<path opacity="0.7" d="M161.767 215.125C161.113 215.125 160.562 215.005 160.115 214.765C159.668 214.525 159.307 214.202 159.034 213.796C158.761 213.39 158.562 212.939 158.438 212.442C158.322 211.945 158.264 211.435 158.264 210.914C158.264 209.945 158.401 209.104 158.674 208.392C158.947 207.671 159.341 207.116 159.854 206.727C160.368 206.33 160.989 206.131 161.718 206.131C162.314 206.131 162.819 206.251 163.233 206.491C163.656 206.723 163.983 207.029 164.215 207.41C164.446 207.791 164.583 208.201 164.625 208.64H163.146C163.072 208.259 162.91 207.965 162.662 207.758C162.413 207.551 162.094 207.448 161.705 207.448C161.15 207.448 160.703 207.704 160.363 208.218C160.024 208.723 159.842 209.497 159.817 210.541C160.016 210.201 160.314 209.92 160.711 209.696C161.109 209.473 161.552 209.361 162.041 209.361C162.521 209.361 162.972 209.477 163.395 209.709C163.817 209.94 164.157 210.268 164.413 210.69C164.678 211.112 164.811 211.609 164.811 212.181C164.811 212.703 164.683 213.187 164.426 213.634C164.177 214.081 163.821 214.442 163.357 214.715C162.902 214.988 162.372 215.125 161.767 215.125ZM161.68 213.758C162.144 213.758 162.525 213.618 162.823 213.336C163.13 213.046 163.283 212.682 163.283 212.243C163.283 211.779 163.13 211.406 162.823 211.125C162.517 210.843 162.128 210.702 161.655 210.702C161.349 210.702 161.072 210.773 160.823 210.914C160.583 211.046 160.392 211.228 160.252 211.46C160.111 211.684 160.04 211.936 160.04 212.218C160.04 212.665 160.194 213.034 160.5 213.324C160.815 213.614 161.208 213.758 161.68 213.758ZM161.119 231.125C160.316 231.125 159.628 230.939 159.057 230.566C158.485 230.185 158.042 229.659 157.728 228.988C157.421 228.309 157.268 227.522 157.268 226.628C157.268 225.742 157.421 224.959 157.728 224.28C158.042 223.601 158.485 223.075 159.057 222.702C159.628 222.321 160.316 222.131 161.119 222.131C161.922 222.131 162.61 222.321 163.181 222.702C163.753 223.075 164.192 223.601 164.498 224.28C164.813 224.959 164.97 225.742 164.97 226.628C164.97 227.522 164.813 228.309 164.498 228.988C164.192 229.659 163.753 230.185 163.181 230.566C162.61 230.939 161.922 231.125 161.119 231.125ZM161.119 229.696C161.773 229.696 162.308 229.423 162.722 228.876C163.136 228.33 163.343 227.58 163.343 226.628C163.343 225.675 163.136 224.926 162.722 224.379C162.308 223.833 161.773 223.559 161.119 223.559C160.457 223.559 159.918 223.833 159.504 224.379C159.098 224.926 158.895 225.675 158.895 226.628C158.895 227.58 159.098 228.33 159.504 228.876C159.918 229.423 160.457 229.696 161.119 229.696Z" fill="#0A071B"/>
<path opacity="0.7" d="M162.39 269.952V268.337H158.104V267.07L162.179 261.256H163.981V266.958H165.124V268.337H163.981V269.952H162.39ZM159.806 266.958H162.49V263.007L159.806 266.958ZM161.119 286.101C160.316 286.101 159.628 285.915 159.057 285.542C158.485 285.161 158.042 284.635 157.728 283.964C157.421 283.285 157.268 282.498 157.268 281.604C157.268 280.718 157.421 279.935 157.728 279.256C158.042 278.577 158.485 278.051 159.057 277.678C159.628 277.297 160.316 277.107 161.119 277.107C161.922 277.107 162.61 277.297 163.181 277.678C163.753 278.051 164.192 278.577 164.498 279.256C164.813 279.935 164.97 280.718 164.97 281.604C164.97 282.498 164.813 283.285 164.498 283.964C164.192 284.635 163.753 285.161 163.181 285.542C162.61 285.915 161.922 286.101 161.119 286.101ZM161.119 284.672C161.773 284.672 162.308 284.399 162.722 283.852C163.136 283.306 163.343 282.556 163.343 281.604C163.343 280.651 163.136 279.902 162.722 279.355C162.308 278.809 161.773 278.535 161.119 278.535C160.457 278.535 159.918 278.809 159.504 279.355C159.098 279.902 158.895 280.651 158.895 281.604C158.895 282.556 159.098 283.306 159.504 283.852C159.918 284.399 160.457 284.672 161.119 284.672Z" fill="#0A071B"/>
<path opacity="0.7" d="M159.126 324.928V323.772C159.656 323.333 160.169 322.899 160.666 322.468C161.172 322.037 161.619 321.611 162.008 321.188C162.406 320.766 162.72 320.356 162.952 319.959C163.192 319.553 163.312 319.159 163.312 318.778C163.312 318.422 163.213 318.107 163.014 317.834C162.824 317.561 162.505 317.424 162.058 317.424C161.602 317.424 161.259 317.573 161.027 317.871C160.795 318.17 160.679 318.53 160.679 318.952H159.138C159.155 318.315 159.296 317.784 159.561 317.362C159.826 316.931 160.178 316.613 160.617 316.406C161.056 316.19 161.548 316.083 162.095 316.083C162.981 316.083 163.669 316.327 164.157 316.815C164.654 317.296 164.903 317.921 164.903 318.691C164.903 319.172 164.791 319.64 164.567 320.095C164.352 320.551 164.066 320.99 163.71 321.412C163.354 321.834 162.969 322.232 162.555 322.605C162.141 322.969 161.739 323.309 161.35 323.623H165.114V324.928H159.126ZM161.119 341.077C160.316 341.077 159.628 340.89 159.057 340.518C158.485 340.137 158.042 339.611 157.728 338.94C157.421 338.261 157.268 337.474 157.268 336.58C157.268 335.693 157.421 334.911 157.728 334.232C158.042 333.553 158.485 333.027 159.057 332.654C159.628 332.273 160.316 332.083 161.119 332.083C161.922 332.083 162.61 332.273 163.181 332.654C163.753 333.027 164.192 333.553 164.498 334.232C164.813 334.911 164.97 335.693 164.97 336.58C164.97 337.474 164.813 338.261 164.498 338.94C164.192 339.611 163.753 340.137 163.181 340.518C162.61 340.89 161.922 341.077 161.119 341.077ZM161.119 339.648C161.773 339.648 162.308 339.375 162.722 338.828C163.136 338.282 163.343 337.532 163.343 336.58C163.343 335.627 163.136 334.878 162.722 334.331C162.308 333.784 161.773 333.511 161.119 333.511C160.457 333.511 159.918 333.784 159.504 334.331C159.098 334.878 158.895 335.627 158.895 336.58C158.895 337.532 159.098 338.282 159.504 338.828C159.918 339.375 160.457 339.648 161.119 339.648Z" fill="#0A071B"/>
<path opacity="0.7" d="M157.238 380.053C156.434 380.053 155.747 379.866 155.175 379.494C154.604 379.113 154.161 378.587 153.846 377.916C153.54 377.237 153.386 376.45 153.386 375.556C153.386 374.669 153.54 373.887 153.846 373.208C154.161 372.529 154.604 372.003 155.175 371.63C155.747 371.249 156.434 371.058 157.238 371.058C158.041 371.058 158.728 371.249 159.3 371.63C159.871 372.003 160.31 372.529 160.617 373.208C160.931 373.887 161.089 374.669 161.089 375.556C161.089 376.45 160.931 377.237 160.617 377.916C160.31 378.587 159.871 379.113 159.3 379.494C158.728 379.866 158.041 380.053 157.238 380.053ZM157.238 378.624C157.892 378.624 158.426 378.351 158.84 377.804C159.254 377.258 159.461 376.508 159.461 375.556C159.461 374.603 159.254 373.854 158.84 373.307C158.426 372.76 157.892 372.487 157.238 372.487C156.575 372.487 156.037 372.76 155.623 373.307C155.217 373.854 155.014 374.603 155.014 375.556C155.014 376.508 155.217 377.258 155.623 377.804C156.037 378.351 156.575 378.624 157.238 378.624Z" fill="#0A071B"/>
</g>
<g opacity="0.7">
<path opacity="0.7" d="M192.545 382L195.726 373.304H197.515L200.695 382H199.005L198.31 379.987H194.918L194.21 382H192.545ZM195.353 378.745H197.875L196.608 375.13L195.353 378.745ZM201.778 384.733V375.838H203.194L203.368 376.72C203.567 376.447 203.828 376.207 204.151 376C204.482 375.793 204.908 375.689 205.43 375.689C206.01 375.689 206.528 375.83 206.983 376.111C207.439 376.393 207.799 376.778 208.064 377.267C208.329 377.755 208.461 378.31 208.461 378.932C208.461 379.553 208.329 380.108 208.064 380.596C207.799 381.077 207.439 381.458 206.983 381.739C206.528 382.012 206.01 382.149 205.43 382.149C204.966 382.149 204.561 382.062 204.213 381.888C203.865 381.714 203.583 381.47 203.368 381.155V384.733H201.778ZM205.095 380.758C205.6 380.758 206.018 380.588 206.35 380.248C206.681 379.909 206.846 379.47 206.846 378.932C206.846 378.393 206.681 377.95 206.35 377.602C206.018 377.254 205.6 377.08 205.095 377.08C204.581 377.08 204.159 377.254 203.828 377.602C203.505 377.942 203.343 378.381 203.343 378.919C203.343 379.457 203.505 379.901 203.828 380.248C204.159 380.588 204.581 380.758 205.095 380.758ZM209.882 382V375.838H211.298L211.447 376.994C211.671 376.596 211.973 376.281 212.354 376.049C212.743 375.809 213.199 375.689 213.721 375.689V377.366H213.273C212.926 377.366 212.615 377.42 212.342 377.528C212.068 377.635 211.853 377.822 211.696 378.087C211.547 378.352 211.472 378.72 211.472 379.192V382H209.882Z" fill="#0A071B"/>
<path opacity="0.7" d="M286.501 382V373.304H288.39L291.16 378.82L293.893 373.304H295.781V382H294.191V376L291.769 380.758H290.514L288.091 376V382H286.501ZM299.556 382.149C299.026 382.149 298.591 382.066 298.251 381.901C297.912 381.727 297.659 381.499 297.493 381.217C297.328 380.936 297.245 380.625 297.245 380.286C297.245 379.714 297.468 379.25 297.916 378.894C298.363 378.538 299.034 378.36 299.928 378.36H301.494V378.211C301.494 377.789 301.373 377.478 301.133 377.279C300.893 377.08 300.595 376.981 300.239 376.981C299.916 376.981 299.634 377.06 299.394 377.217C299.154 377.366 299.005 377.59 298.947 377.888H297.394C297.435 377.441 297.584 377.051 297.841 376.72C298.106 376.389 298.446 376.136 298.86 375.962C299.274 375.78 299.738 375.689 300.251 375.689C301.129 375.689 301.821 375.909 302.326 376.348C302.831 376.786 303.084 377.408 303.084 378.211V382H301.73L301.581 381.006C301.398 381.337 301.142 381.611 300.81 381.826C300.487 382.041 300.069 382.149 299.556 382.149ZM299.916 380.907C300.371 380.907 300.723 380.758 300.972 380.46C301.229 380.161 301.39 379.793 301.456 379.354H300.102C299.68 379.354 299.377 379.433 299.195 379.59C299.013 379.739 298.922 379.925 298.922 380.149C298.922 380.389 299.013 380.575 299.195 380.708C299.377 380.841 299.618 380.907 299.916 380.907ZM305.165 384.733L306.594 381.59H306.221L303.823 375.838H305.55L307.277 380.174L309.078 375.838H310.768L306.855 384.733H305.165Z" fill="#0A071B"/>
<path opacity="0.7" d="M385.39 382.149C384.545 382.149 383.866 381.913 383.353 381.441C382.847 380.961 382.595 380.281 382.595 379.404H384.185C384.193 379.809 384.288 380.132 384.471 380.373C384.653 380.613 384.947 380.733 385.353 380.733C385.734 380.733 386.011 380.621 386.185 380.397C386.359 380.166 386.446 379.863 386.446 379.491V373.304H388.036V379.491C388.036 380.344 387.796 381.002 387.316 381.466C386.843 381.921 386.202 382.149 385.39 382.149ZM392.002 382.149C391.232 382.149 390.635 381.909 390.213 381.429C389.799 380.948 389.592 380.244 389.592 379.317V375.838H391.17V379.168C391.17 379.698 391.277 380.103 391.493 380.385C391.708 380.667 392.047 380.807 392.511 380.807C392.95 380.807 393.31 380.65 393.592 380.335C393.882 380.021 394.027 379.582 394.027 379.018V375.838H395.617V382H394.213L394.089 380.956C393.898 381.321 393.621 381.611 393.257 381.826C392.9 382.041 392.482 382.149 392.002 382.149ZM397.249 382V375.838H398.653L398.777 376.882C398.968 376.517 399.241 376.227 399.597 376.012C399.962 375.797 400.388 375.689 400.877 375.689C401.639 375.689 402.231 375.929 402.653 376.41C403.076 376.89 403.287 377.594 403.287 378.522V382H401.697V378.671C401.697 378.141 401.589 377.735 401.374 377.453C401.158 377.172 400.823 377.031 400.368 377.031C399.92 377.031 399.552 377.188 399.262 377.503C398.98 377.818 398.839 378.257 398.839 378.82V382H397.249Z" fill="#0A071B"/>
<path opacity="0.7" d="M478.733 382.149C477.888 382.149 477.209 381.913 476.696 381.441C476.191 380.961 475.938 380.281 475.938 379.404H477.528C477.536 379.809 477.632 380.132 477.814 380.373C477.996 380.613 478.29 380.733 478.696 380.733C479.077 380.733 479.354 380.621 479.528 380.397C479.702 380.166 479.789 379.863 479.789 379.491V373.304H481.379V379.491C481.379 380.344 481.139 381.002 480.659 381.466C480.187 381.921 479.545 382.149 478.733 382.149ZM485.345 382.149C484.575 382.149 483.979 381.909 483.556 381.429C483.142 380.948 482.935 380.244 482.935 379.317V375.838H484.513V379.168C484.513 379.698 484.62 380.103 484.836 380.385C485.051 380.667 485.391 380.807 485.854 380.807C486.293 380.807 486.654 380.65 486.935 380.335C487.225 380.021 487.37 379.582 487.37 379.018V375.838H488.96V382H487.556L487.432 380.956C487.242 381.321 486.964 381.611 486.6 381.826C486.244 382.041 485.825 382.149 485.345 382.149ZM490.593 382V373.055H492.183V382H490.593Z" fill="#0A071B"/>
<path opacity="0.7" d="M565.065 382L568.246 373.304H570.035L573.215 382H571.525L570.83 379.987H567.438L566.73 382H565.065ZM567.873 378.745H570.395L569.128 375.13L567.873 378.745ZM576.487 382.149C575.717 382.149 575.121 381.909 574.698 381.429C574.284 380.948 574.077 380.244 574.077 379.317V375.838H575.655V379.168C575.655 379.698 575.762 380.103 575.978 380.385C576.193 380.667 576.533 380.807 576.996 380.807C577.435 380.807 577.796 380.65 578.077 380.335C578.367 380.021 578.512 379.582 578.512 379.018V375.838H580.102V382H578.698L578.574 380.956C578.384 381.321 578.106 381.611 577.742 381.826C577.386 382.041 576.967 382.149 576.487 382.149ZM584.343 380.161C584.045 380.161 583.768 380.128 583.511 380.062L583.051 380.522C583.192 380.596 583.383 380.658 583.623 380.708C583.863 380.758 584.252 380.807 584.791 380.857C585.611 380.932 586.207 381.126 586.58 381.441C586.952 381.756 587.139 382.19 587.139 382.745C587.139 383.11 587.039 383.453 586.84 383.776C586.642 384.108 586.335 384.373 585.921 384.572C585.507 384.779 584.977 384.882 584.331 384.882C583.453 384.882 582.745 384.717 582.207 384.385C581.668 384.062 581.399 383.574 581.399 382.919C581.399 382.364 581.668 381.884 582.207 381.478C582.041 381.404 581.896 381.325 581.772 381.242C581.656 381.159 581.552 381.072 581.461 380.981V380.696L582.542 379.553C582.062 379.13 581.822 378.588 581.822 377.925C581.822 377.511 581.921 377.134 582.12 376.795C582.327 376.455 582.617 376.186 582.989 375.987C583.362 375.788 583.813 375.689 584.343 375.689C584.691 375.689 585.014 375.739 585.312 375.838H587.648V376.807L586.592 376.882C586.758 377.196 586.84 377.544 586.84 377.925C586.84 378.339 586.741 378.716 586.542 379.056C586.344 379.395 586.054 379.664 585.673 379.863C585.3 380.062 584.857 380.161 584.343 380.161ZM584.343 378.944C584.666 378.944 584.931 378.857 585.139 378.683C585.354 378.509 585.462 378.261 585.462 377.938C585.462 377.615 585.354 377.366 585.139 377.192C584.931 377.018 584.666 376.931 584.343 376.931C584.004 376.931 583.731 377.018 583.524 377.192C583.316 377.366 583.213 377.615 583.213 377.938C583.213 378.261 583.316 378.509 583.524 378.683C583.731 378.857 584.004 378.944 584.343 378.944ZM582.853 382.758C582.853 383.064 582.993 383.292 583.275 383.441C583.565 383.598 583.917 383.677 584.331 383.677C584.729 383.677 585.052 383.594 585.3 383.429C585.548 383.271 585.673 383.056 585.673 382.783C585.673 382.559 585.59 382.373 585.424 382.224C585.267 382.075 584.948 381.983 584.468 381.95C584.128 381.925 583.813 381.888 583.524 381.839C583.283 381.971 583.109 382.116 583.002 382.273C582.902 382.431 582.853 382.592 582.853 382.758Z" fill="#0A071B"/>
</g>
<g filter="url(#filter0_d_2070_1433)">
<path d="M177.57 214.049L182.757 221.291C187.973 228.263 198.497 243.154 208.809 253.781C219.152 264.814 229.433 271.583 240.048 257.369C250.36 243.154 260.672 206.603 271.288 206.806C281.569 206.603 291.911 243.154 302.223 253.781C312.748 264.814 323.15 249.923 333.462 257.369C343.956 264.814 354.39 293.243 364.701 282.616C375.135 271.583 385.629 221.494 395.941 224.879C406.343 228.263 416.868 254.68 427.18 283.312C437.522 312.214 447.803 312.214 458.419 294.142C470.172 276.843 475.911 270.076 488.55 260.548C501.883 251.805 510.282 264.814 520.594 250.126C531.118 235.709 541.521 192.389 551.833 185.146C562.327 178.174 572.76 206.603 583.072 210.461C593.505 214.049 603.999 192.389 609.155 181.559L614.311 170.729" stroke="#6A65FF" stroke-width="3.52159" stroke-linecap="round"/>
</g>
<g filter="url(#filter1_d_2070_1433)">
<ellipse cx="270.3" cy="206.142" rx="6.2766" ry="6.22204" fill="white"/>
<path d="M275.256 206.142C275.256 208.838 273.048 211.043 270.3 211.043C267.552 211.043 265.344 208.838 265.344 206.142C265.344 203.446 267.552 201.241 270.3 201.241C273.048 201.241 275.256 203.446 275.256 206.142Z" stroke="#6A65FF" stroke-width="2.64119"/>
</g>
<g filter="url(#filter2_d_2070_1433)">
<ellipse cx="396.046" cy="224.106" rx="6.2766" ry="6.22204" fill="white"/>
<path d="M401.002 224.106C401.002 226.802 398.794 229.007 396.046 229.007C393.298 229.007 391.09 226.802 391.09 224.106C391.09 221.41 393.298 219.204 396.046 219.204C398.794 219.204 401.002 221.41 401.002 224.106Z" stroke="#6A65FF" stroke-width="2.64119"/>
</g>
<g filter="url(#filter3_d_2070_1433)">
<ellipse cx="554.351" cy="183.688" rx="6.2766" ry="6.22204" fill="white"/>
<path d="M559.307 183.688C559.307 186.384 557.099 188.589 554.351 188.589C551.603 188.589 549.395 186.384 549.395 183.688C549.395 180.992 551.603 178.786 554.351 178.786C557.099 178.786 559.307 180.992 559.307 183.688Z" stroke="#6A65FF" stroke-width="2.64119"/>
</g>
<g filter="url(#filter4_d_2070_1433)">
<ellipse cx="329.804" cy="255.542" rx="6.2766" ry="6.22204" fill="white"/>
<path d="M334.76 255.542C334.76 258.238 332.552 260.444 329.804 260.444C327.056 260.444 324.848 258.238 324.848 255.542C324.848 252.846 327.056 250.641 329.804 250.641C332.552 250.641 334.76 252.846 334.76 255.542Z" stroke="#6A65FF" stroke-width="2.64119"/>
</g>
<g filter="url(#filter5_d_2070_1433)">
<ellipse cx="490.355" cy="258.91" rx="6.2766" ry="6.22204" fill="white"/>
<path d="M495.311 258.91C495.311 261.607 493.103 263.812 490.355 263.812C487.607 263.812 485.399 261.607 485.399 258.91C485.399 256.214 487.607 254.009 490.355 254.009C493.103 254.009 495.311 256.214 495.311 258.91Z" stroke="#6A65FF" stroke-width="2.64119"/>
</g>
<rect x="464" y="55" width="129.942" height="32" rx="16" fill="#E9E9E9"/>
<path d="M481.306 76V67.36H484.06C484.132 67.36 484.274 67.362 484.486 67.366C484.702 67.37 484.91 67.384 485.11 67.408C485.794 67.496 486.372 67.74 486.844 68.14C487.32 68.536 487.68 69.042 487.924 69.658C488.168 70.274 488.29 70.948 488.29 71.68C488.29 72.412 488.168 73.086 487.924 73.702C487.68 74.318 487.32 74.826 486.844 75.226C486.372 75.622 485.794 75.864 485.11 75.952C484.914 75.976 484.708 75.99 484.492 75.994C484.276 75.998 484.132 76 484.06 76H481.306ZM482.776 74.638H484.06C484.18 74.638 484.332 74.634 484.516 74.626C484.704 74.618 484.87 74.6 485.014 74.572C485.422 74.496 485.754 74.314 486.01 74.026C486.266 73.738 486.454 73.388 486.574 72.976C486.698 72.564 486.76 72.132 486.76 71.68C486.76 71.212 486.698 70.772 486.574 70.36C486.45 69.948 486.258 69.602 485.998 69.322C485.742 69.042 485.414 68.864 485.014 68.788C484.87 68.756 484.704 68.738 484.516 68.734C484.332 68.726 484.18 68.722 484.06 68.722H482.776V74.638ZM489.834 76L492.558 67.36H494.676L497.4 76H495.912L493.44 68.248H493.764L491.322 76H489.834ZM491.352 74.128V72.778H495.888V74.128H491.352ZM499.565 76V67.36H501.011V76H499.565ZM503.888 76V67.36H505.334V74.644H509.15V76H503.888ZM512.031 76V72.46L509.091 67.36H510.777L512.763 70.804L514.743 67.36H516.429L513.495 72.46V76H512.031ZM523.053 76L520.329 67.36H521.817L524.097 74.596L526.407 67.36H527.895L525.171 76H523.053ZM529.877 76V67.36H531.323V76H529.877ZM537.278 76.18C536.646 76.18 536.076 76.07 535.568 75.85C535.064 75.63 534.648 75.316 534.32 74.908C533.996 74.496 533.79 74.008 533.702 73.444L535.202 73.216C535.33 73.728 535.592 74.124 535.988 74.404C536.388 74.684 536.848 74.824 537.368 74.824C537.676 74.824 537.966 74.776 538.238 74.68C538.51 74.584 538.73 74.444 538.898 74.26C539.07 74.076 539.156 73.85 539.156 73.582C539.156 73.462 539.136 73.352 539.096 73.252C539.056 73.148 538.996 73.056 538.916 72.976C538.84 72.896 538.74 72.824 538.616 72.76C538.496 72.692 538.356 72.634 538.196 72.586L535.964 71.926C535.772 71.87 535.564 71.796 535.34 71.704C535.12 71.608 534.91 71.478 534.71 71.314C534.514 71.146 534.352 70.934 534.224 70.678C534.1 70.418 534.038 70.098 534.038 69.718C534.038 69.162 534.178 68.696 534.458 68.32C534.742 67.94 535.122 67.656 535.598 67.468C536.078 67.28 536.61 67.188 537.194 67.192C537.786 67.196 538.314 67.298 538.778 67.498C539.242 67.694 539.63 67.98 539.942 68.356C540.254 68.732 540.474 69.186 540.602 69.718L539.048 69.988C538.984 69.684 538.86 69.426 538.676 69.214C538.496 68.998 538.274 68.834 538.01 68.722C537.75 68.61 537.472 68.55 537.176 68.542C536.888 68.538 536.62 68.582 536.372 68.674C536.128 68.762 535.93 68.89 535.778 69.058C535.63 69.226 535.556 69.422 535.556 69.646C535.556 69.858 535.62 70.032 535.748 70.168C535.876 70.3 536.034 70.406 536.222 70.486C536.414 70.562 536.608 70.626 536.804 70.678L538.352 71.11C538.564 71.166 538.802 71.242 539.066 71.338C539.33 71.434 539.584 71.568 539.828 71.74C540.072 71.912 540.272 72.138 540.428 72.418C540.588 72.698 540.668 73.054 540.668 73.486C540.668 73.934 540.574 74.328 540.386 74.668C540.202 75.004 539.952 75.284 539.636 75.508C539.32 75.732 538.958 75.9 538.55 76.012C538.146 76.124 537.722 76.18 537.278 76.18ZM543.047 76V67.36H544.493V76H543.047ZM549.326 76V68.716H546.53V67.36H553.568V68.716H550.772V76H549.326ZM558.685 76.18C558.053 76.18 557.483 76.07 556.975 75.85C556.471 75.63 556.055 75.316 555.727 74.908C555.403 74.496 555.197 74.008 555.109 73.444L556.609 73.216C556.737 73.728 556.999 74.124 557.395 74.404C557.795 74.684 558.255 74.824 558.775 74.824C559.083 74.824 559.373 74.776 559.645 74.68C559.917 74.584 560.137 74.444 560.305 74.26C560.477 74.076 560.563 73.85 560.563 73.582C560.563 73.462 560.543 73.352 560.503 73.252C560.463 73.148 560.403 73.056 560.323 72.976C560.247 72.896 560.147 72.824 560.023 72.76C559.903 72.692 559.763 72.634 559.603 72.586L557.371 71.926C557.179 71.87 556.971 71.796 556.747 71.704C556.527 71.608 556.317 71.478 556.117 71.314C555.921 71.146 555.759 70.934 555.631 70.678C555.507 70.418 555.445 70.098 555.445 69.718C555.445 69.162 555.585 68.696 555.865 68.32C556.149 67.94 556.529 67.656 557.005 67.468C557.485 67.28 558.017 67.188 558.601 67.192C559.193 67.196 559.721 67.298 560.185 67.498C560.649 67.694 561.037 67.98 561.349 68.356C561.661 68.732 561.881 69.186 562.009 69.718L560.455 69.988C560.391 69.684 560.267 69.426 560.083 69.214C559.903 68.998 559.681 68.834 559.417 68.722C559.157 68.61 558.879 68.55 558.583 68.542C558.295 68.538 558.027 68.582 557.779 68.674C557.535 68.762 557.337 68.89 557.185 69.058C557.037 69.226 556.963 69.422 556.963 69.646C556.963 69.858 557.027 70.032 557.155 70.168C557.283 70.3 557.441 70.406 557.629 70.486C557.821 70.562 558.015 70.626 558.211 70.678L559.759 71.11C559.971 71.166 560.209 71.242 560.473 71.338C560.737 71.434 560.991 71.568 561.235 71.74C561.479 71.912 561.679 72.138 561.835 72.418C561.995 72.698 562.075 73.054 562.075 73.486C562.075 73.934 561.981 74.328 561.793 74.668C561.609 75.004 561.359 75.284 561.043 75.508C560.727 75.732 560.365 75.9 559.957 76.012C559.553 76.124 559.129 76.18 558.685 76.18Z" fill="#0A071B"/>
<path d="M571 69.257L574.471 72.743L577.942 69.257" stroke="#0A071B" stroke-width="1.5" stroke-linecap="round" stroke-linejoin="round"/>
</g>
<g filter="url(#filter6_d_2070_1433)">
<rect x="77" y="424" width="575" height="101" rx="10" fill="#FFFFFE"/>
<g clip-path="url(#clip1_2070_1433)">
<path opacity="0.21" d="M94.5 444H155.5V505H94.5V444Z" fill="#6A65FF"/>
<path d="M143.365 481.471C144.332 481.471 145.123 480.689 145.035 479.731C144.629 475.285 142.673 471.098 139.478 467.915C135.869 464.32 130.975 462.3 125.871 462.3C120.767 462.3 115.872 464.32 112.263 467.915C109.068 471.098 107.113 475.285 106.706 479.731C106.618 480.689 107.41 481.471 108.376 481.471H117.963C118.929 481.471 119.688 480.676 119.959 479.752C120.247 478.771 120.778 477.869 121.516 477.133C122.671 475.983 124.237 475.337 125.871 475.337C127.504 475.337 129.07 475.983 130.225 477.133C130.963 477.869 131.495 478.771 131.782 479.752C132.053 480.676 132.812 481.471 133.778 481.471L143.365 481.471Z" fill="#6A65FF"/>
</g>
<path d="M167.996 467.5V452.1H178.05V454.366H170.812V458.59H177.39V460.79H170.812V465.234H178.05V467.5H167.996ZM183.531 467.764C182.592 467.764 181.822 467.617 181.221 467.324C180.619 467.016 180.172 466.613 179.879 466.114C179.585 465.615 179.439 465.065 179.439 464.464C179.439 463.452 179.835 462.631 180.627 462C181.419 461.369 182.607 461.054 184.191 461.054H186.963V460.79C186.963 460.042 186.75 459.492 186.325 459.14C185.899 458.788 185.371 458.612 184.741 458.612C184.169 458.612 183.67 458.751 183.245 459.03C182.819 459.294 182.555 459.69 182.453 460.218H179.703C179.776 459.426 180.04 458.737 180.495 458.15C180.964 457.563 181.565 457.116 182.299 456.808C183.032 456.485 183.853 456.324 184.763 456.324C186.317 456.324 187.542 456.713 188.437 457.49C189.331 458.267 189.779 459.367 189.779 460.79V467.5H187.381L187.117 465.74C186.794 466.327 186.339 466.811 185.753 467.192C185.181 467.573 184.44 467.764 183.531 467.764ZM184.169 465.564C184.975 465.564 185.599 465.3 186.039 464.772C186.493 464.244 186.779 463.591 186.897 462.814H184.499C183.751 462.814 183.215 462.953 182.893 463.232C182.57 463.496 182.409 463.826 182.409 464.222C182.409 464.647 182.57 464.977 182.893 465.212C183.215 465.447 183.641 465.564 184.169 465.564ZM196.096 467.764C195.128 467.764 194.277 467.61 193.544 467.302C192.811 466.979 192.224 466.539 191.784 465.982C191.344 465.425 191.08 464.779 190.992 464.046H193.83C193.918 464.471 194.153 464.838 194.534 465.146C194.93 465.439 195.436 465.586 196.052 465.586C196.668 465.586 197.115 465.461 197.394 465.212C197.687 464.963 197.834 464.677 197.834 464.354C197.834 463.885 197.629 463.569 197.218 463.408C196.807 463.232 196.235 463.063 195.502 462.902C195.033 462.799 194.556 462.675 194.072 462.528C193.588 462.381 193.141 462.198 192.73 461.978C192.334 461.743 192.011 461.45 191.762 461.098C191.513 460.731 191.388 460.284 191.388 459.756C191.388 458.788 191.769 457.974 192.532 457.314C193.309 456.654 194.395 456.324 195.788 456.324C197.079 456.324 198.105 456.625 198.868 457.226C199.645 457.827 200.107 458.656 200.254 459.712H197.592C197.431 458.905 196.822 458.502 195.766 458.502C195.238 458.502 194.827 458.605 194.534 458.81C194.255 459.015 194.116 459.272 194.116 459.58C194.116 459.903 194.329 460.159 194.754 460.35C195.179 460.541 195.744 460.717 196.448 460.878C197.211 461.054 197.907 461.252 198.538 461.472C199.183 461.677 199.697 461.993 200.078 462.418C200.459 462.829 200.65 463.423 200.65 464.2C200.665 464.875 200.489 465.483 200.122 466.026C199.755 466.569 199.227 466.994 198.538 467.302C197.849 467.61 197.035 467.764 196.096 467.764ZM203.049 472.34L205.579 466.774H204.919L200.673 456.588H203.731L206.789 464.266L209.979 456.588H212.971L206.041 472.34H203.049ZM218.294 472.34V456.588H220.802L221.11 458.15C221.462 457.666 221.924 457.241 222.496 456.874C223.082 456.507 223.838 456.324 224.762 456.324C225.788 456.324 226.705 456.573 227.512 457.072C228.318 457.571 228.956 458.253 229.426 459.118C229.895 459.983 230.13 460.966 230.13 462.066C230.13 463.166 229.895 464.149 229.426 465.014C228.956 465.865 228.318 466.539 227.512 467.038C226.705 467.522 225.788 467.764 224.762 467.764C223.94 467.764 223.222 467.61 222.606 467.302C221.99 466.994 221.491 466.561 221.11 466.004V472.34H218.294ZM224.168 465.3C225.062 465.3 225.803 464.999 226.39 464.398C226.976 463.797 227.27 463.019 227.27 462.066C227.27 461.113 226.976 460.328 226.39 459.712C225.803 459.096 225.062 458.788 224.168 458.788C223.258 458.788 222.51 459.096 221.924 459.712C221.352 460.313 221.066 461.091 221.066 462.044C221.066 462.997 221.352 463.782 221.924 464.398C222.51 464.999 223.258 465.3 224.168 465.3ZM235.527 467.764C234.589 467.764 233.819 467.617 233.217 467.324C232.616 467.016 232.169 466.613 231.875 466.114C231.582 465.615 231.435 465.065 231.435 464.464C231.435 463.452 231.831 462.631 232.623 462C233.415 461.369 234.603 461.054 236.187 461.054H238.959V460.79C238.959 460.042 238.747 459.492 238.321 459.14C237.896 458.788 237.368 458.612 236.737 458.612C236.165 458.612 235.667 458.751 235.241 459.03C234.816 459.294 234.552 459.69 234.449 460.218H231.699C231.773 459.426 232.037 458.737 232.491 458.15C232.961 457.563 233.562 457.116 234.295 456.808C235.029 456.485 235.85 456.324 236.759 456.324C238.314 456.324 239.539 456.713 240.433 457.49C241.328 458.267 241.775 459.367 241.775 460.79V467.5H239.377L239.113 465.74C238.791 466.327 238.336 466.811 237.749 467.192C237.177 467.573 236.437 467.764 235.527 467.764ZM236.165 465.564C236.972 465.564 237.595 465.3 238.035 464.772C238.49 464.244 238.776 463.591 238.893 462.814H236.495C235.747 462.814 235.212 462.953 234.889 463.232C234.567 463.496 234.405 463.826 234.405 464.222C234.405 464.647 234.567 464.977 234.889 465.212C235.212 465.447 235.637 465.564 236.165 465.564ZM244.581 472.34L247.111 466.774H246.451L242.205 456.588H245.263L248.321 464.266L251.511 456.588H254.503L247.573 472.34H244.581ZM255.464 467.5V456.588H257.95L258.192 458.062C258.544 457.534 259.006 457.116 259.578 456.808C260.165 456.485 260.84 456.324 261.602 456.324C263.289 456.324 264.484 456.977 265.188 458.282C265.584 457.681 266.112 457.204 266.772 456.852C267.447 456.5 268.18 456.324 268.972 456.324C270.395 456.324 271.488 456.749 272.25 457.6C273.013 458.451 273.394 459.697 273.394 461.34V467.5H270.578V461.604C270.578 460.665 270.395 459.947 270.028 459.448C269.676 458.949 269.126 458.7 268.378 458.7C267.616 458.7 267 458.979 266.53 459.536C266.076 460.093 265.848 460.871 265.848 461.868V467.5H263.032V461.604C263.032 460.665 262.849 459.947 262.482 459.448C262.116 458.949 261.551 458.7 260.788 458.7C260.04 458.7 259.432 458.979 258.962 459.536C258.508 460.093 258.28 460.871 258.28 461.868V467.5H255.464ZM280.49 467.764C279.39 467.764 278.414 467.529 277.564 467.06C276.713 466.591 276.046 465.931 275.562 465.08C275.078 464.229 274.836 463.247 274.836 462.132C274.836 461.003 275.07 459.998 275.54 459.118C276.024 458.238 276.684 457.556 277.52 457.072C278.37 456.573 279.368 456.324 280.512 456.324C281.582 456.324 282.528 456.559 283.35 457.028C284.171 457.497 284.809 458.143 285.264 458.964C285.733 459.771 285.968 460.673 285.968 461.67C285.968 461.831 285.96 462 285.946 462.176C285.946 462.352 285.938 462.535 285.924 462.726H277.63C277.688 463.577 277.982 464.244 278.51 464.728C279.052 465.212 279.705 465.454 280.468 465.454C281.04 465.454 281.516 465.329 281.898 465.08C282.294 464.816 282.587 464.479 282.778 464.068H285.638C285.432 464.757 285.088 465.388 284.604 465.96C284.134 466.517 283.548 466.957 282.844 467.28C282.154 467.603 281.37 467.764 280.49 467.764ZM280.512 458.612C279.822 458.612 279.214 458.81 278.686 459.206C278.158 459.587 277.82 460.174 277.674 460.966H283.108C283.064 460.247 282.8 459.675 282.316 459.25C281.832 458.825 281.23 458.612 280.512 458.612ZM287.456 467.5V456.588H289.942L290.162 458.436C290.5 457.791 290.984 457.277 291.614 456.896C292.26 456.515 293.015 456.324 293.88 456.324C295.23 456.324 296.278 456.749 297.026 457.6C297.774 458.451 298.148 459.697 298.148 461.34V467.5H295.332V461.604C295.332 460.665 295.142 459.947 294.76 459.448C294.379 458.949 293.785 458.7 292.978 458.7C292.186 458.7 291.534 458.979 291.02 459.536C290.522 460.093 290.272 460.871 290.272 461.868V467.5H287.456ZM304.823 467.5C303.679 467.5 302.762 467.221 302.073 466.664C301.384 466.107 301.039 465.117 301.039 463.694V458.942H299.169V456.588H301.039L301.369 453.662H303.855V456.588H306.803V458.942H303.855V463.716C303.855 464.244 303.965 464.611 304.185 464.816C304.42 465.007 304.816 465.102 305.373 465.102H306.737V467.5H304.823Z" fill="#0A071B"/>
<path d="M170.798 494.668C170.079 494.668 169.445 494.547 168.894 494.304C168.343 494.052 167.909 493.697 167.592 493.24C167.275 492.773 167.111 492.209 167.102 491.546H168.992C169.011 492.003 169.174 492.391 169.482 492.708C169.799 493.016 170.233 493.17 170.784 493.17C171.26 493.17 171.638 493.058 171.918 492.834C172.198 492.601 172.338 492.293 172.338 491.91C172.338 491.509 172.212 491.196 171.96 490.972C171.717 490.748 171.391 490.566 170.98 490.426C170.569 490.286 170.131 490.137 169.664 489.978C168.908 489.717 168.329 489.381 167.928 488.97C167.536 488.559 167.34 488.013 167.34 487.332C167.331 486.753 167.466 486.259 167.746 485.848C168.035 485.428 168.427 485.106 168.922 484.882C169.417 484.649 169.986 484.532 170.63 484.532C171.283 484.532 171.857 484.649 172.352 484.882C172.856 485.115 173.248 485.442 173.528 485.862C173.817 486.282 173.971 486.781 173.99 487.36H172.072C172.063 487.015 171.927 486.711 171.666 486.45C171.414 486.179 171.059 486.044 170.602 486.044C170.21 486.035 169.879 486.133 169.608 486.338C169.347 486.534 169.216 486.823 169.216 487.206C169.216 487.533 169.319 487.794 169.524 487.99C169.729 488.177 170.009 488.335 170.364 488.466C170.719 488.597 171.125 488.737 171.582 488.886C172.067 489.054 172.511 489.25 172.912 489.474C173.313 489.698 173.635 489.997 173.878 490.37C174.121 490.734 174.242 491.205 174.242 491.784C174.242 492.297 174.111 492.773 173.85 493.212C173.589 493.651 173.201 494.005 172.688 494.276C172.175 494.537 171.545 494.668 170.798 494.668ZM178.578 494.668C177.878 494.668 177.257 494.519 176.716 494.22C176.174 493.921 175.75 493.501 175.442 492.96C175.134 492.419 174.98 491.793 174.98 491.084C174.98 490.365 175.129 489.726 175.428 489.166C175.736 488.606 176.156 488.172 176.688 487.864C177.229 487.547 177.864 487.388 178.592 487.388C179.273 487.388 179.875 487.537 180.398 487.836C180.92 488.135 181.326 488.545 181.616 489.068C181.914 489.581 182.064 490.155 182.064 490.79C182.064 490.893 182.059 491 182.05 491.112C182.05 491.224 182.045 491.341 182.036 491.462H176.758C176.795 492.003 176.982 492.428 177.318 492.736C177.663 493.044 178.078 493.198 178.564 493.198C178.928 493.198 179.231 493.119 179.474 492.96C179.726 492.792 179.912 492.577 180.034 492.316H181.854C181.723 492.755 181.504 493.156 181.196 493.52C180.897 493.875 180.524 494.155 180.076 494.36C179.637 494.565 179.138 494.668 178.578 494.668ZM178.592 488.844C178.153 488.844 177.766 488.97 177.43 489.222C177.094 489.465 176.879 489.838 176.786 490.342H180.244C180.216 489.885 180.048 489.521 179.74 489.25C179.432 488.979 179.049 488.844 178.592 488.844ZM185.982 494.5C185.254 494.5 184.67 494.323 184.232 493.968C183.793 493.613 183.574 492.983 183.574 492.078V489.054H182.384V487.556H183.574L183.784 485.694H185.366V487.556H187.242V489.054H185.366V492.092C185.366 492.428 185.436 492.661 185.576 492.792C185.725 492.913 185.977 492.974 186.332 492.974H187.2V494.5H185.982ZM193.39 494.668C192.793 494.668 192.303 494.575 191.92 494.388C191.538 494.192 191.253 493.935 191.066 493.618C190.88 493.301 190.786 492.951 190.786 492.568C190.786 491.924 191.038 491.401 191.542 491C192.046 490.599 192.802 490.398 193.81 490.398H195.574V490.23C195.574 489.754 195.439 489.404 195.168 489.18C194.898 488.956 194.562 488.844 194.16 488.844C193.796 488.844 193.479 488.933 193.208 489.11C192.938 489.278 192.77 489.53 192.704 489.866H190.954C191.001 489.362 191.169 488.923 191.458 488.55C191.757 488.177 192.14 487.892 192.606 487.696C193.073 487.491 193.596 487.388 194.174 487.388C195.164 487.388 195.943 487.635 196.512 488.13C197.082 488.625 197.366 489.325 197.366 490.23V494.5H195.84L195.672 493.38C195.467 493.753 195.178 494.061 194.804 494.304C194.44 494.547 193.969 494.668 193.39 494.668ZM193.796 493.268C194.31 493.268 194.706 493.1 194.986 492.764C195.276 492.428 195.458 492.013 195.532 491.518H194.006C193.53 491.518 193.19 491.607 192.984 491.784C192.779 491.952 192.676 492.162 192.676 492.414C192.676 492.685 192.779 492.895 192.984 493.044C193.19 493.193 193.46 493.268 193.796 493.268ZM201.292 494.5V487.556H202.888L203.056 488.858C203.308 488.41 203.649 488.055 204.078 487.794C204.517 487.523 205.03 487.388 205.618 487.388V489.278H205.114C204.722 489.278 204.372 489.339 204.064 489.46C203.756 489.581 203.514 489.791 203.336 490.09C203.168 490.389 203.084 490.804 203.084 491.336V494.5H201.292ZM209.534 494.668C208.834 494.668 208.213 494.519 207.672 494.22C207.131 493.921 206.706 493.501 206.398 492.96C206.09 492.419 205.936 491.793 205.936 491.084C205.936 490.365 206.085 489.726 206.384 489.166C206.692 488.606 207.112 488.172 207.644 487.864C208.185 487.547 208.82 487.388 209.548 487.388C210.229 487.388 210.831 487.537 211.354 487.836C211.877 488.135 212.283 488.545 212.572 489.068C212.871 489.581 213.02 490.155 213.02 490.79C213.02 490.893 213.015 491 213.006 491.112C213.006 491.224 213.001 491.341 212.992 491.462H207.714C207.751 492.003 207.938 492.428 208.274 492.736C208.619 493.044 209.035 493.198 209.52 493.198C209.884 493.198 210.187 493.119 210.43 492.96C210.682 492.792 210.869 492.577 210.99 492.316H212.81C212.679 492.755 212.46 493.156 212.152 493.52C211.853 493.875 211.48 494.155 211.032 494.36C210.593 494.565 210.094 494.668 209.534 494.668ZM209.548 488.844C209.109 488.844 208.722 488.97 208.386 489.222C208.05 489.465 207.835 489.838 207.742 490.342H211.2C211.172 489.885 211.004 489.521 210.696 489.25C210.388 488.979 210.005 488.844 209.548 488.844ZM213.967 494.5V487.556H215.549L215.703 488.494C215.927 488.158 216.221 487.892 216.585 487.696C216.958 487.491 217.388 487.388 217.873 487.388C218.946 487.388 219.707 487.803 220.155 488.634C220.407 488.251 220.743 487.948 221.163 487.724C221.592 487.5 222.059 487.388 222.563 487.388C223.468 487.388 224.164 487.659 224.649 488.2C225.134 488.741 225.377 489.535 225.377 490.58V494.5H223.585V490.748C223.585 490.151 223.468 489.693 223.235 489.376C223.011 489.059 222.661 488.9 222.185 488.9C221.7 488.9 221.308 489.077 221.009 489.432C220.72 489.787 220.575 490.281 220.575 490.916V494.5H218.783V490.748C218.783 490.151 218.666 489.693 218.433 489.376C218.2 489.059 217.84 488.9 217.355 488.9C216.879 488.9 216.492 489.077 216.193 489.432C215.904 489.787 215.759 490.281 215.759 490.916V494.5H213.967ZM227.484 486.478C227.158 486.478 226.887 486.38 226.672 486.184C226.467 485.988 226.364 485.741 226.364 485.442C226.364 485.143 226.467 484.901 226.672 484.714C226.887 484.518 227.158 484.42 227.484 484.42C227.811 484.42 228.077 484.518 228.282 484.714C228.497 484.901 228.604 485.143 228.604 485.442C228.604 485.741 228.497 485.988 228.282 486.184C228.077 486.38 227.811 486.478 227.484 486.478ZM226.588 494.5V487.556H228.38V494.5H226.588ZM229.691 494.5V487.556H231.273L231.413 488.732C231.628 488.321 231.936 487.995 232.337 487.752C232.748 487.509 233.228 487.388 233.779 487.388C234.638 487.388 235.305 487.659 235.781 488.2C236.257 488.741 236.495 489.535 236.495 490.58V494.5H234.703V490.748C234.703 490.151 234.582 489.693 234.339 489.376C234.096 489.059 233.718 488.9 233.205 488.9C232.701 488.9 232.286 489.077 231.959 489.432C231.642 489.787 231.483 490.281 231.483 490.916V494.5H229.691ZM240.84 494.668C240.187 494.668 239.604 494.509 239.09 494.192C238.577 493.875 238.171 493.441 237.872 492.89C237.574 492.339 237.424 491.714 237.424 491.014C237.424 490.314 237.574 489.693 237.872 489.152C238.171 488.601 238.577 488.172 239.09 487.864C239.604 487.547 240.187 487.388 240.84 487.388C241.363 487.388 241.82 487.486 242.212 487.682C242.604 487.878 242.922 488.153 243.164 488.508V484.42H244.956V494.5H243.36L243.164 493.506C242.94 493.814 242.642 494.085 242.268 494.318C241.904 494.551 241.428 494.668 240.84 494.668ZM241.218 493.1C241.797 493.1 242.268 492.909 242.632 492.526C243.006 492.134 243.192 491.635 243.192 491.028C243.192 490.421 243.006 489.927 242.632 489.544C242.268 489.152 241.797 488.956 241.218 488.956C240.649 488.956 240.178 489.147 239.804 489.53C239.431 489.913 239.244 490.407 239.244 491.014C239.244 491.621 239.431 492.12 239.804 492.512C240.178 492.904 240.649 493.1 241.218 493.1ZM249.595 494.668C248.895 494.668 248.275 494.519 247.733 494.22C247.192 493.921 246.767 493.501 246.459 492.96C246.151 492.419 245.997 491.793 245.997 491.084C245.997 490.365 246.147 489.726 246.445 489.166C246.753 488.606 247.173 488.172 247.705 487.864C248.247 487.547 248.881 487.388 249.609 487.388C250.291 487.388 250.893 487.537 251.415 487.836C251.938 488.135 252.344 488.545 252.633 489.068C252.932 489.581 253.081 490.155 253.081 490.79C253.081 490.893 253.077 491 253.067 491.112C253.067 491.224 253.063 491.341 253.053 491.462H247.775C247.813 492.003 247.999 492.428 248.335 492.736C248.681 493.044 249.096 493.198 249.581 493.198C249.945 493.198 250.249 493.119 250.491 492.96C250.743 492.792 250.93 492.577 251.051 492.316H252.871C252.741 492.755 252.521 493.156 252.213 493.52C251.915 493.875 251.541 494.155 251.093 494.36C250.655 494.565 250.155 494.668 249.595 494.668ZM249.609 488.844C249.171 488.844 248.783 488.97 248.447 489.222C248.111 489.465 247.897 489.838 247.803 490.342H251.261C251.233 489.885 251.065 489.521 250.757 489.25C250.449 488.979 250.067 488.844 249.609 488.844ZM254.028 494.5V487.556H255.624L255.792 488.858C256.044 488.41 256.385 488.055 256.814 487.794C257.253 487.523 257.766 487.388 258.354 487.388V489.278H257.85C257.458 489.278 257.108 489.339 256.8 489.46C256.492 489.581 256.25 489.791 256.072 490.09C255.904 490.389 255.82 490.804 255.82 491.336V494.5H254.028ZM264.973 494.654C264.254 494.654 263.629 494.533 263.097 494.29C262.565 494.038 262.15 493.688 261.851 493.24C261.562 492.792 261.417 492.269 261.417 491.672C261.417 491.037 261.594 490.463 261.949 489.95C262.304 489.437 262.831 489.026 263.531 488.718C263.251 488.391 263.05 488.083 262.929 487.794C262.808 487.505 262.747 487.197 262.747 486.87C262.747 486.422 262.859 486.025 263.083 485.68C263.307 485.325 263.624 485.045 264.035 484.84C264.455 484.635 264.954 484.532 265.533 484.532C266.121 484.532 266.62 484.639 267.031 484.854C267.442 485.069 267.75 485.358 267.955 485.722C268.17 486.086 268.268 486.492 268.249 486.94H266.541C266.541 486.595 266.438 486.338 266.233 486.17C266.037 485.993 265.799 485.904 265.519 485.904C265.202 485.904 264.945 485.993 264.749 486.17C264.562 486.347 264.469 486.576 264.469 486.856C264.469 487.089 264.544 487.327 264.693 487.57C264.842 487.813 265.062 488.093 265.351 488.41L268.095 491.126C268.291 490.809 268.496 490.44 268.711 490.02L269.019 489.404H270.853L270.363 490.356C269.99 491.112 269.616 491.751 269.243 492.274L271.497 494.5H269.355L268.263 493.408C267.787 493.847 267.278 494.164 266.737 494.36C266.205 494.556 265.617 494.654 264.973 494.654ZM263.153 491.56C263.153 492.017 263.321 492.405 263.657 492.722C264.002 493.03 264.46 493.184 265.029 493.184C265.841 493.184 266.546 492.895 267.143 492.316L264.553 489.754C264.077 489.959 263.722 490.216 263.489 490.524C263.265 490.832 263.153 491.177 263.153 491.56ZM276.184 494.5L274.154 487.556H275.932L277.136 492.554L278.536 487.556H280.524L281.924 492.554L283.142 487.556H284.92L282.876 494.5H281.014L279.53 489.306L278.046 494.5H276.184ZM288.618 494.668C287.918 494.668 287.297 494.519 286.756 494.22C286.215 493.921 285.79 493.501 285.482 492.96C285.174 492.419 285.02 491.793 285.02 491.084C285.02 490.365 285.169 489.726 285.468 489.166C285.776 488.606 286.196 488.172 286.728 487.864C287.269 487.547 287.904 487.388 288.632 487.388C289.313 487.388 289.915 487.537 290.438 487.836C290.961 488.135 291.367 488.545 291.656 489.068C291.955 489.581 292.104 490.155 292.104 490.79C292.104 490.893 292.099 491 292.09 491.112C292.09 491.224 292.085 491.341 292.076 491.462H286.798C286.835 492.003 287.022 492.428 287.358 492.736C287.703 493.044 288.119 493.198 288.604 493.198C288.968 493.198 289.271 493.119 289.514 492.96C289.766 492.792 289.953 492.577 290.074 492.316H291.894C291.763 492.755 291.544 493.156 291.236 493.52C290.937 493.875 290.564 494.155 290.116 494.36C289.677 494.565 289.178 494.668 288.618 494.668ZM288.632 488.844C288.193 488.844 287.806 488.97 287.47 489.222C287.134 489.465 286.919 489.838 286.826 490.342H290.284C290.256 489.885 290.088 489.521 289.78 489.25C289.472 488.979 289.089 488.844 288.632 488.844ZM297.185 494.5L295.155 487.556H296.933L298.137 492.554L299.537 487.556H301.525L302.925 492.554L304.143 487.556H305.921L303.877 494.5H302.015L300.531 489.306L299.047 494.5H297.185ZM307.458 486.478C307.131 486.478 306.86 486.38 306.646 486.184C306.44 485.988 306.338 485.741 306.338 485.442C306.338 485.143 306.44 484.901 306.646 484.714C306.86 484.518 307.131 484.42 307.458 484.42C307.784 484.42 308.05 484.518 308.256 484.714C308.47 484.901 308.578 485.143 308.578 485.442C308.578 485.741 308.47 485.988 308.256 486.184C308.05 486.38 307.784 486.478 307.458 486.478ZM306.562 494.5V487.556H308.354V494.5H306.562ZM309.664 494.5V484.42H311.456V494.5H309.664ZM312.727 494.5V484.42H314.519V494.5H312.727ZM318.566 494.5V487.556H320.148L320.302 488.494C320.526 488.158 320.82 487.892 321.184 487.696C321.558 487.491 321.987 487.388 322.472 487.388C323.546 487.388 324.306 487.803 324.754 488.634C325.006 488.251 325.342 487.948 325.762 487.724C326.192 487.5 326.658 487.388 327.162 487.388C328.068 487.388 328.763 487.659 329.248 488.2C329.734 488.741 329.976 489.535 329.976 490.58V494.5H328.184V490.748C328.184 490.151 328.068 489.693 327.834 489.376C327.61 489.059 327.26 488.9 326.784 488.9C326.299 488.9 325.907 489.077 325.608 489.432C325.319 489.787 325.174 490.281 325.174 490.916V494.5H323.382V490.748C323.382 490.151 323.266 489.693 323.032 489.376C322.799 489.059 322.44 488.9 321.954 488.9C321.478 488.9 321.091 489.077 320.792 489.432C320.503 489.787 320.358 490.281 320.358 490.916V494.5H318.566ZM333.512 494.668C332.914 494.668 332.424 494.575 332.042 494.388C331.659 494.192 331.374 493.935 331.188 493.618C331.001 493.301 330.908 492.951 330.908 492.568C330.908 491.924 331.16 491.401 331.664 491C332.168 490.599 332.924 490.398 333.932 490.398H335.696V490.23C335.696 489.754 335.56 489.404 335.29 489.18C335.019 488.956 334.683 488.844 334.282 488.844C333.918 488.844 333.6 488.933 333.33 489.11C333.059 489.278 332.891 489.53 332.826 489.866H331.076C331.122 489.362 331.29 488.923 331.58 488.55C331.878 488.177 332.261 487.892 332.728 487.696C333.194 487.491 333.717 487.388 334.296 487.388C335.285 487.388 336.064 487.635 336.634 488.13C337.203 488.625 337.488 489.325 337.488 490.23V494.5H335.962L335.794 493.38C335.588 493.753 335.299 494.061 334.926 494.304C334.562 494.547 334.09 494.668 333.512 494.668ZM333.918 493.268C334.431 493.268 334.828 493.1 335.108 492.764C335.397 492.428 335.579 492.013 335.654 491.518H334.128C333.652 491.518 333.311 491.607 333.106 491.784C332.9 491.952 332.798 492.162 332.798 492.414C332.798 492.685 332.9 492.895 333.106 493.044C333.311 493.193 333.582 493.268 333.918 493.268ZM338.638 494.5V484.42H340.43V490.37L342.894 487.556H345.022L342.18 490.72L345.484 494.5H343.244L340.43 491.014V494.5H338.638ZM348.834 494.668C348.134 494.668 347.514 494.519 346.972 494.22C346.431 493.921 346.006 493.501 345.698 492.96C345.39 492.419 345.236 491.793 345.236 491.084C345.236 490.365 345.386 489.726 345.684 489.166C345.992 488.606 346.412 488.172 346.944 487.864C347.486 487.547 348.12 487.388 348.848 487.388C349.53 487.388 350.132 487.537 350.654 487.836C351.177 488.135 351.583 488.545 351.872 489.068C352.171 489.581 352.32 490.155 352.32 490.79C352.32 490.893 352.316 491 352.306 491.112C352.306 491.224 352.302 491.341 352.292 491.462H347.014C347.052 492.003 347.238 492.428 347.574 492.736C347.92 493.044 348.335 493.198 348.82 493.198C349.184 493.198 349.488 493.119 349.73 492.96C349.982 492.792 350.169 492.577 350.29 492.316H352.11C351.98 492.755 351.76 493.156 351.452 493.52C351.154 493.875 350.78 494.155 350.332 494.36C349.894 494.565 349.394 494.668 348.834 494.668ZM348.848 488.844C348.41 488.844 348.022 488.97 347.686 489.222C347.35 489.465 347.136 489.838 347.042 490.342H350.5C350.472 489.885 350.304 489.521 349.996 489.25C349.688 488.979 349.306 488.844 348.848 488.844ZM358.914 494.668C358.298 494.668 357.756 494.57 357.29 494.374C356.823 494.169 356.45 493.889 356.17 493.534C355.89 493.179 355.722 492.769 355.666 492.302H357.472C357.528 492.573 357.677 492.806 357.92 493.002C358.172 493.189 358.494 493.282 358.886 493.282C359.278 493.282 359.562 493.203 359.74 493.044C359.926 492.885 360.02 492.703 360.02 492.498C360.02 492.199 359.889 491.999 359.628 491.896C359.366 491.784 359.002 491.677 358.536 491.574C358.237 491.509 357.934 491.429 357.626 491.336C357.318 491.243 357.033 491.126 356.772 490.986C356.52 490.837 356.314 490.65 356.156 490.426C355.997 490.193 355.918 489.908 355.918 489.572C355.918 488.956 356.16 488.438 356.646 488.018C357.14 487.598 357.831 487.388 358.718 487.388C359.539 487.388 360.192 487.579 360.678 487.962C361.172 488.345 361.466 488.872 361.56 489.544H359.866C359.763 489.031 359.376 488.774 358.704 488.774C358.368 488.774 358.106 488.839 357.92 488.97C357.742 489.101 357.654 489.264 357.654 489.46C357.654 489.665 357.789 489.829 358.06 489.95C358.33 490.071 358.69 490.183 359.138 490.286C359.623 490.398 360.066 490.524 360.468 490.664C360.878 490.795 361.205 490.995 361.448 491.266C361.69 491.527 361.812 491.905 361.812 492.4C361.821 492.829 361.709 493.217 361.476 493.562C361.242 493.907 360.906 494.178 360.468 494.374C360.029 494.57 359.511 494.668 358.914 494.668ZM365.443 494.668C364.575 494.668 363.903 494.397 363.427 493.856C362.96 493.315 362.727 492.521 362.727 491.476V487.556H364.505V491.308C364.505 491.905 364.626 492.363 364.869 492.68C365.112 492.997 365.494 493.156 366.017 493.156C366.512 493.156 366.918 492.979 367.235 492.624C367.562 492.269 367.725 491.775 367.725 491.14V487.556H369.517V494.5H367.935L367.795 493.324C367.58 493.735 367.268 494.061 366.857 494.304C366.456 494.547 365.984 494.668 365.443 494.668ZM370.797 494.5V487.556H372.393L372.561 488.858C372.813 488.41 373.153 488.055 373.583 487.794C374.021 487.523 374.535 487.388 375.123 487.388V489.278H374.619C374.227 489.278 373.877 489.339 373.569 489.46C373.261 489.581 373.018 489.791 372.841 490.09C372.673 490.389 372.589 490.804 372.589 491.336V494.5H370.797ZM379.038 494.668C378.338 494.668 377.718 494.519 377.176 494.22C376.635 493.921 376.21 493.501 375.902 492.96C375.594 492.419 375.44 491.793 375.44 491.084C375.44 490.365 375.59 489.726 375.888 489.166C376.196 488.606 376.616 488.172 377.148 487.864C377.69 487.547 378.324 487.388 379.052 487.388C379.734 487.388 380.336 487.537 380.858 487.836C381.381 488.135 381.787 488.545 382.076 489.068C382.375 489.581 382.524 490.155 382.524 490.79C382.524 490.893 382.52 491 382.51 491.112C382.51 491.224 382.506 491.341 382.496 491.462H377.218C377.256 492.003 377.442 492.428 377.778 492.736C378.124 493.044 378.539 493.198 379.024 493.198C379.388 493.198 379.692 493.119 379.934 492.96C380.186 492.792 380.373 492.577 380.494 492.316H382.314C382.184 492.755 381.964 493.156 381.656 493.52C381.358 493.875 380.984 494.155 380.536 494.36C380.098 494.565 379.598 494.668 379.038 494.668ZM379.052 488.844C378.614 488.844 378.226 488.97 377.89 489.222C377.554 489.465 377.34 489.838 377.246 490.342H380.704C380.676 489.885 380.508 489.521 380.2 489.25C379.892 488.979 379.51 488.844 379.052 488.844ZM389.341 494.5C388.613 494.5 388.03 494.323 387.591 493.968C387.153 493.613 386.933 492.983 386.933 492.078V489.054H385.743V487.556H386.933L387.143 485.694H388.725V487.556H390.601V489.054H388.725V492.092C388.725 492.428 388.795 492.661 388.935 492.792C389.085 492.913 389.337 492.974 389.691 492.974H390.559V494.5H389.341ZM394.734 494.668C394.062 494.668 393.456 494.514 392.914 494.206C392.382 493.898 391.958 493.473 391.64 492.932C391.332 492.381 391.178 491.747 391.178 491.028C391.178 490.309 391.337 489.679 391.654 489.138C391.972 488.587 392.396 488.158 392.928 487.85C393.47 487.542 394.076 487.388 394.748 487.388C395.411 487.388 396.008 487.542 396.54 487.85C397.082 488.158 397.506 488.587 397.814 489.138C398.132 489.679 398.29 490.309 398.29 491.028C398.29 491.747 398.132 492.381 397.814 492.932C397.506 493.473 397.082 493.898 396.54 494.206C395.999 494.514 395.397 494.668 394.734 494.668ZM394.734 493.114C395.201 493.114 395.607 492.941 395.952 492.596C396.298 492.241 396.47 491.719 396.47 491.028C396.47 490.337 396.298 489.819 395.952 489.474C395.607 489.119 395.206 488.942 394.748 488.942C394.272 488.942 393.862 489.119 393.516 489.474C393.18 489.819 393.012 490.337 393.012 491.028C393.012 491.719 393.18 492.241 393.516 492.596C393.862 492.941 394.268 493.114 394.734 493.114ZM402.109 497.58V487.556H403.705L403.901 488.55C404.125 488.242 404.419 487.971 404.783 487.738C405.156 487.505 405.637 487.388 406.225 487.388C406.878 487.388 407.461 487.547 407.975 487.864C408.488 488.181 408.894 488.615 409.193 489.166C409.491 489.717 409.641 490.342 409.641 491.042C409.641 491.742 409.491 492.367 409.193 492.918C408.894 493.459 408.488 493.889 407.975 494.206C407.461 494.514 406.878 494.668 406.225 494.668C405.702 494.668 405.245 494.57 404.853 494.374C404.461 494.178 404.143 493.903 403.901 493.548V497.58H402.109ZM405.847 493.1C406.416 493.1 406.887 492.909 407.261 492.526C407.634 492.143 407.821 491.649 407.821 491.042C407.821 490.435 407.634 489.936 407.261 489.544C406.887 489.152 406.416 488.956 405.847 488.956C405.268 488.956 404.792 489.152 404.419 489.544C404.055 489.927 403.873 490.421 403.873 491.028C403.873 491.635 404.055 492.134 404.419 492.526C404.792 492.909 405.268 493.1 405.847 493.1ZM413.075 494.668C412.478 494.668 411.988 494.575 411.605 494.388C411.223 494.192 410.938 493.935 410.751 493.618C410.565 493.301 410.471 492.951 410.471 492.568C410.471 491.924 410.723 491.401 411.227 491C411.731 490.599 412.487 490.398 413.495 490.398H415.259V490.23C415.259 489.754 415.124 489.404 414.853 489.18C414.583 488.956 414.247 488.844 413.845 488.844C413.481 488.844 413.164 488.933 412.893 489.11C412.623 489.278 412.455 489.53 412.389 489.866H410.639C410.686 489.362 410.854 488.923 411.143 488.55C411.442 488.177 411.825 487.892 412.291 487.696C412.758 487.491 413.281 487.388 413.859 487.388C414.849 487.388 415.628 487.635 416.197 488.13C416.767 488.625 417.051 489.325 417.051 490.23V494.5H415.525L415.357 493.38C415.152 493.753 414.863 494.061 414.489 494.304C414.125 494.547 413.654 494.668 413.075 494.668ZM413.481 493.268C413.995 493.268 414.391 493.1 414.671 492.764C414.961 492.428 415.143 492.013 415.217 491.518H413.691C413.215 491.518 412.875 491.607 412.669 491.784C412.464 491.952 412.361 492.162 412.361 492.414C412.361 492.685 412.464 492.895 412.669 493.044C412.875 493.193 413.145 493.268 413.481 493.268ZM418.837 497.58L420.447 494.038H420.027L417.325 487.556H419.271L421.217 492.442L423.247 487.556H425.151L420.741 497.58H418.837ZM429.504 486.478C429.178 486.478 428.907 486.38 428.692 486.184C428.487 485.988 428.384 485.741 428.384 485.442C428.384 485.143 428.487 484.901 428.692 484.714C428.907 484.518 429.178 484.42 429.504 484.42C429.831 484.42 430.097 484.518 430.302 484.714C430.517 484.901 430.624 485.143 430.624 485.442C430.624 485.741 430.517 485.988 430.302 486.184C430.097 486.38 429.831 486.478 429.504 486.478ZM428.608 494.5V487.556H430.4V494.5H428.608ZM434.805 494.5C434.077 494.5 433.494 494.323 433.055 493.968C432.616 493.613 432.397 492.983 432.397 492.078V489.054H431.207V487.556H432.397L432.607 485.694H434.189V487.556H436.065V489.054H434.189V492.092C434.189 492.428 434.259 492.661 434.399 492.792C434.548 492.913 434.8 492.974 435.155 492.974H436.023V494.5H434.805ZM443.151 494.668C442.479 494.668 441.873 494.514 441.331 494.206C440.799 493.898 440.375 493.473 440.057 492.932C439.749 492.381 439.595 491.747 439.595 491.028C439.595 490.309 439.754 489.679 440.071 489.138C440.389 488.587 440.813 488.158 441.345 487.85C441.887 487.542 442.493 487.388 443.165 487.388C443.828 487.388 444.425 487.542 444.957 487.85C445.499 488.158 445.923 488.587 446.231 489.138C446.549 489.679 446.707 490.309 446.707 491.028C446.707 491.747 446.549 492.381 446.231 492.932C445.923 493.473 445.499 493.898 444.957 494.206C444.416 494.514 443.814 494.668 443.151 494.668ZM443.151 493.114C443.618 493.114 444.024 492.941 444.369 492.596C444.715 492.241 444.887 491.719 444.887 491.028C444.887 490.337 444.715 489.819 444.369 489.474C444.024 489.119 443.623 488.942 443.165 488.942C442.689 488.942 442.279 489.119 441.933 489.474C441.597 489.819 441.429 490.337 441.429 491.028C441.429 491.719 441.597 492.241 441.933 492.596C442.279 492.941 442.685 493.114 443.151 493.114ZM447.75 494.5V487.556H449.332L449.472 488.732C449.686 488.321 449.994 487.995 450.396 487.752C450.806 487.509 451.287 487.388 451.838 487.388C452.696 487.388 453.364 487.659 453.84 488.2C454.316 488.741 454.554 489.535 454.554 490.58V494.5H452.762V490.748C452.762 490.151 452.64 489.693 452.398 489.376C452.155 489.059 451.777 488.9 451.264 488.9C450.76 488.9 450.344 489.077 450.018 489.432C449.7 489.787 449.542 490.281 449.542 490.916V494.5H447.75ZM461.577 494.5C460.849 494.5 460.266 494.323 459.827 493.968C459.388 493.613 459.169 492.983 459.169 492.078V489.054H457.979V487.556H459.169L459.379 485.694H460.961V487.556H462.837V489.054H460.961V492.092C460.961 492.428 461.031 492.661 461.171 492.792C461.32 492.913 461.572 492.974 461.927 492.974H462.795V494.5H461.577ZM464.782 486.478C464.455 486.478 464.184 486.38 463.97 486.184C463.764 485.988 463.662 485.741 463.662 485.442C463.662 485.143 463.764 484.901 463.97 484.714C464.184 484.518 464.455 484.42 464.782 484.42C465.108 484.42 465.374 484.518 465.58 484.714C465.794 484.901 465.902 485.143 465.902 485.442C465.902 485.741 465.794 485.988 465.58 486.184C465.374 486.38 465.108 486.478 464.782 486.478ZM463.886 494.5V487.556H465.678V494.5H463.886ZM466.988 494.5V487.556H468.57L468.724 488.494C468.948 488.158 469.242 487.892 469.606 487.696C469.979 487.491 470.409 487.388 470.894 487.388C471.967 487.388 472.728 487.803 473.176 488.634C473.428 488.251 473.764 487.948 474.184 487.724C474.613 487.5 475.08 487.388 475.584 487.388C476.489 487.388 477.185 487.659 477.67 488.2C478.155 488.741 478.398 489.535 478.398 490.58V494.5H476.606V490.748C476.606 490.151 476.489 489.693 476.256 489.376C476.032 489.059 475.682 488.9 475.206 488.9C474.721 488.9 474.329 489.077 474.03 489.432C473.741 489.787 473.596 490.281 473.596 490.916V494.5H471.804V490.748C471.804 490.151 471.687 489.693 471.454 489.376C471.221 489.059 470.861 488.9 470.376 488.9C469.9 488.9 469.513 489.077 469.214 489.432C468.925 489.787 468.78 490.281 468.78 490.916V494.5H466.988ZM482.913 494.668C482.213 494.668 481.593 494.519 481.051 494.22C480.51 493.921 480.085 493.501 479.777 492.96C479.469 492.419 479.315 491.793 479.315 491.084C479.315 490.365 479.465 489.726 479.763 489.166C480.071 488.606 480.491 488.172 481.023 487.864C481.565 487.547 482.199 487.388 482.927 487.388C483.609 487.388 484.211 487.537 484.733 487.836C485.256 488.135 485.662 488.545 485.951 489.068C486.25 489.581 486.399 490.155 486.399 490.79C486.399 490.893 486.395 491 486.385 491.112C486.385 491.224 486.381 491.341 486.371 491.462H481.093C481.131 492.003 481.317 492.428 481.653 492.736C481.999 493.044 482.414 493.198 482.899 493.198C483.263 493.198 483.567 493.119 483.809 492.96C484.061 492.792 484.248 492.577 484.369 492.316H486.189C486.059 492.755 485.839 493.156 485.531 493.52C485.233 493.875 484.859 494.155 484.411 494.36C483.973 494.565 483.473 494.668 482.913 494.668ZM482.927 488.844C482.489 488.844 482.101 488.97 481.765 489.222C481.429 489.465 481.215 489.838 481.121 490.342H484.579C484.551 489.885 484.383 489.521 484.075 489.25C483.767 488.979 483.385 488.844 482.927 488.844Z" fill="#5B5675"/>
<rect x="507.5" y="453.5" width="127" height="42" rx="21" fill="#6A65FF"/>
<path d="M537.765 479.5L534.139 469.7H535.721L538.661 477.96L541.615 469.7H543.183L539.557 479.5H537.765ZM544.941 471.24C544.661 471.24 544.428 471.156 544.241 470.988C544.064 470.811 543.975 470.591 543.975 470.33C543.975 470.069 544.064 469.854 544.241 469.686C544.428 469.509 544.661 469.42 544.941 469.42C545.221 469.42 545.45 469.509 545.627 469.686C545.814 469.854 545.907 470.069 545.907 470.33C545.907 470.591 545.814 470.811 545.627 470.988C545.45 471.156 545.221 471.24 544.941 471.24ZM544.199 479.5V472.556H545.683V479.5H544.199ZM550.61 479.668C549.929 479.668 549.322 479.519 548.79 479.22C548.267 478.912 547.857 478.487 547.558 477.946C547.259 477.405 547.11 476.775 547.11 476.056C547.11 475.328 547.255 474.689 547.544 474.138C547.843 473.587 548.253 473.158 548.776 472.85C549.308 472.542 549.924 472.388 550.624 472.388C551.305 472.388 551.898 472.542 552.402 472.85C552.906 473.149 553.298 473.55 553.578 474.054C553.858 474.558 553.998 475.113 553.998 475.72C553.998 475.813 553.993 475.916 553.984 476.028C553.984 476.131 553.979 476.247 553.97 476.378H548.566C548.613 477.05 548.832 477.563 549.224 477.918C549.625 478.263 550.087 478.436 550.61 478.436C551.03 478.436 551.38 478.343 551.66 478.156C551.949 477.96 552.164 477.699 552.304 477.372H553.788C553.601 478.025 553.228 478.571 552.668 479.01C552.117 479.449 551.431 479.668 550.61 479.668ZM550.61 473.606C550.115 473.606 549.677 473.755 549.294 474.054C548.911 474.343 548.678 474.782 548.594 475.37H552.514C552.486 474.829 552.295 474.399 551.94 474.082C551.585 473.765 551.142 473.606 550.61 473.606ZM556.37 479.5L554.326 472.556H555.81L557.154 477.792L558.666 472.556H560.318L561.83 477.792L563.174 472.556H564.658L562.614 479.5H561.088L559.492 474.04L557.896 479.5H556.37ZM568.848 479.5V472.556H570.178L570.304 473.872C570.547 473.415 570.883 473.055 571.312 472.794C571.751 472.523 572.278 472.388 572.894 472.388V473.942H572.488C572.077 473.942 571.709 474.012 571.382 474.152C571.065 474.283 570.808 474.511 570.612 474.838C570.425 475.155 570.332 475.599 570.332 476.168V479.5H568.848ZM576.943 479.668C576.262 479.668 575.655 479.519 575.123 479.22C574.6 478.912 574.19 478.487 573.891 477.946C573.592 477.405 573.443 476.775 573.443 476.056C573.443 475.328 573.588 474.689 573.877 474.138C574.176 473.587 574.586 473.158 575.109 472.85C575.641 472.542 576.257 472.388 576.957 472.388C577.638 472.388 578.231 472.542 578.735 472.85C579.239 473.149 579.631 473.55 579.911 474.054C580.191 474.558 580.331 475.113 580.331 475.72C580.331 475.813 580.326 475.916 580.317 476.028C580.317 476.131 580.312 476.247 580.303 476.378H574.899C574.946 477.05 575.165 477.563 575.557 477.918C575.958 478.263 576.42 478.436 576.943 478.436C577.363 478.436 577.713 478.343 577.993 478.156C578.282 477.96 578.497 477.699 578.637 477.372H580.121C579.934 478.025 579.561 478.571 579.001 479.01C578.45 479.449 577.764 479.668 576.943 479.668ZM576.943 473.606C576.448 473.606 576.01 473.755 575.627 474.054C575.244 474.343 575.011 474.782 574.927 475.37H578.847C578.819 474.829 578.628 474.399 578.273 474.082C577.918 473.765 577.475 473.606 576.943 473.606ZM581.591 482.58V472.556H582.921L583.075 473.634C583.299 473.307 583.607 473.018 583.999 472.766C584.391 472.514 584.895 472.388 585.511 472.388C586.183 472.388 586.776 472.547 587.289 472.864C587.802 473.181 588.204 473.615 588.493 474.166C588.792 474.717 588.941 475.342 588.941 476.042C588.941 476.742 588.792 477.367 588.493 477.918C588.204 478.459 587.802 478.889 587.289 479.206C586.776 479.514 586.178 479.668 585.497 479.668C584.956 479.668 584.475 479.561 584.055 479.346C583.644 479.131 583.318 478.828 583.075 478.436V482.58H581.591ZM585.245 478.38C585.88 478.38 586.402 478.165 586.813 477.736C587.224 477.297 587.429 476.728 587.429 476.028C587.429 475.571 587.336 475.165 587.149 474.81C586.962 474.455 586.706 474.18 586.379 473.984C586.052 473.779 585.674 473.676 585.245 473.676C584.61 473.676 584.088 473.895 583.677 474.334C583.276 474.773 583.075 475.337 583.075 476.028C583.075 476.728 583.276 477.297 583.677 477.736C584.088 478.165 584.61 478.38 585.245 478.38ZM593.514 479.668C592.851 479.668 592.254 479.519 591.722 479.22C591.199 478.912 590.784 478.487 590.476 477.946C590.168 477.395 590.014 476.756 590.014 476.028C590.014 475.3 590.168 474.665 590.476 474.124C590.793 473.573 591.218 473.149 591.75 472.85C592.282 472.542 592.875 472.388 593.528 472.388C594.191 472.388 594.783 472.542 595.306 472.85C595.838 473.149 596.258 473.573 596.566 474.124C596.883 474.665 597.042 475.3 597.042 476.028C597.042 476.756 596.883 477.395 596.566 477.946C596.258 478.487 595.838 478.912 595.306 479.22C594.774 479.519 594.177 479.668 593.514 479.668ZM593.514 478.394C593.869 478.394 594.195 478.305 594.494 478.128C594.802 477.951 595.049 477.689 595.236 477.344C595.423 476.989 595.516 476.551 595.516 476.028C595.516 475.505 595.423 475.071 595.236 474.726C595.059 474.371 594.816 474.105 594.508 473.928C594.209 473.751 593.883 473.662 593.528 473.662C593.173 473.662 592.842 473.751 592.534 473.928C592.235 474.105 591.993 474.371 591.806 474.726C591.619 475.071 591.526 475.505 591.526 476.028C591.526 476.551 591.619 476.989 591.806 477.344C591.993 477.689 592.235 477.951 592.534 478.128C592.833 478.305 593.159 478.394 593.514 478.394ZM598.367 479.5V472.556H599.697L599.823 473.872C600.065 473.415 600.401 473.055 600.831 472.794C601.269 472.523 601.797 472.388 602.413 472.388V473.942H602.007C601.596 473.942 601.227 474.012 600.901 474.152C600.583 474.283 600.327 474.511 600.131 474.838C599.944 475.155 599.851 475.599 599.851 476.168V479.5H598.367ZM606.317 479.5C605.636 479.5 605.095 479.337 604.693 479.01C604.292 478.674 604.091 478.081 604.091 477.232V473.802H602.901V472.556H604.091L604.273 470.792H605.575V472.556H607.535V473.802H605.575V477.232C605.575 477.615 605.655 477.881 605.813 478.03C605.981 478.17 606.266 478.24 606.667 478.24H607.465V479.5H606.317Z" fill="white"/>
</g>
<defs>
<filter id="filter0_d_2070_1433" x="110.294" y="106.974" width="571.291" height="270.402" filterUnits="userSpaceOnUse" color-interpolation-filters="sRGB">
<feFlood flood-opacity="0" result="BackgroundImageFix"/>
<feColorMatrix in="SourceAlpha" type="matrix" values="0 0 0 0 0 0 0 0 0 0 0 0 0 0 0 0 0 0 127 0" result="hardAlpha"/>
<feOffset dy="3.52159"/>
<feGaussianBlur stdDeviation="32.7572"/>
<feColorMatrix type="matrix" values="0 0 0 0 0.827451 0 0 0 0 0.905882 0 0 0 0 0.388235 0 0 0 1 0"/>
<feBlend mode="normal" in2="BackgroundImageFix" result="effect1_dropShadow_2070_1433"/>
<feBlend mode="normal" in="SourceGraphic" in2="effect1_dropShadow_2070_1433" result="shape"/>
</filter>
<filter id="filter1_d_2070_1433" x="260.502" y="199.92" width="19.5979" height="19.4873" filterUnits="userSpaceOnUse" color-interpolation-filters="sRGB">
<feFlood flood-opacity="0" result="BackgroundImageFix"/>
<feColorMatrix in="SourceAlpha" type="matrix" values="0 0 0 0 0 0 0 0 0 0 0 0 0 0 0 0 0 0 127 0" result="hardAlpha"/>
<feOffset dy="3.52159"/>
<feGaussianBlur stdDeviation="1.76079"/>
<feColorMatrix type="matrix" values="0 0 0 0 0.156863 0 0 0 0 0.635294 0 0 0 0 0.388235 0 0 0 0.03 0"/>
<feBlend mode="normal" in2="BackgroundImageFix" result="effect1_dropShadow_2070_1433"/>
<feBlend mode="normal" in="SourceGraphic" in2="effect1_dropShadow_2070_1433" result="shape"/>
</filter>
<filter id="filter2_d_2070_1433" x="386.248" y="217.884" width="19.5979" height="19.4873" filterUnits="userSpaceOnUse" color-interpolation-filters="sRGB">
<feFlood flood-opacity="0" result="BackgroundImageFix"/>
<feColorMatrix in="SourceAlpha" type="matrix" values="0 0 0 0 0 0 0 0 0 0 0 0 0 0 0 0 0 0 127 0" result="hardAlpha"/>
<feOffset dy="3.52159"/>
<feGaussianBlur stdDeviation="1.76079"/>
<feColorMatrix type="matrix" values="0 0 0 0 0.156863 0 0 0 0 0.635294 0 0 0 0 0.388235 0 0 0 0.03 0"/>
<feBlend mode="normal" in2="BackgroundImageFix" result="effect1_dropShadow_2070_1433"/>
<feBlend mode="normal" in="SourceGraphic" in2="effect1_dropShadow_2070_1433" result="shape"/>
</filter>
<filter id="filter3_d_2070_1433" x="544.553" y="177.466" width="19.5979" height="19.4873" filterUnits="userSpaceOnUse" color-interpolation-filters="sRGB">
<feFlood flood-opacity="0" result="BackgroundImageFix"/>
<feColorMatrix in="SourceAlpha" type="matrix" values="0 0 0 0 0 0 0 0 0 0 0 0 0 0 0 0 0 0 127 0" result="hardAlpha"/>
<feOffset dy="3.52159"/>
<feGaussianBlur stdDeviation="1.76079"/>
<feColorMatrix type="matrix" values="0 0 0 0 0.156863 0 0 0 0 0.635294 0 0 0 0 0.388235 0 0 0 0.03 0"/>
<feBlend mode="normal" in2="BackgroundImageFix" result="effect1_dropShadow_2070_1433"/>
<feBlend mode="normal" in="SourceGraphic" in2="effect1_dropShadow_2070_1433" result="shape"/>
</filter>
<filter id="filter4_d_2070_1433" x="320.006" y="249.32" width="19.5979" height="19.4873" filterUnits="userSpaceOnUse" color-interpolation-filters="sRGB">
<feFlood flood-opacity="0" result="BackgroundImageFix"/>
<feColorMatrix in="SourceAlpha" type="matrix" values="0 0 0 0 0 0 0 0 0 0 0 0 0 0 0 0 0 0 127 0" result="hardAlpha"/>
<feOffset dy="3.52159"/>
<feGaussianBlur stdDeviation="1.76079"/>
<feColorMatrix type="matrix" values="0 0 0 0 0.156863 0 0 0 0 0.635294 0 0 0 0 0.388235 0 0 0 0.12 0"/>
<feBlend mode="normal" in2="BackgroundImageFix" result="effect1_dropShadow_2070_1433"/>
<feBlend mode="normal" in="SourceGraphic" in2="effect1_dropShadow_2070_1433" result="shape"/>
</filter>
<filter id="filter5_d_2070_1433" x="480.557" y="252.688" width="19.5979" height="19.4873" filterUnits="userSpaceOnUse" color-interpolation-filters="sRGB">
<feFlood flood-opacity="0" result="BackgroundImageFix"/>
<feColorMatrix in="SourceAlpha" type="matrix" values="0 0 0 0 0 0 0 0 0 0 0 0 0 0 0 0 0 0 127 0" result="hardAlpha"/>
<feOffset dy="3.52159"/>
<feGaussianBlur stdDeviation="1.76079"/>
<feColorMatrix type="matrix" values="0 0 0 0 0.156863 0 0 0 0 0.635294 0 0 0 0 0.388235 0 0 0 0.03 0"/>
<feBlend mode="normal" in2="BackgroundImageFix" result="effect1_dropShadow_2070_1433"/>
<feBlend mode="normal" in="SourceGraphic" in2="effect1_dropShadow_2070_1433" result="shape"/>
</filter>
<filter id="filter6_d_2070_1433" x="0" y="344" width="743" height="269" filterUnits="userSpaceOnUse" color-interpolation-filters="sRGB">
<feFlood flood-opacity="0" result="BackgroundImageFix"/>
<feColorMatrix in="SourceAlpha" type="matrix" values="0 0 0 0 0 0 0 0 0 0 0 0 0 0 0 0 0 0 127 0" result="hardAlpha"/>
<feOffset dx="7" dy="4"/>
<feGaussianBlur stdDeviation="42"/>
<feComposite in2="hardAlpha" operator="out"/>
<feColorMatrix type="matrix" values="0 0 0 0 0 0 0 0 0 0 0 0 0 0 0 0 0 0 0.09 0"/>
<feBlend mode="normal" in2="BackgroundImageFix" result="effect1_dropShadow_2070_1433"/>
<feBlend mode="normal" in="SourceGraphic" in2="effect1_dropShadow_2070_1433" result="shape"/>
</filter>
<linearGradient id="paint0_linear_2070_1433" x1="364.5" y1="0" x2="364.5" y2="436" gradientUnits="userSpaceOnUse">
<stop stop-color="#B3C9FF"/>
<stop offset="1" stop-color="#F8C8FF"/>
</linearGradient>
<linearGradient id="paint1_linear_2070_1433" x1="296.5" y1="148" x2="296.5" y2="366" gradientUnits="userSpaceOnUse">
<stop stop-color="#B3C9FF"/>
<stop offset="1" stop-color="#F8C8FF" stop-opacity="0.39"/>
</linearGradient>
<clipPath id="clip0_2070_1433">
<rect x="113" y="36" width="503" height="408" rx="12.3986" fill="white"/>
</clipPath>
<clipPath id="clip1_2070_1433">
<rect x="94.5" y="444" width="61" height="61" rx="30.5" fill="white"/>
</clipPath>
</defs>
</svg>
