<svg width="241" height="263" viewBox="0 0 241 263" fill="none" xmlns="http://www.w3.org/2000/svg">
<rect width="241" height="263" rx="14.183" fill="white"/>
<path opacity="0.8" d="M103.534 43.1476C103.13 40.9502 104.6 38.836 106.815 38.5394C121.076 36.6303 135.604 37.5848 149.488 41.3597C163.326 45.1225 176.197 51.5985 187.305 60.3687C189.084 61.7733 189.235 64.3888 187.701 66.0616L170.379 84.9464C168.917 86.5412 166.461 86.6809 164.745 85.3683C157.476 79.8116 149.131 75.6915 140.184 73.2588C131.248 70.8291 121.915 70.1377 112.722 71.2101C110.541 71.4645 108.482 70.0404 108.085 67.8817L103.534 43.1476Z" fill="#FFDC5F"/>
<path opacity="0.3" d="M193.162 70.709C194.736 69.2246 197.208 69.2475 198.685 70.8247C207 79.7073 213.622 89.957 218.231 101.1C222.814 112.181 225.325 123.95 225.66 135.86C225.723 138.075 223.895 139.85 221.68 139.825L195.417 139.522C193.202 139.496 191.442 137.678 191.335 135.466C190.971 127.909 189.303 120.455 186.391 113.415C183.488 106.396 179.398 99.9049 174.295 94.2029C172.783 92.5133 172.808 89.9059 174.459 88.3481L193.162 70.709Z" fill="#6A65FF"/>
<path opacity="0.5" d="M47.1644 73.0988C45.4682 71.5948 45.3528 68.977 46.9811 67.3952C58.9596 55.7583 73.6906 47.1115 89.8992 42.2054C91.9934 41.5715 94.1656 42.8194 94.7572 44.9241L101.575 69.1765C102.182 71.3354 100.895 73.5642 98.7597 74.257C88.7546 77.5044 79.6311 82.8876 72.0689 90.0065C70.4934 91.4897 68.0374 91.6069 66.4207 90.1733L47.1644 73.0988Z" fill="#61E5B6"/>
<path d="M20.5364 137.505C18.3213 137.479 16.5403 135.662 16.6598 133.449C17.7378 113.497 24.9116 94.2931 37.2742 78.2705C38.5968 76.5565 41.058 76.2964 42.7635 77.6252L63.1224 93.4871C64.9097 94.8797 65.176 97.4711 63.8309 99.2982C56.3518 109.458 51.9066 121.412 50.9848 133.847C50.821 136.056 49.0149 137.833 46.7998 137.808L20.5364 137.505Z" fill="#6A65FF"/>
<path d="M80.3976 108.576C79.935 108.576 79.5265 108.498 79.172 108.342C78.8175 108.179 78.5382 107.951 78.3339 107.657C78.1296 107.356 78.0245 106.993 78.0185 106.566H79.2351C79.2471 106.861 79.3523 107.11 79.5505 107.314C79.7548 107.513 80.0342 107.612 80.3886 107.612C80.695 107.612 80.9384 107.54 81.1186 107.395C81.2988 107.245 81.389 107.047 81.389 106.801C81.389 106.542 81.3079 106.341 81.1456 106.197C80.9894 106.053 80.7792 105.935 80.5148 105.845C80.2505 105.755 79.9681 105.659 79.6677 105.557C79.181 105.389 78.8085 105.172 78.5502 104.908C78.2979 104.644 78.1717 104.292 78.1717 103.854C78.1657 103.481 78.2528 103.163 78.433 102.898C78.6193 102.628 78.8716 102.421 79.19 102.277C79.5085 102.126 79.875 102.051 80.2895 102.051C80.7101 102.051 81.0796 102.126 81.398 102.277C81.7224 102.427 81.9747 102.637 82.155 102.907C82.3412 103.178 82.4404 103.499 82.4524 103.872H81.2177C81.2117 103.649 81.1246 103.454 80.9564 103.286C80.7942 103.112 80.5659 103.025 80.2715 103.025C80.0191 103.019 79.8059 103.082 79.6316 103.214C79.4634 103.34 79.3793 103.526 79.3793 103.773C79.3793 103.983 79.4454 104.151 79.5776 104.277C79.7097 104.397 79.89 104.5 80.1183 104.584C80.3466 104.668 80.6079 104.758 80.9023 104.854C81.2147 104.962 81.5001 105.088 81.7585 105.232C82.0168 105.377 82.2241 105.569 82.3803 105.809C82.5365 106.044 82.6146 106.347 82.6146 106.719C82.6146 107.05 82.5305 107.356 82.3623 107.639C82.194 107.921 81.9447 108.149 81.6143 108.324C81.2838 108.492 80.8783 108.576 80.3976 108.576ZM83.4138 110.45V103.998H84.4411L84.5673 104.638C84.7115 104.439 84.9007 104.265 85.1351 104.115C85.3754 103.965 85.6848 103.89 86.0633 103.89C86.4838 103.89 86.8593 103.992 87.1898 104.196C87.5202 104.4 87.7816 104.68 87.9738 105.034C88.1661 105.389 88.2622 105.791 88.2622 106.242C88.2622 106.692 88.1661 107.095 87.9738 107.449C87.7816 107.798 87.5202 108.074 87.1898 108.279C86.8593 108.477 86.4838 108.576 86.0633 108.576C85.7268 108.576 85.4325 108.513 85.1801 108.387C84.9278 108.26 84.7235 108.083 84.5673 107.855V110.45H83.4138ZM85.82 107.567C86.1865 107.567 86.4899 107.443 86.7302 107.197C86.9705 106.951 87.0907 106.632 87.0907 106.242C87.0907 105.851 86.9705 105.53 86.7302 105.278C86.4899 105.025 86.1865 104.899 85.82 104.899C85.4475 104.899 85.1411 105.025 84.9007 105.278C84.6664 105.524 84.5493 105.842 84.5493 106.233C84.5493 106.623 84.6664 106.945 84.9007 107.197C85.1411 107.443 85.4475 107.567 85.82 107.567ZM91.2843 108.576C90.8337 108.576 90.4342 108.48 90.0857 108.288C89.7373 108.095 89.4639 107.825 89.2656 107.476C89.0674 107.128 88.9682 106.725 88.9682 106.269C88.9682 105.806 89.0644 105.395 89.2566 105.034C89.4549 104.674 89.7252 104.394 90.0677 104.196C90.4162 103.992 90.8247 103.89 91.2933 103.89C91.7319 103.89 92.1194 103.986 92.4559 104.178C92.7923 104.37 93.0537 104.635 93.2399 104.971C93.4322 105.302 93.5283 105.671 93.5283 106.08C93.5283 106.146 93.5253 106.215 93.5193 106.287C93.5193 106.359 93.5163 106.434 93.5103 106.512H90.1128C90.1368 106.861 90.257 107.134 90.4732 107.332C90.6955 107.531 90.9629 107.63 91.2753 107.63C91.5096 107.63 91.7049 107.579 91.8611 107.476C92.0233 107.368 92.1435 107.23 92.2216 107.062H93.3931C93.309 107.344 93.1678 107.603 92.9696 107.837C92.7773 108.065 92.537 108.245 92.2486 108.378C91.9662 108.51 91.6448 108.576 91.2843 108.576ZM91.2933 104.827C91.011 104.827 90.7616 104.908 90.5453 105.07C90.329 105.226 90.1909 105.467 90.1308 105.791H92.3567C92.3387 105.497 92.2306 105.263 92.0323 105.088C91.834 104.914 91.5877 104.827 91.2933 104.827ZM94.3183 108.468V103.998H95.3366L95.4267 104.755C95.5649 104.49 95.7632 104.28 96.0215 104.124C96.2859 103.968 96.5953 103.89 96.9497 103.89C97.5025 103.89 97.9321 104.064 98.2385 104.412C98.5449 104.761 98.6981 105.272 98.6981 105.944V108.468H97.5445V106.053C97.5445 105.668 97.4664 105.374 97.3102 105.169C97.154 104.965 96.9107 104.863 96.5803 104.863C96.2558 104.863 95.9885 104.977 95.7782 105.205C95.5739 105.434 95.4718 105.752 95.4718 106.161V108.468H94.3183ZM101.676 108.576C101.255 108.576 100.88 108.474 100.549 108.27C100.219 108.065 99.9573 107.786 99.7651 107.431C99.5728 107.077 99.4767 106.674 99.4767 106.224C99.4767 105.773 99.5728 105.374 99.7651 105.025C99.9573 104.671 100.219 104.394 100.549 104.196C100.88 103.992 101.255 103.89 101.676 103.89C102.012 103.89 102.306 103.953 102.559 104.079C102.811 104.205 103.015 104.382 103.172 104.611V101.979H104.325V108.468H103.298L103.172 107.828C103.027 108.026 102.835 108.2 102.595 108.351C102.361 108.501 102.054 108.576 101.676 108.576ZM101.919 107.567C102.291 107.567 102.595 107.443 102.829 107.197C103.069 106.945 103.19 106.623 103.19 106.233C103.19 105.842 103.069 105.524 102.829 105.278C102.595 105.025 102.291 104.899 101.919 104.899C101.552 104.899 101.249 105.022 101.009 105.269C100.768 105.515 100.648 105.833 100.648 106.224C100.648 106.614 100.768 106.936 101.009 107.188C101.249 107.44 101.552 107.567 101.919 107.567ZM105.941 103.304C105.731 103.304 105.557 103.241 105.419 103.115C105.287 102.988 105.22 102.829 105.22 102.637C105.22 102.445 105.287 102.289 105.419 102.168C105.557 102.042 105.731 101.979 105.941 101.979C106.152 101.979 106.323 102.042 106.455 102.168C106.593 102.289 106.662 102.445 106.662 102.637C106.662 102.829 106.593 102.988 106.455 103.115C106.323 103.241 106.152 103.304 105.941 103.304ZM105.365 108.468V103.998H106.518V108.468H105.365ZM107.542 108.468V103.998H108.56L108.65 104.755C108.789 104.49 108.987 104.28 109.245 104.124C109.51 103.968 109.819 103.89 110.173 103.89C110.726 103.89 111.156 104.064 111.462 104.412C111.769 104.761 111.922 105.272 111.922 105.944V108.468H110.768V106.053C110.768 105.668 110.69 105.374 110.534 105.169C110.378 104.965 110.134 104.863 109.804 104.863C109.479 104.863 109.212 104.977 109.002 105.205C108.798 105.434 108.695 105.752 108.695 106.161V108.468H107.542ZM114.737 107.134C114.521 107.134 114.319 107.11 114.133 107.062L113.8 107.395C113.902 107.449 114.04 107.494 114.214 107.531C114.389 107.567 114.671 107.603 115.061 107.639C115.656 107.693 116.089 107.834 116.359 108.062C116.63 108.291 116.765 108.606 116.765 109.008C116.765 109.273 116.693 109.522 116.548 109.756C116.404 109.997 116.182 110.189 115.882 110.333C115.581 110.483 115.197 110.559 114.728 110.559C114.091 110.559 113.578 110.438 113.187 110.198C112.796 109.964 112.601 109.609 112.601 109.135C112.601 108.732 112.796 108.384 113.187 108.089C113.067 108.035 112.962 107.978 112.872 107.918C112.787 107.858 112.712 107.795 112.646 107.729V107.522L113.43 106.692C113.082 106.386 112.908 105.992 112.908 105.512C112.908 105.211 112.98 104.938 113.124 104.692C113.274 104.445 113.484 104.25 113.755 104.106C114.025 103.962 114.353 103.89 114.737 103.89C114.989 103.89 115.224 103.926 115.44 103.998H117.134V104.701L116.368 104.755C116.488 104.983 116.548 105.235 116.548 105.512C116.548 105.812 116.476 106.086 116.332 106.332C116.188 106.578 115.978 106.774 115.701 106.918C115.431 107.062 115.11 107.134 114.737 107.134ZM114.737 106.251C114.971 106.251 115.164 106.188 115.314 106.062C115.47 105.935 115.548 105.755 115.548 105.521C115.548 105.287 115.47 105.106 115.314 104.98C115.164 104.854 114.971 104.791 114.737 104.791C114.491 104.791 114.292 104.854 114.142 104.98C113.992 105.106 113.917 105.287 113.917 105.521C113.917 105.755 113.992 105.935 114.142 106.062C114.292 106.188 114.491 106.251 114.737 106.251ZM113.656 109.018C113.656 109.24 113.758 109.405 113.962 109.513C114.172 109.627 114.428 109.684 114.728 109.684C115.016 109.684 115.251 109.624 115.431 109.504C115.611 109.39 115.701 109.234 115.701 109.036C115.701 108.873 115.641 108.738 115.521 108.63C115.407 108.522 115.176 108.456 114.827 108.432C114.581 108.414 114.353 108.387 114.142 108.351C113.968 108.447 113.842 108.552 113.764 108.666C113.692 108.78 113.656 108.897 113.656 109.018ZM121.258 108.468V103.088H119.42V102.159H124.259V103.088H122.412V108.468H121.258ZM124.906 108.468V101.979H126.06V104.683C126.21 104.436 126.411 104.244 126.664 104.106C126.922 103.962 127.217 103.89 127.547 103.89C128.1 103.89 128.526 104.064 128.827 104.412C129.133 104.761 129.286 105.272 129.286 105.944V108.468H128.142V106.053C128.142 105.668 128.064 105.374 127.907 105.169C127.757 104.965 127.517 104.863 127.187 104.863C126.862 104.863 126.592 104.977 126.375 105.205C126.165 105.434 126.06 105.752 126.06 106.161V108.468H124.906ZM130.831 103.304C130.621 103.304 130.446 103.241 130.308 103.115C130.176 102.988 130.11 102.829 130.11 102.637C130.11 102.445 130.176 102.289 130.308 102.168C130.446 102.042 130.621 101.979 130.831 101.979C131.041 101.979 131.212 102.042 131.345 102.168C131.483 102.289 131.552 102.445 131.552 102.637C131.552 102.829 131.483 102.988 131.345 103.115C131.212 103.241 131.041 103.304 130.831 103.304ZM130.254 108.468V103.998H131.408V108.468H130.254ZM134.279 108.576C133.882 108.576 133.534 108.513 133.234 108.387C132.933 108.254 132.693 108.074 132.513 107.846C132.332 107.618 132.224 107.353 132.188 107.053H133.351C133.387 107.227 133.483 107.377 133.639 107.503C133.801 107.624 134.009 107.684 134.261 107.684C134.513 107.684 134.696 107.633 134.811 107.531C134.931 107.428 134.991 107.311 134.991 107.179C134.991 106.987 134.907 106.858 134.739 106.792C134.57 106.719 134.336 106.65 134.036 106.584C133.843 106.542 133.648 106.491 133.45 106.431C133.252 106.371 133.068 106.296 132.9 106.206C132.738 106.11 132.606 105.989 132.504 105.845C132.401 105.695 132.35 105.512 132.35 105.296C132.35 104.899 132.507 104.566 132.819 104.295C133.137 104.025 133.582 103.89 134.153 103.89C134.681 103.89 135.102 104.013 135.414 104.259C135.733 104.506 135.922 104.845 135.982 105.278H134.892C134.826 104.947 134.576 104.782 134.144 104.782C133.927 104.782 133.759 104.824 133.639 104.908C133.525 104.992 133.468 105.097 133.468 105.223C133.468 105.356 133.555 105.461 133.729 105.539C133.903 105.617 134.135 105.689 134.423 105.755C134.736 105.827 135.021 105.908 135.279 105.998C135.544 106.083 135.754 106.212 135.91 106.386C136.066 106.554 136.144 106.798 136.144 107.116C136.15 107.392 136.078 107.642 135.928 107.864C135.778 108.086 135.562 108.26 135.279 108.387C134.997 108.513 134.663 108.576 134.279 108.576ZM140.26 108.468L138.593 102.159H139.827L140.963 107.179L142.297 102.159H143.567L144.865 107.179L146.001 102.159H147.244L145.532 108.468H144.162L142.909 103.791L141.621 108.468H140.26ZM149.57 108.576C149.119 108.576 148.719 108.48 148.371 108.288C148.023 108.095 147.749 107.825 147.551 107.476C147.353 107.128 147.253 106.725 147.253 106.269C147.253 105.806 147.35 105.395 147.542 105.034C147.74 104.674 148.011 104.394 148.353 104.196C148.701 103.992 149.11 103.89 149.579 103.89C150.017 103.89 150.405 103.986 150.741 104.178C151.078 104.37 151.339 104.635 151.525 104.971C151.717 105.302 151.814 105.671 151.814 106.08C151.814 106.146 151.811 106.215 151.805 106.287C151.805 106.359 151.802 106.434 151.796 106.512H148.398C148.422 106.861 148.542 107.134 148.758 107.332C148.981 107.531 149.248 107.63 149.561 107.63C149.795 107.63 149.99 107.579 150.146 107.476C150.309 107.368 150.429 107.23 150.507 107.062H151.678C151.594 107.344 151.453 107.603 151.255 107.837C151.063 108.065 150.822 108.245 150.534 108.378C150.251 108.51 149.93 108.576 149.57 108.576ZM149.579 104.827C149.296 104.827 149.047 104.908 148.831 105.07C148.614 105.226 148.476 105.467 148.416 105.791H150.642C150.624 105.497 150.516 105.263 150.318 105.088C150.119 104.914 149.873 104.827 149.579 104.827ZM154.775 108.576C154.325 108.576 153.925 108.48 153.577 108.288C153.228 108.095 152.955 107.825 152.757 107.476C152.558 107.128 152.459 106.725 152.459 106.269C152.459 105.806 152.555 105.395 152.748 105.034C152.946 104.674 153.216 104.394 153.559 104.196C153.907 103.992 154.316 103.89 154.784 103.89C155.223 103.89 155.611 103.986 155.947 104.178C156.283 104.37 156.545 104.635 156.731 104.971C156.923 105.302 157.019 105.671 157.019 106.08C157.019 106.146 157.016 106.215 157.01 106.287C157.01 106.359 157.007 106.434 157.001 106.512H153.604C153.628 106.861 153.748 107.134 153.964 107.332C154.187 107.531 154.454 107.63 154.766 107.63C155.001 107.63 155.196 107.579 155.352 107.476C155.514 107.368 155.635 107.23 155.713 107.062H156.884C156.8 107.344 156.659 107.603 156.461 107.837C156.268 108.065 156.028 108.245 155.74 108.378C155.457 108.51 155.136 108.576 154.775 108.576ZM154.784 104.827C154.502 104.827 154.253 104.908 154.036 105.07C153.82 105.226 153.682 105.467 153.622 105.791H155.848C155.83 105.497 155.722 105.263 155.523 105.088C155.325 104.914 155.079 104.827 154.784 104.827ZM157.809 108.468V101.979H158.963V105.809L160.549 103.998H161.919L160.089 106.035L162.216 108.468H160.774L158.963 106.224V108.468H157.809Z" fill="#0A071B"/>
<path d="M91.6519 146.467V144.629C90.0926 144.454 88.8436 143.905 87.9049 142.983C86.9661 142.06 86.4888 140.851 86.4729 139.355H89.1459C89.1618 140.103 89.3846 140.763 89.8142 141.336C90.2438 141.893 90.8563 142.267 91.6519 142.458V136.706C91.5246 136.674 91.3893 136.634 91.2461 136.587C91.1188 136.539 90.9836 136.491 90.8404 136.443C89.5516 136.014 88.5811 135.457 87.9287 134.773C87.2923 134.089 86.9741 133.19 86.9741 132.076C86.9582 130.771 87.3798 129.705 88.239 128.878C89.0982 128.05 90.2358 127.565 91.6519 127.422V125.513H93.2748V127.446C94.659 127.605 95.7728 128.106 96.616 128.949C97.4593 129.793 97.8889 130.851 97.9048 132.124H95.2318C95.2159 131.598 95.0409 131.105 94.7067 130.644C94.3885 130.167 93.9112 129.84 93.2748 129.665V134.773C93.402 134.82 93.5293 134.868 93.6566 134.916C93.7839 134.948 93.9112 134.987 94.0385 135.035C94.8658 135.306 95.6057 135.632 96.258 136.014C96.9104 136.396 97.4275 136.897 97.8093 137.517C98.2071 138.138 98.406 138.925 98.406 139.88C98.406 140.676 98.2151 141.423 97.8332 142.123C97.4513 142.808 96.8786 143.38 96.1148 143.842C95.3511 144.303 94.4044 144.574 93.2748 144.653V146.467H91.6519ZM89.5994 131.861C89.5994 132.497 89.7823 132.991 90.1483 133.341C90.5142 133.675 91.0154 133.969 91.6519 134.224V129.594C91.0472 129.705 90.554 129.96 90.1722 130.357C89.7903 130.739 89.5994 131.24 89.5994 131.861ZM95.733 140.047C95.733 139.267 95.5023 138.679 95.0409 138.281C94.5794 137.867 93.9907 137.525 93.2748 137.255V142.505C94.0544 142.41 94.659 142.139 95.0886 141.694C95.5182 141.248 95.733 140.699 95.733 140.047ZM106.518 144.677C105.34 144.677 104.322 144.47 103.463 144.057C102.604 143.627 101.92 143.046 101.411 142.314C100.917 141.567 100.615 140.723 100.504 139.785H102.986C103.145 140.58 103.543 141.24 104.179 141.765C104.815 142.275 105.603 142.529 106.542 142.529C107.242 142.529 107.846 142.362 108.356 142.028C108.865 141.678 109.262 141.217 109.549 140.644C109.835 140.071 109.978 139.427 109.978 138.711C109.978 137.581 109.66 136.682 109.024 136.014C108.387 135.33 107.584 134.987 106.613 134.987C105.786 134.987 105.078 135.186 104.489 135.584C103.901 135.966 103.471 136.451 103.2 137.04H100.79L102.222 127.684H111.243V129.904H104.131L103.272 134.367C103.638 133.953 104.139 133.611 104.776 133.341C105.428 133.054 106.16 132.911 106.971 132.911C108.101 132.911 109.072 133.174 109.883 133.699C110.694 134.208 111.315 134.9 111.745 135.775C112.19 136.65 112.413 137.621 112.413 138.687C112.413 139.8 112.174 140.811 111.697 141.718C111.22 142.625 110.535 143.349 109.644 143.89C108.769 144.415 107.727 144.677 106.518 144.677ZM122.537 144.391V141.049H114.16V139.045L122.131 127.684H125.043V138.854H127.382V141.049H125.043V144.391H122.537ZM116.905 138.854H122.68V130.477L116.905 138.854ZM130.486 144.391L136.953 129.856H128.266V127.684H139.555V129.522L133.135 144.391H130.486ZM147.279 144.677C146.053 144.677 145.019 144.446 144.176 143.985C143.333 143.524 142.648 142.911 142.123 142.147C141.614 141.384 141.248 140.524 141.026 139.57C140.803 138.615 140.691 137.637 140.691 136.634C140.691 134.789 140.946 133.174 141.455 131.789C141.98 130.405 142.728 129.331 143.699 128.567C144.669 127.788 145.847 127.398 147.231 127.398C148.329 127.398 149.267 127.613 150.047 128.042C150.827 128.472 151.431 129.045 151.861 129.761C152.306 130.477 152.577 131.256 152.672 132.1H150.31C150.166 131.272 149.824 130.636 149.283 130.19C148.742 129.745 148.05 129.522 147.207 129.522C146.045 129.522 145.083 130.071 144.319 131.169C143.571 132.251 143.174 133.921 143.126 136.181C143.508 135.481 144.096 134.884 144.892 134.391C145.703 133.898 146.634 133.651 147.684 133.651C148.623 133.651 149.498 133.874 150.31 134.319C151.137 134.765 151.805 135.393 152.314 136.205C152.839 137 153.102 137.947 153.102 139.045C153.102 140.015 152.863 140.93 152.386 141.789C151.909 142.649 151.232 143.349 150.357 143.89C149.498 144.415 148.472 144.677 147.279 144.677ZM147.135 142.481C147.804 142.481 148.4 142.338 148.925 142.052C149.45 141.765 149.864 141.376 150.166 140.882C150.469 140.373 150.62 139.8 150.62 139.164C150.62 138.146 150.286 137.334 149.617 136.73C148.965 136.125 148.13 135.823 147.111 135.823C146.443 135.823 145.839 135.974 145.298 136.276C144.773 136.579 144.359 136.984 144.057 137.493C143.754 137.987 143.603 138.536 143.603 139.14C143.603 139.793 143.754 140.373 144.057 140.882C144.375 141.376 144.796 141.765 145.321 142.052C145.862 142.338 146.467 142.481 147.135 142.481Z" fill="#0A071B"/>
<rect x="57" y="186" width="127" height="42" rx="21" fill="#6A65FF"/>
<path d="M87.2647 212L83.6387 202.2H85.2207L88.1607 210.46L91.1147 202.2H92.6827L89.0567 212H87.2647ZM94.441 203.74C94.161 203.74 93.9276 203.656 93.741 203.488C93.5636 203.311 93.475 203.091 93.475 202.83C93.475 202.569 93.5636 202.354 93.741 202.186C93.9276 202.009 94.161 201.92 94.441 201.92C94.721 201.92 94.9496 202.009 95.127 202.186C95.3136 202.354 95.407 202.569 95.407 202.83C95.407 203.091 95.3136 203.311 95.127 203.488C94.9496 203.656 94.721 203.74 94.441 203.74ZM93.699 212V205.056H95.183V212H93.699ZM100.11 212.168C99.4287 212.168 98.822 212.019 98.29 211.72C97.7673 211.412 97.3567 210.987 97.058 210.446C96.7593 209.905 96.61 209.275 96.61 208.556C96.61 207.828 96.7547 207.189 97.044 206.638C97.3427 206.087 97.7533 205.658 98.276 205.35C98.808 205.042 99.424 204.888 100.124 204.888C100.805 204.888 101.398 205.042 101.902 205.35C102.406 205.649 102.798 206.05 103.078 206.554C103.358 207.058 103.498 207.613 103.498 208.22C103.498 208.313 103.493 208.416 103.484 208.528C103.484 208.631 103.479 208.747 103.47 208.878H98.066C98.1127 209.55 98.332 210.063 98.724 210.418C99.1253 210.763 99.5873 210.936 100.11 210.936C100.53 210.936 100.88 210.843 101.16 210.656C101.449 210.46 101.664 210.199 101.804 209.872H103.288C103.101 210.525 102.728 211.071 102.168 211.51C101.617 211.949 100.931 212.168 100.11 212.168ZM100.11 206.106C99.6153 206.106 99.1767 206.255 98.794 206.554C98.4113 206.843 98.178 207.282 98.094 207.87H102.014C101.986 207.329 101.795 206.899 101.44 206.582C101.085 206.265 100.642 206.106 100.11 206.106ZM105.87 212L103.826 205.056H105.31L106.654 210.292L108.166 205.056H109.818L111.33 210.292L112.674 205.056H114.158L112.114 212H110.588L108.992 206.54L107.396 212H105.87ZM118.348 212V205.056H119.678L119.804 206.372C120.047 205.915 120.383 205.555 120.812 205.294C121.251 205.023 121.778 204.888 122.394 204.888V206.442H121.988C121.577 206.442 121.209 206.512 120.882 206.652C120.565 206.783 120.308 207.011 120.112 207.338C119.925 207.655 119.832 208.099 119.832 208.668V212H118.348ZM126.443 212.168C125.762 212.168 125.155 212.019 124.623 211.72C124.1 211.412 123.69 210.987 123.391 210.446C123.092 209.905 122.943 209.275 122.943 208.556C122.943 207.828 123.088 207.189 123.377 206.638C123.676 206.087 124.086 205.658 124.609 205.35C125.141 205.042 125.757 204.888 126.457 204.888C127.138 204.888 127.731 205.042 128.235 205.35C128.739 205.649 129.131 206.05 129.411 206.554C129.691 207.058 129.831 207.613 129.831 208.22C129.831 208.313 129.826 208.416 129.817 208.528C129.817 208.631 129.812 208.747 129.803 208.878H124.399C124.446 209.55 124.665 210.063 125.057 210.418C125.458 210.763 125.92 210.936 126.443 210.936C126.863 210.936 127.213 210.843 127.493 210.656C127.782 210.46 127.997 210.199 128.137 209.872H129.621C129.434 210.525 129.061 211.071 128.501 211.51C127.95 211.949 127.264 212.168 126.443 212.168ZM126.443 206.106C125.948 206.106 125.51 206.255 125.127 206.554C124.744 206.843 124.511 207.282 124.427 207.87H128.347C128.319 207.329 128.128 206.899 127.773 206.582C127.418 206.265 126.975 206.106 126.443 206.106ZM131.091 215.08V205.056H132.421L132.575 206.134C132.799 205.807 133.107 205.518 133.499 205.266C133.891 205.014 134.395 204.888 135.011 204.888C135.683 204.888 136.276 205.047 136.789 205.364C137.302 205.681 137.704 206.115 137.993 206.666C138.292 207.217 138.441 207.842 138.441 208.542C138.441 209.242 138.292 209.867 137.993 210.418C137.704 210.959 137.302 211.389 136.789 211.706C136.276 212.014 135.678 212.168 134.997 212.168C134.456 212.168 133.975 212.061 133.555 211.846C133.144 211.631 132.818 211.328 132.575 210.936V215.08H131.091ZM134.745 210.88C135.38 210.88 135.902 210.665 136.313 210.236C136.724 209.797 136.929 209.228 136.929 208.528C136.929 208.071 136.836 207.665 136.649 207.31C136.462 206.955 136.206 206.68 135.879 206.484C135.552 206.279 135.174 206.176 134.745 206.176C134.11 206.176 133.588 206.395 133.177 206.834C132.776 207.273 132.575 207.837 132.575 208.528C132.575 209.228 132.776 209.797 133.177 210.236C133.588 210.665 134.11 210.88 134.745 210.88ZM143.014 212.168C142.351 212.168 141.754 212.019 141.222 211.72C140.699 211.412 140.284 210.987 139.976 210.446C139.668 209.895 139.514 209.256 139.514 208.528C139.514 207.8 139.668 207.165 139.976 206.624C140.293 206.073 140.718 205.649 141.25 205.35C141.782 205.042 142.375 204.888 143.028 204.888C143.691 204.888 144.283 205.042 144.806 205.35C145.338 205.649 145.758 206.073 146.066 206.624C146.383 207.165 146.542 207.8 146.542 208.528C146.542 209.256 146.383 209.895 146.066 210.446C145.758 210.987 145.338 211.412 144.806 211.72C144.274 212.019 143.677 212.168 143.014 212.168ZM143.014 210.894C143.369 210.894 143.695 210.805 143.994 210.628C144.302 210.451 144.549 210.189 144.736 209.844C144.923 209.489 145.016 209.051 145.016 208.528C145.016 208.005 144.923 207.571 144.736 207.226C144.559 206.871 144.316 206.605 144.008 206.428C143.709 206.251 143.383 206.162 143.028 206.162C142.673 206.162 142.342 206.251 142.034 206.428C141.735 206.605 141.493 206.871 141.306 207.226C141.119 207.571 141.026 208.005 141.026 208.528C141.026 209.051 141.119 209.489 141.306 209.844C141.493 210.189 141.735 210.451 142.034 210.628C142.333 210.805 142.659 210.894 143.014 210.894ZM147.867 212V205.056H149.197L149.323 206.372C149.565 205.915 149.901 205.555 150.331 205.294C150.769 205.023 151.297 204.888 151.913 204.888V206.442H151.507C151.096 206.442 150.727 206.512 150.401 206.652C150.083 206.783 149.827 207.011 149.631 207.338C149.444 207.655 149.351 208.099 149.351 208.668V212H147.867ZM155.817 212C155.136 212 154.595 211.837 154.193 211.51C153.792 211.174 153.591 210.581 153.591 209.732V206.302H152.401V205.056H153.591L153.773 203.292H155.075V205.056H157.035V206.302H155.075V209.732C155.075 210.115 155.155 210.381 155.313 210.53C155.481 210.67 155.766 210.74 156.167 210.74H156.965V212H155.817Z" fill="white"/>
</svg>
