<svg width="35" height="36" viewBox="0 0 35 36" fill="none" xmlns="http://www.w3.org/2000/svg">
<path d="M26.6493 16.1071C26.1667 16.601 25.7972 17.1972 25.5669 17.853C25.3367 18.5089 25.2515 19.2083 25.3173 19.9015L25.2944 19.8782C25.3621 20.6942 25.254 21.5153 24.9775 22.2844C24.7011 23.0534 24.263 23.7518 23.6939 24.3308C23.1247 24.9099 22.4383 25.3555 21.6823 25.6368C20.9264 25.918 20.1193 26.028 19.3172 25.9592L19.3402 25.9825C18.3808 25.8916 17.4172 26.104 16.5808 26.5907C15.7444 27.0774 15.0759 27.8147 14.6665 28.7021C14.2571 29.5894 14.1266 30.5837 14.293 31.5492C14.4593 32.5148 14.9143 33.4046 15.5959 34.0975C16.2775 34.7903 17.1526 35.2524 18.1018 35.4207C19.0511 35.5891 20.0282 35.4555 20.9 35.0381C21.7719 34.6208 22.496 33.94 22.9736 33.0887C23.4513 32.2373 23.6592 31.2568 23.569 30.2809L23.5932 30.3042C23.5255 29.4882 23.6336 28.6671 23.9101 27.898C24.1865 27.129 24.6246 26.4306 25.1937 25.8516C25.7629 25.2725 26.4494 24.8269 27.2053 24.5456C27.9612 24.2644 28.7684 24.1544 29.5704 24.2232L29.5462 24.1999C30.3299 24.2716 31.1187 24.1409 31.8395 23.8199C32.5603 23.4988 33.1898 22.9979 33.6697 22.3634C34.1495 21.729 34.4642 20.9816 34.5845 20.1905C34.7048 19.3994 34.6269 18.5902 34.3579 17.8379C34.089 17.0856 33.6377 16.4145 33.046 15.8869C32.4542 15.3592 31.7411 14.9921 30.9728 14.8195C30.2044 14.6469 29.4057 14.6744 28.6506 14.8995C27.8955 15.1246 27.2084 15.5399 26.6531 16.1071H26.6493Z" fill="black"/>
<path d="M17.254 22.9275L17.2298 22.9042C17.9115 22.9741 18.5999 22.889 19.2453 22.655C19.8907 22.4211 20.4769 22.0441 20.9615 21.5514C21.4461 21.0588 21.8171 20.4627 22.0476 19.8063C22.278 19.1499 22.3622 18.4496 22.294 17.756L22.3182 17.7793C22.2505 16.9634 22.3587 16.1422 22.6351 15.3732C22.9115 14.6041 23.3496 13.9057 23.9188 13.3267C24.4879 12.7477 25.1744 12.302 25.9303 12.0207C26.6862 11.7395 27.4934 11.6295 28.2954 11.6984L28.2712 11.675C29.2307 11.7667 30.1946 11.555 31.0314 11.0689C31.8683 10.5827 32.5374 9.84579 32.9474 8.95856C33.3575 8.07133 33.4885 7.07701 33.3227 6.11122C33.1569 5.14544 32.7022 4.25521 32.0208 3.56195C31.3394 2.8687 30.4643 2.40617 29.515 2.23746C28.5657 2.06875 27.5884 2.20207 26.7163 2.61924C25.8442 3.03641 25.1198 3.71711 24.642 4.5685C24.1641 5.4199 23.9561 6.40053 24.0462 7.37664L24.0233 7.35203C24.0912 8.16804 23.9832 8.9893 23.7068 9.75845C23.4305 10.5276 22.9924 11.2261 22.4232 11.8052C21.854 12.3842 21.1674 12.8299 20.4114 13.1111C19.6554 13.3922 18.8481 13.5021 18.0461 13.433L18.069 13.4576C17.3873 13.3877 16.6989 13.4728 16.0535 13.7068C15.4081 13.9408 14.8219 14.3177 14.3373 14.8104C13.8527 15.3031 13.4817 15.8992 13.2513 16.5556C13.0208 17.212 12.9366 17.9123 13.0048 18.6058L12.9819 18.5825C13.0494 19.3984 12.9411 20.2195 12.6645 20.9884C12.388 21.7574 11.9499 22.4557 11.3808 23.0347C10.8117 23.6136 10.1254 24.0593 9.36953 24.3406C8.61371 24.622 7.80666 24.7321 7.00468 24.6635L7.0276 24.6868C6.06814 24.5951 5.10424 24.8068 4.26738 25.293C3.43052 25.7791 2.76143 26.516 2.35138 27.4033C1.94133 28.2905 1.81029 29.2848 1.97612 30.2506C2.14195 31.2164 2.59658 32.1066 3.27801 32.7999C3.95943 33.4931 4.83447 33.9557 5.78378 34.1244C6.73308 34.2931 7.71043 34.1598 8.58252 33.7426C9.45461 33.3254 10.179 32.6447 10.6568 31.7933C11.1347 30.9419 11.3427 29.9613 11.2526 28.9852L11.2768 29.0085C11.2091 28.1926 11.3173 27.3714 11.5937 26.6023C11.8702 25.8333 12.3082 25.1349 12.8774 24.5559C13.4465 23.9769 14.133 23.5312 14.8889 23.2499C15.6448 22.9687 16.452 22.8587 17.254 22.9275Z" fill="black"/>
<path d="M8.72217 20.3274C9.20481 19.8335 9.57432 19.2374 9.80434 18.5815C10.0344 17.9256 10.1192 17.2261 10.0528 16.5329L10.077 16.5563C10.0093 15.7401 10.1175 14.9187 10.3941 14.1494C10.6707 13.3802 11.109 12.6816 11.6784 12.1025C12.2478 11.5235 12.9346 11.0779 13.6909 10.7968C14.4471 10.5157 15.2545 10.406 16.0568 10.4753L16.0326 10.452C16.9917 10.5434 17.9552 10.3316 18.7917 9.84548C19.6282 9.35937 20.2969 8.6226 20.7067 7.73565C21.1165 6.84869 21.2474 5.85474 21.0816 4.88931C20.9158 3.92389 20.4613 3.03399 19.7801 2.34099C19.0989 1.64799 18.2242 1.18561 17.2753 1.01691C16.3263 0.848205 15.3493 0.981394 14.4775 1.39831C13.6057 1.81522 12.8815 2.49557 12.4037 3.34657C11.9259 4.19757 11.7177 5.1778 11.8075 6.15358L11.7846 6.13026C11.8523 6.94622 11.7442 7.76738 11.4677 8.53643C11.1913 9.30547 10.7532 10.0039 10.1841 10.5829C9.61495 11.1619 8.92846 11.6076 8.17253 11.8888C7.41661 12.1701 6.60946 12.2801 5.80743 12.2112L5.83035 12.2345C5.04668 12.163 4.25795 12.294 3.53725 12.6151C2.81655 12.9363 2.18719 13.4374 1.7075 14.0719C1.22781 14.7064 0.913303 15.4538 0.793129 16.2449C0.672954 17.0359 0.750997 17.8451 1.02003 18.5973C1.28906 19.3495 1.74037 20.0205 2.33215 20.548C2.92392 21.0756 3.637 21.4426 4.40533 21.6152C5.17365 21.7877 5.97234 21.7601 6.7274 21.535C7.48246 21.3099 8.16945 20.8945 8.72472 20.3274H8.72217Z" fill="black"/>
</svg>
