<svg width="56" height="38" viewBox="0 0 56 38" fill="none" xmlns="http://www.w3.org/2000/svg">
<g clip-path="url(#clip0_1_22862)">
<path d="M6.60192 10.9941C6.60192 6.93027 4.41352 3.60137 0.269531 0.79126H9.86125C13.2137 3.21228 15.309 6.88703 15.309 10.9941C15.309 15.1012 13.2603 18.776 9.86125 21.197C12.9809 22.4075 14.7502 25.3473 14.7502 29.5408V37.5821H6.08975V29.5408C6.08975 25.5202 4.04103 22.7101 0.316096 21.197C4.41353 18.3436 6.60192 15.0147 6.60192 10.9941ZM25.4129 10.9941C25.4129 6.93027 23.2245 3.60137 19.0805 0.79126H28.6722C32.0246 3.21228 34.1199 6.88703 34.1199 10.9941C34.1199 15.1012 32.0712 18.776 28.6722 21.197C31.7918 22.4075 33.5612 25.3473 33.5612 29.5408V37.5821H24.9007V29.5408C24.9007 25.5202 22.852 22.7101 19.127 21.197C23.2245 18.3436 25.4129 15.0147 25.4129 10.9941ZM44.2238 10.9941C44.2238 6.93027 42.0354 3.60137 37.8914 0.79126H47.4831C50.8356 3.21228 52.9308 6.88703 52.9308 10.9941C52.9308 15.1012 50.8821 18.776 47.4831 21.197C50.6028 22.4075 52.3721 25.3473 52.3721 29.5408V37.5821H43.7116V29.5408C43.7116 25.5202 41.6629 22.7101 37.938 21.197C42.0354 18.3436 44.2238 15.0147 44.2238 10.9941ZM79.3779 30.881H72.7661V7.49228H88.923C96.6989 7.49228 100.517 10.1727 100.517 14.5392C100.517 17.5222 98.6544 19.7703 95.1158 20.8943C98.7476 21.4131 100.377 23.1857 100.377 26.3416V30.881H93.7655V26.601C93.7655 23.9206 92.3221 22.8398 88.504 22.8398H79.3779V30.881ZM88.5971 10.8644H79.3779V19.4244H88.504C91.8099 19.4244 93.9052 17.7384 93.9052 15.058C93.9052 12.4208 91.9961 10.8644 88.5971 10.8644ZM111.971 7.44905H105.406V30.8378H111.971V7.44905ZM132.179 23.2289H124.17V30.8378H117.605V7.44905H132.365C140.141 7.44905 144.238 10.4753 144.238 15.2741C144.192 20.2891 140.048 23.2289 132.179 23.2289ZM132.039 10.8644H124.17V19.8135H131.993C135.392 19.8135 137.487 18.2139 137.487 15.3174C137.44 12.464 135.345 10.8644 132.039 10.8644ZM162.723 23.2289H154.715V30.8378H148.103V7.44905H162.863C170.639 7.44905 174.736 10.4753 174.736 15.2741C174.736 20.2891 170.546 23.2289 162.723 23.2289ZM162.584 10.8644H154.715V19.8135H162.537C165.936 19.8135 168.031 18.2139 168.031 15.3174C167.985 12.464 165.89 10.8644 162.584 10.8644ZM185.213 7.44905V27.3792H201.649V30.8378H178.647V7.44905H185.213ZM212.358 7.44905H205.793V30.8378H212.358V7.44905ZM222.276 15.2741V30.8378H217.946V7.44905H222.881L240.807 23.0127V7.44905H245.138V30.8378H240.202L222.276 15.2741ZM266.603 10.2159C260.363 10.2159 256.266 13.8907 256.266 19.3812C256.266 24.7853 260.177 28.1574 266.23 28.1574H266.649C268.698 28.1574 271.026 27.7683 273.168 27.1198V20.8079H262.552V17.4357H279.64V28.4168C276.101 30.1028 270.747 31.443 266.416 31.443H265.858C255.893 31.443 249.421 26.5578 249.421 19.4677C249.421 12.464 256.033 6.8438 266.23 6.8438H266.789C271.026 6.8438 275.868 8.09754 279.454 9.99977L277.591 12.8531C274.378 11.2103 270.514 10.1727 267.115 10.1727H266.603V10.2159Z" fill="#242136"/>
</g>
<defs>
<clipPath id="clip0_1_22862">
<rect width="55.2767" height="36.8511" fill="white" transform="translate(0.269531 0.793213)"/>
</clipPath>
</defs>
</svg>
