<svg width="94" height="22" viewBox="0 0 94 22" fill="none" xmlns="http://www.w3.org/2000/svg">
<path d="M93.9705 21.7644C91.5891 22.0616 89.867 20.6857 89.7989 18.3664C89.722 15.7562 89.7863 13.1409 89.7321 10.5295C89.7119 9.54941 89.659 8.53519 89.3955 7.60063C88.9253 5.93891 87.2158 4.90698 85.3702 4.98918C83.6128 5.06759 82.042 6.30945 81.6991 8.00278C81.534 8.81973 81.4999 9.67335 81.4949 10.5105C81.4735 14.0502 81.4747 17.5899 81.4949 21.1308C81.4987 21.6746 81.3663 21.8555 80.7927 21.8378C78.6433 21.772 77.225 20.4151 77.1998 18.2753C77.1696 15.7056 77.2175 13.1334 77.1494 10.5636C77.1217 9.50389 77.0372 8.39861 76.7069 7.40461C76.1472 5.7214 74.207 4.73752 72.4257 5.02712C70.4943 5.34075 69.0534 6.79886 68.9941 8.66671C68.9059 11.4451 68.9109 14.2273 68.8731 17.0069C68.8656 17.5545 68.8605 18.1033 68.8214 18.6484C68.6601 20.9361 66.7829 21.9111 64.8756 21.8289C64.4331 21.8099 64.544 21.4698 64.5427 21.2194C64.5364 19.0493 64.5377 16.8792 64.5377 14.7078C64.5377 10.2614 64.5377 5.81625 64.5377 1.36983C64.5377 0.611055 64.6663 0.46183 65.3773 0.707167C66.2976 1.02459 67.1712 1.47859 68.0776 1.839C68.2642 1.91235 68.5529 1.90729 68.7231 1.81118C70.009 1.08276 71.3743 0.647729 72.8543 0.635083C75.1903 0.614849 77.1948 1.45077 78.8967 3.04166C79.019 3.15548 79.1387 3.27309 79.2988 3.42611C79.6001 3.15674 79.8813 2.88232 80.1876 2.63698C82.6749 0.642671 85.4509 0.050827 88.4538 1.15737C91.4882 2.27656 93.2935 4.53139 93.9515 7.70433C93.9894 7.8877 93.9982 8.08119 93.9982 8.26962C94.0007 12.5896 94.0007 16.9083 93.9982 21.2282C93.9982 21.3951 93.9805 21.5621 93.9692 21.7619L93.9705 21.7644Z" fill="#242136"/>
<path d="M13.9199 4.98581C11.4011 4.98581 8.88226 4.98961 6.36345 4.98328C5.50242 4.98075 4.6376 4.99593 3.78161 4.92385C1.66496 4.74933 0.45976 3.22293 0.551789 0.960521C0.556832 0.841646 0.929988 0.643101 1.13422 0.640571C3.38198 0.617808 5.62975 0.624131 7.87751 0.62666C10.9031 0.630454 13.9287 0.61275 16.953 0.650688C19.3231 0.681039 20.7754 2.32631 20.5585 4.68483C20.5384 4.90108 20.3619 5.1363 20.1967 5.30197C16.3265 9.197 12.4487 13.0832 8.57214 16.9719C8.45616 17.0882 8.35026 17.2147 8.14855 17.436C8.46372 17.4537 8.67677 17.4765 8.89109 17.4765C11.6015 17.479 14.3119 17.4676 17.0211 17.4879C17.7107 17.4929 18.4141 17.5258 19.0861 17.6674C20.7048 18.0102 21.9478 19.9336 21.6099 21.5359C21.5822 21.6687 21.2443 21.8179 21.0489 21.8205C18.8642 21.842 16.6795 21.8382 14.4947 21.8369C11.3859 21.8344 8.27588 21.8407 5.16708 21.8167C3.02269 21.8002 1.4809 20.3586 1.58301 17.7888C1.59184 17.5764 1.78346 17.3386 1.94987 17.1717C5.80498 13.2906 9.66765 9.41705 13.5329 5.54604C13.6778 5.40061 13.8568 5.28679 14.0195 5.15907L13.9211 4.98455L13.9199 4.98581Z" fill="#242136"/>
<path d="M53.0594 21.8319C47.3411 21.8635 42.5266 17.0731 42.5001 11.3254C42.4724 5.44618 47.1961 0.664639 53.0657 0.631759C58.7664 0.598879 63.6225 5.42847 63.6351 11.1446C63.649 17.0326 58.9316 21.799 53.0594 21.8319ZM46.8481 11.3469C46.9528 14.9308 49.7426 17.5676 53.3242 17.4677C56.6586 17.3741 59.3753 14.4958 59.2972 11.1357C59.214 7.53786 56.3548 4.87204 52.7026 4.98712C49.4123 5.09082 46.7498 7.98301 46.8481 11.3469Z" fill="#242136"/>
<path d="M20.477 11.2435C20.4278 5.62354 24.9599 0.749691 30.8043 0.645992C36.6841 0.541029 41.5225 5.296 41.578 11.0639C41.6335 16.9255 37.0156 21.7108 31.267 21.8145C25.2574 21.922 20.5223 17.2214 20.4782 11.2435H20.477ZM30.9871 4.98744C27.5707 4.99123 24.801 7.74811 24.7985 11.1474C24.796 14.7061 27.5153 17.4718 31.0186 17.4718C34.5057 17.4718 37.2728 14.6694 37.2615 11.1487C37.2514 7.74431 34.4388 4.98364 30.9871 4.98744Z" fill="#242136"/>
</svg>
