<svg width="407" height="446" viewBox="0 0 407 446" fill="none" xmlns="http://www.w3.org/2000/svg">
<rect opacity="0.8" x="0.5" y="0.5" width="406" height="433" rx="19.5" fill="url(#paint0_linear_1_6772)" stroke="url(#paint1_linear_1_6772)"/>
<rect x="29" y="35" width="73" height="32" rx="16" fill="#141414"/>
<path d="M47.8894 56L45.1654 47.36H46.6534L48.9334 54.596L51.2434 47.36H52.7314L50.0074 56H47.8894ZM53.1491 56L55.8731 47.36H57.9911L60.7151 56H59.2271L56.7551 48.248H57.0791L54.6371 56H53.1491ZM54.6671 54.128V52.778H59.2031V54.128H54.6671ZM62.8799 56V47.36H64.3259V54.644H68.1419V56H62.8799ZM73.5984 56.18C72.9104 56.18 72.3044 56.04 71.7804 55.76C71.2604 55.48 70.8524 55.086 70.5564 54.578C70.2644 54.07 70.1184 53.474 70.1184 52.79V47.372L71.5824 47.36V52.754C71.5824 53.078 71.6364 53.368 71.7444 53.624C71.8564 53.88 72.0064 54.098 72.1944 54.278C72.3824 54.454 72.5984 54.588 72.8424 54.68C73.0864 54.772 73.3384 54.818 73.5984 54.818C73.8664 54.818 74.1204 54.772 74.3604 54.68C74.6044 54.584 74.8204 54.448 75.0084 54.272C75.1964 54.092 75.3444 53.874 75.4524 53.618C75.5604 53.362 75.6144 53.074 75.6144 52.754V47.36H77.0784V52.79C77.0784 53.474 76.9304 54.07 76.6344 54.578C76.3424 55.086 75.9344 55.48 75.4104 55.76C74.8904 56.04 74.2864 56.18 73.5984 56.18ZM79.7151 56V47.36H85.2951V48.716H81.1611V50.846H84.5751V52.202H81.1611V54.644H85.2951V56H79.7151Z" fill="white"/>
<path d="M173.571 132.689C172.932 129.216 175.254 125.875 178.756 125.406C201.292 122.389 224.252 123.898 246.193 129.863C268.062 135.81 288.402 146.044 305.957 159.904C308.769 162.124 309.007 166.257 306.583 168.901L279.209 198.745C276.897 201.266 273.017 201.486 270.304 199.412C258.818 190.631 245.629 184.119 231.49 180.275C217.368 176.435 202.618 175.342 188.091 177.037C184.644 177.439 181.39 175.189 180.762 171.777L173.571 132.689Z" fill="#EEF8B9"/>
<path d="M315.213 176.245C317.701 173.899 321.607 173.936 323.941 176.428C337.082 190.466 347.547 206.664 354.83 224.273C362.073 241.785 366.042 260.385 366.572 279.207C366.67 282.706 363.782 285.512 360.282 285.472L318.776 284.993C315.276 284.953 312.495 282.08 312.326 278.584C311.751 266.641 309.115 254.862 304.513 243.735C299.926 232.643 293.461 222.385 285.397 213.374C283.007 210.704 283.046 206.583 285.656 204.121L315.213 176.245Z" fill="#98A841"/>
<path d="M84.4865 180.022C81.806 177.645 81.6235 173.508 84.1967 171.008C103.127 152.618 126.407 138.953 152.022 131.2C155.332 130.198 158.765 132.17 159.7 135.496L170.474 173.823C171.433 177.235 169.399 180.757 166.025 181.852C150.213 186.984 135.795 195.492 123.844 206.742C121.354 209.086 117.473 209.271 114.918 207.006L84.4865 180.022Z" fill="#98A841"/>
<path d="M42.405 281.805C38.9044 281.765 36.0898 278.893 36.2787 275.397C37.9823 243.866 49.3193 213.516 68.8566 188.195C70.9467 185.486 74.8362 185.075 77.5315 187.175L109.706 212.243C112.53 214.443 112.951 218.539 110.825 221.426C99.0058 237.482 91.9808 256.374 90.524 276.025C90.2652 279.516 87.4108 282.325 83.9102 282.284L42.405 281.805Z" fill="#D3E763"/>
<path d="M154.784 262.123V227.835H156.98V262.123H154.784ZM161.119 238.804C160.994 237.635 160.467 236.724 159.538 236.072C158.619 235.42 157.422 235.094 155.949 235.094C154.913 235.094 154.025 235.251 153.284 235.563C152.542 235.876 151.975 236.3 151.583 236.836C151.19 237.371 150.989 237.983 150.98 238.67C150.98 239.242 151.109 239.738 151.368 240.157C151.636 240.577 151.998 240.934 152.453 241.229C152.908 241.514 153.413 241.756 153.967 241.952C154.52 242.148 155.078 242.314 155.641 242.448L158.212 243.09C159.248 243.332 160.244 243.657 161.199 244.068C162.164 244.479 163.025 244.997 163.784 245.622C164.552 246.247 165.159 247.001 165.606 247.885C166.052 248.769 166.275 249.805 166.275 250.993C166.275 252.6 165.865 254.015 165.043 255.239C164.222 256.453 163.034 257.404 161.48 258.091C159.936 258.77 158.065 259.109 155.869 259.109C153.734 259.109 151.882 258.779 150.31 258.118C148.748 257.457 147.524 256.493 146.64 255.225C145.765 253.957 145.292 252.412 145.22 250.591H150.109C150.181 251.546 150.475 252.341 150.993 252.975C151.511 253.609 152.185 254.082 153.016 254.395C153.855 254.707 154.793 254.864 155.828 254.864C156.909 254.864 157.855 254.703 158.668 254.381C159.489 254.051 160.132 253.596 160.597 253.015C161.061 252.426 161.297 251.738 161.306 250.953C161.297 250.238 161.088 249.649 160.677 249.185C160.266 248.711 159.69 248.318 158.949 248.006C158.217 247.684 157.36 247.399 156.377 247.149L153.257 246.345C150.998 245.765 149.212 244.885 147.899 243.707C146.596 242.519 145.944 240.943 145.944 238.979C145.944 237.362 146.381 235.947 147.256 234.733C148.14 233.518 149.341 232.576 150.859 231.907C152.377 231.228 154.096 230.889 156.016 230.889C157.962 230.889 159.668 231.228 161.132 231.907C162.606 232.576 163.762 233.509 164.601 234.706C165.441 235.894 165.874 237.26 165.9 238.804H161.119ZM179.22 259.069C177.434 259.069 175.835 258.734 174.425 258.065C173.014 257.386 171.893 256.457 171.063 255.279C170.241 254.1 169.804 252.752 169.75 251.234H174.572C174.661 252.359 175.148 253.279 176.032 253.993C176.916 254.698 177.978 255.051 179.22 255.051C180.193 255.051 181.059 254.828 181.818 254.381C182.577 253.935 183.175 253.314 183.613 252.52C184.05 251.725 184.265 250.819 184.256 249.801C184.265 248.765 184.046 247.845 183.599 247.042C183.153 246.238 182.541 245.608 181.764 245.153C180.988 244.689 180.095 244.457 179.086 244.457C178.264 244.448 177.456 244.599 176.661 244.912C175.867 245.225 175.237 245.635 174.773 246.144L170.286 245.408L171.719 231.264H187.631V235.416H175.831L175.041 242.689H175.201C175.71 242.09 176.429 241.595 177.358 241.202C178.286 240.8 179.304 240.599 180.412 240.599C182.072 240.599 183.555 240.992 184.858 241.778C186.162 242.555 187.189 243.626 187.939 244.992C188.689 246.359 189.064 247.921 189.064 249.68C189.064 251.493 188.644 253.109 187.805 254.529C186.975 255.94 185.818 257.051 184.336 257.864C182.863 258.667 181.157 259.069 179.22 259.069ZM192.301 253.605V249.653L203.94 231.264H207.235V236.889H205.226L197.391 249.305V249.519H213.637V253.605H192.301ZM205.387 258.694V252.399L205.44 250.631V231.264H210.128V258.694H205.387ZM218.167 258.694L229.833 235.603V235.416H216.292V231.264H234.976V235.51L223.323 258.694H218.167ZM248 259.069C246.688 259.06 245.406 258.833 244.156 258.386C242.906 257.931 241.781 257.194 240.781 256.176C239.781 255.149 238.986 253.788 238.397 252.091C237.808 250.386 237.518 248.274 237.526 245.756C237.526 243.407 237.776 241.314 238.277 239.474C238.777 237.635 239.495 236.081 240.433 234.813C241.37 233.536 242.5 232.563 243.822 231.893C245.152 231.224 246.639 230.889 248.282 230.889C250.005 230.889 251.532 231.228 252.862 231.907C254.202 232.585 255.282 233.514 256.104 234.693C256.925 235.862 257.434 237.184 257.63 238.657H252.742C252.492 237.603 251.978 236.764 251.201 236.139C250.434 235.505 249.46 235.188 248.282 235.188C246.38 235.188 244.915 236.014 243.888 237.666C242.871 239.318 242.357 241.586 242.348 244.47H242.536C242.973 243.684 243.54 243.01 244.237 242.448C244.933 241.885 245.719 241.452 246.594 241.148C247.478 240.836 248.411 240.68 249.393 240.68C251.001 240.68 252.443 241.064 253.72 241.831C255.005 242.599 256.023 243.657 256.773 245.006C257.523 246.345 257.894 247.881 257.885 249.613C257.894 251.417 257.483 253.038 256.653 254.475C255.822 255.904 254.666 257.029 253.184 257.85C251.702 258.672 249.974 259.078 248 259.069ZM247.974 255.051C248.947 255.051 249.817 254.814 250.585 254.341C251.353 253.868 251.96 253.23 252.407 252.426C252.853 251.622 253.072 250.72 253.063 249.72C253.072 248.738 252.858 247.85 252.42 247.055C251.992 246.26 251.398 245.631 250.639 245.166C249.88 244.702 249.014 244.47 248.041 244.47C247.317 244.47 246.643 244.608 246.018 244.885C245.393 245.162 244.848 245.546 244.384 246.037C243.92 246.519 243.554 247.082 243.286 247.725C243.027 248.359 242.893 249.037 242.884 249.761C242.893 250.716 243.116 251.595 243.554 252.399C243.991 253.203 244.594 253.846 245.362 254.328C246.13 254.81 247 255.051 247.974 255.051Z" fill="white"/>
<path d="M143.398 287.742C143.338 287.23 143.092 286.832 142.66 286.549C142.228 286.265 141.699 286.124 141.072 286.124C140.613 286.124 140.212 286.198 139.868 286.346C139.528 286.495 139.261 286.699 139.069 286.958C138.88 287.218 138.786 287.513 138.786 287.843C138.786 288.12 138.852 288.358 138.983 288.557C139.118 288.752 139.29 288.916 139.499 289.047C139.708 289.175 139.927 289.281 140.157 289.366C140.386 289.447 140.597 289.512 140.789 289.563L141.841 289.846C142.11 289.917 142.41 290.015 142.741 290.14C143.075 290.264 143.393 290.435 143.697 290.65C144.004 290.863 144.256 291.136 144.455 291.47C144.654 291.803 144.754 292.213 144.754 292.699C144.754 293.258 144.607 293.764 144.314 294.216C144.024 294.668 143.599 295.027 143.039 295.293C142.483 295.56 141.807 295.693 141.011 295.693C140.269 295.693 139.627 295.573 139.084 295.334C138.545 295.094 138.12 294.76 137.81 294.332C137.503 293.904 137.329 293.407 137.289 292.84H138.584C138.617 293.231 138.749 293.555 138.978 293.811C139.211 294.064 139.504 294.253 139.858 294.378C140.216 294.499 140.6 294.56 141.011 294.56C141.49 294.56 141.92 294.482 142.301 294.327C142.682 294.169 142.984 293.95 143.206 293.67C143.429 293.386 143.54 293.056 143.54 292.678C143.54 292.334 143.444 292.055 143.252 291.839C143.06 291.623 142.807 291.448 142.493 291.313C142.18 291.178 141.841 291.06 141.477 290.959L140.202 290.595C139.393 290.362 138.752 290.03 138.28 289.598C137.808 289.167 137.572 288.602 137.572 287.904C137.572 287.324 137.729 286.818 138.042 286.387C138.359 285.952 138.784 285.615 139.317 285.375C139.853 285.133 140.452 285.011 141.112 285.011C141.78 285.011 142.373 285.131 142.893 285.37C143.412 285.606 143.823 285.93 144.127 286.341C144.434 286.753 144.595 287.22 144.612 287.742H143.398ZM146.369 298.424V287.742H147.522V288.976H147.664C147.752 288.841 147.873 288.669 148.028 288.46C148.187 288.248 148.413 288.059 148.706 287.894C149.003 287.725 149.404 287.641 149.91 287.641C150.564 287.641 151.14 287.805 151.639 288.132C152.138 288.459 152.528 288.922 152.808 289.522C153.087 290.123 153.227 290.831 153.227 291.647C153.227 292.469 153.087 293.182 152.808 293.786C152.528 294.386 152.14 294.851 151.644 295.182C151.149 295.509 150.577 295.672 149.93 295.672C149.431 295.672 149.031 295.59 148.731 295.425C148.431 295.256 148.2 295.066 148.038 294.853C147.876 294.637 147.752 294.459 147.664 294.317H147.563V298.424H146.369ZM147.543 291.626C147.543 292.213 147.629 292.731 147.801 293.179C147.973 293.624 148.224 293.973 148.554 294.226C148.885 294.476 149.289 294.6 149.768 294.6C150.267 294.6 150.683 294.469 151.017 294.206C151.354 293.939 151.607 293.582 151.776 293.134C151.948 292.682 152.034 292.179 152.034 291.626C152.034 291.08 151.949 290.588 151.781 290.15C151.616 289.708 151.365 289.359 151.027 289.103C150.694 288.843 150.274 288.713 149.768 288.713C149.282 288.713 148.875 288.836 148.544 289.082C148.214 289.325 147.964 289.666 147.796 290.104C147.627 290.539 147.543 291.047 147.543 291.626ZM158.02 295.672C157.272 295.672 156.626 295.507 156.083 295.177C155.544 294.843 155.127 294.378 154.834 293.781C154.544 293.181 154.399 292.483 154.399 291.687C154.399 290.891 154.544 290.19 154.834 289.583C155.127 288.973 155.535 288.498 156.058 288.157C156.584 287.813 157.198 287.641 157.899 287.641C158.304 287.641 158.703 287.709 159.098 287.843C159.492 287.978 159.851 288.197 160.175 288.501C160.498 288.801 160.756 289.199 160.949 289.694C161.141 290.19 161.237 290.8 161.237 291.525V292.031H155.249V290.999H160.023C160.023 290.561 159.935 290.17 159.76 289.826C159.588 289.482 159.342 289.211 159.022 289.012C158.705 288.813 158.33 288.713 157.899 288.713C157.424 288.713 157.012 288.831 156.665 289.067C156.321 289.3 156.056 289.603 155.871 289.978C155.685 290.352 155.593 290.753 155.593 291.181V291.869C155.593 292.456 155.694 292.953 155.896 293.361C156.102 293.766 156.387 294.074 156.751 294.287C157.115 294.496 157.538 294.6 158.02 294.6C158.334 294.6 158.617 294.556 158.87 294.469C159.126 294.378 159.347 294.243 159.532 294.064C159.718 293.882 159.861 293.656 159.962 293.386L161.116 293.71C160.994 294.101 160.79 294.445 160.504 294.742C160.217 295.035 159.863 295.264 159.441 295.43C159.02 295.592 158.546 295.672 158.02 295.672ZM163.961 290.837V295.511H162.768V287.742H163.921V288.956H164.022C164.204 288.562 164.481 288.245 164.851 288.005C165.222 287.762 165.701 287.641 166.288 287.641C166.814 287.641 167.274 287.749 167.668 287.965C168.063 288.177 168.37 288.501 168.589 288.936C168.808 289.367 168.918 289.914 168.918 290.574V295.511H167.724V290.655C167.724 290.045 167.566 289.57 167.249 289.229C166.932 288.885 166.497 288.713 165.944 288.713C165.563 288.713 165.222 288.796 164.922 288.961C164.626 289.126 164.391 289.367 164.219 289.684C164.047 290.001 163.961 290.386 163.961 290.837ZM173.747 295.672C173.1 295.672 172.528 295.509 172.033 295.182C171.537 294.851 171.149 294.386 170.87 293.786C170.59 293.182 170.45 292.469 170.45 291.647C170.45 290.831 170.59 290.123 170.87 289.522C171.149 288.922 171.539 288.459 172.038 288.132C172.537 287.805 173.113 287.641 173.767 287.641C174.273 287.641 174.673 287.725 174.966 287.894C175.263 288.059 175.489 288.248 175.644 288.46C175.802 288.669 175.925 288.841 176.013 288.976H176.114V285.153H177.308V295.511H176.155V294.317H176.013C175.925 294.459 175.801 294.637 175.639 294.853C175.477 295.066 175.246 295.256 174.946 295.425C174.646 295.59 174.246 295.672 173.747 295.672ZM173.909 294.6C174.388 294.6 174.792 294.476 175.123 294.226C175.453 293.973 175.705 293.624 175.876 293.179C176.048 292.731 176.134 292.213 176.134 291.626C176.134 291.047 176.05 290.539 175.882 290.104C175.713 289.666 175.463 289.325 175.133 289.082C174.803 288.836 174.395 288.713 173.909 288.713C173.403 288.713 172.982 288.843 172.645 289.103C172.311 289.359 172.06 289.708 171.891 290.15C171.726 290.588 171.643 291.08 171.643 291.626C171.643 292.179 171.728 292.682 171.896 293.134C172.068 293.582 172.321 293.939 172.655 294.206C172.992 294.469 173.41 294.6 173.909 294.6ZM179.375 295.511V287.742H180.568V295.511H179.375ZM179.982 286.448C179.749 286.448 179.548 286.368 179.38 286.21C179.215 286.051 179.132 285.861 179.132 285.638C179.132 285.416 179.215 285.225 179.38 285.067C179.548 284.908 179.749 284.829 179.982 284.829C180.214 284.829 180.413 284.908 180.578 285.067C180.747 285.225 180.831 285.416 180.831 285.638C180.831 285.861 180.747 286.051 180.578 286.21C180.413 286.368 180.214 286.448 179.982 286.448ZM183.663 290.837V295.511H182.47V287.742H183.623V288.956H183.724C183.906 288.562 184.182 288.245 184.553 288.005C184.924 287.762 185.403 287.641 185.99 287.641C186.516 287.641 186.976 287.749 187.37 287.965C187.765 288.177 188.072 288.501 188.291 288.936C188.51 289.367 188.619 289.914 188.619 290.574V295.511H187.426V290.655C187.426 290.045 187.267 289.57 186.951 289.229C186.634 288.885 186.199 288.713 185.646 288.713C185.265 288.713 184.924 288.796 184.624 288.961C184.327 289.126 184.093 289.367 183.921 289.684C183.749 290.001 183.663 290.386 183.663 290.837ZM193.651 298.586C193.075 298.586 192.579 298.511 192.164 298.363C191.75 298.218 191.404 298.026 191.128 297.787C190.855 297.55 190.637 297.298 190.475 297.028L191.426 296.36C191.534 296.502 191.671 296.664 191.836 296.846C192.001 297.031 192.227 297.191 192.513 297.326C192.803 297.465 193.183 297.534 193.651 297.534C194.279 297.534 194.796 297.382 195.204 297.078C195.612 296.775 195.816 296.3 195.816 295.652V294.074H195.715C195.627 294.216 195.502 294.391 195.341 294.6C195.182 294.806 194.953 294.99 194.653 295.152C194.356 295.31 193.955 295.389 193.449 295.389C192.822 295.389 192.259 295.241 191.76 294.944C191.264 294.647 190.871 294.216 190.581 293.649C190.295 293.083 190.152 292.395 190.152 291.586C190.152 290.79 190.292 290.097 190.571 289.507C190.851 288.914 191.241 288.455 191.74 288.132C192.239 287.805 192.815 287.641 193.469 287.641C193.975 287.641 194.376 287.725 194.673 287.894C194.973 288.059 195.202 288.248 195.361 288.46C195.523 288.669 195.647 288.841 195.735 288.976H195.856V287.742H197.01V295.733C197.01 296.401 196.858 296.944 196.554 297.362C196.254 297.783 195.85 298.092 195.341 298.287C194.835 298.486 194.272 298.586 193.651 298.586ZM193.611 294.317C194.09 294.317 194.494 294.207 194.825 293.988C195.155 293.769 195.406 293.454 195.578 293.043C195.75 292.631 195.836 292.139 195.836 291.566C195.836 291.006 195.752 290.512 195.583 290.084C195.415 289.656 195.165 289.32 194.835 289.077C194.504 288.835 194.096 288.713 193.611 288.713C193.105 288.713 192.684 288.841 192.347 289.098C192.013 289.354 191.762 289.698 191.593 290.129C191.428 290.561 191.345 291.04 191.345 291.566C191.345 292.105 191.429 292.582 191.598 292.997C191.77 293.408 192.023 293.732 192.357 293.968C192.694 294.201 193.112 294.317 193.611 294.317ZM202.226 286.265V285.153H209.994V286.265H206.737V295.511H205.483V286.265H202.226ZM212.677 290.837V295.511H211.483V285.153H212.677V288.956H212.778C212.96 288.555 213.233 288.236 213.597 288C213.965 287.761 214.454 287.641 215.064 287.641C215.593 287.641 216.057 287.747 216.455 287.96C216.853 288.169 217.161 288.491 217.38 288.926C217.603 289.357 217.714 289.907 217.714 290.574V295.511H216.521V290.655C216.521 290.038 216.36 289.561 216.04 289.224C215.723 288.884 215.283 288.713 214.72 288.713C214.329 288.713 213.978 288.796 213.668 288.961C213.361 289.126 213.118 289.367 212.94 289.684C212.764 290.001 212.677 290.386 212.677 290.837ZM219.613 295.511V287.742H220.806V295.511H219.613ZM220.22 286.448C219.987 286.448 219.786 286.368 219.618 286.21C219.453 286.051 219.37 285.861 219.37 285.638C219.37 285.416 219.453 285.225 219.618 285.067C219.786 284.908 219.987 284.829 220.22 284.829C220.452 284.829 220.651 284.908 220.817 285.067C220.985 285.225 221.069 285.416 221.069 285.638C221.069 285.861 220.985 286.051 220.817 286.21C220.651 286.368 220.452 286.448 220.22 286.448ZM228.21 289.482L227.138 289.785C227.071 289.607 226.971 289.433 226.84 289.265C226.712 289.093 226.536 288.951 226.314 288.84C226.091 288.728 225.806 288.673 225.459 288.673C224.984 288.673 224.587 288.782 224.27 289.002C223.957 289.217 223.8 289.492 223.8 289.826C223.8 290.123 223.908 290.357 224.124 290.529C224.34 290.701 224.677 290.844 225.135 290.959L226.288 291.242C226.983 291.411 227.501 291.669 227.841 292.016C228.182 292.36 228.352 292.803 228.352 293.346C228.352 293.791 228.224 294.189 227.968 294.54C227.715 294.89 227.361 295.167 226.905 295.369C226.45 295.571 225.921 295.672 225.317 295.672C224.525 295.672 223.869 295.501 223.35 295.157C222.831 294.813 222.502 294.31 222.364 293.649L223.497 293.366C223.605 293.784 223.809 294.098 224.109 294.307C224.412 294.516 224.808 294.62 225.297 294.62C225.853 294.62 226.295 294.502 226.622 294.266C226.953 294.027 227.118 293.74 227.118 293.407C227.118 293.137 227.023 292.911 226.835 292.729C226.646 292.544 226.356 292.405 225.965 292.314L224.67 292.011C223.959 291.842 223.436 291.581 223.102 291.227C222.772 290.869 222.607 290.423 222.607 289.887C222.607 289.448 222.73 289.061 222.976 288.723C223.225 288.386 223.564 288.122 223.992 287.929C224.424 287.737 224.913 287.641 225.459 287.641C226.228 287.641 226.831 287.81 227.27 288.147C227.711 288.484 228.025 288.929 228.21 289.482ZM235.628 295.511L232.796 285.153H234.07L236.235 293.589H236.336L238.541 285.153H239.957L242.162 293.589H242.263L244.428 285.153H245.702L242.87 295.511H241.575L239.289 287.257H239.208L236.922 295.511H235.628ZM249.352 295.672C248.604 295.672 247.958 295.507 247.415 295.177C246.876 294.843 246.459 294.378 246.166 293.781C245.876 293.181 245.731 292.483 245.731 291.687C245.731 290.891 245.876 290.19 246.166 289.583C246.459 288.973 246.867 288.498 247.39 288.157C247.916 287.813 248.53 287.641 249.231 287.641C249.635 287.641 250.035 287.709 250.43 287.843C250.824 287.978 251.183 288.197 251.507 288.501C251.83 288.801 252.088 289.199 252.281 289.694C252.473 290.19 252.569 290.8 252.569 291.525V292.031H246.581V290.999H251.355C251.355 290.561 251.267 290.17 251.092 289.826C250.92 289.482 250.674 289.211 250.354 289.012C250.037 288.813 249.662 288.713 249.231 288.713C248.755 288.713 248.344 288.831 247.997 289.067C247.653 289.3 247.388 289.603 247.203 289.978C247.017 290.352 246.925 290.753 246.925 291.181V291.869C246.925 292.456 247.026 292.953 247.228 293.361C247.434 293.766 247.719 294.074 248.083 294.287C248.447 294.496 248.87 294.6 249.352 294.6C249.666 294.6 249.949 294.556 250.202 294.469C250.458 294.378 250.679 294.243 250.864 294.064C251.05 293.882 251.193 293.656 251.294 293.386L252.447 293.71C252.326 294.101 252.122 294.445 251.836 294.742C251.549 295.035 251.195 295.264 250.773 295.43C250.352 295.592 249.878 295.672 249.352 295.672ZM257.357 295.672C256.608 295.672 255.963 295.507 255.42 295.177C254.88 294.843 254.464 294.378 254.17 293.781C253.881 293.181 253.736 292.483 253.736 291.687C253.736 290.891 253.881 290.19 254.17 289.583C254.464 288.973 254.872 288.498 255.394 288.157C255.92 287.813 256.534 287.641 257.235 287.641C257.64 287.641 258.039 287.709 258.434 287.843C258.828 287.978 259.188 288.197 259.511 288.501C259.835 288.801 260.093 289.199 260.285 289.694C260.477 290.19 260.573 290.8 260.573 291.525V292.031H254.585V290.999H259.36C259.36 290.561 259.272 290.17 259.097 289.826C258.925 289.482 258.678 289.211 258.358 289.012C258.041 288.813 257.667 288.713 257.235 288.713C256.76 288.713 256.349 288.831 256.001 289.067C255.657 289.3 255.393 289.603 255.207 289.978C255.022 290.352 254.929 290.753 254.929 291.181V291.869C254.929 292.456 255.03 292.953 255.233 293.361C255.438 293.766 255.723 294.074 256.087 294.287C256.451 294.496 256.875 294.6 257.357 294.6C257.67 294.6 257.954 294.556 258.206 294.469C258.463 294.378 258.683 294.243 258.869 294.064C259.054 293.882 259.198 293.656 259.299 293.386L260.452 293.71C260.331 294.101 260.127 294.445 259.84 294.742C259.553 295.035 259.199 295.264 258.778 295.43C258.356 295.592 257.883 295.672 257.357 295.672ZM263.217 292.678L263.197 291.202H263.439L266.838 287.742H268.315L264.694 291.404H264.592L263.217 292.678ZM262.104 295.511V285.153H263.298V295.511H262.104ZM267.04 295.511L264.006 291.667L264.855 290.837L268.558 295.511H267.04Z" fill="#A1A1A1"/>
<path d="M33.9631 375L30.3835 361.909H31.9943L34.7301 372.571H34.858L37.6449 361.909H39.4347L42.2216 372.571H42.3494L45.0852 361.909H46.696L43.1165 375H41.4801L38.5909 364.568H38.4886L35.5994 375H33.9631ZM51.5412 375.205C50.6548 375.205 49.8771 374.994 49.2081 374.572C48.5433 374.15 48.0234 373.56 47.6484 372.801C47.2777 372.043 47.0923 371.156 47.0923 370.142C47.0923 369.119 47.2777 368.227 47.6484 367.464C48.0234 366.701 48.5433 366.109 49.2081 365.687C49.8771 365.265 50.6548 365.054 51.5412 365.054C52.4276 365.054 53.2031 365.265 53.8679 365.687C54.5369 366.109 55.0568 366.701 55.4276 367.464C55.8026 368.227 55.9901 369.119 55.9901 370.142C55.9901 371.156 55.8026 372.043 55.4276 372.801C55.0568 373.56 54.5369 374.15 53.8679 374.572C53.2031 374.994 52.4276 375.205 51.5412 375.205ZM51.5412 373.849C52.2145 373.849 52.7685 373.677 53.2031 373.332C53.6378 372.987 53.9595 372.533 54.1683 371.97C54.3771 371.408 54.4815 370.798 54.4815 370.142C54.4815 369.486 54.3771 368.874 54.1683 368.308C53.9595 367.741 53.6378 367.283 53.2031 366.933C52.7685 366.584 52.2145 366.409 51.5412 366.409C50.8679 366.409 50.3139 366.584 49.8793 366.933C49.4446 367.283 49.1229 367.741 48.9141 368.308C48.7053 368.874 48.6009 369.486 48.6009 370.142C48.6009 370.798 48.7053 371.408 48.9141 371.97C49.1229 372.533 49.4446 372.987 49.8793 373.332C50.3139 373.677 50.8679 373.849 51.5412 373.849ZM58.2928 375V365.182H59.7502V366.665H59.8525C60.0314 366.179 60.3553 365.785 60.824 365.482C61.2928 365.18 61.8212 365.028 62.4093 365.028C62.5201 365.028 62.6586 365.031 62.8248 365.035C62.9909 365.039 63.1167 365.045 63.2019 365.054V366.588C63.1507 366.575 63.0336 366.556 62.8503 366.531C62.6713 366.501 62.4817 366.486 62.2814 366.486C61.8042 366.486 61.378 366.586 61.003 366.786C60.6323 366.982 60.3382 367.255 60.1209 367.604C59.9078 367.95 59.8013 368.344 59.8013 368.787V375H58.2928ZM66.3963 371.42L66.3707 369.554H66.6776L70.973 365.182H72.8395L68.2628 369.81H68.1349L66.3963 371.42ZM64.9901 375V361.909H66.4986V375H64.9901ZM71.2287 375L67.3935 370.142L68.4673 369.094L73.1463 375H71.2287ZM84.2157 365.182V366.46H78.9231V365.182H84.2157ZM80.5083 375V363.827C80.5083 363.264 80.6404 362.795 80.9047 362.42C81.1689 362.045 81.5119 361.764 81.9338 361.577C82.3556 361.389 82.801 361.295 83.2697 361.295C83.6404 361.295 83.943 361.325 84.1774 361.385C84.4118 361.445 84.5865 361.5 84.7015 361.551L84.2669 362.855C84.1902 362.83 84.0836 362.798 83.9473 362.759C83.8152 362.721 83.6404 362.702 83.4231 362.702C82.9245 362.702 82.5645 362.827 82.3429 363.079C82.1255 363.33 82.0169 363.699 82.0169 364.185V375H80.5083ZM89.9142 375.205C89.0279 375.205 88.2502 374.994 87.5811 374.572C86.9164 374.15 86.3965 373.56 86.0215 372.801C85.6507 372.043 85.4654 371.156 85.4654 370.142C85.4654 369.119 85.6507 368.227 86.0215 367.464C86.3965 366.701 86.9164 366.109 87.5811 365.687C88.2502 365.265 89.0279 365.054 89.9142 365.054C90.8006 365.054 91.5762 365.265 92.2409 365.687C92.91 366.109 93.4299 366.701 93.8006 367.464C94.1756 368.227 94.3631 369.119 94.3631 370.142C94.3631 371.156 94.1756 372.043 93.8006 372.801C93.4299 373.56 92.91 374.15 92.2409 374.572C91.5762 374.994 90.8006 375.205 89.9142 375.205ZM89.9142 373.849C90.5875 373.849 91.1415 373.677 91.5762 373.332C92.0108 372.987 92.3326 372.533 92.5414 371.97C92.7502 371.408 92.8546 370.798 92.8546 370.142C92.8546 369.486 92.7502 368.874 92.5414 368.308C92.3326 367.741 92.0108 367.283 91.5762 366.933C91.1415 366.584 90.5875 366.409 89.9142 366.409C89.2409 366.409 88.687 366.584 88.2523 366.933C87.8176 367.283 87.4959 367.741 87.2871 368.308C87.0783 368.874 86.9739 369.486 86.9739 370.142C86.9739 370.798 87.0783 371.408 87.2871 371.97C87.4959 372.533 87.8176 372.987 88.2523 373.332C88.687 373.677 89.2409 373.849 89.9142 373.849ZM96.6658 375V365.182H98.1232V366.665H98.2255C98.4045 366.179 98.7283 365.785 99.1971 365.482C99.6658 365.18 100.194 365.028 100.782 365.028C100.893 365.028 101.032 365.031 101.198 365.035C101.364 365.039 101.49 365.045 101.575 365.054V366.588C101.524 366.575 101.407 366.556 101.223 366.531C101.044 366.501 100.855 366.486 100.654 366.486C100.177 366.486 99.7511 366.586 99.3761 366.786C99.0053 366.982 98.7113 367.255 98.494 367.604C98.2809 367.95 98.1744 368.344 98.1744 368.787V375H96.6658ZM107.053 375.205C106.132 375.205 105.34 374.987 104.675 374.553C104.01 374.118 103.499 373.519 103.141 372.756C102.783 371.994 102.604 371.122 102.604 370.142C102.604 369.145 102.787 368.265 103.154 367.502C103.525 366.735 104.04 366.136 104.701 365.706C105.365 365.271 106.141 365.054 107.027 365.054C107.718 365.054 108.34 365.182 108.894 365.438C109.448 365.693 109.902 366.051 110.255 366.511C110.609 366.972 110.828 367.509 110.914 368.122H109.405C109.29 367.675 109.034 367.278 108.638 366.933C108.246 366.584 107.718 366.409 107.053 366.409C106.465 366.409 105.949 366.562 105.506 366.869C105.067 367.172 104.724 367.6 104.477 368.154C104.234 368.704 104.113 369.349 104.113 370.091C104.113 370.849 104.232 371.51 104.471 372.072C104.713 372.635 105.054 373.072 105.493 373.383C105.936 373.694 106.456 373.849 107.053 373.849C107.445 373.849 107.801 373.781 108.12 373.645C108.44 373.509 108.711 373.312 108.932 373.057C109.154 372.801 109.311 372.494 109.405 372.136H110.914C110.828 372.716 110.618 373.238 110.281 373.702C109.949 374.163 109.507 374.529 108.958 374.802C108.412 375.07 107.777 375.205 107.053 375.205ZM117.235 375.205C116.289 375.205 115.473 374.996 114.787 374.578C114.105 374.156 113.579 373.568 113.208 372.814C112.842 372.055 112.659 371.173 112.659 370.168C112.659 369.162 112.842 368.276 113.208 367.509C113.579 366.737 114.095 366.136 114.755 365.706C115.42 365.271 116.196 365.054 117.082 365.054C117.593 365.054 118.098 365.139 118.597 365.31C119.096 365.48 119.549 365.757 119.958 366.141C120.368 366.52 120.694 367.023 120.936 367.649C121.179 368.276 121.301 369.047 121.301 369.963V370.602H113.733V369.298H119.767C119.767 368.744 119.656 368.25 119.434 367.815C119.217 367.381 118.906 367.038 118.501 366.786C118.1 366.535 117.627 366.409 117.082 366.409C116.481 366.409 115.961 366.558 115.522 366.857C115.088 367.151 114.753 367.534 114.519 368.007C114.284 368.48 114.167 368.987 114.167 369.528V370.398C114.167 371.139 114.295 371.768 114.551 372.283C114.811 372.795 115.171 373.185 115.631 373.453C116.091 373.717 116.626 373.849 117.235 373.849C117.632 373.849 117.99 373.794 118.309 373.683C118.633 373.568 118.912 373.398 119.147 373.172C119.381 372.942 119.562 372.656 119.69 372.315L121.147 372.724C120.994 373.219 120.736 373.653 120.374 374.028C120.012 374.399 119.564 374.689 119.032 374.898C118.499 375.102 117.9 375.205 117.235 375.205Z" fill="#C8C9D0"/>
<path d="M36.6719 389.493C36.6188 389.022 36.4001 388.658 36.0156 388.399C35.6312 388.137 35.1473 388.006 34.5639 388.006C34.1463 388.006 33.785 388.073 33.4801 388.205C33.1752 388.335 32.9382 388.513 32.7692 388.742C32.6035 388.968 32.5206 389.224 32.5206 389.513C32.5206 389.755 32.5769 389.964 32.6896 390.139C32.8056 390.315 32.9564 390.462 33.142 390.582C33.331 390.698 33.5331 390.795 33.7486 390.875C33.964 390.951 34.1712 391.014 34.37 391.064L35.3643 391.322C35.6892 391.402 36.0223 391.51 36.3636 391.646C36.705 391.781 37.0215 391.96 37.3132 392.183C37.6049 392.405 37.8402 392.68 38.0192 393.008C38.2015 393.336 38.2926 393.729 38.2926 394.186C38.2926 394.763 38.1435 395.275 37.8452 395.722C37.5502 396.17 37.121 396.523 36.5575 396.781C35.9974 397.04 35.3196 397.169 34.5241 397.169C33.7618 397.169 33.1023 397.048 32.5455 396.806C31.9886 396.564 31.5528 396.221 31.2379 395.777C30.9231 395.33 30.7491 394.799 30.7159 394.186H32.2571C32.2869 394.554 32.4063 394.861 32.6151 395.106C32.8272 395.348 33.0973 395.528 33.4254 395.648C33.7569 395.764 34.1198 395.822 34.5142 395.822C34.9484 395.822 35.3345 395.754 35.6726 395.618C36.014 395.479 36.2824 395.286 36.478 395.041C36.6735 394.793 36.7713 394.503 36.7713 394.171C36.7713 393.87 36.6851 393.623 36.5128 393.43C36.3438 393.238 36.1134 393.079 35.8217 392.953C35.5334 392.827 35.2069 392.716 34.8423 392.62L33.6392 392.292C32.8239 392.07 32.1776 391.743 31.7003 391.312C31.2263 390.882 30.9893 390.312 30.9893 389.602C30.9893 389.016 31.1484 388.504 31.4666 388.066C31.7848 387.629 32.2157 387.289 32.7592 387.047C33.3028 386.802 33.916 386.679 34.5987 386.679C35.2881 386.679 35.8963 386.8 36.4233 387.042C36.9536 387.284 37.3712 387.617 37.6761 388.041C37.9811 388.462 38.1402 388.946 38.1534 389.493H36.6719ZM41.4956 392.466V397H40.0091V386.818H41.4757V390.607H41.5701C41.7491 390.196 42.0225 389.869 42.3904 389.627C42.7583 389.385 43.2389 389.264 43.8322 389.264C44.3559 389.264 44.8133 389.372 45.2044 389.587C45.5988 389.803 45.9037 390.124 46.1191 390.552C46.3379 390.976 46.4473 391.506 46.4473 392.143V397H44.9608V392.322C44.9608 391.762 44.8166 391.327 44.5282 391.019C44.2399 390.708 43.8388 390.552 43.3251 390.552C42.9738 390.552 42.6589 390.626 42.3805 390.776C42.1054 390.925 41.8883 391.143 41.7292 391.432C41.5734 391.717 41.4956 392.062 41.4956 392.466ZM51.6475 397.154C50.9316 397.154 50.3069 396.99 49.7733 396.662C49.2396 396.334 48.8253 395.875 48.5304 395.285C48.2354 394.695 48.0879 394.005 48.0879 393.217C48.0879 392.424 48.2354 391.732 48.5304 391.138C48.8253 390.545 49.2396 390.085 49.7733 389.756C50.3069 389.428 50.9316 389.264 51.6475 389.264C52.3635 389.264 52.9882 389.428 53.5218 389.756C54.0555 390.085 54.4698 390.545 54.7647 391.138C55.0597 391.732 55.2072 392.424 55.2072 393.217C55.2072 394.005 55.0597 394.695 54.7647 395.285C54.4698 395.875 54.0555 396.334 53.5218 396.662C52.9882 396.99 52.3635 397.154 51.6475 397.154ZM51.6525 395.906C52.1165 395.906 52.501 395.784 52.8059 395.538C53.1109 395.293 53.3362 394.967 53.4821 394.559C53.6312 394.151 53.7058 393.702 53.7058 393.212C53.7058 392.724 53.6312 392.277 53.4821 391.869C53.3362 391.458 53.1109 391.129 52.8059 390.88C52.501 390.631 52.1165 390.507 51.6525 390.507C51.1852 390.507 50.7974 390.631 50.4892 390.88C50.1842 391.129 49.9572 391.458 49.8081 391.869C49.6622 392.277 49.5893 392.724 49.5893 393.212C49.5893 393.702 49.6622 394.151 49.8081 394.559C49.9572 394.967 50.1842 395.293 50.4892 395.538C50.7974 395.784 51.1852 395.906 51.6525 395.906ZM56.8665 397V389.364H58.3033V390.577H58.3828C58.522 390.166 58.7673 389.843 59.1186 389.607C59.4732 389.369 59.8743 389.249 60.3217 389.249C60.4145 389.249 60.5239 389.253 60.6499 389.259C60.7791 389.266 60.8802 389.274 60.9531 389.284V390.706C60.8935 390.689 60.7874 390.671 60.6349 390.651C60.4825 390.628 60.33 390.616 60.1776 390.616C59.8262 390.616 59.513 390.691 59.2379 390.84C58.9661 390.986 58.7507 391.19 58.5916 391.452C58.4325 391.71 58.353 392.005 58.353 392.337V397H56.8665ZM66.2553 389.364V390.557H62.0842V389.364H66.2553ZM63.2028 387.534H64.6893V394.758C64.6893 395.046 64.7324 395.263 64.8185 395.409C64.9047 395.552 65.0157 395.649 65.1516 395.702C65.2908 395.752 65.4416 395.777 65.604 395.777C65.7234 395.777 65.8278 395.769 65.9173 395.752C66.0067 395.736 66.0763 395.722 66.1261 395.712L66.3945 396.94C66.3084 396.973 66.1857 397.007 66.0266 397.04C65.8675 397.076 65.6687 397.096 65.43 397.099C65.0389 397.106 64.6744 397.036 64.3363 396.891C63.9982 396.745 63.7248 396.519 63.516 396.214C63.3072 395.91 63.2028 395.527 63.2028 395.066V387.534ZM74.4634 397.149C73.8469 397.149 73.2968 396.992 72.8129 396.677C72.3323 396.359 71.9544 395.906 71.6793 395.32C71.4076 394.73 71.2717 394.022 71.2717 393.197C71.2717 392.371 71.4092 391.665 71.6843 391.079C71.9627 390.492 72.3439 390.043 72.8278 389.732C73.3117 389.42 73.8602 389.264 74.4734 389.264C74.9473 389.264 75.3285 389.344 75.6168 389.503C75.9085 389.659 76.1339 389.841 76.293 390.05C76.4554 390.259 76.5813 390.442 76.6708 390.602H76.7603V386.818H78.2468V397H76.7951V395.812H76.6708C76.5813 395.974 76.4521 396.16 76.283 396.369C76.1173 396.577 75.8886 396.76 75.5969 396.915C75.3053 397.071 74.9274 397.149 74.4634 397.149ZM74.7915 395.881C75.2191 395.881 75.5804 395.769 75.8754 395.543C76.1737 395.315 76.399 394.998 76.5515 394.594C76.7073 394.189 76.7852 393.719 76.7852 393.182C76.7852 392.652 76.7089 392.187 76.5565 391.79C76.404 391.392 76.1803 391.082 75.8853 390.86C75.5903 390.638 75.2257 390.527 74.7915 390.527C74.3441 390.527 73.9712 390.643 73.6729 390.875C73.3746 391.107 73.1493 391.424 72.9968 391.825C72.8477 392.226 72.7731 392.678 72.7731 393.182C72.7731 393.692 72.8493 394.151 73.0018 394.559C73.1542 394.967 73.3796 395.29 73.6779 395.528C73.9795 395.764 74.3507 395.881 74.7915 395.881ZM83.6596 397.154C82.9073 397.154 82.2593 396.993 81.7157 396.672C81.1755 396.347 80.7579 395.891 80.4629 395.305C80.1712 394.715 80.0254 394.024 80.0254 393.232C80.0254 392.449 80.1712 391.76 80.4629 391.163C80.7579 390.567 81.1689 390.101 81.6958 389.766C82.2261 389.432 82.8459 389.264 83.5552 389.264C83.9861 389.264 84.4037 389.335 84.8081 389.478C85.2124 389.621 85.5753 389.844 85.8968 390.149C86.2183 390.454 86.4719 390.85 86.6575 391.337C86.8431 391.821 86.9359 392.41 86.9359 393.102V393.629H80.8656V392.516H85.4792C85.4792 392.125 85.3997 391.778 85.2406 391.477C85.0815 391.172 84.8578 390.931 84.5694 390.756C84.2844 390.58 83.9496 390.492 83.5652 390.492C83.1475 390.492 82.783 390.595 82.4714 390.8C82.1632 391.003 81.9245 391.268 81.7555 391.596C81.5898 391.921 81.5069 392.274 81.5069 392.655V393.525C81.5069 394.035 81.5964 394.469 81.7754 394.827C81.9577 395.185 82.2112 395.459 82.536 395.648C82.8609 395.833 83.2404 395.926 83.6745 395.926C83.9563 395.926 84.2131 395.886 84.4451 395.807C84.6771 395.724 84.8777 395.601 85.0467 395.439C85.2157 395.277 85.345 395.076 85.4345 394.837L86.8414 395.091C86.7288 395.505 86.5266 395.868 86.2349 396.18C85.9466 396.488 85.5836 396.728 85.1461 396.901C84.7119 397.07 84.2164 397.154 83.6596 397.154ZM94.3075 391.228L92.9602 391.467C92.9039 391.294 92.8144 391.13 92.6918 390.974C92.5724 390.819 92.41 390.691 92.2045 390.592C91.9991 390.492 91.7422 390.442 91.4339 390.442C91.013 390.442 90.6617 390.537 90.38 390.726C90.0982 390.911 89.9574 391.152 89.9574 391.447C89.9574 391.702 90.0518 391.907 90.2408 392.063C90.4297 392.219 90.7346 392.347 91.1555 392.446L92.3686 392.724C93.0713 392.887 93.5949 393.137 93.9396 393.475C94.2843 393.813 94.4567 394.252 94.4567 394.793C94.4567 395.25 94.3241 395.658 94.0589 396.016C93.7971 396.37 93.4309 396.649 92.9602 396.851C92.4929 397.053 91.951 397.154 91.3345 397.154C90.4794 397.154 89.7817 396.972 89.2415 396.607C88.7012 396.239 88.3698 395.717 88.2472 395.041L89.6839 394.822C89.7734 395.197 89.9574 395.48 90.2358 395.673C90.5142 395.862 90.8771 395.956 91.3246 395.956C91.8118 395.956 92.2012 395.855 92.4929 395.653C92.7846 395.447 92.9304 395.197 92.9304 394.902C92.9304 394.663 92.8409 394.463 92.6619 394.3C92.4863 394.138 92.2161 394.015 91.8516 393.933L90.5589 393.649C89.8464 393.487 89.3194 393.228 88.978 392.874C88.6399 392.519 88.4709 392.07 88.4709 391.526C88.4709 391.076 88.5968 390.681 88.8487 390.343C89.1006 390.005 89.4486 389.741 89.8928 389.553C90.3369 389.36 90.8456 389.264 91.419 389.264C92.2443 389.264 92.8939 389.443 93.3679 389.801C93.8419 390.156 94.1551 390.631 94.3075 391.228ZM99.3077 397.154C98.5686 397.154 97.9322 396.987 97.3986 396.652C96.8683 396.314 96.4606 395.848 96.1756 395.255C95.8906 394.662 95.748 393.982 95.748 393.217C95.748 392.441 95.8939 391.757 96.1855 391.163C96.4772 390.567 96.8882 390.101 97.4185 389.766C97.9488 389.432 98.5736 389.264 99.2928 389.264C99.8728 389.264 100.39 389.372 100.844 389.587C101.298 389.799 101.664 390.098 101.943 390.482C102.224 390.867 102.392 391.316 102.445 391.83H100.998C100.919 391.472 100.736 391.163 100.451 390.905C100.169 390.646 99.7916 390.517 99.3176 390.517C98.9034 390.517 98.5404 390.626 98.2289 390.845C97.9206 391.061 97.6803 391.369 97.508 391.77C97.3356 392.168 97.2495 392.638 97.2495 393.182C97.2495 393.739 97.334 394.219 97.503 394.624C97.6721 395.028 97.9107 395.341 98.2189 395.563C98.5305 395.785 98.8967 395.896 99.3176 395.896C99.5994 395.896 99.8546 395.845 100.083 395.742C100.315 395.636 100.509 395.485 100.665 395.29C100.824 395.094 100.935 394.859 100.998 394.584H102.445C102.392 395.078 102.231 395.518 101.963 395.906C101.694 396.294 101.334 396.599 100.884 396.821C100.436 397.043 99.9109 397.154 99.3077 397.154ZM104.034 397V389.364H105.471V390.577H105.551C105.69 390.166 105.935 389.843 106.287 389.607C106.641 389.369 107.042 389.249 107.49 389.249C107.583 389.249 107.692 389.253 107.818 389.259C107.947 389.266 108.048 389.274 108.121 389.284V390.706C108.061 390.689 107.955 390.671 107.803 390.651C107.65 390.628 107.498 390.616 107.346 390.616C106.994 390.616 106.681 390.691 106.406 390.84C106.134 390.986 105.919 391.19 105.76 391.452C105.6 391.71 105.521 392.005 105.521 392.337V397H104.034ZM109.407 397V389.364H110.894V397H109.407ZM110.158 388.185C109.9 388.185 109.678 388.099 109.492 387.927C109.31 387.751 109.219 387.542 109.219 387.3C109.219 387.055 109.31 386.846 109.492 386.674C109.678 386.498 109.9 386.411 110.158 386.411C110.417 386.411 110.637 386.498 110.819 386.674C111.005 386.846 111.098 387.055 111.098 387.3C111.098 387.542 111.005 387.751 110.819 387.927C110.637 388.099 110.417 388.185 110.158 388.185ZM112.894 399.864V389.364H114.346V390.602H114.47C114.556 390.442 114.68 390.259 114.843 390.05C115.005 389.841 115.23 389.659 115.519 389.503C115.807 389.344 116.188 389.264 116.662 389.264C117.279 389.264 117.829 389.42 118.313 389.732C118.797 390.043 119.176 390.492 119.451 391.079C119.73 391.665 119.869 392.371 119.869 393.197C119.869 394.022 119.731 394.73 119.456 395.32C119.181 395.906 118.803 396.359 118.323 396.677C117.842 396.992 117.294 397.149 116.677 397.149C116.213 397.149 115.834 397.071 115.539 396.915C115.247 396.76 115.018 396.577 114.853 396.369C114.687 396.16 114.559 395.974 114.47 395.812H114.38V399.864H112.894ZM114.35 393.182C114.35 393.719 114.428 394.189 114.584 394.594C114.74 394.998 114.965 395.315 115.26 395.543C115.555 395.769 115.917 395.881 116.344 395.881C116.788 395.881 117.159 395.764 117.458 395.528C117.756 395.29 117.981 394.967 118.134 394.559C118.29 394.151 118.368 393.692 118.368 393.182C118.368 392.678 118.291 392.226 118.139 391.825C117.99 391.424 117.764 391.107 117.463 390.875C117.164 390.643 116.792 390.527 116.344 390.527C115.913 390.527 115.549 390.638 115.25 390.86C114.955 391.082 114.732 391.392 114.579 391.79C114.427 392.187 114.35 392.652 114.35 393.182ZM125.099 389.364V390.557H120.928V389.364H125.099ZM122.047 387.534H123.533V394.758C123.533 395.046 123.576 395.263 123.662 395.409C123.748 395.552 123.859 395.649 123.995 395.702C124.135 395.752 124.285 395.777 124.448 395.777C124.567 395.777 124.672 395.769 124.761 395.752C124.85 395.736 124.92 395.722 124.97 395.712L125.238 396.94C125.152 396.973 125.029 397.007 124.87 397.04C124.711 397.076 124.512 397.096 124.274 397.099C123.883 397.106 123.518 397.036 123.18 396.891C122.842 396.745 122.569 396.519 122.36 396.214C122.151 395.91 122.047 395.527 122.047 395.066V387.534ZM126.743 397V389.364H128.23V397H126.743ZM127.494 388.185C127.236 388.185 127.014 388.099 126.828 387.927C126.646 387.751 126.555 387.542 126.555 387.3C126.555 387.055 126.646 386.846 126.828 386.674C127.014 386.498 127.236 386.411 127.494 386.411C127.753 386.411 127.973 386.498 128.155 386.674C128.341 386.846 128.434 387.055 128.434 387.3C128.434 387.542 128.341 387.751 128.155 387.927C127.973 388.099 127.753 388.185 127.494 388.185ZM133.446 397.154C132.73 397.154 132.106 396.99 131.572 396.662C131.038 396.334 130.624 395.875 130.329 395.285C130.034 394.695 129.887 394.005 129.887 393.217C129.887 392.424 130.034 391.732 130.329 391.138C130.624 390.545 131.038 390.085 131.572 389.756C132.106 389.428 132.73 389.264 133.446 389.264C134.162 389.264 134.787 389.428 135.321 389.756C135.854 390.085 136.269 390.545 136.564 391.138C136.859 391.732 137.006 392.424 137.006 393.217C137.006 394.005 136.859 394.695 136.564 395.285C136.269 395.875 135.854 396.334 135.321 396.662C134.787 396.99 134.162 397.154 133.446 397.154ZM133.451 395.906C133.915 395.906 134.3 395.784 134.605 395.538C134.91 395.293 135.135 394.967 135.281 394.559C135.43 394.151 135.505 393.702 135.505 393.212C135.505 392.724 135.43 392.277 135.281 391.869C135.135 391.458 134.91 391.129 134.605 390.88C134.3 390.631 133.915 390.507 133.451 390.507C132.984 390.507 132.596 390.631 132.288 390.88C131.983 391.129 131.756 391.458 131.607 391.869C131.461 392.277 131.388 392.724 131.388 393.212C131.388 393.702 131.461 394.151 131.607 394.559C131.756 394.967 131.983 395.293 132.288 395.538C132.596 395.784 132.984 395.906 133.451 395.906ZM140.152 392.466V397H138.665V389.364H140.092V390.607H140.187C140.362 390.202 140.637 389.877 141.012 389.632C141.39 389.387 141.865 389.264 142.439 389.264C142.959 389.264 143.415 389.374 143.806 389.592C144.197 389.808 144.5 390.129 144.716 390.557C144.931 390.984 145.039 391.513 145.039 392.143V397H143.552V392.322C143.552 391.768 143.408 391.336 143.12 391.024C142.831 390.709 142.435 390.552 141.932 390.552C141.587 390.552 141.28 390.626 141.012 390.776C140.747 390.925 140.536 391.143 140.381 391.432C140.228 391.717 140.152 392.062 140.152 392.466ZM153.939 400.023C153.333 400.023 152.811 399.943 152.373 399.784C151.939 399.625 151.584 399.415 151.309 399.153C151.034 398.891 150.829 398.604 150.693 398.293L151.971 397.766C152.06 397.911 152.179 398.066 152.328 398.228C152.481 398.394 152.686 398.535 152.945 398.651C153.207 398.767 153.543 398.825 153.954 398.825C154.518 398.825 154.983 398.687 155.351 398.412C155.719 398.14 155.903 397.706 155.903 397.109V395.608H155.809C155.719 395.77 155.59 395.951 155.421 396.15C155.255 396.349 155.026 396.521 154.735 396.667C154.443 396.813 154.064 396.886 153.596 396.886C152.993 396.886 152.449 396.745 151.966 396.463C151.485 396.178 151.104 395.759 150.822 395.205C150.544 394.648 150.404 393.964 150.404 393.152C150.404 392.34 150.542 391.644 150.817 391.064C151.096 390.484 151.477 390.04 151.961 389.732C152.444 389.42 152.993 389.264 153.606 389.264C154.08 389.264 154.463 389.344 154.755 389.503C155.046 389.659 155.273 389.841 155.436 390.05C155.601 390.259 155.729 390.442 155.819 390.602H155.928V389.364H157.385V397.169C157.385 397.825 157.232 398.364 156.927 398.785C156.622 399.206 156.21 399.517 155.689 399.719C155.172 399.922 154.589 400.023 153.939 400.023ZM153.924 395.653C154.352 395.653 154.713 395.553 155.008 395.354C155.306 395.152 155.532 394.864 155.684 394.489C155.84 394.112 155.918 393.659 155.918 393.132C155.918 392.618 155.842 392.166 155.689 391.775C155.537 391.384 155.313 391.079 155.018 390.86C154.723 390.638 154.359 390.527 153.924 390.527C153.477 390.527 153.104 390.643 152.806 390.875C152.507 391.104 152.282 391.415 152.13 391.81C151.98 392.204 151.906 392.645 151.906 393.132C151.906 393.633 151.982 394.072 152.135 394.45C152.287 394.827 152.512 395.122 152.811 395.335C153.112 395.547 153.484 395.653 153.924 395.653ZM162.595 397.154C161.879 397.154 161.254 396.99 160.721 396.662C160.187 396.334 159.773 395.875 159.478 395.285C159.183 394.695 159.035 394.005 159.035 393.217C159.035 392.424 159.183 391.732 159.478 391.138C159.773 390.545 160.187 390.085 160.721 389.756C161.254 389.428 161.879 389.264 162.595 389.264C163.311 389.264 163.935 389.428 164.469 389.756C165.003 390.085 165.417 390.545 165.712 391.138C166.007 391.732 166.154 392.424 166.154 393.217C166.154 394.005 166.007 394.695 165.712 395.285C165.417 395.875 165.003 396.334 164.469 396.662C163.935 396.99 163.311 397.154 162.595 397.154ZM162.6 395.906C163.064 395.906 163.448 395.784 163.753 395.538C164.058 395.293 164.283 394.967 164.429 394.559C164.578 394.151 164.653 393.702 164.653 393.212C164.653 392.724 164.578 392.277 164.429 391.869C164.283 391.458 164.058 391.129 163.753 390.88C163.448 390.631 163.064 390.507 162.6 390.507C162.132 390.507 161.745 390.631 161.436 390.88C161.132 391.129 160.904 391.458 160.755 391.869C160.609 392.277 160.537 392.724 160.537 393.212C160.537 393.702 160.609 394.151 160.755 394.559C160.904 394.967 161.132 395.293 161.436 395.538C161.745 395.784 162.132 395.906 162.6 395.906ZM171.105 397.154C170.353 397.154 169.705 396.993 169.161 396.672C168.621 396.347 168.203 395.891 167.908 395.305C167.617 394.715 167.471 394.024 167.471 393.232C167.471 392.449 167.617 391.76 167.908 391.163C168.203 390.567 168.614 390.101 169.141 389.766C169.671 389.432 170.291 389.264 171.001 389.264C171.431 389.264 171.849 389.335 172.253 389.478C172.658 389.621 173.021 389.844 173.342 390.149C173.664 390.454 173.917 390.85 174.103 391.337C174.288 391.821 174.381 392.41 174.381 393.102V393.629H168.311V392.516H172.925C172.925 392.125 172.845 391.778 172.686 391.477C172.527 391.172 172.303 390.931 172.015 390.756C171.73 390.58 171.395 390.492 171.01 390.492C170.593 390.492 170.228 390.595 169.917 390.8C169.608 391.003 169.37 391.268 169.201 391.596C169.035 391.921 168.952 392.274 168.952 392.655V393.525C168.952 394.035 169.042 394.469 169.221 394.827C169.403 395.185 169.657 395.459 169.981 395.648C170.306 395.833 170.686 395.926 171.12 395.926C171.402 395.926 171.658 395.886 171.89 395.807C172.122 395.724 172.323 395.601 172.492 395.439C172.661 395.277 172.79 395.076 172.88 394.837L174.287 395.091C174.174 395.505 173.972 395.868 173.68 396.18C173.392 396.488 173.029 396.728 172.591 396.901C172.157 397.07 171.662 397.154 171.105 397.154ZM181.753 391.228L180.406 391.467C180.349 391.294 180.26 391.13 180.137 390.974C180.018 390.819 179.855 390.691 179.65 390.592C179.444 390.492 179.188 390.442 178.879 390.442C178.458 390.442 178.107 390.537 177.825 390.726C177.544 390.911 177.403 391.152 177.403 391.447C177.403 391.702 177.497 391.907 177.686 392.063C177.875 392.219 178.18 392.347 178.601 392.446L179.814 392.724C180.517 392.887 181.04 393.137 181.385 393.475C181.73 393.813 181.902 394.252 181.902 394.793C181.902 395.25 181.769 395.658 181.504 396.016C181.242 396.37 180.876 396.649 180.406 396.851C179.938 397.053 179.396 397.154 178.78 397.154C177.925 397.154 177.227 396.972 176.687 396.607C176.147 396.239 175.815 395.717 175.692 395.041L177.129 394.822C177.219 395.197 177.403 395.48 177.681 395.673C177.96 395.862 178.322 395.956 178.77 395.956C179.257 395.956 179.647 395.855 179.938 395.653C180.23 395.447 180.376 395.197 180.376 394.902C180.376 394.663 180.286 394.463 180.107 394.3C179.932 394.138 179.661 394.015 179.297 393.933L178.004 393.649C177.292 393.487 176.765 393.228 176.423 392.874C176.085 392.519 175.916 392.07 175.916 391.526C175.916 391.076 176.042 390.681 176.294 390.343C176.546 390.005 176.894 389.741 177.338 389.553C177.782 389.36 178.291 389.264 178.864 389.264C179.69 389.264 180.339 389.443 180.813 389.801C181.287 390.156 181.6 390.631 181.753 391.228ZM188.728 392.466V397H187.241V386.818H188.708V390.607H188.803C188.982 390.196 189.255 389.869 189.623 389.627C189.991 389.385 190.471 389.264 191.065 389.264C191.588 389.264 192.046 389.372 192.437 389.587C192.831 389.803 193.136 390.124 193.352 390.552C193.57 390.976 193.68 391.506 193.68 392.143V397H192.193V392.322C192.193 391.762 192.049 391.327 191.761 391.019C191.472 390.708 191.071 390.552 190.558 390.552C190.206 390.552 189.891 390.626 189.613 390.776C189.338 390.925 189.121 391.143 188.962 391.432C188.806 391.717 188.728 392.062 188.728 392.466ZM198.955 397.154C198.202 397.154 197.554 396.993 197.011 396.672C196.47 396.347 196.053 395.891 195.758 395.305C195.466 394.715 195.32 394.024 195.32 393.232C195.32 392.449 195.466 391.76 195.758 391.163C196.053 390.567 196.464 390.101 196.991 389.766C197.521 389.432 198.141 389.264 198.85 389.264C199.281 389.264 199.699 389.335 200.103 389.478C200.507 389.621 200.87 389.844 201.192 390.149C201.513 390.454 201.767 390.85 201.952 391.337C202.138 391.821 202.231 392.41 202.231 393.102V393.629H196.161V392.516H200.774C200.774 392.125 200.695 391.778 200.536 391.477C200.376 391.172 200.153 390.931 199.864 390.756C199.579 390.58 199.245 390.492 198.86 390.492C198.442 390.492 198.078 390.595 197.766 390.8C197.458 391.003 197.219 391.268 197.05 391.596C196.885 391.921 196.802 392.274 196.802 392.655V393.525C196.802 394.035 196.891 394.469 197.07 394.827C197.253 395.185 197.506 395.459 197.831 395.648C198.156 395.833 198.535 395.926 198.969 395.926C199.251 395.926 199.508 395.886 199.74 395.807C199.972 395.724 200.173 395.601 200.342 395.439C200.511 395.277 200.64 395.076 200.729 394.837L202.136 395.091C202.024 395.505 201.821 395.868 201.53 396.18C201.241 396.488 200.879 396.728 200.441 396.901C200.007 397.07 199.511 397.154 198.955 397.154ZM203.88 397V389.364H205.317V390.577H205.396C205.536 390.166 205.781 389.843 206.132 389.607C206.487 389.369 206.888 389.249 207.335 389.249C207.428 389.249 207.538 389.253 207.664 389.259C207.793 389.266 207.894 389.274 207.967 389.284V390.706C207.907 390.689 207.801 390.671 207.649 390.651C207.496 390.628 207.344 390.616 207.191 390.616C206.84 390.616 206.527 390.691 206.252 390.84C205.98 390.986 205.764 391.19 205.605 391.452C205.446 391.71 205.367 392.005 205.367 392.337V397H203.88ZM212.271 397.154C211.519 397.154 210.871 396.993 210.327 396.672C209.787 396.347 209.369 395.891 209.074 395.305C208.783 394.715 208.637 394.024 208.637 393.232C208.637 392.449 208.783 391.76 209.074 391.163C209.369 390.567 209.78 390.101 210.307 389.766C210.837 389.432 211.457 389.264 212.167 389.264C212.597 389.264 213.015 389.335 213.419 389.478C213.824 389.621 214.187 389.844 214.508 390.149C214.83 390.454 215.083 390.85 215.269 391.337C215.454 391.821 215.547 392.41 215.547 393.102V393.629H209.477V392.516H214.091C214.091 392.125 214.011 391.778 213.852 391.477C213.693 391.172 213.469 390.931 213.181 390.756C212.896 390.58 212.561 390.492 212.176 390.492C211.759 390.492 211.394 390.595 211.083 390.8C210.775 391.003 210.536 391.268 210.367 391.596C210.201 391.921 210.118 392.274 210.118 392.655V393.525C210.118 394.035 210.208 394.469 210.387 394.827C210.569 395.185 210.823 395.459 211.147 395.648C211.472 395.833 211.852 395.926 212.286 395.926C212.568 395.926 212.824 395.886 213.056 395.807C213.288 395.724 213.489 395.601 213.658 395.439C213.827 395.277 213.956 395.076 214.046 394.837L215.453 395.091C215.34 395.505 215.138 395.868 214.846 396.18C214.558 396.488 214.195 396.728 213.757 396.901C213.323 397.07 212.828 397.154 212.271 397.154Z" fill="#868898"/>
<rect x="259.5" y="35.5" width="128.942" height="31" rx="15.5" fill="url(#paint2_linear_1_6772)"/>
<rect x="259.5" y="35.5" width="128.942" height="31" rx="15.5" stroke="url(#paint3_linear_1_6772)"/>
<path d="M276.306 56V47.36H279.06C279.132 47.36 279.274 47.362 279.486 47.366C279.702 47.37 279.91 47.384 280.11 47.408C280.794 47.496 281.372 47.74 281.844 48.14C282.32 48.536 282.68 49.042 282.924 49.658C283.168 50.274 283.29 50.948 283.29 51.68C283.29 52.412 283.168 53.086 282.924 53.702C282.68 54.318 282.32 54.826 281.844 55.226C281.372 55.622 280.794 55.864 280.11 55.952C279.914 55.976 279.708 55.99 279.492 55.994C279.276 55.998 279.132 56 279.06 56H276.306ZM277.776 54.638H279.06C279.18 54.638 279.332 54.634 279.516 54.626C279.704 54.618 279.87 54.6 280.014 54.572C280.422 54.496 280.754 54.314 281.01 54.026C281.266 53.738 281.454 53.388 281.574 52.976C281.698 52.564 281.76 52.132 281.76 51.68C281.76 51.212 281.698 50.772 281.574 50.36C281.45 49.948 281.258 49.602 280.998 49.322C280.742 49.042 280.414 48.864 280.014 48.788C279.87 48.756 279.704 48.738 279.516 48.734C279.332 48.726 279.18 48.722 279.06 48.722H277.776V54.638ZM284.834 56L287.558 47.36H289.676L292.4 56H290.912L288.44 48.248H288.764L286.322 56H284.834ZM286.352 54.128V52.778H290.888V54.128H286.352ZM294.565 56V47.36H296.011V56H294.565ZM298.888 56V47.36H300.334V54.644H304.15V56H298.888ZM307.031 56V52.46L304.091 47.36H305.777L307.763 50.804L309.743 47.36H311.429L308.495 52.46V56H307.031ZM318.053 56L315.329 47.36H316.817L319.097 54.596L321.407 47.36H322.895L320.171 56H318.053ZM324.877 56V47.36H326.323V56H324.877ZM332.278 56.18C331.646 56.18 331.076 56.07 330.568 55.85C330.064 55.63 329.648 55.316 329.32 54.908C328.996 54.496 328.79 54.008 328.702 53.444L330.202 53.216C330.33 53.728 330.592 54.124 330.988 54.404C331.388 54.684 331.848 54.824 332.368 54.824C332.676 54.824 332.966 54.776 333.238 54.68C333.51 54.584 333.73 54.444 333.898 54.26C334.07 54.076 334.156 53.85 334.156 53.582C334.156 53.462 334.136 53.352 334.096 53.252C334.056 53.148 333.996 53.056 333.916 52.976C333.84 52.896 333.74 52.824 333.616 52.76C333.496 52.692 333.356 52.634 333.196 52.586L330.964 51.926C330.772 51.87 330.564 51.796 330.34 51.704C330.12 51.608 329.91 51.478 329.71 51.314C329.514 51.146 329.352 50.934 329.224 50.678C329.1 50.418 329.038 50.098 329.038 49.718C329.038 49.162 329.178 48.696 329.458 48.32C329.742 47.94 330.122 47.656 330.598 47.468C331.078 47.28 331.61 47.188 332.194 47.192C332.786 47.196 333.314 47.298 333.778 47.498C334.242 47.694 334.63 47.98 334.942 48.356C335.254 48.732 335.474 49.186 335.602 49.718L334.048 49.988C333.984 49.684 333.86 49.426 333.676 49.214C333.496 48.998 333.274 48.834 333.01 48.722C332.75 48.61 332.472 48.55 332.176 48.542C331.888 48.538 331.62 48.582 331.372 48.674C331.128 48.762 330.93 48.89 330.778 49.058C330.63 49.226 330.556 49.422 330.556 49.646C330.556 49.858 330.62 50.032 330.748 50.168C330.876 50.3 331.034 50.406 331.222 50.486C331.414 50.562 331.608 50.626 331.804 50.678L333.352 51.11C333.564 51.166 333.802 51.242 334.066 51.338C334.33 51.434 334.584 51.568 334.828 51.74C335.072 51.912 335.272 52.138 335.428 52.418C335.588 52.698 335.668 53.054 335.668 53.486C335.668 53.934 335.574 54.328 335.386 54.668C335.202 55.004 334.952 55.284 334.636 55.508C334.32 55.732 333.958 55.9 333.55 56.012C333.146 56.124 332.722 56.18 332.278 56.18ZM338.047 56V47.36H339.493V56H338.047ZM344.326 56V48.716H341.53V47.36H348.568V48.716H345.772V56H344.326ZM353.685 56.18C353.053 56.18 352.483 56.07 351.975 55.85C351.471 55.63 351.055 55.316 350.727 54.908C350.403 54.496 350.197 54.008 350.109 53.444L351.609 53.216C351.737 53.728 351.999 54.124 352.395 54.404C352.795 54.684 353.255 54.824 353.775 54.824C354.083 54.824 354.373 54.776 354.645 54.68C354.917 54.584 355.137 54.444 355.305 54.26C355.477 54.076 355.563 53.85 355.563 53.582C355.563 53.462 355.543 53.352 355.503 53.252C355.463 53.148 355.403 53.056 355.323 52.976C355.247 52.896 355.147 52.824 355.023 52.76C354.903 52.692 354.763 52.634 354.603 52.586L352.371 51.926C352.179 51.87 351.971 51.796 351.747 51.704C351.527 51.608 351.317 51.478 351.117 51.314C350.921 51.146 350.759 50.934 350.631 50.678C350.507 50.418 350.445 50.098 350.445 49.718C350.445 49.162 350.585 48.696 350.865 48.32C351.149 47.94 351.529 47.656 352.005 47.468C352.485 47.28 353.017 47.188 353.601 47.192C354.193 47.196 354.721 47.298 355.185 47.498C355.649 47.694 356.037 47.98 356.349 48.356C356.661 48.732 356.881 49.186 357.009 49.718L355.455 49.988C355.391 49.684 355.267 49.426 355.083 49.214C354.903 48.998 354.681 48.834 354.417 48.722C354.157 48.61 353.879 48.55 353.583 48.542C353.295 48.538 353.027 48.582 352.779 48.674C352.535 48.762 352.337 48.89 352.185 49.058C352.037 49.226 351.963 49.422 351.963 49.646C351.963 49.858 352.027 50.032 352.155 50.168C352.283 50.3 352.441 50.406 352.629 50.486C352.821 50.562 353.015 50.626 353.211 50.678L354.759 51.11C354.971 51.166 355.209 51.242 355.473 51.338C355.737 51.434 355.991 51.568 356.235 51.74C356.479 51.912 356.679 52.138 356.835 52.418C356.995 52.698 357.075 53.054 357.075 53.486C357.075 53.934 356.981 54.328 356.793 54.668C356.609 55.004 356.359 55.284 356.043 55.508C355.727 55.732 355.365 55.9 354.957 56.012C354.553 56.124 354.129 56.18 353.685 56.18Z" fill="white"/>
<path d="M366 49.257L369.471 52.743L372.942 49.257" stroke="white" stroke-width="1.5" stroke-linecap="round" stroke-linejoin="round"/>
<defs>
<linearGradient id="paint0_linear_1_6772" x1="28.069" y1="9.74064" x2="221.859" y2="443.027" gradientUnits="userSpaceOnUse">
<stop stop-color="#252525"/>
<stop offset="1" stop-color="#101010"/>
</linearGradient>
<linearGradient id="paint1_linear_1_6772" x1="15.4379" y1="-2.47941e-06" x2="132.025" y2="452.419" gradientUnits="userSpaceOnUse">
<stop stop-color="#3E3E3E"/>
<stop offset="1" stop-color="#3E3E3E" stop-opacity="0"/>
</linearGradient>
<linearGradient id="paint2_linear_1_6772" x1="267.962" y1="35.7182" x2="271.88" y2="73.6516" gradientUnits="userSpaceOnUse">
<stop stop-color="#252525"/>
<stop offset="1" stop-color="#101010"/>
</linearGradient>
<linearGradient id="paint3_linear_1_6772" x1="263.929" y1="35" x2="266.038" y2="70.4478" gradientUnits="userSpaceOnUse">
<stop stop-color="#3E3E3E"/>
<stop offset="1" stop-color="#3E3E3E" stop-opacity="0"/>
</linearGradient>
</defs>
</svg>
