<svg width="21" height="40" viewBox="0 0 21 40" fill="none" xmlns="http://www.w3.org/2000/svg">
<path d="M14.3816 0.905357C11.1977 0.542961 7.98294 0.542961 4.79903 0.905358L1.50202 1.28063C1.01433 1.33614 0.632986 1.72707 0.589597 2.21599L0.336171 5.07166C-0.0899214 9.873 -0.0899218 14.7026 0.336171 19.504L0.589597 22.3597C0.636915 22.8928 1.08359 23.3016 1.61889 23.3016H5.89984V38.6C5.89984 39.039 6.17721 39.4301 6.59152 39.5752C7.00582 39.7204 7.46661 39.5879 7.74058 39.2449L8.54802 38.234C13.3621 32.2065 17.1955 25.4576 19.907 18.2359L20.3006 17.1876C20.4197 16.8703 20.3756 16.5147 20.1826 16.236C19.9896 15.9573 19.6722 15.7911 19.3332 15.7911H13.7261L18.5321 2.66255C18.641 2.365 18.6074 2.03393 18.4409 1.76434C18.2744 1.49475 17.9934 1.31646 17.6786 1.28063L14.3816 0.905357Z" fill="#68EFA3"/>
</svg>
