<svg width="23" height="28" viewBox="0 0 23 28" fill="none" xmlns="http://www.w3.org/2000/svg">
<path d="M12.6222 4.47529V0.564209H0V27.4356H12.6222V23.5246C10.0365 23.5246 7.55676 22.5211 5.72843 20.7349C3.9001 18.9486 2.87295 16.526 2.87295 13.9999C2.87295 11.4738 3.9001 9.05121 5.72843 7.26499C7.55676 5.47878 10.0365 4.47529 12.6222 4.47529Z" fill="white"/>
<path d="M12.6221 4.47534V23.5246C15.2077 23.5246 17.6875 22.5211 19.5158 20.7349C21.3441 18.9487 22.3713 16.5261 22.3713 14C22.3713 11.4739 21.3441 9.05126 19.5158 7.26504C17.6875 5.47883 15.2077 4.47534 12.6221 4.47534Z" fill="white"/>
</svg>
