<svg width="88" height="88" viewBox="0 0 88 88" fill="none" xmlns="http://www.w3.org/2000/svg">
<circle cx="44" cy="44" r="44" fill="#F4EDFF"/>
<path d="M40.1641 45.9167C40.9872 47.0171 42.0373 47.9276 43.2433 48.5865C44.4492 49.2454 45.7828 49.6372 47.1535 49.7353C48.5242 49.8335 49.8999 49.6357 51.1875 49.1554C52.475 48.6751 53.6442 47.9236 54.6157 46.9517L60.3657 41.2017C62.1114 39.3942 63.0774 36.9735 63.0555 34.4608C63.0337 31.948 62.0258 29.5444 60.249 27.7676C58.4722 25.9908 56.0685 24.9829 53.5558 24.9611C51.0431 24.9392 48.6223 25.9052 46.8149 27.6508L43.5182 30.9283" stroke="#7639DA" stroke-width="5" stroke-linecap="round" stroke-linejoin="round"/>
<path d="M47.8371 42.0835C47.014 40.9831 45.9639 40.0725 44.7579 39.4137C43.552 38.7548 42.2184 38.363 40.8477 38.2648C39.477 38.1667 38.1013 38.3644 36.8137 38.8447C35.5262 39.325 34.357 40.0766 33.3855 41.0485L27.6355 46.7985C25.8898 48.6059 24.9238 51.0267 24.9457 53.5394C24.9675 56.0521 25.9754 58.4557 27.7522 60.2326C29.529 62.0094 31.9327 63.0173 34.4454 63.0391C36.9581 63.0609 39.3789 62.095 41.1863 60.3493L44.4638 57.0718" stroke="#7639DA" stroke-width="5" stroke-linecap="round" stroke-linejoin="round"/>
</svg>
