<svg width="241" height="77" viewBox="0 0 241 77" fill="none" xmlns="http://www.w3.org/2000/svg">
<g filter="url(#filter0_d_1_6681)">
<path d="M2 23.9595L4.81437 27.798C7.64521 31.4931 13.3563 39.3854 18.9521 45.0176C24.5644 50.8651 30.1437 54.4525 35.9042 46.9189C41.5 39.3854 47.0958 20.0133 52.8562 20.1209C58.4356 20.0133 64.0479 39.3854 69.6437 45.0176C75.3548 50.8651 81 42.9728 86.5958 46.9189C92.2904 50.8651 97.9521 65.9323 103.548 60.3C109.21 54.4525 114.904 27.9056 120.5 29.6993C126.145 31.4931 131.856 45.4939 137.452 60.6686C143.064 75.9869 148.644 75.9869 154.404 66.4085C160.782 57.2402 163.896 53.6537 170.755 48.604C177.99 43.97 182.548 50.8651 188.144 43.0804C193.855 35.4392 199.5 12.4797 205.096 8.6412C210.79 4.94616 216.452 20.0133 222.048 22.0581C227.71 23.9595 233.404 12.4797 236.202 6.73987L239 1" stroke="#D3E763" stroke-width="1.27563" stroke-linecap="round"/>
</g>
<defs>
<filter id="filter0_d_1_6681" x="0.0866791" y="0.362061" width="240.827" height="75.8274" filterUnits="userSpaceOnUse" color-interpolation-filters="sRGB">
<feFlood flood-opacity="0" result="BackgroundImageFix"/>
<feColorMatrix in="SourceAlpha" type="matrix" values="0 0 0 0 0 0 0 0 0 0 0 0 0 0 0 0 0 0 127 0" result="hardAlpha"/>
<feOffset dy="1.27563"/>
<feGaussianBlur stdDeviation="0.637813"/>
<feColorMatrix type="matrix" values="0 0 0 0 0.156863 0 0 0 0 0.635294 0 0 0 0 0.388235 0 0 0 0.18 0"/>
<feBlend mode="normal" in2="BackgroundImageFix" result="effect1_dropShadow_1_6681"/>
<feBlend mode="normal" in="SourceGraphic" in2="effect1_dropShadow_1_6681" result="shape"/>
</filter>
</defs>
</svg>
