<svg width="128" height="129" viewBox="0 0 128 129" fill="none" xmlns="http://www.w3.org/2000/svg">
<g id="vuesax/bold/quote-down">
<g id="vuesax/bold/quote-down_2">
<g id="quote-down">
<path id="Vector" d="M84.8533 66.0544H109.867C109.44 90.961 104.533 95.0677 89.2267 104.134C87.4667 105.201 86.88 107.441 87.9467 109.254C89.0133 111.014 91.2533 111.601 93.0667 110.534C111.093 99.8677 117.387 93.361 117.387 62.321V33.5744C117.387 24.4544 109.973 17.0944 100.907 17.0944H84.9067C75.52 17.0944 68.4267 24.1877 68.4267 33.5744V49.5744C68.3733 58.961 75.4667 66.0544 84.8533 66.0544Z" fill="#667085" fill-opacity="0.3"/>
<path id="Vector_2" d="M27.1467 66.0544H52.16C51.7333 90.961 46.8267 95.0677 31.52 104.134C29.76 105.201 29.1733 107.441 30.24 109.254C31.3067 111.014 33.5467 111.601 35.36 110.534C53.3867 99.8677 59.68 93.361 59.68 62.321V33.5744C59.68 24.4544 52.2667 17.0944 43.2 17.0944H27.2C17.76 17.0944 10.6667 24.1877 10.6667 33.5744V49.5744C10.6667 58.961 17.76 66.0544 27.1467 66.0544Z" fill="#667085" fill-opacity="0.3"/>
</g>
</g>
</g>
</svg>
