<svg width="40" height="40" viewBox="0 0 40 40" fill="none" xmlns="http://www.w3.org/2000/svg">
<path d="M20 6C16.287 6 12.726 7.475 10.1005 10.1005C7.475 12.726 6 16.287 6 20C6 23.713 7.475 27.274 10.1005 29.8995C12.726 32.525 16.287 34 20 34C23.713 34 27.274 32.525 29.8995 29.8995C32.525 27.274 34 23.713 34 20C34 16.287 32.525 12.726 29.8995 10.1005C27.274 7.475 23.713 6 20 6Z" fill="#EAEAEA"/>
<path d="M20 38.125C10 38.125 1.875 30 1.875 20C1.875 10 10 1.875 20 1.875C30 1.875 38.125 10 38.125 20C38.125 30 30 38.125 20 38.125ZM20 3.75C11.0312 3.75 3.75 11.0312 3.75 20C3.75 28.9688 11.0312 36.25 20 36.25C28.9688 36.25 36.25 28.9688 36.25 20C36.25 11.0312 28.9688 3.75 20 3.75Z" fill="black"/>
<path d="M19.3755 24.6874C19.1255 24.6874 18.8755 24.5624 18.688 24.3749L14.5942 19.9999C14.2505 19.6249 14.2505 19.0311 14.6567 18.6874C15.0317 18.3436 15.6255 18.3436 15.9692 18.7499L19.3755 22.3749L25.9067 15.5624C26.2505 15.1874 26.8442 15.1874 27.2192 15.5311C27.5942 15.8749 27.5942 16.4686 27.2505 16.8436L20.063 24.4061C19.8755 24.5936 19.6255 24.6874 19.3755 24.6874Z" fill="black"/>
</svg>
