<svg width="40" height="40" viewBox="0 0 40 40" fill="none" xmlns="http://www.w3.org/2000/svg">
<path d="M20 8C18.4241 8 16.8637 8.31039 15.4078 8.91345C13.9519 9.5165 12.629 10.4004 11.5147 11.5147C10.4004 12.629 9.5165 13.9519 8.91345 15.4078C8.31039 16.8637 8 18.4241 8 20C8 21.5759 8.31039 23.1363 8.91345 24.5922C9.5165 26.0481 10.4004 27.371 11.5147 28.4853C12.629 29.5996 13.9519 30.4835 15.4078 31.0866C16.8637 31.6896 18.4241 32 20 32C21.5759 32 23.1363 31.6896 24.5922 31.0866C26.0481 30.4835 27.371 29.5996 28.4853 28.4853C29.5996 27.371 30.4835 26.0481 31.0866 24.5922C31.6896 23.1363 32 21.5759 32 20C32 18.4241 31.6896 16.8637 31.0866 15.4078C30.4835 13.9519 29.5996 12.629 28.4853 11.5147C27.371 10.4004 26.0481 9.5165 24.5922 8.91345C23.1363 8.31039 21.5759 8 20 8Z" fill="#EAEAEA"/>
<path d="M21.5625 28.75H18.4375C17.9062 28.75 17.5 28.3438 17.5 27.8125C17.5 27.2812 17.9062 26.875 18.4375 26.875H21.5625C22.0938 26.875 22.5 27.2812 22.5 27.8125C22.5 28.3438 22.0938 28.75 21.5625 28.75Z" fill="black"/>
<path d="M20 20.9375C19.4688 20.9375 19.0625 20.5312 19.0625 20V10.625C19.0625 10.0938 19.4688 9.6875 20 9.6875C20.5312 9.6875 20.9375 10.0938 20.9375 10.625V20C20.9375 20.5312 20.5312 20.9375 20 20.9375Z" fill="black"/>
<path d="M26.25 20.9375H20C19.4688 20.9375 19.0625 20.5312 19.0625 20C19.0625 19.4688 19.4688 19.0625 20 19.0625H26.25C26.7812 19.0625 27.1875 19.4688 27.1875 20C27.1875 20.5312 26.7812 20.9375 26.25 20.9375Z" fill="black"/>
<path d="M20 18.125C19.5027 18.125 19.0258 18.3225 18.6742 18.6742C18.3225 19.0258 18.125 19.5027 18.125 20C18.125 20.4973 18.3225 20.9742 18.6742 21.3258C19.0258 21.6775 19.5027 21.875 20 21.875C20.4973 21.875 20.9742 21.6775 21.3258 21.3258C21.6775 20.9742 21.875 20.4973 21.875 20C21.875 19.5027 21.6775 19.0258 21.3258 18.6742C20.9742 18.3225 20.4973 18.125 20 18.125Z" fill="black"/>
<path d="M20 35.7812C11.3125 35.7812 4.21875 28.6875 4.21875 20C4.21875 11.3125 11.3125 4.21875 20 4.21875C28.6875 4.21875 35.7812 11.3125 35.7812 20C35.7812 28.6875 28.6875 35.7812 20 35.7812ZM20 6.09375C12.3438 6.09375 6.09375 12.3438 6.09375 20C6.09375 27.6562 12.3438 33.9062 20 33.9062C27.6562 33.9062 33.9062 27.6562 33.9062 20C33.9062 12.3438 27.6562 6.09375 20 6.09375Z" fill="black"/>
</svg>
