<svg width="40" height="40" viewBox="0 0 40 40" fill="none" xmlns="http://www.w3.org/2000/svg">
<path d="M27.5309 33H12.4691C11.1111 33 10 31.785 10 30.3V8.7C10 7.215 11.1111 6 12.4691 6H27.5309C28.8889 6 30 7.215 30 8.7V30.3C30 31.785 28.8889 33 27.5309 33Z" fill="#EAEAEA"/>
<path d="M12 9H28.2448V12.9946H12V9ZM26.6469 18.3208H13.0652C12.6125 18.3208 12.2663 17.9746 12.2663 17.5218C12.2663 17.0691 12.6125 16.7229 13.0652 16.7229H26.6469C27.0996 16.7229 27.4458 17.0691 27.4458 17.5218C27.4458 17.9746 27.0996 18.3208 26.6469 18.3208ZM26.6469 22.3154H13.0652C12.6125 22.3154 12.2663 21.9692 12.2663 21.5165C12.2663 21.0637 12.6125 20.7175 13.0652 20.7175H26.6469C27.0996 20.7175 27.4458 21.0637 27.4458 21.5165C27.4458 21.9692 27.0996 22.3154 26.6469 22.3154ZM20.1224 26.31H13.0652C12.6125 26.31 12.2663 25.9638 12.2663 25.5111C12.2663 25.0584 12.6125 24.7122 13.0652 24.7122H20.1224C20.5751 24.7122 20.9213 25.0584 20.9213 25.5111C20.9213 25.9638 20.5751 26.31 20.1224 26.31Z" fill="black"/>
<path d="M29.5312 35.9375H10.4688C8.21875 35.9375 6.40625 34.125 6.40625 31.875V6.875C6.40625 4.625 8.21875 2.8125 10.4688 2.8125H29.5312C31.7812 2.8125 33.5938 4.625 33.5938 6.875V31.875C33.5938 34.125 31.7812 35.9375 29.5312 35.9375ZM10.4688 4.6875C9.25 4.6875 8.28125 5.65625 8.28125 6.875V31.875C8.28125 33.0938 9.25 34.0625 10.4688 34.0625H29.5312C30.75 34.0625 31.7188 33.0938 31.7188 31.875V6.875C31.7188 5.65625 30.75 4.6875 29.5312 4.6875H10.4688Z" fill="black"/>
</svg>
