<svg width="40" height="40" viewBox="0 0 40 40" fill="none" xmlns="http://www.w3.org/2000/svg">
<path d="M21.9537 38.8536V35.7962C21.9537 34.7122 22.3706 33.6838 23.0933 32.9056L30.57 24.9842C31.5984 23.9002 31.654 22.2047 30.6534 21.1207C29.5416 19.9256 27.6794 19.9534 26.5954 21.0929L22.8431 25.0675C23.2045 24.5672 23.5658 24.0947 23.9549 23.6222L30.9313 15.5618C32.0431 14.2833 31.9041 12.3655 30.6256 11.2537C29.347 10.1419 27.4292 10.2809 26.3174 11.5594L19.341 19.6198C19.1743 19.8144 19.0075 20.009 18.8407 20.2313C19.3132 19.3697 19.8413 18.5081 20.425 17.702L25.567 10.3087C26.5398 8.91897 26.1785 7.02895 24.8165 6.05615C23.4268 5.08334 21.5368 5.44467 20.564 6.8066L15.3942 14.1999C15.1163 14.6168 14.8383 15.0338 14.5604 15.4507L17.3676 10.0585C18.1459 8.55764 17.6456 6.66762 16.1725 5.86158C14.6716 5.02775 12.7815 5.61143 12.0033 7.14013L9.14047 12.6712C7.52839 15.7286 6.38882 19.0361 5.72175 22.4271L4.88792 26.4295C4.24865 29.5147 4.02629 32.6832 4.24865 35.824L3.60938 38.8536V39.6874H21.9537V38.8536Z" fill="white"/>
<path d="M21.9545 39.6875C21.482 39.6875 21.1207 39.3261 21.1207 38.8536V35.7963C21.1207 34.4899 21.621 33.267 22.5104 32.322L30.0427 24.3449C30.7653 23.5667 30.7376 22.3437 29.9593 21.5933C29.5702 21.232 29.0977 21.0374 28.5696 21.0652C28.0415 21.093 27.569 21.2876 27.2077 21.6767L23.4554 25.6513C23.1497 25.957 22.6494 26.0126 22.3158 25.7347C21.9823 25.4567 21.8989 24.9564 22.1491 24.6229C22.5382 24.0948 22.9273 23.5667 23.3164 23.122L30.2928 15.0616C31.0989 14.1444 30.9877 12.7269 30.0705 11.9208C29.1533 11.1148 27.7358 11.226 26.9297 12.1432L19.9533 20.2036C19.8143 20.3703 19.6754 20.5371 19.5364 20.7317L19.4808 20.7873C19.2029 21.1208 18.7304 21.2042 18.369 20.954C18.0077 20.7039 17.8965 20.2314 18.1189 19.87C18.6192 18.9528 19.1751 18.0912 19.731 17.2574L24.8729 9.86404C25.2065 9.36374 25.3454 8.78005 25.2343 8.19637C25.1231 7.61269 24.8173 7.11239 24.317 6.75106C23.8167 6.41753 23.2331 6.27855 22.6494 6.38973C22.0657 6.50091 21.5654 6.80665 21.2041 7.30695L16.0899 14.7003C15.8397 15.0616 15.5618 15.4507 15.2838 15.9232C15.0337 16.3123 14.5612 16.4235 14.1721 16.2012C13.7829 15.9788 13.644 15.4785 13.8385 15.0894L16.7014 9.58609C16.9793 9.058 17.0349 8.44652 16.8403 7.89063C16.6736 7.33474 16.2844 6.86224 15.7564 6.58429C15.2283 6.30635 14.6168 6.25076 14.0609 6.44532C13.505 6.61209 13.0325 7.00121 12.7546 7.5293L9.86393 13.0604C8.30744 16.0344 7.16787 19.2586 6.5286 22.5939C6.44521 23.0386 6.0005 23.3443 5.55579 23.261C5.11108 23.1776 4.80534 22.7329 4.88873 22.2882C5.58359 18.8139 6.75095 15.4507 8.39083 12.3099L11.2814 6.75106C11.754 5.83384 12.56 5.13898 13.5606 4.83324C14.5612 4.5275 15.6174 4.61089 16.5346 5.08339C17.4518 5.5559 18.1467 6.36194 18.4524 7.36254C18.5358 7.61269 18.5914 7.86284 18.6192 8.14078L19.8699 6.33414C20.4536 5.47252 21.343 4.91663 22.3714 4.72207C23.3998 4.5275 24.4282 4.77765 25.2898 5.36134C26.1515 5.94502 26.7074 6.83444 26.9019 7.86284C27.0409 8.69667 26.9297 9.50271 26.5684 10.2532C27.9859 9.36374 29.8481 9.47492 31.1545 10.6145C32.7665 12.0042 32.9611 14.4779 31.5714 16.09L28.7364 19.3975C29.6258 19.4253 30.4596 19.7589 31.1267 20.3703C32.572 21.7323 32.6276 24.0392 31.2656 25.4845L23.7334 33.4615C23.1497 34.1008 22.8161 34.9068 22.8161 35.7685V38.8259C22.7883 39.3262 22.427 39.6875 21.9545 39.6875Z" fill="black"/>
<path d="M13.3963 35.3125H25.9288C27.1463 35.3125 28.125 34.2535 28.125 32.9363V9.25125C28.125 7.93398 27.1463 6.875 25.9288 6.875L13.1337 6.90083C11.9162 6.90083 10.9375 7.95981 10.9375 9.27708L11.0091 32.7555C11.0091 34.1502 12.0833 35.3125 13.3963 35.3125Z" fill="white"/>
<path d="M12.1463 34.0625H24.6788C25.8963 34.0625 26.875 33.0035 26.875 31.6863V8.00125C26.875 6.68398 25.8963 5.625 24.6788 5.625L11.8837 5.65083C10.6662 5.65083 9.6875 6.70981 9.6875 8.02708L9.75911 31.5055C9.75911 32.9002 10.8333 34.0625 12.1463 34.0625Z" fill="#EAEAEA"/>
<path d="M19.1788 30.7935C18.8102 30.7935 18.4567 30.9399 18.1961 31.2005C17.9355 31.4611 17.7891 31.8146 17.7891 32.1832C17.7891 32.5518 17.9355 32.9052 18.1961 33.1659C18.4567 33.4265 18.8102 33.5729 19.1788 33.5729C19.5474 33.5729 19.9008 33.4265 20.1615 33.1659C20.4221 32.9052 20.5685 32.5518 20.5685 32.1832C20.5685 31.8146 20.4221 31.4611 20.1615 31.2005C19.9008 30.9399 19.5474 30.7935 19.1788 30.7935Z" fill="black"/>
<path d="M26.3434 36.9081H16.5598C16.0873 36.9081 15.726 36.5467 15.726 36.0742C15.726 35.6017 16.0873 35.2404 16.5598 35.2404H26.3434C27.2884 35.2404 28.0667 34.4621 28.0667 33.5171V8.05743C28.0667 7.11241 27.2884 6.33417 26.3434 6.33417H11.4456C10.5006 6.33417 9.72235 7.11241 9.72235 8.05743V17.7021C9.72235 18.1746 9.36103 18.5359 8.88852 18.5359C8.41602 18.5359 8.05469 18.1746 8.05469 17.7021V8.05743C8.05469 6.1952 9.58338 4.6665 11.4456 4.6665H26.3712C28.2335 4.6665 29.7621 6.1952 29.7621 8.05743V33.5449C29.7344 35.3794 28.2057 36.9081 26.3434 36.9081Z" fill="black"/>
<path d="M3.74626 38.8538C2.21756 32.3499 4.74686 26.9022 8.94382 22.205L10.1112 20.8986C11.0284 19.8702 12.6127 19.7591 13.6411 20.6763C14.6695 21.5935 14.7807 23.1778 13.8634 24.2062L12.6683 25.5125C9.5275 29.0424 9.77765 32.4611 11.8622 36.0744" fill="white"/>
<path d="M3.75011 39.6875C3.36099 39.6875 3.02746 39.4374 2.94407 39.0483C1.55435 33.0169 3.3054 27.319 8.33619 21.6489L9.50356 20.3426C10.0872 19.6755 10.9211 19.2864 11.8105 19.2308C12.6999 19.1752 13.5615 19.481 14.2286 20.0647C14.8957 20.6483 15.2848 21.4822 15.3404 22.3716C15.396 23.261 15.0902 24.1226 14.5066 24.7897L13.3114 26.0683C10.6987 29.0145 10.4764 31.9885 12.5887 35.6573C12.8111 36.0465 12.6721 36.5745 12.283 36.7969C11.8939 37.0193 11.3658 36.8803 11.1434 36.4912C8.64193 32.1552 8.91988 28.4864 12.0606 24.9565L13.228 23.6501C13.5338 23.3166 13.6727 22.8997 13.6449 22.455C13.6171 22.0103 13.4226 21.5933 13.089 21.3154C12.7555 21.0375 12.3386 20.8707 11.8939 20.8985C11.4492 20.9263 11.0323 21.1208 10.7543 21.4544L9.58694 22.7607C4.94527 27.9861 3.3054 33.2114 4.58394 38.6591C4.69512 39.1038 4.41718 39.5486 3.97247 39.6597C3.86129 39.6875 3.8057 39.6875 3.75011 39.6875Z" fill="black"/>
<path d="M38.9062 10.4694C38.8437 15.6257 34.5 19.6882 29.375 19.6882H21.125C20.6562 19.6882 20.3125 19.3132 20.3125 18.8444V10.5007C20.3125 5.34441 24.375 1.00066 29.4687 0.906908C34.7187 0.875658 39 5.15691 38.9062 10.4694Z" fill="white"/>
<path d="M29.4063 20.6257H21.125C20.1562 20.6257 19.375 19.8444 19.375 18.8444V10.5319C19.375 4.81317 23.9063 0.0944202 29.4688 0.000670191C32.25 -0.0305798 34.875 1.03192 36.8438 3.00067C38.8438 5.00067 39.9063 7.65692 39.875 10.4694C39.7813 16.0632 35.0625 20.6257 29.4063 20.6257ZM21.2188 18.7507H29.375C34.0313 18.7507 37.9063 15.0319 37.9688 10.4382C38 8.12567 37.125 5.93817 35.5 4.31317C33.875 2.68817 31.75 1.84442 29.4688 1.87567C24.9375 1.93817 21.2188 5.84442 21.2188 10.5319V18.7507Z" fill="black"/>
<path d="M29.4062 13.438H25.25C24.7188 13.438 24.3125 13.0317 24.3125 12.5005C24.3125 11.9692 24.7188 11.563 25.25 11.563H29.375C29.9063 11.563 30.3125 11.9692 30.3125 12.5005C30.3125 13.0317 29.9062 13.438 29.4062 13.438ZM33.1562 13.438H33.0938C32.5625 13.438 32.1563 13.0317 32.1563 12.5005C32.1563 11.9692 32.5625 11.563 33.0938 11.563H33.1562C33.6875 11.563 34.0938 11.9692 34.0938 12.5005C34.0938 13.0317 33.6562 13.438 33.1562 13.438ZM33.4688 10.313H25.1875C24.6562 10.313 24.25 9.90674 24.25 9.37549C24.25 8.84424 24.6562 8.43799 25.1875 8.43799H33.4688C34 8.43799 34.4062 8.84424 34.4062 9.37549C34.4062 9.90674 33.9688 10.313 33.4688 10.313Z" fill="black"/>
</svg>
