<svg width="80" height="15" viewBox="0 0 80 15" fill="none" xmlns="http://www.w3.org/2000/svg">
<path d="M0 7.5C0 11.6421 3.35786 15 7.5 15C11.6421 15 15 11.6421 15 7.5C15 3.35786 11.6421 0 7.5 0C3.35786 0 0 3.35786 0 7.5Z" fill="#00B67A"/>
<path d="M16.25 7.5C16.25 11.6421 19.6079 15 23.75 15C27.8921 15 31.25 11.6421 31.25 7.5C31.25 3.35787 27.8921 0 23.75 0C19.6079 0 16.25 3.35787 16.25 7.5Z" fill="#00B67A"/>
<path d="M32.5 7.5C32.5 11.6421 35.8579 15 40 15C44.1421 15 47.5 11.6421 47.5 7.5C47.5 3.35786 44.1421 0 40 0C35.8579 0 32.5 3.35786 32.5 7.5Z" fill="#00B67A"/>
<path d="M48.75 7.5C48.75 11.6421 52.1079 15 56.25 15C60.3921 15 63.75 11.6421 63.75 7.5C63.75 3.35786 60.3921 0 56.25 0C52.1079 0 48.75 3.35786 48.75 7.5Z" fill="#00B67A"/>
<path d="M65.375 7.31183C65.375 11.35 68.6486 14.6237 72.6868 14.6237C76.725 14.6237 79.9987 11.35 79.9987 7.31183C79.9987 3.27362 76.725 0 72.6868 0C68.6486 0 65.375 3.27362 65.375 7.31183Z" fill="#00B67A"/>
<mask id="mask0_1_34539" style="mask-type:alpha" maskUnits="userSpaceOnUse" x="65" y="0" width="15" height="15">
<path d="M65.375 7.31183C65.375 11.35 68.6486 14.6237 72.6868 14.6237C76.725 14.6237 79.9987 11.35 79.9987 7.31183C79.9987 3.27362 76.725 0 72.6868 0C68.6486 0 65.375 3.27362 65.375 7.31183Z" fill="#00B67A"/>
</mask>
<g mask="url(#mask0_1_34539)">
<path d="M80 0H72.5V15H80V0Z" fill="#DCDCE6"/>
</g>
<path d="M7.5 10.1095L9.78125 9.53137L10.7344 12.4689L7.5 10.1095ZM12.75 6.31262H8.73438L7.5 2.53137L6.26562 6.31262H2.25L5.5 8.65637L4.26562 12.4376L7.51562 10.0939L9.51562 8.65637L12.75 6.31262Z" fill="white"/>
<path d="M23.75 10.1095L26.0312 9.53137L26.9844 12.4689L23.75 10.1095ZM29 6.31262H24.9844L23.75 2.53137L22.5156 6.31262H18.5L21.75 8.65637L20.5156 12.4376L23.7656 10.0939L25.7656 8.65637L29 6.31262Z" fill="white"/>
<path d="M40 10.1095L42.2813 9.53137L43.2344 12.4689L40 10.1095ZM45.25 6.31262H41.2344L40 2.53137L38.7656 6.31262H34.75L38 8.65637L36.7656 12.4376L40.0156 10.0939L42.0156 8.65637L45.25 6.31262Z" fill="white"/>
<path d="M56.25 10.1095L58.5313 9.53137L59.4844 12.4689L56.25 10.1095ZM61.5 6.31262H57.4844L56.25 2.53137L55.0156 6.31262H51L54.25 8.65637L53.0156 12.4376L56.2656 10.0939L58.2656 8.65637L61.5 6.31262Z" fill="white"/>
<path d="M72.5 10.1095L74.7813 9.53137L75.7344 12.4689L72.5 10.1095ZM77.75 6.31262H73.7344L72.5 2.53137L71.2656 6.31262H67.25L70.5 8.65637L69.2656 12.4376L72.5156 10.0939L74.5156 8.65637L77.75 6.31262Z" fill="white"/>
</svg>
