<svg width="135" height="40" viewBox="0 0 135 40" fill="none" xmlns="http://www.w3.org/2000/svg">
<rect width="135" height="40" rx="5" fill="black"/>
<path fill-rule="evenodd" clip-rule="evenodd" d="M74.6816 29.0762C73.0469 29.0762 71.8506 28.2676 71.7129 27.0362L69.8105 27.0361C69.9306 29.2822 71.79 30.7031 74.5439 30.7031C77.4873 30.7031 79.3379 29.248 79.3379 26.9248C79.3379 25.1084 78.2793 24.0849 75.7314 23.4824L74.3633 23.1465C72.7627 22.751 72.1084 22.2344 72.1084 21.3565C72.1084 20.2549 73.1328 19.4981 74.6299 19.4981C76.1269 19.4981 77.1513 20.2461 77.2636 21.4854H79.1396C79.0791 19.3428 77.2802 17.8711 74.6562 17.8711C72.0049 17.8711 70.1377 19.3428 70.1377 21.4854C70.1377 23.2158 71.1963 24.2822 73.4766 24.833L75.0859 25.2207C76.6953 25.6162 77.375 26.1934 77.375 27.1572C77.375 28.2676 76.248 29.0762 74.6816 29.0762ZM42.3047 27.1397H37.5713L36.4346 30.4962H34.4297L38.9131 18.0782H40.9961L45.4795 30.4962H43.4404L42.3047 27.1397ZM38.0615 25.5909H41.8135L39.9639 20.1436H39.9121L38.0615 25.5909ZM51.3838 30.5909C53.6562 30.5909 55.1621 28.7833 55.1621 25.9698C55.1621 23.1641 53.6474 21.3477 51.3496 21.3477C50.1672 21.3096 49.0596 21.9245 48.4668 22.9483H48.4326V21.4424H46.6338V33.4913H48.4922V29.0069H48.5352C49.1027 30.0371 50.2092 30.6523 51.3838 30.5909ZM53.2519 25.9698C53.2519 24.1368 52.3047 22.9317 50.8594 22.9317C49.4394 22.9317 48.4844 24.1622 48.4844 25.9698C48.4844 27.794 49.4394 29.0157 50.8594 29.0157C52.3047 29.0157 53.2519 27.8194 53.2519 25.9698ZM61.3486 30.5909C63.6211 30.5909 65.1269 28.7833 65.1269 25.9698C65.1269 23.1641 63.6123 21.3477 61.3144 21.3477C60.132 21.3096 59.0244 21.9245 58.4316 22.9483H58.3974V21.4424H56.5986V33.4913H58.457V29.0069H58.5C59.0676 30.0371 60.174 30.6523 61.3486 30.5909ZM63.2168 25.9698C63.2168 24.1368 62.2695 22.9317 60.8242 22.9317C59.4043 22.9317 58.4492 24.1622 58.4492 25.9698C58.4492 27.794 59.4043 29.0157 60.8242 29.0157C62.2695 29.0157 63.2168 27.8194 63.2168 25.9698ZM83.3486 19.2999V21.4424H85.0703V22.9141H83.3486V27.9053C83.3486 28.6807 83.6934 29.042 84.4502 29.042C84.6546 29.0385 84.8586 29.0241 85.0615 28.999V30.4619C84.7212 30.5255 84.3754 30.5543 84.0293 30.5479C82.1963 30.5479 81.4814 29.8594 81.4814 28.1035V22.9141H80.165V21.4424H81.4814V19.2999H83.3486ZM90.3614 21.3311C87.7451 21.3311 86.0674 23.1212 86.0674 25.9698C86.0674 28.8262 87.7285 30.6085 90.3614 30.6085C92.9952 30.6085 94.6563 28.8262 94.6563 25.9698C94.6563 23.1211 92.9864 21.3311 90.3614 21.3311ZM92.7627 25.9698C92.7627 24.0157 91.8672 22.8624 90.3614 22.8624C88.8555 22.8624 87.961 24.0245 87.961 25.9698C87.961 27.9317 88.8555 29.0762 90.3614 29.0762C91.8672 29.0762 92.7627 27.9317 92.7627 25.9698H92.7627ZM97.9609 21.4424H96.1885L96.1885 30.4961H98.0469V25.126C97.985 24.5827 98.1637 24.0395 98.536 23.6391C98.9083 23.2386 99.437 23.0208 99.9834 23.043C100.266 23.0348 100.548 23.0727 100.818 23.1553V21.417C100.609 21.3702 100.396 21.3469 100.182 21.3477C99.1601 21.3087 98.2511 21.9914 98.0039 22.9834H97.9609V21.4424ZM109.387 27.837C109.137 29.4805 107.536 30.6084 105.488 30.6084C102.854 30.6084 101.22 28.8438 101.22 26.0127C101.22 23.1729 102.863 21.3311 105.41 21.3311C107.915 21.3311 109.49 23.0518 109.49 25.7969V26.4336H103.096V26.5459C103.036 27.22 103.269 27.8872 103.735 28.3778C104.201 28.8685 104.855 29.1353 105.531 29.1104C106.433 29.1949 107.283 28.677 107.622 27.837L109.387 27.837ZM107.631 25.1348H103.104C103.103 24.5236 103.346 23.937 103.779 23.5055C104.212 23.074 104.799 22.8333 105.41 22.837C106.017 22.8239 106.601 23.0645 107.023 23.5007C107.444 23.9369 107.665 24.5292 107.631 25.1348Z" fill="white"/>
<path fill-rule="evenodd" clip-rule="evenodd" d="M59.0947 8.43701H59.9834V14.6978H59.0947V8.43701ZM39.9327 9.54888C39.3888 8.97456 38.6161 8.6744 37.8271 8.73101H35.6719V14.6979H37.8271C39.6045 14.6979 40.6348 13.6021 40.6348 11.6959C40.7342 10.9112 40.4766 10.1232 39.9327 9.54888ZM37.7236 13.854H36.5986V9.57422H37.7236C38.2845 9.5431 38.8298 9.76423 39.2106 10.1771C39.5914 10.5901 39.7677 11.1515 39.6914 11.708C39.7737 12.2668 39.5999 12.833 39.2182 13.2493C38.8364 13.6656 38.2874 13.8877 37.7236 13.854ZM41.6816 12.4444C41.6044 11.6372 41.9914 10.8561 42.6804 10.4286C43.3693 10.0011 44.241 10.0011 44.93 10.4286C45.6189 10.8561 46.0059 11.6372 45.9287 12.4444C46.0074 13.2523 45.6207 14.035 44.9312 14.4634C44.2416 14.8918 43.3687 14.8918 42.6792 14.4634C41.9896 14.035 41.603 13.2523 41.6816 12.4444ZM43.8066 10.8975C44.5762 10.8975 45.0146 11.4683 45.0146 12.4444H45.0146C45.0146 13.4243 44.5762 13.9946 43.8066 13.9947C43.0342 13.9947 42.5996 13.4283 42.5996 12.4444C42.5996 11.4683 43.0342 10.8975 43.8066 10.8975ZM51.5742 14.6978H50.6523L49.7217 11.3814H49.6514L48.7246 14.6978H47.8115L46.5703 10.1948H47.4717L48.2783 13.6308H48.3447L49.2705 10.1948H50.1231L51.0488 13.6308H51.1191L51.9219 10.1948H52.8105L51.5742 14.6978ZM54.71 10.1948H53.8545L53.8545 14.6978H54.7432V12.0635C54.7113 11.7638 54.8118 11.4652 55.0185 11.2458C55.2252 11.0265 55.5173 10.9084 55.8184 10.9224C56.4756 10.9224 56.79 11.2822 56.79 12.0059V14.6977H57.6787V11.7827C57.7438 11.3424 57.6052 10.8964 57.302 10.5706C56.9988 10.2448 56.5639 10.0745 56.1201 10.1079C55.5469 10.0613 55.0073 10.3835 54.7764 10.9102H54.71V10.1948ZM62.2177 10.4285C61.5287 10.8561 61.1416 11.6372 61.2187 12.4444C61.1402 13.2524 61.5269 14.035 62.2165 14.4634C62.9061 14.8918 63.779 14.8918 64.4686 14.4634C65.1582 14.035 65.5449 13.2524 65.4663 12.4444C65.5435 11.6372 65.1564 10.8561 64.4674 10.4285C63.7784 10.001 62.9066 10.001 62.2177 10.4285ZM64.5517 12.4444C64.5517 11.4683 64.1133 10.8975 63.3437 10.8975C62.5713 10.8975 62.1367 11.4683 62.1367 12.4444C62.1367 13.4283 62.5713 13.9947 63.3437 13.9947C64.1133 13.9946 64.5518 13.4243 64.5517 12.4444ZM68.0767 12.0801C67.0054 12.1465 66.4019 12.6138 66.4019 13.4243C66.4034 13.8087 66.5674 14.1744 66.8534 14.4312C67.1393 14.6879 67.5206 14.8117 67.9028 14.772C68.4481 14.7972 68.9648 14.5271 69.2554 14.065H69.3257V14.6978H70.1812V11.6211C70.1812 10.6699 69.5444 10.1079 68.4155 10.1079C67.394 10.1079 66.6665 10.604 66.5757 11.3775H67.436C67.5347 11.0591 67.8784 10.877 68.3745 10.877C68.9819 10.877 69.2964 11.1455 69.2964 11.6211V12.0098L68.0767 12.0801ZM69.2964 13.0396V12.6631L68.1968 12.7334C67.5767 12.7749 67.2954 12.9859 67.2954 13.3828C67.2954 13.7881 67.647 14.0239 68.1304 14.0239C68.4166 14.0529 68.7023 13.9645 68.9221 13.7789C69.1419 13.5934 69.2769 13.3266 69.2964 13.0396ZM73.2183 10.1201C72.0806 10.1201 71.3491 11.0215 71.3491 12.4444C71.3491 13.8706 72.0728 14.772 73.2183 14.772C73.799 14.7934 74.3437 14.4907 74.6323 13.9863H74.7026V14.6978H75.5542V8.43701H74.6655V10.9101H74.5991C74.3308 10.4015 73.7927 10.0937 73.2183 10.1201ZM72.2671 12.4444C72.2671 13.3994 72.7173 13.9741 73.4702 13.9741C74.2192 13.9741 74.6822 13.3911 74.6822 12.4483C74.6822 11.5098 74.2144 10.9185 73.4702 10.9185C72.7222 10.9185 72.2671 11.4971 72.2671 12.4444H72.2671ZM80.2297 10.4286C79.5408 10.8561 79.1537 11.6372 79.231 12.4444C79.1523 13.2523 79.5389 14.035 80.2285 14.4634C80.918 14.8918 81.791 14.8918 82.4805 14.4634C83.17 14.035 83.5567 13.2523 83.478 12.4444C83.5552 11.6372 83.1682 10.8561 82.4793 10.4286C81.7904 10.0011 80.9186 10.0011 80.2297 10.4286ZM82.564 12.4444C82.564 11.4683 82.1255 10.8975 81.356 10.8975C80.5835 10.8975 80.149 11.4683 80.149 12.4444C80.149 13.4283 80.5835 13.9947 81.356 13.9947C82.1255 13.9946 82.564 13.4243 82.564 12.4444ZM85.5259 10.1948H84.6704V14.6978H85.5591V12.0635C85.5272 11.7638 85.6278 11.4652 85.8344 11.2458C86.0411 11.0265 86.3332 10.9084 86.6343 10.9224C87.2915 10.9224 87.606 11.2822 87.606 12.0059V14.6977H88.4946V11.7827C88.5598 11.3424 88.4212 10.8964 88.118 10.5706C87.8148 10.2448 87.3799 10.0745 86.936 10.1079C86.3629 10.0613 85.8232 10.3835 85.5923 10.9102H85.5259V10.1948ZM93.5161 9.07374V10.2153H94.4917V10.9639H93.5161V13.2793C93.5161 13.751 93.7105 13.9575 94.1528 13.9575C94.2661 13.9572 94.3792 13.9503 94.4917 13.937V14.6773C94.3321 14.7058 94.1704 14.721 94.0083 14.7227C93.02 14.7227 92.6265 14.375 92.6265 13.5068V10.9638H91.9116V10.2153H92.6265V9.07374H93.5161ZM96.5864 8.43701H95.7056L95.7056 14.6977H96.5943V12.0679C96.5668 11.7589 96.6771 11.4535 96.8957 11.2334C97.1143 11.0133 97.4189 10.9009 97.7281 10.9263C98.356 10.9263 98.691 11.2905 98.691 12.0098V14.6978H99.5805V11.7905C99.6394 11.3525 99.4998 10.9111 99.1999 10.5864C98.9001 10.2618 98.471 10.0878 98.0297 10.1118C97.4478 10.0646 96.8988 10.3872 96.6567 10.9185H96.5864V8.43701ZM104.762 13.4819C104.513 14.3313 103.691 14.8801 102.811 14.7847C102.211 14.8005 101.634 14.5516 101.233 14.1041C100.832 13.6565 100.649 13.0555 100.731 12.4605C100.651 11.8638 100.834 11.2618 101.232 10.8105C101.631 10.3591 102.205 10.1028 102.807 10.1079C104.06 10.1079 104.816 10.9639 104.816 12.3779V12.688H101.636V12.7378C101.608 13.072 101.722 13.4025 101.951 13.6481C102.179 13.8936 102.5 14.0315 102.835 14.0278C103.27 14.08 103.693 13.8643 103.907 13.4819L104.762 13.4819ZM103.911 12.0308H101.636C101.632 11.7203 101.754 11.4213 101.973 11.2017C102.193 10.982 102.492 10.8604 102.802 10.8643C103.109 10.8572 103.404 10.9799 103.615 11.2021C103.826 11.4242 103.933 11.7252 103.911 12.0308Z" fill="white"/>
<path fill-rule="evenodd" clip-rule="evenodd" d="M23.149 8.72021C23.2458 9.98445 22.846 11.2366 22.0344 12.2108C21.2471 13.1901 20.0541 13.7542 18.7977 13.7412C18.7178 12.5134 19.1292 11.3041 19.9414 10.3798C20.7639 9.44299 21.9091 8.85044 23.149 8.72021ZM27.1226 16.1486C25.6773 17.0371 24.7879 18.6042 24.7661 20.3006C24.7681 22.22 25.9176 23.9521 27.6853 24.6998C27.3453 25.8042 26.8329 26.8479 26.1669 27.7923C25.2725 29.1302 24.3348 30.4373 22.8464 30.4614C22.1385 30.4778 21.6607 30.2742 21.1628 30.0621C20.6434 29.8409 20.1022 29.6103 19.2554 29.6103C18.3572 29.6103 17.7918 29.8483 17.2465 30.0778C16.7752 30.2761 16.319 30.4682 15.676 30.4948C14.2585 30.5473 13.1752 29.0669 12.2483 27.7415C10.3957 25.0349 8.95314 20.1139 10.8871 16.7654C11.7953 15.1335 13.4934 14.0979 15.3601 14.0376C16.164 14.021 16.9354 14.3309 17.6117 14.6025C18.129 14.8103 18.5906 14.9957 18.9686 14.9957C19.3008 14.9957 19.7496 14.8176 20.2725 14.6101C21.0963 14.2831 22.1043 13.8831 23.1315 13.9909C24.7276 14.0408 26.2067 14.8405 27.1226 16.1486Z" fill="white"/>
</svg>
