<svg width="135" height="40" viewBox="0 0 135 40" fill="none" xmlns="http://www.w3.org/2000/svg">
<rect width="135" height="40" rx="5" fill="black"/>
<path fill-rule="evenodd" clip-rule="evenodd" d="M47.7421 23.0601V24.8601H52.0621C51.9943 25.7079 51.6419 26.5079 51.0621 27.1301C50.1881 28.0204 48.9786 28.4998 47.7321 28.4501C45.0811 28.4501 42.9321 26.3011 42.9321 23.6501C42.9321 20.9992 45.0811 18.8501 47.7321 18.8501C48.9498 18.8303 50.1258 19.2942 51.0021 20.1401L52.2721 18.8701C51.077 17.66 49.4428 16.9854 47.7421 17.0001C45.321 16.9059 43.0424 18.1438 41.8039 20.2262C40.5654 22.3086 40.5654 24.9017 41.8039 26.9841C43.0424 29.0665 45.321 30.3044 47.7421 30.2101C49.4738 30.2884 51.1548 29.6138 52.3521 28.3601C53.3997 27.2091 53.9591 25.6959 53.9121 24.1401C53.9153 23.7611 53.8818 23.3827 53.8121 23.0101L47.7421 23.0601ZM58.8321 21.7501C56.4862 21.7557 54.5884 23.6609 54.5921 26.0068C54.5957 28.3527 56.4995 30.252 58.8454 30.2501C61.1913 30.2483 63.092 28.346 63.0921 26.0001C63.1085 24.8645 62.6633 23.7708 61.8583 22.9696C61.0533 22.1684 59.9576 21.7283 58.8221 21.7501H58.8321ZM63.9121 26.0134C63.9047 23.6688 65.7975 21.7612 68.1421 21.7501C69.2776 21.7283 70.3733 22.1684 71.1783 22.9696C71.9833 23.7708 72.4285 24.8645 72.4121 26.0001C72.412 28.3447 70.5133 30.2464 68.1687 30.2501C65.8241 30.2537 63.9194 28.358 63.9121 26.0134ZM65.6341 27.1186C66.0907 28.0745 67.0853 28.654 68.1421 28.5801C68.8053 28.5648 69.4343 28.2821 69.8862 27.7963C70.3381 27.3105 70.5746 26.6628 70.5421 26.0001C70.5395 24.9408 69.8896 23.9907 68.9032 23.6042C67.9169 23.2178 66.7945 23.4735 66.073 24.2492C65.3515 25.0248 65.1774 26.1627 65.6341 27.1186ZM56.3174 27.1262C56.7773 28.0815 57.7747 28.6582 58.8321 28.5801H58.8221C59.4853 28.5648 60.1143 28.2821 60.5662 27.7963C61.0181 27.3105 61.2546 26.6628 61.222 26.0001C61.2192 24.9399 60.568 23.9894 59.5804 23.6038C58.5928 23.2182 57.4699 23.4761 56.7494 24.2538C56.0289 25.0316 55.8575 26.171 56.3174 27.1262ZM89.412 21.7501C91.07 21.8112 92.5181 22.8893 93.052 24.4601L93.2621 24.9101L87.572 27.2601C87.9287 28.0723 88.7456 28.5839 89.632 28.5501C90.4879 28.5523 91.2818 28.1041 91.722 27.3701L93.1721 28.3701C92.3827 29.5516 91.0529 30.2578 89.632 30.2501C88.5026 30.2667 87.415 29.8233 86.6191 29.0217C85.8232 28.2202 85.3875 27.1294 85.412 26.0001C85.3429 24.8967 85.7337 23.8138 86.4914 23.0087C87.2492 22.2035 88.3064 21.748 89.412 21.7501ZM87.2521 25.8801C87.2111 25.2553 87.4234 24.6403 87.841 24.1737C88.2587 23.7072 88.8465 23.4284 89.472 23.4001C90.1314 23.3567 90.7531 23.7108 91.0521 24.3001L87.2521 25.8801ZM84.502 30.0001H82.632V17.5001H84.502V30.0001ZM79.5721 22.7001H79.5021C78.932 22.0628 78.1171 21.699 77.2621 21.7001C74.9922 21.8102 73.2084 23.6826 73.2084 25.9551C73.2084 28.2277 74.9922 30.1001 77.2621 30.2101C78.1199 30.2246 78.9401 29.8584 79.5021 29.2101H79.5621V29.8201C79.5621 31.4501 78.6921 32.3201 77.2921 32.3201C76.3384 32.2978 75.4928 31.7012 75.1521 30.8101L73.5221 31.4901C74.1497 33.0169 75.6413 34.01 77.2921 34.0001C79.4821 34.0001 81.2921 32.7101 81.2921 29.5701V22.0001H79.5721V22.7001ZM77.429 28.5799L77.4321 28.5801H77.4221L77.429 28.5799ZM79.114 27.7779C78.6849 28.2636 78.0763 28.5531 77.429 28.5799C76.0934 28.4606 75.0694 27.3414 75.0694 26.0001C75.0694 24.6578 76.0949 23.538 77.4321 23.4201C78.0782 23.4533 78.6835 23.7459 79.1109 24.2316C79.5383 24.7174 79.7514 25.3551 79.702 26.0001C79.7572 26.6482 79.5447 27.2906 79.114 27.7779ZM101.812 17.5001H97.3421V30.0001H99.2121V25.2601H101.822C103.275 25.3645 104.664 24.6486 105.422 23.4051C106.18 22.1616 106.18 20.5987 105.422 19.3552C104.664 18.1116 103.275 17.3958 101.822 17.5001H101.812ZM99.202 23.5001H101.812L101.852 23.5301C103.037 23.5301 103.997 22.5698 103.997 21.3851C103.997 20.2005 103.037 19.2401 101.852 19.2401H99.202V23.5001ZM113.342 21.7001C111.951 21.617 110.643 22.3672 110.012 23.6101L111.672 24.3001C112.006 23.6838 112.673 23.323 113.372 23.3801C113.852 23.3241 114.334 23.4631 114.71 23.7658C115.086 24.0686 115.324 24.5097 115.372 24.9901V25.1201C114.771 24.8021 114.102 24.6373 113.422 24.6401C111.632 24.6401 109.822 25.6401 109.822 27.4501C109.858 28.2298 110.207 28.962 110.791 29.4799C111.375 29.9979 112.144 30.2577 112.922 30.2001C113.881 30.269 114.802 29.8089 115.322 29.0001H115.382V30.0001H117.182V25.1901C117.182 23.0001 115.522 21.7301 113.392 21.7301L113.342 21.7001ZM111.652 27.4901C111.652 28.2401 112.502 28.5501 113.112 28.5501L113.162 28.5801C114.289 28.5527 115.223 27.6996 115.352 26.5801C114.833 26.2905 114.246 26.1455 113.652 26.1601C112.712 26.1601 111.652 26.4901 111.652 27.4901ZM123.742 22.0001L121.602 27.4201H121.542L119.322 22.0001H117.322L120.652 29.5801L118.752 33.7901H120.702L125.822 22.0001H123.742ZM108.802 30.0001H106.932V17.5001H108.802V30.0001Z" fill="white"/>
<path fill-rule="evenodd" clip-rule="evenodd" d="M69.2092 7.76997C68.0295 9.01874 68.0295 10.9712 69.2092 12.22C70.4262 13.4302 72.3922 13.4302 73.6092 12.22C74.794 10.9732 74.794 9.01673 73.6092 7.76997C73.0272 7.18372 72.2353 6.854 71.4092 6.854C70.5831 6.854 69.7912 7.18372 69.2092 7.76997ZM46.6692 12.24C47.1825 11.7041 47.4535 10.9812 47.4192 10.24C47.4192 10.0891 47.4059 9.93849 47.3792 9.78997H44.4692V10.51H46.6392C46.6244 10.9635 46.4469 11.3965 46.1392 11.73C45.4538 12.3925 44.4371 12.5776 43.5621 12.1992C42.6872 11.8208 42.1258 10.9532 42.1392 9.99997C42.1174 9.36919 42.3536 8.75676 42.7932 8.30391C43.2329 7.85106 43.838 7.59687 44.4692 7.59997C45.0971 7.56566 45.7045 7.82865 46.1092 8.30997L46.6392 7.77997C46.3832 7.48553 46.061 7.25592 45.6992 7.10997C45.3105 6.94364 44.8919 6.85856 44.4692 6.85997C43.6398 6.84149 42.8397 7.1673 42.2592 7.75997C41.3657 8.65929 41.0984 10.0066 41.5809 11.1789C42.0633 12.3512 43.2015 13.12 44.4692 13.13C45.2957 13.1594 46.0956 12.8358 46.6692 12.24ZM49.2992 7.73997H51.9992V6.99997H48.4992V13H51.9992V12.26H49.2992V10.36H51.7592V9.63997H49.2992V7.73997ZM55.2792 13H54.5092V7.73997H52.8292V6.99997H56.9992V7.73997H55.2792V13ZM60.7092 6.99997H59.9392V13H60.7092V6.99997ZM64.1292 13H63.3592V7.73997H61.6792V6.99997H65.7992V7.73997H64.1292V13ZM76.5192 6.99997H75.5792V13H76.3592V8.10997L79.4092 13H80.2092V6.99997H79.4392V11.67L76.5192 6.99997ZM69.7792 11.72C70.6805 12.6175 72.1379 12.6175 73.0392 11.72C73.9244 10.7441 73.9244 9.2558 73.0392 8.27997C72.1379 7.38241 70.6805 7.38241 69.7792 8.27997C68.894 9.2558 68.894 10.7441 69.7792 11.72Z" fill="white"/>
<path d="M69.2092 12.22L69.1365 12.2887L69.1387 12.2909L69.2092 12.22ZM69.2092 7.76997L69.1382 7.6995L69.1365 7.7013L69.2092 7.76997ZM73.6092 12.22L73.6797 12.2909L73.6817 12.2889L73.6092 12.22ZM73.6092 7.76997L73.6817 7.70107L73.6802 7.69952L73.6092 7.76997ZM47.4192 10.24L47.3191 10.2399L47.3193 10.2446L47.4192 10.24ZM46.6692 12.24L46.7412 12.3093L46.7414 12.3091L46.6692 12.24ZM47.3792 9.78997L47.4776 9.77229L47.4628 9.68997H47.3792V9.78997ZM44.4692 9.78997V9.68997H44.3692V9.78997H44.4692ZM44.4692 10.51H44.3692V10.61H44.4692V10.51ZM46.6392 10.51L46.7391 10.5132L46.7425 10.41H46.6392V10.51ZM46.1392 11.73L46.2088 11.802L46.2127 11.7978L46.1392 11.73ZM43.5621 12.1992L43.5224 12.291H43.5224L43.5621 12.1992ZM42.1392 9.99997L42.2393 10.0014L42.2391 9.99652L42.1392 9.99997ZM42.7932 8.30391L42.7215 8.23425L42.7932 8.30391ZM44.4692 7.59997L44.4687 7.70015L44.4746 7.69982L44.4692 7.59997ZM46.1092 8.30997L46.0326 8.37432L46.1028 8.45778L46.1799 8.38068L46.1092 8.30997ZM46.6392 7.77997L46.7099 7.85068L46.7758 7.78474L46.7147 7.71436L46.6392 7.77997ZM45.6992 7.10997L45.6598 7.20193L45.6618 7.20271L45.6992 7.10997ZM44.4692 6.85997L44.467 6.95998L44.4695 6.95997L44.4692 6.85997ZM42.2592 7.75997L42.3301 7.83045L42.3306 7.82995L42.2592 7.75997ZM41.5809 11.1789L41.4884 11.2169L41.5809 11.1789ZM44.4692 13.13L44.4727 13.03L44.47 13.03L44.4692 13.13ZM51.9992 7.73997V7.83997H52.0992V7.73997H51.9992ZM49.2992 7.73997V7.63997H49.1992V7.73997H49.2992ZM51.9992 6.99997H52.0992V6.89997H51.9992V6.99997ZM48.4992 6.99997V6.89997H48.3992V6.99997H48.4992ZM48.4992 13H48.3992V13.1H48.4992V13ZM51.9992 13V13.1H52.0992V13H51.9992ZM51.9992 12.26H52.0992V12.16H51.9992V12.26ZM49.2992 12.26H49.1992V12.36H49.2992V12.26ZM49.2992 10.36V10.26H49.1992V10.36H49.2992ZM51.7592 10.36V10.46H51.8592V10.36H51.7592ZM51.7592 9.63997H51.8592V9.53997H51.7592V9.63997ZM49.2992 9.63997H49.1992V9.73997H49.2992V9.63997ZM54.5092 13H54.4092V13.1H54.5092V13ZM55.2792 13V13.1H55.3792V13H55.2792ZM54.5092 7.73997H54.6092V7.63997H54.5092V7.73997ZM52.8292 7.73997H52.7292V7.83997H52.8292V7.73997ZM52.8292 6.99997V6.89997H52.7292V6.99997H52.8292ZM56.9992 6.99997H57.0992V6.89997H56.9992V6.99997ZM56.9992 7.73997V7.83997H57.0992V7.73997H56.9992ZM55.2792 7.73997V7.63997H55.1792V7.73997H55.2792ZM59.9392 6.99997V6.89997H59.8392V6.99997H59.9392ZM60.7092 6.99997H60.8092V6.89997H60.7092V6.99997ZM59.9392 13H59.8392V13.1H59.9392V13ZM60.7092 13V13.1H60.8092V13H60.7092ZM63.3592 13H63.2592V13.1H63.3592V13ZM64.1292 13V13.1H64.2292V13H64.1292ZM63.3592 7.73997H63.4592V7.63997H63.3592V7.73997ZM61.6792 7.73997H61.5792V7.83997H61.6792V7.73997ZM61.6792 6.99997V6.89997H61.5792V6.99997H61.6792ZM65.7992 6.99997H65.8992V6.89997H65.7992V6.99997ZM65.7992 7.73997V7.83997H65.8992V7.73997H65.7992ZM64.1292 7.73997V7.63997H64.0292V7.73997H64.1292ZM75.5792 6.99997V6.89997H75.4792V6.99997H75.5792ZM76.5192 6.99997L76.604 6.94695L76.5746 6.89997H76.5192V6.99997ZM75.5792 13H75.4792V13.1H75.5792V13ZM76.3592 13V13.1H76.4592V13H76.3592ZM76.3592 8.10997L76.444 8.05705L76.2592 7.76069V8.10997H76.3592ZM79.4092 13L79.3243 13.0529L79.3537 13.1H79.4092V13ZM80.2092 13V13.1H80.3092V13H80.2092ZM80.2092 6.99997H80.3092V6.89997H80.2092V6.99997ZM79.4392 6.99997V6.89997H79.3392V6.99997H79.4392ZM79.4392 11.67L79.3544 11.723L79.5392 12.0185V11.67H79.4392ZM73.0392 11.72L73.1098 11.7909L73.1133 11.7872L73.0392 11.72ZM69.7792 11.72L69.705 11.7872L69.7086 11.7908L69.7792 11.72ZM73.0392 8.27997L73.1133 8.2127L73.1097 8.20911L73.0392 8.27997ZM69.7792 8.27997L69.7085 8.20902L69.7051 8.21278L69.7792 8.27997ZM69.2819 12.1513C68.1386 10.9411 68.1386 9.04887 69.2819 7.83864L69.1365 7.7013C67.9204 8.98861 67.9204 11.0013 69.1365 12.2886L69.2819 12.1513ZM73.5387 12.1491C72.3607 13.3205 70.4577 13.3205 69.2797 12.1491L69.1387 12.2909C70.3947 13.5399 72.4237 13.5399 73.6797 12.2909L73.5387 12.1491ZM73.5367 7.83886C74.6848 9.04702 74.6848 10.9429 73.5367 12.1511L73.6817 12.2889C74.9031 11.0035 74.9031 8.98644 73.6817 7.70109L73.5367 7.83886ZM71.4092 6.954C72.2086 6.954 72.975 7.27308 73.5382 7.84042L73.6802 7.69952C73.0794 7.09435 72.2619 6.754 71.4092 6.754V6.954ZM69.2802 7.84042C69.8434 7.27308 70.6098 6.954 71.4092 6.954V6.754C70.5565 6.754 69.739 7.09435 69.1382 7.69952L69.2802 7.84042ZM47.3193 10.2446C47.3524 10.9585 47.0913 11.6547 46.597 12.1708L46.7414 12.3091C47.2736 11.7535 47.5547 11.0039 47.5191 10.2353L47.3193 10.2446ZM47.2808 9.80765C47.3064 9.95032 47.3192 10.095 47.3192 10.2399L47.5192 10.24C47.5192 10.0832 47.5053 9.92666 47.4776 9.77229L47.2808 9.80765ZM44.4692 9.88997H47.3792V9.68997H44.4692V9.88997ZM44.5692 10.51V9.78997H44.3692V10.51H44.5692ZM46.6392 10.41H44.4692V10.61H46.6392V10.41ZM46.2127 11.7978C46.5367 11.4467 46.7235 10.9907 46.7391 10.5132L46.5392 10.5067C46.5252 10.9362 46.3571 11.3463 46.0657 11.6622L46.2127 11.7978ZM43.5224 12.291C44.4345 12.6855 45.4942 12.4925 46.2087 11.8019L46.0697 11.6581C45.4133 12.2925 44.4397 12.4698 43.6018 12.1074L43.5224 12.291ZM42.0392 9.99857C42.0252 10.9921 42.6104 11.8966 43.5224 12.291L43.6018 12.1074C42.7639 11.7451 42.2263 10.9142 42.2392 10.0014L42.0392 9.99857ZM42.7215 8.23425C42.2629 8.70662 42.0165 9.34545 42.0392 10.0034L42.2391 9.99652C42.2183 9.39293 42.4443 8.8069 42.865 8.37357L42.7215 8.23425ZM44.4697 7.49997C43.8113 7.49674 43.1801 7.76188 42.7215 8.23425L42.865 8.37357C43.2857 7.94023 43.8648 7.69701 44.4687 7.69997L44.4697 7.49997ZM46.1857 8.24562C45.7608 7.74023 45.123 7.46409 44.4637 7.50012L44.4746 7.69982C45.0711 7.66723 45.6482 7.91706 46.0326 8.37432L46.1857 8.24562ZM46.5685 7.70926L46.0385 8.23926L46.1799 8.38068L46.7099 7.85068L46.5685 7.70926ZM45.6618 7.20271C46.009 7.34276 46.3181 7.56306 46.5637 7.84559L46.7147 7.71436C46.4483 7.40799 46.1131 7.16909 45.7366 7.01723L45.6618 7.20271ZM44.4695 6.95997C44.8786 6.95861 45.2837 7.04094 45.6598 7.20191L45.7385 7.01804C45.3373 6.84634 44.9052 6.75852 44.4689 6.75997L44.4695 6.95997ZM42.3306 7.82995C42.8918 7.25703 43.6652 6.94208 44.467 6.95995L44.4714 6.76C43.6143 6.7409 42.7876 7.07757 42.1877 7.69L42.3306 7.82995ZM41.6734 11.1408C41.2062 10.0057 41.465 8.70122 42.3301 7.83045L42.1882 7.68949C41.2664 8.61736 40.9906 10.0074 41.4884 11.2169L41.6734 11.1408ZM44.47 13.03C43.2426 13.0204 42.1405 12.2759 41.6734 11.1408L41.4884 11.2169C41.9862 12.4265 43.1605 13.2197 44.4684 13.23L44.47 13.03ZM46.5971 12.1706C46.0433 12.7459 45.2708 13.0584 44.4727 13.03L44.4656 13.2299C45.3205 13.2603 46.148 12.9256 46.7412 12.3093L46.5971 12.1706ZM51.9992 7.63997H49.2992V7.83997H51.9992V7.63997ZM51.8992 6.99997V7.73997H52.0992V6.99997H51.8992ZM48.4992 7.09997H51.9992V6.89997H48.4992V7.09997ZM48.5992 13V6.99997H48.3992V13H48.5992ZM51.9992 12.9H48.4992V13.1H51.9992V12.9ZM51.8992 12.26V13H52.0992V12.26H51.8992ZM49.2992 12.36H51.9992V12.16H49.2992V12.36ZM49.1992 10.36V12.26H49.3992V10.36H49.1992ZM51.7592 10.26H49.2992V10.46H51.7592V10.26ZM51.6592 9.63997V10.36H51.8592V9.63997H51.6592ZM49.2992 9.73997H51.7592V9.53997H49.2992V9.73997ZM49.1992 7.73997V9.63997H49.3992V7.73997H49.1992ZM54.5092 13.1H55.2792V12.9H54.5092V13.1ZM54.4092 7.73997V13H54.6092V7.73997H54.4092ZM52.8292 7.83997H54.5092V7.63997H52.8292V7.83997ZM52.7292 6.99997V7.73997H52.9292V6.99997H52.7292ZM56.9992 6.89997H52.8292V7.09997H56.9992V6.89997ZM57.0992 7.73997V6.99997H56.8992V7.73997H57.0992ZM55.2792 7.83997H56.9992V7.63997H55.2792V7.83997ZM55.3792 13V7.73997H55.1792V13H55.3792ZM59.9392 7.09997H60.7092V6.89997H59.9392V7.09997ZM60.0392 13V6.99997H59.8392V13H60.0392ZM60.7092 12.9H59.9392V13.1H60.7092V12.9ZM60.6092 6.99997V13H60.8092V6.99997H60.6092ZM63.3592 13.1H64.1292V12.9H63.3592V13.1ZM63.2592 7.73997V13H63.4592V7.73997H63.2592ZM61.6792 7.83997H63.3592V7.63997H61.6792V7.83997ZM61.5792 6.99997V7.73997H61.7792V6.99997H61.5792ZM65.7992 6.89997H61.6792V7.09997H65.7992V6.89997ZM65.8992 7.73997V6.99997H65.6992V7.73997H65.8992ZM64.1292 7.83997H65.7992V7.63997H64.1292V7.83997ZM64.2292 13V7.73997H64.0292V13H64.2292ZM75.5792 7.09997H76.5192V6.89997H75.5792V7.09997ZM75.6792 13V6.99997H75.4792V13H75.6792ZM76.3592 12.9H75.5792V13.1H76.3592V12.9ZM76.2592 8.10997V13H76.4592V8.10997H76.2592ZM79.494 12.947L76.444 8.05705L76.2743 8.16289L79.3243 13.0529L79.494 12.947ZM80.2092 12.9H79.4092V13.1H80.2092V12.9ZM80.1092 6.99997V13H80.3092V6.99997H80.1092ZM79.4392 7.09997H80.2092V6.89997H79.4392V7.09997ZM79.5392 11.67V6.99997H79.3392V11.67H79.5392ZM76.4344 7.05299L79.3544 11.723L79.524 11.617L76.604 6.94695L76.4344 7.05299ZM72.9686 11.6491C72.1063 12.5078 70.7121 12.5078 69.8497 11.6491L69.7086 11.7908C70.649 12.7273 72.1694 12.7273 73.1097 11.7908L72.9686 11.6491ZM72.9651 8.34716C73.8157 9.28487 73.8157 10.7151 72.9651 11.6528L73.1133 11.7872C74.033 10.7732 74.033 9.22673 73.1133 8.21278L72.9651 8.34716ZM69.8497 8.35083C70.7121 7.49212 72.1063 7.49212 72.9686 8.35083L73.1097 8.20911C72.1694 7.27269 70.649 7.27269 69.7086 8.20911L69.8497 8.35083ZM69.8533 11.6528C69.0026 10.7151 69.0026 9.28487 69.8533 8.34716L69.7051 8.21278C68.7853 9.22673 68.7853 10.7732 69.7051 11.7872L69.8533 11.6528Z" fill="white"/>
<path d="M10.4401 7.54021C10.1142 7.93132 9.9497 8.43201 9.98014 8.94021V31.0602C9.9497 31.5684 10.1142 32.0691 10.4401 32.4602L10.5101 32.5302L22.9001 20.1502V19.8602L10.5101 7.47021L10.4401 7.54021Z" fill="url(#paint0_linear_1_34646)"/>
<path d="M26.9984 24.2802L22.8984 20.1502V19.8602L26.9984 15.7202L27.0884 15.7702L31.9984 18.5602C33.3984 19.3502 33.3984 20.6502 31.9984 21.4502L27.1084 24.2302L26.9984 24.2802Z" fill="url(#paint1_linear_1_34646)"/>
<path d="M27.1175 24.22L22.8975 20L10.4375 32.46C11.0262 32.9775 11.8999 33.0027 12.5175 32.52L27.1275 24.22" fill="url(#paint2_linear_1_34646)"/>
<path d="M27.1197 15.7801L12.5097 7.48005C11.8921 6.99733 11.0184 7.02253 10.4297 7.54005L22.8997 20.0001L27.1197 15.7801Z" fill="url(#paint3_linear_1_34646)"/>
<path opacity="0.2" d="M26.9975 24.1299L12.5075 32.3799C11.9145 32.8232 11.1005 32.8232 10.5075 32.3799L10.4375 32.4499L10.5075 32.5199C11.0993 32.9666 11.9157 32.9666 12.5075 32.5199L27.1175 24.2199L26.9975 24.1299Z" fill="black"/>
<path opacity="0.12" fill-rule="evenodd" clip-rule="evenodd" d="M27.0001 24.13L32.0001 21.3C32.5169 21.045 32.8862 20.5648 33.0001 20C32.9486 20.6244 32.5672 21.1736 32.0001 21.44L27.0901 24.22L27.0001 24.13ZM9.97797 31.1147C9.99448 31.5546 10.156 31.979 10.4401 32.32L10.5101 32.4L10.4401 32.47C10.1238 32.0904 9.95948 31.6075 9.97797 31.1147ZM9.97797 31.1147C9.97853 31.0998 9.97925 31.0849 9.98014 31.07V30.92C9.97625 30.9851 9.97554 31.05 9.97797 31.1147Z" fill="black"/>
<path opacity="0.25" d="M12.5087 7.61994L31.9988 18.6999C32.5155 18.955 32.8848 19.4351 32.9988 19.9999C32.9472 19.3755 32.5658 18.8263 31.9988 18.5599L12.5087 7.47994C11.1087 6.68994 9.96875 7.34994 9.96875 8.94994V9.09994C9.99875 7.48994 11.1187 6.82994 12.5087 7.61994Z" fill="white"/>
<defs>
<linearGradient id="paint0_linear_1_34646" x1="17.4734" y1="-7.55876" x2="-2.36605" y2="-2.28242" gradientUnits="userSpaceOnUse">
<stop stop-color="#00A0FF"/>
<stop offset="0.01" stop-color="#00A1FF"/>
<stop offset="0.26" stop-color="#00BEFF"/>
<stop offset="0.51" stop-color="#00D2FF"/>
<stop offset="0.76" stop-color="#00DFFF"/>
<stop offset="1" stop-color="#00E3FF"/>
</linearGradient>
<linearGradient id="paint1_linear_1_34646" x1="33.8284" y1="9.7999" x2="9.63844" y2="9.7999" gradientUnits="userSpaceOnUse">
<stop stop-color="#FFE000"/>
<stop offset="0.41" stop-color="#FFBD00"/>
<stop offset="0.78" stop-color="#FFA500"/>
<stop offset="1" stop-color="#FF9C00"/>
</linearGradient>
<linearGradient id="paint2_linear_1_34646" x1="10.0714" y1="13.5275" x2="-5.86505" y2="40.3341" gradientUnits="userSpaceOnUse">
<stop stop-color="#FF3A44"/>
<stop offset="1" stop-color="#C31162"/>
</linearGradient>
<linearGradient id="paint3_linear_1_34646" x1="0.709706" y1="4.09606" x2="7.82299" y2="16.0665" gradientUnits="userSpaceOnUse">
<stop stop-color="#32A071"/>
<stop offset="0.07" stop-color="#2DA771"/>
<stop offset="0.48" stop-color="#15CF74"/>
<stop offset="0.8" stop-color="#06E775"/>
<stop offset="1" stop-color="#00F076"/>
</linearGradient>
</defs>
</svg>
