<svg width="41" height="43" viewBox="0 0 41 43" fill="none" xmlns="http://www.w3.org/2000/svg">
<path fill-rule="evenodd" clip-rule="evenodd" d="M37.7582 29.1171C39.0639 29.1171 40.2645 28.3383 40.6401 27.0878C40.739 26.7583 40.8301 26.4255 40.9131 26.0894C41.3649 24.2609 39.8575 22.6466 37.974 22.6466H3.01985C1.13638 22.6466 -0.370981 24.2609 0.0807262 26.0894C0.16374 26.4255 0.254834 26.7583 0.353789 27.0878C0.7294 28.3383 1.92993 29.1171 3.23565 29.1171H37.7582ZM34.3807 36.8238C36.3005 35.1349 34.8644 32.3523 32.3075 32.3523H8.68638C6.1295 32.3523 4.69336 35.1349 6.61313 36.8238C10.317 40.082 15.1762 42.0581 20.4969 42.0581C25.8177 42.0581 30.6769 40.082 34.3807 36.8238ZM3.23569 12.9409C1.92997 12.9409 0.72945 13.7197 0.353832 14.9702C0.254873 15.2997 0.163777 15.6325 0.0807598 15.9686C-0.370962 17.7971 1.1364 19.4114 3.01988 19.4114H37.974C39.8575 19.4114 41.3648 17.7971 40.9131 15.9686C40.8301 15.6325 40.739 15.2997 40.64 14.9702C40.2644 13.7197 39.0639 12.9409 37.7582 12.9409H3.23569ZM8.68651 9.70569C6.12961 9.70569 4.69349 6.92305 6.61328 5.23423C10.3171 1.97602 15.1763 0 20.4969 0C25.8176 0 30.6768 1.97602 34.3806 5.23423C36.3004 6.92305 34.8643 9.70569 32.3074 9.70569H8.68651Z" fill="url(#paint0_linear_1_34747)"/>
<defs>
<linearGradient id="paint0_linear_1_34747" x1="20.4969" y1="-2.88232e-10" x2="20.492" y2="38.0141" gradientUnits="userSpaceOnUse">
<stop stop-color="#F46F22"/>
<stop offset="1" stop-color="#F46F22" stop-opacity="0"/>
</linearGradient>
</defs>
</svg>
