<svg width="78" height="62" viewBox="0 0 78 62" fill="none" xmlns="http://www.w3.org/2000/svg">
<path fill-rule="evenodd" clip-rule="evenodd" d="M56.0679 58.4973C58.9969 58.234 61.8967 57.9993 64.8164 57.6508C65.4449 57.5781 65.8909 57.013 65.8167 56.3888C65.744 55.7604 65.1746 55.3128 64.5505 55.387C61.6466 55.7313 58.7714 55.9649 55.8627 56.2255C55.2344 56.2838 54.7725 56.8387 54.8279 57.4611C54.8862 58.0894 55.4397 58.5556 56.0679 58.4973Z" fill="#0C0C0C"/>
<path fill-rule="evenodd" clip-rule="evenodd" d="M42.0844 38.597C48.52 31.8938 54.6129 24.8696 60.9013 18.0335C61.3276 17.5677 61.2963 16.8473 60.8347 16.4225C60.3689 15.9963 59.6501 16.0233 59.2195 16.4877C52.9442 23.3138 46.8645 30.328 40.4392 37.0155C40.0014 37.4725 40.0182 38.1927 40.471 38.6289C40.9281 39.0666 41.6481 39.0497 42.0844 38.597Z" fill="#0C0C0C"/>
<path fill-rule="evenodd" clip-rule="evenodd" d="M11.1993 25.6194C12.5525 17.8812 13.6913 10.093 15.131 2.37015C15.2429 1.75234 14.8351 1.15796 14.2188 1.04176C13.5982 0.92408 13.0023 1.33615 12.8861 1.95247C11.4478 9.68548 10.306 17.4823 8.95409 25.2306C8.84652 25.8499 9.26005 26.4416 9.87935 26.5491C10.503 26.6582 11.0902 26.243 11.1993 25.6194Z" fill="#0C0C0C"/>
</svg>
