<svg width="109" height="109" viewBox="0 0 109 109" fill="none" xmlns="http://www.w3.org/2000/svg">
<g clip-path="url(#clip0_1_21831)">
<path d="M94.3192 42.1159C55.9539 29.2568 15.8515 45.6748 4.75233 78.7895" stroke="#0500FF" stroke-width="4" stroke-linecap="round"/>
<path fill-rule="evenodd" clip-rule="evenodd" d="M92.5228 41.5131L74.9437 48.1046C74.4232 48.3047 74.0465 48.6748 73.891 49.1386C73.7356 49.6025 73.8132 50.1248 74.1079 50.5982C74.2511 50.8278 74.4458 51.0377 74.6803 51.2152C74.9147 51.3926 75.1839 51.5338 75.4715 51.6302C75.759 51.7266 76.059 51.7761 76.353 51.7758C76.6469 51.7755 76.9289 51.7253 77.1815 51.6284L96.6544 44.3221C97.1933 44.1313 97.5881 43.7619 97.7549 43.2924C97.9216 42.8229 97.847 42.2904 97.5471 41.8083L86.3763 24.1957C86.233 23.9666 86.0383 23.7573 85.8042 23.5803C85.5701 23.4034 85.3014 23.2625 85.0144 23.1663C84.7273 23.0701 84.428 23.0206 84.1345 23.0207C83.8411 23.0208 83.5596 23.0706 83.3072 23.167C82.7867 23.3671 82.41 23.7372 82.2545 24.201C82.099 24.6649 82.1767 25.1872 82.4714 25.6606L92.5228 41.5131Z" fill="#0500FF"/>
</g>
<defs>
<clipPath id="clip0_1_21831">
<rect width="85.5554" height="85.5554" fill="white" transform="matrix(0.3178 -0.948158 -0.948158 -0.3178 81.1211 108.31)"/>
</clipPath>
</defs>
</svg>
