<svg width="45" height="46" viewBox="0 0 45 46" fill="none" xmlns="http://www.w3.org/2000/svg">
<path d="M14.4627 18.7033V18.3564C14.4627 17.4769 15.1707 16.7475 16.0833 16.6869L22.7304 16.2455L31.9228 29.7114V17.8928L29.5567 17.579V17.4142C29.5567 16.5244 30.2809 15.7902 31.2051 15.7431L37.2533 15.4349V16.3007C37.2533 16.7072 36.9494 17.0549 36.533 17.1249L35.0775 17.3698V36.5097L33.2509 37.1346C31.7249 37.6567 30.0261 37.0978 29.1525 35.7865L20.2283 22.3901V35.1762L22.9751 35.6991L22.9369 35.9526C22.817 36.7465 22.128 37.347 21.2944 37.3839L14.4627 37.6863C14.3724 36.8326 15.0156 36.0688 15.9029 35.9761L16.8016 35.8822V18.8341L14.4627 18.7033Z" fill="black"/>
<path fill-rule="evenodd" clip-rule="evenodd" d="M30.6485 0.57764L3.25991 2.43782C1.61934 2.54925 0.347656 3.8613 0.347656 5.44252V31.9427C0.347656 33.4284 0.86176 34.8719 1.80898 36.0457L7.71436 43.3641C8.66915 44.5474 10.1717 45.1989 11.7262 45.1037L42.1245 43.2423C43.6825 43.1469 44.8954 41.9041 44.8954 40.4032V10.275C44.8954 9.34644 44.424 8.47628 43.6325 7.94398L34.0096 1.47182C33.0289 0.812232 31.8423 0.496555 30.6485 0.57764ZM4.61805 5.85588C4.23712 5.57532 4.41841 4.99084 4.89695 4.95669L30.8327 3.10611C31.6591 3.04715 32.4802 3.27352 33.1485 3.74453L38.3523 7.41213C38.5499 7.55138 38.4572 7.85196 38.2126 7.8652L10.7467 9.35117C9.9155 9.39614 9.09505 9.15322 8.43416 8.66647L4.61805 5.85588ZM9.45845 14.0096C9.45845 13.122 10.1793 12.3888 11.1011 12.3388L40.1403 10.7656C41.0387 10.7169 41.795 11.4042 41.795 12.2693V38.3571C41.795 39.2431 41.0767 39.9756 40.1567 40.0276L11.3013 41.6609C10.3015 41.7175 9.45845 40.9532 9.45845 39.9904V14.0096Z" fill="black"/>
</svg>
