<svg width="41" height="41" viewBox="0 0 41 41" fill="none" xmlns="http://www.w3.org/2000/svg">
<path d="M37.0002 18.8571C39.1697 18.8571 40.9284 17.0984 40.9284 14.9289C40.9284 12.7594 39.1695 11.0007 37 11.0007C34.8303 11.0007 33.0713 12.7595 33.0713 14.9292V18.8571H37.0002ZM25.9999 18.8571C28.1695 18.8571 29.9284 17.0982 29.9284 14.9285V3.92924C29.9284 1.75955 28.1695 0.000671387 25.9999 0.000671387C23.8302 0.000671387 22.0713 1.75955 22.0713 3.92924V14.9285C22.0713 17.0982 23.8302 18.8571 25.9999 18.8571Z" fill="#2EB67D"/>
<path d="M3.99982 22.0006C1.83032 22.0006 0.0715942 23.7593 0.0715942 25.9288C0.0715942 28.0983 1.83049 29.857 3.99999 29.857C6.16968 29.857 7.92873 28.0981 7.92873 25.9284V22.0006H3.99982ZM15.0001 22.0006C12.8305 22.0006 11.0716 23.7594 11.0716 25.9291V36.9284C11.0716 39.0981 12.8305 40.857 15.0001 40.857C17.1698 40.857 18.9287 39.0981 18.9287 36.9284V25.9291C18.9287 23.7594 17.1698 22.0006 15.0001 22.0006Z" fill="#E01E5A"/>
<path d="M22.0723 36.9291C22.0723 39.0986 23.831 40.8574 26.0005 40.8574C28.17 40.8574 29.9287 39.0985 29.9287 36.929C29.9287 34.7593 28.1698 33.0002 26.0002 33.0002L22.0723 33.0002L22.0723 36.9291ZM22.0723 25.9288C22.0723 28.0985 23.8311 29.8574 26.0008 29.8574L37.0001 29.8574C39.1698 29.8574 40.9287 28.0985 40.9287 25.9288C40.9287 23.7591 39.1698 22.0002 37.0001 22.0002L26.0008 22.0002C23.8312 22.0002 22.0723 23.7591 22.0723 25.9288Z" fill="#ECB22E"/>
<path d="M18.9277 3.92853C18.9277 1.75903 17.169 0.000305923 14.9995 0.000305828C12.83 0.000305733 11.0713 1.7592 11.0713 3.9287C11.0713 6.09839 12.8302 7.85744 14.9998 7.85744L18.9277 7.85744L18.9277 3.92853ZM18.9277 14.9289C18.9277 12.7592 17.1689 11.0003 14.9992 11.0003L3.99986 11.0003C1.83017 11.0003 0.0712893 12.7592 0.0712892 14.9289C0.0712891 17.0985 1.83017 18.8574 3.99986 18.8574L14.9992 18.8574C17.1689 18.8574 18.9277 17.0985 18.9277 14.9289Z" fill="#36C5F0"/>
</svg>
