<svg width="30" height="41" viewBox="0 0 30 41" fill="none" xmlns="http://www.w3.org/2000/svg">
<path fill-rule="evenodd" clip-rule="evenodd" d="M14.999 20.429C14.999 16.6682 18.165 13.6194 22.0705 13.6194C25.9759 13.6194 29.1419 16.6682 29.1419 20.429C29.1419 24.1898 25.9759 27.2385 22.0705 27.2385C18.165 27.2385 14.999 24.1898 14.999 20.429Z" fill="#1ABCFE"/>
<path fill-rule="evenodd" clip-rule="evenodd" d="M0.856445 34.0479C0.856445 30.2871 4.02243 27.2383 7.92787 27.2383H14.9993V34.0479C14.9993 37.8087 11.8333 40.8574 7.92787 40.8574C4.02243 40.8574 0.856445 37.8087 0.856445 34.0479Z" fill="#0ACF83"/>
<path fill-rule="evenodd" clip-rule="evenodd" d="M14.999 0.000244141V13.6193H22.0705C25.9759 13.6193 29.1419 10.5706 29.1419 6.80977C29.1419 3.04897 25.9759 0.000244141 22.0705 0.000244141H14.999Z" fill="#FF7262"/>
<path fill-rule="evenodd" clip-rule="evenodd" d="M0.856445 6.80965C0.856445 10.5704 4.02243 13.6192 7.92787 13.6192H14.9993V0.00012207H7.92787C4.02243 0.00012207 0.856445 3.04885 0.856445 6.80965Z" fill="#F24E1E"/>
<path fill-rule="evenodd" clip-rule="evenodd" d="M0.856445 20.4288C0.856445 24.1896 4.02243 27.2384 7.92787 27.2384H14.9993V13.6193H7.92787C4.02243 13.6193 0.856445 16.6681 0.856445 20.4288Z" fill="#A259FF"/>
</svg>
