<svg width="78" height="86" viewBox="0 0 78 86" fill="none" xmlns="http://www.w3.org/2000/svg">
<rect x="0.483398" y="4.18768" width="77.034" height="77.034" rx="23.1102" fill="#DEDFE3"/>
<path d="M30.5347 38.4139V38.0539C30.5347 37.1415 31.2693 36.3847 32.2161 36.3218L39.1128 35.8637L48.6504 49.8353V37.5729L46.1954 37.2473V37.0764C46.1954 36.1532 46.9469 35.3914 47.9058 35.3425L54.181 35.0227V35.9211C54.181 36.3428 53.8658 36.7035 53.4337 36.7762L51.9236 37.0303V56.8889L50.0284 57.5372C48.4451 58.0789 46.6824 57.4991 45.776 56.1385L36.5168 42.2391V55.5053L39.3668 56.0479L39.3271 56.3108C39.2027 57.1346 38.4878 57.7576 37.6229 57.7959L30.5347 58.1097C30.441 57.2239 31.1083 56.4314 32.029 56.3352L32.9614 56.2378V38.5495L30.5347 38.4139Z" fill="black"/>
<path fill-rule="evenodd" clip-rule="evenodd" d="M47.3282 19.6076L18.9112 21.5376C17.2091 21.6533 15.8896 23.0146 15.8896 24.6552V52.1504C15.8896 53.6919 16.4231 55.1896 17.4058 56.4075L23.533 64.0007C24.5236 65.2283 26.0826 65.9043 27.6955 65.8056L59.2351 63.8742C60.8516 63.7752 62.1101 62.4859 62.1101 60.9285V29.6691C62.1101 28.7057 61.621 27.8028 60.7998 27.2506L50.8156 20.5354C49.7981 19.851 48.5669 19.5235 47.3282 19.6076ZM20.3204 25.084C19.9252 24.793 20.1133 24.1865 20.6098 24.1511L47.5194 22.231C48.3768 22.1699 49.2287 22.4047 49.9221 22.8934L55.3213 26.6987C55.5263 26.8432 55.4301 27.1551 55.1764 27.1688L26.6792 28.7106C25.8168 28.7572 24.9655 28.5052 24.2798 28.0002L20.3204 25.084ZM25.3425 33.5439C25.3425 32.623 26.0905 31.8622 27.0469 31.8104L57.1765 30.1781C58.1086 30.1276 58.8933 30.8407 58.8933 31.7383V58.8056C58.8933 59.7249 58.148 60.4849 57.1935 60.5389L27.2546 62.2335C26.2173 62.2922 25.3425 61.4993 25.3425 60.5002V33.5439Z" fill="black"/>
</svg>
