<svg width="32" height="20" viewBox="0 0 32 20" fill="none" xmlns="http://www.w3.org/2000/svg">
<path d="M0 0H31.4286V20H0V0Z" fill="#3F51B5"/>
<path d="M0 3.01143L14.8643 12.0964L17.0993 8.43929L3.29143 0H0V3.01143Z" fill="white"/>
<path d="M31.4319 0H28.854L15.0469 8.43857L17.2812 12.0964L31.4319 3.44714V0Z" fill="white"/>
<path d="M17.2812 7.33643L15.0469 10.9936L29.7826 20H31.4319V15.985L17.2812 7.33643Z" fill="white"/>
<path d="M0 16.4221V20H2.36429L17.0993 10.9943L14.865 7.33643L0 16.4221Z" fill="white"/>
<path d="M0 7.14307H31.4286V12.8574H0V7.14307Z" fill="white"/>
<path d="M12.8594 0H18.5737V20H12.8594V0Z" fill="white"/>
<path d="M10.87 7.14286L0 0.499286V2.17357L8.13 7.14286H10.87ZM30.2207 0L18.5336 7.14286H21.2729L31.4286 0.936428V0H30.2207ZM22.2014 12.8571L31.4286 18.4964V16.8221L24.9407 12.8571H22.2014ZM9.94143 12.8571L0 18.9329V20H0.994286L12.6807 12.8571H9.94143ZM0 8.57143H31.4286V11.4286H0V8.57143Z" fill="#E53935"/>
<path d="M14.2891 0H17.1462V20H14.2891V0Z" fill="#E53935"/>
</svg>
