<svg width="30" height="30" viewBox="0 0 30 30" fill="none" xmlns="http://www.w3.org/2000/svg">
<path d="M26.25 23.125C26.25 24.8512 24.8512 26.25 23.125 26.25H6.875C5.14938 26.25 3.75 24.8512 3.75 23.125V6.875C3.75 5.14875 5.14938 3.75 6.875 3.75H23.125C24.8512 3.75 26.25 5.14875 26.25 6.875V23.125Z" fill="black"/>
<path d="M7.5 11.875H10.625V22.5H7.5V11.875ZM9.05312 10.625H9.03562C8.10312 10.625 7.5 9.93 7.5 9.06187C7.5 8.175 8.12187 7.5 9.07125 7.5C10.0219 7.5 10.6075 8.175 10.625 9.06187C10.625 9.92937 10.0219 10.625 9.05312 10.625ZM22.5 22.5H19.375V16.8131C19.375 15.4394 18.6094 14.5019 17.38 14.5019C16.4419 14.5019 15.9344 15.1344 15.6881 15.7456C15.5981 15.9644 15.625 16.5694 15.625 16.875V22.5H12.5V11.875H15.625V13.51C16.0756 12.8125 16.7813 11.875 18.5863 11.875C20.8225 11.875 22.4994 13.2812 22.4994 16.4213L22.5 22.5Z" fill="white"/>
</svg>
