<svg width="30" height="30" viewBox="0 0 30 30" fill="none" xmlns="http://www.w3.org/2000/svg">
<path d="M26.2519 7.76813C25.425 8.13437 24.5356 8.37875 23.5975 8.49437C24.5512 7.92812 25.285 7.025 25.6294 5.95812C24.7369 6.48125 23.7481 6.86563 22.6963 7.06813C21.8563 6.1775 20.6581 5.625 19.3306 5.625C16.7806 5.625 14.7137 7.67375 14.7137 10.2C14.7137 10.5575 14.7556 10.9056 14.8344 11.2437C10.9981 11.0512 7.59563 9.2275 5.31938 6.46C4.91938 7.13625 4.69437 7.92813 4.69437 8.76375C4.69437 10.3519 5.5075 11.75 6.7475 12.5738C5.99062 12.5506 5.27812 12.34 4.65437 12.0025C4.65437 12.0163 4.65437 12.0369 4.65437 12.0563C4.65437 14.2756 6.24625 16.1238 8.35625 16.5444C7.97062 16.65 7.56312 16.7087 7.14312 16.7087C6.845 16.7087 6.55438 16.675 6.27313 16.6244C6.86063 18.4381 8.565 19.7638 10.5844 19.8031C9.00437 21.0281 7.01437 21.7619 4.85062 21.7619C4.47687 21.7619 4.11125 21.7406 3.75 21.6969C5.79437 22.9913 8.22187 23.75 10.8275 23.75C19.3181 23.75 23.9631 16.7775 23.9631 10.7288C23.9631 10.5306 23.9569 10.3331 23.9475 10.1381C24.8537 9.49813 25.635 8.69062 26.2519 7.76813Z" fill="black"/>
</svg>
