<svg width="143" height="35" viewBox="0 0 143 35" fill="none" xmlns="http://www.w3.org/2000/svg">
<g id="Group">
<path id="Vector" d="M116.189 34.208C115.911 34.1538 115.636 34.1038 115.359 34.0454C113.972 33.7535 113.015 32.8945 112.294 31.7248C112.108 31.4225 111.929 31.116 111.614 30.8345C111.529 31.7894 111.445 32.7444 111.358 33.7285H107.54V0.231323H112.177V12.6994L112.3 12.7537C112.417 12.5827 112.536 12.4159 112.648 12.2428C114.637 9.16959 119.203 8.78804 121.526 12.1699C122.717 13.9046 123.273 15.8603 123.551 17.9077C123.999 21.2353 123.924 24.5421 123.017 27.7946C122.6 29.2916 121.966 30.6927 120.951 31.8937C119.904 33.1322 118.622 33.9641 116.962 34.1163C116.864 34.1246 116.77 34.1746 116.674 34.2059H116.187L116.189 34.208ZM112.258 22.086H112.177C112.177 23.1597 112.165 24.2335 112.181 25.3073C112.202 26.6979 112.575 27.9969 113.386 29.1311C114.502 30.6907 116.468 30.7261 117.594 29.1728C118.036 28.564 118.39 27.8322 118.568 27.1045C119.387 23.7685 119.439 20.4013 118.588 17.0675C118.365 16.1959 117.898 15.3182 117.325 14.6197C116.326 13.4021 114.725 13.4563 113.649 14.6072C112.817 15.4975 112.331 16.5754 112.275 17.7784C112.208 19.2129 112.258 20.6515 112.258 22.0881V22.086Z" fill="#353642"/>
<path id="Vector_2" d="M76.2947 34.2092C75.9986 34.1509 75.7005 34.0967 75.4065 34.032C73.5717 33.6192 72.3332 32.4474 71.42 30.8816C70.5047 29.3158 70.0273 27.5999 69.7854 25.8193C69.3142 22.3687 69.3747 18.9431 70.4401 15.5905C70.9697 13.9246 71.7807 12.4109 73.1276 11.2433C74.4015 10.1362 75.8735 9.62327 77.5769 9.85054C78.9301 10.0319 79.9747 10.6887 80.7106 11.8333C80.8086 11.9855 80.9025 12.1419 81.0005 12.2941C81.0088 12.3087 81.0359 12.3108 81.1276 12.3525V0.226318H85.7604V33.7631C85.2809 33.7631 84.6804 33.7631 84.082 33.7631C83.5525 33.7631 83.0229 33.7422 82.4975 33.7693C82.093 33.7902 81.9241 33.6692 81.9012 33.2377C81.8636 32.4912 81.7552 31.749 81.6635 30.8858C81.5154 31.063 81.4216 31.1464 81.3591 31.2507C80.3645 32.8936 78.9655 33.9257 77.0119 34.1279C76.9348 34.1363 76.8597 34.1801 76.7847 34.2072H76.2968L76.2947 34.2092ZM81.0797 22.0789H81.1443C81.1443 20.9426 81.1589 19.8063 81.1402 18.672C81.1193 17.3543 80.8837 16.0867 80.0956 14.9837C78.9238 13.347 76.9202 13.2887 75.7568 14.9316C75.2876 15.5946 74.9332 16.389 74.7247 17.1771C73.9929 19.9418 74.02 22.7523 74.4286 25.565C74.6142 26.8389 74.9478 28.0732 75.7276 29.1303C76.8868 30.7044 78.8383 30.7086 79.9934 29.1365C80.6043 28.3046 81.0255 27.3664 81.0651 26.3322C81.1193 24.9165 81.0797 23.4967 81.0797 22.0768V22.0789Z" fill="#353642"/>
<path id="Vector_3" d="M96.3072 34.211C95.9486 34.1527 95.5879 34.1005 95.2314 34.0338C93.1256 33.6335 91.5702 32.4492 90.4568 30.6562C89.431 29.0049 88.9223 27.1763 88.6867 25.2686C88.3135 22.2454 88.3635 19.2409 89.235 16.2928C89.7166 14.6582 90.4777 13.1674 91.6974 11.9435C94.9228 8.70351 100.071 9.16846 102.648 12.936C103.832 14.6686 104.405 16.6264 104.655 18.6801C105.075 22.0974 105.012 25.4854 103.746 28.7463C102.777 31.2483 101.151 33.1352 98.4631 33.9025C97.9606 34.0463 97.4331 34.111 96.9181 34.211H96.3072ZM100.204 21.4969C100.15 20.8255 100.094 19.6517 99.9497 18.4862C99.7891 17.1747 99.5077 15.8841 98.7904 14.7416C97.6666 12.9568 95.6046 12.9297 94.4871 14.7207C94.1076 15.3295 93.8094 16.028 93.6468 16.7265C92.8295 20.2334 92.8087 23.7632 93.6635 27.2618C93.872 28.1187 94.3098 28.9882 94.8624 29.6783C95.8902 30.9647 97.6687 30.8521 98.6091 29.5032C98.9969 28.9486 99.2825 28.296 99.4889 27.6496C100.075 25.8169 100.158 23.9092 100.204 21.4969Z" fill="#353642"/>
<path id="Vector_4" d="M142.428 10.9687C142.361 11.0917 142.301 11.2189 142.228 11.3377C141.944 11.7902 141.523 11.9424 141.027 11.7964C140.551 11.6567 140.305 11.3023 140.301 10.7998C140.297 10.2952 140.545 9.94496 141.016 9.79485C141.515 9.6343 141.929 9.80319 142.221 10.2389C142.298 10.3536 142.359 10.4829 142.428 10.6038V10.9687ZM142.167 10.7769C142.157 10.3098 141.761 9.90743 141.321 9.91994C140.881 9.93036 140.497 10.3515 140.507 10.8123C140.518 11.2793 140.914 11.6755 141.358 11.6671C141.802 11.6588 142.18 11.2418 142.169 10.7769H142.167Z" fill="#353642"/>
<path id="Vector_5" d="M48.993 33.7631C49.3266 32.2765 49.6373 30.8754 49.9542 29.4764C52.0371 20.265 54.1262 11.0557 56.1862 1.84014C56.3259 1.21673 56.5636 1.04159 57.1891 1.06869C58.5088 1.12499 59.8328 1.10414 61.1526 1.07495C61.5884 1.06452 61.7322 1.20214 61.8219 1.62747C63.9089 11.5019 66.0147 21.3721 68.1164 31.2424C68.2894 32.0514 68.4562 32.8624 68.646 33.7652H65.3058C64.5024 33.7652 64.0208 33.376 63.861 32.5976C63.3564 30.177 62.8372 27.7605 62.3535 25.3357C62.2597 24.8666 62.0679 24.7248 61.5904 24.7331C59.7202 24.7623 57.85 24.7602 55.9798 24.7331C55.5419 24.7269 55.3876 24.8749 55.3001 25.2877C54.7496 27.9252 54.1617 30.5564 53.6154 33.196C53.5216 33.6484 53.3402 33.7819 52.8919 33.7715C51.618 33.7423 50.342 33.761 48.9951 33.761L48.993 33.7631ZM58.8737 5.89957C57.923 10.9494 56.9743 15.9825 56.0194 21.0469H61.6134C60.696 15.9804 59.7849 10.9494 58.8716 5.89957H58.8737Z" fill="#353642"/>
<path id="Vector_6" d="M141.669 22.9139H130.643C130.62 23.064 130.568 23.1995 130.583 23.3288C130.702 24.3316 130.741 25.3574 130.977 26.3332C131.723 29.4148 133.863 30.8305 137.059 30.3801C138.058 30.2404 139.033 29.9485 140.109 29.7067C140.303 30.6428 140.528 31.6603 140.701 32.6861C140.72 32.8008 140.461 33.0259 140.288 33.0989C138.568 33.8057 136.759 34.0288 134.915 33.9892C131.056 33.9037 128.31 32.0293 127.061 28.3786C125.529 23.9 125.683 19.4049 127.432 14.9972C128 13.5648 128.898 12.3389 130.105 11.3527C132.939 9.03629 138.03 8.90493 140.33 13.5023C141.133 15.1056 141.548 16.8174 141.652 18.5875C141.735 19.997 141.669 21.4168 141.669 22.9118V22.9139ZM137.376 19.6029C137.376 19.2422 137.392 18.9607 137.374 18.6814C137.263 17.1135 137.067 15.5643 136.064 14.2675C135.066 12.9748 133.464 12.8893 132.388 14.1153C131.021 15.6748 130.789 17.6201 130.602 19.605H137.376V19.6029Z" fill="#353642"/>
<g id="Group 1171274882">
<path id="Vector_7" d="M0.00275636 33.4304V1.20093H13.6218C9.10782 11.9698 4.60637 22.7116 0.102835 33.4554L0.000671387 33.4304H0.00275636Z" fill="#353642"/>
<path id="Vector_8" d="M23.2502 1.18519H36.8588V33.4147L36.767 33.4543C32.276 22.7313 27.7829 12.0062 23.2502 1.18311V1.18519Z" fill="#353642"/>
<path id="Vector_9" d="M27.1414 33.7555C25.2482 33.7555 23.4635 33.768 21.6809 33.7347C21.5307 33.7326 21.3243 33.4532 21.2451 33.2593C20.5174 31.4766 19.7835 29.6961 19.1184 27.8926C18.9099 27.3255 18.618 27.1837 18.0551 27.1962C16.4518 27.2316 14.8442 27.2087 13.2409 27.2087C13.022 27.2087 12.8031 27.2087 12.4611 27.2087C14.4564 22.5175 16.4121 17.9222 18.4366 13.1602C21.366 20.0906 24.2349 26.8814 27.1414 33.7555Z" fill="#353642"/>
</g>
<path id="Vector_10" d="M39.7354 2.20503C39.7396 2.78048 39.2809 3.26836 38.72 3.28295C38.1446 3.29963 37.6317 2.78256 37.6421 2.19877C37.6504 1.64 38.1446 1.15002 38.6971 1.15002C39.2579 1.15002 39.7333 1.63166 39.7375 2.20503H39.7354ZM38.7138 3.08071C39.1683 3.07445 39.5269 2.6804 39.5165 2.19877C39.5061 1.71714 39.1308 1.33767 38.6783 1.3481C38.228 1.35852 37.8589 1.76301 37.8694 2.23212C37.8798 2.70541 38.2572 3.08488 38.7138 3.07862V3.08071Z" fill="#353642"/>
<path id="Vector_11" d="M140.973 10.2407C141.469 10.199 141.892 10.1427 141.671 10.8349C141.625 10.9788 141.713 11.1644 141.767 11.5084C141.552 11.2165 141.446 11.0705 141.298 10.8683C141.19 11.0643 141.112 11.1977 140.973 11.4479V10.2407Z" fill="#353642"/>
<path id="Vector_12" d="M39.0437 2.83266C38.9082 2.64084 38.8019 2.48864 38.6518 2.27598L38.4078 2.76177L38.3077 2.74926C38.3077 2.4803 38.266 2.20092 38.3244 1.94447C38.3536 1.8152 38.5788 1.62546 38.6893 1.64214C38.8352 1.66299 39.0458 1.84021 39.0729 1.97991C39.125 2.23427 39.0604 2.50949 39.0416 2.83266H39.0437Z" fill="#353642"/>
</g>
</svg>
