<svg width="55" height="54" viewBox="0 0 55 54" fill="none" xmlns="http://www.w3.org/2000/svg">
<g id="Solid/Communication/Chat">
<path id="Icon" fill-rule="evenodd" clip-rule="evenodd" d="M18.5044 10.2441C24.5711 9.78684 30.6647 9.81685 36.7266 10.3338L40.38 10.6454C43.1397 10.8807 45.3793 12.975 45.799 15.7127L46.0294 17.2165C46.8116 22.3193 46.7385 27.5167 45.8131 32.5955C45.3566 35.1014 43.1736 36.9225 40.6264 36.9225H20.4295C19.9648 36.9225 19.5074 37.0377 19.0981 37.2576L10.2988 41.9865C9.77586 42.2675 9.14367 42.2531 8.63408 41.9484C8.1245 41.6438 7.8125 41.0937 7.8125 40.5V21.3361C7.8125 15.5343 12.2842 10.7129 18.0696 10.2769L18.5044 10.2441ZM18.5 21.375C16.9467 21.375 15.6875 22.6342 15.6875 24.1875C15.6875 25.7408 16.9467 27 18.5 27C20.0533 27 21.3125 25.7408 21.3125 24.1875C21.3125 22.6342 20.0533 21.375 18.5 21.375ZM27.5 21.375C25.9467 21.375 24.6875 22.6342 24.6875 24.1875C24.6875 25.7408 25.9467 27 27.5 27C29.0533 27 30.3125 25.7408 30.3125 24.1875C30.3125 22.6342 29.0533 21.375 27.5 21.375ZM33.6875 24.1875C33.6875 22.6342 34.9467 21.375 36.5 21.375C38.0533 21.375 39.3125 22.6342 39.3125 24.1875C39.3125 25.7408 38.0533 27 36.5 27C34.9467 27 33.6875 25.7408 33.6875 24.1875Z" fill="#353642"/>
</g>
</svg>
