<svg width="54" height="54" viewBox="0 0 54 54" fill="none" xmlns="http://www.w3.org/2000/svg">
<g id="Solid/General/Clock">
<path id="Icon" fill-rule="evenodd" clip-rule="evenodd" d="M7.875 27C7.875 16.4376 16.4376 7.875 27 7.875C37.5624 7.875 46.125 16.4376 46.125 27C46.125 37.5624 37.5624 46.125 27 46.125C16.4376 46.125 7.875 37.5624 7.875 27ZM28.6875 15.75C28.6875 14.818 27.932 14.0625 27 14.0625C26.068 14.0625 25.3125 14.818 25.3125 15.75V27C25.3125 27.5818 25.6122 28.1226 26.1056 28.431L32.8556 32.6497C33.6459 33.1437 34.687 32.9034 35.181 32.1131C35.6749 31.3228 35.4347 30.2817 34.6444 29.7878L28.6875 26.0647V15.75Z" fill="#353642"/>
</g>
</svg>
