<svg width="50" height="50" viewBox="0 0 50 50" fill="none" xmlns="http://www.w3.org/2000/svg">
<g id="Collibra Logo Mark">
<g id="Collibra Logo">
<g id="c">
<g id="Group">
<path id="Vector" d="M10.0768 15.2643C12.2741 15.2643 14.4673 15.2602 16.6647 15.2643C17.5411 15.2643 18.3043 15.8263 18.5433 16.5979C18.8033 17.4282 18.5517 18.3381 17.8262 18.7743C17.4321 19.0133 16.9205 19.1726 16.4634 19.1768C12.207 19.2062 7.94649 19.2062 3.69014 19.1894C2.0547 19.1852 1.06924 17.7175 1.74858 16.3505C2.12179 15.5998 2.76758 15.2643 3.5895 15.2643C5.75332 15.256 7.91294 15.2643 10.0768 15.2643Z" fill="#353642"/>
<path id="Vector_2" d="M39.2974 31.3302C41.4948 31.3302 43.6879 31.3302 45.8853 31.3302C47.0008 31.3302 47.8478 32.1563 47.8562 33.234C47.8646 34.3117 47.0217 35.1756 45.9147 35.1756C41.5074 35.1798 37.0958 35.1798 32.6885 35.1756C31.594 35.1756 30.7302 34.3034 30.7386 33.2382C30.7428 32.1605 31.5982 31.3302 32.7095 31.3302C34.9069 31.3302 37.1 31.3302 39.2974 31.3302Z" fill="#353642"/>
<path id="Vector_3" d="M34.6055 10.702C34.6055 12.8617 34.6055 15.0213 34.6055 17.1809C34.6055 18.4138 33.8381 19.2105 32.6807 19.2063C31.561 19.2063 30.7433 18.3467 30.7433 17.1516C30.7433 12.8323 30.7433 8.51306 30.7433 4.19381C30.7433 3.26706 31.2549 2.51643 32.0475 2.24386C32.8442 1.97129 33.7165 2.17677 34.1945 2.87707C34.4336 3.22513 34.5845 3.70318 34.5887 4.12252C34.6264 6.3157 34.6055 8.50887 34.6055 10.702Z" fill="#353642"/>
<path id="Vector_4" d="M14.7245 39.8545C14.7245 37.6446 14.7161 35.4346 14.7287 33.2289C14.7371 32.2266 15.4332 31.4299 16.3264 31.3376C17.4251 31.2244 18.2637 31.7738 18.5363 32.7928C18.5741 32.9353 18.5866 33.0905 18.5866 33.2373C18.5866 37.6404 18.5866 42.0393 18.5866 46.4424C18.5866 47.3734 17.9367 48.1869 17.098 48.3337C16.0538 48.5182 15.1732 48.0653 14.8377 47.1176C14.7413 46.845 14.7287 46.5263 14.7287 46.2327C14.7203 44.1067 14.7245 41.9806 14.7245 39.8587V39.8545Z" fill="#353642"/>
<path id="Vector_5" d="M34.6834 23.3029C36.6627 23.3029 38.6379 23.2945 40.6172 23.3071C41.4307 23.3113 42.0807 23.6635 42.4413 24.4184C42.7726 25.1103 42.7013 25.7854 42.261 26.4103C41.85 26.9889 41.242 27.228 40.5626 27.228C36.6418 27.2406 32.7209 27.2447 28.8 27.228C27.6301 27.2238 26.7243 26.318 26.7369 25.2612C26.7494 24.1458 27.651 23.3071 28.8545 23.3071C30.8003 23.3071 32.7419 23.3071 34.6876 23.3071L34.6834 23.3029Z" fill="#353642"/>
<path id="Vector_6" d="M14.7146 23.3035C16.6897 23.3035 18.669 23.2993 20.6441 23.3035C21.6128 23.3076 22.4515 23.9912 22.6025 24.8634C22.766 25.8405 22.3047 26.7253 21.4115 27.0482C21.1054 27.1614 20.7615 27.2201 20.4344 27.2243C16.6142 27.2369 12.7982 27.2327 8.97795 27.2285C7.65701 27.2285 6.78477 26.4485 6.78058 25.2744C6.77219 24.1338 7.6025 23.3035 8.78924 23.2993C10.7644 23.2909 12.7437 23.2993 14.7188 23.2993L14.7146 23.3035Z" fill="#353642"/>
<path id="Vector_7" d="M22.7663 13.2765C22.7663 11.9892 22.7998 10.7018 22.7579 9.41439C22.7159 8.1899 23.6427 7.36379 24.6743 7.33444C25.7939 7.30508 26.6326 8.20667 26.6326 9.41858C26.6326 12.0269 26.6326 14.6352 26.6326 17.2435C26.6326 18.1661 26.0875 18.8832 25.211 19.1432C24.4185 19.378 23.5001 19.0635 23.0766 18.3213C22.8879 17.99 22.7914 17.5706 22.783 17.1848C22.7495 15.8807 22.7705 14.5765 22.7705 13.2724L22.7663 13.2765Z" fill="#353642"/>
<path id="Vector_8" d="M22.7706 37.2781C22.7706 35.9236 22.7581 34.5691 22.7748 33.2146C22.7874 32.2418 23.4626 31.4534 24.3348 31.3402C25.3999 31.2018 26.2512 31.7218 26.5531 32.7072C26.5993 32.8624 26.6328 33.0343 26.6328 33.1979C26.637 35.89 26.6412 38.5822 26.6328 41.2744C26.6328 42.2809 25.9409 43.0021 24.8548 43.1783C24.0664 43.3041 23.1481 42.717 22.8755 41.8783C22.7958 41.6309 22.779 41.3541 22.7748 41.0899C22.7664 39.8193 22.7706 38.5487 22.7706 37.2781Z" fill="#353642"/>
<path id="Vector_9" d="M43.285 19.2051C42.4128 19.2051 41.5405 19.2135 40.6725 19.2051C39.5612 19.1925 38.7561 18.3538 38.7687 17.2426C38.7812 16.1439 39.5696 15.3597 40.6809 15.3597C42.4421 15.3555 44.1992 15.3555 45.9604 15.3597C47.0214 15.3597 47.86 16.2194 47.86 17.2803C47.86 18.3161 47.0339 19.1841 46.0023 19.2009C45.0966 19.2177 44.1908 19.2009 43.2892 19.2009L43.285 19.2051Z" fill="#353642"/>
<path id="Vector_10" d="M6.11582 31.3263C7.0216 31.3263 7.92739 31.3053 8.82898 31.3305C9.87315 31.3599 10.6489 32.2237 10.6364 33.2846C10.6238 34.2995 9.81025 35.1591 8.79963 35.1717C6.98806 35.1885 5.18068 35.1927 3.36911 35.1717C2.34172 35.1591 1.56174 34.3162 1.55754 33.2805C1.55335 32.186 2.2872 31.364 3.35234 31.3347C4.2749 31.3095 5.19326 31.3305 6.11582 31.3305V31.3263Z" fill="#353642"/>
<path id="Vector_11" d="M34.605 43.804C34.605 44.6762 34.6134 45.5443 34.605 46.4165C34.5924 47.5026 33.8124 48.3119 32.7641 48.3371C31.6738 48.3623 30.768 47.5529 30.747 46.4626C30.7177 44.6888 30.7218 42.915 30.747 41.1412C30.7596 40.0551 31.6989 39.1912 32.7976 39.2583C33.8502 39.3254 34.5924 40.0718 34.605 41.1957C34.605 41.2292 34.605 41.2628 34.605 41.2963C34.605 42.135 34.605 42.9695 34.605 43.8082V43.804Z" fill="#353642"/>
<path id="Vector_12" d="M18.6066 6.70085C18.6066 7.57309 18.615 8.44113 18.6066 9.31336C18.594 10.3911 17.7847 11.2675 16.7154 11.2423C15.5999 11.2172 14.7864 10.454 14.757 9.35111C14.7109 7.57728 14.7235 5.80345 14.7528 4.02962C14.7696 2.97288 15.688 2.10483 16.7028 2.11322C17.7637 2.12161 18.5982 2.98546 18.6066 4.09253C18.615 4.96476 18.6066 5.83281 18.6066 6.70504V6.70085Z" fill="#353642"/>
<path id="Vector_13" d="M42.6313 9.25401C42.6607 10.2646 41.9436 11.1998 40.6814 11.2459C39.633 11.2836 38.7818 10.3737 38.7734 9.3211C38.765 8.22661 39.5953 7.35018 40.6646 7.32922C41.7297 7.31244 42.6271 8.18887 42.6355 9.25401H42.6313Z" fill="#353642"/>
<path id="Vector_14" d="M49.2704 25.2821C49.2662 26.3472 48.352 27.2572 47.3162 27.2278C46.2385 27.1985 45.4124 26.3388 45.4166 25.2401C45.4166 24.175 46.2553 23.3153 47.3078 23.3027C48.3981 23.2902 49.2746 24.175 49.2704 25.2821Z" fill="#353642"/>
<path id="Vector_15" d="M0.134891 25.2317C0.143278 24.1749 0.990354 23.3111 2.03033 23.3027C3.11643 23.2943 4.00544 24.1917 3.99705 25.2862C3.98867 26.3345 3.04514 27.2613 2.02614 27.2235C0.940033 27.1858 0.126504 26.3303 0.134891 25.2317Z" fill="#353642"/>
<path id="Vector_16" d="M22.7709 47.8215C22.7667 46.706 23.5677 45.8883 24.6831 45.8883C25.786 45.8883 26.6289 46.7144 26.6331 47.7963C26.6331 48.8782 25.786 49.7379 24.7083 49.7421C23.6138 49.7421 22.7751 48.916 22.7709 47.8215Z" fill="#353642"/>
<path id="Vector_17" d="M8.73911 7.31464C9.82521 7.32303 10.6471 8.17011 10.6387 9.27298C10.6304 10.3423 9.76231 11.181 8.66782 11.1684C7.5901 11.1558 6.76399 10.3004 6.78077 9.1975C6.79335 8.09043 7.61107 7.30625 8.7433 7.31464H8.73911Z" fill="#353642"/>
<path id="Vector_18" d="M8.71067 39.2666C9.80936 39.2666 10.6397 40.0969 10.6355 41.1914C10.6355 42.2733 9.78 43.1162 8.68971 43.1162C7.59941 43.1162 6.76911 42.2733 6.7733 41.1746C6.7733 40.055 7.57844 39.2708 8.70648 39.2708L8.71067 39.2666Z" fill="#353642"/>
<path id="Vector_19" d="M40.7354 39.2666C41.8257 39.2708 42.6434 40.1179 42.6308 41.2249C42.6182 42.2985 41.7502 43.1288 40.6515 43.1162C39.5696 43.1036 38.7561 42.2523 38.7687 41.1411C38.7812 40.0298 39.5864 39.2624 40.7312 39.2708L40.7354 39.2666Z" fill="#353642"/>
<path id="Vector_20" d="M24.6873 4.55328C23.5593 4.55328 22.7667 3.76072 22.7709 2.63268C22.7709 1.54658 23.618 0.695312 24.6999 0.695312C25.765 0.695312 26.6289 1.56755 26.6331 2.64526C26.6331 3.72717 25.7944 4.55748 24.6873 4.55328Z" fill="#353642"/>
</g>
</g>
</g>
</g>
</svg>
