<svg width="78" height="62" viewBox="0 0 78 62" fill="none" xmlns="http://www.w3.org/2000/svg">
<g id="Highlight_04">
<g id="Group">
<g id="Group_2">
<path id="Vector" fill-rule="evenodd" clip-rule="evenodd" d="M56.0679 58.4973C58.9969 58.234 61.8967 57.9993 64.8164 57.6508C65.4449 57.5781 65.8909 57.013 65.8167 56.3888C65.744 55.7604 65.1746 55.3128 64.5505 55.387C61.6466 55.7313 58.7714 55.9649 55.8627 56.2255C55.2344 56.2838 54.7725 56.8387 54.8279 57.4611C54.8862 58.0894 55.4397 58.5556 56.0679 58.4973Z" fill="#121A21"/>
</g>
<g id="Group_3">
<path id="Vector_2" fill-rule="evenodd" clip-rule="evenodd" d="M42.0856 38.5975C48.5212 31.8943 54.6141 24.8701 60.9026 18.034C61.3288 17.5682 61.2975 16.8478 60.8359 16.423C60.3701 15.9968 59.6513 16.0238 59.2208 16.4882C52.9454 23.3143 46.8658 30.3285 40.4404 37.0159C40.0027 37.473 40.0194 38.1932 40.4722 38.6294C40.9293 39.0671 41.6494 39.0502 42.0856 38.5975Z" fill="#121A21"/>
</g>
<g id="Group_4">
<path id="Vector_3" fill-rule="evenodd" clip-rule="evenodd" d="M11.1993 25.6199C12.5525 17.8817 13.6913 10.0935 15.131 2.37064C15.2429 1.75283 14.8351 1.15845 14.2188 1.04225C13.5982 0.924569 13.0023 1.33664 12.8861 1.95296C11.4478 9.68597 10.306 17.4827 8.95409 25.2311C8.84652 25.8504 9.26005 26.442 9.87935 26.5496C10.503 26.6587 11.0902 26.2435 11.1993 25.6199Z" fill="#121A21"/>
</g>
</g>
</g>
</svg>
