<svg width="56" height="38" viewBox="0 0 56 38" fill="none" xmlns="http://www.w3.org/2000/svg">
<g clip-path="url(#clip0_110_902)">
<path d="M6.60278 10.9941C6.60278 6.93027 4.41438 3.60137 0.270386 0.79126H9.8621C13.2145 3.21228 15.3098 6.88703 15.3098 10.9941C15.3098 15.1012 13.2611 18.776 9.8621 21.197C12.9817 22.4075 14.7511 25.3473 14.7511 29.5408V37.5821H6.0906V29.5408C6.0906 25.5202 4.04189 22.7101 0.31695 21.197C4.41438 18.3436 6.60278 15.0147 6.60278 10.9941ZM25.4137 10.9941C25.4137 6.93027 23.2253 3.60137 19.0813 0.79126H28.673C32.0255 3.21228 34.1208 6.88703 34.1208 10.9941C34.1208 15.1012 32.072 18.776 28.673 21.197C31.7927 22.4075 33.562 25.3473 33.562 29.5408V37.5821H24.9015V29.5408C24.9015 25.5202 22.8528 22.7101 19.1279 21.197C23.2253 18.3436 25.4137 15.0147 25.4137 10.9941ZM44.2247 10.9941C44.2247 6.93027 42.0363 3.60137 37.8923 0.79126H47.484C50.8364 3.21228 52.9317 6.88703 52.9317 10.9941C52.9317 15.1012 50.883 18.776 47.484 21.197C50.6036 22.4075 52.373 25.3473 52.373 29.5408V37.5821H43.7125V29.5408C43.7125 25.5202 41.6638 22.7101 37.9388 21.197C42.0363 18.3436 44.2247 15.0147 44.2247 10.9941ZM79.3788 30.881H72.767V7.49228H88.9239C96.6997 7.49228 100.518 10.1727 100.518 14.5392C100.518 17.5222 98.6553 19.7703 95.1166 20.8943C98.7484 21.4131 100.378 23.1857 100.378 26.3416V30.881H93.7663V26.601C93.7663 23.9206 92.3229 22.8398 88.5049 22.8398H79.3788V30.881ZM88.598 10.8644H79.3788V19.4244H88.5049C91.8107 19.4244 93.906 17.7384 93.906 15.058C93.906 12.4208 91.997 10.8644 88.598 10.8644ZM111.972 7.44905H105.407V30.8378H111.972V7.44905ZM132.18 23.2289H124.171V30.8378H117.606V7.44905H132.366C140.142 7.44905 144.239 10.4753 144.239 15.2741C144.193 20.2891 140.049 23.2289 132.18 23.2289ZM132.04 10.8644H124.171V19.8135H131.993C135.393 19.8135 137.488 18.2139 137.488 15.3174C137.441 12.464 135.346 10.8644 132.04 10.8644ZM162.724 23.2289H154.716V30.8378H148.104V7.44905H162.864C170.64 7.44905 174.737 10.4753 174.737 15.2741C174.737 20.2891 170.547 23.2289 162.724 23.2289ZM162.585 10.8644H154.716V19.8135H162.538C165.937 19.8135 168.032 18.2139 168.032 15.3174C167.986 12.464 165.89 10.8644 162.585 10.8644ZM185.214 7.44905V27.3792H201.65V30.8378H178.648V7.44905H185.214ZM212.359 7.44905H205.794V30.8378H212.359V7.44905ZM222.277 15.2741V30.8378H217.946V7.44905H222.882L240.808 23.0127V7.44905H245.138V30.8378H240.203L222.277 15.2741ZM266.603 10.2159C260.364 10.2159 256.267 13.8907 256.267 19.3812C256.267 24.7853 260.178 28.1574 266.231 28.1574H266.65C268.699 28.1574 271.027 27.7683 273.169 27.1198V20.8079H262.553V17.4357H279.641V28.4168C276.102 30.1028 270.747 31.443 266.417 31.443H265.858C255.894 31.443 249.422 26.5578 249.422 19.4677C249.422 12.464 256.034 6.8438 266.231 6.8438H266.79C271.027 6.8438 275.869 8.09754 279.454 9.99977L277.592 12.8531C274.379 11.2103 270.515 10.1727 267.116 10.1727H266.603V10.2159Z" fill="#353642"/>
</g>
<defs>
<clipPath id="clip0_110_902">
<rect width="55.2767" height="36.8511" fill="white" transform="translate(0.270386 0.793213)"/>
</clipPath>
</defs>
</svg>
