<svg width="50" height="51" viewBox="0 0 50 51" fill="none" xmlns="http://www.w3.org/2000/svg">
<path d="M24.5375 0H26.3092C32.4601 0.133624 38.5107 2.60567 42.8564 6.98186C41.2518 8.61876 39.6138 10.1888 38.0427 11.8257C35.6024 9.62094 32.6607 7.91723 29.4515 7.31592C24.7047 6.31374 19.5901 7.21571 15.6121 9.9216C11.2664 12.7611 8.32468 17.5716 7.68954 22.7161C6.98754 27.7938 8.42497 33.1388 11.7344 37.0807C14.9101 40.9224 19.7572 43.3276 24.7715 43.4947C29.4515 43.7619 34.3321 42.3255 37.7418 39.0517C40.4161 36.7467 41.653 33.239 42.0541 29.8316C36.505 29.8316 30.9558 29.865 25.4067 29.8316V22.95H48.7732C49.9767 30.3327 48.2384 38.6508 42.6224 43.929C38.8784 47.6704 33.697 49.8752 28.4152 50.3095C23.3007 50.8106 18.019 49.8418 13.4727 47.3698C8.02383 44.4634 3.67811 39.5528 1.53869 33.7735C-0.467027 28.462 -0.500456 22.4489 1.37154 17.1039C3.0764 12.2266 6.3524 7.91723 10.5644 4.91069C14.6093 1.93755 19.5232 0.300654 24.5375 0Z" fill="#353642"/>
</svg>
