<svg width="225" height="123" viewBox="0 0 225 123" fill="none" xmlns="http://www.w3.org/2000/svg">
<g filter="url(#filter0_d_110_857)">
<rect x="8" y="4" width="209" height="107" rx="10" fill="#FDFDFD"/>
<rect x="8.5" y="4.5" width="208" height="106" rx="9.5" stroke="black" stroke-opacity="0.05"/>
<path d="M45.4803 29.9443C45.2391 30.1913 45.0543 30.4894 44.9392 30.8173C44.824 31.1453 44.7814 31.495 44.8144 31.8416L44.8029 31.8299C44.8368 32.2379 44.7827 32.6485 44.6445 33.033C44.5062 33.4175 44.2872 33.7667 44.0026 34.0562C43.7181 34.3458 43.3748 34.5686 42.9969 34.7092C42.6189 34.8498 42.2153 34.9049 41.8143 34.8704L41.8258 34.8821C41.3461 34.8366 40.8643 34.9429 40.4461 35.1862C40.0279 35.4295 39.6936 35.7982 39.4889 36.2419C39.2842 36.6856 39.219 37.1827 39.3022 37.6655C39.3853 38.1482 39.6128 38.5932 39.9536 38.9396C40.2944 39.286 40.732 39.517 41.2066 39.6012C41.6812 39.6854 42.1698 39.6186 42.6057 39.4099C43.0416 39.2012 43.4037 38.8609 43.6425 38.4352C43.8813 38.0095 43.9853 37.5193 43.9402 37.0313L43.9523 37.0429C43.9184 36.635 43.9725 36.2244 44.1107 35.8398C44.249 35.4553 44.468 35.1061 44.7526 34.8166C45.0371 34.5271 45.3804 34.3043 45.7583 34.1636C46.1363 34.023 46.5399 33.968 46.9409 34.0024L46.9288 33.9908C47.3207 34.0266 47.7151 33.9613 48.0755 33.8008C48.4359 33.6402 48.7506 33.3898 48.9905 33.0725C49.2305 32.7553 49.3878 32.3816 49.4479 31.9861C49.5081 31.5905 49.4691 31.1859 49.3347 30.8098C49.2002 30.4336 48.9746 30.0981 48.6787 29.8342C48.3828 29.5704 48.0263 29.3869 47.6421 29.3006C47.2579 29.2143 46.8586 29.228 46.481 29.3406C46.1034 29.4531 45.7599 29.6608 45.4823 29.9443H45.4803Z" fill="#F9EE8A"/>
<path d="M40.7834 33.3545L40.7713 33.3428C41.1122 33.3778 41.4564 33.3352 41.7791 33.2182C42.1017 33.1013 42.3948 32.9128 42.6372 32.6664C42.8795 32.4201 43.065 32.1221 43.1802 31.7939C43.2954 31.4657 43.3375 31.1155 43.3034 30.7687L43.3155 30.7804C43.2817 30.3724 43.3357 29.9618 43.474 29.5773C43.6122 29.1928 43.8312 28.8436 44.1158 28.554C44.4004 28.2645 44.7436 28.0417 45.1216 27.9011C45.4995 27.7605 45.9031 27.7054 46.3041 27.7399L46.292 27.7282C46.7718 27.7741 47.2537 27.6682 47.6721 27.4251C48.0906 27.1821 48.4251 26.8136 48.6302 26.37C48.8352 25.9264 48.9007 25.4292 48.8178 24.9463C48.7349 24.4634 48.5076 24.0183 48.1668 23.6717C47.8261 23.325 47.3886 23.0938 46.9139 23.0094C46.4393 22.9251 45.9506 22.9917 45.5146 23.2003C45.0785 23.4089 44.7163 23.7492 44.4774 24.1749C44.2385 24.6006 44.1345 25.091 44.1795 25.579L44.168 25.5667C44.202 25.9747 44.148 26.3853 44.0098 26.7699C43.8717 27.1545 43.6526 27.5038 43.368 27.7933C43.0834 28.0828 42.7401 28.3057 42.3621 28.4462C41.9841 28.5868 41.5805 28.6418 41.1794 28.6072L41.1909 28.6195C40.8501 28.5846 40.5058 28.6271 40.1832 28.7441C39.8605 28.8611 39.5674 29.0496 39.325 29.2959C39.0827 29.5422 38.8973 29.8403 38.782 30.1685C38.6668 30.4967 38.6247 30.8469 38.6588 31.1936L38.6473 31.182C38.6811 31.5899 38.6269 32.0005 38.4887 32.3849C38.3504 32.7694 38.1314 33.1186 37.8468 33.4081C37.5623 33.6975 37.2191 33.9204 36.8412 34.061C36.4632 34.2017 36.0597 34.2568 35.6587 34.2225L35.6702 34.2341C35.1905 34.1883 34.7085 34.2941 34.2901 34.5372C33.8716 34.7803 33.5371 35.1488 33.3321 35.5924C33.127 36.036 33.0615 36.5332 33.1444 37.016C33.2273 37.4989 33.4547 37.9441 33.7954 38.2907C34.1361 38.6373 34.5736 38.8686 35.0483 38.9529C35.5229 39.0373 36.0116 38.9706 36.4476 38.762C36.8837 38.5535 37.2459 38.2131 37.4848 37.7874C37.7237 37.3617 37.8278 36.8714 37.7827 36.3833L37.7948 36.395C37.761 35.987 37.815 35.5764 37.9532 35.1919C38.0915 34.8074 38.3105 34.4582 38.5951 34.1687C38.8797 33.8792 39.2229 33.6563 39.6009 33.5157C39.9788 33.3751 40.3824 33.3201 40.7834 33.3545Z" fill="#F9BF8A"/>
<path d="M36.5165 32.0544C36.7578 31.8074 36.9426 31.5093 37.0576 31.1814C37.1726 30.8534 37.215 30.5037 37.1818 30.1571L37.1939 30.1688C37.1601 29.7607 37.2142 29.35 37.3524 28.9654C37.4907 28.5807 37.7099 28.2315 37.9946 27.9419C38.2793 27.6524 38.6227 27.4296 39.0009 27.289C39.379 27.1485 39.7827 27.0936 40.1838 27.1283L40.1717 27.1166C40.6513 27.1623 41.133 27.0564 41.5513 26.8134C41.9695 26.5703 42.3039 26.2019 42.5088 25.7585C42.7137 25.315 42.7791 24.818 42.6962 24.3353C42.6133 23.8526 42.3861 23.4076 42.0455 23.0611C41.7049 22.7146 41.2675 22.4834 40.7931 22.3991C40.3186 22.3147 39.8301 22.3813 39.3942 22.5898C38.9583 22.7982 38.5962 23.1384 38.3573 23.5639C38.1184 23.9894 38.0143 24.4795 38.0592 24.9674L38.0477 24.9558C38.0816 25.3637 38.0275 25.7743 37.8893 26.1589C37.7511 26.5434 37.532 26.8926 37.2475 27.1821C36.9629 27.4716 36.6196 27.6944 36.2417 27.8351C35.8637 27.9757 35.4601 28.0307 35.0591 27.9963L35.0706 28.0079C34.6787 27.9722 34.2844 28.0376 33.924 28.1982C33.5637 28.3588 33.249 28.6093 33.0091 28.9266C32.7693 29.2438 32.612 29.6175 32.552 30.0131C32.4919 30.4086 32.5309 30.8132 32.6654 31.1893C32.7999 31.5654 33.0256 31.9009 33.3215 32.1647C33.6174 32.4285 33.9739 32.612 34.3581 32.6982C34.7422 32.7845 35.1416 32.7707 35.5191 32.6582C35.8966 32.5456 36.2401 32.3379 36.5178 32.0544H36.5165Z" fill="#EF6E6E"/>
<path d="M67.8329 28.2234C67.7674 27.6418 67.4971 27.1913 67.022 26.8718C66.5469 26.5482 65.9489 26.3865 65.2281 26.3865C64.712 26.3865 64.2656 26.4684 63.8888 26.6322C63.512 26.7919 63.2192 27.0131 63.0103 27.2957C62.8055 27.5742 62.7031 27.8916 62.7031 28.2479C62.7031 28.5469 62.7727 28.8049 62.912 29.022C63.0553 29.2391 63.2417 29.4213 63.471 29.5688C63.7045 29.7121 63.9543 29.833 64.2206 29.9313C64.4868 30.0254 64.7427 30.1033 64.9885 30.1647L66.2172 30.4842C66.6186 30.5825 67.0302 30.7156 67.452 30.8835C67.8739 31.0514 68.265 31.2726 68.6254 31.547C68.9858 31.8214 69.2766 32.1613 69.4978 32.5668C69.723 32.9723 69.8357 33.4576 69.8357 34.0228C69.8357 34.7354 69.6514 35.3682 69.2828 35.9211C68.9183 36.474 68.3879 36.9102 67.6916 37.2297C66.9994 37.5491 66.1619 37.7089 65.1789 37.7089C64.2369 37.7089 63.4219 37.5594 62.7338 37.2604C62.0458 36.9614 61.5072 36.5375 61.1181 35.9887C60.729 35.4358 60.514 34.7805 60.473 34.0228H62.3775C62.4144 34.4774 62.5618 34.8563 62.8198 35.1593C63.082 35.4583 63.4158 35.6815 63.8212 35.829C64.2308 35.9723 64.6793 36.044 65.1666 36.044C65.7032 36.044 66.1803 35.96 66.5981 35.7921C67.0199 35.6201 67.3517 35.3826 67.5933 35.0795C67.835 34.7723 67.9558 34.4139 67.9558 34.0044C67.9558 33.6317 67.8493 33.3265 67.6363 33.089C67.4274 32.8514 67.1428 32.6549 66.7824 32.4992C66.4261 32.3436 66.0226 32.2064 65.5721 32.0876L64.0854 31.6821C63.0779 31.4077 62.2792 31.0043 61.6894 30.4719C61.1038 29.9394 60.8109 29.235 60.8109 28.3585C60.8109 27.6336 61.0075 27.0008 61.4007 26.4602C61.7939 25.9196 62.3263 25.4998 62.998 25.2008C63.6697 24.8977 64.4274 24.7462 65.2711 24.7462C66.123 24.7462 66.8745 24.8957 67.5257 25.1946C68.181 25.4936 68.6971 25.9052 69.0739 26.4295C69.4507 26.9496 69.6473 27.5476 69.6637 28.2234H67.8329ZM76.0237 37.6904C75.094 37.6904 74.2933 37.4918 73.6216 37.0945C72.954 36.6932 72.4379 36.13 72.0734 35.4051C71.713 34.6761 71.5328 33.8221 71.5328 32.8433C71.5328 31.8767 71.713 31.0248 72.0734 30.2876C72.4379 29.5504 72.9458 28.9749 73.597 28.5613C74.2523 28.1476 75.0182 27.9408 75.8947 27.9408C76.4271 27.9408 76.9432 28.0288 77.4428 28.2049C77.9425 28.381 78.391 28.6575 78.7882 29.0343C79.1855 29.4111 79.4988 29.9005 79.7282 30.5026C79.9576 31.1006 80.0722 31.8275 80.0722 32.6835V33.3347H72.5711V31.9586H78.2722C78.2722 31.4753 78.1739 31.0473 77.9773 30.6746C77.7807 30.2978 77.5043 30.0009 77.1479 29.7838C76.7957 29.5667 76.3821 29.4582 75.907 29.4582C75.3909 29.4582 74.9404 29.5852 74.5554 29.8391C74.1745 30.0889 73.8796 30.4166 73.6707 30.8221C73.466 31.2234 73.3636 31.6596 73.3636 32.1306V33.2057C73.3636 33.8364 73.4741 34.373 73.6953 34.8153C73.9206 35.2576 74.2339 35.5955 74.6353 35.829C75.0366 36.0583 75.5056 36.173 76.0421 36.173C76.3902 36.173 76.7077 36.1239 76.9944 36.0256C77.281 35.9232 77.5288 35.7716 77.7377 35.571C77.9466 35.3703 78.1063 35.1225 78.2169 34.8276L79.9555 35.1409C79.8163 35.6529 79.5664 36.1013 79.206 36.4863C78.8497 36.8672 78.4012 37.1642 77.8606 37.3771C77.3241 37.586 76.7118 37.6904 76.0237 37.6904ZM89.1815 30.3674L87.5166 30.6623C87.4469 30.4493 87.3364 30.2466 87.1848 30.0541C87.0374 29.8616 86.8367 29.7039 86.5828 29.5811C86.3288 29.4582 86.0114 29.3968 85.6305 29.3968C85.1104 29.3968 84.6762 29.5135 84.3281 29.7469C83.98 29.9763 83.8059 30.2732 83.8059 30.6377C83.8059 30.9531 83.9226 31.207 84.1561 31.3995C84.3896 31.592 84.7664 31.7497 85.2865 31.8726L86.7855 32.2166C87.6538 32.4173 88.3009 32.7265 88.7268 33.1443C89.1528 33.562 89.3658 34.1047 89.3658 34.7723C89.3658 35.3375 89.2019 35.8413 88.8743 36.2836C88.5507 36.7218 88.0982 37.0659 87.5166 37.3157C86.9391 37.5655 86.2695 37.6904 85.5077 37.6904C84.451 37.6904 83.5889 37.4652 82.9213 37.0147C82.2537 36.56 81.8441 35.915 81.6926 35.0795L83.468 34.8092C83.5786 35.272 83.8059 35.6221 84.15 35.8597C84.494 36.0931 84.9425 36.2099 85.4954 36.2099C86.0974 36.2099 86.5787 36.085 86.9391 35.8351C87.2995 35.5812 87.4797 35.272 87.4797 34.9075C87.4797 34.6126 87.3691 34.3648 87.148 34.1641C86.9309 33.9634 86.5971 33.8119 86.1466 33.7095L84.5493 33.3593C83.6687 33.1586 83.0175 32.8392 82.5957 32.4009C82.1779 31.9627 81.969 31.4077 81.969 30.736C81.969 30.179 82.1247 29.6917 82.4359 29.2739C82.7472 28.8561 83.1772 28.5305 83.7261 28.2971C84.2749 28.0595 84.9036 27.9408 85.6121 27.9408C86.6319 27.9408 87.4347 28.1619 88.0203 28.6043C88.606 29.0425 88.9931 29.6302 89.1815 30.3674ZM98.4566 30.3674L96.7917 30.6623C96.722 30.4493 96.6115 30.2466 96.4599 30.0541C96.3125 29.8616 96.1118 29.7039 95.8579 29.5811C95.6039 29.4582 95.2865 29.3968 94.9056 29.3968C94.3855 29.3968 93.9513 29.5135 93.6032 29.7469C93.2551 29.9763 93.081 30.2732 93.081 30.6377C93.081 30.9531 93.1977 31.207 93.4312 31.3995C93.6646 31.592 94.0414 31.7497 94.5616 31.8726L96.0606 32.2166C96.9289 32.4173 97.576 32.7265 98.0019 33.1443C98.4279 33.562 98.6409 34.1047 98.6409 34.7723C98.6409 35.3375 98.477 35.8413 98.1494 36.2836C97.8258 36.7218 97.3733 37.0659 96.7917 37.3157C96.2142 37.5655 95.5445 37.6904 94.7828 37.6904C93.7261 37.6904 92.8639 37.4652 92.1964 37.0147C91.5288 36.56 91.1192 35.915 90.9677 35.0795L92.7431 34.8092C92.8537 35.272 93.081 35.6221 93.4251 35.8597C93.7691 36.0931 94.2176 36.2099 94.7705 36.2099C95.3725 36.2099 95.8538 36.085 96.2142 35.8351C96.5746 35.5812 96.7548 35.272 96.7548 34.9075C96.7548 34.6126 96.6442 34.3648 96.4231 34.1641C96.206 33.9634 95.8722 33.8119 95.4217 33.7095L93.8244 33.3593C92.9438 33.1586 92.2926 32.8392 91.8708 32.4009C91.453 31.9627 91.2441 31.4077 91.2441 30.736C91.2441 30.179 91.3998 29.6917 91.711 29.2739C92.0223 28.8561 92.4523 28.5305 93.0012 28.2971C93.55 28.0595 94.1787 27.9408 94.8872 27.9408C95.907 27.9408 96.7098 28.1619 97.2954 28.6043C97.8811 29.0425 98.2682 29.6302 98.4566 30.3674ZM100.661 37.5V28.0636H102.497V37.5H100.661ZM101.588 26.6076C101.269 26.6076 100.994 26.5011 100.765 26.2882C100.54 26.0711 100.427 25.8131 100.427 25.5141C100.427 25.211 100.54 24.953 100.765 24.74C100.994 24.523 101.269 24.4144 101.588 24.4144C101.908 24.4144 102.18 24.523 102.405 24.74C102.635 24.953 102.749 25.211 102.749 25.5141C102.749 25.8131 102.635 26.0711 102.405 26.2882C102.18 26.5011 101.908 26.6076 101.588 26.6076ZM108.943 37.6904C108.059 37.6904 107.287 37.4877 106.627 37.0822C105.968 36.6768 105.456 36.1095 105.091 35.3805C104.727 34.6515 104.545 33.7996 104.545 32.8248C104.545 31.846 104.727 30.99 105.091 30.2569C105.456 29.5237 105.968 28.9544 106.627 28.549C107.287 28.1435 108.059 27.9408 108.943 27.9408C109.828 27.9408 110.6 28.1435 111.26 28.549C111.919 28.9544 112.431 29.5237 112.795 30.2569C113.16 30.99 113.342 31.846 113.342 32.8248C113.342 33.7996 113.16 34.6515 112.795 35.3805C112.431 36.1095 111.919 36.6768 111.26 37.0822C110.6 37.4877 109.828 37.6904 108.943 37.6904ZM108.95 36.1484C109.523 36.1484 109.998 35.9969 110.375 35.6938C110.752 35.3907 111.03 34.9873 111.21 34.4836C111.395 33.9798 111.487 33.4248 111.487 32.8187C111.487 32.2166 111.395 31.6637 111.21 31.1599C111.03 30.6521 110.752 30.2446 110.375 29.9374C109.998 29.6302 109.523 29.4766 108.95 29.4766C108.372 29.4766 107.893 29.6302 107.512 29.9374C107.135 30.2446 106.855 30.6521 106.67 31.1599C106.49 31.6637 106.4 32.2166 106.4 32.8187C106.4 33.4248 106.49 33.9798 106.67 34.4836C106.855 34.9873 107.135 35.3907 107.512 35.6938C107.893 35.9969 108.372 36.1484 108.95 36.1484ZM117.229 31.8972V37.5H115.393V28.0636H117.156V29.5995H117.272C117.49 29.0998 117.829 28.6985 118.292 28.3954C118.759 28.0923 119.347 27.9408 120.055 27.9408C120.698 27.9408 121.262 28.0759 121.745 28.3462C122.228 28.6125 122.603 29.0097 122.869 29.5381C123.135 30.0664 123.268 30.7197 123.268 31.4978V37.5H121.432V31.719C121.432 31.035 121.253 30.5005 120.897 30.1156C120.541 29.7265 120.051 29.5319 119.429 29.5319C119.003 29.5319 118.624 29.6241 118.292 29.8084C117.965 29.9927 117.705 30.263 117.512 30.6193C117.324 30.9715 117.229 31.3975 117.229 31.8972ZM130.31 37.5V28.0636H132.086V29.5626H132.184C132.356 29.0548 132.659 28.6555 133.093 28.3647C133.532 28.0698 134.027 27.9223 134.58 27.9223C134.695 27.9223 134.83 27.9264 134.986 27.9346C135.145 27.9428 135.27 27.9531 135.36 27.9653V29.7224C135.287 29.7019 135.156 29.6794 134.967 29.6548C134.779 29.6261 134.59 29.6118 134.402 29.6118C133.968 29.6118 133.581 29.7039 133.241 29.8882C132.905 30.0685 132.639 30.3203 132.442 30.6439C132.246 30.9634 132.147 31.3279 132.147 31.7374V37.5H130.31ZM140.679 37.6904C139.749 37.6904 138.949 37.4918 138.277 37.0945C137.609 36.6932 137.093 36.13 136.729 35.4051C136.368 34.6761 136.188 33.8221 136.188 32.8433C136.188 31.8767 136.368 31.0248 136.729 30.2876C137.093 29.5504 137.601 28.9749 138.252 28.5613C138.908 28.1476 139.674 27.9408 140.55 27.9408C141.082 27.9408 141.599 28.0288 142.098 28.2049C142.598 28.381 143.046 28.6575 143.444 29.0343C143.841 29.4111 144.154 29.9005 144.384 30.5026C144.613 31.1006 144.728 31.8275 144.728 32.6835V33.3347H137.226V31.9586H142.928C142.928 31.4753 142.829 31.0473 142.633 30.6746C142.436 30.2978 142.16 30.0009 141.803 29.7838C141.451 29.5667 141.037 29.4582 140.562 29.4582C140.046 29.4582 139.596 29.5852 139.211 29.8391C138.83 30.0889 138.535 30.4166 138.326 30.8221C138.121 31.2234 138.019 31.6596 138.019 32.1306V33.2057C138.019 33.8364 138.13 34.373 138.351 34.8153C138.576 35.2576 138.889 35.5955 139.291 35.829C139.692 36.0583 140.161 36.173 140.697 36.173C141.046 36.173 141.363 36.1239 141.65 36.0256C141.936 35.9232 142.184 35.7716 142.393 35.571C142.602 35.3703 142.762 35.1225 142.872 34.8276L144.611 35.1409C144.472 35.6529 144.222 36.1013 143.861 36.4863C143.505 36.8672 143.057 37.1642 142.516 37.3771C141.979 37.586 141.367 37.6904 140.679 37.6904ZM153.136 41.0386V36.0317H153.026C152.915 36.2324 152.756 36.4618 152.547 36.7198C152.342 36.9778 152.059 37.2031 151.699 37.3956C151.338 37.5881 150.872 37.6843 150.298 37.6843C149.536 37.6843 148.857 37.4898 148.259 37.1007C147.665 36.7075 147.198 36.1484 146.858 35.4235C146.522 34.6945 146.354 33.8201 146.354 32.8002C146.354 31.7804 146.524 30.9081 146.864 30.1831C147.208 29.4582 147.679 28.9032 148.277 28.5183C148.875 28.1333 149.553 27.9408 150.31 27.9408C150.896 27.9408 151.367 28.0391 151.723 28.2357C152.084 28.4281 152.362 28.6534 152.559 28.9114C152.76 29.1695 152.915 29.3968 153.026 29.5934H153.179V28.0636H154.973V41.0386H153.136ZM150.704 36.1177C151.232 36.1177 151.678 35.9785 152.043 35.7C152.412 35.4174 152.69 35.0262 152.878 34.5266C153.071 34.0269 153.167 33.4453 153.167 32.7818C153.167 32.1265 153.073 31.5531 152.885 31.0616C152.696 30.5702 152.42 30.1872 152.055 29.9128C151.691 29.6384 151.24 29.5012 150.704 29.5012C150.151 29.5012 149.69 29.6446 149.321 29.9313C148.953 30.2179 148.674 30.6091 148.486 31.1047C148.302 31.6002 148.209 32.1593 148.209 32.7818C148.209 33.4125 148.304 33.9798 148.492 34.4836C148.68 34.9873 148.959 35.3866 149.328 35.6815C149.7 35.9723 150.159 36.1177 150.704 36.1177ZM163.421 33.5866V28.0636H165.264V37.5H163.457V35.8658H163.359C163.142 36.3696 162.794 36.7894 162.315 37.1252C161.84 37.457 161.248 37.6229 160.539 37.6229C159.933 37.6229 159.397 37.4898 158.93 37.2235C158.467 36.9532 158.102 36.5539 157.836 36.0256C157.574 35.4972 157.443 34.844 157.443 34.0658V28.0636H159.28V33.8446C159.28 34.4877 159.458 34.9996 159.814 35.3805C160.171 35.7614 160.634 35.9518 161.203 35.9518C161.547 35.9518 161.889 35.8658 162.229 35.6938C162.573 35.5218 162.857 35.2617 163.083 34.9136C163.312 34.5655 163.425 34.1231 163.421 33.5866ZM171.799 37.6904C170.869 37.6904 170.068 37.4918 169.397 37.0945C168.729 36.6932 168.213 36.13 167.849 35.4051C167.488 34.6761 167.308 33.8221 167.308 32.8433C167.308 31.8767 167.488 31.0248 167.849 30.2876C168.213 29.5504 168.721 28.9749 169.372 28.5613C170.027 28.1476 170.793 27.9408 171.67 27.9408C172.202 27.9408 172.718 28.0288 173.218 28.2049C173.718 28.381 174.166 28.6575 174.563 29.0343C174.961 29.4111 175.274 29.9005 175.503 30.5026C175.733 31.1006 175.847 31.8275 175.847 32.6835V33.3347H168.346V31.9586H174.047C174.047 31.4753 173.949 31.0473 173.752 30.6746C173.556 30.2978 173.279 30.0009 172.923 29.7838C172.571 29.5667 172.157 29.4582 171.682 29.4582C171.166 29.4582 170.715 29.5852 170.33 29.8391C169.95 30.0889 169.655 30.4166 169.446 30.8221C169.241 31.2234 169.139 31.6596 169.139 32.1306V33.2057C169.139 33.8364 169.249 34.373 169.47 34.8153C169.696 35.2576 170.009 35.5955 170.41 35.829C170.812 36.0583 171.281 36.173 171.817 36.173C172.165 36.173 172.483 36.1239 172.769 36.0256C173.056 35.9232 173.304 35.7716 173.513 35.571C173.722 35.3703 173.881 35.1225 173.992 34.8276L175.731 35.1409C175.591 35.6529 175.342 36.1013 174.981 36.4863C174.625 36.8672 174.176 37.1642 173.636 37.3771C173.099 37.586 172.487 37.6904 171.799 37.6904ZM184.957 30.3674L183.292 30.6623C183.222 30.4493 183.111 30.2466 182.96 30.0541C182.812 29.8616 182.612 29.7039 182.358 29.5811C182.104 29.4582 181.787 29.3968 181.406 29.3968C180.885 29.3968 180.451 29.5135 180.103 29.7469C179.755 29.9763 179.581 30.2732 179.581 30.6377C179.581 30.9531 179.698 31.207 179.931 31.3995C180.165 31.592 180.541 31.7497 181.062 31.8726L182.561 32.2166C183.429 32.4173 184.076 32.7265 184.502 33.1443C184.928 33.562 185.141 34.1047 185.141 34.7723C185.141 35.3375 184.977 35.8413 184.649 36.2836C184.326 36.7218 183.873 37.0659 183.292 37.3157C182.714 37.5655 182.045 37.6904 181.283 37.6904C180.226 37.6904 179.364 37.4652 178.696 37.0147C178.029 36.56 177.619 35.915 177.468 35.0795L179.243 34.8092C179.354 35.272 179.581 35.6221 179.925 35.8597C180.269 36.0931 180.718 36.2099 181.27 36.2099C181.873 36.2099 182.354 36.085 182.714 35.8351C183.075 35.5812 183.255 35.272 183.255 34.9075C183.255 34.6126 183.144 34.3648 182.923 34.1641C182.706 33.9634 182.372 33.8119 181.922 33.7095L180.324 33.3593C179.444 33.1586 178.793 32.8392 178.371 32.4009C177.953 31.9627 177.744 31.4077 177.744 30.736C177.744 30.179 177.9 29.6917 178.211 29.2739C178.522 28.8561 178.952 28.5305 179.501 28.2971C180.05 28.0595 180.679 27.9408 181.387 27.9408C182.407 27.9408 183.21 28.1619 183.795 28.6043C184.381 29.0425 184.768 29.6302 184.957 30.3674ZM191.565 28.0636V29.5381H186.411V28.0636H191.565ZM187.793 25.8028H189.63V34.7293C189.63 35.0856 189.683 35.3539 189.79 35.5341C189.896 35.7102 190.034 35.831 190.202 35.8966C190.374 35.958 190.56 35.9887 190.761 35.9887C190.908 35.9887 191.037 35.9785 191.148 35.958C191.258 35.9375 191.344 35.9211 191.406 35.9088L191.737 37.4263C191.631 37.4672 191.479 37.5082 191.283 37.5491C191.086 37.5942 190.84 37.6188 190.546 37.6229C190.062 37.6311 189.612 37.5451 189.194 37.3648C188.776 37.1846 188.438 36.9061 188.18 36.5293C187.922 36.1525 187.793 35.6795 187.793 35.1102V25.8028Z" fill="black"/>
<rect x="31" y="57.5" width="163" height="37" rx="7" fill="#0A2640" fill-opacity="0.1"/>
<path d="M89.28 81L92.458 70.92H94.929L98.107 81H96.371L93.487 71.956H93.865L91.016 81H89.28ZM91.051 78.816V77.241H96.343V78.816H91.051ZM102.376 81.21C101.596 81.21 100.931 81.0373 100.381 80.692C99.8299 80.342 99.4076 79.866 99.1136 79.264C98.8242 78.662 98.6772 77.9807 98.6726 77.22C98.6772 76.4453 98.8289 75.7593 99.1276 75.162C99.4309 74.56 99.8602 74.0887 100.416 73.748C100.971 73.4027 101.631 73.23 102.397 73.23C103.255 73.23 103.981 73.447 104.574 73.881C105.171 74.3103 105.561 74.8983 105.743 75.645L104.063 76.1C103.932 75.694 103.715 75.379 103.412 75.155C103.108 74.9263 102.763 74.812 102.376 74.812C101.937 74.812 101.575 74.917 101.291 75.127C101.006 75.3323 100.796 75.617 100.661 75.981C100.525 76.345 100.458 76.758 100.458 77.22C100.458 77.9387 100.619 78.5197 100.941 78.963C101.263 79.4063 101.741 79.628 102.376 79.628C102.824 79.628 103.176 79.5253 103.433 79.32C103.694 79.1147 103.89 78.8183 104.021 78.431L105.743 78.816C105.509 79.586 105.101 80.1787 104.518 80.594C103.934 81.0047 103.22 81.21 102.376 81.21ZM109.943 81.21C109.164 81.21 108.499 81.0373 107.948 80.692C107.398 80.342 106.975 79.866 106.681 79.264C106.392 78.662 106.245 77.9807 106.24 77.22C106.245 76.4453 106.397 75.7593 106.695 75.162C106.999 74.56 107.428 74.0887 107.983 73.748C108.539 73.4027 109.199 73.23 109.964 73.23C110.823 73.23 111.549 73.447 112.141 73.881C112.739 74.3103 113.128 74.8983 113.31 75.645L111.63 76.1C111.5 75.694 111.283 75.379 110.979 75.155C110.676 74.9263 110.331 74.812 109.943 74.812C109.505 74.812 109.143 74.917 108.858 75.127C108.574 75.3323 108.364 75.617 108.228 75.981C108.093 76.345 108.025 76.758 108.025 77.22C108.025 77.9387 108.186 78.5197 108.508 78.963C108.83 79.4063 109.309 79.628 109.943 79.628C110.391 79.628 110.744 79.5253 111 79.32C111.262 79.1147 111.458 78.8183 111.588 78.431L113.31 78.816C113.077 79.586 112.669 80.1787 112.085 80.594C111.502 81.0047 110.788 81.21 109.943 81.21ZM117.665 81.21C116.9 81.21 116.228 81.0443 115.649 80.713C115.07 80.3817 114.618 79.922 114.291 79.334C113.969 78.746 113.808 78.0693 113.808 77.304C113.808 76.478 113.967 75.7617 114.284 75.155C114.601 74.5437 115.042 74.07 115.607 73.734C116.172 73.398 116.825 73.23 117.567 73.23C118.351 73.23 119.016 73.4143 119.562 73.783C120.113 74.147 120.521 74.6627 120.787 75.33C121.053 75.9973 121.153 76.7837 121.088 77.689H119.415V77.073C119.41 76.2517 119.266 75.652 118.981 75.274C118.696 74.896 118.248 74.707 117.637 74.707C116.946 74.707 116.433 74.9217 116.097 75.351C115.761 75.7757 115.593 76.3987 115.593 77.22C115.593 77.9853 115.761 78.578 116.097 78.998C116.433 79.418 116.923 79.628 117.567 79.628C117.982 79.628 118.339 79.537 118.638 79.355C118.941 79.1683 119.175 78.9 119.338 78.55L121.004 79.054C120.715 79.7353 120.267 80.265 119.66 80.643C119.058 81.021 118.393 81.21 117.665 81.21ZM115.061 77.689V76.415H120.262V77.689H115.061ZM125.798 81.21C125.06 81.21 124.442 81.035 123.943 80.685C123.443 80.335 123.068 79.859 122.816 79.257C122.564 78.6503 122.438 77.9713 122.438 77.22C122.438 76.4593 122.564 75.778 122.816 75.176C123.068 74.574 123.436 74.1003 123.922 73.755C124.412 73.405 125.016 73.23 125.735 73.23C126.449 73.23 127.067 73.405 127.59 73.755C128.117 74.1003 128.525 74.574 128.815 75.176C129.104 75.7733 129.249 76.4547 129.249 77.22C129.249 77.976 129.106 78.655 128.822 79.257C128.537 79.859 128.136 80.335 127.618 80.685C127.1 81.035 126.493 81.21 125.798 81.21ZM122.151 84.36V73.44H123.642V78.746H123.852V84.36H122.151ZM125.539 79.698C125.977 79.698 126.339 79.5883 126.624 79.369C126.908 79.1497 127.118 78.8533 127.254 78.48C127.394 78.102 127.464 77.682 127.464 77.22C127.464 76.7627 127.394 76.3473 127.254 75.974C127.114 75.596 126.897 75.2973 126.603 75.078C126.309 74.854 125.935 74.742 125.483 74.742C125.053 74.742 124.703 74.847 124.433 75.057C124.162 75.2623 123.961 75.5517 123.831 75.925C123.705 76.2937 123.642 76.7253 123.642 77.22C123.642 77.71 123.705 78.1417 123.831 78.515C123.961 78.8883 124.164 79.18 124.44 79.39C124.72 79.5953 125.086 79.698 125.539 79.698ZM134.943 81C134.443 81.0933 133.953 81.133 133.473 81.119C132.997 81.1097 132.57 81.0233 132.192 80.86C131.814 80.692 131.527 80.4283 131.331 80.069C131.158 79.7423 131.067 79.4087 131.058 79.068C131.048 78.7273 131.044 78.3423 131.044 77.913V71.34H132.724V77.815C132.724 78.1183 132.726 78.3843 132.731 78.613C132.74 78.8417 132.789 79.0283 132.878 79.173C133.046 79.453 133.314 79.6093 133.683 79.642C134.051 79.6747 134.471 79.656 134.943 79.586V81ZM129.672 74.763V73.44H134.943V74.763H129.672Z" fill="#0A2640"/>
</g>
<defs>
<filter id="filter0_d_110_857" x="0" y="0" width="225" height="123" filterUnits="userSpaceOnUse" color-interpolation-filters="sRGB">
<feFlood flood-opacity="0" result="BackgroundImageFix"/>
<feColorMatrix in="SourceAlpha" type="matrix" values="0 0 0 0 0 0 0 0 0 0 0 0 0 0 0 0 0 0 127 0" result="hardAlpha"/>
<feOffset dy="4"/>
<feGaussianBlur stdDeviation="4"/>
<feComposite in2="hardAlpha" operator="out"/>
<feColorMatrix type="matrix" values="0 0 0 0 0 0 0 0 0 0 0 0 0 0 0 0 0 0 0.07 0"/>
<feBlend mode="normal" in2="BackgroundImageFix" result="effect1_dropShadow_110_857"/>
<feBlend mode="normal" in="SourceGraphic" in2="effect1_dropShadow_110_857" result="shape"/>
</filter>
</defs>
</svg>
