<svg width="704" height="704" viewBox="0 0 704 704" fill="none" xmlns="http://www.w3.org/2000/svg">
<path d="M161.92 298.622C161.92 298.622 124.023 186.489 256.206 200.175C388.389 213.861 325.233 164.229 375.182 133.429C425.131 102.629 572.302 198.45 510.73 290.871C449.159 383.292 609.128 298.749 642.498 437.733C663.09 523.501 612.001 586.629 569.852 622.413" stroke="#0A2640" stroke-width="3" stroke-miterlimit="10"/>
<path d="M582.743 515.259C572.81 457.735 537.638 406.259 480.494 387.835C465.876 383.149 450.928 379.56 435.776 377.099V377.177C434.986 381.952 433.115 386.484 430.306 390.426C424.35 398.585 416.141 405.287 406.637 408.779C396.936 412.369 384.919 412.834 375.915 407.188C370.494 403.795 365.235 397.818 364.285 391.369C363.201 384.104 366.904 377.226 372.113 372.425C327.958 372.784 286.422 380.049 253.137 388.321C254.291 393.151 255.889 397.864 257.91 402.401C260.74 408.725 264.738 414.458 269.695 419.297C275.879 413.171 281.292 406.316 285.817 398.881C290.145 400.297 293.962 402.956 296.792 406.524C299.622 410.093 301.341 414.414 301.734 418.952V419.184C303.48 435.665 287.612 448.048 274.278 455.666C258.875 464.522 241.704 471.153 224.837 476.666C217.881 478.947 208.842 480.89 201.499 478.51C200.708 478.258 199.937 477.95 199.19 477.588C191.868 473.998 186.968 466.472 183.146 459.594C172.255 440.058 165.173 418.762 160.371 396.903C127.051 401.162 123.235 378.599 121.257 373.065L92.752 452.751C91.2567 458.479 91.0955 464.473 92.2789 470.274C93.4631 476.074 95.9616 481.526 99.5822 486.209C103.202 490.893 107.849 494.684 113.163 497.292C118.478 499.899 124.32 501.253 130.24 501.25H248.245L301.847 638.741L317.039 677.763H403.814C396.774 677.763 392.924 676.046 390.129 673.244C387.242 670.356 385.617 666.442 385.609 662.36C385.609 653.912 392.543 646.985 403.814 646.985H404.61C403.758 646.985 402.941 646.907 402.09 646.83C402.618 646.773 403.141 646.685 403.66 646.569C403.101 646.556 402.544 646.514 401.991 646.442C407.075 645.842 411.786 643.474 415.3 639.752C418.815 636.031 420.909 631.192 421.217 626.083C421.231 625.817 421.231 625.552 421.217 625.287V624.879C421.096 619.64 419.093 614.62 415.577 610.736C412.06 606.852 407.262 604.363 402.061 603.724C402.653 603.674 403.216 603.625 403.786 603.625C403.272 603.498 402.702 603.421 402.167 603.344C403.012 603.266 403.864 603.21 404.68 603.21L468.167 603.548L479.846 603.597H493.708C494.349 603.597 494.997 603.597 495.609 603.674L516.201 603.78L529.957 603.858C535.707 603.905 541.202 606.229 545.243 610.319C549.284 614.408 551.541 619.932 551.521 625.682C551.514 628.933 550.76 632.138 549.317 635.052C555.22 634.296 560.692 631.567 564.847 627.308C574.753 617.191 579.019 602.048 581.969 588.588C587.185 564.61 586.876 539.343 582.743 515.259ZM422.344 516.878C410.383 535.288 390.016 533.634 390.016 533.634C390.016 533.634 388.326 535.281 384.384 528.269C380.442 521.257 369.213 516.463 369.213 516.463C368.319 523.503 366.467 534.204 348.093 520.335C329.718 506.466 335.259 486.247 336.829 475.568C338.399 464.888 344.657 461.347 344.657 461.347L352.049 457.447C352.049 457.447 330.669 451.948 329.641 451.744C328.613 451.54 309.57 435.594 328.895 431.385C348.22 427.175 378.344 443.916 384.166 447.225C389.988 450.533 424.012 479.313 424.012 479.313C424.012 479.313 434.368 498.497 422.344 516.878Z" fill="#353642"/>
<path d="M160.343 396.915C160.343 396.915 176.457 394.958 182.49 383.455L177.232 412.959C177.232 412.959 241.338 391.135 253.095 388.319C253.095 388.319 256.882 412.741 271.962 419.295L287.52 399.513C287.52 399.513 307.028 404.441 301.692 431.024C296.355 457.607 222.548 479.825 210.031 479.312C197.514 478.798 184.039 471.096 170.241 429.708L160.343 396.915Z" fill="#353642"/>
<path d="M186.595 331.191C190.678 337.836 194.782 344.468 199.02 351.015C201.632 355.049 206.391 360.801 201.33 365.018C199.682 366.281 197.693 367.017 195.62 367.13C192.368 367.419 188.953 366.637 186.975 363.842L177.119 347.509C175.155 344.252 172.035 341.854 168.383 340.792C164.73 339.73 160.812 340.083 157.407 341.779" stroke="black" stroke-width="5.47" stroke-miterlimit="10"/>
<path d="M223.872 352.703C226.449 358.827 224.703 362.777 221.69 364.762C216.762 367.994 210.165 366.445 206.674 361.728L186.631 331.224" stroke="black" stroke-width="5.47" stroke-miterlimit="10"/>
<path d="M203.562 322.32C210.855 331.19 220.056 347.664 225.146 354.542C230.236 361.42 238.107 357.274 238.107 357.274C244.499 353.831 243.415 348.122 240.62 341.187C233.735 324.165 223.907 312.844 212.946 305.424C178.978 282.445 144.13 299.398 133.76 339.061L92.752 452.75C91.2567 458.479 91.0955 464.473 92.2789 470.273C93.4631 476.074 95.9616 481.525 99.5822 486.209C103.202 490.893 107.849 494.684 113.163 497.292C118.478 499.898 124.32 501.252 130.24 501.249H248.245L317.061 677.77" stroke="black" stroke-width="5.47" stroke-miterlimit="10"/>
<path d="M245.696 333.379C254.144 330.451 253.757 316.976 241.768 312.428C228.525 307.402 205.012 300.291 199.105 298.517C199.069 298.489 199.024 298.472 198.979 298.468C198.563 298.341 198.275 298.236 198.049 298.186L197.718 298.081" stroke="black" stroke-width="5.47" stroke-miterlimit="10"/>
<path d="M370.515 468.103C363.123 459.219 342.89 454.185 329.683 451.749C327.463 451.332 325.439 450.205 323.915 448.538C322.392 446.871 321.451 444.754 321.235 442.506C321.082 440.989 321.257 439.457 321.749 438.014C322.536 435.799 324.045 433.912 326.032 432.656C328.02 431.4 330.372 430.847 332.71 431.087C355.238 433.368 378.47 440.457 395.655 455.727C395.655 455.727 478.959 519.298 488.907 525.486C493.011 527.978 496.841 525.036 494.06 521.121L493.187 519.629C488.291 511.226 482.496 503.38 475.904 496.228" stroke="black" stroke-width="5.47" stroke-miterlimit="10"/>
<path d="M372.057 372.416C267.288 373.289 177.232 412.952 177.232 412.952L186.222 362.56" stroke="black" stroke-width="5.47" stroke-miterlimit="10"/>
<path d="M534.779 646.673C534.779 646.673 523.367 644.089 520.333 653.227C517.299 662.365 514.131 676.902 535.948 677.761C557.765 678.62 544.952 674.333 543.692 667.272C542.432 660.211 534.779 646.673 534.779 646.673Z" fill="#353642"/>
<path d="M360.448 479.699C360.448 479.699 348.135 470.364 337.047 479.826C336.58 480.237 336.172 480.711 335.836 481.234" stroke="black" stroke-width="5.47" stroke-miterlimit="10"/>
<g opacity="0.77">
<path opacity="0.77" d="M206.631 361.695C210.151 366.419 216.74 367.961 221.647 364.722C224.625 362.751 226.371 358.823 223.858 352.754C224.316 353.423 224.731 354.014 225.139 354.556C230.222 361.463 238.1 357.302 238.1 357.302C244.492 353.859 243.415 348.15 240.62 341.209C237.885 334.333 234.297 327.829 229.94 321.849C232.792 319.18 236.178 316.484 239.747 317.667C243.598 318.948 244.675 323.778 245.112 327.804C245.316 329.677 245.52 331.529 245.724 333.401L248.808 360.97C249.836 370.122 250.863 379.408 253.095 388.341C254.249 393.172 255.846 397.885 257.868 402.421C260.698 408.745 264.696 414.478 269.653 419.317C275.836 413.192 281.25 406.336 285.775 398.901C290.103 400.318 293.92 402.976 296.75 406.545C299.579 410.113 301.299 414.434 301.692 418.972V419.205C303.438 435.685 287.57 448.069 274.236 455.686C258.833 464.542 241.662 471.174 224.794 476.686C217.839 478.967 208.799 480.91 201.457 478.531C200.666 478.279 199.894 477.97 199.148 477.609C191.826 474.018 186.926 466.492 183.103 459.614C164.799 426.702 157.196 388.912 153.19 351.487C161.202 350.382 169.185 349.15 177.07 347.453C177.07 347.453 177.07 347.509 177.119 347.531L186.208 362.603L186.954 363.856C188.925 366.672 192.34 367.426 195.599 367.144C197.672 367.041 199.663 366.304 201.302 365.032C206.356 360.808 201.612 355.077 198.993 351.043" fill="white"/>
<path opacity="0.77" d="M206.631 361.695C210.151 366.419 216.74 367.961 221.647 364.722C224.625 362.751 226.371 358.823 223.858 352.754C224.316 353.423 224.731 354.014 225.139 354.556C230.222 361.463 238.1 357.302 238.1 357.302C244.492 353.859 243.415 348.15 240.62 341.209C237.885 334.333 234.297 327.829 229.94 321.849C232.792 319.18 236.178 316.484 239.747 317.667C243.598 318.948 244.675 323.778 245.112 327.804C245.316 329.677 245.52 331.529 245.724 333.401L248.808 360.97C249.836 370.122 250.863 379.408 253.095 388.341C254.249 393.172 255.846 397.885 257.868 402.421C260.698 408.745 264.696 414.478 269.653 419.317C275.836 413.192 281.25 406.336 285.775 398.901C290.103 400.318 293.92 402.976 296.75 406.545C299.579 410.113 301.299 414.434 301.692 418.972V419.205C303.438 435.685 287.57 448.069 274.236 455.686C258.833 464.542 241.662 471.174 224.794 476.686C217.839 478.967 208.799 480.91 201.457 478.531C200.666 478.279 199.894 477.97 199.148 477.609C191.826 474.018 186.926 466.492 183.103 459.614C164.799 426.702 157.196 388.912 153.19 351.487C161.202 350.382 169.185 349.15 177.07 347.453C177.07 347.453 177.07 347.509 177.119 347.531L186.208 362.603L186.954 363.856C188.925 366.672 192.34 367.426 195.599 367.144C197.672 367.041 199.663 366.304 201.302 365.032C206.356 360.808 201.612 355.077 198.993 351.043" fill="#DBE5FF"/>
<path opacity="0.77" d="M208.792 363.927C211.911 368.151 217.24 367.616 221.647 364.722C224.308 362.962 226.491 363.476 224.245 358.048C224.66 358.64 224.717 356.64 225.083 357.084C229.624 363.251 225.139 354.535 225.139 354.535C231.475 362.54 245.267 355 242.739 348.812C240.064 342.145 237.248 332.289 233.679 327.361C236.495 324.7 235.953 325.094 239.536 327.213C240.498 327.831 241.304 328.665 241.889 329.649C242.475 330.632 242.824 331.738 242.908 332.88C243.197 335.562 243.485 338.132 243.774 340.751L246.52 365.391C247.442 373.578 248.357 381.85 250.349 389.82C251.379 394.129 252.808 398.333 254.616 402.379C257.136 407.948 265.232 417.219 269.653 421.465C275.151 416.009 281.741 405.977 285.775 399.31C293.519 401.689 293.181 409.095 293.73 417.184V417.395C295.293 432.102 281.128 443.148 269.259 449.955C255.503 457.861 240.177 463.775 225.118 468.703C218.909 470.745 210.841 472.505 204.287 470.35C203.58 470.127 202.89 469.851 202.224 469.527C195.691 466.316 191.312 459.607 187.898 453.461C172.952 426.618 166.017 396.142 162.202 365.588C161.921 363.301 162.54 360.997 163.927 359.158C165.314 357.319 167.361 356.09 169.636 355.732C173.923 355.028 178.196 354.324 182.442 353.381L182.561 353.437L190.671 366.89C192.438 369.39 192.727 367.432 195.635 367.179C197.472 367.017 201.034 366.658 202.456 365.468C206.969 361.709 204.42 360.153 202.083 356.556" fill="#DBE5FF"/>
</g>
<path d="M358.962 493.287C358.962 493.287 335.582 485.6 335.23 498.525" stroke="black" stroke-width="5.47" stroke-miterlimit="10"/>
<path opacity="0.54" d="M149.684 624.954L103.833 507.484C103.265 505.211 103.223 502.838 103.708 500.546C104.195 498.255 105.197 496.103 106.639 494.257C108.082 492.41 109.925 490.916 112.032 489.889C114.137 488.862 116.45 488.328 118.793 488.328H300.918C305.007 488.328 308.978 489.704 312.19 492.235C315.402 494.766 317.668 498.305 318.623 502.282L368.819 619.723C369.361 621.988 369.383 624.347 368.883 626.623C368.383 628.898 367.374 631.03 365.931 632.859C364.489 634.689 362.651 636.168 360.555 637.185C358.459 638.201 356.16 638.73 353.83 638.731H167.348C163.289 638.734 159.345 637.378 156.145 634.882C152.945 632.386 150.671 628.891 149.684 624.954Z" fill="white"/>
<path d="M366.573 513.102C366.573 513.102 370.367 516.58 368.924 521.55C367.854 525.232 364.193 527.555 360.568 526.295C349.022 522.303 338.624 515.524 336.09 503.999C334.892 498.164 334.633 492.176 335.322 486.258C335.878 480.774 336.688 474.854 338.532 469.637C341.348 461.625 349.972 456.043 358.343 459.901" stroke="black" stroke-width="5.47" stroke-miterlimit="10"/>
<path d="M149.684 624.954L103.833 507.484C103.265 505.211 103.223 502.838 103.708 500.546C104.195 498.255 105.197 496.103 106.639 494.257C108.082 492.41 109.925 490.916 112.032 489.889C114.137 488.862 116.45 488.328 118.793 488.328H300.918C305.007 488.328 308.978 489.704 312.19 492.235C315.402 494.766 317.668 498.305 318.623 502.282L368.819 619.723C369.361 621.988 369.383 624.347 368.883 626.623C368.383 628.898 367.374 631.03 365.931 632.859C364.489 634.689 362.651 636.168 360.555 637.185C358.459 638.201 356.16 638.73 353.83 638.731H167.348C163.289 638.734 159.345 637.378 156.145 634.882C152.945 632.386 150.671 628.891 149.684 624.954Z" fill="#DBE5FF"/>
<path d="M149.684 624.954L103.833 507.484C103.265 505.211 103.223 502.838 103.708 500.546C104.195 498.255 105.197 496.103 106.639 494.257C108.082 492.41 109.925 490.916 112.032 489.889C114.137 488.862 116.45 488.328 118.793 488.328H300.918C305.007 488.328 308.978 489.704 312.19 492.235C315.402 494.766 317.668 498.305 318.623 502.282L368.819 619.723C369.361 621.988 369.383 624.347 368.883 626.623C368.383 628.898 367.374 631.03 365.931 632.859C364.489 634.689 362.651 636.168 360.555 637.185C358.459 638.201 356.16 638.73 353.83 638.731H167.348C163.289 638.734 159.345 637.378 156.145 634.882C152.945 632.386 150.671 628.891 149.684 624.954Z" stroke="black" stroke-width="5.47" stroke-linecap="square" stroke-linejoin="round"/>
<path d="M156.394 620.223L114.091 511.807C113.567 509.709 113.529 507.521 113.979 505.407C114.428 503.292 115.353 501.308 116.684 499.605C118.015 497.902 119.716 496.524 121.659 495.577C123.602 494.629 125.735 494.136 127.896 494.136H295.913C299.685 494.135 303.348 495.404 306.311 497.739C309.274 500.073 311.365 503.337 312.245 507.005L358.562 615.358C359.061 617.449 359.081 619.626 358.619 621.725C358.157 623.824 357.225 625.791 355.894 627.479C354.564 629.166 352.867 630.531 350.933 631.468C348.999 632.407 346.877 632.895 344.728 632.895H172.684C168.945 632.898 165.313 631.653 162.362 629.358C159.411 627.062 157.311 623.848 156.394 620.223Z" fill="#DBE5FF"/>
<path d="M515.975 603.215L548.19 677.762" stroke="black" stroke-width="5.47" stroke-miterlimit="10"/>
<path d="M668.8 677.762H35.2" stroke="black" stroke-width="5.47" stroke-miterlimit="10"/>
<path d="M369.156 341.306C363.933 346.466 356.132 346.459 351.69 341.686" stroke="black" stroke-width="5.47" stroke-miterlimit="10"/>
<path d="M229.94 321.826C232.791 319.158 236.178 316.461 239.747 317.644C243.598 318.925 244.675 323.755 245.111 327.782C246.346 338.849 247.578 349.904 248.807 360.948C250.37 375.028 252.018 389.445 257.868 402.385C260.697 408.709 264.695 414.441 269.653 419.281" stroke="black" stroke-width="5.47" stroke-miterlimit="10"/>
<path d="M301.692 419.196V418.964C301.299 414.427 299.579 410.105 296.75 406.536C293.92 402.968 290.103 400.31 285.775 398.893C281.25 406.328 275.836 413.184 269.653 419.309C253.442 435.428 232.617 446.104 210.067 449.855C211.151 454.171 213.382 458.099 214.924 462.253C216.466 466.406 217.233 471.215 215.361 475.22C212.995 480.332 206.209 479.663 201.492 478.529C201.443 478.529 201.414 478.529 201.365 478.529" stroke="black" stroke-width="5.47" stroke-miterlimit="10"/>
<path d="M177.085 347.446C169.2 349.142 161.216 350.374 153.205 351.48C157.211 388.904 164.786 426.695 183.118 459.607C186.941 466.485 191.84 474.011 199.162 477.601C199.909 477.964 200.681 478.272 201.471 478.524C208.814 480.938 217.853 478.96 224.809 476.679C241.705 471.16 258.847 464.535 274.251 455.679C287.549 448.054 303.417 435.678 301.707 419.197C301.541 417.383 301.17 415.592 300.601 413.861" stroke="black" stroke-width="5.47" stroke-miterlimit="10"/>
<path d="M308.929 272.792C310.111 277.718 312.808 282.149 316.641 285.461C320.474 288.773 325.25 290.798 330.296 291.251C330.715 289.219 331.623 287.319 332.943 285.718C338.575 279.079 340.975 291.533 358.991 282.592C383.955 270.174 393.43 277.298 393.43 277.298C394.261 277.918 394.134 283.633 394.275 284.675C394.979 290.61 395.613 296.517 396.31 302.444C396.732 306.063 397.148 309.654 397.542 313.244C397.882 312.633 398.258 312.043 398.668 311.476C400.942 303.43 405.004 293.926 413.762 298.017C415.535 298.881 417.079 300.152 418.268 301.726C424.076 309.357 419.676 316.728 413.6 322.184C412.077 323.877 410.375 325.4 408.524 326.726C409.524 328.796 413.607 337.011 413.607 337.039C414.029 337.87 428.3 321.72 429.363 319.96C430.951 315.648 431.803 311.101 431.883 306.507C432.115 287.619 424.428 265.632 409.13 254.797C405.335 252.115 406.546 249.532 406.314 245.885C406.297 245.688 406.222 245.5 406.097 245.347C405.972 245.193 405.803 245.082 405.614 245.026C405.424 244.97 405.222 244.974 405.034 245.035C404.846 245.097 404.681 245.214 404.561 245.372C399.766 250.891 387.897 250.342 387.897 250.342C346.699 240.021 332.851 258.339 324.537 261.606C321.144 262.891 317.41 262.953 313.977 261.782C313.775 262.918 313.266 263.978 312.506 264.846C311.745 265.715 310.762 266.359 309.661 266.71L309.873 268.617C310.052 270.076 309.718 271.552 308.929 272.792Z" fill="#DBE5FF"/>
<path d="M330.324 291.282C325.279 290.828 320.503 288.804 316.669 285.492C312.836 282.18 310.138 277.749 308.958 272.823C308.495 270.933 308.203 269.006 308.085 267.064L308.409 267.029C308.851 266.996 309.287 266.901 309.704 266.747C310.804 266.397 311.787 265.752 312.548 264.884C313.308 264.016 313.817 262.955 314.019 261.819C314.148 261.189 314.174 260.542 314.097 259.904L313.041 250.583C313.041 250.583 320.489 256.124 328.754 252.885C337.019 249.647 350.895 231.329 392.114 241.621C392.114 241.621 401.421 242.171 406.194 236.651C406.315 236.494 406.479 236.377 406.667 236.315C406.855 236.253 407.057 236.251 407.247 236.306C407.437 236.362 407.606 236.474 407.73 236.627C407.856 236.78 407.931 236.968 407.947 237.165C408.194 240.819 409.545 243.403 413.347 246.078C428.645 256.919 436.332 278.898 436.093 297.787C436.023 305.622 433.418 313.359 429.398 319.998C428.335 321.758 414.065 337.908 413.643 337.077C413.643 337.077 409.559 328.833 408.56 326.763L408.32 326.306L408.778 326.003C410.477 324.849 412.1 323.586 413.636 322.222C419.704 316.766 424.111 309.396 418.303 301.764C417.114 300.19 415.571 298.919 413.797 298.054C405.012 293.964 400.978 303.468 398.704 311.515C398.262 313.052 397.991 314.634 397.894 316.231C397.788 315.246 397.683 314.295 397.577 313.31C397.183 309.719 396.768 306.129 396.345 302.51C395.641 296.583 394.979 290.676 394.311 284.741C394.205 283.728 394.311 277.983 393.466 277.364C393.466 277.364 383.983 270.239 359.026 282.658C341.011 291.598 338.61 279.138 332.978 285.783C331.659 287.385 330.75 289.284 330.331 291.317C330.202 291.969 330.12 292.63 330.085 293.295C330.071 293.381 330.071 293.469 330.085 293.556C330 295.013 329.972 296.463 329.937 297.885C329.803 311.606 331.31 325.94 336.695 338.682C343.243 354.128 360.568 369.362 378.583 362.16C384.215 359.9 389.263 356.261 393.881 352.396" stroke="black" stroke-width="5.47" stroke-miterlimit="10"/>
<path d="M342.653 324.745C344.444 324.146 345.309 321.902 344.584 319.734C343.859 317.566 341.818 316.295 340.025 316.894C338.234 317.493 337.369 319.737 338.094 321.905C338.82 324.074 340.861 325.345 342.653 324.745Z" fill="black"/>
<path d="M369.457 323.887C371.249 323.288 372.114 321.044 371.388 318.876C370.663 316.708 368.622 315.436 366.83 316.036C365.038 316.636 364.174 318.88 364.899 321.047C365.624 323.216 367.665 324.487 369.457 323.887Z" fill="black"/>
<path d="M359.209 328.53C359.209 328.53 350.29 333.592 349.747 328.34C349.579 326.721 347.396 310.86 347.396 310.86C347.396 310.86 340.187 303.221 329.141 308.867" stroke="black" stroke-width="5.47" stroke-miterlimit="10"/>
<path d="M357.203 306.415C357.203 306.415 371.607 299.22 381.139 309.59" stroke="black" stroke-width="5.47" stroke-miterlimit="10"/>
<path d="M370.409 363.927L372.064 372.417C366.847 377.225 363.158 384.117 364.235 391.376C365.193 397.81 370.459 403.801 375.858 407.173C384.884 412.805 396.887 412.362 406.602 408.778C416.099 405.258 424.315 398.577 430.27 390.425C433.075 386.484 434.944 381.955 435.733 377.183V377.098" stroke="black" stroke-width="5.47" stroke-miterlimit="10"/>
<path d="M372.064 372.416L375.289 387.749" stroke="black" stroke-width="5.47" stroke-miterlimit="10"/>
<path d="M417.662 333.38L422.533 365.729C423.014 368.895 424.614 371.784 427.045 373.87C429.475 375.957 432.572 377.103 435.776 377.098C450.938 379.555 465.894 383.141 480.522 387.827C537.666 406.258 572.837 457.734 582.771 515.251C586.903 539.335 587.213 564.595 582.025 588.545C579.075 602.026 574.809 617.169 564.903 627.265C552.041 640.429 532.301 635.009 517.102 629.06C469.913 610.707 430.665 578.055 396.774 540.673C378.653 520.679 355.238 504.656 355.238 504.656" stroke="black" stroke-width="5.47" stroke-miterlimit="10"/>
<path opacity="0.1" d="M171.987 595.959C166.693 595.909 162.082 591.636 160.892 585.687C158.541 573.987 157.921 555.894 175.078 551.945C196.515 547.017 213.002 570.361 221.084 585.117C223.802 590.045 220.725 596.381 215.663 596.381L171.987 595.959Z" fill="#353642"/>
<path opacity="0.1" d="M179.065 542.01C183.615 538.981 183.686 531.087 179.22 524.377C174.755 517.666 167.446 514.681 162.895 517.71C158.344 520.738 158.274 528.633 162.739 535.343C167.204 542.053 174.513 545.038 179.065 542.01Z" fill="#353642"/>
<path d="M531.358 647.059C531.027 647.108 530.654 647.158 530.33 647.235H530.203L480.128 646.975L404.99 646.588C404.701 646.588 404.42 646.588 404.138 646.588C403.58 646.574 403.023 646.532 402.47 646.461C407.56 645.869 412.279 643.501 415.796 639.773C419.313 636.046 421.402 631.197 421.696 626.08C421.71 625.815 421.71 625.55 421.696 625.284V624.876C421.675 619.87 419.931 615.024 416.756 611.152C413.581 607.282 409.17 604.622 404.265 603.622C403.751 603.496 403.188 603.418 402.646 603.341C403.497 603.263 404.342 603.207 405.166 603.207L468.646 603.545L480.332 603.594L496.094 603.672C501.491 604.164 506.511 606.652 510.171 610.65C513.83 614.646 515.868 619.865 515.884 625.284C515.885 626.307 515.807 627.329 515.652 628.34C514.901 633.499 512.324 638.218 508.388 641.638C504.453 645.058 499.422 646.951 494.208 646.975H532.35C530.154 646.975 530.767 646.975 531.358 647.059Z" fill="white"/>
<path d="M429.785 673.244C431.215 674.682 432.917 675.823 434.791 676.598C436.665 677.374 438.675 677.77 440.704 677.764H403.828C396.788 677.764 392.944 676.046 390.142 673.244C387.263 670.352 385.642 666.44 385.63 662.36C385.63 653.912 392.557 646.985 403.828 646.985H440.704C437.66 646.98 434.682 647.879 432.149 649.568C429.616 651.257 427.642 653.66 426.476 656.472C425.311 659.285 425.006 662.38 425.601 665.366C426.196 668.352 427.665 671.093 429.82 673.244H429.785Z" fill="#D7E8F0"/>
<path d="M551.57 625.672C551.561 628.923 550.804 632.129 549.359 635.042C548.327 637.244 546.912 639.244 545.178 640.948C542.319 643.781 538.728 645.763 534.808 646.672C533.191 647.045 531.538 647.234 529.88 647.235C530.218 647.158 530.584 647.108 530.908 647.059C530.316 647.003 529.704 646.982 531.907 646.982H493.757C498.975 646.962 504.011 645.068 507.949 641.647C511.888 638.225 514.466 633.503 515.215 628.34C515.371 627.329 515.448 626.307 515.448 625.284C515.431 619.864 513.393 614.645 509.732 610.648C506.07 606.65 501.049 604.163 495.651 603.672L516.243 603.777L529.999 603.855C535.748 603.903 541.244 606.225 545.285 610.313C549.328 614.401 551.587 619.923 551.57 625.672Z" fill="#DBE5FF"/>
<path d="M551.57 625.666C551.527 631.418 549.206 636.919 545.115 640.963C541.025 645.008 535.498 647.266 529.746 647.244L404.49 646.596C403.652 646.596 402.814 646.533 401.97 646.448C407.25 645.85 412.126 643.336 415.676 639.381C419.226 635.428 421.202 630.309 421.23 624.995C421.258 619.682 419.335 614.543 415.827 610.552C412.318 606.561 407.468 603.996 402.195 603.342C403.032 603.254 403.873 603.212 404.715 603.216L529.971 603.863C535.723 603.903 541.224 606.219 545.272 610.305C549.32 614.391 551.584 619.914 551.57 625.666Z" stroke="black" stroke-width="5.47" stroke-linecap="square" stroke-linejoin="round"/>
<path d="M515.434 625.278C515.422 631.029 513.133 636.541 509.066 640.608C505 644.675 499.487 646.964 493.736 646.975H404.617C403.775 646.971 402.934 646.923 402.097 646.835C407.372 646.208 412.236 643.668 415.765 639.696C419.293 635.723 421.242 630.595 421.242 625.282C421.242 619.969 419.293 614.84 415.765 610.867C412.236 606.895 407.372 604.355 402.097 603.729C402.934 603.651 403.779 603.595 404.617 603.595H493.736C499.484 603.608 504.993 605.896 509.06 609.959C513.125 614.023 515.417 619.53 515.434 625.278Z" stroke="black" stroke-width="5.47" stroke-linecap="square" stroke-linejoin="round"/>
<path d="M385.63 662.364C385.629 664.383 386.027 666.382 386.8 668.248C387.573 670.113 388.706 671.807 390.135 673.234C392.951 676.05 396.774 677.761 403.821 677.761H531.9C529.696 677.761 530.295 677.718 530.893 677.662C527.146 677.221 523.69 675.42 521.183 672.599C518.675 669.78 517.29 666.137 517.29 662.364C517.29 658.591 518.675 654.949 521.183 652.129C523.69 649.309 527.146 647.508 530.893 647.066C530.295 647.01 529.696 646.968 531.9 646.968H403.821C392.543 646.975 385.63 653.902 385.63 662.364Z" stroke="black" stroke-width="5.47" stroke-linecap="square" stroke-linejoin="round"/>
<path d="M425.265 662.364C425.274 666.445 426.9 670.356 429.785 673.241C432.671 676.127 436.581 677.751 440.662 677.761H529.105C529.697 677.761 530.295 677.718 530.893 677.662C527.146 677.221 523.691 675.42 521.183 672.599C518.676 669.78 517.291 666.137 517.291 662.364C517.291 658.591 518.676 654.949 521.183 652.129C523.691 649.309 527.146 647.508 530.893 647.066C530.295 647.01 529.697 646.968 529.105 646.968H440.662C436.582 646.979 432.672 648.604 429.787 651.489C426.902 654.374 425.277 658.284 425.265 662.364Z" stroke="black" stroke-width="5.47" stroke-linecap="square" stroke-linejoin="round"/>
<path opacity="0.1" d="M281.896 544.896H242.387C240.579 544.893 238.812 544.364 237.299 543.374C235.787 542.384 234.595 540.976 233.869 539.32C233.589 538.704 233.468 538.027 233.52 537.352C233.572 536.677 233.793 536.026 234.164 535.46C234.536 534.894 235.044 534.43 235.642 534.113C236.241 533.796 236.909 533.636 237.586 533.646H279.587C277.608 536.976 278.615 541.601 281.896 544.896Z" fill="#353642"/>
<path d="M307.444 540.826C307.442 541.903 307.014 542.935 306.252 543.696C305.491 544.458 304.459 544.886 303.382 544.888H281.896C278.615 541.6 277.608 536.975 279.587 533.624H298.559C300.365 533.624 302.131 534.149 303.645 535.133C305.158 536.118 306.353 537.521 307.085 539.171C307.312 539.694 307.434 540.256 307.444 540.826Z" fill="#DBE5FF"/>
<path d="M297.56 544.895C297.448 545.11 297.319 545.315 297.172 545.508C294.356 549.359 288.239 549.732 283.487 546.254C282.925 545.839 282.393 545.385 281.896 544.895C278.615 541.608 277.608 536.982 279.587 533.631C279.698 533.417 279.827 533.212 279.974 533.019C282.79 529.14 288.879 528.795 293.631 532.244C294.204 532.673 294.742 533.143 295.244 533.652C298.496 536.926 299.51 541.523 297.56 544.895Z" fill="white"/>
<path d="M317.377 565.63C317.37 566.707 316.937 567.739 316.171 568.498C315.407 569.258 314.372 569.685 313.294 569.685H271.836C273.835 566.32 272.835 561.729 269.548 558.421H308.493C310.301 558.421 312.07 558.948 313.584 559.936C315.098 560.925 316.291 562.333 317.018 563.989C317.251 564.505 317.372 565.064 317.377 565.63Z" fill="#DBE5FF"/>
<path d="M271.836 569.682H252.328C250.522 569.684 248.754 569.16 247.241 568.175C245.727 567.19 244.532 565.787 243.802 564.135C243.572 563.618 243.45 563.061 243.443 562.495C243.443 561.962 243.547 561.434 243.75 560.942C243.954 560.45 244.252 560.002 244.629 559.625C245.005 559.248 245.453 558.95 245.945 558.747C246.438 558.543 246.965 558.439 247.498 558.44H269.548C272.835 561.727 273.856 566.317 271.836 569.682Z" fill="#D7E8F0"/>
<path d="M271.836 569.683C271.744 569.904 271.623 570.113 271.476 570.303C268.66 574.175 262.564 574.527 257.819 571.07C257.244 570.642 256.704 570.171 256.2 569.662C252.94 566.374 251.941 561.784 253.891 558.398C254.003 558.181 254.133 557.974 254.278 557.779C257.094 553.928 263.212 553.555 267.956 557.039C268.522 557.45 269.053 557.904 269.548 558.398C272.835 561.728 273.856 566.318 271.836 569.683Z" fill="white"/>
<path d="M285.648 594.303H260.825C259.02 594.301 257.254 593.776 255.741 592.792C254.228 591.807 253.032 590.405 252.3 588.756C252.02 588.138 251.901 587.459 251.953 586.783C252.006 586.107 252.228 585.455 252.599 584.887C252.97 584.319 253.479 583.854 254.077 583.535C254.676 583.215 255.345 583.053 256.024 583.061H283.339C281.382 586.433 282.388 591.016 285.648 594.303Z" fill="#DBE5FF"/>
<path opacity="0.1" d="M325.875 590.276C325.869 591.347 325.439 592.372 324.679 593.127C323.919 593.882 322.89 594.304 321.82 594.303H285.648C282.388 591.015 281.382 586.425 283.339 583.039H316.99C318.798 583.039 320.567 583.566 322.081 584.555C323.595 585.544 324.788 586.952 325.516 588.607C325.747 589.133 325.87 589.701 325.875 590.276Z" fill="#353642"/>
<path d="M301.312 594.304C301.199 594.52 301.07 594.727 300.925 594.923C298.109 598.795 292.019 599.147 287.267 595.69C286.696 595.26 286.158 594.79 285.655 594.282C282.396 590.995 281.389 586.405 283.346 583.018C283.454 582.801 283.58 582.593 283.726 582.399C286.542 578.548 292.66 578.217 297.412 581.66C297.976 582.07 298.509 582.524 299.003 583.018C302.284 586.348 303.283 590.967 301.312 594.304Z" fill="white"/>
<path d="M113.773 369.861L114.393 370.037L114.161 370.938C114.014 370.586 113.884 370.227 113.773 369.861Z" fill="#353642"/>
<path opacity="0.1" d="M223.947 426.184C233.214 423.464 238.083 412.255 234.823 401.149C231.563 390.043 221.408 383.244 212.141 385.965C202.873 388.686 198.005 399.894 201.265 411C204.525 422.107 214.68 428.904 223.947 426.184Z" fill="#353642"/>
</svg>
