<svg width="225" height="183" viewBox="0 0 225 183" fill="none" xmlns="http://www.w3.org/2000/svg">
<g filter="url(#filter0_d_110_866)">
<rect x="8" y="4" width="209" height="167" rx="10" fill="#FDFDFD"/>
<rect x="8.5" y="4.5" width="208" height="166" rx="9.5" stroke="black" stroke-opacity="0.05"/>
<rect x="93.5" y="22" width="38" height="38" rx="19" fill="#E5E7EA"/>
<path d="M109.577 43.8342L106.134 40.3905L105.78 40.0369L105.426 40.3905L104.146 41.6705L103.793 42.024L104.146 42.3776L109.224 47.4549L109.577 47.8085L109.931 47.4549L120.854 36.5322L121.207 36.1787L120.854 35.8251L119.574 34.5451L119.22 34.1916L118.866 34.5451L109.577 43.8342Z" fill="#00C250" stroke="#00C250"/>
<path d="M56.7027 93V80.4182H61.1875C62.1622 80.4182 62.9711 80.5861 63.6141 80.9219C64.2613 81.2578 64.7445 81.7226 65.064 82.3165C65.3835 82.9063 65.5432 83.5882 65.5432 84.3623C65.5432 85.1323 65.3814 85.8101 65.0579 86.3958C64.7384 86.9774 64.2551 87.4299 63.608 87.7535C62.965 88.077 62.1561 88.2388 61.1813 88.2388H57.784V86.6047H61.0093C61.6237 86.6047 62.1233 86.5166 62.5083 86.3405C62.8974 86.1644 63.182 85.9084 63.3623 85.5725C63.5425 85.2367 63.6326 84.8333 63.6326 84.3623C63.6326 83.8872 63.5404 83.4756 63.3561 83.1275C63.1759 82.7793 62.8913 82.5131 62.5022 82.3288C62.1172 82.1404 61.6114 82.0462 60.9847 82.0462H58.6011V93H56.7027ZM62.9138 87.3234L66.0224 93H63.8599L60.8127 87.3234H62.9138ZM71.6544 93.1904C70.7247 93.1904 69.924 92.9918 69.2523 92.5945C68.5847 92.1932 68.0687 91.63 67.7042 90.9051C67.3437 90.1761 67.1635 89.3221 67.1635 88.3433C67.1635 87.3767 67.3437 86.5248 67.7042 85.7876C68.0687 85.0504 68.5765 84.4749 69.2277 84.0613C69.883 83.6476 70.6489 83.4408 71.5254 83.4408C72.0578 83.4408 72.5739 83.5288 73.0735 83.7049C73.5732 83.881 74.0217 84.1575 74.419 84.5343C74.8162 84.9111 75.1296 85.4005 75.3589 86.0026C75.5883 86.6006 75.7029 87.3275 75.7029 88.1835V88.8347H68.2018V87.4586H73.9029C73.9029 86.9753 73.8046 86.5473 73.608 86.1746C73.4114 85.7978 73.135 85.5009 72.7787 85.2838C72.4264 85.0667 72.0128 84.9582 71.5377 84.9582C71.0216 84.9582 70.5711 85.0852 70.1861 85.3391C69.8052 85.5889 69.5103 85.9166 69.3015 86.3221C69.0967 86.7234 68.9943 87.1596 68.9943 87.6306V88.7057C68.9943 89.3364 69.1049 89.873 69.326 90.3153C69.5513 90.7576 69.8646 91.0955 70.266 91.329C70.6674 91.5583 71.1363 91.673 71.6728 91.673C72.021 91.673 72.3384 91.6239 72.6251 91.5256C72.9118 91.4232 73.1595 91.2716 73.3684 91.071C73.5773 90.8703 73.737 90.6225 73.8476 90.3276L75.5862 90.6409C75.447 91.1529 75.1971 91.6013 74.8367 91.9863C74.4804 92.3672 74.0319 92.6642 73.4913 92.8771C72.9548 93.086 72.3425 93.1904 71.6544 93.1904ZM85.5432 83.5636L82.1213 93H80.1554L76.7274 83.5636H78.6994L81.0892 90.8252H81.1875L83.5712 83.5636H85.5432ZM87.2696 93V83.5636H89.1065V93H87.2696ZM88.1972 82.1076C87.8778 82.1076 87.6033 82.0011 87.374 81.7882C87.1487 81.5711 87.0361 81.3131 87.0361 81.0141C87.0361 80.711 87.1487 80.453 87.374 80.24C87.6033 80.023 87.8778 79.9144 88.1972 79.9144C88.5167 79.9144 88.789 80.023 89.0143 80.24C89.2437 80.453 89.3583 80.711 89.3583 81.0141C89.3583 81.3131 89.2437 81.5711 89.0143 81.7882C88.789 82.0011 88.5167 82.1076 88.1972 82.1076ZM98.6488 85.8674L96.9839 86.1623C96.9143 85.9493 96.8037 85.7466 96.6522 85.5541C96.5047 85.3616 96.304 85.2039 96.0501 85.0811C95.7962 84.9582 95.4788 84.8968 95.0979 84.8968C94.5777 84.8968 94.1436 85.0135 93.7955 85.2469C93.4473 85.4763 93.2733 85.7732 93.2733 86.1377C93.2733 86.4531 93.39 86.707 93.6234 86.8995C93.8569 87.092 94.2337 87.2497 94.7538 87.3726L96.2528 87.7166C97.1211 87.9173 97.7682 88.2265 98.1942 88.6443C98.6201 89.062 98.8331 89.6047 98.8331 90.2723C98.8331 90.8375 98.6693 91.3413 98.3416 91.7836C98.0181 92.2218 97.5655 92.5659 96.9839 92.8157C96.4064 93.0655 95.7368 93.1904 94.975 93.1904C93.9183 93.1904 93.0562 92.9652 92.3886 92.5147C91.721 92.06 91.3114 91.415 91.1599 90.5795L92.9354 90.3092C93.0459 90.772 93.2733 91.1221 93.6173 91.3597C93.9613 91.5931 94.4098 91.7099 94.9627 91.7099C95.5648 91.7099 96.046 91.585 96.4064 91.3351C96.7668 91.0812 96.947 90.772 96.947 90.4075C96.947 90.1126 96.8365 89.8648 96.6153 89.6641C96.3982 89.4634 96.0644 89.3119 95.6139 89.2095L94.0166 88.8593C93.1361 88.6586 92.4848 88.3392 92.063 87.9009C91.6452 87.4627 91.4364 86.9077 91.4364 86.236C91.4364 85.679 91.592 85.1917 91.9033 84.7739C92.2145 84.3561 92.6446 84.0305 93.1934 83.7971C93.7422 83.5595 94.3709 83.4408 95.0794 83.4408C96.0993 83.4408 96.902 83.6619 97.4877 84.1043C98.0734 84.5425 98.4604 85.1302 98.6488 85.8674ZM104.92 93.1904C103.99 93.1904 103.189 92.9918 102.518 92.5945C101.85 92.1932 101.334 91.63 100.969 90.9051C100.609 90.1761 100.429 89.3221 100.429 88.3433C100.429 87.3767 100.609 86.5248 100.969 85.7876C101.334 85.0504 101.842 84.4749 102.493 84.0613C103.148 83.6476 103.914 83.4408 104.791 83.4408C105.323 83.4408 105.839 83.5288 106.339 83.7049C106.839 83.881 107.287 84.1575 107.684 84.5343C108.082 84.9111 108.395 85.4005 108.624 86.0026C108.854 86.6006 108.968 87.3275 108.968 88.1835V88.8347H101.467V87.4586H107.168C107.168 86.9753 107.07 86.5473 106.873 86.1746C106.677 85.7978 106.4 85.5009 106.044 85.2838C105.692 85.0667 105.278 84.9582 104.803 84.9582C104.287 84.9582 103.836 85.0852 103.451 85.3391C103.071 85.5889 102.776 85.9166 102.567 86.3221C102.362 86.7234 102.26 87.1596 102.26 87.6306V88.7057C102.26 89.3364 102.37 89.873 102.591 90.3153C102.817 90.7576 103.13 91.0955 103.531 91.329C103.933 91.5583 104.402 91.673 104.938 91.673C105.286 91.673 105.604 91.6239 105.89 91.5256C106.177 91.4232 106.425 91.2716 106.634 91.071C106.843 90.8703 107.002 90.6225 107.113 90.3276L108.852 90.6409C108.712 91.1529 108.462 91.6013 108.102 91.9863C107.746 92.3672 107.297 92.6642 106.757 92.8771C106.22 93.086 105.608 93.1904 104.92 93.1904ZM115.585 96.5386V83.5636H117.379V85.0934H117.532C117.639 84.8968 117.792 84.6695 117.993 84.4114C118.194 84.1534 118.472 83.9281 118.829 83.7357C119.185 83.5391 119.656 83.4408 120.242 83.4408C121.003 83.4408 121.683 83.6333 122.281 84.0183C122.879 84.4032 123.348 84.9582 123.688 85.6831C124.032 86.4081 124.204 87.2804 124.204 88.3002C124.204 89.3201 124.034 90.1945 123.694 90.9235C123.354 91.6484 122.887 92.2075 122.293 92.6007C121.7 92.9898 121.022 93.1843 120.26 93.1843C119.687 93.1843 119.218 93.0881 118.853 92.8956C118.493 92.7031 118.21 92.4778 118.005 92.2198C117.801 91.9618 117.643 91.7324 117.532 91.5317H117.422V96.5386H115.585ZM117.385 88.2818C117.385 88.9453 117.481 89.5269 117.674 90.0266C117.866 90.5262 118.145 90.9174 118.509 91.2C118.874 91.4785 119.32 91.6177 119.848 91.6177C120.397 91.6177 120.856 91.4723 121.224 91.1815C121.593 90.8866 121.872 90.4873 122.06 89.9836C122.252 89.4798 122.349 88.9125 122.349 88.2818C122.349 87.6593 122.255 87.1002 122.066 86.6047C121.882 86.1091 121.603 85.7179 121.231 85.4313C120.862 85.1446 120.401 85.0012 119.848 85.0012C119.316 85.0012 118.865 85.1384 118.497 85.4128C118.132 85.6872 117.856 86.0702 117.667 86.5616C117.479 87.0531 117.385 87.6265 117.385 88.2818ZM129.008 93.2089C128.41 93.2089 127.87 93.0983 127.386 92.8771C126.903 92.6519 126.52 92.3263 126.238 91.9003C125.959 91.4744 125.82 90.9522 125.82 90.3337C125.82 89.8013 125.922 89.3631 126.127 89.019C126.332 88.675 126.608 88.4026 126.956 88.202C127.304 88.0013 127.694 87.8497 128.124 87.7473C128.554 87.6449 128.992 87.5671 129.438 87.5139C130.004 87.4484 130.462 87.3951 130.814 87.3542C131.167 87.3091 131.423 87.2374 131.582 87.1391C131.742 87.0408 131.822 86.8811 131.822 86.6599V86.6169C131.822 86.0804 131.67 85.6647 131.367 85.3698C131.068 85.0749 130.622 84.9275 130.028 84.9275C129.41 84.9275 128.922 85.0647 128.566 85.3391C128.214 85.6094 127.97 85.9104 127.835 86.2422L126.109 85.849C126.313 85.2756 126.612 84.8128 127.005 84.4606C127.403 84.1043 127.859 83.8462 128.375 83.6865C128.892 83.5227 129.434 83.4408 130.004 83.4408C130.38 83.4408 130.78 83.4858 131.201 83.5759C131.627 83.6619 132.025 83.8217 132.393 84.0551C132.766 84.2886 133.071 84.6224 133.309 85.0565C133.546 85.4865 133.665 86.0456 133.665 86.7337V93H131.871V91.7099H131.797C131.679 91.9474 131.5 92.1809 131.263 92.4102C131.025 92.6396 130.72 92.83 130.348 92.9816C129.975 93.1331 129.528 93.2089 129.008 93.2089ZM129.408 91.7344C129.915 91.7344 130.35 91.6341 130.71 91.4334C131.075 91.2327 131.351 90.9706 131.539 90.6471C131.732 90.3194 131.828 89.9692 131.828 89.5965V88.3801C131.763 88.4456 131.636 88.5071 131.447 88.5644C131.263 88.6177 131.052 88.6648 130.814 88.7057C130.577 88.7426 130.345 88.7774 130.12 88.8102C129.895 88.8388 129.707 88.8634 129.555 88.8839C129.199 88.9289 128.873 89.0047 128.578 89.1112C128.287 89.2177 128.054 89.3713 127.878 89.5719C127.706 89.7685 127.62 90.0307 127.62 90.3583C127.62 90.8129 127.788 91.157 128.124 91.3904C128.459 91.6198 128.887 91.7344 129.408 91.7344ZM136.935 96.5386C136.66 96.5386 136.411 96.5161 136.185 96.4711C135.96 96.4301 135.792 96.385 135.682 96.3359L136.124 94.8308C136.46 94.9209 136.759 94.9598 137.021 94.9475C137.283 94.9352 137.514 94.8369 137.715 94.6526C137.92 94.4683 138.1 94.1673 138.256 93.7495L138.483 93.1229L135.03 83.5636H136.996L139.386 90.8866H139.484L141.874 83.5636H143.846L139.957 94.2594C139.777 94.7509 139.548 95.1666 139.269 95.5065C138.991 95.8506 138.659 96.1086 138.274 96.2806C137.889 96.4526 137.443 96.5386 136.935 96.5386ZM145.573 93V83.5636H147.348V85.0626H147.446C147.618 84.5548 147.921 84.1555 148.356 83.8647C148.794 83.5698 149.289 83.4223 149.842 83.4223C149.957 83.4223 150.092 83.4264 150.248 83.4346C150.407 83.4428 150.532 83.4531 150.623 83.4653V85.2224C150.549 85.2019 150.418 85.1794 150.229 85.1548C150.041 85.1261 149.853 85.1118 149.664 85.1118C149.23 85.1118 148.843 85.2039 148.503 85.3882C148.167 85.5685 147.901 85.8203 147.704 86.1439C147.508 86.4634 147.409 86.8279 147.409 87.2374V93H145.573ZM155.849 93.1904C154.964 93.1904 154.192 92.9877 153.533 92.5822C152.874 92.1768 152.362 91.6095 151.997 90.8805C151.633 90.1515 151.45 89.2996 151.45 88.3248C151.45 87.346 151.633 86.49 151.997 85.7569C152.362 85.0237 152.874 84.4544 153.533 84.049C154.192 83.6435 154.964 83.4408 155.849 83.4408C156.734 83.4408 157.506 83.6435 158.165 84.049C158.825 84.4544 159.337 85.0237 159.701 85.7569C160.066 86.49 160.248 87.346 160.248 88.3248C160.248 89.2996 160.066 90.1515 159.701 90.8805C159.337 91.6095 158.825 92.1768 158.165 92.5822C157.506 92.9877 156.734 93.1904 155.849 93.1904ZM155.855 91.6484C156.429 91.6484 156.904 91.4969 157.28 91.1938C157.657 90.8907 157.936 90.4873 158.116 89.9836C158.3 89.4798 158.392 88.9248 158.392 88.3187C158.392 87.7166 158.3 87.1637 158.116 86.6599C157.936 86.1521 157.657 85.7446 157.28 85.4374C156.904 85.1302 156.429 84.9766 155.855 84.9766C155.278 84.9766 154.799 85.1302 154.418 85.4374C154.041 85.7446 153.76 86.1521 153.576 86.6599C153.396 87.1637 153.306 87.7166 153.306 88.3187C153.306 88.9248 153.396 89.4798 153.576 89.9836C153.76 90.4873 154.041 90.8907 154.418 91.1938C154.799 91.4969 155.278 91.6484 155.855 91.6484ZM164.135 80.4182V93H162.298V80.4182H164.135ZM168.443 80.4182V93H166.606V80.4182H168.443Z" fill="black"/>
<rect x="31" y="113" width="163" height="16" rx="7" fill="#0A2640" fill-opacity="0.1"/>
<rect x="62.5" y="137" width="100" height="16" rx="7" fill="#0A2640" fill-opacity="0.1"/>
</g>
<defs>
<filter id="filter0_d_110_866" x="0" y="0" width="225" height="183" filterUnits="userSpaceOnUse" color-interpolation-filters="sRGB">
<feFlood flood-opacity="0" result="BackgroundImageFix"/>
<feColorMatrix in="SourceAlpha" type="matrix" values="0 0 0 0 0 0 0 0 0 0 0 0 0 0 0 0 0 0 127 0" result="hardAlpha"/>
<feOffset dy="4"/>
<feGaussianBlur stdDeviation="4"/>
<feComposite in2="hardAlpha" operator="out"/>
<feColorMatrix type="matrix" values="0 0 0 0 0 0 0 0 0 0 0 0 0 0 0 0 0 0 0.07 0"/>
<feBlend mode="normal" in2="BackgroundImageFix" result="effect1_dropShadow_110_866"/>
<feBlend mode="normal" in="SourceGraphic" in2="effect1_dropShadow_110_866" result="shape"/>
</filter>
</defs>
</svg>
