<svg width="54" height="54" viewBox="0 0 54 54" fill="none" xmlns="http://www.w3.org/2000/svg">
<g id="Solid/Status/Star">
<path id="Icon" d="M28.9461 6.74148C28.079 5.24715 25.921 5.24714 25.0539 6.74148L18.9473 17.2654C18.5189 18.0036 17.7786 18.5074 16.9347 18.6348L5.49046 20.3633C3.56833 20.6537 2.89409 23.0805 4.39103 24.3207L12.9165 31.384C13.7057 32.0378 14.0767 33.0691 13.885 34.0759L11.6549 45.7874C11.3024 47.6388 13.2459 49.0772 14.9135 48.1992L25.6896 42.5251C26.5098 42.0932 27.4901 42.0932 28.3103 42.5251L39.0865 48.1992C40.7541 49.0772 42.6976 47.6388 42.3451 45.7874L40.1149 34.0759C39.9232 33.0691 40.2943 32.0378 41.0835 31.384L49.6089 24.3207C51.1059 23.0805 50.4316 20.6537 48.5095 20.3633L37.0653 18.6348C36.2214 18.5074 35.481 18.0036 35.0527 17.2654L28.9461 6.74148Z" fill="#353642"/>
</g>
</svg>
