<svg width="556" height="846" viewBox="0 0 556 846" fill="none" xmlns="http://www.w3.org/2000/svg">
<path d="M544.028 407.181C487.202 441.021 417.881 401.149 421.138 400.455C528.563 377.097 538.056 309.324 538.056 309.324C516.609 256.923 458.151 273.792 458.151 273.792C456.459 348.155 367.95 352.343 367.95 352.343C362.265 328.215 362.578 271.88 362.578 271.88C335.752 253.124 330.32 261.085 330.32 261.085C338.78 186.637 372.849 162.636 372.849 162.636C378.525 157.348 403.897 145.462 416.925 143.922L417.391 145.987C417.391 145.987 404.218 178.879 429.463 181.045C450.706 182.906 462.778 156.756 466.069 148.457C493.691 157.018 520.053 176.18 537.59 208.413C579.078 284.671 544.028 407.181 544.028 407.181Z" fill="#2E2E2E"/>
<path d="M550.171 375.092L688.246 466.46C715.022 484.175 711.579 524.495 682.214 537.414L520.628 608.529C505.601 615.141 489.125 617.774 472.785 616.175C456.446 614.577 440.792 608.799 427.331 599.4L365.277 556.017" stroke="black" stroke-width="4.21" stroke-miterlimit="10"/>
<path d="M550.171 404.556L545.526 401.477L688.272 495.907C715.048 513.623 711.604 553.943 682.24 566.861L520.654 637.976C505.626 644.588 489.15 647.221 472.811 645.622C456.471 644.023 440.818 638.247 427.357 628.848L348.459 572.657" stroke="black" stroke-width="4.21" stroke-miterlimit="10"/>
<path d="M670.328 532.371L521.813 597.741C508.002 603.816 492.86 606.235 477.844 604.765C462.827 603.295 448.442 597.987 436.071 589.349L379.16 549.367C386.996 543.362 395.776 538.702 405.141 535.577C428.6 527.609 451.495 518.064 473.667 507.008C490.498 498.681 505.283 486.741 516.964 472.039C528.647 457.337 536.937 440.236 541.245 421.959C544.223 409.312 546.837 396.52 548.978 383.661L679.685 470.063C704.286 486.34 697.307 520.51 670.328 532.371Z" fill="white"/>
<path d="M287.64 721.824C287.64 721.824 313.679 711.029 318.671 702.891C318.671 702.891 319.61 721.367 314.737 727.678C309.864 733.99 280.745 750.673 279.18 748.583C277.614 746.493 287.64 721.824 287.64 721.824Z" fill="white"/>
<path d="M207.482 765.852C207.482 765.852 212.219 772.281 229.029 765.852C245.839 759.422 282.412 735.742 282.412 735.742C282.412 735.742 272.209 763.136 268.512 766.148C264.815 769.159 194.969 803.372 194.969 803.372C194.969 803.372 163.743 807.813 175.511 785.606L207.482 765.852Z" fill="white"/>
<path d="M308.003 407.924C269.51 422.907 228.775 458.109 240.492 555.594L243.749 580.923" stroke="black" stroke-width="4.21" stroke-miterlimit="10"/>
<path d="M307.944 344.262C314.238 335.277 319.923 325.565 323.408 315.109C326.894 304.652 327.072 293.324 328.045 282.326C330.633 252.835 334.643 228.445 346.022 200.975C355.878 177.202 385.649 146.577 415.267 143.675L417.932 143.447" stroke="black" stroke-width="4.21" stroke-miterlimit="10"/>
<path d="M382.391 405.766C382.247 405.352 382.103 404.962 381.951 404.556" stroke="black" stroke-width="4.21" stroke-miterlimit="10"/>
<path d="M367.95 350.514C366.495 341.961 365.412 333.67 364.566 325.802C364.569 325.654 364.552 325.506 364.516 325.362C360.083 281.43 364.566 249.468 364.566 249.468" stroke="black" stroke-width="4.21" stroke-miterlimit="10"/>
<path d="M471.424 83.8737L464.656 86.5136C464.656 86.7251 464.656 89.3646 464.369 93.0617C464.054 97.4769 463.352 101.856 462.271 106.149C462.871 103.222 463.743 96.268 459.919 91.4289C459.86 91.3299 459.792 91.236 459.716 91.1497C457.178 88.0956 454.048 89.3054 451.535 91.4035C449.8 92.8713 448.285 94.5811 447.034 96.4795C447.472 90.8274 446.459 85.1575 444.09 80.0075C442.545 76.4944 440.496 73.2254 438.007 70.3038C441.84 83.5014 436.924 92.1395 436.924 92.1395C423.938 95.1936 414.928 94.5422 408.211 93.3831C402.551 88.1041 404.514 69.0941 404.514 69.0941C398.821 73.7471 400.191 91.7504 400.191 91.7504C399.464 87.0525 399.553 82.2641 400.453 77.5964C397.625 81.596 395.992 86.3165 395.741 91.2089L395.64 91.1582C395.247 91.0575 394.861 90.9357 394.481 90.7944C393.784 90.4272 393.108 90.0203 392.459 89.5761L388.711 87.0381C394.371 58.1637 414.159 40.0086 444.733 45.3384C446.729 45.6824 448.693 46.1917 450.604 46.8612C470.748 57.36 471.424 83.8737 471.424 83.8737Z" fill="white"/>
<path d="M296.945 365.082L289.238 341.885C289.067 341.345 288.762 340.857 288.351 340.468C287.939 340.078 287.435 339.8 286.886 339.66C286.818 339.66 286.742 339.66 286.666 339.609C286.59 339.558 286.573 339.609 286.522 339.609C286.345 339.597 286.167 339.597 285.989 339.609C285.134 339.612 284.313 339.938 283.688 340.523C283.062 341.1 282.563 341.802 282.22 342.583C281.879 343.363 281.701 344.205 281.7 345.057C281.701 345.724 281.807 346.386 282.013 347.02C283.705 351.918 286.717 360.759 288.147 364.786" fill="white"/>
<path d="M295.202 365.084L286.895 339.661C286.827 339.661 286.751 339.661 286.675 339.611C286.599 339.56 286.582 339.611 286.531 339.611L282.174 338.765C279.848 338.333 277.521 337.868 275.195 337.436C272.403 336.878 269.594 336.413 266.811 335.744C266.153 335.558 265.478 335.445 264.797 335.406C263.939 335.403 263.114 335.734 262.496 336.328C261.865 336.905 261.362 337.609 261.019 338.393C260.676 339.177 260.503 340.024 260.508 340.88C260.504 341.539 260.609 342.193 260.821 342.817C262.691 348.299 266.252 358.671 267.386 361.818L295.202 365.084Z" fill="white"/>
<path d="M459.462 249.459C458.616 258.875 458.176 270.271 457.88 284.593C457.88 315.049 424.209 340.269 394.286 346.038L339.415 358.432C332.164 359.837 325.743 355.311 320.701 352.307C315.515 349.219 310.202 345.539 306.463 342.807C301.082 338.873 290.719 342.037 292.842 351.419C293.3 353.203 294.164 354.857 295.365 356.253C296.567 357.648 298.075 358.748 299.771 359.464C300.726 359.893 301.71 360.255 302.715 360.547C303.09 360.641 303.422 360.856 303.662 361.159C303.902 361.461 304.035 361.834 304.041 362.22C304.047 362.606 303.925 362.983 303.694 363.293C303.464 363.602 303.137 363.826 302.766 363.931C298.011 365.573 289.306 366.545 275.262 361.393C257.268 354.769 255.872 395.834 280.474 402.983H280.567C303.231 409.835 327.621 408.955 351.047 407.974C377.648 406.967 404.118 403.737 430.182 398.321C443.439 395.513 457.059 392.594 469.191 386.596C490.087 376.266 505.146 364.422 519.469 345.988C535.543 325.32 542.404 298.206 546.278 272.783C550.711 243.698 544.586 219.138 528.995 194.105L528.419 193.192" stroke="black" stroke-width="4.21" stroke-miterlimit="10"/>
<path d="M296.945 365.082L289.238 341.885C289.067 341.345 288.762 340.857 288.351 340.468C287.939 340.078 287.435 339.8 286.886 339.66C286.818 339.66 286.742 339.66 286.666 339.609C286.59 339.558 286.573 339.609 286.522 339.609C286.345 339.597 286.167 339.597 285.989 339.609C285.134 339.612 284.313 339.938 283.688 340.523C283.062 341.1 282.563 341.802 282.22 342.583C281.879 343.363 281.701 344.205 281.7 345.057C281.701 345.724 281.807 346.386 282.013 347.02C283.705 351.918 286.717 360.759 288.147 364.786" stroke="black" stroke-width="4.21" stroke-miterlimit="10"/>
<path d="M286.895 339.661C286.827 339.661 286.751 339.661 286.675 339.611C286.599 339.56 286.582 339.611 286.531 339.611L282.174 338.765C279.848 338.333 277.521 337.868 275.195 337.436C272.403 336.878 269.594 336.413 266.811 335.744C266.153 335.558 265.478 335.445 264.797 335.406C263.939 335.403 263.114 335.734 262.496 336.328C261.865 336.905 261.362 337.609 261.019 338.393C260.676 339.177 260.503 340.024 260.508 340.88C260.504 341.539 260.609 342.193 260.821 342.817C262.691 348.299 266.252 358.671 267.386 361.818" stroke="black" stroke-width="4.21" stroke-miterlimit="10"/>
<path d="M393.11 90.3765C393.11 101.374 395.251 111.89 400.53 121.602C404.76 129.402 410.969 137.262 419.852 139.842C421.821 140.41 423.861 140.695 425.91 140.688C440.986 140.62 443.337 122.761 443.337 122.761" stroke="black" stroke-width="4.21" stroke-miterlimit="10"/>
<path d="M463.861 96.7578V96.8086C463.163 102.265 461.962 107.647 460.274 112.883C458.258 119.129 457.782 125.77 458.887 132.239L461.23 145.868C461.337 146.476 461.613 147.041 462.026 147.498C462.438 147.956 462.972 148.289 463.565 148.457C493.311 157.095 519.714 176.155 535.078 203.675C554.24 238.04 557.734 279.426 556.185 318.004C554.823 351.446 549.417 384.694 541.744 417.24C537.054 437.131 528.029 455.741 515.315 471.741C502.601 487.742 486.51 500.737 468.193 509.8C444.089 521.836 419.196 532.224 393.686 540.891C380.182 545.363 367.844 552.788 357.569 562.627C347.294 572.465 339.341 584.47 334.288 597.767L274.34 757.171C272.137 763.056 267.792 767.89 262.175 770.707L204.732 799.564C197.478 803.195 189.203 804.245 181.272 802.542C179.216 802.098 177.341 801.045 175.891 799.521C174.441 797.996 173.485 796.071 173.145 793.995C172.805 791.919 173.099 789.788 173.987 787.881C174.875 785.975 176.317 784.38 178.125 783.304L207.464 765.851L247.81 560.171C250.649 541.822 257.429 524.305 267.682 508.824C277.935 493.344 291.419 480.268 307.208 470.495C309.312 469.212 311.506 468.082 313.773 467.111L401.232 429.134" stroke="black" stroke-width="4.21" stroke-miterlimit="10"/>
<path d="M439.818 43.3502C435.142 42.2359 430.303 41.9892 425.538 42.6226C425.342 42.627 425.148 42.644 424.954 42.6734" stroke="black" stroke-width="4.21" stroke-miterlimit="10"/>
<path d="M418.634 143.945C418.634 143.945 403.16 179.418 430.833 181.169C455.663 182.76 464.775 149.021 464.775 149.021" stroke="black" stroke-width="4.21" stroke-miterlimit="10"/>
<path d="M461.916 107.44C462.093 106.789 464.758 97.1698 459.665 91.1124C454.572 85.0551 447.669 95.444 446.975 96.4845C448.329 81.57 437.965 70.259 437.965 70.259C441.789 83.465 436.866 92.0938 436.866 92.0938C417.941 96.5268 407.526 93.1513 400.141 91.6962C399.414 87.0009 399.506 82.2156 400.411 77.5515C397.576 81.5408 395.94 86.2581 395.699 91.1463H395.581C392.769 90.3993 390.104 89.1836 387.696 87.5508L383.948 85.0128C389.616 56.1477 409.396 37.9756 439.97 43.3054C470.545 48.6352 471.399 83.795 471.399 83.795L464.589 86.4425C464.589 86.4425 464.648 98.0496 461.916 107.44Z" stroke="black" stroke-width="4.21" stroke-miterlimit="10"/>
<path d="M404.972 105.935V119.97C404.973 120.141 405.014 120.31 405.093 120.461C405.17 120.613 405.283 120.745 405.422 120.845C405.56 120.946 405.72 121.012 405.889 121.04C406.057 121.067 406.23 121.054 406.393 121.003C407.497 120.637 408.511 120.043 409.371 119.26" stroke="black" stroke-width="4.21" stroke-miterlimit="10"/>
<path d="M396.578 116.591C401.006 114.865 402.649 108.476 400.249 102.32C397.849 96.1648 392.315 92.5744 387.888 94.3002C383.46 96.026 381.817 102.415 384.217 108.571C386.617 114.726 392.151 118.316 396.578 116.591Z" stroke="black" stroke-width="4.21" stroke-miterlimit="10"/>
<path d="M423.219 120.606C427.646 118.88 429.29 112.491 426.889 106.335C424.489 100.18 418.956 96.5895 414.529 98.3153C410.101 100.041 408.458 106.43 410.858 112.586C413.257 118.741 418.792 122.332 423.219 120.606Z" stroke="black" stroke-width="4.21" stroke-miterlimit="10"/>
<path d="M401.249 106.663C401.249 106.663 403.872 103.668 409.371 107.179" stroke="black" stroke-width="4.21" stroke-miterlimit="10"/>
<path d="M417.391 138.955C417.391 138.955 419.294 145.402 424.895 166.298" stroke="black" stroke-width="4.21" stroke-miterlimit="10"/>
<path d="M277.175 749.64L310.169 731.831C312.06 730.807 313.671 729.335 314.864 727.546C316.057 725.755 316.795 723.701 317.013 721.561C322.495 667.713 320.82 633.671 320.82 633.671" stroke="black" stroke-width="4.21" stroke-miterlimit="10"/>
<path d="M247.226 473.488L120.25 384.751" stroke="black" stroke-width="4.21" stroke-miterlimit="10"/>
<path d="M240.035 497.94L120.25 414.219" stroke="black" stroke-width="4.21" stroke-miterlimit="10"/>
</svg>
