<svg width="94" height="22" viewBox="0 0 94 22" fill="none" xmlns="http://www.w3.org/2000/svg">
<g id="Zoom Logo">
<g id="Group">
<path id="Vector" d="M93.9711 21.7644C91.5897 22.0616 89.8676 20.6857 89.7995 18.3664C89.7226 15.7562 89.7869 13.1409 89.7327 10.5295C89.7126 9.54941 89.6596 8.53519 89.3961 7.60063C88.9259 5.93891 87.2164 4.90698 85.3708 4.98918C83.6135 5.06759 82.0427 6.30945 81.6998 8.00278C81.5346 8.81973 81.5006 9.67335 81.4955 10.5105C81.4741 14.0502 81.4754 17.5899 81.4955 21.1308C81.4993 21.6746 81.367 21.8555 80.7934 21.8378C78.6439 21.772 77.2257 20.4151 77.2005 18.2753C77.1702 15.7056 77.2181 13.1334 77.15 10.5636C77.1223 9.50389 77.0378 8.39861 76.7075 7.40461C76.1478 5.7214 74.2076 4.73752 72.4263 5.02712C70.495 5.34075 69.054 6.79886 68.9948 8.66671C68.9065 11.4451 68.9116 14.2273 68.8738 17.0069C68.8662 17.5545 68.8612 18.1033 68.8221 18.6484C68.6607 20.9361 66.7836 21.9111 64.8762 21.8289C64.4337 21.8099 64.5446 21.4698 64.5434 21.2194C64.5371 19.0493 64.5383 16.8792 64.5383 14.7078C64.5383 10.2614 64.5383 5.81625 64.5383 1.36983C64.5383 0.611055 64.6669 0.46183 65.3779 0.707167C66.2982 1.02459 67.1719 1.47859 68.0783 1.839C68.2649 1.91235 68.5536 1.90729 68.7237 1.81118C70.0096 1.08276 71.3749 0.647729 72.8549 0.635083C75.191 0.614849 77.1954 1.45077 78.8973 3.04166C79.0196 3.15548 79.1394 3.27309 79.2995 3.42611C79.6008 3.15674 79.8819 2.88232 80.1882 2.63698C82.6755 0.642671 85.4515 0.050827 88.4544 1.15737C91.4888 2.27656 93.2941 4.53139 93.9522 7.70433C93.99 7.8877 93.9988 8.08119 93.9988 8.26962C94.0014 12.5896 94.0014 16.9083 93.9988 21.2282C93.9988 21.3951 93.9812 21.5621 93.9698 21.7619L93.9711 21.7644Z" fill="#353642"/>
<path id="Vector_2" d="M13.9201 4.98581C11.4013 4.98581 8.88247 4.98961 6.36367 4.98328C5.50263 4.98075 4.63782 4.99593 3.78183 4.92385C1.66517 4.74933 0.459974 3.22293 0.552003 0.960521C0.557045 0.841646 0.930202 0.643101 1.13443 0.640571C3.38219 0.617808 5.62996 0.624131 7.87772 0.62666C10.9033 0.630454 13.9289 0.61275 16.9532 0.650688C19.3233 0.681039 20.7756 2.32631 20.5588 4.68483C20.5386 4.90108 20.3621 5.1363 20.1969 5.30197C16.3267 9.197 12.4489 13.0832 8.57235 16.9719C8.45637 17.0882 8.35047 17.2147 8.14877 17.436C8.46393 17.4537 8.67699 17.4765 8.8913 17.4765C11.6017 17.479 14.3122 17.4676 17.0213 17.4879C17.7109 17.4929 18.4144 17.5258 19.0863 17.6674C20.705 18.0102 21.948 19.9336 21.6101 21.5359C21.5824 21.6687 21.2446 21.8179 21.0491 21.8205C18.8644 21.842 16.6797 21.8382 14.495 21.8369C11.3862 21.8344 8.27609 21.8407 5.1673 21.8167C3.02291 21.8002 1.48111 20.3586 1.58323 17.7888C1.59205 17.5764 1.78367 17.3386 1.95008 17.1717C5.80519 13.2906 9.66787 9.41705 13.5331 5.54604C13.678 5.40061 13.8571 5.28679 14.0197 5.15907L13.9214 4.98455L13.9201 4.98581Z" fill="#353642"/>
<path id="Vector_3" d="M53.0582 21.8319C47.3398 21.8635 42.5254 17.0731 42.4989 11.3254C42.4712 5.44618 47.1949 0.664639 53.0645 0.631759C58.7652 0.598879 63.6213 5.42847 63.6339 11.1446C63.6477 17.0326 58.9303 21.799 53.0582 21.8319ZM46.8469 11.3469C46.9516 14.9308 49.7414 17.5676 53.3229 17.4677C56.6574 17.3741 59.3741 14.4958 59.2959 11.1357C59.2127 7.53786 56.3536 4.87204 52.7014 4.98712C49.4111 5.09082 46.7486 7.98301 46.8469 11.3469Z" fill="#353642"/>
<path id="Vector_4" d="M20.4762 11.2435C20.4271 5.62354 24.9592 0.749691 30.8036 0.645992C36.6834 0.541029 41.5218 5.296 41.5773 11.0639C41.6327 16.9255 37.0149 21.7108 31.2663 21.8145C25.2567 21.922 20.5216 17.2214 20.4775 11.2435H20.4762ZM30.9864 4.98744C27.57 4.99123 24.8003 7.74811 24.7978 11.1474C24.7953 14.7061 27.5145 17.4718 31.0179 17.4718C34.5049 17.4718 37.2721 14.6694 37.2607 11.1487C37.2507 7.74431 34.4381 4.98364 30.9864 4.98744Z" fill="#353642"/>
</g>
</g>
</svg>
