<svg width="40" height="40" viewBox="0 0 40 40" fill="none" xmlns="http://www.w3.org/2000/svg">
<path d="M31.1905 26.2185L30.753 26.1872L26.4405 12.656C25.3468 9.21849 21.9093 7.12474 18.378 7.65599C14.8155 8.21849 12.1905 11.281 12.1905 14.8747L12.2218 29.0935L11.8155 29.2497C10.2218 29.9372 9.31553 30.6247 9.37803 31.1872C9.59678 32.5622 15.2843 32.781 22.128 31.7185C28.9718 30.656 34.3155 28.6872 34.0968 27.3122C34.003 26.7497 32.9093 26.3747 31.1905 26.2185Z" fill="white"/>
<path d="M28.6882 26.8124C28.2819 26.8124 27.9069 26.5624 27.7819 26.1562L23.7507 13.4999C23.4382 12.4687 22.7507 11.5937 21.8444 11.0312C21.4069 10.7499 21.2507 10.1874 21.5319 9.74994C21.8132 9.31244 22.3757 9.15619 22.8132 9.43744C24.0944 10.2187 25.0632 11.4687 25.5319 12.9374L29.5632 25.6249C29.7194 26.1249 29.4382 26.6562 28.9694 26.8124C28.8757 26.8124 28.7819 26.8124 28.6882 26.8124Z" fill="#EAEAEA"/>
<path d="M21.3573 26.7785C18.082 27.2913 14.9816 28.0434 12.7382 28.8692C10.4947 29.695 9.29198 30.527 9.39455 31.1821C9.49711 31.8371 10.8966 32.2616 13.2851 32.3622C15.6736 32.4628 18.8555 32.2311 22.1308 31.7183C25.4061 31.2055 28.5065 30.4534 30.75 29.6276C32.9934 28.8018 34.1962 27.9698 34.0936 27.3147C33.991 26.6597 32.5916 26.2352 30.2031 26.1346C27.8145 26.034 24.6326 26.2657 21.3573 26.7785Z" fill="#EAEAEA"/>
<path d="M18.3426 8.59377C17.8738 8.59377 17.4988 8.25002 17.4051 7.81252L16.9363 4.71877C16.8426 4.21877 17.2176 3.71877 17.7176 3.65627C18.2176 3.56252 18.7176 3.93752 18.7801 4.43752L19.2488 7.53127C19.3426 8.03127 18.9676 8.53127 18.4676 8.59377C18.4363 8.59377 18.4051 8.59377 18.3426 8.59377Z" fill="black"/>
<path d="M35.0274 27.375C35.0274 27.3125 35.0274 27.25 35.0274 27.1875C34.9962 27.0938 34.9962 27 34.9649 26.9063C34.5587 25.8125 32.9024 25.4688 31.5587 25.3125C31.5274 25.3125 31.4962 25.3125 31.4649 25.3125L27.3087 12.3438C26.0587 8.43755 22.2462 6.0938 18.1837 6.7188C14.1524 7.3438 11.2149 10.7813 11.2149 14.875L11.2462 28.4688C9.87115 29.0625 8.2149 30 8.43365 31.3438C8.68365 32.9063 11.4024 33.3438 14.3712 33.3438C17.5587 33.3438 21.0899 32.8438 22.2462 32.6563C24.4337 32.3125 35.0587 30.5 35.0274 27.375ZM21.9649 30.8125C15.5899 31.8125 11.6212 31.5 10.4962 31.0313C10.7462 30.8438 11.2149 30.5313 12.1524 30.125L12.5587 29.9688L13.9337 29.4688C14.4337 29.2813 14.6837 28.75 14.4962 28.2813C14.3087 27.7813 13.7774 27.5313 13.3087 27.7188L13.1524 27.7813L13.1212 14.875C13.1212 11.7188 15.3712 9.06255 18.4962 8.5938C21.6212 8.0938 24.5587 9.93755 25.5274 12.9375L29.4337 25.1875C26.1524 25.1563 22.4024 25.6875 21.1837 25.875C20.6837 25.9688 20.3087 26.4375 20.4024 26.9375C20.4962 27.4375 20.9649 27.8125 21.4649 27.7188C25.4962 27.0938 28.5587 27 30.5587 27.0938C30.5899 27.0938 30.6212 27.0938 30.6837 27.125L31.1212 27.1563C32.1524 27.25 32.6837 27.4063 32.9649 27.5313C32.0274 28.2813 28.3712 29.8125 21.9649 30.8125Z" fill="black"/>
<path d="M17.5 26.5625C17.2514 26.5625 17.0129 26.6613 16.8371 26.8371C16.6613 27.0129 16.5625 27.2514 16.5625 27.5C16.5625 27.7486 16.6613 27.9871 16.8371 28.1629C17.0129 28.3387 17.2514 28.4375 17.5 28.4375C17.7486 28.4375 17.9871 28.3387 18.1629 28.1629C18.3387 27.9871 18.4375 27.7486 18.4375 27.5C18.4375 27.2514 18.3387 27.0129 18.1629 26.8371C17.9871 26.6613 17.7486 26.5625 17.5 26.5625Z" fill="black"/>
</svg>
