<svg width="40" height="40" viewBox="0 0 40 40" fill="none" xmlns="http://www.w3.org/2000/svg">
<path d="M7.5 23.125L20 1.25L32.5 23.125H23.125L20 27.1875L16.875 23.125H7.5Z" fill="white"/>
<path d="M22.063 35.625L26.688 27.5C27.063 26.875 27.9693 26.875 28.313 27.5L32.938 35.625C33.2818 36.25 32.8443 37.0312 32.1255 37.0312H29.5005C29.2193 37.0312 28.938 37.1562 28.7505 37.4062L28.2193 38.0937C27.8443 38.5937 27.0943 38.5937 26.7193 38.0937L26.188 37.4062C26.0005 37.1875 25.7505 37.0312 25.438 37.0312H22.813C22.1568 37.0312 21.688 36.25 22.063 35.625Z" fill="#EAEAEA"/>
<path d="M19.375 13.125L16.875 23.125M7.5 23.125L20 1.25L32.5 23.125H23.125L20 27.1875L16.875 23.125H7.5Z" stroke="black" stroke-width="2" stroke-miterlimit="10" stroke-linecap="round" stroke-linejoin="round"/>
<path d="M20.3125 13.125H19.375L17.1875 23.125L20.625 26.875L20.3125 13.125Z" fill="black"/>
</svg>
