<svg width="40" height="40" viewBox="0 0 40 40" fill="none" xmlns="http://www.w3.org/2000/svg">
<path d="M4.53125 2.8125H29.5312V37.1875H4.53125V2.8125Z" fill="white"/>
<path d="M29.5312 37.1875H4.53125L5.78125 24.5938C6.84375 14 15.75 5.9375 26.4062 5.9375L29.5312 37.1875Z" fill="#EAEAEA"/>
<path d="M20.1562 10H13.9062C13.375 10 12.9688 9.59375 12.9688 9.0625C12.9688 8.53125 13.375 8.125 13.9062 8.125H20.1562C20.6875 8.125 21.0938 8.53125 21.0938 9.0625C21.0938 9.59375 20.6875 10 20.1562 10ZM23.2812 13.125H10.7812C10.25 13.125 9.84375 12.7188 9.84375 12.1875C9.84375 11.6562 10.25 11.25 10.7812 11.25H23.2812C23.8125 11.25 24.2188 11.6562 24.2188 12.1875C24.2188 12.7188 23.8125 13.125 23.2812 13.125ZM23.2812 16.25H10.7812C10.25 16.25 9.84375 15.8438 9.84375 15.3125C9.84375 14.7812 10.25 14.375 10.7812 14.375H23.2812C23.8125 14.375 24.2188 14.7812 24.2188 15.3125C24.2188 15.8438 23.8125 16.25 23.2812 16.25ZM23.2812 19.375H10.7812C10.25 19.375 9.84375 18.9688 9.84375 18.4375C9.84375 17.9062 10.25 17.5 10.7812 17.5H23.2812C23.8125 17.5 24.2188 17.9062 24.2188 18.4375C24.2188 18.9688 23.8125 19.375 23.2812 19.375ZM23.2812 22.5H10.7812C10.25 22.5 9.84375 22.0938 9.84375 21.5625C9.84375 21.0312 10.25 20.625 10.7812 20.625H23.2812C23.8125 20.625 24.2188 21.0312 24.2188 21.5625C24.2188 22.0938 23.8125 22.5 23.2812 22.5ZM23.2812 25.625H10.7812C10.25 25.625 9.84375 25.2188 9.84375 24.6875C9.84375 24.1562 10.25 23.75 10.7812 23.75H23.2812C23.8125 23.75 24.2188 24.1562 24.2188 24.6875C24.2188 25.2188 23.8125 25.625 23.2812 25.625ZM23.2812 28.75H10.7812C10.25 28.75 9.84375 28.3438 9.84375 27.8125C9.84375 27.2812 10.25 26.875 10.7812 26.875H23.2812C23.8125 26.875 24.2188 27.2812 24.2188 27.8125C24.2188 28.3438 23.8125 28.75 23.2812 28.75ZM17.0312 31.875H10.7812C10.25 31.875 9.84375 31.4688 9.84375 30.9375C9.84375 30.4062 10.25 30 10.7812 30H17.0312C17.5625 30 17.9688 30.4062 17.9688 30.9375C17.9688 31.4688 17.5625 31.875 17.0312 31.875Z" fill="white"/>
<path d="M4.53125 8.43726C4.28125 8.43726 4.03125 8.34351 3.875 8.15601C3.6875 7.96851 3.59375 7.74976 3.59375 7.49976C3.59375 7.24976 3.6875 6.99976 3.875 6.84351C4.21875 6.49976 4.84375 6.49976 5.1875 6.84351C5.375 7.03101 5.46875 7.24976 5.46875 7.49976C5.46875 7.74976 5.375 7.99976 5.1875 8.15601C5.03125 8.34351 4.78125 8.43726 4.53125 8.43726Z" fill="black"/>
<path d="M29.5312 38.125H4.53125C4 38.125 3.59375 37.7188 3.59375 37.1875V12.1875C3.59375 11.6562 4 11.25 4.53125 11.25C5.0625 11.25 5.46875 11.6562 5.46875 12.1875V36.25H28.5938V3.75H4.53125C4 3.75 3.59375 3.34375 3.59375 2.8125C3.59375 2.28125 4 1.875 4.53125 1.875H29.5312C30.0625 1.875 30.4688 2.28125 30.4688 2.8125V37.1875C30.4688 37.7188 30.0625 38.125 29.5312 38.125ZM32.3438 38.125C31.8125 38.125 31.4062 37.7188 31.4062 37.1875C31.4062 25.6562 32.4688 17.25 34.3438 6.875H32.3438C31.8125 6.875 31.4062 6.46875 31.4062 5.9375C31.4062 5.40625 31.8125 5 32.3438 5H35.4688C35.75 5 36 5.125 36.1875 5.34375C36.375 5.5625 36.4375 5.84375 36.375 6.125L36.3125 6.40625C34.375 17.0625 33.25 25.5312 33.25 37.2188C33.2812 37.7188 32.875 38.125 32.3438 38.125Z" fill="black"/>
<path d="M4.53125 2.8125H29.5312V37.1875H4.53125V2.8125Z" fill="white"/>
<path d="M29.5312 37.1875H4.53125L5.78125 24.5938C6.84375 14 15.75 5.9375 26.4062 5.9375L29.5312 37.1875Z" fill="#EAEAEA"/>
<path d="M20.1562 10H13.9062C13.375 10 12.9688 9.59375 12.9688 9.0625C12.9688 8.53125 13.375 8.125 13.9062 8.125H20.1562C20.6875 8.125 21.0938 8.53125 21.0938 9.0625C21.0938 9.59375 20.6875 10 20.1562 10ZM23.2812 13.125H10.7812C10.25 13.125 9.84375 12.7188 9.84375 12.1875C9.84375 11.6562 10.25 11.25 10.7812 11.25H23.2812C23.8125 11.25 24.2188 11.6562 24.2188 12.1875C24.2188 12.7188 23.8125 13.125 23.2812 13.125ZM23.2812 16.25H10.7812C10.25 16.25 9.84375 15.8438 9.84375 15.3125C9.84375 14.7812 10.25 14.375 10.7812 14.375H23.2812C23.8125 14.375 24.2188 14.7812 24.2188 15.3125C24.2188 15.8438 23.8125 16.25 23.2812 16.25ZM23.2812 19.375H10.7812C10.25 19.375 9.84375 18.9688 9.84375 18.4375C9.84375 17.9062 10.25 17.5 10.7812 17.5H23.2812C23.8125 17.5 24.2188 17.9062 24.2188 18.4375C24.2188 18.9688 23.8125 19.375 23.2812 19.375ZM23.2812 22.5H10.7812C10.25 22.5 9.84375 22.0938 9.84375 21.5625C9.84375 21.0312 10.25 20.625 10.7812 20.625H23.2812C23.8125 20.625 24.2188 21.0312 24.2188 21.5625C24.2188 22.0938 23.8125 22.5 23.2812 22.5ZM23.2812 25.625H10.7812C10.25 25.625 9.84375 25.2188 9.84375 24.6875C9.84375 24.1562 10.25 23.75 10.7812 23.75H23.2812C23.8125 23.75 24.2188 24.1562 24.2188 24.6875C24.2188 25.2188 23.8125 25.625 23.2812 25.625ZM23.2812 28.75H10.7812C10.25 28.75 9.84375 28.3438 9.84375 27.8125C9.84375 27.2812 10.25 26.875 10.7812 26.875H23.2812C23.8125 26.875 24.2188 27.2812 24.2188 27.8125C24.2188 28.3438 23.8125 28.75 23.2812 28.75ZM17.0312 31.875H10.7812C10.25 31.875 9.84375 31.4688 9.84375 30.9375C9.84375 30.4062 10.25 30 10.7812 30H17.0312C17.5625 30 17.9688 30.4062 17.9688 30.9375C17.9688 31.4688 17.5625 31.875 17.0312 31.875Z" fill="black"/>
<path d="M4.53125 8.43726C4.28125 8.43726 4.03125 8.34351 3.875 8.15601C3.6875 7.96851 3.59375 7.74976 3.59375 7.49976C3.59375 7.24976 3.6875 6.99976 3.875 6.84351C4.21875 6.49976 4.84375 6.49976 5.1875 6.84351C5.375 7.03101 5.46875 7.24976 5.46875 7.49976C5.46875 7.74976 5.375 7.99976 5.1875 8.15601C5.03125 8.34351 4.78125 8.43726 4.53125 8.43726Z" fill="black"/>
<path d="M29.5312 38.125H4.53125C4 38.125 3.59375 37.7188 3.59375 37.1875V12.1875C3.59375 11.6562 4 11.25 4.53125 11.25C5.0625 11.25 5.46875 11.6562 5.46875 12.1875V36.25H28.5938V3.75H4.53125C4 3.75 3.59375 3.34375 3.59375 2.8125C3.59375 2.28125 4 1.875 4.53125 1.875H29.5312C30.0625 1.875 30.4688 2.28125 30.4688 2.8125V37.1875C30.4688 37.7188 30.0625 38.125 29.5312 38.125ZM32.3438 38.125C31.8125 38.125 31.4062 37.7188 31.4062 37.1875C31.4062 25.6562 32.4688 17.25 34.3438 6.875H32.3438C31.8125 6.875 31.4062 6.46875 31.4062 5.9375C31.4062 5.40625 31.8125 5 32.3438 5H35.4688C35.75 5 36 5.125 36.1875 5.34375C36.375 5.5625 36.4375 5.84375 36.375 6.125L36.3125 6.40625C34.375 17.0625 33.25 25.5312 33.25 37.2188C33.2812 37.7188 32.875 38.125 32.3438 38.125Z" fill="black"/>
</svg>
