<svg width="40" height="40" viewBox="0 0 40 40" fill="none" xmlns="http://www.w3.org/2000/svg">
<path d="M9.96875 29.875C7.46875 27.3438 5.9375 23.8438 5.9375 20C5.9375 12.2188 12.2188 5.9375 20 5.9375C27.7812 5.9375 34.0625 12.2188 34.0625 20C34.0625 27.7812 27.7812 34.0625 20 34.0625H5.9375L9.96875 29.875Z" fill="white"/>
<path d="M19.9983 35H5.93576C5.56076 35 5.21701 34.7812 5.06076 34.4375C4.90451 34.0937 4.99826 33.6875 5.24826 33.4062L8.68576 29.8438C6.31076 27.125 4.99826 23.6562 4.99826 20C4.99826 11.7188 11.717 5 19.9983 5C20.4045 5 20.7795 5 21.1858 5.03125C21.717 5.0625 22.092 5.53125 22.0608 6.03125C22.0295 6.5625 21.5608 6.9375 21.0608 6.90625C20.6858 6.875 20.342 6.875 19.9983 6.875C12.7483 6.875 6.87326 12.75 6.87326 20C6.87326 23.4688 8.21701 26.75 10.6545 29.2188C10.9983 29.5938 11.0295 30.1562 10.6545 30.5312L8.15451 33.125H19.9983C27.2483 33.125 33.1233 27.25 33.1233 20C33.1233 19.6562 33.1233 19.3125 33.092 18.9688C33.0608 18.4375 33.4358 18 33.967 17.9688C34.467 17.9375 34.9358 18.3125 34.967 18.8438C34.9983 19.2188 34.9983 19.625 34.9983 20C34.9983 28.2812 28.2795 35 19.9983 35Z" fill="black"/>
<path d="M26.5209 4.643C25.3488 5.81513 24.6904 7.40485 24.6904 9.06245C24.6904 10.7201 25.3489 12.3098 26.5211 13.4818C27.6932 14.6539 29.2829 15.3124 30.9405 15.3123C32.5981 15.3123 34.1878 14.6538 35.3599 13.4817C36.532 12.3096 37.1904 10.7198 37.1904 9.06224C37.1904 7.40463 36.5319 5.81493 35.3597 4.64285C34.1876 3.47077 32.5979 2.81232 30.9403 2.81234C29.2827 2.81237 27.693 3.47088 26.5209 4.643Z" fill="black"/>
<path d="M30.9375 12.1875C30.4062 12.1875 30 11.7812 30 11.25V6.875C30 6.34375 30.4062 5.9375 30.9375 5.9375C31.4688 5.9375 31.875 6.34375 31.875 6.875V11.25C31.875 11.7812 31.4688 12.1875 30.9375 12.1875Z" fill="white"/>
<path d="M25.3125 18.125H14.6875C14.1562 18.125 13.75 17.7188 13.75 17.1875C13.75 16.6562 14.1562 16.25 14.6875 16.25H25.3125C25.8438 16.25 26.25 16.6562 26.25 17.1875C26.25 17.7188 25.8438 18.125 25.3125 18.125ZM20.625 23.75H14.6875C14.1562 23.75 13.75 23.3438 13.75 22.8125C13.75 22.2812 14.1562 21.875 14.6875 21.875H20.625C21.1562 21.875 21.5625 22.2812 21.5625 22.8125C21.5625 23.3438 21.1562 23.75 20.625 23.75ZM25.625 23.75H25.3125C24.7812 23.75 24.375 23.3438 24.375 22.8125C24.375 22.2812 24.7812 21.875 25.3125 21.875H25.625C26.1562 21.875 26.5625 22.2812 26.5625 22.8125C26.5625 23.3438 26.1562 23.75 25.625 23.75Z" fill="#EAEAEA"/>
</svg>
