<svg width="21" height="26" viewBox="0 0 21 26" fill="none" xmlns="http://www.w3.org/2000/svg">
<path d="M17.3597 14.0472C17.3723 13.0707 17.6324 12.1133 18.1158 11.264C18.5992 10.4147 19.2901 9.70118 20.1244 9.18974C19.5944 8.43498 18.8952 7.81384 18.0824 7.37566C17.2696 6.93748 16.3656 6.69433 15.4421 6.66551C13.472 6.4593 11.5622 7.84105 10.5583 7.84105C9.53494 7.84105 7.9893 6.68599 6.32488 6.72013C5.2483 6.75482 4.19908 7.067 3.27946 7.62628C2.35984 8.18555 1.60118 8.97283 1.0774 9.91142C-1.19145 13.8287 0.500911 19.5857 2.67432 22.7522C3.76173 24.3027 5.03259 26.0346 6.6955 25.9732C8.32276 25.9059 8.93051 24.9385 10.8947 24.9385C12.8407 24.9385 13.4109 25.9732 15.1076 25.9342C16.8537 25.9059 17.9538 24.3768 19.0031 22.8116C19.7844 21.7068 20.3856 20.4858 20.7845 19.1937C19.77 18.7658 18.9043 18.0497 18.2953 17.1345C17.6863 16.2193 17.3609 15.1455 17.3597 14.0472Z" fill="white"/>
<path d="M14.1525 4.58363C15.1046 3.44392 15.5736 1.97901 15.46 0.5C14.0055 0.652342 12.6619 1.34557 11.697 2.44155C11.2252 2.97696 10.8639 3.59985 10.6337 4.27461C10.4034 4.94936 10.3088 5.66275 10.3552 6.37399C11.0828 6.38145 11.8025 6.22421 12.4602 5.91408C13.118 5.60397 13.6966 5.14906 14.1525 4.58363Z" fill="white"/>
</svg>
