<svg width="20" height="19" viewBox="0 0 20 19" fill="none" xmlns="http://www.w3.org/2000/svg">
<path d="M9.52447 0.963524C9.67415 0.502869 10.3259 0.50287 10.4755 0.963525L12.3574 6.75532C12.4243 6.96133 12.6163 7.10081 12.8329 7.10081H18.9228C19.4071 7.10081 19.6085 7.72062 19.2167 8.00532L14.2899 11.5848C14.1146 11.7122 14.0413 11.9379 14.1082 12.1439L15.9901 17.9357C16.1398 18.3963 15.6125 18.7794 15.2207 18.4947L10.2939 14.9152C10.1186 14.7878 9.88135 14.7878 9.70611 14.9152L4.77931 18.4947C4.38745 18.7794 3.86021 18.3963 4.00989 17.9357L5.89176 12.1439C5.9587 11.9379 5.88537 11.7122 5.71012 11.5848L0.783326 8.00532C0.39147 7.72062 0.592859 7.10081 1.07722 7.10081H7.16708C7.38369 7.10081 7.57567 6.96133 7.6426 6.75532L9.52447 0.963524Z" fill="#FFAE34"/>
</svg>
