<svg width="913" height="329" viewBox="0 0 913 329" fill="none" xmlns="http://www.w3.org/2000/svg">
<rect x="393.392" y="21.6373" width="102.706" height="43.7255" rx="21.8627" fill="white" fill-opacity="0.1"/>
<rect x="393.392" y="21.6373" width="102.706" height="43.7255" rx="21.8627" stroke="#171717" stroke-width="1.27451"/>
<path d="M428.89 35.7012H431.243V49.5H428.89V43.6797H422.122V49.5H419.749V35.7012H422.122V41.4434H428.89V35.7012ZM443.873 44.4219C443.873 44.7214 443.853 45.0143 443.814 45.3008H435.553C435.735 46.0365 436.119 46.6257 436.705 47.0684C437.297 47.5046 438.007 47.7227 438.834 47.7227C439.472 47.7227 440.064 47.5892 440.611 47.3223C441.165 47.0553 441.594 46.7201 441.9 46.3164L443.414 47.6152C442.887 48.2793 442.216 48.8001 441.402 49.1777C440.595 49.5553 439.719 49.7441 438.775 49.7441C437.161 49.7441 435.816 49.2298 434.742 48.2012C433.674 47.1725 433.14 45.8932 433.14 44.3633C433.14 43.3737 433.375 42.4753 433.844 41.668C434.312 40.8542 434.957 40.2161 435.777 39.7539C436.604 39.2917 437.519 39.0605 438.521 39.0605C440.051 39.0605 441.324 39.5716 442.34 40.5938C443.362 41.6094 443.873 42.8854 443.873 44.4219ZM438.502 41.082C437.779 41.082 437.148 41.3001 436.607 41.7363C436.073 42.1725 435.715 42.7487 435.533 43.4648H441.48C441.311 42.7487 440.953 42.1725 440.406 41.7363C439.866 41.3001 439.231 41.082 438.502 41.082ZM445.526 49.5V35.0957H447.772V49.5H445.526ZM450.128 49.5V35.0957H452.374V49.5H450.128ZM459.574 49.7441C458.018 49.7441 456.72 49.2331 455.678 48.2109C454.636 47.1888 454.115 45.9193 454.115 44.4023C454.115 42.8854 454.636 41.6159 455.678 40.5938C456.72 39.5716 458.018 39.0605 459.574 39.0605C460.59 39.0605 461.515 39.2949 462.348 39.7637C463.188 40.2259 463.845 40.8672 464.321 41.6875C464.796 42.5013 465.033 43.4062 465.033 44.4023C465.033 45.3984 464.796 46.3066 464.321 47.127C463.845 47.9408 463.188 48.582 462.348 49.0508C461.515 49.513 460.59 49.7441 459.574 49.7441ZM457.319 46.668C457.924 47.2734 458.676 47.5762 459.574 47.5762C460.473 47.5762 461.218 47.2734 461.811 46.668C462.41 46.056 462.709 45.3008 462.709 44.4023C462.709 43.4974 462.41 42.7422 461.811 42.1367C461.218 41.5247 460.473 41.2188 459.574 41.2188C458.676 41.2188 457.924 41.5247 457.319 42.1367C456.713 42.7487 456.41 43.5039 456.41 44.4023C456.41 45.3008 456.713 46.056 457.319 46.668ZM467.038 45.3203L466.901 39.0996V35.7012H469.274V39.0996L469.138 45.3203H467.038ZM468.073 49.6562C467.631 49.6562 467.263 49.5098 466.97 49.2168C466.683 48.9238 466.54 48.5592 466.54 48.123C466.54 47.6803 466.687 47.3125 466.979 47.0195C467.272 46.7266 467.637 46.5801 468.073 46.5801C468.522 46.5801 468.894 46.7266 469.187 47.0195C469.486 47.3125 469.636 47.6803 469.636 48.123C469.636 48.5658 469.486 48.9336 469.187 49.2266C468.894 49.513 468.522 49.6562 468.073 49.6562Z" fill="#171717"/>
<path d="M492.745 20C492.745 17 495.745 11 492.745 2M500.245 23.5C504.578 19.3333 513.445 9.2 514.245 2M503.245 30.5C505.912 30.5 513.045 29.1 520.245 23.5" stroke="#FEB273" stroke-width="4" stroke-linecap="round" stroke-linejoin="round"/>
<path d="M260.507 157V90.1036H270.446V157H260.507ZM278.082 115.046L281.045 90.1036H290.984L284.676 115.046H278.082ZM295.497 157V109.217H305.436V114.282C307.092 112.307 309.115 110.746 311.504 109.599C313.925 108.452 316.537 107.879 319.341 107.879C322.749 107.879 325.887 108.707 328.754 110.364C331.621 111.988 333.899 114.154 335.587 116.862C337.275 114.154 339.521 111.988 342.324 110.364C345.159 108.707 348.281 107.879 351.69 107.879C355.226 107.879 358.443 108.739 361.342 110.459C364.241 112.179 366.55 114.489 368.271 117.388C369.991 120.287 370.851 123.504 370.851 127.04V157H360.912V129.572C360.912 127.47 360.402 125.543 359.383 123.791C358.364 122.039 356.994 120.621 355.274 119.538C353.553 118.455 351.642 117.913 349.54 117.913C347.437 117.913 345.526 118.423 343.806 119.442C342.085 120.462 340.716 121.848 339.696 123.6C338.677 125.352 338.167 127.343 338.167 129.572V157H328.228V129.572C328.228 127.343 327.719 125.352 326.699 123.6C325.68 121.848 324.294 120.462 322.542 119.442C320.822 118.423 318.911 117.913 316.808 117.913C314.738 117.913 312.826 118.455 311.074 119.538C309.354 120.621 307.984 122.039 306.965 123.791C305.945 125.543 305.436 127.47 305.436 129.572V157H295.497ZM640.992 162.352L643.954 146.201H653.893L647.586 162.352H640.992ZM111.018 253V186.104H134.05C137.65 186.104 140.899 186.996 143.798 188.779C146.728 190.563 149.054 192.968 150.774 195.995C152.526 199.021 153.402 202.366 153.402 206.029C153.402 209.756 152.51 213.133 150.726 216.159C148.974 219.154 146.633 221.543 143.702 223.327C140.771 225.111 137.554 226.003 134.05 226.003H120.957V253H111.018ZM120.957 216.064H133.046C134.958 216.064 136.694 215.586 138.255 214.63C139.848 213.674 141.106 212.4 142.03 210.807C142.985 209.215 143.463 207.415 143.463 205.408C143.463 203.401 142.985 201.601 142.03 200.008C141.106 198.384 139.848 197.11 138.255 196.186C136.694 195.23 134.958 194.752 133.046 194.752H120.957V216.064ZM159.795 253V205.217H169.733V210.282C171.39 208.307 173.429 206.746 175.85 205.599C178.271 204.452 180.883 203.879 183.686 203.879C185.47 203.879 187.238 204.118 188.99 204.596L185.024 214.63C183.782 214.152 182.539 213.913 181.297 213.913C179.194 213.913 177.267 214.439 175.515 215.49C173.763 216.51 172.361 217.895 171.31 219.647C170.259 221.399 169.733 223.343 169.733 225.477V253H159.795ZM211.863 254.242C207.467 254.242 203.453 253.111 199.822 250.85C196.222 248.588 193.339 245.562 191.173 241.771C189.039 237.948 187.972 233.727 187.972 229.108C187.972 225.604 188.593 222.339 189.835 219.313C191.078 216.255 192.782 213.579 194.948 211.285C197.146 208.96 199.694 207.144 202.593 205.838C205.492 204.532 208.582 203.879 211.863 203.879C216.259 203.879 220.257 205.01 223.857 207.272C227.488 209.533 230.371 212.575 232.506 216.398C234.672 220.221 235.755 224.458 235.755 229.108C235.755 232.581 235.134 235.83 233.891 238.856C232.649 241.882 230.929 244.558 228.731 246.884C226.565 249.177 224.032 250.977 221.133 252.283C218.266 253.589 215.176 254.242 211.863 254.242ZM211.863 244.303C214.507 244.303 216.88 243.603 218.983 242.201C221.085 240.799 222.742 238.952 223.952 236.658C225.195 234.333 225.816 231.816 225.816 229.108C225.816 226.337 225.179 223.789 223.905 221.463C222.662 219.138 220.99 217.29 218.887 215.92C216.785 214.519 214.444 213.818 211.863 213.818C209.251 213.818 206.878 214.519 204.744 215.92C202.641 217.322 200.969 219.185 199.726 221.511C198.516 223.836 197.911 226.369 197.911 229.108C197.911 231.944 198.548 234.508 199.822 236.802C201.096 239.095 202.784 240.927 204.887 242.297C207.021 243.634 209.347 244.303 211.863 244.303ZM279.171 181.325H289.11V253H279.171V245.976C277.61 248.461 275.571 250.467 273.055 251.997C270.538 253.494 267.592 254.242 264.215 254.242C260.743 254.242 257.493 253.589 254.467 252.283C251.441 250.977 248.765 249.177 246.44 246.884C244.146 244.558 242.346 241.882 241.04 238.856C239.734 235.83 239.081 232.581 239.081 229.108C239.081 225.636 239.734 222.387 241.04 219.361C242.346 216.303 244.146 213.627 246.44 211.333C248.765 209.008 251.441 207.192 254.467 205.886C257.493 204.58 260.743 203.927 264.215 203.927C267.592 203.927 270.538 204.691 273.055 206.22C275.571 207.717 277.61 209.693 279.171 212.145V181.325ZM264.31 244.638C267.114 244.638 269.567 243.953 271.669 242.583C273.772 241.182 275.396 239.302 276.543 236.945C277.722 234.588 278.311 231.975 278.311 229.108C278.311 226.21 277.722 223.581 276.543 221.224C275.364 218.867 273.724 217.003 271.621 215.634C269.551 214.232 267.114 213.531 264.31 213.531C261.539 213.531 259.007 214.232 256.713 215.634C254.451 217.035 252.635 218.915 251.266 221.272C249.928 223.629 249.259 226.241 249.259 229.108C249.259 232.007 249.944 234.635 251.313 236.993C252.715 239.318 254.547 241.182 256.809 242.583C259.102 243.953 261.603 244.638 264.31 244.638ZM297.212 235.081V205.217H307.151V232.644C307.151 234.779 307.677 236.722 308.728 238.474C309.779 240.226 311.181 241.628 312.933 242.679C314.685 243.698 316.612 244.208 318.715 244.208C320.849 244.208 322.776 243.698 324.496 242.679C326.248 241.628 327.634 240.226 328.654 238.474C329.705 236.722 330.23 234.779 330.23 232.644V205.217H340.169L340.217 253H330.278L330.23 247.839C328.606 249.814 326.583 251.375 324.162 252.522C321.741 253.669 319.145 254.242 316.373 254.242C312.837 254.242 309.62 253.382 306.721 251.662C303.822 249.942 301.513 247.632 299.792 244.734C298.072 241.835 297.212 238.617 297.212 235.081ZM378.915 239.43L387.803 244.256C385.637 247.282 382.881 249.703 379.537 251.519C376.224 253.334 372.624 254.242 368.738 254.242C364.342 254.242 360.328 253.111 356.696 250.85C353.097 248.588 350.214 245.562 348.048 241.771C345.913 237.948 344.846 233.727 344.846 229.108C344.846 225.604 345.467 222.339 346.71 219.313C347.952 216.255 349.656 213.579 351.822 211.285C354.02 208.96 356.569 207.144 359.468 205.838C362.367 204.532 365.457 203.879 368.738 203.879C372.624 203.879 376.224 204.787 379.537 206.603C382.881 208.418 385.637 210.855 387.803 213.913L378.915 218.739C377.578 217.147 376.017 215.936 374.233 215.108C372.449 214.248 370.617 213.818 368.738 213.818C366.125 213.818 363.752 214.535 361.618 215.968C359.515 217.37 357.843 219.233 356.601 221.559C355.39 223.852 354.785 226.369 354.785 229.108C354.785 231.816 355.406 234.333 356.648 236.658C357.891 238.952 359.563 240.799 361.666 242.201C363.8 243.603 366.157 244.303 368.738 244.303C370.713 244.303 372.592 243.857 374.376 242.966C376.16 242.074 377.673 240.895 378.915 239.43ZM420.225 215.156H410.191L410.143 253H400.204L400.252 215.156H392.655V205.217H400.252L400.204 190.213H410.143L410.191 205.217H420.225V215.156ZM448.871 253V186.104H470.995C475.614 186.104 479.946 186.98 483.992 188.732C488.038 190.452 491.59 192.857 494.648 195.947C497.706 199.005 500.095 202.557 501.815 206.603C503.567 210.616 504.443 214.933 504.443 219.552C504.443 224.171 503.567 228.503 501.815 232.549C500.095 236.563 497.706 240.114 494.648 243.204C491.59 246.263 488.038 248.668 483.992 250.42C479.946 252.14 475.614 253 470.995 253H448.871ZM458.81 243.061H470.995C474.244 243.061 477.271 242.456 480.074 241.245C482.909 240.035 485.41 238.346 487.576 236.18C489.774 234.014 491.478 231.513 492.689 228.678C493.899 225.843 494.504 222.801 494.504 219.552C494.504 216.303 493.899 213.26 492.689 210.425C491.478 207.59 489.774 205.089 487.576 202.923C485.41 200.757 482.909 199.069 480.074 197.858C477.271 196.648 474.244 196.042 470.995 196.042H458.81V243.061ZM531.458 254.242C527.062 254.242 523.048 253.111 519.417 250.85C515.817 248.588 512.934 245.562 510.768 241.771C508.634 237.948 507.566 233.727 507.566 229.108C507.566 225.604 508.188 222.339 509.43 219.313C510.672 216.255 512.377 213.579 514.543 211.285C516.741 208.96 519.289 207.144 522.188 205.838C525.087 204.532 528.177 203.879 531.458 203.879C535.121 203.879 538.482 204.643 541.54 206.172C544.598 207.67 547.211 209.756 549.377 212.432C551.543 215.076 553.136 218.134 554.155 221.606C555.174 225.047 555.477 228.71 555.063 232.597H518.222C518.636 234.795 519.433 236.786 520.611 238.569C521.822 240.322 523.351 241.707 525.198 242.727C527.078 243.746 529.164 244.272 531.458 244.303C533.879 244.303 536.077 243.698 538.052 242.488C540.059 241.277 541.7 239.605 542.974 237.47L553.056 239.812C551.145 244.049 548.262 247.521 544.407 250.229C540.553 252.904 536.236 254.242 531.458 254.242ZM517.888 224.999H545.028C544.71 222.705 543.898 220.635 542.591 218.787C541.317 216.908 539.709 215.426 537.765 214.343C535.854 213.228 533.752 212.671 531.458 212.671C529.196 212.671 527.094 213.213 525.151 214.296C523.239 215.379 521.647 216.86 520.372 218.739C519.13 220.587 518.302 222.674 517.888 224.999ZM576.064 253.908C573.548 253.749 571.095 253.239 568.706 252.379C566.317 251.519 564.214 250.356 562.398 248.891C560.614 247.393 559.276 245.641 558.385 243.634L566.842 240.003C567.256 240.863 567.973 241.707 568.992 242.535C570.044 243.364 571.27 244.049 572.672 244.59C574.073 245.1 575.539 245.355 577.068 245.355C578.565 245.355 579.951 245.148 581.225 244.734C582.531 244.288 583.598 243.619 584.426 242.727C585.255 241.835 585.669 240.768 585.669 239.525C585.669 238.124 585.191 237.04 584.235 236.276C583.311 235.48 582.149 234.874 580.747 234.46C579.345 234.046 577.944 233.648 576.542 233.266C573.42 232.565 570.553 231.609 567.941 230.399C565.361 229.156 563.306 227.579 561.777 225.668C560.248 223.725 559.484 221.352 559.484 218.548C559.484 215.49 560.312 212.846 561.968 210.616C563.625 208.355 565.791 206.618 568.467 205.408C571.174 204.197 574.057 203.592 577.116 203.592C580.938 203.592 584.442 204.405 587.628 206.029C590.813 207.654 593.25 209.884 594.939 212.719L587.054 217.402C586.577 216.446 585.86 215.586 584.904 214.821C583.949 214.057 582.865 213.451 581.655 213.005C580.444 212.528 579.186 212.257 577.88 212.193C576.255 212.129 574.742 212.321 573.341 212.767C571.971 213.181 570.872 213.85 570.044 214.773C569.215 215.697 568.801 216.876 568.801 218.309C568.801 219.711 569.295 220.762 570.283 221.463C571.27 222.132 572.512 222.674 574.01 223.088C575.539 223.502 577.1 223.964 578.692 224.473C581.528 225.365 584.187 226.464 586.672 227.77C589.157 229.045 591.164 230.622 592.693 232.501C594.222 234.38 594.955 236.674 594.891 239.382C594.891 242.376 593.983 245.004 592.167 247.266C590.383 249.528 588.058 251.248 585.191 252.427C582.324 253.605 579.282 254.099 576.064 253.908ZM600.8 205.217H610.738V253H600.8V205.217ZM605.865 198.288C604.336 198.288 603.061 197.795 602.042 196.807C601.023 195.819 600.513 194.577 600.513 193.08C600.513 191.615 601.023 190.388 602.042 189.401C603.061 188.381 604.32 187.872 605.817 187.872C607.282 187.872 608.525 188.381 609.544 189.401C610.563 190.388 611.073 191.615 611.073 193.08C611.073 194.577 610.563 195.819 609.544 196.807C608.556 197.795 607.33 198.288 605.865 198.288ZM656.261 205.217H666.2V254.242C666.2 257.523 665.499 260.55 664.097 263.321C662.728 266.093 660.864 268.482 658.507 270.489C656.149 272.527 653.442 274.104 650.384 275.219C647.357 276.334 644.188 276.892 640.875 276.892C637.53 276.892 634.313 276.175 631.223 274.741C628.133 273.34 625.409 271.428 623.052 269.007C620.726 266.586 618.99 263.847 617.843 260.789L626.97 256.679C627.607 258.654 628.626 260.406 630.028 261.935C631.461 263.465 633.118 264.675 634.997 265.567C636.909 266.459 638.868 266.905 640.875 266.905C642.85 266.905 644.745 266.586 646.561 265.949C648.409 265.344 650.049 264.484 651.483 263.369C652.948 262.254 654.111 260.916 654.971 259.355C655.831 257.794 656.261 256.09 656.261 254.242V246.167C654.7 248.588 652.693 250.547 650.24 252.044C647.787 253.51 644.936 254.242 641.687 254.242C638.31 254.242 635.125 253.589 632.13 252.283C629.136 250.977 626.508 249.177 624.246 246.884C621.984 244.558 620.216 241.882 618.942 238.856C617.668 235.83 617.031 232.581 617.031 229.108C617.031 225.636 617.668 222.387 618.942 219.361C620.216 216.303 621.984 213.627 624.246 211.333C626.508 209.008 629.136 207.192 632.13 205.886C635.125 204.58 638.31 203.927 641.687 203.927C644.936 203.927 647.787 204.675 650.24 206.172C652.693 207.638 654.7 209.597 656.261 212.05V205.217ZM641.783 244.638C644.554 244.638 646.975 243.937 649.046 242.535C651.116 241.102 652.725 239.207 653.872 236.849C655.019 234.492 655.592 231.912 655.592 229.108C655.592 226.241 655.003 223.645 653.824 221.32C652.677 218.962 651.068 217.083 648.998 215.681C646.927 214.248 644.522 213.531 641.783 213.531C639.107 213.531 636.654 214.232 634.424 215.634C632.226 217.035 630.474 218.915 629.168 221.272C627.862 223.629 627.209 226.241 627.209 229.108C627.209 231.975 627.862 234.588 629.168 236.945C630.506 239.302 632.274 241.182 634.472 242.583C636.702 243.953 639.139 244.638 641.783 244.638ZM719.238 223.04V253H709.3V225.477C709.3 223.343 708.774 221.399 707.723 219.647C706.703 217.895 705.318 216.51 703.566 215.49C701.845 214.439 699.902 213.913 697.736 213.913C695.634 213.913 693.706 214.439 691.954 215.49C690.202 216.51 688.801 217.895 687.749 219.647C686.698 221.399 686.172 223.343 686.172 225.477V253H676.234V205.217H686.172V210.282C687.829 208.307 689.868 206.746 692.289 205.599C694.71 204.452 697.322 203.879 700.125 203.879C703.661 203.879 706.878 204.739 709.777 206.459C712.676 208.179 714.97 210.489 716.658 213.388C718.378 216.287 719.238 219.504 719.238 223.04ZM747.434 254.242C743.038 254.242 739.024 253.111 735.393 250.85C731.793 248.588 728.91 245.562 726.744 241.771C724.61 237.948 723.543 233.727 723.543 229.108C723.543 225.604 724.164 222.339 725.406 219.313C726.648 216.255 728.353 213.579 730.519 211.285C732.717 208.96 735.265 207.144 738.164 205.838C741.063 204.532 744.153 203.879 747.434 203.879C751.098 203.879 754.458 204.643 757.516 206.172C760.575 207.67 763.187 209.756 765.353 212.432C767.519 215.076 769.112 218.134 770.131 221.606C771.151 225.047 771.453 228.71 771.039 232.597H734.198C734.612 234.795 735.409 236.786 736.587 238.569C737.798 240.322 739.327 241.707 741.175 242.727C743.054 243.746 745.141 244.272 747.434 244.303C749.855 244.303 752.053 243.698 754.028 242.488C756.035 241.277 757.676 239.605 758.95 237.47L769.032 239.812C767.121 244.049 764.238 247.521 760.383 250.229C756.529 252.904 752.212 254.242 747.434 254.242ZM733.864 224.999H761.005C760.686 222.705 759.874 220.635 758.568 218.787C757.293 216.908 755.685 215.426 753.742 214.343C751.83 213.228 749.728 212.671 747.434 212.671C745.172 212.671 743.07 213.213 741.127 214.296C739.215 215.379 737.623 216.86 736.348 218.739C735.106 220.587 734.278 222.674 733.864 224.999ZM777.519 253V205.217H787.458V210.282C789.114 208.307 791.153 206.746 793.574 205.599C795.995 204.452 798.607 203.879 801.411 203.879C803.194 203.879 804.962 204.118 806.714 204.596L802.748 214.63C801.506 214.152 800.264 213.913 799.021 213.913C796.919 213.913 794.992 214.439 793.24 215.49C791.488 216.51 790.086 217.895 789.035 219.647C787.983 221.399 787.458 223.343 787.458 225.477V253H777.519Z" fill="#171717"/>
<path d="M409.69 158.242C407.332 158.242 405.023 157.844 402.761 157.048C400.531 156.251 398.508 155.073 396.693 153.512L403.048 145.867C403.844 146.535 404.8 147.109 405.915 147.587C407.03 148.065 408.288 148.303 409.69 148.303C411.601 148.303 413.337 147.81 414.898 146.822C416.491 145.803 417.765 144.481 418.721 142.856C419.676 141.2 420.154 139.432 420.154 137.552V90.1036H430.093V137.552C430.093 141.279 429.169 144.72 427.322 147.873C425.474 150.995 423.005 153.512 419.915 155.423C416.857 157.303 413.449 158.242 409.69 158.242ZM461.17 158.242C456.774 158.242 452.76 157.111 449.129 154.85C445.529 152.588 442.646 149.562 440.48 145.771C438.346 141.948 437.278 137.727 437.278 133.108C437.278 129.604 437.9 126.339 439.142 123.313C440.384 120.255 442.089 117.579 444.255 115.285C446.453 112.96 449.001 111.144 451.9 109.838C454.799 108.532 457.889 107.879 461.17 107.879C464.833 107.879 468.194 108.643 471.252 110.172C474.31 111.67 476.923 113.756 479.089 116.432C481.255 119.076 482.848 122.134 483.867 125.606C484.886 129.047 485.189 132.71 484.775 136.597H447.934C448.348 138.795 449.145 140.786 450.323 142.569C451.534 144.322 453.063 145.707 454.91 146.727C456.79 147.746 458.876 148.272 461.17 148.303C463.591 148.303 465.789 147.698 467.764 146.488C469.771 145.277 471.412 143.605 472.686 141.47L482.768 143.812C480.857 148.049 477.974 151.521 474.119 154.229C470.265 156.904 465.948 158.242 461.17 158.242ZM447.6 128.999H474.74C474.422 126.705 473.61 124.635 472.304 122.787C471.029 120.908 469.421 119.426 467.477 118.343C465.566 117.228 463.464 116.671 461.17 116.671C458.908 116.671 456.806 117.213 454.863 118.296C452.951 119.379 451.359 120.86 450.084 122.739C448.842 124.587 448.014 126.674 447.6 128.999ZM534.26 127.04V157H524.321V129.477C524.321 127.343 523.795 125.399 522.744 123.647C521.725 121.895 520.339 120.51 518.587 119.49C516.867 118.439 514.923 117.913 512.757 117.913C510.655 117.913 508.728 118.439 506.975 119.49C505.223 120.51 503.822 121.895 502.771 123.647C501.719 125.399 501.194 127.343 501.194 129.477V157H491.255V109.217H501.194V114.282C502.85 112.307 504.889 110.746 507.31 109.599C509.731 108.452 512.343 107.879 515.146 107.879C518.682 107.879 521.9 108.739 524.799 110.459C527.697 112.179 529.991 114.489 531.679 117.388C533.4 120.287 534.26 123.504 534.26 127.04ZM585.369 127.04V157H575.43V129.477C575.43 127.343 574.904 125.399 573.853 123.647C572.834 121.895 571.448 120.51 569.696 119.49C567.976 118.439 566.033 117.913 563.867 117.913C561.764 117.913 559.837 118.439 558.085 119.49C556.333 120.51 554.931 121.895 553.88 123.647C552.829 125.399 552.303 127.343 552.303 129.477V157H542.364V109.217H552.303V114.282C553.959 112.307 555.998 110.746 558.419 109.599C560.84 108.452 563.452 107.879 566.256 107.879C569.792 107.879 573.009 108.739 575.908 110.459C578.807 112.179 581.1 114.489 582.789 117.388C584.509 120.287 585.369 123.504 585.369 127.04ZM624.152 109.217H634.76L608.574 180.892H598.014L606.663 157L589.509 109.217H600.356L611.633 143.382L624.152 109.217Z" fill="#FD853A"/>
<path d="M111.311 280.231C109.628 287.891 98.6036 301.529 101.217 326.191M94.1233 267.089C80.7223 275.298 52.4002 296.199 46.32 314.135M90.3888 247.533C83.5799 246.038 64.5811 245.612 43.0567 255.873" stroke="#FEB273" stroke-width="5" stroke-linecap="round" stroke-linejoin="round"/>
</svg>
