<svg width="24" height="25" viewBox="0 0 24 25" fill="none" xmlns="http://www.w3.org/2000/svg">
<g id="vuesax/bold/star">
<g id="star">
<path id="Vector" d="M15.39 5.29109L16.8 8.11109C16.99 8.50109 17.5 8.87109 17.93 8.95109L20.48 9.37109C22.11 9.64109 22.49 10.8211 21.32 12.0011L19.33 13.9911C19 14.3211 18.81 14.9711 18.92 15.4411L19.49 17.9011C19.94 19.8411 18.9 20.6011 17.19 19.5811L14.8 18.1611C14.37 17.9011 13.65 17.9011 13.22 18.1611L10.83 19.5811C9.12 20.5911 8.08 19.8411 8.53 17.9011L9.1 15.4411C9.19 14.9611 9 14.3111 8.67 13.9811L6.68 11.9911C5.51 10.8211 5.89 9.64109 7.52 9.36109L10.07 8.94109C10.5 8.87109 11.01 8.49109 11.2 8.10109L12.61 5.28109C13.38 3.76109 14.62 3.76109 15.39 5.29109Z" fill="#292D32"/>
<path id="Vector_2" d="M8 5.83105H2C1.59 5.83105 1.25 5.49105 1.25 5.08105C1.25 4.67105 1.59 4.33105 2 4.33105H8C8.41 4.33105 8.75 4.67105 8.75 5.08105C8.75 5.49105 8.41 5.83105 8 5.83105Z" fill="#292D32"/>
<path id="Vector_3" d="M5 19.8311H2C1.59 19.8311 1.25 19.4911 1.25 19.0811C1.25 18.6711 1.59 18.3311 2 18.3311H5C5.41 18.3311 5.75 18.6711 5.75 19.0811C5.75 19.4911 5.41 19.8311 5 19.8311Z" fill="#292D32"/>
<path id="Vector_4" d="M3 12.8311H2C1.59 12.8311 1.25 12.4911 1.25 12.0811C1.25 11.6711 1.59 11.3311 2 11.3311H3C3.41 11.3311 3.75 11.6711 3.75 12.0811C3.75 12.4911 3.41 12.8311 3 12.8311Z" fill="#292D32"/>
</g>
</g>
</svg>
