<svg width="32" height="33" viewBox="0 0 32 33" fill="none" xmlns="http://www.w3.org/2000/svg">
<g id="vuesax/bold/sms">
<g id="sms">
<path id="Vector" d="M22.6667 4.74768H9.33332C5.33332 4.74768 2.66666 6.74768 2.66666 11.4143V20.7477C2.66666 25.4143 5.33332 27.4143 9.33332 27.4143H22.6667C26.6667 27.4143 29.3333 25.4143 29.3333 20.7477V11.4143C29.3333 6.74768 26.6667 4.74768 22.6667 4.74768ZM23.2933 12.8677L19.12 16.201C18.24 16.9077 17.12 17.2543 16 17.2543C14.88 17.2543 13.7467 16.9077 12.88 16.201L8.70666 12.8677C8.27999 12.521 8.21332 11.881 8.54666 11.4543C8.89332 11.0277 9.51999 10.9477 9.94666 11.2943L14.12 14.6277C15.1333 15.441 16.8533 15.441 17.8667 14.6277L22.04 11.2943C22.4667 10.9477 23.1067 11.0143 23.44 11.4543C23.7867 11.881 23.72 12.521 23.2933 12.8677Z" fill="#FD853A"/>
</g>
</g>
</svg>
