<svg width="462" height="434" viewBox="0 0 462 434" fill="none" xmlns="http://www.w3.org/2000/svg">
<rect x="3.5" y="0.5" width="406" height="433" rx="19.5" fill="url(#paint0_linear_1_6747)" stroke="url(#paint1_linear_1_6747)"/>
<g opacity="0.7">
<path opacity="0.7" d="M36.8454 134.93C36.4214 134.93 36.0871 134.83 35.8425 134.631C35.5979 134.429 35.4756 134.137 35.4756 133.755C35.4756 133.556 35.5131 133.382 35.5881 133.232C35.6631 133.079 35.7658 132.959 35.8963 132.875C36.03 132.787 36.1752 132.721 36.3317 132.679C36.4916 132.637 36.6628 132.615 36.8454 132.615C37.2368 132.615 37.563 132.708 37.8239 132.894C38.0849 133.08 38.2153 133.367 38.2153 133.755C38.2153 134.137 38.093 134.429 37.8484 134.631C37.607 134.83 37.2727 134.93 36.8454 134.93ZM36.8454 138.364C36.5747 138.364 36.3334 138.323 36.1214 138.242C35.9126 138.16 35.7414 138.025 35.6077 137.836C35.4739 137.646 35.4071 137.413 35.4071 137.136C35.4071 136.709 35.5424 136.381 35.8131 136.153C36.0871 135.921 36.4312 135.805 36.8454 135.805C37.2564 135.805 37.5972 135.921 37.868 136.153C38.1387 136.381 38.274 136.709 38.274 137.136C38.274 137.547 38.1403 137.855 37.8728 138.061C37.6054 138.263 37.2629 138.364 36.8454 138.364ZM36.8405 139.108C37.3037 139.108 37.7147 139.034 38.0734 138.887C38.4355 138.737 38.7241 138.511 38.9394 138.207C39.1547 137.904 39.2623 137.545 39.2623 137.131C39.2623 136.684 39.1465 136.312 38.9149 136.016C38.6834 135.716 38.3393 135.504 37.8826 135.38C38.2903 135.282 38.6035 135.093 38.822 134.812C39.0405 134.532 39.1498 134.186 39.1498 133.775C39.1498 133.475 39.0894 133.204 38.9688 132.963C38.8481 132.721 38.6817 132.526 38.4697 132.376C38.261 132.222 38.018 132.107 37.7408 132.028C37.4635 131.947 37.1634 131.906 36.8405 131.906C36.41 131.906 36.0235 131.974 35.681 132.111C35.3386 132.248 35.063 132.46 34.8542 132.747C34.6455 133.035 34.5411 133.377 34.5411 133.775C34.5411 134.179 34.6471 134.523 34.8591 134.807C35.0744 135.088 35.394 135.278 35.818 135.38C35.3745 135.471 35.032 135.676 34.7906 135.996C34.5493 136.312 34.4286 136.691 34.4286 137.131C34.4286 137.545 34.5346 137.904 34.7466 138.207C34.9619 138.511 35.2489 138.737 35.6077 138.887C35.9697 139.034 36.3807 139.108 36.8405 139.108ZM42.6234 139.108C42.9985 139.108 43.3312 139.041 43.6214 138.907C43.9117 138.773 44.1466 138.597 44.326 138.379C44.5086 138.157 44.657 137.888 44.7712 137.571C44.8886 137.255 44.9685 136.931 45.0109 136.598C45.0566 136.265 45.0794 135.903 45.0794 135.512C45.0794 133.108 44.2607 131.906 42.6234 131.906C40.9828 131.906 40.1625 133.108 40.1625 135.512C40.1625 135.906 40.1853 136.27 40.231 136.603C40.2767 136.935 40.3566 137.26 40.4707 137.576C40.5881 137.893 40.7365 138.162 40.9159 138.384C41.0986 138.602 41.3351 138.778 41.6253 138.912C41.9156 139.042 42.2483 139.108 42.6234 139.108ZM42.6234 138.315C42.444 138.315 42.2809 138.284 42.1341 138.222C41.9906 138.157 41.87 138.074 41.7721 137.973C41.6743 137.871 41.5878 137.744 41.5128 137.591C41.4411 137.438 41.384 137.283 41.3416 137.126C41.2992 136.97 41.2649 136.794 41.2388 136.598C41.216 136.399 41.1997 136.216 41.1899 136.05C41.1834 135.884 41.1801 135.704 41.1801 135.512C41.1801 135.309 41.1834 135.124 41.1899 134.954C41.1997 134.781 41.2176 134.595 41.2437 134.396C41.2698 134.197 41.3024 134.02 41.3416 133.863C41.384 133.706 41.4427 133.553 41.5177 133.403C41.5927 133.253 41.6792 133.129 41.777 133.031C41.8748 132.93 41.9955 132.85 42.139 132.792C42.2825 132.73 42.444 132.699 42.6234 132.699C42.8028 132.699 42.9642 132.73 43.1077 132.792C43.2512 132.85 43.3719 132.93 43.4698 133.031C43.5709 133.132 43.6573 133.258 43.7291 133.408C43.8041 133.558 43.8628 133.711 43.9052 133.868C43.9476 134.024 43.9819 134.202 44.0079 134.401C44.034 134.597 44.0503 134.781 44.0569 134.954C44.0667 135.124 44.0715 135.309 44.0715 135.512C44.0715 135.704 44.0667 135.884 44.0569 136.05C44.0503 136.213 44.034 136.394 44.0079 136.593C43.9851 136.789 43.9525 136.965 43.9101 137.121C43.8677 137.278 43.809 137.433 43.734 137.586C43.6622 137.739 43.5758 137.868 43.4747 137.973C43.3768 138.074 43.2545 138.157 43.1077 138.222C42.9642 138.284 42.8028 138.315 42.6234 138.315Z" fill="white"/>
<path opacity="0.7" d="M37.0167 171.593C37.4668 171.593 37.8044 171.737 38.0294 172.024C38.2577 172.311 38.3719 172.679 38.3719 173.13C38.3719 173.596 38.2463 173.968 37.9952 174.245C37.744 174.519 37.3852 174.656 36.9188 174.656C36.4655 174.656 36.1132 174.512 35.8621 174.225C35.6109 173.935 35.4853 173.575 35.4853 173.144C35.4853 172.671 35.6191 172.295 35.8865 172.014C36.154 171.734 36.5307 171.593 37.0167 171.593ZM36.9678 175.429C37.6853 175.429 38.2577 175.212 38.685 174.778C39.1123 174.344 39.3259 173.792 39.3259 173.12C39.3259 172.461 39.1237 171.926 38.7192 171.515C38.3181 171.104 37.7815 170.897 37.1096 170.894C36.6856 170.894 36.3154 170.996 35.9991 171.202C35.6859 171.404 35.4919 171.637 35.4169 171.902C35.4169 171.65 35.4217 171.425 35.4315 171.226C35.4446 171.024 35.4674 170.82 35.5 170.615C35.5359 170.409 35.5816 170.23 35.637 170.077C35.6957 169.923 35.7707 169.778 35.8621 169.641C35.9567 169.504 36.0659 169.392 36.1899 169.304C36.3171 169.216 36.4687 169.147 36.6449 169.098C36.821 169.046 37.0183 169.02 37.2368 169.02C37.6348 169.02 38.0457 169.118 38.4697 169.313C38.5154 169.333 38.5562 169.343 38.592 169.343C38.6899 169.343 38.7731 169.297 38.8415 169.206C38.9133 169.111 38.9492 169.008 38.9492 168.898C38.9492 168.751 38.8888 168.648 38.7682 168.589C38.2757 168.348 37.7717 168.227 37.2564 168.227C36.9107 168.227 36.5976 168.271 36.3171 168.359C36.0366 168.444 35.7985 168.56 35.6028 168.707C35.4103 168.85 35.2391 169.03 35.0891 169.245C34.9423 169.46 34.8265 169.68 34.7417 169.905C34.6569 170.13 34.5868 170.383 34.5313 170.664C34.4791 170.944 34.4433 171.208 34.4237 171.456C34.4074 171.701 34.3992 171.965 34.3992 172.249C34.3992 172.595 34.4237 172.918 34.4726 173.218C34.5248 173.514 34.6129 173.801 34.7368 174.079C34.8607 174.356 35.0173 174.592 35.2065 174.788C35.3989 174.984 35.6435 175.14 35.9403 175.258C36.2404 175.372 36.5829 175.429 36.9678 175.429ZM42.6234 175.429C42.9985 175.429 43.3312 175.362 43.6214 175.228C43.9117 175.095 44.1466 174.919 44.326 174.7C44.5086 174.478 44.657 174.209 44.7712 173.893C44.8886 173.576 44.9685 173.252 45.0109 172.919C45.0566 172.586 45.0794 172.224 45.0794 171.833C45.0794 169.429 44.2607 168.227 42.6234 168.227C40.9828 168.227 40.1625 169.429 40.1625 171.833C40.1625 172.228 40.1853 172.591 40.231 172.924C40.2767 173.257 40.3566 173.581 40.4707 173.898C40.5881 174.214 40.7365 174.483 40.9159 174.705C41.0986 174.923 41.3351 175.1 41.6253 175.233C41.9156 175.364 42.2483 175.429 42.6234 175.429ZM42.6234 174.636C42.444 174.636 42.2809 174.605 42.1341 174.543C41.9906 174.478 41.87 174.395 41.7721 174.294C41.6743 174.193 41.5878 174.066 41.5128 173.912C41.4411 173.759 41.384 173.604 41.3416 173.448C41.2992 173.291 41.2649 173.115 41.2388 172.919C41.216 172.72 41.1997 172.538 41.1899 172.371C41.1834 172.205 41.1801 172.025 41.1801 171.833C41.1801 171.631 41.1834 171.445 41.1899 171.275C41.1997 171.102 41.2176 170.917 41.2437 170.718C41.2698 170.519 41.3024 170.341 41.3416 170.184C41.384 170.028 41.4427 169.874 41.5177 169.724C41.5927 169.574 41.6792 169.45 41.777 169.353C41.8748 169.251 41.9955 169.172 42.139 169.113C42.2825 169.051 42.444 169.02 42.6234 169.02C42.8028 169.02 42.9642 169.051 43.1077 169.113C43.2512 169.172 43.3719 169.251 43.4698 169.353C43.5709 169.454 43.6573 169.579 43.7291 169.729C43.8041 169.879 43.8628 170.033 43.9052 170.189C43.9476 170.346 43.9819 170.523 44.0079 170.722C44.034 170.918 44.0503 171.102 44.0569 171.275C44.0667 171.445 44.0715 171.631 44.0715 171.833C44.0715 172.025 44.0667 172.205 44.0569 172.371C44.0503 172.534 44.034 172.715 44.0079 172.914C43.9851 173.11 43.9525 173.286 43.9101 173.443C43.8677 173.599 43.809 173.754 43.734 173.907C43.6622 174.061 43.5758 174.19 43.4747 174.294C43.3768 174.395 43.2545 174.478 43.1077 174.543C42.9642 174.605 42.8028 174.636 42.6234 174.636Z" fill="white"/>
<path opacity="0.7" d="M35.2652 209.412L37.6038 205.654V209.412H35.2652ZM38.0832 211.648C38.2072 211.648 38.3164 211.608 38.411 211.53C38.5056 211.452 38.5529 211.344 38.5529 211.207V210.126H39.2672C39.3813 210.126 39.4694 210.092 39.5314 210.023C39.5934 209.951 39.6243 209.867 39.6243 209.769C39.6243 209.671 39.5934 209.588 39.5314 209.519C39.4694 209.448 39.3813 209.412 39.2672 209.412H38.5578V205.331C38.5578 205.106 38.4926 204.937 38.3621 204.823C38.2316 204.708 38.0685 204.651 37.8728 204.651C37.5402 204.651 37.2743 204.806 37.0754 205.116L34.4041 209.314C34.3422 209.408 34.3112 209.51 34.3112 209.617C34.3112 209.754 34.3568 209.873 34.4482 209.974C34.5427 210.075 34.6651 210.126 34.8151 210.126H37.6038V211.207C37.6038 211.344 37.6527 211.452 37.7505 211.53C37.8484 211.608 37.9593 211.648 38.0832 211.648ZM42.6234 211.75C42.9985 211.75 43.3312 211.683 43.6214 211.55C43.9117 211.416 44.1466 211.24 44.326 211.021C44.5086 210.8 44.657 210.53 44.7712 210.214C44.8886 209.898 44.9685 209.573 45.0109 209.24C45.0566 208.908 45.0794 208.546 45.0794 208.154C45.0794 205.751 44.2607 204.549 42.6234 204.549C40.9828 204.549 40.1625 205.751 40.1625 208.154C40.1625 208.549 40.1853 208.913 40.231 209.245C40.2767 209.578 40.3566 209.903 40.4707 210.219C40.5881 210.535 40.7365 210.804 40.9159 211.026C41.0986 211.245 41.3351 211.421 41.6253 211.555C41.9156 211.685 42.2483 211.75 42.6234 211.75ZM42.6234 210.958C42.444 210.958 42.2809 210.927 42.1341 210.865C41.9906 210.8 41.87 210.716 41.7721 210.615C41.6743 210.514 41.5878 210.387 41.5128 210.234C41.4411 210.08 41.384 209.925 41.3416 209.769C41.2992 209.612 41.2649 209.436 41.2388 209.24C41.216 209.042 41.1997 208.859 41.1899 208.693C41.1834 208.526 41.1801 208.347 41.1801 208.154C41.1801 207.952 41.1834 207.766 41.1899 207.597C41.1997 207.424 41.2176 207.238 41.2437 207.039C41.2698 206.84 41.3024 206.662 41.3416 206.506C41.384 206.349 41.4427 206.196 41.5177 206.046C41.5927 205.896 41.6792 205.772 41.777 205.674C41.8748 205.573 41.9955 205.493 42.139 205.434C42.2825 205.372 42.444 205.341 42.6234 205.341C42.8028 205.341 42.9642 205.372 43.1077 205.434C43.2512 205.493 43.3719 205.573 43.4698 205.674C43.5709 205.775 43.6573 205.901 43.7291 206.051C43.8041 206.201 43.8628 206.354 43.9052 206.51C43.9476 206.667 43.9819 206.845 44.0079 207.044C44.034 207.239 44.0503 207.424 44.0569 207.597C44.0667 207.766 44.0715 207.952 44.0715 208.154C44.0715 208.347 44.0667 208.526 44.0569 208.693C44.0503 208.856 44.034 209.037 44.0079 209.236C43.9851 209.431 43.9525 209.607 43.9101 209.764C43.8677 209.921 43.809 210.075 43.734 210.229C43.6622 210.382 43.5758 210.511 43.4747 210.615C43.3768 210.716 43.2545 210.8 43.1077 210.865C42.9642 210.927 42.8028 210.958 42.6234 210.958Z" fill="white"/>
<path opacity="0.7" d="M39.0519 242.886C39.0519 242.338 38.8481 241.873 38.4404 241.491C38.0359 241.11 37.5271 240.919 36.9139 240.919C36.4834 240.919 36.1197 240.971 35.8229 241.075C35.5294 241.177 35.2212 241.325 34.8983 241.521C34.7711 241.599 34.7075 241.7 34.7075 241.824C34.7075 241.928 34.7466 242.023 34.8249 242.108C34.9064 242.189 34.9977 242.23 35.0988 242.23C35.1478 242.23 35.1951 242.219 35.2407 242.196C35.2701 242.18 35.3598 242.127 35.5098 242.039C35.6631 241.948 35.7773 241.886 35.8523 241.853C35.9306 241.821 36.061 241.785 36.2437 241.746C36.4296 241.707 36.6302 241.687 36.8454 241.687C37.2075 241.687 37.5124 241.806 37.7603 242.044C38.0115 242.279 38.137 242.589 38.137 242.974C38.137 243.202 38.0751 243.43 37.9511 243.659C37.8272 243.884 37.6331 244.132 37.3689 244.402L34.8249 246.981C34.6716 247.134 34.5949 247.294 34.5949 247.46C34.5949 247.604 34.6536 247.724 34.7711 247.822C34.8885 247.917 35.0434 247.964 35.2358 247.964H38.6018C38.7225 247.964 38.8171 247.928 38.8856 247.856C38.9541 247.781 38.9883 247.693 38.9883 247.592C38.9883 247.491 38.9541 247.405 38.8856 247.333C38.8171 247.258 38.7225 247.22 38.6018 247.22H35.6566L37.8924 245.043C38.3066 244.662 38.6035 244.301 38.7828 243.962C38.9622 243.623 39.0519 243.264 39.0519 242.886ZM42.6234 248.072C42.9985 248.072 43.3312 248.005 43.6214 247.871C43.9117 247.737 44.1466 247.561 44.326 247.343C44.5086 247.121 44.657 246.852 44.7712 246.535C44.8886 246.219 44.9685 245.894 45.0109 245.562C45.0566 245.229 45.0794 244.867 45.0794 244.476C45.0794 242.072 44.2607 240.87 42.6234 240.87C40.9828 240.87 40.1625 242.072 40.1625 244.476C40.1625 244.87 40.1853 245.234 40.231 245.567C40.2767 245.899 40.3566 246.224 40.4707 246.54C40.5881 246.857 40.7365 247.126 40.9159 247.348C41.0986 247.566 41.3351 247.742 41.6253 247.876C41.9156 248.006 42.2483 248.072 42.6234 248.072ZM42.6234 247.279C42.444 247.279 42.2809 247.248 42.1341 247.186C41.9906 247.121 41.87 247.038 41.7721 246.937C41.6743 246.835 41.5878 246.708 41.5128 246.555C41.4411 246.402 41.384 246.247 41.3416 246.09C41.2992 245.934 41.2649 245.758 41.2388 245.562C41.216 245.363 41.1997 245.18 41.1899 245.014C41.1834 244.848 41.1801 244.668 41.1801 244.476C41.1801 244.273 41.1834 244.088 41.1899 243.918C41.1997 243.745 41.2176 243.559 41.2437 243.36C41.2698 243.161 41.3024 242.984 41.3416 242.827C41.384 242.67 41.4427 242.517 41.5177 242.367C41.5927 242.217 41.6792 242.093 41.777 241.995C41.8748 241.894 41.9955 241.814 42.139 241.756C42.2826 241.694 42.444 241.663 42.6234 241.663C42.8028 241.663 42.9642 241.694 43.1077 241.756C43.2512 241.814 43.3719 241.894 43.4698 241.995C43.5709 242.096 43.6573 242.222 43.7291 242.372C43.8041 242.522 43.8628 242.675 43.9052 242.832C43.9476 242.988 43.9819 243.166 44.0079 243.365C44.034 243.561 44.0503 243.745 44.0569 243.918C44.0667 244.088 44.0715 244.273 44.0715 244.476C44.0715 244.668 44.0667 244.848 44.0569 245.014C44.0503 245.177 44.034 245.358 44.0079 245.557C43.9851 245.753 43.9525 245.929 43.9101 246.085C43.8677 246.242 43.809 246.397 43.734 246.55C43.6622 246.703 43.5758 246.832 43.4747 246.937C43.3768 247.038 43.2545 247.121 43.1077 247.186C42.9642 247.248 42.8028 247.279 42.6234 247.279Z" fill="white"/>
<path opacity="0.7" d="M41.3709 284.393C41.7459 284.393 42.0786 284.326 42.3689 284.192C42.6592 284.059 42.894 283.882 43.0734 283.664C43.2561 283.442 43.4045 283.173 43.5186 282.857C43.636 282.54 43.716 282.216 43.7584 281.883C43.804 281.55 43.8269 281.188 43.8269 280.797C43.8269 278.393 43.0082 277.191 41.3709 277.191C39.7303 277.191 38.91 278.393 38.91 280.797C38.91 281.192 38.9328 281.555 38.9785 281.888C39.0241 282.221 39.104 282.545 39.2182 282.862C39.3356 283.178 39.484 283.447 39.6634 283.669C39.8461 283.887 40.0825 284.063 40.3728 284.197C40.6631 284.328 40.9958 284.393 41.3709 284.393ZM41.3709 283.6C41.1915 283.6 41.0284 283.569 40.8816 283.507C40.7381 283.442 40.6174 283.359 40.5196 283.258C40.4217 283.157 40.3353 283.03 40.2603 282.876C40.1885 282.723 40.1314 282.568 40.089 282.411C40.0466 282.255 40.0124 282.079 39.9863 281.883C39.9635 281.684 39.9472 281.501 39.9374 281.335C39.9309 281.169 39.9276 280.989 39.9276 280.797C39.9276 280.595 39.9309 280.409 39.9374 280.239C39.9472 280.066 39.9651 279.88 39.9912 279.682C40.0173 279.483 40.0499 279.305 40.089 279.148C40.1314 278.992 40.1902 278.838 40.2652 278.688C40.3402 278.538 40.4266 278.414 40.5245 278.317C40.6223 278.215 40.743 278.136 40.8865 278.077C41.03 278.015 41.1915 277.984 41.3709 277.984C41.5502 277.984 41.7117 278.015 41.8552 278.077C41.9987 278.136 42.1194 278.215 42.2172 278.317C42.3184 278.418 42.4048 278.543 42.4765 278.693C42.5516 278.843 42.6103 278.997 42.6527 279.153C42.6951 279.31 42.7293 279.487 42.7554 279.686C42.7815 279.882 42.7978 280.066 42.8043 280.239C42.8141 280.409 42.819 280.595 42.819 280.797C42.819 280.989 42.8141 281.169 42.8043 281.335C42.7978 281.498 42.7815 281.679 42.7554 281.878C42.7326 282.074 42.7 282.25 42.6576 282.407C42.6152 282.563 42.5565 282.718 42.4814 282.871C42.4097 283.025 42.3232 283.153 42.2221 283.258C42.1243 283.359 42.002 283.442 41.8552 283.507C41.7117 283.569 41.5502 283.6 41.3709 283.6Z" fill="white"/>
</g>
<g filter="url(#filter0_d_1_6747)">
<path d="M55.2363 182.272L59.4193 188.113C63.6267 193.736 72.1149 205.747 80.4319 214.318C88.7733 223.216 97.0658 228.676 105.627 217.211C113.944 205.747 122.261 176.267 130.823 176.43C139.115 176.267 147.457 205.747 155.774 214.318C164.262 223.216 172.652 211.206 180.969 217.211C189.433 223.216 197.848 246.145 206.165 237.574C214.58 228.676 223.044 188.277 231.361 191.007C239.751 193.736 248.239 215.042 256.556 238.135C264.898 261.446 273.19 261.446 281.752 246.87C291.231 232.918 295.86 227.46 306.053 219.775C316.807 212.724 323.581 223.216 331.898 211.37C340.386 199.741 348.777 164.802 357.094 158.961C365.557 153.338 373.972 176.267 382.289 179.378C390.704 182.272 399.168 164.802 403.326 156.067L407.485 147.333" stroke="#D3E763" stroke-width="2.8403" stroke-linecap="round"/>
</g>
<g filter="url(#filter1_d_1_6747)">
<ellipse cx="130.025" cy="175.895" rx="5.06232" ry="5.01832" fill="#111218"/>
<path d="M134.022 175.895C134.022 178.069 132.242 179.848 130.025 179.848C127.809 179.848 126.028 178.069 126.028 175.895C126.028 173.72 127.809 171.942 130.025 171.942C132.242 171.942 134.022 173.72 134.022 175.895Z" stroke="#D3E763" stroke-width="2.13023"/>
</g>
<g filter="url(#filter2_d_1_6747)">
<ellipse cx="231.443" cy="190.383" rx="5.06232" ry="5.01832" fill="#111218"/>
<path d="M235.44 190.383C235.44 192.558 233.66 194.336 231.443 194.336C229.227 194.336 227.446 192.558 227.446 190.383C227.446 188.209 229.227 186.43 231.443 186.43C233.66 186.43 235.44 188.209 235.44 190.383Z" stroke="#D3E763" stroke-width="2.13023"/>
</g>
<g filter="url(#filter3_d_1_6747)">
<ellipse cx="359.123" cy="157.784" rx="5.06232" ry="5.01832" fill="#111218"/>
<path d="M363.12 157.784C363.12 159.959 361.339 161.738 359.123 161.738C356.906 161.738 355.126 159.959 355.126 157.784C355.126 155.61 356.906 153.831 359.123 153.831C361.339 153.831 363.12 155.61 363.12 157.784Z" stroke="#D3E763" stroke-width="2.13023"/>
</g>
<g filter="url(#filter4_d_1_6747)">
<ellipse cx="178.017" cy="215.738" rx="5.06232" ry="5.01832" fill="#111218"/>
<path d="M182.015 215.738C182.015 217.912 180.234 219.691 178.017 219.691C175.801 219.691 174.02 217.912 174.02 215.738C174.02 213.563 175.801 211.785 178.017 211.785C180.234 211.785 182.015 213.563 182.015 215.738Z" stroke="#D3E763" stroke-width="2.13023"/>
</g>
<g filter="url(#filter5_d_1_6747)">
<ellipse cx="307.508" cy="218.454" rx="5.06232" ry="5.01832" fill="#111218"/>
<path d="M311.505 218.454C311.505 220.629 309.724 222.408 307.508 222.408C305.291 222.408 303.51 220.629 303.51 218.454C303.51 216.28 305.291 214.501 307.508 214.501C309.724 214.501 311.505 216.28 311.505 218.454Z" stroke="#D3E763" stroke-width="2.13023"/>
</g>
<path d="M36.9631 375L33.3835 361.909H34.9943L37.7301 372.571H37.858L40.6449 361.909H42.4347L45.2216 372.571H45.3494L48.0852 361.909H49.696L46.1165 375H44.4801L41.5909 364.568H41.4886L38.5994 375H36.9631ZM54.5412 375.205C53.6548 375.205 52.8771 374.994 52.2081 374.572C51.5433 374.15 51.0234 373.56 50.6484 372.801C50.2777 372.043 50.0923 371.156 50.0923 370.142C50.0923 369.119 50.2777 368.227 50.6484 367.464C51.0234 366.701 51.5433 366.109 52.2081 365.687C52.8771 365.265 53.6548 365.054 54.5412 365.054C55.4276 365.054 56.2031 365.265 56.8679 365.687C57.5369 366.109 58.0568 366.701 58.4276 367.464C58.8026 368.227 58.9901 369.119 58.9901 370.142C58.9901 371.156 58.8026 372.043 58.4276 372.801C58.0568 373.56 57.5369 374.15 56.8679 374.572C56.2031 374.994 55.4276 375.205 54.5412 375.205ZM54.5412 373.849C55.2145 373.849 55.7685 373.677 56.2031 373.332C56.6378 372.987 56.9595 372.533 57.1683 371.97C57.3771 371.408 57.4815 370.798 57.4815 370.142C57.4815 369.486 57.3771 368.874 57.1683 368.308C56.9595 367.741 56.6378 367.283 56.2031 366.933C55.7685 366.584 55.2145 366.409 54.5412 366.409C53.8679 366.409 53.3139 366.584 52.8793 366.933C52.4446 367.283 52.1229 367.741 51.9141 368.308C51.7053 368.874 51.6009 369.486 51.6009 370.142C51.6009 370.798 51.7053 371.408 51.9141 371.97C52.1229 372.533 52.4446 372.987 52.8793 373.332C53.3139 373.677 53.8679 373.849 54.5412 373.849ZM61.2928 375V365.182H62.7502V366.665H62.8525C63.0314 366.179 63.3553 365.785 63.824 365.482C64.2928 365.18 64.8212 365.028 65.4093 365.028C65.5201 365.028 65.6586 365.031 65.8248 365.035C65.9909 365.039 66.1167 365.045 66.2019 365.054V366.588C66.1507 366.575 66.0336 366.556 65.8503 366.531C65.6713 366.501 65.4817 366.486 65.2814 366.486C64.8042 366.486 64.378 366.586 64.003 366.786C63.6323 366.982 63.3382 367.255 63.1209 367.604C62.9078 367.95 62.8013 368.344 62.8013 368.787V375H61.2928ZM69.3963 371.42L69.3707 369.554H69.6776L73.973 365.182H75.8395L71.2628 369.81H71.1349L69.3963 371.42ZM67.9901 375V361.909H69.4986V375H67.9901ZM74.2287 375L70.3935 370.142L71.4673 369.094L76.1463 375H74.2287ZM87.2157 365.182V366.46H81.9231V365.182H87.2157ZM83.5083 375V363.827C83.5083 363.264 83.6404 362.795 83.9047 362.42C84.1689 362.045 84.5119 361.764 84.9338 361.577C85.3556 361.389 85.801 361.295 86.2697 361.295C86.6404 361.295 86.943 361.325 87.1774 361.385C87.4118 361.445 87.5865 361.5 87.7015 361.551L87.2669 362.855C87.1902 362.83 87.0836 362.798 86.9473 362.759C86.8152 362.721 86.6404 362.702 86.4231 362.702C85.9245 362.702 85.5645 362.827 85.3429 363.079C85.1255 363.33 85.0169 363.699 85.0169 364.185V375H83.5083ZM92.9142 375.205C92.0279 375.205 91.2502 374.994 90.5811 374.572C89.9164 374.15 89.3965 373.56 89.0215 372.801C88.6507 372.043 88.4654 371.156 88.4654 370.142C88.4654 369.119 88.6507 368.227 89.0215 367.464C89.3965 366.701 89.9164 366.109 90.5811 365.687C91.2502 365.265 92.0279 365.054 92.9142 365.054C93.8006 365.054 94.5762 365.265 95.2409 365.687C95.91 366.109 96.4299 366.701 96.8006 367.464C97.1756 368.227 97.3631 369.119 97.3631 370.142C97.3631 371.156 97.1756 372.043 96.8006 372.801C96.4299 373.56 95.91 374.15 95.2409 374.572C94.5762 374.994 93.8006 375.205 92.9142 375.205ZM92.9142 373.849C93.5875 373.849 94.1415 373.677 94.5762 373.332C95.0108 372.987 95.3326 372.533 95.5414 371.97C95.7502 371.408 95.8546 370.798 95.8546 370.142C95.8546 369.486 95.7502 368.874 95.5414 368.308C95.3326 367.741 95.0108 367.283 94.5762 366.933C94.1415 366.584 93.5875 366.409 92.9142 366.409C92.2409 366.409 91.687 366.584 91.2523 366.933C90.8176 367.283 90.4959 367.741 90.2871 368.308C90.0783 368.874 89.9739 369.486 89.9739 370.142C89.9739 370.798 90.0783 371.408 90.2871 371.97C90.4959 372.533 90.8176 372.987 91.2523 373.332C91.687 373.677 92.2409 373.849 92.9142 373.849ZM99.6658 375V365.182H101.123V366.665H101.225C101.404 366.179 101.728 365.785 102.197 365.482C102.666 365.18 103.194 365.028 103.782 365.028C103.893 365.028 104.032 365.031 104.198 365.035C104.364 365.039 104.49 365.045 104.575 365.054V366.588C104.524 366.575 104.407 366.556 104.223 366.531C104.044 366.501 103.855 366.486 103.654 366.486C103.177 366.486 102.751 366.586 102.376 366.786C102.005 366.982 101.711 367.255 101.494 367.604C101.281 367.95 101.174 368.344 101.174 368.787V375H99.6658ZM110.053 375.205C109.132 375.205 108.34 374.987 107.675 374.553C107.01 374.118 106.499 373.519 106.141 372.756C105.783 371.994 105.604 371.122 105.604 370.142C105.604 369.145 105.787 368.265 106.154 367.502C106.525 366.735 107.04 366.136 107.701 365.706C108.365 365.271 109.141 365.054 110.027 365.054C110.718 365.054 111.34 365.182 111.894 365.438C112.448 365.693 112.902 366.051 113.255 366.511C113.609 366.972 113.828 367.509 113.914 368.122H112.405C112.29 367.675 112.034 367.278 111.638 366.933C111.246 366.584 110.718 366.409 110.053 366.409C109.465 366.409 108.949 366.562 108.506 366.869C108.067 367.172 107.724 367.6 107.477 368.154C107.234 368.704 107.113 369.349 107.113 370.091C107.113 370.849 107.232 371.51 107.471 372.072C107.713 372.635 108.054 373.072 108.493 373.383C108.936 373.694 109.456 373.849 110.053 373.849C110.445 373.849 110.801 373.781 111.12 373.645C111.44 373.509 111.711 373.312 111.932 373.057C112.154 372.801 112.311 372.494 112.405 372.136H113.914C113.828 372.716 113.618 373.238 113.281 373.702C112.949 374.163 112.507 374.529 111.958 374.802C111.412 375.07 110.777 375.205 110.053 375.205ZM120.235 375.205C119.289 375.205 118.473 374.996 117.787 374.578C117.105 374.156 116.579 373.568 116.208 372.814C115.842 372.055 115.659 371.173 115.659 370.168C115.659 369.162 115.842 368.276 116.208 367.509C116.579 366.737 117.095 366.136 117.755 365.706C118.42 365.271 119.196 365.054 120.082 365.054C120.593 365.054 121.098 365.139 121.597 365.31C122.096 365.48 122.549 365.757 122.958 366.141C123.368 366.52 123.694 367.023 123.936 367.649C124.179 368.276 124.301 369.047 124.301 369.963V370.602H116.733V369.298H122.767C122.767 368.744 122.656 368.25 122.434 367.815C122.217 367.381 121.906 367.038 121.501 366.786C121.1 366.535 120.627 366.409 120.082 366.409C119.481 366.409 118.961 366.558 118.522 366.857C118.088 367.151 117.753 367.534 117.519 368.007C117.284 368.48 117.167 368.987 117.167 369.528V370.398C117.167 371.139 117.295 371.768 117.551 372.283C117.811 372.795 118.171 373.185 118.631 373.453C119.091 373.717 119.626 373.849 120.235 373.849C120.632 373.849 120.99 373.794 121.309 373.683C121.633 373.568 121.912 373.398 122.147 373.172C122.381 372.942 122.562 372.656 122.69 372.315L124.147 372.724C123.994 373.219 123.736 373.653 123.374 374.028C123.012 374.399 122.564 374.689 122.032 374.898C121.499 375.102 120.9 375.205 120.235 375.205Z" fill="#C8C9D0"/>
<path d="M39.6719 389.493C39.6188 389.022 39.4001 388.658 39.0156 388.399C38.6312 388.137 38.1473 388.006 37.5639 388.006C37.1463 388.006 36.785 388.073 36.4801 388.205C36.1752 388.335 35.9382 388.513 35.7692 388.742C35.6035 388.968 35.5206 389.224 35.5206 389.513C35.5206 389.755 35.5769 389.964 35.6896 390.139C35.8056 390.315 35.9564 390.462 36.142 390.582C36.331 390.698 36.5331 390.795 36.7486 390.875C36.964 390.951 37.1712 391.014 37.37 391.064L38.3643 391.322C38.6892 391.402 39.0223 391.51 39.3636 391.646C39.705 391.781 40.0215 391.96 40.3132 392.183C40.6049 392.405 40.8402 392.68 41.0192 393.008C41.2015 393.336 41.2926 393.729 41.2926 394.186C41.2926 394.763 41.1435 395.275 40.8452 395.722C40.5502 396.17 40.121 396.523 39.5575 396.781C38.9974 397.04 38.3196 397.169 37.5241 397.169C36.7618 397.169 36.1023 397.048 35.5455 396.806C34.9886 396.564 34.5528 396.221 34.2379 395.777C33.9231 395.33 33.7491 394.799 33.7159 394.186H35.2571C35.2869 394.554 35.4063 394.861 35.6151 395.106C35.8272 395.348 36.0973 395.528 36.4254 395.648C36.7569 395.764 37.1198 395.822 37.5142 395.822C37.9484 395.822 38.3345 395.754 38.6726 395.618C39.014 395.479 39.2824 395.286 39.478 395.041C39.6735 394.793 39.7713 394.503 39.7713 394.171C39.7713 393.87 39.6851 393.623 39.5128 393.43C39.3438 393.238 39.1134 393.079 38.8217 392.953C38.5334 392.827 38.2069 392.716 37.8423 392.62L36.6392 392.292C35.8239 392.07 35.1776 391.743 34.7003 391.312C34.2263 390.882 33.9893 390.312 33.9893 389.602C33.9893 389.016 34.1484 388.504 34.4666 388.066C34.7848 387.629 35.2157 387.289 35.7592 387.047C36.3028 386.802 36.916 386.679 37.5987 386.679C38.2881 386.679 38.8963 386.8 39.4233 387.042C39.9536 387.284 40.3712 387.617 40.6761 388.041C40.9811 388.462 41.1402 388.946 41.1534 389.493H39.6719ZM44.4956 392.466V397H43.0091V386.818H44.4757V390.607H44.5701C44.7491 390.196 45.0225 389.869 45.3904 389.627C45.7583 389.385 46.2389 389.264 46.8322 389.264C47.3559 389.264 47.8133 389.372 48.2044 389.587C48.5988 389.803 48.9037 390.124 49.1191 390.552C49.3379 390.976 49.4473 391.506 49.4473 392.143V397H47.9608V392.322C47.9608 391.762 47.8166 391.327 47.5282 391.019C47.2399 390.708 46.8388 390.552 46.3251 390.552C45.9738 390.552 45.6589 390.626 45.3805 390.776C45.1054 390.925 44.8883 391.143 44.7292 391.432C44.5734 391.717 44.4956 392.062 44.4956 392.466ZM54.6475 397.154C53.9316 397.154 53.3069 396.99 52.7733 396.662C52.2396 396.334 51.8253 395.875 51.5304 395.285C51.2354 394.695 51.0879 394.005 51.0879 393.217C51.0879 392.424 51.2354 391.732 51.5304 391.138C51.8253 390.545 52.2396 390.085 52.7733 389.756C53.3069 389.428 53.9316 389.264 54.6475 389.264C55.3635 389.264 55.9882 389.428 56.5218 389.756C57.0555 390.085 57.4698 390.545 57.7647 391.138C58.0597 391.732 58.2072 392.424 58.2072 393.217C58.2072 394.005 58.0597 394.695 57.7647 395.285C57.4698 395.875 57.0555 396.334 56.5218 396.662C55.9882 396.99 55.3635 397.154 54.6475 397.154ZM54.6525 395.906C55.1165 395.906 55.501 395.784 55.8059 395.538C56.1109 395.293 56.3362 394.967 56.4821 394.559C56.6312 394.151 56.7058 393.702 56.7058 393.212C56.7058 392.724 56.6312 392.277 56.4821 391.869C56.3362 391.458 56.1109 391.129 55.8059 390.88C55.501 390.631 55.1165 390.507 54.6525 390.507C54.1852 390.507 53.7974 390.631 53.4892 390.88C53.1842 391.129 52.9572 391.458 52.8081 391.869C52.6622 392.277 52.5893 392.724 52.5893 393.212C52.5893 393.702 52.6622 394.151 52.8081 394.559C52.9572 394.967 53.1842 395.293 53.4892 395.538C53.7974 395.784 54.1852 395.906 54.6525 395.906ZM59.8665 397V389.364H61.3033V390.577H61.3828C61.522 390.166 61.7673 389.843 62.1186 389.607C62.4732 389.369 62.8743 389.249 63.3217 389.249C63.4145 389.249 63.5239 389.253 63.6499 389.259C63.7791 389.266 63.8802 389.274 63.9531 389.284V390.706C63.8935 390.689 63.7874 390.671 63.6349 390.651C63.4825 390.628 63.33 390.616 63.1776 390.616C62.8262 390.616 62.513 390.691 62.2379 390.84C61.9661 390.986 61.7507 391.19 61.5916 391.452C61.4325 391.71 61.353 392.005 61.353 392.337V397H59.8665ZM69.2553 389.364V390.557H65.0842V389.364H69.2553ZM66.2028 387.534H67.6893V394.758C67.6893 395.046 67.7324 395.263 67.8185 395.409C67.9047 395.552 68.0157 395.649 68.1516 395.702C68.2908 395.752 68.4416 395.777 68.604 395.777C68.7234 395.777 68.8278 395.769 68.9173 395.752C69.0067 395.736 69.0763 395.722 69.1261 395.712L69.3945 396.94C69.3084 396.973 69.1857 397.007 69.0266 397.04C68.8675 397.076 68.6687 397.096 68.43 397.099C68.0389 397.106 67.6744 397.036 67.3363 396.891C66.9982 396.745 66.7248 396.519 66.516 396.214C66.3072 395.91 66.2028 395.527 66.2028 395.066V387.534ZM77.4634 397.149C76.8469 397.149 76.2968 396.992 75.8129 396.677C75.3323 396.359 74.9544 395.906 74.6793 395.32C74.4076 394.73 74.2717 394.022 74.2717 393.197C74.2717 392.371 74.4092 391.665 74.6843 391.079C74.9627 390.492 75.3439 390.043 75.8278 389.732C76.3117 389.42 76.8602 389.264 77.4734 389.264C77.9473 389.264 78.3285 389.344 78.6168 389.503C78.9085 389.659 79.1339 389.841 79.293 390.05C79.4554 390.259 79.5813 390.442 79.6708 390.602H79.7603V386.818H81.2468V397H79.7951V395.812H79.6708C79.5813 395.974 79.4521 396.16 79.283 396.369C79.1173 396.577 78.8886 396.76 78.5969 396.915C78.3053 397.071 77.9274 397.149 77.4634 397.149ZM77.7915 395.881C78.2191 395.881 78.5804 395.769 78.8754 395.543C79.1737 395.315 79.399 394.998 79.5515 394.594C79.7073 394.189 79.7852 393.719 79.7852 393.182C79.7852 392.652 79.7089 392.187 79.5565 391.79C79.404 391.392 79.1803 391.082 78.8853 390.86C78.5903 390.638 78.2257 390.527 77.7915 390.527C77.3441 390.527 76.9712 390.643 76.6729 390.875C76.3746 391.107 76.1493 391.424 75.9968 391.825C75.8477 392.226 75.7731 392.678 75.7731 393.182C75.7731 393.692 75.8493 394.151 76.0018 394.559C76.1542 394.967 76.3796 395.29 76.6779 395.528C76.9795 395.764 77.3507 395.881 77.7915 395.881ZM86.6596 397.154C85.9073 397.154 85.2593 396.993 84.7157 396.672C84.1755 396.347 83.7579 395.891 83.4629 395.305C83.1712 394.715 83.0254 394.024 83.0254 393.232C83.0254 392.449 83.1712 391.76 83.4629 391.163C83.7579 390.567 84.1689 390.101 84.6958 389.766C85.2261 389.432 85.8459 389.264 86.5552 389.264C86.9861 389.264 87.4037 389.335 87.8081 389.478C88.2124 389.621 88.5753 389.844 88.8968 390.149C89.2183 390.454 89.4719 390.85 89.6575 391.337C89.8431 391.821 89.9359 392.41 89.9359 393.102V393.629H83.8656V392.516H88.4792C88.4792 392.125 88.3997 391.778 88.2406 391.477C88.0815 391.172 87.8578 390.931 87.5694 390.756C87.2844 390.58 86.9496 390.492 86.5652 390.492C86.1475 390.492 85.783 390.595 85.4714 390.8C85.1632 391.003 84.9245 391.268 84.7555 391.596C84.5898 391.921 84.5069 392.274 84.5069 392.655V393.525C84.5069 394.035 84.5964 394.469 84.7754 394.827C84.9577 395.185 85.2112 395.459 85.536 395.648C85.8609 395.833 86.2404 395.926 86.6745 395.926C86.9563 395.926 87.2131 395.886 87.4451 395.807C87.6771 395.724 87.8777 395.601 88.0467 395.439C88.2157 395.277 88.345 395.076 88.4345 394.837L89.8414 395.091C89.7288 395.505 89.5266 395.868 89.2349 396.18C88.9466 396.488 88.5836 396.728 88.1461 396.901C87.7119 397.07 87.2164 397.154 86.6596 397.154ZM97.3075 391.228L95.9602 391.467C95.9039 391.294 95.8144 391.13 95.6918 390.974C95.5724 390.819 95.41 390.691 95.2045 390.592C94.9991 390.492 94.7422 390.442 94.4339 390.442C94.013 390.442 93.6617 390.537 93.38 390.726C93.0982 390.911 92.9574 391.152 92.9574 391.447C92.9574 391.702 93.0518 391.907 93.2408 392.063C93.4297 392.219 93.7346 392.347 94.1555 392.446L95.3686 392.724C96.0713 392.887 96.5949 393.137 96.9396 393.475C97.2843 393.813 97.4567 394.252 97.4567 394.793C97.4567 395.25 97.3241 395.658 97.0589 396.016C96.7971 396.37 96.4309 396.649 95.9602 396.851C95.4929 397.053 94.951 397.154 94.3345 397.154C93.4794 397.154 92.7817 396.972 92.2415 396.607C91.7012 396.239 91.3698 395.717 91.2472 395.041L92.6839 394.822C92.7734 395.197 92.9574 395.48 93.2358 395.673C93.5142 395.862 93.8771 395.956 94.3246 395.956C94.8118 395.956 95.2012 395.855 95.4929 395.653C95.7846 395.447 95.9304 395.197 95.9304 394.902C95.9304 394.663 95.8409 394.463 95.6619 394.3C95.4863 394.138 95.2161 394.015 94.8516 393.933L93.5589 393.649C92.8464 393.487 92.3194 393.228 91.978 392.874C91.6399 392.519 91.4709 392.07 91.4709 391.526C91.4709 391.076 91.5968 390.681 91.8487 390.343C92.1006 390.005 92.4486 389.741 92.8928 389.553C93.3369 389.36 93.8456 389.264 94.419 389.264C95.2443 389.264 95.8939 389.443 96.3679 389.801C96.8419 390.156 97.1551 390.631 97.3075 391.228ZM102.308 397.154C101.569 397.154 100.932 396.987 100.399 396.652C99.8683 396.314 99.4606 395.848 99.1756 395.255C98.8906 394.662 98.748 393.982 98.748 393.217C98.748 392.441 98.8939 391.757 99.1855 391.163C99.4772 390.567 99.8882 390.101 100.419 389.766C100.949 389.432 101.574 389.264 102.293 389.264C102.873 389.264 103.39 389.372 103.844 389.587C104.298 389.799 104.664 390.098 104.943 390.482C105.224 390.867 105.392 391.316 105.445 391.83H103.998C103.919 391.472 103.736 391.163 103.451 390.905C103.169 390.646 102.792 390.517 102.318 390.517C101.903 390.517 101.54 390.626 101.229 390.845C100.921 391.061 100.68 391.369 100.508 391.77C100.336 392.168 100.249 392.638 100.249 393.182C100.249 393.739 100.334 394.219 100.503 394.624C100.672 395.028 100.911 395.341 101.219 395.563C101.53 395.785 101.897 395.896 102.318 395.896C102.599 395.896 102.855 395.845 103.083 395.742C103.315 395.636 103.509 395.485 103.665 395.29C103.824 395.094 103.935 394.859 103.998 394.584H105.445C105.392 395.078 105.231 395.518 104.963 395.906C104.694 396.294 104.334 396.599 103.884 396.821C103.436 397.043 102.911 397.154 102.308 397.154ZM107.034 397V389.364H108.471V390.577H108.551C108.69 390.166 108.935 389.843 109.287 389.607C109.641 389.369 110.042 389.249 110.49 389.249C110.583 389.249 110.692 389.253 110.818 389.259C110.947 389.266 111.048 389.274 111.121 389.284V390.706C111.061 390.689 110.955 390.671 110.803 390.651C110.65 390.628 110.498 390.616 110.346 390.616C109.994 390.616 109.681 390.691 109.406 390.84C109.134 390.986 108.919 391.19 108.76 391.452C108.6 391.71 108.521 392.005 108.521 392.337V397H107.034ZM112.407 397V389.364H113.894V397H112.407ZM113.158 388.185C112.9 388.185 112.678 388.099 112.492 387.927C112.31 387.751 112.219 387.542 112.219 387.3C112.219 387.055 112.31 386.846 112.492 386.674C112.678 386.498 112.9 386.411 113.158 386.411C113.417 386.411 113.637 386.498 113.819 386.674C114.005 386.846 114.098 387.055 114.098 387.3C114.098 387.542 114.005 387.751 113.819 387.927C113.637 388.099 113.417 388.185 113.158 388.185ZM115.894 399.864V389.364H117.346V390.602H117.47C117.556 390.442 117.68 390.259 117.843 390.05C118.005 389.841 118.23 389.659 118.519 389.503C118.807 389.344 119.188 389.264 119.662 389.264C120.279 389.264 120.829 389.42 121.313 389.732C121.797 390.043 122.176 390.492 122.451 391.079C122.73 391.665 122.869 392.371 122.869 393.197C122.869 394.022 122.731 394.73 122.456 395.32C122.181 395.906 121.803 396.359 121.323 396.677C120.842 396.992 120.294 397.149 119.677 397.149C119.213 397.149 118.834 397.071 118.539 396.915C118.247 396.76 118.018 396.577 117.853 396.369C117.687 396.16 117.559 395.974 117.47 395.812H117.38V399.864H115.894ZM117.35 393.182C117.35 393.719 117.428 394.189 117.584 394.594C117.74 394.998 117.965 395.315 118.26 395.543C118.555 395.769 118.917 395.881 119.344 395.881C119.788 395.881 120.159 395.764 120.458 395.528C120.756 395.29 120.981 394.967 121.134 394.559C121.29 394.151 121.368 393.692 121.368 393.182C121.368 392.678 121.291 392.226 121.139 391.825C120.99 391.424 120.764 391.107 120.463 390.875C120.164 390.643 119.792 390.527 119.344 390.527C118.913 390.527 118.549 390.638 118.25 390.86C117.955 391.082 117.732 391.392 117.579 391.79C117.427 392.187 117.35 392.652 117.35 393.182ZM128.099 389.364V390.557H123.928V389.364H128.099ZM125.047 387.534H126.533V394.758C126.533 395.046 126.576 395.263 126.662 395.409C126.748 395.552 126.859 395.649 126.995 395.702C127.135 395.752 127.285 395.777 127.448 395.777C127.567 395.777 127.672 395.769 127.761 395.752C127.85 395.736 127.92 395.722 127.97 395.712L128.238 396.94C128.152 396.973 128.029 397.007 127.87 397.04C127.711 397.076 127.512 397.096 127.274 397.099C126.883 397.106 126.518 397.036 126.18 396.891C125.842 396.745 125.569 396.519 125.36 396.214C125.151 395.91 125.047 395.527 125.047 395.066V387.534ZM129.743 397V389.364H131.23V397H129.743ZM130.494 388.185C130.236 388.185 130.014 388.099 129.828 387.927C129.646 387.751 129.555 387.542 129.555 387.3C129.555 387.055 129.646 386.846 129.828 386.674C130.014 386.498 130.236 386.411 130.494 386.411C130.753 386.411 130.973 386.498 131.155 386.674C131.341 386.846 131.434 387.055 131.434 387.3C131.434 387.542 131.341 387.751 131.155 387.927C130.973 388.099 130.753 388.185 130.494 388.185ZM136.446 397.154C135.73 397.154 135.106 396.99 134.572 396.662C134.038 396.334 133.624 395.875 133.329 395.285C133.034 394.695 132.887 394.005 132.887 393.217C132.887 392.424 133.034 391.732 133.329 391.138C133.624 390.545 134.038 390.085 134.572 389.756C135.106 389.428 135.73 389.264 136.446 389.264C137.162 389.264 137.787 389.428 138.321 389.756C138.854 390.085 139.269 390.545 139.564 391.138C139.859 391.732 140.006 392.424 140.006 393.217C140.006 394.005 139.859 394.695 139.564 395.285C139.269 395.875 138.854 396.334 138.321 396.662C137.787 396.99 137.162 397.154 136.446 397.154ZM136.451 395.906C136.915 395.906 137.3 395.784 137.605 395.538C137.91 395.293 138.135 394.967 138.281 394.559C138.43 394.151 138.505 393.702 138.505 393.212C138.505 392.724 138.43 392.277 138.281 391.869C138.135 391.458 137.91 391.129 137.605 390.88C137.3 390.631 136.915 390.507 136.451 390.507C135.984 390.507 135.596 390.631 135.288 390.88C134.983 391.129 134.756 391.458 134.607 391.869C134.461 392.277 134.388 392.724 134.388 393.212C134.388 393.702 134.461 394.151 134.607 394.559C134.756 394.967 134.983 395.293 135.288 395.538C135.596 395.784 135.984 395.906 136.451 395.906ZM143.152 392.466V397H141.665V389.364H143.092V390.607H143.187C143.362 390.202 143.637 389.877 144.012 389.632C144.39 389.387 144.865 389.264 145.439 389.264C145.959 389.264 146.415 389.374 146.806 389.592C147.197 389.808 147.5 390.129 147.716 390.557C147.931 390.984 148.039 391.513 148.039 392.143V397H146.552V392.322C146.552 391.768 146.408 391.336 146.12 391.024C145.831 390.709 145.435 390.552 144.932 390.552C144.587 390.552 144.28 390.626 144.012 390.776C143.747 390.925 143.536 391.143 143.381 391.432C143.228 391.717 143.152 392.062 143.152 392.466ZM156.939 400.023C156.333 400.023 155.811 399.943 155.373 399.784C154.939 399.625 154.584 399.415 154.309 399.153C154.034 398.891 153.829 398.604 153.693 398.293L154.971 397.766C155.06 397.911 155.179 398.066 155.328 398.228C155.481 398.394 155.686 398.535 155.945 398.651C156.207 398.767 156.543 398.825 156.954 398.825C157.518 398.825 157.983 398.687 158.351 398.412C158.719 398.14 158.903 397.706 158.903 397.109V395.608H158.809C158.719 395.77 158.59 395.951 158.421 396.15C158.255 396.349 158.026 396.521 157.735 396.667C157.443 396.813 157.064 396.886 156.596 396.886C155.993 396.886 155.449 396.745 154.966 396.463C154.485 396.178 154.104 395.759 153.822 395.205C153.544 394.648 153.404 393.964 153.404 393.152C153.404 392.34 153.542 391.644 153.817 391.064C154.096 390.484 154.477 390.04 154.961 389.732C155.444 389.42 155.993 389.264 156.606 389.264C157.08 389.264 157.463 389.344 157.755 389.503C158.046 389.659 158.273 389.841 158.436 390.05C158.601 390.259 158.729 390.442 158.819 390.602H158.928V389.364H160.385V397.169C160.385 397.825 160.232 398.364 159.927 398.785C159.622 399.206 159.21 399.517 158.689 399.719C158.172 399.922 157.589 400.023 156.939 400.023ZM156.924 395.653C157.352 395.653 157.713 395.553 158.008 395.354C158.306 395.152 158.532 394.864 158.684 394.489C158.84 394.112 158.918 393.659 158.918 393.132C158.918 392.618 158.842 392.166 158.689 391.775C158.537 391.384 158.313 391.079 158.018 390.86C157.723 390.638 157.359 390.527 156.924 390.527C156.477 390.527 156.104 390.643 155.806 390.875C155.507 391.104 155.282 391.415 155.13 391.81C154.98 392.204 154.906 392.645 154.906 393.132C154.906 393.633 154.982 394.072 155.135 394.45C155.287 394.827 155.512 395.122 155.811 395.335C156.112 395.547 156.484 395.653 156.924 395.653ZM165.595 397.154C164.879 397.154 164.254 396.99 163.721 396.662C163.187 396.334 162.773 395.875 162.478 395.285C162.183 394.695 162.035 394.005 162.035 393.217C162.035 392.424 162.183 391.732 162.478 391.138C162.773 390.545 163.187 390.085 163.721 389.756C164.254 389.428 164.879 389.264 165.595 389.264C166.311 389.264 166.935 389.428 167.469 389.756C168.003 390.085 168.417 390.545 168.712 391.138C169.007 391.732 169.154 392.424 169.154 393.217C169.154 394.005 169.007 394.695 168.712 395.285C168.417 395.875 168.003 396.334 167.469 396.662C166.935 396.99 166.311 397.154 165.595 397.154ZM165.6 395.906C166.064 395.906 166.448 395.784 166.753 395.538C167.058 395.293 167.283 394.967 167.429 394.559C167.578 394.151 167.653 393.702 167.653 393.212C167.653 392.724 167.578 392.277 167.429 391.869C167.283 391.458 167.058 391.129 166.753 390.88C166.448 390.631 166.064 390.507 165.6 390.507C165.132 390.507 164.745 390.631 164.436 390.88C164.132 391.129 163.904 391.458 163.755 391.869C163.609 392.277 163.537 392.724 163.537 393.212C163.537 393.702 163.609 394.151 163.755 394.559C163.904 394.967 164.132 395.293 164.436 395.538C164.745 395.784 165.132 395.906 165.6 395.906ZM174.105 397.154C173.353 397.154 172.705 396.993 172.161 396.672C171.621 396.347 171.203 395.891 170.908 395.305C170.617 394.715 170.471 394.024 170.471 393.232C170.471 392.449 170.617 391.76 170.908 391.163C171.203 390.567 171.614 390.101 172.141 389.766C172.671 389.432 173.291 389.264 174.001 389.264C174.431 389.264 174.849 389.335 175.253 389.478C175.658 389.621 176.021 389.844 176.342 390.149C176.664 390.454 176.917 390.85 177.103 391.337C177.288 391.821 177.381 392.41 177.381 393.102V393.629H171.311V392.516H175.925C175.925 392.125 175.845 391.778 175.686 391.477C175.527 391.172 175.303 390.931 175.015 390.756C174.73 390.58 174.395 390.492 174.01 390.492C173.593 390.492 173.228 390.595 172.917 390.8C172.608 391.003 172.37 391.268 172.201 391.596C172.035 391.921 171.952 392.274 171.952 392.655V393.525C171.952 394.035 172.042 394.469 172.221 394.827C172.403 395.185 172.657 395.459 172.981 395.648C173.306 395.833 173.686 395.926 174.12 395.926C174.402 395.926 174.658 395.886 174.89 395.807C175.122 395.724 175.323 395.601 175.492 395.439C175.661 395.277 175.79 395.076 175.88 394.837L177.287 395.091C177.174 395.505 176.972 395.868 176.68 396.18C176.392 396.488 176.029 396.728 175.591 396.901C175.157 397.07 174.662 397.154 174.105 397.154ZM184.753 391.228L183.406 391.467C183.349 391.294 183.26 391.13 183.137 390.974C183.018 390.819 182.855 390.691 182.65 390.592C182.444 390.492 182.188 390.442 181.879 390.442C181.458 390.442 181.107 390.537 180.825 390.726C180.544 390.911 180.403 391.152 180.403 391.447C180.403 391.702 180.497 391.907 180.686 392.063C180.875 392.219 181.18 392.347 181.601 392.446L182.814 392.724C183.517 392.887 184.04 393.137 184.385 393.475C184.73 393.813 184.902 394.252 184.902 394.793C184.902 395.25 184.769 395.658 184.504 396.016C184.242 396.37 183.876 396.649 183.406 396.851C182.938 397.053 182.396 397.154 181.78 397.154C180.925 397.154 180.227 396.972 179.687 396.607C179.147 396.239 178.815 395.717 178.692 395.041L180.129 394.822C180.219 395.197 180.403 395.48 180.681 395.673C180.96 395.862 181.322 395.956 181.77 395.956C182.257 395.956 182.647 395.855 182.938 395.653C183.23 395.447 183.376 395.197 183.376 394.902C183.376 394.663 183.286 394.463 183.107 394.3C182.932 394.138 182.661 394.015 182.297 393.933L181.004 393.649C180.292 393.487 179.765 393.228 179.423 392.874C179.085 392.519 178.916 392.07 178.916 391.526C178.916 391.076 179.042 390.681 179.294 390.343C179.546 390.005 179.894 389.741 180.338 389.553C180.782 389.36 181.291 389.264 181.864 389.264C182.69 389.264 183.339 389.443 183.813 389.801C184.287 390.156 184.6 390.631 184.753 391.228ZM191.728 392.466V397H190.241V386.818H191.708V390.607H191.803C191.982 390.196 192.255 389.869 192.623 389.627C192.991 389.385 193.471 389.264 194.065 389.264C194.588 389.264 195.046 389.372 195.437 389.587C195.831 389.803 196.136 390.124 196.352 390.552C196.57 390.976 196.68 391.506 196.68 392.143V397H195.193V392.322C195.193 391.762 195.049 391.327 194.761 391.019C194.472 390.708 194.071 390.552 193.558 390.552C193.206 390.552 192.891 390.626 192.613 390.776C192.338 390.925 192.121 391.143 191.962 391.432C191.806 391.717 191.728 392.062 191.728 392.466ZM201.955 397.154C201.202 397.154 200.554 396.993 200.011 396.672C199.47 396.347 199.053 395.891 198.758 395.305C198.466 394.715 198.32 394.024 198.32 393.232C198.32 392.449 198.466 391.76 198.758 391.163C199.053 390.567 199.464 390.101 199.991 389.766C200.521 389.432 201.141 389.264 201.85 389.264C202.281 389.264 202.699 389.335 203.103 389.478C203.507 389.621 203.87 389.844 204.192 390.149C204.513 390.454 204.767 390.85 204.952 391.337C205.138 391.821 205.231 392.41 205.231 393.102V393.629H199.161V392.516H203.774C203.774 392.125 203.695 391.778 203.536 391.477C203.376 391.172 203.153 390.931 202.864 390.756C202.579 390.58 202.245 390.492 201.86 390.492C201.442 390.492 201.078 390.595 200.766 390.8C200.458 391.003 200.219 391.268 200.05 391.596C199.885 391.921 199.802 392.274 199.802 392.655V393.525C199.802 394.035 199.891 394.469 200.07 394.827C200.253 395.185 200.506 395.459 200.831 395.648C201.156 395.833 201.535 395.926 201.969 395.926C202.251 395.926 202.508 395.886 202.74 395.807C202.972 395.724 203.173 395.601 203.342 395.439C203.511 395.277 203.64 395.076 203.729 394.837L205.136 395.091C205.024 395.505 204.821 395.868 204.53 396.18C204.241 396.488 203.879 396.728 203.441 396.901C203.007 397.07 202.511 397.154 201.955 397.154ZM206.88 397V389.364H208.317V390.577H208.396C208.536 390.166 208.781 389.843 209.132 389.607C209.487 389.369 209.888 389.249 210.335 389.249C210.428 389.249 210.538 389.253 210.664 389.259C210.793 389.266 210.894 389.274 210.967 389.284V390.706C210.907 390.689 210.801 390.671 210.649 390.651C210.496 390.628 210.344 390.616 210.191 390.616C209.84 390.616 209.527 390.691 209.252 390.84C208.98 390.986 208.764 391.19 208.605 391.452C208.446 391.71 208.367 392.005 208.367 392.337V397H206.88ZM215.271 397.154C214.519 397.154 213.871 396.993 213.327 396.672C212.787 396.347 212.369 395.891 212.074 395.305C211.783 394.715 211.637 394.024 211.637 393.232C211.637 392.449 211.783 391.76 212.074 391.163C212.369 390.567 212.78 390.101 213.307 389.766C213.837 389.432 214.457 389.264 215.167 389.264C215.597 389.264 216.015 389.335 216.419 389.478C216.824 389.621 217.187 389.844 217.508 390.149C217.83 390.454 218.083 390.85 218.269 391.337C218.454 391.821 218.547 392.41 218.547 393.102V393.629H212.477V392.516H217.091C217.091 392.125 217.011 391.778 216.852 391.477C216.693 391.172 216.469 390.931 216.181 390.756C215.896 390.58 215.561 390.492 215.176 390.492C214.759 390.492 214.394 390.595 214.083 390.8C213.775 391.003 213.536 391.268 213.367 391.596C213.201 391.921 213.118 392.274 213.118 392.655V393.525C213.118 394.035 213.208 394.469 213.387 394.827C213.569 395.185 213.823 395.459 214.147 395.648C214.472 395.833 214.852 395.926 215.286 395.926C215.568 395.926 215.824 395.886 216.056 395.807C216.288 395.724 216.489 395.601 216.658 395.439C216.827 395.277 216.956 395.076 217.046 394.837L218.453 395.091C218.34 395.505 218.138 395.868 217.846 396.18C217.558 396.488 217.195 396.728 216.757 396.901C216.323 397.07 215.828 397.154 215.271 397.154Z" fill="#868898"/>
<path d="M34.9562 64.1705V58.6875L46.8738 39.9091H51.746V47.3523H48.9192L41.9448 58.4034V58.6307H59.2033V64.1705H34.9562ZM49.0045 69V62.4943L49.1465 60.0938V39.9091H55.7232V69H49.0045ZM62.0894 69V63.9432L72.7002 54.6534C73.4957 53.9337 74.1728 53.2756 74.7315 52.679C75.2902 52.0729 75.7163 51.4669 76.0099 50.8608C76.3034 50.2453 76.4502 49.5777 76.4502 48.858C76.4502 48.053 76.275 47.3665 75.9246 46.7983C75.5743 46.2206 75.0913 45.7756 74.4758 45.4631C73.8603 45.1506 73.1548 44.9943 72.3593 44.9943C71.5544 44.9943 70.8489 45.16 70.2428 45.4915C69.6368 45.8134 69.1633 46.2822 68.8224 46.8977C68.4909 47.5133 68.3252 48.2614 68.3252 49.142H61.6633C61.6633 47.1629 62.1084 45.4536 62.9985 44.0142C63.8887 42.5748 65.1387 41.4669 66.7485 40.6903C68.3678 39.9044 70.2476 39.5114 72.3877 39.5114C74.5942 39.5114 76.5118 39.8807 78.1406 40.6193C79.7693 41.358 81.0288 42.3902 81.919 43.7159C82.8186 45.0322 83.2684 46.5616 83.2684 48.304C83.2684 49.4119 83.0459 50.5104 82.6008 51.5994C82.1557 52.6884 81.3555 53.8911 80.2002 55.2074C79.0544 56.5237 77.4256 58.1004 75.3138 59.9375L71.8337 63.1477V63.3324H83.6235V69H62.0894ZM90.7603 69.4119C89.7376 69.4119 88.8616 69.0521 88.1325 68.3324C87.4128 67.6127 87.0576 66.7415 87.0671 65.7188C87.0576 64.715 87.4128 63.858 88.1325 63.1477C88.8616 62.428 89.7376 62.0682 90.7603 62.0682C91.7262 62.0682 92.5785 62.428 93.3171 63.1477C94.0652 63.858 94.444 64.715 94.4535 65.7188C94.444 66.4006 94.2641 67.0208 93.9137 67.5795C93.5728 68.1383 93.123 68.5833 92.5643 68.9148C92.015 69.2462 91.4137 69.4119 90.7603 69.4119ZM98.1847 69V63.9432L108.796 54.6534C109.591 53.9337 110.268 53.2756 110.827 52.679C111.385 52.0729 111.812 51.4669 112.105 50.8608C112.399 50.2453 112.546 49.5777 112.546 48.858C112.546 48.053 112.37 47.3665 112.02 46.7983C111.67 46.2206 111.187 45.7756 110.571 45.4631C109.956 45.1506 109.25 44.9943 108.455 44.9943C107.65 44.9943 106.944 45.16 106.338 45.4915C105.732 45.8134 105.259 46.2822 104.918 46.8977C104.586 47.5133 104.421 48.2614 104.421 49.142H97.7586C97.7586 47.1629 98.2037 45.4536 99.0938 44.0142C99.984 42.5748 101.234 41.4669 102.844 40.6903C104.463 39.9044 106.343 39.5114 108.483 39.5114C110.689 39.5114 112.607 39.8807 114.236 40.6193C115.865 41.358 117.124 42.3902 118.014 43.7159C118.914 45.0322 119.364 46.5616 119.364 48.304C119.364 49.4119 119.141 50.5104 118.696 51.5994C118.251 52.6884 117.451 53.8911 116.296 55.2074C115.15 56.5237 113.521 58.1004 111.409 59.9375L107.929 63.1477V63.3324H119.719V69H98.1847ZM122.949 69V39.9091H129.981V52.2102H130.364L139.981 39.9091H148.262L137.949 52.892L148.447 69H140.037L132.793 57.5653L129.981 61.1165V69H122.949Z" fill="white"/>
<rect x="262.5" y="35.5" width="128.942" height="31" rx="15.5" fill="url(#paint2_linear_1_6747)"/>
<rect x="262.5" y="35.5" width="128.942" height="31" rx="15.5" stroke="url(#paint3_linear_1_6747)"/>
<path d="M279.306 56V47.36H282.06C282.132 47.36 282.274 47.362 282.486 47.366C282.702 47.37 282.91 47.384 283.11 47.408C283.794 47.496 284.372 47.74 284.844 48.14C285.32 48.536 285.68 49.042 285.924 49.658C286.168 50.274 286.29 50.948 286.29 51.68C286.29 52.412 286.168 53.086 285.924 53.702C285.68 54.318 285.32 54.826 284.844 55.226C284.372 55.622 283.794 55.864 283.11 55.952C282.914 55.976 282.708 55.99 282.492 55.994C282.276 55.998 282.132 56 282.06 56H279.306ZM280.776 54.638H282.06C282.18 54.638 282.332 54.634 282.516 54.626C282.704 54.618 282.87 54.6 283.014 54.572C283.422 54.496 283.754 54.314 284.01 54.026C284.266 53.738 284.454 53.388 284.574 52.976C284.698 52.564 284.76 52.132 284.76 51.68C284.76 51.212 284.698 50.772 284.574 50.36C284.45 49.948 284.258 49.602 283.998 49.322C283.742 49.042 283.414 48.864 283.014 48.788C282.87 48.756 282.704 48.738 282.516 48.734C282.332 48.726 282.18 48.722 282.06 48.722H280.776V54.638ZM287.834 56L290.558 47.36H292.676L295.4 56H293.912L291.44 48.248H291.764L289.322 56H287.834ZM289.352 54.128V52.778H293.888V54.128H289.352ZM297.565 56V47.36H299.011V56H297.565ZM301.888 56V47.36H303.334V54.644H307.15V56H301.888ZM310.031 56V52.46L307.091 47.36H308.777L310.763 50.804L312.743 47.36H314.429L311.495 52.46V56H310.031ZM321.053 56L318.329 47.36H319.817L322.097 54.596L324.407 47.36H325.895L323.171 56H321.053ZM327.877 56V47.36H329.323V56H327.877ZM335.278 56.18C334.646 56.18 334.076 56.07 333.568 55.85C333.064 55.63 332.648 55.316 332.32 54.908C331.996 54.496 331.79 54.008 331.702 53.444L333.202 53.216C333.33 53.728 333.592 54.124 333.988 54.404C334.388 54.684 334.848 54.824 335.368 54.824C335.676 54.824 335.966 54.776 336.238 54.68C336.51 54.584 336.73 54.444 336.898 54.26C337.07 54.076 337.156 53.85 337.156 53.582C337.156 53.462 337.136 53.352 337.096 53.252C337.056 53.148 336.996 53.056 336.916 52.976C336.84 52.896 336.74 52.824 336.616 52.76C336.496 52.692 336.356 52.634 336.196 52.586L333.964 51.926C333.772 51.87 333.564 51.796 333.34 51.704C333.12 51.608 332.91 51.478 332.71 51.314C332.514 51.146 332.352 50.934 332.224 50.678C332.1 50.418 332.038 50.098 332.038 49.718C332.038 49.162 332.178 48.696 332.458 48.32C332.742 47.94 333.122 47.656 333.598 47.468C334.078 47.28 334.61 47.188 335.194 47.192C335.786 47.196 336.314 47.298 336.778 47.498C337.242 47.694 337.63 47.98 337.942 48.356C338.254 48.732 338.474 49.186 338.602 49.718L337.048 49.988C336.984 49.684 336.86 49.426 336.676 49.214C336.496 48.998 336.274 48.834 336.01 48.722C335.75 48.61 335.472 48.55 335.176 48.542C334.888 48.538 334.62 48.582 334.372 48.674C334.128 48.762 333.93 48.89 333.778 49.058C333.63 49.226 333.556 49.422 333.556 49.646C333.556 49.858 333.62 50.032 333.748 50.168C333.876 50.3 334.034 50.406 334.222 50.486C334.414 50.562 334.608 50.626 334.804 50.678L336.352 51.11C336.564 51.166 336.802 51.242 337.066 51.338C337.33 51.434 337.584 51.568 337.828 51.74C338.072 51.912 338.272 52.138 338.428 52.418C338.588 52.698 338.668 53.054 338.668 53.486C338.668 53.934 338.574 54.328 338.386 54.668C338.202 55.004 337.952 55.284 337.636 55.508C337.32 55.732 336.958 55.9 336.55 56.012C336.146 56.124 335.722 56.18 335.278 56.18ZM341.047 56V47.36H342.493V56H341.047ZM347.326 56V48.716H344.53V47.36H351.568V48.716H348.772V56H347.326ZM356.685 56.18C356.053 56.18 355.483 56.07 354.975 55.85C354.471 55.63 354.055 55.316 353.727 54.908C353.403 54.496 353.197 54.008 353.109 53.444L354.609 53.216C354.737 53.728 354.999 54.124 355.395 54.404C355.795 54.684 356.255 54.824 356.775 54.824C357.083 54.824 357.373 54.776 357.645 54.68C357.917 54.584 358.137 54.444 358.305 54.26C358.477 54.076 358.563 53.85 358.563 53.582C358.563 53.462 358.543 53.352 358.503 53.252C358.463 53.148 358.403 53.056 358.323 52.976C358.247 52.896 358.147 52.824 358.023 52.76C357.903 52.692 357.763 52.634 357.603 52.586L355.371 51.926C355.179 51.87 354.971 51.796 354.747 51.704C354.527 51.608 354.317 51.478 354.117 51.314C353.921 51.146 353.759 50.934 353.631 50.678C353.507 50.418 353.445 50.098 353.445 49.718C353.445 49.162 353.585 48.696 353.865 48.32C354.149 47.94 354.529 47.656 355.005 47.468C355.485 47.28 356.017 47.188 356.601 47.192C357.193 47.196 357.721 47.298 358.185 47.498C358.649 47.694 359.037 47.98 359.349 48.356C359.661 48.732 359.881 49.186 360.009 49.718L358.455 49.988C358.391 49.684 358.267 49.426 358.083 49.214C357.903 48.998 357.681 48.834 357.417 48.722C357.157 48.61 356.879 48.55 356.583 48.542C356.295 48.538 356.027 48.582 355.779 48.674C355.535 48.762 355.337 48.89 355.185 49.058C355.037 49.226 354.963 49.422 354.963 49.646C354.963 49.858 355.027 50.032 355.155 50.168C355.283 50.3 355.441 50.406 355.629 50.486C355.821 50.562 356.015 50.626 356.211 50.678L357.759 51.11C357.971 51.166 358.209 51.242 358.473 51.338C358.737 51.434 358.991 51.568 359.235 51.74C359.479 51.912 359.679 52.138 359.835 52.418C359.995 52.698 360.075 53.054 360.075 53.486C360.075 53.934 359.981 54.328 359.793 54.668C359.609 55.004 359.359 55.284 359.043 55.508C358.727 55.732 358.365 55.9 357.957 56.012C357.553 56.124 357.129 56.18 356.685 56.18Z" fill="white"/>
<path d="M369 49.257L372.471 52.743L375.942 49.257" stroke="white" stroke-width="1.5" stroke-linecap="round" stroke-linejoin="round"/>
<defs>
<filter id="filter0_d_1_6747" x="0.976406" y="95.9123" width="460.769" height="218.09" filterUnits="userSpaceOnUse" color-interpolation-filters="sRGB">
<feFlood flood-opacity="0" result="BackgroundImageFix"/>
<feColorMatrix in="SourceAlpha" type="matrix" values="0 0 0 0 0 0 0 0 0 0 0 0 0 0 0 0 0 0 127 0" result="hardAlpha"/>
<feOffset dy="2.8403"/>
<feGaussianBlur stdDeviation="26.42"/>
<feColorMatrix type="matrix" values="0 0 0 0 0.827451 0 0 0 0 0.905882 0 0 0 0 0.388235 0 0 0 1 0"/>
<feBlend mode="normal" in2="BackgroundImageFix" result="effect1_dropShadow_1_6747"/>
<feBlend mode="normal" in="SourceGraphic" in2="effect1_dropShadow_1_6747" result="shape"/>
</filter>
<filter id="filter1_d_1_6747" x="122.123" y="170.876" width="15.8056" height="15.7173" filterUnits="userSpaceOnUse" color-interpolation-filters="sRGB">
<feFlood flood-opacity="0" result="BackgroundImageFix"/>
<feColorMatrix in="SourceAlpha" type="matrix" values="0 0 0 0 0 0 0 0 0 0 0 0 0 0 0 0 0 0 127 0" result="hardAlpha"/>
<feOffset dy="2.8403"/>
<feGaussianBlur stdDeviation="1.42015"/>
<feColorMatrix type="matrix" values="0 0 0 0 0.156863 0 0 0 0 0.635294 0 0 0 0 0.388235 0 0 0 0.03 0"/>
<feBlend mode="normal" in2="BackgroundImageFix" result="effect1_dropShadow_1_6747"/>
<feBlend mode="normal" in="SourceGraphic" in2="effect1_dropShadow_1_6747" result="shape"/>
</filter>
<filter id="filter2_d_1_6747" x="223.541" y="185.365" width="15.8056" height="15.7173" filterUnits="userSpaceOnUse" color-interpolation-filters="sRGB">
<feFlood flood-opacity="0" result="BackgroundImageFix"/>
<feColorMatrix in="SourceAlpha" type="matrix" values="0 0 0 0 0 0 0 0 0 0 0 0 0 0 0 0 0 0 127 0" result="hardAlpha"/>
<feOffset dy="2.8403"/>
<feGaussianBlur stdDeviation="1.42015"/>
<feColorMatrix type="matrix" values="0 0 0 0 0.156863 0 0 0 0 0.635294 0 0 0 0 0.388235 0 0 0 0.03 0"/>
<feBlend mode="normal" in2="BackgroundImageFix" result="effect1_dropShadow_1_6747"/>
<feBlend mode="normal" in="SourceGraphic" in2="effect1_dropShadow_1_6747" result="shape"/>
</filter>
<filter id="filter3_d_1_6747" x="351.22" y="152.766" width="15.8056" height="15.7173" filterUnits="userSpaceOnUse" color-interpolation-filters="sRGB">
<feFlood flood-opacity="0" result="BackgroundImageFix"/>
<feColorMatrix in="SourceAlpha" type="matrix" values="0 0 0 0 0 0 0 0 0 0 0 0 0 0 0 0 0 0 127 0" result="hardAlpha"/>
<feOffset dy="2.8403"/>
<feGaussianBlur stdDeviation="1.42015"/>
<feColorMatrix type="matrix" values="0 0 0 0 0.156863 0 0 0 0 0.635294 0 0 0 0 0.388235 0 0 0 0.03 0"/>
<feBlend mode="normal" in2="BackgroundImageFix" result="effect1_dropShadow_1_6747"/>
<feBlend mode="normal" in="SourceGraphic" in2="effect1_dropShadow_1_6747" result="shape"/>
</filter>
<filter id="filter4_d_1_6747" x="170.115" y="210.72" width="15.8056" height="15.7173" filterUnits="userSpaceOnUse" color-interpolation-filters="sRGB">
<feFlood flood-opacity="0" result="BackgroundImageFix"/>
<feColorMatrix in="SourceAlpha" type="matrix" values="0 0 0 0 0 0 0 0 0 0 0 0 0 0 0 0 0 0 127 0" result="hardAlpha"/>
<feOffset dy="2.8403"/>
<feGaussianBlur stdDeviation="1.42015"/>
<feColorMatrix type="matrix" values="0 0 0 0 0.156863 0 0 0 0 0.635294 0 0 0 0 0.388235 0 0 0 0.12 0"/>
<feBlend mode="normal" in2="BackgroundImageFix" result="effect1_dropShadow_1_6747"/>
<feBlend mode="normal" in="SourceGraphic" in2="effect1_dropShadow_1_6747" result="shape"/>
</filter>
<filter id="filter5_d_1_6747" x="299.605" y="213.436" width="15.8056" height="15.7173" filterUnits="userSpaceOnUse" color-interpolation-filters="sRGB">
<feFlood flood-opacity="0" result="BackgroundImageFix"/>
<feColorMatrix in="SourceAlpha" type="matrix" values="0 0 0 0 0 0 0 0 0 0 0 0 0 0 0 0 0 0 127 0" result="hardAlpha"/>
<feOffset dy="2.8403"/>
<feGaussianBlur stdDeviation="1.42015"/>
<feColorMatrix type="matrix" values="0 0 0 0 0.156863 0 0 0 0 0.635294 0 0 0 0 0.388235 0 0 0 0.03 0"/>
<feBlend mode="normal" in2="BackgroundImageFix" result="effect1_dropShadow_1_6747"/>
<feBlend mode="normal" in="SourceGraphic" in2="effect1_dropShadow_1_6747" result="shape"/>
</filter>
<linearGradient id="paint0_linear_1_6747" x1="31.069" y1="9.74064" x2="224.859" y2="443.027" gradientUnits="userSpaceOnUse">
<stop stop-color="#252525"/>
<stop offset="1" stop-color="#101010"/>
</linearGradient>
<linearGradient id="paint1_linear_1_6747" x1="18.4379" y1="-2.47941e-06" x2="135.025" y2="452.419" gradientUnits="userSpaceOnUse">
<stop stop-color="#3E3E3E"/>
<stop offset="1" stop-color="#3E3E3E" stop-opacity="0"/>
</linearGradient>
<linearGradient id="paint2_linear_1_6747" x1="270.962" y1="35.7182" x2="274.88" y2="73.6516" gradientUnits="userSpaceOnUse">
<stop stop-color="#252525"/>
<stop offset="1" stop-color="#101010"/>
</linearGradient>
<linearGradient id="paint3_linear_1_6747" x1="266.929" y1="35" x2="269.038" y2="70.4478" gradientUnits="userSpaceOnUse">
<stop stop-color="#3E3E3E"/>
<stop offset="1" stop-color="#3E3E3E" stop-opacity="0"/>
</linearGradient>
</defs>
</svg>
