<svg width="88" height="88" viewBox="0 0 88 88" fill="none" xmlns="http://www.w3.org/2000/svg">
<circle opacity="0.1" cx="44" cy="44" r="44" fill="#34BE63"/>
<path d="M52.6641 61.25V57.4167C52.6641 55.3833 51.8563 53.4333 50.4185 51.9955C48.9808 50.5577 47.0307 49.75 44.9974 49.75H31.5807C29.5474 49.75 27.5974 50.5577 26.1596 51.9955C24.7218 53.4333 23.9141 55.3833 23.9141 57.4167V61.25" stroke="#34BE63" stroke-width="5" stroke-linecap="round" stroke-linejoin="round"/>
<path d="M60.3359 36.3335V47.8335" stroke="#34BE63" stroke-width="5" stroke-linecap="round" stroke-linejoin="round"/>
<path d="M66.0859 42.0835H54.5859" stroke="#34BE63" stroke-width="5" stroke-linecap="round" stroke-linejoin="round"/>
<path d="M38.2917 42.0833C42.5258 42.0833 45.9583 38.6509 45.9583 34.4167C45.9583 30.1825 42.5258 26.75 38.2917 26.75C34.0575 26.75 30.625 30.1825 30.625 34.4167C30.625 38.6509 34.0575 42.0833 38.2917 42.0833Z" stroke="#34BE63" stroke-width="5" stroke-linecap="round" stroke-linejoin="round"/>
</svg>
