<svg width="87" height="106" viewBox="0 0 87 106" fill="none" xmlns="http://www.w3.org/2000/svg">
<path d="M87 53C82.2511 53.19 68.5742 53.3799 65.155 53.5699C48.6288 54.7097 45.2096 58.129 44.0699 74.6559C43.8799 78.0753 43.69 101.251 43.5 106C43.31 101.251 43.1201 78.0753 42.9301 74.6559C41.7904 58.129 38.3712 54.7097 21.845 53.5699C18.4258 53.3799 4.74891 53.19 0 53C4.74891 52.81 18.4258 52.6201 21.845 52.4301C38.3712 51.2903 41.7904 47.871 42.9301 31.3441C43.1201 27.9247 43.31 4.7491 43.5 0C43.69 4.7491 43.8799 27.9247 44.0699 31.3441C45.2096 47.871 48.6288 51.2903 65.155 52.4301C68.5742 52.6201 82.0611 52.81 87 53Z" fill="white"/>
</svg>
